<?xml version="1.0" encoding="UTF-8"?><svg id="uuid-fb954060-7827-41d6-aafe-4936ffe69e36" xmlns="http://www.w3.org/2000/svg" width="1748.33mm" height="222.2mm" viewBox="0 0 4955.9 629.86"><path d="M2174,160.89c24.54-33.09,37.94-59.78,72.56-84.44,130.97-93.28,329.52-41.22,375.47,118.43l22.36-44.59c62.96-111.76,205.67-148.54,320.35-95.15,195.03,90.8,123.37,377.54,137.25,547.75h-32l-1.93-329.07c-10.21-148.87-128.33-238.67-275.66-203.52-113.83,27.15-149.8,173.74-153.39,302.8-3.35,120.45-1.01,229.79-1.01,229.79h-29s5.4-224.04-2.93-331.07c-21.77-279.69-404.94-286.44-430.13,8-8.92,104.19,7.46,216.49-1.87,321.69-1.52,3.93-30.07,2.92-30.07,1.38V45.89c0-3.41,30-8.44,30,0v115h0Z" fill="#fff"/><path d="M2042,234.89h-28c-2.46,0-7.16-37.73-11.04-47.96-51.7-135.99-246.14-144.81-367.35-121.44-185.35,35.74-201.26,203.97-4.33,235.12,107.13,16.94,396.73-23.28,412.67,133.33,23.22,228.19-452.57,225.15-557.87,87.87-11.2-14.6-55.85-100.92-37.78-112.63.99-.64,22.52-2.77,23.52-2.14,3.5,2.2,17.49,60.48,27.37,77.67,89.25,155.25,562.56,128.54,511.78-57.78-44.15-161.97-472.65-9.52-542.47-191.53-39.08-101.87,45.59-171.82,135.12-193.9,157.54-38.85,429.46-18.16,438.39,193.39h-.01Z" fill="#fff"/><path d="M3964,76.89c-.93-.92-.21-24.75.87-26.13,1.28-1.65,290.24-3.67,292.15.12,1.31,2.61,1.92,25.1,1,26.02-6.86,6.85-187.05-6.89-193.87,2.12-3.22,4.25-5.56,91.94-12.14,105.87h155l-21.03,360.87c51.43,57.51,41.44-80.74,53-84.8,1.71-.6,28.32,15.68,27.15,22.85-9.69,28.97,3.72,73.23-22.09,96.12-18.61,16.51-78.64,17.49-85.6-10.47-4.65-18.68.15-103.22,1.49-127.64,2.19-39.8,10.26-81.23,12.14-121.86.68-14.63,4.28-89.8,2.08-98.11-.71-2.69-2.66-4.96-5.15-4.96h-114c-4.4,0-10.97,78.14-14.74,86.68,2.27,6.3,15.93-9.14,31.72,2.34,10.64,7.74,72.25,105.6,66.03,112.97-.91,1.08-25.87,9.17-27.13,8.24-2.95-2.19-28.53-53.33-36.08-64.03-4.15-5.88-28.15-42.62-34.77-38.19l-22.01,211.98,93.99-30.99v29c-24.94,6.84-130.44,64.97-148.82,59.66-1.35-.39-12.88-19.86-12.93-21.12-.39-9.6,23.14-13.53,29.6-19.67,11.79-11.2,50.94-476.86,47.14-476.86-8.45,0-60.77,2.23-63,0h0Z" fill="#fff"/><path d="M4916,438.89h-92c3.01,17.18-7.81,108.24,1.92,117.08,5.74,5.21,78.9,4.18,86.6-1.01,15.31-10.31,10.73-65.25,13.47-68.08.95-.98,25.22-.6,27.14,1.89,7.35,9.55-1.16,67.93-11.14,81.11-21.97,29-127.22,32.47-143.74-.23-12.95-25.63-1.39-116.84-9.12-126.88-1.96-2.55-61.02-4.86-64.13-4.07-3.3.83-20.99,50.8-28.2,61.99-28,43.5-103.75,99.81-157.64,94.01-12.86-1.38-19.38-24.85-17.16-27.79,2.37-3.15,61.83-15,75.92-21.09,30-12.98,66.2-40.17,78.46-71.54,1.58-4.05,11.39-35.38,2.62-35.38h-75c.08-21.85-6.57-175.32,1.2-182.27,11.58-10.37,273.22,1.97,310.8,3.27v179h0ZM4886,288.89h-252v39c0,4.66,15.47,6.64,18.94,7.06,26.58,3.17,201.38,4.75,222.14.03,7.48-1.7,10.92-7.35,10.92-15.08v-31h0ZM4886,366.89h-251c-.21,0-3,2.79-3,3v37c29.7-2.53,247.69,10.39,255.18.03,1.02-1.41-1.18-2.59-1.18-3.03v-37Z" fill="#fff"/><path d="M26,404.89v224c0,1.3-26,1.3-26,0V3.89c122.63,4.7,255.43-9.7,377.07-1.07,261.74,18.58,261.83,382.08-4,400.14-112.37,7.63-233.65-5.57-347.07,1.93h0ZM26,28.89v347c0,2.37,5.22,2.72,6.9,3.1,42.63,9.75,263.08,3.13,318.17-.03,105.75-6.07,186.33-45.99,193.03-162.97,6.87-119.89-63.17-179.72-177.03-187.17-110.81-7.25-229.47,5.57-341.07.07h0Z" fill="#fff"/><path d="M1179.93,144.85c-4.77,1.82-31.04-27.13-37.27-31.61-109.22-78.58-287.72-81.06-391.58,7.73-140.51,120.11-83.29,314.75-95.09,476.91-.77,10.41-29.8,7.63-31.68,4.7,3.77-95.36-6.05-196.01-.4-290.79,13.49-226.41,229.69-326.07,433.65-271.46,30.04,8.05,123.86,49.27,137.24,76.75,4.56,9.36-11.06,26.3-14.87,27.76h0Z" fill="#fff"/><path d="M4580,80.89c5.94-5.94,159.8,4.55,167.99-2.01,2.69-2.16-41.91-57.81,3.05-50.14,18.86,3.22,20.87,48.16,22.96,50.16,5.95,5.7,152.51-3.81,164.72,2.28,4.57,2.28,2.82,29.71,1.29,29.71h-63c-6.82,0-31.9,63.33-29,65.99,3.91,3.58,102.2-1.68,106.01,2,1.11,1.07,3.79,30.01-1.01,30.01h-387v-30c0-5.1,98.39,1.6,102.01-1.99,4.43-4.39-13.07-57.6-18.92-62.1-8.92-6.87-69.09-2.27-69.09-5.91,0-4.09-.99-27.01,0-28h-.01ZM4831.81,113.11c-3.94-6.14-143.64-5.88-145.96,1.04-1.05,3.14,21.22,60.17,24.13,61.77,6.43,3.54,93.46,2.3,99.8-4.24,4.15-4.28,24.63-54.5,22.03-58.56h0Z" fill="#fff"/><path d="M4390,204.89c2.38-2.38,62.6,2.01,67.12-3.88,8.86-11.52-3.1-162.21,2.86-168.14.76-.76,18.39-.49,21.22,1.8,11.58,9.4-1.18,162.25,4.78,168.22,2.27,2.27,52.01-.61,52.01,1.99v30h-52v234c16.37-.64,53.59-24.39,67.03-22.19,10.22,1.67,11.37,18.83,6.03,26.26-11.62,16.2-129.02,46.76-150.97,63-14.09,11.7-23.21-21.16-22.22-28.13s67.14-20.52,70.53-27.71l1.6-245.23h-68c.78-4.48-1.06-28.94,0-30h.01Z" fill="#fff"/><path d="M3958,316.89c2.27,1.4.65,29.3-.13,32.87-4.79,21.63-48.95,84.91-63.43,106.57-5.25,7.86-37.7,46.89-38.21,49.99-.89,5.33,48.96,61.53,49.73,65.63.4,2.09-20.27,24.42-27.42,20.42l-130.49-152.48c6.5-2.39,16-17.83,22.53-16.77,10.36,1.68,55.41,59.71,65.47,56.85,7.49-2.12,89.89-126.04,83.94-131.06-7.87-6.65-182.35.91-205.99-.01v-32c30.92,5.89,231.58-7.68,244,0h0Z" fill="#fff"/><path d="M3842.64,99.57c-5.29,3.59-57.55,91.23-69.82,107.14-5.73,7.43-47.42,58.99-51.29,59.68-9.88,1.77-25.32-14.98-22.07-24.92,1.32-4.05,47.55-54.08,55.36-64.77,33.53-45.93,58.42-97.47,84.24-147.93,5.33-2.06,28.59,13.48,28.95,15.21,1.06,5.09-12.09,7.76-9.07,16.84,1.25,3.76,37.57,42.17,43.84,50.3,12.42,16.08,63.89,79.78,68.93,93.05,6.17,16.26-7.15,22.61-20.76,28.94l-100.02-134.25c-2.88-3.38-5.62-1.1-8.29.72h0Z" fill="#fff"/><polygon points="1342 602.89 1308 602.89 1310 174.89 1339 174.89 1342 602.89" fill="#fff"/><path d="M1369.55,43.27c29.43-2.7,31.69,39.36,7.3,43.51-31.42,5.35-36.06-40.86-7.3-43.51Z" fill="#fff"/><path d="M1279.58,43.32c28.07-2.07,32,42.43,3.32,43.64-28.8,1.22-31.42-41.56-3.32-43.64h0Z" fill="#fff"/><path d="M3848.02,216.87c-2.79-1.46-1.21-60.04-.03-62.97,7.19-17.94,15.52,71.07.03,62.97h0Z" fill="#fff"/><path d="M3838,224.89c.25.17.26,5.82.01,5.99-2.53,1.79-59.6,3.95-62.02,2-.31-.25-.39-7.99,0-7.99,8.3,0,59.46-1.78,62,0h.01Z" fill="#fff"/><path d="M3848,240.89c.17-.25,5.82-.26,5.99-.01,1.79,2.53,3.95,59.6,2,62.02-.25.31-7.99.39-7.99,0,0-8.3-1.78-59.46,0-62h0Z" fill="#fff"/><path d="M3926,224.89c.24.17.3,6,0,6h-64c-.3,0-.3-6,0-6,8.54,0,61.39-1.85,64,0Z" fill="#fff"/><path d="M3841.99,220.88c-1.22,1.41-27.67-22.29-28.72-23.84-11.25-16.54,37.41,13.81,28.72,23.84Z" fill="#fff"/><path d="M3841.99,236.91c2.66,2.52-24.71,36.59-29.96,24.95-.82-1.81,27.86-26.94,29.96-24.95Z" fill="#fff"/><path d="M3887.99,192.91c-.98,6.45-25.26,30.2-29.98,25.97-1.94-1.74,23.11-30.39,29.98-25.97Z" fill="#fff"/><path d="M3885.99,264.88c-3.99.48-33.77-27.63-24.94-27.98,3.5-.14,29.15,20.41,24.94,27.98Z" fill="#fff"/></svg>