<?xml version="1.0" encoding="UTF-8"?>
<svg id="_图层_1" data-name="图层_1" xmlns="http://www.w3.org/2000/svg" version="1.1" viewBox="0 0 957 842">
  <!-- Generator: Adobe Illustrator 29.5.1, SVG Export Plug-In . SVG Version: 2.1.0 Build 141)  -->
  <rect x="471.5" y="157.05" width="23.9" height="23.9" fill="white"/>
  <rect x="471.5" y="185.54" width="23.9" height="204.55" fill="white"/>
  <rect x="471.5" y="661.05" width="23.9" height="23.9" transform="translate(966.9 1346.01) rotate(180)" fill="white"/>
  <rect x="471.5" y="451.93" width="23.9" height="204.55" transform="translate(966.9 1108.4) rotate(180)" fill="white"/>
  <rect x="691.38" y="409.5" width="23.9" height="23.9" transform="translate(1124.78 -281.88) rotate(90)" fill="white"/>
  <rect x="591.9" y="339.59" width="23.9" height="163.72" transform="translate(1025.3 -182.39) rotate(90)" fill="white"/>
  <rect x="252.51" y="411.1" width="23.9" height="23.9" transform="translate(-158.59 687.51) rotate(-90)" fill="white"/>
  <rect x="354.88" y="341.19" width="23.9" height="163.72" transform="translate(-56.21 789.88) rotate(-90)" fill="white"/>
  <rect x="573.65" y="306.69" width="17.87" height="17.87" transform="translate(354.61 -306.51) rotate(41.43)" fill="white"/>
  <rect x="530.8" y="313.59" width="17.87" height="100.37" transform="translate(375.74 -266.11) rotate(41.43)" fill="white"/>
  <rect x="376.83" y="306.69" width="17.87" height="17.87" transform="translate(883.85 297.03) rotate(138.57)" fill="white"/>
  <rect x="419.69" y="313.59" width="17.87" height="100.37" transform="translate(990.69 352.92) rotate(138.57)" fill="white"/>
  <rect x="374.44" y="518.42" width="17.87" height="17.87" transform="translate(321.9 1176.42) rotate(-138.57)" fill="white"/>
  <rect x="417.3" y="429.02" width="17.87" height="100.37" transform="translate(428.74 1120.53) rotate(-138.57)" fill="white"/>
  <rect x="577.41" y="515.98" width="17.87" height="17.87" transform="translate(-199.88 559.38) rotate(-44.35)" fill="white"/>
  <rect x="532.16" y="428.83" width="17.87" height="100.37" transform="translate(-180.68 514.67) rotate(-44.35)" fill="white"/>
</svg>
