<?xml version="1.0" encoding="utf-8"?>
<!-- Generator: Adobe Illustrator 18.1.1, SVG Export Plug-In . SVG Version: 6.00 Build 0)  -->
<svg version="1.1" id="图层_1" xmlns="http://www.w3.org/2000/svg" xmlns:xlink="http://www.w3.org/1999/xlink" x="0px" y="0px"
	 viewBox="0 0 89.2 16.2" enable-background="new 0 0 89.2 16.2" xml:space="preserve">
<path fill="#0E83DB" d="M79,1.2c2.6-1.7,6-1.4,8.9-0.6c0.1,1,0.2,2,0.2,3C86.3,3,84.3,2.4,82.5,3c-1,0.2-1.3,1.6-0.5,2.3
	c1.8,1.3,4.3,1.4,6,3c2,1.8,1.4,5.4-0.8,6.8c-1.9,1.2-4.3,1.3-6.4,1.2c-1.3-0.2-2.7-0.3-3.9-1c-0.1-1-0.1-2.1-0.1-3.1
	c1.9,0.9,4,1.6,6.1,1.3c0.9-0.1,2-0.7,1.9-1.8c0-0.8-0.8-1.2-1.4-1.5c-1.8-0.8-3.8-1.3-5.2-2.7C76.5,5.7,76.9,2.5,79,1.2z"/>
<g>
	<path fill="#1084DB" d="M0,0.4C3.6,0,7.4-0.4,10.8,1.2c3.4,1.7,3.4,7,0.7,9.3c-1.9,1.6-4.6,1.7-7,1.6c-0.1,1.2-0.1,2.4-0.1,3.6
		c-1.4,0-2.9,0-4.3,0C0,10.6,0,5.5,0,0.4z M4.4,2.7c0,2.3-0.2,4.6,0,6.9C6,9.8,8,9.5,8.7,7.8C9.2,6.4,9.3,4.5,8,3.5
		C7,2.7,5.7,2.7,4.4,2.7z"/>
</g>
<g>
	<path fill="#0D84DB" d="M61.9,0.4c3.6-0.4,7.5-0.9,10.8,0.7c3.7,1.8,3.4,7.7,0.1,9.8c-1.9,1.3-4.3,1.3-6.6,1.2
		c-0.1,1.2-0.1,2.4,0,3.6c-1.5,0.1-3,0.2-4.4,0C61.8,10.6,61.6,5.5,61.9,0.4z M66.3,2.7c0,2.3,0,4.6,0,7c1.1-0.1,2.4,0,3.3-0.6
		c1.6-1.2,1.7-3.6,0.7-5.2C69.3,2.6,67.6,2.7,66.3,2.7z"/>
</g>
<path fill="#0F83DA" d="M15.6,0.6c1.4,0,2.9-0.1,4.3,0c0.3,2,0,4.1,0.1,6.1c1.8,0.1,3.6,0,5.4,0c0.1-2.1-0.1-4.1,0.1-6.2
	c1.5,0,3,0,4.5,0c0.1,5.1,0,10.1,0,15.2c-1.5,0-3.1,0-4.6,0c0-2.1,0-4.1,0-6.2c-1.8,0.1-3.6-0.1-5.4,0c0,2-0.1,4.1,0,6.1
	c-1.5,0-3,0-4.4,0C15.6,10.7,15.6,5.6,15.6,0.6z"/>
<path fill="#0D84DB" d="M34,0.5c1.4,0,2.8,0,4.2,0c0.2,5.1-0.1,10.1,0.1,15.2c-1.4,0-2.9,0-4.3,0C34,10.6,34,5.6,34,0.5z"/>
<path fill="#0E83DB" d="M42.3,0.5c1.4-0.1,2.9,0,4.3,0c0,4.1,0,8.3,0,12.4c1.4,0.1,2.9,0,4.3,0c0,0.9,0,1.8,0,2.7
	c-1.5,0.4-3.1,0-4.7,0.2c-1.3,0.1-2.7,0-4-0.1C42.3,10.6,42.3,5.6,42.3,0.5z"/>
<path fill="#0D83DB" d="M53.3,15.7c0.1-5.1,0-10.2,0.1-15.2c1.5,0,3,0,4.4,0c0,5.1,0,10.1,0,15.2C56.3,15.7,54.8,15.9,53.3,15.7z"/>
</svg>
