<?xml version="1.0" encoding="utf-8"?>
<!-- Generator: Adobe Illustrator 18.1.1, SVG Export Plug-In . SVG Version: 6.00 Build 0)  -->
<svg version="1.1" id="图层_1" xmlns="http://www.w3.org/2000/svg" xmlns:xlink="http://www.w3.org/1999/xlink" x="0px" y="0px"
	 viewBox="0 0 92.6 31.9" enable-background="new 0 0 92.6 31.9" xml:space="preserve">
<path fill="#F9FCFC" d="M24.4,20.5l2.6,5.8c0,0,2.5-3.7,2.9-5.6L24.4,20.5z"/>
<path fill="#F9FCFC" d="M19.6,27.6l0.7,3.5c0,0,2.7-0.9,4.6-2.6l-0.2-1.7L19.6,27.6z"/>
<path fill="#F9FCFC" d="M5.2,24.7l-1.8,1.5c0,0,1.9,2,2.4,2.4s1-1.2,1-1.2l0.5-2.1L5.2,24.7z"/>
<g>
	<path fill="#020101" d="M8.8,1.3c2-1.2,4.6-1.6,6.9-1.1c1.3,0.4,2.5,1.1,3.6,1.8c1.4,1.6,2.4,3.7,2.5,5.8c0,1.2,0.5,2.3,0.6,3.4
		c-0.2,2-1.1,3.9-1.6,5.9c-0.2,0.9,0.6,1.7,1.3,2.1c2.5,1,5.2,0.6,7.7,1.4c0,0.2,0,0.6-0.1,0.8c-1.7-0.4-3.4-0.5-5.1-0.8
		c0.6,1.8,1.4,3.6,2.3,5.2c0.4,0.6-0.3,1-0.6,1.5c-0.7-1.9-1.3-3.8-2.1-5.7c-0.2-0.6-0.7-1.2-1.2-1.6c0.7,2.5,1.4,5.1,1.9,7.7
		c-0.1-0.2-0.2-0.5-0.2-0.7l-0.6,0.1c-0.5,0.1-0.9,0.1-1.4,0.2c-0.3,0-0.8,0.1-1,0.2c-0.4,0-0.7,0.1-1.1,0.1c-0.2,0-0.6,0.1-0.8,0.1
		c0.1,0.4,0.1,0.9,0.2,1.3c-0.2-0.4-0.3-0.8-0.4-1.2c-1.7,0.1-3.3,0.2-4.9,0.7c-1.9,0.6-3.8,0.9-5.6,1.8c-0.3-0.2-0.5-0.3-0.8-0.5
		c-0.1-2,0.1-4-0.1-6.1c-0.9,1.8-0.9,3.7-1.4,5.6c-0.4-0.3-0.7-0.6-1.1-0.9c0.4-1,0.6-2,0.8-3.1c-0.5-0.1-1-0.3-1.5-0.3
		c-0.6,0.2-1.2,0.6-1.7,1c-0.2-0.3-0.4-0.6-0.7-0.9c1.6-0.6,3.1-1.3,4.6-2.1c1.3-0.6,2.3-1.9,2.2-3.3c-0.3-0.8-0.8-1.5-1.3-2.2
		c-0.2,0-0.4,0-0.6-0.1c-0.5-2-2.1-3.3-2.6-5.3c-0.7-1.9,0.2-4-1-5.8c-0.3,0.3-0.7,0.6-1,0.9c0.9-1.1,2-2.1,2.7-3.3
		c0.4-0.5,0.2-1,0.1-1.6C6.8,2,7.9,2,8.8,1.3z M10.3,1.5C9.4,2.2,8.6,3.1,7.9,3.9c0.9-0.2,1.7-0.5,2.6-0.6c1.2,0.1,2.9,0.1,3.3,1.6
		C12.5,5,11,4.3,10,5.4C8.6,6.6,9,8.6,8.4,10.3c1.2-0.2,2.5-0.5,3.7,0c0.7,0.3,1.5,0.3,2.2,0.1c1.1-0.9,2.6-1.2,4-1.2
		c0.1,0.3,0.3,0.6,0.4,0.9c0.3-0.4,0.6-1.1,1.2-0.7c-0.2-1.3-0.9-2.4-1.3-3.6c1,0.5,1.2,1.8,1.9,2.5c0.3-2.6-1.1-5.3-3.5-6.6
		C15.2,0.5,12.5,0.3,10.3,1.5z M5.8,7.1C6.3,8.4,6.3,9.8,6.9,11c0.4,0.2,0.8,1.1,1.3,0.6C8,11.4,7.7,11.2,7.4,11
		c-0.1-0.9-0.2-1.9-0.1-2.8c0.5-1.3,1.5-2.4,2.3-3.6C8.2,5.2,6.8,6,5.8,7.1z M16.6,10.3c0.5,0,0.9,0.1,1.4,0.1
		c0.1-0.1,0.3-0.3,0.4-0.4C17.7,10,17.1,10.1,16.6,10.3z M19.4,10.3c0,1.1-0.2,2.2-1.3,2.7c0.5-0.8,0.5-2-0.7-2.1
		c0,0.2,0.1,0.5,0.1,0.7c-0.8,0-1.6,0-2.3-0.3c0,0.3-0.1,0.9-0.2,1.2c-0.3-0.4-0.6-0.9-0.9-1.3c-1.3,0.5-0.7,2.1-1,3.2
		c0.3,0.2,0.7,0.3,1,0.5c0.6-0.2,1.2-0.4,1.9-0.5c0-0.2,0-0.7,0-1c1,0.6,2.2,1.1,2.8,2.2c0.2,1-0.2,2.2-1,2.9c0-0.3-0.1-0.9-0.1-1.2
		c-1.1,0.3-2.2,0.3-3.3,0.1c-0.2,0.3-0.4,0.5-0.6,0.8c0.3,0.3,0.6,0.5,0.9,0.6c0,0.2,0.1,0.5,0.1,0.6c-0.2,0-0.5,0-0.7,0
		c0,0.7-0.1,1.4-0.1,2.2c0.6,0.7,1.3,1.2,2,1.7c0.3-0.7,0.5-1.4,0.9-2c1-0.8,2.4-1.4,2.7-2.8c0.2-1.1,0.7-2.2,0.2-3.2
		c0.2-0.5,0.5-0.9,0.9-1.2c0.6-1.2,0.8-2.5,1-3.8c-0.3,0.1-0.7,0.1-1,0.2c0,0.4-0.2,0.8-0.6,0.9c0-0.4,0.1-1.1,0.1-1.5
		C20.1,10,19.7,10.2,19.4,10.3z M8.4,11.6c0.6-0.1,1.2-0.2,1.8-0.4c0.5,0.1,1,0.3,1.5,0.4c-0.5-0.9-1.7-0.4-2.5-0.6
		C8.9,11.2,8.6,11.4,8.4,11.6z M10.3,11.7 M6.9,12.1c-0.2,0.4,0.4,1,0.8,0.8C8,12.4,7.3,11.9,6.9,12.1z M10.7,12.2
		c-0.5,0.4-1,0.3-1.6,0.3c0.3,0.9,0.6,1.8,0.8,2.7c0.1,0,0.4,0.1,0.6,0.2c1.4-0.5,2.4-1.9,2.2-3.3C12,12.1,11.3,11.8,10.7,12.2z
		 M14.6,15.6c-0.6,0-1.1-0.1-1.6-0.1c-0.4,0.3-0.7,0.7-1.1,1.1c0.9,0,1.9-0.1,2.8-0.2c1.1-0.6,2.3-0.1,3.4-0.7
		c-0.5-0.6-1.1-1-1.8-1.4C15.7,14.9,15.2,15.3,14.6,15.6z M10.1,16.9c0.3,1.6,1.3,3,2.9,3.5c0-0.2-0.1-0.6-0.2-0.8
		c-1.2-0.6-1.7-1.8-1.9-3C10.7,16.6,10.4,16.7,10.1,16.9z M20.7,19.1c-0.7,1.4-1.9,2.4-3,3.5c0.6,0,1.1,0,1.7,0
		c0.1,0.9-0.2,1.7-0.9,2.3c0.3,0.4,0.7,0.7,1,1.2c-0.9-0.4-1.7-1-2.6-1.5c0.3,0.9,0.6,1.9,0.9,2.8c1.9-0.1,3.9-0.3,5.7-0.7
		c-0.6-2.1-0.2-4.6-1.6-6.5c-0.1,1.8-0.5,3.7-1.5,5.3C20.7,23.3,21.9,21.1,20.7,19.1z M10.4,21.4c-0.2,2.3,1.1,4.4,2.7,6
		c-2-0.4-2.6-2.6-3.7-4c-0.3,1.8-0.2,3.6,0.1,5.4c1.5-0.4,3.1-0.5,4.6-1c0.7-0.8,0.9-1.9,1.2-2.8c-0.7,0.4-1.1,1.2-1.8,1.5
		c0.2-0.4,0.4-0.8,0.6-1.1c-1,0.2-1.8-0.2-2.2-1.1c0.4-0.5,0.8-0.9,1.5-1.1C12.4,22.6,11.5,21.9,10.4,21.4z M16,26.5
		c-0.4,0.2-0.4,0.9,0,1.1C16.7,27.8,16.7,26.4,16,26.5z"/>
</g>
<path fill="#FEFEFE" d="M10.3,1.5c2.1-1.2,4.9-1,7,0.2c2.3,1.2,3.7,4,3.5,6.6c-0.7-0.8-0.9-2-1.9-2.5c0.4,1.2,1,2.4,1.3,3.6
	c-0.7-0.3-0.9,0.3-1.2,0.7c-0.1-0.3-0.3-0.6-0.4-0.9c-1.4-0.1-2.9,0.3-4,1.2c-0.8,0.1-1.5,0.2-2.2-0.1c-1.2-0.5-2.5-0.2-3.7,0
	C9,8.6,8.6,6.6,10,5.4c1-1,2.5-0.3,3.7-0.4c-0.4-1.5-2-1.5-3.3-1.6C9.6,3.4,8.7,3.7,7.9,3.9C8.6,3.1,9.4,2.2,10.3,1.5z"/>
<path fill="#CB0329" d="M19.3,2c4.2,0.9,7.8,4.1,9.7,8c1.6,3.3,1.8,7.2,0.9,10.7l-0.1,0c-2.5-0.8-5.2-0.4-7.7-1.4
	c-0.7-0.4-1.6-1.2-1.3-2.1c0.5-2,1.4-3.8,1.6-5.9c-0.1-1.2-0.6-2.3-0.6-3.4C21.7,5.7,20.6,3.7,19.3,2z"/>
<path fill="#FEFEFE" d="M5.8,7.1C6.8,6,8.2,5.2,9.5,4.6C8.7,5.8,7.7,6.8,7.2,8.2c0,0.9,0,1.9,0.1,2.8c0.3,0.2,0.6,0.4,0.9,0.6
	c-0.6,0.5-0.9-0.4-1.3-0.6C6.3,9.8,6.3,8.4,5.8,7.1z"/>
<path fill="#CB0329" d="M78.3,8.9c4.2-2.5,9.7-3,14.2-1.2c-0.7,1.3-1,2.8-1.5,4.3c-0.9-0.7-1.7-1.6-2.9-1.8c-2.4-0.5-5-0.1-6.9,1.4
	c-2.1,1.6-2.7,4.9-1.1,7c1.3,1.7,3.5,2.3,5.5,2.2c1.5,0,3-0.6,4.5-0.8c-0.2,1.1-0.5,2.2-0.9,3.2c-0.1,0.5-0.6,0.5-1,0.6
	c-3.4,0.7-7,0.7-10.2-0.5c-2.7-1-5-3.6-5-6.6C73.1,13.4,75.6,10.6,78.3,8.9z"/>
<path fill="#CC0329" d="M37.8,6.9c2.9-0.3,5.8-0.1,8.6-0.2c0,0.3,0,0.8-0.1,1c-0.6,0.3-1.4,0.5-1.6,1.2c-0.6,1.9-1.1,3.7-1.6,5.6
	c1.4-1,2.7-2,4-3.1c1.2-0.9,2.5-1.8,3.5-3c-0.4-0.4-1-0.5-1.1-1.1c0.3-1.1,1.7-0.7,2.5-0.8c2.3,0.2,4.6-0.3,6.8,0.3
	c-0.5,1-1.6,1.2-2.4,1.8c-2.4,1.9-4.8,3.8-7.1,5.9c1.5,2.3,2.9,4.6,4.4,6.8c0.5,0.8,1.5,0.8,2.3,1.2c-0.2,0.4-0.3,1.2-0.9,1
	c-2.5,0-5.3,0.6-7.4-1.1c-2.2-1.7-3.3-4.4-5.1-6.4c-0.5,1.9-1,3.7-1.5,5.6c0.7,0.4,1.8,0.8,1.2,1.7c-3.1,0.3-6.2,0.1-9.2,0.1
	c-0.1-1.3,1.2-1.4,2-1.9c0.7-1.5,1-3.1,1.5-4.7c0.7-2.7,1.5-5.4,2.2-8.1c0.2-0.8-0.8-1.1-1.3-1.4C37.7,7.6,37.8,7.2,37.8,6.9z"/>
<path fill="#CB0328" d="M60,6.9c2.6-0.2,5.3-0.1,7.9-0.1c2.4,0,4.8-0.1,7.2,0.1c-0.5,1.6-0.5,3.4-1.4,4.8c-0.4-0.4-0.7-0.9-1-1.3
	c-2-0.1-4.1-0.2-6.1,0c-0.2,1.1-0.5,2.2-0.8,3.3c2,0,4,0,6,0c-0.1,1.3-0.6,2.5-0.8,3.7c-0.6,0.3-1.1-0.1-1.4-0.6c-1.5,0-3.1,0-4.6,0
	c-0.5,1.8-1.1,3.6-1.3,5.4c0.3,0.3,1.1,0.2,1.1,0.8c-0.1,0.2-0.2,0.7-0.2,0.9c-2.6,0-5.1,0-7.7,0c1.2-4.5,2.5-9,3.6-13.6
	c0.1-0.6,0.2-1.1,0.2-1.7c-0.4-0.2-0.8-0.5-1.2-0.7C59.8,7.5,59.9,7.2,60,6.9z"/>
<path fill="#C90329" d="M3.1,7.4c0.3-0.3,0.7-0.6,1-0.9c1.2,1.7,0.4,3.9,1,5.8c0.4,2,2.1,3.3,2.6,5.3c0.2,0,0.4,0,0.6,0.1
	c0.5,0.7,1,1.4,1.3,2.2c0.1,1.5-0.9,2.7-2.2,3.3c-1.5,0.7-3.1,1.4-4.6,2.1C-1,20.1-0.9,12.5,3.1,7.4z"/>
<path fill="#FEFEFD" d="M16.6,10.3c0.6-0.2,1.1-0.3,1.7-0.3c-0.1,0.1-0.3,0.3-0.4,0.4C17.5,10.4,17,10.3,16.6,10.3z"/>
<path fill="#FEFEFD" d="M19.4,10.3c0.2-0.1,0.7-0.3,0.9-0.4c0,0.4-0.1,1.1-0.1,1.5c0.4-0.2,0.5-0.5,0.6-0.9c0.3-0.1,0.6-0.1,1-0.2
	c-0.2,1.3-0.4,2.6-1,3.8c-0.3,0.4-0.7,0.8-0.9,1.2c0.5,1,0,2.2-0.2,3.2c-0.3,1.4-1.7,2-2.7,2.8c-0.4,0.6-0.6,1.3-0.9,2
	c-0.7-0.5-1.5-1-2-1.7c0-0.7,0.1-1.5,0.1-2.2c0.2,0,0.5,0,0.7,0c0-0.2-0.1-0.5-0.1-0.6c-0.4-0.1-0.7-0.4-0.9-0.6
	c0.2-0.3,0.4-0.5,0.6-0.8c1.1,0.2,2.2,0.2,3.3-0.1c0,0.3,0.1,0.9,0.1,1.2c0.7-0.7,1.2-1.9,1-2.9c-0.6-1.1-1.8-1.6-2.8-2.2
	c0,0.2,0,0.7,0,1c-0.6,0.1-1.3,0.3-1.9,0.5c-0.3-0.2-0.7-0.3-1-0.5c0.3-1.1-0.4-2.7,1-3.2c0.3,0.4,0.6,0.9,0.9,1.3
	c0-0.3,0.1-0.9,0.2-1.2c0.7,0.3,1.5,0.3,2.3,0.3c0-0.2-0.1-0.5-0.1-0.7c1.2,0.1,1.3,1.3,0.7,2.1C19.2,12.4,19.4,11.3,19.4,10.3z"/>
<path fill="#FDFDFD" d="M8.4,11.6c0.2-0.2,0.5-0.4,0.7-0.6c0.8,0.2,2.1-0.3,2.5,0.6c-0.5-0.1-1-0.2-1.5-0.4
	C9.6,11.4,9,11.5,8.4,11.6z"/>
<path fill="#BAB7B8" d="M10.3,11.7"/>
<path fill="#FDFDFD" d="M6.9,12.1c0.4-0.2,1.1,0.4,0.8,0.8C7.3,13.1,6.7,12.5,6.9,12.1z"/>
<path fill="#FDFEFD" d="M10.7,12.2c0.6-0.4,1.3-0.1,2-0.1c0.2,1.5-0.8,2.9-2.2,3.3c-0.1,0-0.4-0.1-0.6-0.2c-0.2-0.9-0.5-1.8-0.8-2.7
	C9.7,12.6,10.2,12.6,10.7,12.2z"/>
<path fill="#FDFBFC" d="M14.6,15.6c0.6-0.3,1.2-0.8,1.7-1.2c0.6,0.4,1.3,0.8,1.8,1.4c-1,0.6-2.3,0.1-3.4,0.7
	c-0.9,0.1-1.9,0.2-2.8,0.2c0.3-0.4,0.7-0.8,1.1-1.1C13.5,15.5,14,15.6,14.6,15.6z"/>
<path fill="#FDFDFD" d="M10.1,16.9c0.3-0.1,0.6-0.2,0.8-0.3c0.1,1.3,0.7,2.5,1.9,3c0,0.2,0.1,0.6,0.2,0.8
	C11.4,19.8,10.4,18.4,10.1,16.9z"/>
<path fill="#FEFEFE" d="M20.7,19.1c1.2,2,0,4.2-0.2,6.3c1-1.6,1.4-3.4,1.5-5.3c1.3,1.9,1,4.4,1.6,6.5c-1.9,0.4-3.8,0.7-5.7,0.7
	c-0.3-1-0.6-1.9-0.9-2.8c0.8,0.5,1.7,1.1,2.6,1.5c-0.2-0.5-0.6-0.8-1-1.2c0.6-0.6,1-1.4,0.9-2.3c-0.6,0-1.1,0-1.7,0
	C18.8,21.5,20,20.5,20.7,19.1z"/>
<path fill="#C80724" d="M23,20.1c0.5,0.5,0.9,1,1.2,1.6c0.8,1.9,1.4,3.8,2.1,5.7c-0.4,0.3-0.8,0.7-1.3,1l-0.1-0.6
	C24.3,25.2,23.7,22.6,23,20.1z"/>
<path fill="#FEFEFD" d="M10.4,21.4c1.1,0.5,2,1.3,3.1,1.8c-0.6,0.1-1.1,0.6-1.5,1.1c0.4,0.9,1.2,1.3,2.2,1.1
	c-0.2,0.4-0.4,0.8-0.6,1.1c0.7-0.4,1.1-1.1,1.8-1.5c-0.3,1-0.5,2.1-1.2,2.8c-1.5,0.4-3.1,0.6-4.6,1c-0.3-1.8-0.4-3.6-0.1-5.4
	c1.1,1.4,1.7,3.6,3.7,4C11.6,25.8,10.2,23.7,10.4,21.4z"/>
<path fill="#BA0F2D" d="M6.8,29.4c0.5-1.9,0.5-3.9,1.4-5.6c0.1,2,0,4,0.1,6.1c0.3,0.2,0.5,0.3,0.8,0.5c0.2,0.1,0.5,0.3,0.6,0.4
	C8.6,30.5,7.7,30,6.8,29.4z"/>
<path fill="#FEFFFD" d="M16,26.5c0.7-0.1,0.7,1.3,0,1.1C15.6,27.4,15.6,26.7,16,26.5z"/>
<path fill="#C50A26" d="M22.7,27.4c0.4-0.1,0.9-0.2,1.4-0.2c-0.5,0.4,0,1.1,0,1.6c0.2,0.5-0.5,0.6-0.8,0.8
	C23.1,28.9,22.9,28.1,22.7,27.4z"/>
<path fill="#D20B29" d="M20.6,27.7c0.3,0,0.7-0.1,1.1-0.1c0.2,0.8,0.4,1.7,0.7,2.5c-0.3,0.2-0.7,0.4-1,0.6
	C21,29.7,20.8,28.7,20.6,27.7z"/>
<path fill="#C90227" d="M14.6,28.6c1.6-0.5,3.3-0.7,4.9-0.7c0.1,0.4,0.3,0.8,0.4,1.2l0,0.1c0.1,0.6,0.2,1.2,0.3,1.8
	c-3.4,1.1-7.3,1.2-10.7-0.2c-0.2-0.1-0.5-0.3-0.6-0.4C10.8,29.5,12.8,29.2,14.6,28.6z"/>
</svg>
