<?xml version="1.0" encoding="utf-8"?>
<!-- Generator: Adobe Illustrator 18.1.1, SVG Export Plug-In . SVG Version: 6.00 Build 0)  -->
<svg version="1.1" id="图层_1" xmlns="http://www.w3.org/2000/svg" xmlns:xlink="http://www.w3.org/1999/xlink" x="0px" y="0px"
	 viewBox="0 0 69.3 42.4" enable-background="new 0 0 69.3 42.4" xml:space="preserve">
<g>
	<path fill="#044899" d="M29.4,0.3C34.2-0.2,39,0,43.8,0.6c5.7,0.9,11.4,2.5,16.2,5.7c3.3,2.1,6.2,5,7.9,8.6
		c1.8,3.8,1.7,8.5-0.2,12.3c-2.1,4.1-5.7,7.4-9.7,9.6c-3.2,1.8-6.7,3.1-10.3,4C41,42.4,34,42.8,27.1,42c-5.8-0.8-11.5-2.2-16.6-5
		c-3.6-2.1-6.9-5-8.9-8.7c-2.1-4-2.2-9-0.2-13c2-4,5.4-7.1,9.3-9.3C16.4,2.7,22.9,1,29.4,0.3z M22.7,3.1C17.5,4.4,12.3,6.4,8.1,9.8
		c-3,2.4-5.4,5.8-6.2,9.6C1,24.2,3.4,29,6.9,32.3c3.5,3.1,7.9,5.1,12.3,6.4c10.3,2.8,21.4,2.8,31.5-0.5c4.2-1.4,8.3-3.4,11.4-6.6
		c-1.1-0.3-2-0.9-2.6-1.8c-0.8,1.6-1.9,3.5-3.9,3.6c-1.7,0.3-3.3-0.7-4-2.2c-0.9,0.2-2,0.5-2.9,0.1c-0.7-0.3-1.2-0.9-1.7-1.3
		c-0.5,0.7-1,1.5-2,1.6c-1.4,0.4-2.6-0.8-3.5-1.7c-0.6,2-2.4,3.9-4.6,3.5c-1.5,0-2.5-1.1-3.2-2.3c-1.3,0.6-2.7,0.3-4-0.4
		c-0.4,1-0.9,2.1-2,2.5c-2.2,0.9-4.6-0.2-6.3-1.6c-2,1.1-4.2,0.8-6.3,1.4c-0.9,0.2-1.4-0.6-1.9-1.1c-1.1,0.3-2.5,0.7-3.5-0.1
		c-0.9-0.6-0.8-1.8-0.9-2.8c-0.9,0.2-1.7,0.5-2.6,0.4c-0.7-0.2-0.9-1.1-1-1.8C5.3,25.1,5,22.7,5,20.3c0-1.9-0.5-3.9-0.1-5.8
		c0.2-1.1,1.5-2,2.6-1.8c1.5,0.2,3-0.5,4.3,0.2c0.1-0.8,0-1.8,0.7-2.4c1-0.9,2.7-0.9,3.8,0c0.9,0.7,1.3,1.8,1.7,2.8
		c0.2,0,0.7,0.1,0.9,0.1c0-1.3-0.2-2.7,0.6-3.8c0.8-1.2,2.6-1.3,3.7-0.5c1,0.6,1.2,1.8,1.6,2.9c1.1,0.1,2.3,0.1,3.3,0.8
		c0.8,0.4,1.2,1.2,1.6,2c0.5-0.8,0.9-1.7,1.4-2.5c0.6-0.9,1.8-1.3,2.8-1.1c0.7,0.3,1.3,1.1,2.1,0.9c2.7-0.5,5.4-2.2,8.2-1.2
		c1.4,0.5,1.8,1.9,2.1,3.2c0.6-0.1,1.3,0,1.7-0.6c1-1.3,2.3-2.5,4.1-2.2c0.3,0.4,0.5,0.7,0.8,1.1c2.7-0.2,5.1-1.9,7.9-1.7
		c1.1,0,2.1,0.8,2.8,1.6c0.4,1.3,0.3,3-0.9,3.9c-1.3,1-2.9,1.2-4.4,1.7c0.3,0.3,0.5,0.9,1,0.9c1.3,0,2.8-0.5,4,0.2
		c0.9,0.6,0.9,1.9,0.6,2.9c-0.3,0.8-1.1,1.1-1.8,1.6c0.7,0.5,1.5,0.9,2.2,1.4c0.6,0.6,1,1.5,1.4,2.2c2.3-3.9,2.1-9.1-0.4-12.9
		c-1.7-2.5-3.8-4.8-6.4-6.3c-4.8-3.1-10.4-4.6-16-5.5C36.2,1.4,29.3,1.5,22.7,3.1z M20.5,10.6c-0.1,1.3,0.1,2.6,0.1,3.9
		c-0.9,0.4-2.1,0.2-3.1,0.5c-0.1,0.2-0.4,0.5-0.5,0.7c0.1-1.4-0.4-2.9-1.3-4.1c-0.4-0.1-0.8-0.2-1.1-0.3c-0.4,0.2-0.8,0.3-1.2,0.5
		c-0.7,1.6,0.3,3.2,1,4.7c-0.1,0.1-0.4,0.3-0.6,0.4c-0.2,0-0.5-0.1-0.7-0.2c-0.4-0.7-0.7-1.6-1.3-2.1c-0.8-0.9-2-0.5-2.8,0.2l-0.4,0
		c0.1-0.7-1.4-1-1.5-0.3l-0.6-0.2l-0.1,0.6L6,14.8c0,3.9,0.5,7.7,0.4,11.6l0.3,0c0,0.5,0.1,0.9,0.2,1.4c0.2,0,0.5,0,0.7,0
		C7.8,27.6,8,27.2,8.2,27c0.9,0.5,1.9,0.3,2.8-0.1c-0.3,1-0.8,2-0.4,3c0.7,1,2.2,0.8,2.9-0.1c0.4-0.1,0.7-0.2,1.1-0.3
		c0,0.7,0.1,1.3,0.1,2c0.3,0,0.7,0,1.1-0.1c0.4-0.2,0.6-0.8,0.9-1.2c0.3,0.3,0.6,0.6,0.9,0.8c1.5,0.2,2.8-0.8,4.1-1.4
		c0.6-0.3,1,0.5,1.5,0.8c0.9,0.9,2.1,1.4,3.4,1.6c0.7-0.1,1.7-0.3,1.7-1.2c0.6,0,0.7-1.5,0.1-1.5l0.1-0.5c-1.1-1.2-2.8-1.3-4.4-1.6
		c1-1.7,2.7-3.5,2.2-5.6c-0.4-1.2-1.7-1.5-2.8-1.5c0.3-1.2,0.5-2.4,0.4-3.6c0.2,0,0.5,0,0.7,0c0.3,0.6,0.4,1.5,1.3,1.5
		c2,0.5,3.6-2.6,1.9-3.9c-1-1-2.5-0.7-3.8-0.7c-0.2-0.5-0.3-1-0.5-1.4c-0.1-1.1-0.7-2-1.8-2.4C21.2,10,20.9,10.3,20.5,10.6z
		 M40.6,12.1c-0.7,0.1-1.3,0.1-1.9,0.4c0,0.1,0.1,0.3,0.1,0.4c-1.4,0.3-2.8,0.8-4.3,0.7c-0.3-0.3-0.5-0.8-0.7-1.1
		c-1.9,0-2.2,2.4-3.3,3.5c-1.2,1.3-1.5,3.9,0.4,4.6c0.4,0.6,0.5,1.3,0.7,2l0.2-0.1c0.3,0.5,0.9,0.9,1.5,1c0,0.2,0,0.5,0.1,0.7
		c-0.8,0.4-1.8,0.9-2,1.9c-0.9,0.9-0.9,2.2-0.3,3.2l0.2,0c0.4,0.2,0.8,0.4,1.2,0.7c0.6-0.2,1.1-0.5,1.6-0.8c0.1-0.1,0.3-0.3,0.4-0.4
		c0.5,1,0.4,2.8,1.9,2.8c1.1,0.3,2.6,0.4,3.3-0.8c1.8-2.2,1.2-5.1,1.2-7.7c1.1-0.4,2.1-0.8,3.2-1.4l0-0.1c0.5,0,0.8-0.3,0.7-0.8
		l0.3-0.3l-0.1-0.6c-1.5-0.2-2.9,0.1-4.3,0.3c-0.8-0.9-0.8-2.2-1.6-3.1c-0.1-0.2-0.4-0.5-0.6-0.6l0.3-0.1c0.3-0.1,0.7-0.1,1-0.2
		l0.3-0.2c0.4,0.3,1.5,0.3,1.5-0.3l0.4,0.1c0.9-0.4,1.9-0.7,2.5-1.5c0.4-0.7,0.2-1.6,0-2.3l-0.5,0.2c-0.1-0.1-0.2-0.3-0.3-0.4
		C42.6,11.9,41.6,11.9,40.6,12.1z M55.4,12.8c-1.1,0.4-2.2,0.5-3.3,0.6c-0.1-0.2-0.4-0.6-0.5-0.8c-1.4-0.1-2,1.4-2.7,2.4
		c-0.7,1.3-1.9,2.5-1.6,4c0,1.1,1.2,2.1,2.3,1.5c-0.3,0.2-0.6,0.4-0.9,0.5c0.1,0,0.4,0,0.5,0c0.1,0.5,0.2,1,0.3,1.5
		c0.8,0.8,1.9,1.3,3.1,1.3c0.3,0.8,1.7,0.5,2.3,0.2c0.2,1.5,0,3.2-1,4.4c-0.1-0.2-0.4-0.6-0.5-0.8c0.4-0.8,0.7-2.2-0.2-2.9
		c-1.9-0.3-3.5,1-4.6,2.4c-0.8,1.5,0.8,3.3,2.4,2.8c0.6,0.1,1.2-0.2,1.7-0.5c0.2,0.6,0,1.4,0.7,1.7c0.3,0.3,0.6,0.5,0.9,0.8
		c1,0.5,2,0.2,2.8-0.4c0.3-0.2,0.4-0.5,0.4-0.9c0.6,0.2,1.1-0.8,0.7-1.2c1.2-1.8,0.5-4.2,0.6-6.3c1.2-0.4,2.5-0.6,3.5-1.4
		c0.6-0.3,0.6-1,0.6-1.6c-1.6-0.1-3.2,0-4.8,0.2c-0.4-1.1-0.9-2.2-1.5-3.3c0-0.1,0.1-0.3,0.1-0.4c1-0.1,2-0.3,2.9-0.7
		c1-0.2,1.9-0.7,2.7-1.4c0-0.6,0.4-1.4-0.2-1.9c-1-1-2.6-0.7-3.8-0.4C57.3,11.9,56.3,12.5,55.4,12.8z M41.6,25.5
		c0.1,0.8,0.4,1.7,0.8,2.4c-0.3,0.6-0.2,0.8,0.5,0.9c0.4,1.1,1.8,1.6,2.8,1.1c0.3-0.4,0.7-0.8,1.1-1.2c0-1.2-0.5-2.4-1.4-3.1
		c-0.7-0.8-1.8-1.3-2.9-1.3C41.7,24.2,41.4,24.9,41.6,25.5z M59.6,24.3c-0.3,1.8,0.2,3.7,1.5,5.1c0,0,0,0,0,0c0.8,0.8,2.1,0.6,2.9,0
		c1-0.4,1.1-2,0.2-2.5C63.3,25.3,61.4,24.3,59.6,24.3z"/>
</g>
<path fill="#0592DC" d="M22.7,3.1C29.3,1.5,36.2,1.4,43,2.2c5.6,0.9,11.2,2.4,16,5.5c2.6,1.6,4.7,3.8,6.4,6.3
	c2.6,3.7,2.8,9,0.4,12.9c-0.4-0.8-0.8-1.6-1.4-2.2c-0.7-0.5-1.5-0.9-2.2-1.4c0.6-0.5,1.5-0.8,1.8-1.6c0.4-1,0.3-2.3-0.6-2.9
	c-1.2-0.7-2.7-0.2-4-0.2c-0.5,0-0.7-0.6-1-0.9c1.5-0.5,3.1-0.7,4.4-1.7c1.2-0.9,1.3-2.6,0.9-3.9c-0.7-0.8-1.6-1.6-2.8-1.6
	c-2.8-0.2-5.2,1.5-7.9,1.7c-0.3-0.4-0.6-0.7-0.8-1.1c-1.7-0.3-3.1,1-4.1,2.2C47.7,14,47,13.9,46.4,14c-0.3-1.3-0.7-2.7-2.1-3.2
	c-2.8-1-5.5,0.8-8.2,1.2c-0.9,0.2-1.4-0.6-2.1-0.9c-1-0.1-2.2,0.3-2.8,1.1c-0.6,0.8-1,1.6-1.4,2.5c-0.4-0.7-0.9-1.5-1.6-2
	c-1-0.7-2.2-0.6-3.3-0.8c-0.4-1-0.6-2.3-1.6-2.9c-1.1-0.8-2.9-0.7-3.7,0.5c-0.8,1.1-0.5,2.5-0.6,3.8c-0.2,0-0.7-0.1-0.9-0.1
	c-0.4-1-0.8-2.1-1.7-2.8c-1.1-0.8-2.8-0.9-3.8,0c-0.7,0.6-0.6,1.6-0.7,2.4c-1.4-0.7-2.9,0-4.3-0.2c-1.2-0.2-2.4,0.7-2.6,1.8
	C4.5,16.5,5,18.4,5,20.3c0,2.4,0.3,4.8,0.5,7.2c0.1,0.7,0.2,1.5,1,1.8c0.9,0.1,1.7-0.3,2.6-0.4c0.1,1,0,2.1,0.9,2.8
	c1,0.8,2.4,0.4,3.5,0.1c0.5,0.5,1.1,1.4,1.9,1.1c2.1-0.6,4.3-0.3,6.3-1.4c1.7,1.4,4.1,2.6,6.3,1.6c1.1-0.4,1.6-1.5,2-2.5
	c1.2,0.7,2.6,1,4,0.4c0.7,1.2,1.7,2.3,3.2,2.3c2.2,0.4,4-1.5,4.6-3.5c0.9,0.9,2,2,3.5,1.7c1-0.1,1.5-0.9,2-1.6
	c0.6,0.5,1.1,1,1.7,1.3c0.9,0.4,1.9,0.1,2.9-0.1c0.6,1.5,2.3,2.5,4,2.2c2-0.1,3.1-2,3.9-3.6c0.6,0.9,1.6,1.5,2.6,1.8
	c-3.1,3.2-7.3,5.2-11.4,6.6c-10.1,3.3-21.3,3.4-31.5,0.5c-4.5-1.3-8.8-3.3-12.3-6.4c-3.5-3.2-5.9-8-5-12.9c0.8-3.8,3.2-7.2,6.2-9.6
	C12.3,6.4,17.5,4.4,22.7,3.1z"/>
<path fill="#D3E349" d="M20.5,10.6c0.4-0.3,0.8-0.5,1.2-0.8c1.1,0.4,1.7,1.3,1.8,2.4c-0.4-0.6-0.9-1.3-1.5-1.7
	C21.4,10.5,20.9,10.5,20.5,10.6z"/>
<g>
	<path fill="#FDEC0A" d="M20.5,10.6c0.5,0,1-0.1,1.5-0.1c0.6,0.4,1.1,1.1,1.5,1.7c0.2,0.5,0.3,1,0.5,1.4c1.3-0.1,2.8-0.4,3.8,0.7
		c1.7,1.3,0.2,4.3-1.9,3.9c-0.8,0-1-1-1.3-1.5c-0.2,0-0.5,0-0.7,0c0.1,1.2-0.1,2.4-0.4,3.6c1.1-0.1,2.4,0.3,2.8,1.5
		c0.5,2.2-1.1,3.9-2.2,5.6c1.5,0.2,3.2,0.4,4.4,1.6l-0.1,0.5c-0.1,0.5-0.1,1-0.1,1.5c0,0.9-1,1.1-1.7,1.2c-1.2-0.2-2.5-0.7-3.4-1.6
		c-0.4-0.3-0.8-1-1.5-0.8c-1.3,0.7-2.6,1.6-4.1,1.4c-0.3-0.2-0.6-0.6-0.9-0.8c1.3-0.7,2.4-1.5,3.6-2.4c-0.2-0.3-0.5-0.7-0.7-1
		c0-0.6,0.1-1.3,0.1-1.9c0.8,0.3,1.5,0.6,2.3,0.8c0.1-0.2,0.3-0.5,0.4-0.7c0.2-0.6,0.4-1.2,0.5-1.7c-0.1,0-0.3,0.1-0.4,0.2
		c-1,0.3-2.1,0.4-3.2,0.3l-0.3,0c-0.2,0.6-0.3,1.3-0.5,2c-0.4,1.6-1.1,3.1-1.9,4.5c-0.3,0.4-0.5,1-0.9,1.2c-0.4-0.1-1.2-0.2-1-0.8
		c0.4-2,1.2-3.8,1.7-5.8c-0.3,0.5-0.5,0.9-0.8,1.4c-0.5,0.2-0.7,0.5-0.5,1c-0.2,0.4-0.4,0.8-0.6,1.2c-0.6,0.1-0.8,0.4-0.6,1
		c-0.1,0.1-0.4,0.3-0.5,0.5c-0.7,0.9-2.2,1.1-2.9,0.1c-0.4-1,0.2-2.1,0.4-3c-0.9,0.4-1.9,0.6-2.8,0.1c-0.1,0.2-0.4,0.5-0.6,0.7
		c-0.2,0-0.5,0-0.7,0c-0.1-0.5-0.2-0.9-0.2-1.4c0-3.9-0.6-7.7-0.4-11.5l0.1-0.6l0.6,0.2c0.5,0.2,1,0.3,1.5,0.3l0.4,0
		c0.9,0,1.9-0.1,2.8-0.2c0.6,0.5,0.9,1.4,1.3,2.1c0.2,0,0.5,0.1,0.7,0.2c1.1,0.1,2,0.7,2.3,1.8c-0.3,0.7-0.3,1.4,0.1,2.1l0,0.1
		c-0.2,0.2-0.5,0.5-0.6,0.7c-0.3,0-0.8,0-1.1,0c-0.7-0.6-1.3-1.3-1.7-2.1c-0.1,1.6-0.1,3.2-0.2,4.8c0.2,0.2,0.4,0.5,0.7,0.7
		c0.8-0.9,1.8-2.8,3.2-1.9c0.1,0,0.2,0.1,0.3,0.1c0.1-2.3,0.5-4.7,0.2-7.1l0.1-0.2c0.1-0.2,0.4-0.6,0.5-0.7c1-0.3,2.2-0.1,3.1-0.5
		C20.5,13.2,20.3,11.9,20.5,10.6z M9,17c-0.1,1.9-0.3,3.9,0.2,5.7C9.1,23,9,23.3,9,23.7c0.5,0,0.9-0.1,1.4-0.1l0-0.3l0.1,0.5
		c0.8-1,0.5-2.3,0.5-3.5c-0.1-0.7,0.1-1.6-0.5-2.2c0-0.1,0-0.3,0-0.4l-0.2-0.1C10.3,16.8,9.5,17,9,17z M19.9,17.3l0,0.1
		c-0.6,1.5-0.6,3.1-0.6,4.7c0.7-0.2,1.7-0.3,2-1.1c0.1-1.1-0.1-2.2-0.1-3.3l-0.3,0l0-0.3C20.6,17.3,20.1,17.3,19.9,17.3z M12.2,23.1
		c0.1,0.8,0.1,1.5,0.1,2.3c0.1,0,0.2,0.1,0.3,0.1C12.5,24.7,12.4,23.9,12.2,23.1z"/>
</g>
<path fill="#FEF00A" d="M13.2,11.7c0.4-0.1,0.8-0.3,1.2-0.5c0.4,0.1,0.7,0.2,1.1,0.3c0.9,1.1,1.5,2.6,1.3,4.1l-0.1,0.2
	c-0.6,0.4-1.4,0.9-2,0.3C13.7,14.9,13.5,13.3,13.2,11.7z"/>
<path fill="#125685" d="M14.3,16.4c-0.7-1.4-1.7-3-1-4.7c0.2,1.5,0.5,3.2,1.5,4.5c0.6,0.6,1.5,0.1,2-0.3c0.3,2.3-0.1,4.7-0.2,7.1
	c-0.1,0-0.2-0.1-0.3-0.1c0-0.7,0-1.4-0.2-2.1l0-0.1c0.3-0.7,0.3-1.4-0.1-2.1c-0.3-1.1-1.3-1.7-2.3-1.8
	C13.8,16.7,14.1,16.5,14.3,16.4z"/>
<g>
	<path fill="#FDED09" d="M40.6,12.1c1-0.2,2-0.2,3.1-0.1c-0.1,0.1-0.4,0.2-0.5,0.2c0.1,0.4,0.4,0.5,0.8,0.2l0.5-0.2
		c0.1,0.8,0.4,1.6,0,2.3c-0.6,0.8-1.6,1-2.5,1.5l-0.4-0.1c-0.5-0.2-1.1,0-1.5,0.3l-0.3,0.2c-1.9-0.1-3.9-0.3-5.8-0.4
		c0,0.5,0,1,0.1,1.5c0,0.3-0.1,0.5-0.2,0.7c-0.8,1-1.5,2.5-2.9,2.4c-1.9-0.7-1.6-3.4-0.4-4.6c1.1-1.1,1.4-3.5,3.3-3.5
		c0.2,0.4,0.4,0.8,0.7,1.1c1.5,0,2.9-0.4,4.3-0.7c0-0.1-0.1-0.3-0.1-0.4C39.3,12.2,39.9,12.2,40.6,12.1z M39.6,12.6
		c0.8,0.4,1.6-0.1,2.4-0.4c-0.2,0-0.7,0-1-0.1C40.6,12.3,40.1,12.4,39.6,12.6z"/>
</g>
<path fill="#E6E243" d="M39.6,12.6c0.5-0.2,1-0.3,1.4-0.5c0.2,0,0.7,0,1,0.1C41.3,12.4,40.4,13,39.6,12.6z"/>
<path fill="#DEE058" d="M43.1,12.2c0.1-0.1,0.4-0.2,0.5-0.2c0.1,0.1,0.2,0.3,0.3,0.4C43.5,12.6,43.2,12.6,43.1,12.2z"/>
<path fill="#275A62" d="M55.4,12.8c1-0.3,1.9-0.9,2.9-0.6c-1.9,0.8-3.9,1.4-6,1.5l-0.2-0.4C53.2,13.2,54.3,13.1,55.4,12.8z"/>
<path fill="#FDEC0B" d="M58.3,12.2c1.2-0.3,2.8-0.6,3.8,0.4c0.6,0.5,0.2,1.3,0.2,1.9c-0.8,0.7-1.7,1.2-2.7,1.4
	c-2.4,0.3-4.7,0.3-7.1,0.4l-0.1,0l-0.1,0c-0.5,0.8-0.7,1.7-1.2,2.5c-0.5,0.6-1,1.1-1.6,1.6c-1,0.6-2.3-0.4-2.3-1.5
	c-0.2-1.6,1-2.7,1.6-4c0.7-1,1.3-2.5,2.7-2.4c0.1,0.2,0.4,0.6,0.5,0.8l0.2,0.4C54.4,13.7,56.4,13,58.3,12.2z"/>
<path fill="#BFDA55" d="M6.9,14.4C7,13.7,8.6,14,8.5,14.7C7.9,14.7,7.4,14.6,6.9,14.4z"/>
<path fill="#D9E445" d="M8.9,14.6c0.8-0.6,2-1,2.8-0.2C10.7,14.5,9.8,14.6,8.9,14.6z"/>
<path fill="#698E5C" d="M6,14.8l0.3,0.1c-0.2,3.8,0.5,7.7,0.4,11.5l-0.3,0C6.6,22.5,6,18.6,6,14.8z"/>
<path fill="#D4DB47" d="M33.8,15.9c1.9,0.1,3.9,0.3,5.8,0.4c-0.3,0.1-0.7,0.2-1,0.2c-1.1,0.1-2.2,0.1-3.3-0.2
	c-0.4-0.1-0.8-0.3-1.2-0.1c0,0.2-0.1,0.6-0.2,0.8l-0.1,0.3C33.9,16.9,33.8,16.4,33.8,15.9z"/>
<path fill="#D4E14E" d="M40,16.2c0.4-0.3,1-0.5,1.5-0.3C41.5,16.5,40.4,16.5,40,16.2z"/>
<path fill="#B9C54E" d="M52.5,16.3c2.4-0.1,4.7-0.1,7.1-0.4c-0.9,0.3-1.9,0.6-2.9,0.7C55.3,16.7,53.9,16.7,52.5,16.3L52.5,16.3z"/>
<path fill="#487046" d="M34.1,16.3c0.4-0.2,0.8,0,1.2,0.1c-0.4,0.3-0.9,0.5-1.4,0.7C34,16.9,34.1,16.5,34.1,16.3z"/>
<path fill="#0550A1" d="M52.3,16.3l0.1,0c0,0,0.1,0,0.1,0c1.4,0.3,2.8,0.4,4.1,0.2c0,0.1-0.1,0.3-0.1,0.4c-0.6,0.1-1.2,0-1.6,0.5
	l-0.1,0.2c-0.1,0.8-0.1,1.5-0.2,2.3c-1.2,0.4-2.4,0-3.6-0.1c0-0.4,0.1-0.7,0.1-1.1C51.6,18,51.9,17.1,52.3,16.3z"/>
<path fill="#385821" d="M52.4,16.3L52.4,16.3l0.1,0C52.5,16.3,52.5,16.3,52.4,16.3z"/>
<path fill="#0450A2" d="M33.9,17.1c0.5-0.2,1-0.4,1.4-0.7c1.1,0.3,2.2,0.3,3.3,0.2l-0.3,0.1c-0.3,0.1-0.7,0.3-1,0.4
	c-0.1,0.4-0.3,0.7-0.4,1.1c-0.2,0.6-0.4,1.2-0.5,1.8c-1.1,0-2.2-0.1-3.3-0.1c0.2-0.6,0.4-1.2,0.6-1.8c0.1-0.2,0.1-0.5,0.2-0.7
	L33.9,17.1z"/>
<path fill="#AFC24D" d="M9,17c0.5,0.1,1.3-0.1,1.3,0.7c-0.4-0.2-0.7-0.4-1.1-0.5c0,1.7,0.1,3.4,0,5.2l-0.1,0.4
	C8.7,20.8,8.9,18.9,9,17z"/>
<path fill="#BECA4B" d="M37.3,17.1c0.3-0.1,0.7-0.3,1-0.4c0.1,0.2,0.4,0.5,0.6,0.6c-0.5,0-1,0-1.4,0c-0.1,1.1-0.2,2.2-0.2,3.3
	c-1.3,0.1-2.6,0-3.9,0.1c-0.6,0-1.3,0.3-1.6,0.9c0.1,0.7,0.6,1.2,1.2,1.5c1.3,0.5,2.6,0.4,4,0.5l0,0.3c-1.3,0-2.6,0-3.9-0.3
	c-0.6-0.2-1.1-0.5-1.5-1c0-0.7-0.3-1.7,0.6-2c1.5-0.5,3.2-0.1,4.7-0.1c0-0.8-0.1-1.5-0.1-2.3C37,17.8,37.2,17.5,37.3,17.1z"/>
<path fill="#033E20" d="M9.2,17.1c0.4,0.2,0.7,0.4,1.1,0.5l0.2,0.1c0,0.1,0,0.3,0,0.4c0.1,1.9,0.1,3.7,0,5.6l-0.1-0.5
	c0-1.7,0.2-3.4-0.1-5c-0.2-0.2-0.6-0.6-0.8-0.9c-0.1,1.6,0,3.3-0.3,4.9C9.4,20.6,9.2,18.9,9.2,17.1z"/>
<path fill="#0C4D7A" d="M19.9,17.3c0.2,0,0.7,0,0.9,0.1l0,0.3c0,1.1,0,2.3,0,3.4c-0.4,0.2-0.9,0.5-1.3,0.7c0.2-1.4,0.3-2.9,0.3-4.3
	L19.9,17.3z"/>
<path fill="#FDEC08" d="M37.5,17.3c0.5,0,1,0,1.4,0c0.8,0.9,0.8,2.2,1.6,3.1c1.4-0.2,2.9-0.5,4.3-0.3l0.1,0.6L44.6,21
	c-0.4,0-1.1,0.3-0.7,0.8l0,0.1c-1,0.5-2.1,0.9-3.2,1.4c0,2.6,0.6,5.5-1.2,7.7c-0.7,1.2-2.2,1.1-3.3,0.8c-0.5-0.7-1.2-1.6-0.9-2.5
	c0.3-0.6,0.8-1.1,1.3-1.7c0-0.3,0.1-0.7,0.1-1c0.4,1.4,0.8-0.6,0.3-1.1c0-0.5,0-1.1,0-1.6l0-0.3c-1.3,0-2.7,0-4-0.5
	c-0.6-0.2-1.1-0.8-1.2-1.5c0.2-0.6,0.9-0.9,1.6-0.9c1.3-0.1,2.6,0,3.9-0.1C37.3,19.5,37.3,18.4,37.5,17.3z"/>
<path fill="#FDED0B" d="M54.9,17.5c0.4-0.5,1.1-0.4,1.6-0.5c0.6,1,1.1,2.1,1.5,3.3c1.6-0.2,3.2-0.3,4.8-0.2c0,0.6,0,1.3-0.6,1.6
	c-1.1,0.7-2.3,1-3.5,1.4c-0.2,2.1,0.5,4.4-0.6,6.3c-0.4,0.3-0.7,0.7-0.7,1.2c0,0.4-0.1,0.7-0.4,0.9c-1,0.1-1.9,0.2-2.8,0.4
	c-0.3-0.3-0.6-0.5-0.9-0.8c-0.4-0.9-0.3-2,0.5-2.7c1-1.2,1.2-2.9,1-4.4l0-0.1c-0.8-0.1-1.5,0-2.3,0c-1.2,0-2.3-0.5-3.1-1.3
	c0.1-0.6,0.1-1.4,0.7-1.7c1.3,0,2.6-0.1,3.9-0.2c0.3,0,0.7,0,1,0.1C54.9,19.5,54.9,18.5,54.9,17.5z"/>
<path fill="#DBDC41" d="M19.3,22.1c0-1.6,0-3.2,0.6-4.7c0,1.4-0.1,2.9-0.3,4.3c0.4-0.2,0.8-0.5,1.3-0.7c-0.1-1.1-0.1-2.3,0-3.4
	l0.3,0c0,1.1,0.2,2.2,0.1,3.3C21,21.8,20,21.9,19.3,22.1z"/>
<path fill="#4A7358" d="M54.9,17.7l0.1-0.2c-0.1,1,0,2,0,3c-0.3,0-0.7,0-1-0.1c-1.3-0.1-2.7-0.4-3.9,0.2c-0.6,0.3-0.5,1.1-0.7,1.7
	c-0.1-0.5-0.2-1-0.3-1.5c-0.1,0-0.4,0-0.5,0c0.3-0.1,0.6-0.3,0.9-0.5c0.6-0.5,1.1-1,1.6-1.6c0,0.4-0.1,0.7-0.1,1.1
	c1.2,0.1,2.4,0.5,3.6,0.1C54.8,19.2,54.8,18.5,54.9,17.7z"/>
<path fill="#164A85" d="M9.5,17.4c0.2,0.2,0.6,0.6,0.8,0.9c0.3,1.6,0.1,3.3,0.1,5l0,0.3c-0.5,0-0.9,0.1-1.4,0.1
	c0.1-0.3,0.1-0.7,0.2-1l0.1-0.4C9.5,20.7,9.4,19.1,9.5,17.4z"/>
<path fill="#F0EC37" d="M10.5,18.1c0.6,0.5,0.4,1.4,0.5,2.2c0,1.2,0.2,2.5-0.5,3.5C10.6,21.9,10.6,20,10.5,18.1z"/>
<path fill="#245760" d="M33.7,18.2c-0.2,0.6-0.4,1.2-0.6,1.8c1.1,0,2.2,0.1,3.3,0.1c0.2-0.6,0.3-1.2,0.5-1.8c0,0.8,0,1.5,0.1,2.3
	c-1.6,0-3.2-0.4-4.7,0.1c-0.9,0.3-0.7,1.3-0.6,2l-0.2,0.1c-0.2-0.7-0.3-1.4-0.7-2C32.2,20.6,32.9,19.1,33.7,18.2z"/>
<path fill="#DDE048" d="M16,18.6c0.4,0.6,0.3,1.4,0.1,2.1C15.7,20,15.7,19.2,16,18.6z"/>
<path fill="#084A92" d="M12.4,24c0.1-1.6,0.2-3.2,0.2-4.8c0.4,0.8,1,1.5,1.7,2.1c0.2,0.5,0.8,0.5,1.1,0c0.1-0.2,0.4-0.5,0.6-0.7
	c0.2,0.7,0.2,1.4,0.2,2.1c-1.4-0.9-2.5,1-3.2,1.9C12.9,24.5,12.6,24.2,12.4,24z"/>
<path fill="#CFD755" d="M50,20.7c1.2-0.6,2.6-0.3,3.9-0.2C52.6,20.6,51.3,20.6,50,20.7z"/>
<path fill="#E5E743" d="M43.9,21.8c-0.4-0.5,0.3-0.8,0.7-0.8C44.7,21.5,44.4,21.8,43.9,21.8z"/>
<path fill="#396756" d="M14.4,21.4c0.3,0,0.8,0,1.1,0C15.2,21.9,14.6,21.8,14.4,21.4z"/>
<path fill="#044899" d="M12.2,23.1c0.2,0.8,0.3,1.6,0.4,2.4c-0.1,0-0.2-0.1-0.3-0.1C12.2,24.6,12.2,23.9,12.2,23.1z"/>
<path fill="#C9D150" d="M19.3,23.8c1.1,0.1,2.2,0,3.2-0.3c-0.6,0.3-1.2,0.7-1.9,0.8C20.2,24.2,19.8,24,19.3,23.8z"/>
<path fill="#45664D" d="M22.5,23.6c0.1,0,0.3-0.1,0.4-0.2c-0.2,0.6-0.3,1.2-0.5,1.7c-0.2,0.1-0.5,0.3-0.7,0.4
	c-0.7-0.5-1.5-0.8-2.4-0.8c-0.1,0.5-0.2,1.1-0.3,1.6c-0.1-0.2-0.4-0.5-0.6-0.6c0.1-0.7,0.3-1.3,0.5-2l0.3,0c0.4,0.2,0.9,0.4,1.3,0.5
	C21.3,24.2,21.9,23.8,22.5,23.6z"/>
<path fill="#094F8C" d="M33.1,23.6c1.3,0.3,2.6,0.3,3.9,0.3c0,0.5,0,1.1,0,1.6c-0.2,0.3-0.3,0.7-0.3,1.1c0,0.3-0.1,0.7-0.1,1
	c-0.5,0.5-1,1-1.3,1.7c-0.3,1,0.4,1.8,0.9,2.5c-1.5,0-1.4-1.8-1.9-2.8c0.4-0.5,0.8-1.1,1.2-1.7c0.4-0.8,0.8-2.1-0.3-2.6
	c-1.3-0.4-2.5,0.4-3.4,1.1c-0.1,0.1-0.4,0.3-0.6,0.4c0.2-1,1.2-1.5,2-1.9C33.2,24.1,33.1,23.8,33.1,23.6z"/>
<path fill="#2A574D" d="M52.5,23.7c0.8,0,1.5,0,2.3,0l0,0.1C54.2,24.2,52.8,24.5,52.5,23.7z"/>
<path fill="#C1CC55" d="M41.6,25.5c-0.1-0.5,0.1-1.3,0.8-1.3c1.1,0,2.2,0.5,2.9,1.3c-1.1-0.5-2.2-0.8-3.3-0.9
	c0.1,1.6,0.6,3.3,1.6,4.5c0.5,0.6,1.4,0.5,2.1,0.7c-1.1,0.5-2.4,0.1-2.8-1.1c-0.1-0.3-0.2-0.6-0.5-0.9
	C41.9,27.1,41.7,26.3,41.6,25.5z"/>
<path fill="#CAD34E" d="M31.7,25.8c1-0.8,2.2-1.5,3.4-1.1c1.1,0.5,0.7,1.8,0.3,2.6c-0.1-0.8,0.3-2-0.7-2.3
	C33.7,25.1,32.7,25.4,31.7,25.8z"/>
<path fill="#FDED0B" d="M59.6,24.3c1.8,0,3.6,1,4.5,2.5c0.2,0.8,0.2,1.7-0.2,2.5c-0.8,0.7-2.1,0.8-2.9,0c0,0,0,0,0,0
	C59.9,28,59.4,26.1,59.6,24.3z"/>
<path fill="#033E20" d="M15.6,26.2c0.3-0.5,0.5-0.9,0.8-1.4c-0.4,2-1.3,3.8-1.7,5.8c-0.2,0.6,0.6,0.7,1,0.8
	c-0.4,0.1-0.7,0.1-1.1,0.1c0-0.7-0.1-1.3-0.1-2c-0.4,0.1-0.7,0.2-1.1,0.3c0.1-0.1,0.4-0.3,0.5-0.5c0.3-0.2,0.5-0.6,0.6-1
	c0.2-0.4,0.4-0.8,0.6-1.2C15.5,27,15.6,26.6,15.6,26.2z"/>
<path fill="#CFD448" d="M19.4,24.7c0.9,0,1.7,0.3,2.4,0.8c0.2-0.1,0.5-0.3,0.7-0.4c-0.1,0.2-0.3,0.5-0.4,0.7
	c-0.8-0.2-1.6-0.5-2.3-0.8c0,0.6-0.1,1.3-0.1,1.9c-0.1-0.1-0.3-0.4-0.4-0.5C19.2,25.8,19.3,25.3,19.4,24.7z"/>
<path fill="#FEED08" d="M41.9,24.6c1.1,0.1,2.3,0.4,3.3,0.9c1,0.7,1.5,2,1.4,3.1c-0.4,0.4-0.7,0.8-1.1,1.2c-0.7-0.2-1.6-0.1-2.1-0.7
	C42.5,27.8,42,26.2,41.9,24.6z"/>
<path fill="#FDED0C" d="M48.4,27c1.1-1.3,2.8-2.7,4.6-2.4c0.9,0.6,0.6,2,0.2,2.9c-0.3,0.5-0.7,1-1.1,1.5c-0.6-0.1-0.9,0.2-0.9,0.7
	c-0.1,0-0.3,0.1-0.4,0.1C49.1,30.3,47.6,28.5,48.4,27z"/>
<path fill="#FEED09" d="M31.7,25.8c1-0.3,2-0.7,3-0.8c1,0.3,0.7,1.5,0.7,2.3c-0.3,0.6-0.7,1.1-1.2,1.7c-0.1,0.1-0.3,0.3-0.4,0.4
	c-1,0.1-1.9,0.1-2.9,0.1l-0.2,0c-0.6-1-0.6-2.3,0.3-3.2C31.3,26.1,31.6,25.9,31.7,25.8z"/>
<path fill="#D6DB56" d="M36.7,26.5c0-0.4,0.1-0.7,0.3-1.1C37.5,26,37.1,27.9,36.7,26.5z"/>
<path fill="#054A91" d="M18.5,25.8c0.1,0.1,0.4,0.4,0.6,0.6c0.1,0.1,0.3,0.4,0.4,0.5c0.2,0.3,0.5,0.6,0.7,1
	c-1.1,0.9-2.3,1.8-3.6,2.4C17.5,28.9,18.2,27.4,18.5,25.8z"/>
<path fill="#FDFDFD" d="M15.1,27.3c-0.2-0.5,0-0.9,0.5-1C15.6,26.6,15.5,27,15.1,27.3z"/>
<path fill="#2A5F66" d="M64.2,26.8c0.9,0.5,0.9,2.1-0.2,2.5C64.4,28.5,64.4,27.7,64.2,26.8z"/>
<path fill="#35625D" d="M52.1,28.9c0.4-0.5,0.8-1,1.1-1.5c0.1,0.2,0.4,0.6,0.5,0.8c-0.8,0.7-0.8,1.8-0.5,2.7
	c-0.7-0.2-0.6-1.1-0.7-1.7c-0.5,0.3-1.1,0.6-1.7,0.5c0.1,0,0.3-0.1,0.4-0.1C51.6,29.6,51.9,29.3,52.1,28.9z"/>
<path fill="#436754" d="M42.3,27.9c0.2,0.2,0.4,0.5,0.5,0.9C42.1,28.7,42,28.5,42.3,27.9z"/>
<path fill="#FDFEFE" d="M13.9,29.4c-0.2-0.5,0-0.9,0.6-1C14.4,28.8,14.2,29.1,13.9,29.4z"/>
<path fill="#D6E150" d="M51.2,29.7c0-0.6,0.4-0.8,0.9-0.7C51.9,29.3,51.6,29.6,51.2,29.7z"/>
<path fill="#C2CC59" d="M28.3,29.4c0.6,0.1,0.5,1.5-0.1,1.5C28.2,30.4,28.2,29.9,28.3,29.4z"/>
<path fill="#CFD650" d="M31.1,29.4c1,0,1.9,0,2.9-0.1c-0.5,0.3-1.1,0.6-1.6,0.8C31.9,29.9,31.5,29.6,31.1,29.4z"/>
<path fill="#D7E045" d="M57.4,30.5c0-0.5,0.3-0.9,0.7-1.2C58.4,29.7,57.9,30.7,57.4,30.5z"/>
<path fill="#355E4C" d="M61.1,29.3C61.1,29.4,61.1,29.4,61.1,29.3C61.1,29.4,61.1,29.4,61.1,29.3z"/>
<path fill="#D0DA4F" d="M54.1,31.8c0.9-0.2,1.9-0.3,2.8-0.4C56.1,32,55.1,32.3,54.1,31.8z"/>
<path fill="#044899" d="M64.8,33.1c0.5,0.1,1.1,0.1,1.6,0.4c0.4,0.2,0.8,0.1,1-0.3c-0.1,0.2-0.2,0.5-0.2,0.7
	c-0.1,0.1-0.3,0.2-0.4,0.3c-0.1,0-0.2,0.1-0.3,0.2l-0.1-0.1c-0.1,0-0.4,0.1-0.5,0.2c0-0.2-0.1-0.6-0.2-0.8l-0.2-0.1
	c-0.2,0.3-0.3,0.6-0.2,1C65.1,33.9,65,33.5,64.8,33.1z"/>
</svg>
