<?xml version="1.0" encoding="utf-8"?>
<!-- Generator: Adobe Illustrator 18.1.1, SVG Export Plug-In . SVG Version: 6.00 Build 0)  -->
<svg version="1.1" id="图层_1" xmlns="http://www.w3.org/2000/svg" xmlns:xlink="http://www.w3.org/1999/xlink" x="0px" y="0px"
	 viewBox="0 0 63.8 53" enable-background="new 0 0 63.8 53" xml:space="preserve">
<g>
	<path fill="#E70612" d="M28.2,0.2c7.6-0.9,15.6,1,21.9,5.4C56.4,10,61,16.6,62.8,23.9c1.7,6.8,1.2,14.3-1.7,20.7
		c-1.7,0.1-3.4,0.1-5.2,0c-2.5,0.1-4.9,0-7.4,0c-15.1,0-30.3,0-45.4,0c-0.4,0.1-0.5-0.3-0.6-0.5C0.8,40.3-0.1,36.1,0,31.8
		c-0.2-8.3,3.4-16.4,9.1-22.3C14.1,4.4,21,1,28.2,0.2z M53.2,14.6c-0.3,0.2-0.6,0.5-0.9,0.7c0.1,0.5,0,1,0,1.5c0.1,0.5,0.5,1,1.1,1
		c0.2-0.3,0.4-0.8,0.8-0.6c0.2,0.2,0.3,0.5,0.5,0.7c-0.3,0.1-0.6,0.3-0.9,0.2c-2.1,0-4.3,0-6.4,0c-4,0.1-8-0.1-12,0.1
		c-0.1,1.3-0.2,2.7,0,4c1,0.3,2.1,0.1,3.1,0.1c0.2,0.8,0.3,1.6,0.5,2.4c-1.2,0-2.4-0.1-3.6,0.1c-0.2,1.3,0,2.7,0,4
		c1.1,0.2,2.3,0.1,3.4,0.1c-0.3,1.1,0.3,2.2,0.3,3.4c-1.2,0.1-2.4,0-3.6,0.1c-0.1,1.4-0.1,2.8,0,4.2c1.7,0.1,3.4,0,5,0.1
		c5.4,0,10.8,0,16.2,0c0.3,0,0.9,0,1-0.4c0.1-0.8,0-1.6,0-2.3c0-0.4,0.1-0.9-0.2-1.3c-1.2-0.2-2.4,0-3.7-0.1c0-0.8,0.2-1.7,0.3-2.5
		c0-0.4,0.1-0.8-0.3-1c-1-0.1-2,0-2.9,0c-0.5,0-1.1-0.1-1.6,0.2c-0.1,1.2-0.3,2.3-0.4,3.5c-1.6,0-3.1,0-4.7,0c0-0.2-0.1-0.4-0.1-0.6
		c0.2-1-0.2-2.1-0.2-3.1c3.5,0,7,0,10.5,0c1,0,1.9,0,2.9-0.1c0-1.4,0.1-2.7,0-4.1c-1.1-0.2-2.3-0.1-3.4-0.1c0-0.8,0.2-1.6,0.3-2.4
		c1-0.1,2.1,0.2,3.1-0.2l-0.1,0c0-1.3,0.1-2.5,0-3.8l0.2-0.2c-0.7-0.1-1.4-0.1-2.2-0.1c0-0.1,0-0.2,0-0.3c0.8-0.3,1.2-1.2,1-2
		c-0.1-0.6-0.5-0.9-1-1.2l0.1-0.2c-0.4,0-0.7,0.1-0.9,0.3C53.8,14.6,53.5,14.3,53.2,14.6z M11.9,17.6c-0.1,0.9,0,1.8,0,2.7
		c-1.7,0-3.5,0-5.2,0c-0.3,0.1-0.8-0.1-0.8,0.3c-0.1,1.2,0,2.4,0,3.5c0.9,0,1.8,0.1,2.6,0.1c-0.4,0.4-0.6,0.8-0.9,1.2
		c0.1,0.1,0.3,0.2,0.4,0.3c-0.1,0-0.4,0.1-0.6,0.1c-0.7,1.2-0.9,2.6-0.8,3.9C6.5,30.8,6.8,32,7.4,33c0.2,0.3,0.6,0,0.7-0.1l0,0.3
		c-0.1,0.1-0.3,0.2-0.4,0.2c0.1,0.6,0.5,1,0.9,1.4c0.5,0.5,1,1,1.7,1.2c0.4-0.7,0.7-1.3,1.1-2c0,0.1,0.1,0.2,0.1,0.3
		c-0.3,0.6-0.9,1.2-0.9,1.9c1,0.6,2.2,1,3.4,0.9c0.1,0,0.2-0.1,0.2-0.2c0.3,0.2,0.6,0.3,0.9,0.2c1-0.1,2-0.4,2.9-0.9
		c-0.2-0.5-0.5-1-0.8-1.4l0.3,0c0.2,0.4,0.4,0.8,0.7,1.2c1.1-0.6,2-1.5,2.7-2.6c-0.4-0.3-0.8-0.6-1.2-0.8l0.3-0.1
		c0.4,0.2,0.7,0.5,1.1,0.6c1.3-2.3,1.3-5.3,0-7.6c-0.2,0.1-0.4,0.2-0.7,0.3l0-0.3c0.1-0.1,0.3-0.2,0.4-0.3c-0.1-0.5-0.5-0.9-0.8-1.3
		c0.9,0.1,1.8,0.1,2.7-0.1c0,4.8,0,9.6,0,14.3c0,0.3,0,0.6,0.1,0.8l0.1-0.2c1.5,0.3,3,0.1,4.5,0.1c0.1-3.4,0-6.9,0-10.3
		c0.3,0,0.6,0,1,0c-0.3,0.1-0.5,0.1-0.8,0.2c-0.1,2.5,0,5,0,7.6c0,0.9-0.1,1.9,0.2,2.8c1.4,0,2.7,0,4.1,0c0.4,0,0.7,0,1-0.2
		c-0.1-7.1,0-14.3,0-21.4c0,0-0.1-0.1-0.2-0.2c-1.4-0.1-2.9,0-4.3,0c-0.2,0.2-0.3,0.5-0.5,0.7c-0.1-0.1-0.2-0.2-0.3-0.3
		c-0.1,2.4,0.1,4.9-0.1,7.3c0-2.6,0-5.2,0-7.7c-1.5,0-3,0-4.4,0v0l-0.2,0.1c-0.2,0.9-0.1,1.8-0.1,2.7c-0.5-0.1-1-0.2-1.5-0.2
		c-1.5,0-3.1,0-4.6,0c0-0.8,0-1.5,0-2.3c0-0.3-0.2-0.7-0.6-0.6c-1.1,0-2.2,0-3.3,0C12.5,17.4,12.1,17.3,11.9,17.6z"/>
</g>
<path fill="#CC1817" d="M53.2,14.6c0.3-0.3,0.6,0,0.9,0.2c0.3-0.2,0.6-0.3,0.9-0.3l-0.1,0.2c-0.4-0.1-0.7,0-0.7,0.5
	c0.3,0.1,0.6,0.2,0.9,0.3c0,0.2,0,0.5,0,0.7c0.1,0.1,0.3,0.2,0.4,0.3c-0.1,0.2-0.2,0.5-0.3,0.7c-0.1-0.1-0.2-0.4-0.3-0.5
	c0.1-0.5,0.2-1.1-0.4-1.3c0,0.2-0.1,0.5-0.2,0.6C54.2,15.9,54,16,54,16C53.9,15.4,54.1,14.5,53.2,14.6z"/>
<g>
	<path fill="#FDFDFC" d="M52.3,15.3c0.3-0.2,0.6-0.5,0.9-0.7c0.9-0.1,0.7,0.8,0.7,1.4c0.1,0,0.2-0.1,0.3-0.1c0-0.2,0.1-0.5,0.2-0.6
		c0.6,0.2,0.5,0.8,0.4,1.3c0.1,0.1,0.2,0.4,0.3,0.5c0.1-0.2,0.2-0.5,0.3-0.7c-0.1-0.1-0.3-0.2-0.4-0.3c0-0.2,0-0.5,0-0.7
		c-0.3-0.1-0.6-0.2-0.9-0.3c0-0.5,0.3-0.6,0.7-0.5c0.4,0.3,0.9,0.7,1,1.2c0.2,0.8-0.3,1.7-1,2c-0.1,0-0.1,0.1-0.2,0.1
		c-0.2-0.2-0.3-0.5-0.5-0.7c-0.4-0.2-0.7,0.3-0.8,0.6c-0.6,0.1-1-0.5-1.1-1C52.3,16.3,52.4,15.8,52.3,15.3z M53.1,15.3
		c-0.2,0.6-0.4,1.3,0,1.9c0.1-0.7-0.1-1.5,0.5-2C53.5,15.2,53.2,15.3,53.1,15.3z M53.9,16.7"/>
</g>
<path fill="#CC1817" d="M53.1,15.3c0.1,0,0.4-0.1,0.5-0.2c-0.6,0.5-0.4,1.3-0.5,2C52.7,16.7,52.9,15.9,53.1,15.3z"/>
<path fill="#E2BEB1" d="M53.9,16.7"/>
<path fill="#CA090D" d="M11.9,17.6c0.2-0.3,0.7-0.2,1-0.3c1.1,0,2.2,0,3.3,0c0.4,0,0.6,0.3,0.6,0.6c0,0.8,0,1.5,0,2.3
	c1.5,0,3.1,0,4.6,0c0.5,0,1,0.1,1.5,0.2c0.1-0.9-0.1-1.8,0.1-2.7l0.2-0.1c-0.1,7.1,0,14.2-0.1,21.4l-0.1,0.2c0-0.3-0.1-0.6-0.1-0.8
	c0-4.8,0-9.5,0-14.3c-0.9,0.2-1.8,0.2-2.7,0.1L20.2,24c0.9,0,1.7,0,2.6,0c0-1.2,0-2.3,0-3.5c-2.1,0-4.1,0-6.2,0c0-1,0-1.9,0-2.9
	c-1.5,0-3,0-4.5,0c0,1,0,1.9,0,2.9c-2,0-4.1,0-6.1,0c0,1.2,0,2.3,0,3.5c0.9,0,1.8,0,2.7,0c0,0-0.1,0.1-0.2,0.2c-0.9,0-1.8,0-2.6-0.1
	c0-1.2-0.1-2.4,0-3.5c0.1-0.4,0.6-0.2,0.8-0.3c1.7,0,3.5,0,5.2,0C11.9,19.4,11.7,18.5,11.9,17.6z"/>
<path fill="#FEFFFE" d="M12,17.6c1.5,0,3,0,4.5,0c0,1,0,1.9,0,2.9c2.1,0,4.1,0,6.2,0c0,1.2,0,2.3,0,3.5c-0.9,0-1.7,0-2.6,0l0.1,0.1
	c0.3,0.4,0.6,0.8,0.8,1.3c-0.1,0.1-0.3,0.2-0.4,0.3c-1.3,0.7-2.7,2-4.3,1.2c0.2-1.5,1.3-2.6,1.7-4c-0.8,1-1.4,2.1-2.1,3.1
	c-0.2,0.2-0.5,0.3-0.8,0.3c-0.5-0.4-0.8-1-0.8-1.7c0-0.9,0-1.8,0-2.7c-0.1,0-0.2,0-0.2,0c-0.1,1.5,0.2,3-0.4,4.4
	c-0.6,0-1-0.3-1.3-0.8c-0.4-0.6-0.9-1.2-1.2-1.9c-0.2-0.3-0.4-0.8-0.8-0.9c0.6,1,1.2,2,1.7,3.1c0.1,0.4,0.3,1-0.1,1.4
	c-0.4,0.2-0.9,0-1.2-0.1c-0.9-0.4-1.8-0.9-2.6-1.4c-0.1-0.1-0.3-0.2-0.4-0.3c0.2-0.5,0.5-0.9,0.9-1.2c0,0,0.1-0.1,0.2-0.2
	c-0.9,0-1.8,0-2.7,0c0-1.2,0-2.3,0-3.5c2,0,4.1,0,6.1,0C12.1,19.5,12.1,18.5,12,17.6z"/>
<path fill="#FEFEFE" d="M23.3,17.6L23.3,17.6c1.5,0,3,0,4.4,0c0.1,2.6,0,5.2,0,7.7c0.3,0,0.6,0,0.9,0c0-2.6,0-5.2,0-7.7
	c1.4,0.1,2.9,0,4.3,0c0,0,0.1,0.1,0.2,0.2c0,7.1,0,14.3,0,21.4c-1.5-0.1-3,0-4.5-0.1c0-3.4,0-6.9,0-10.3c-0.3,0-0.6,0-1,0
	c0,3.4,0,6.9,0,10.3c-1.5-0.1-3,0.2-4.5-0.1C23.3,31.8,23.2,24.7,23.3,17.6z"/>
<path fill="#DF020C" d="M28.2,18.3c0.2-0.3,0.3-0.5,0.5-0.7c0,2.6,0,5.2,0,7.7c-0.3,0-0.6,0-0.9,0c0.2-2.4,0-4.9,0.1-7.3
	C28,18.1,28.1,18.2,28.2,18.3z"/>
<path fill="#CB0710" d="M54.7,17.9c0.1,0,0.1-0.1,0.2-0.1c0,0.1,0,0.2,0,0.3c0.7,0,1.4,0,2.2,0.1l-0.2,0.2c-7.1,0.1-14.2,0-21.3,0
	c0,1.2,0,2.5,0,3.7c1.1,0,2.1,0,3.2,0c0.2,0.9,0.3,1.9,0.5,2.8c-1.2,0-2.5,0-3.7,0c0,1.3,0,2.5,0,3.8c7.1,0,14.2,0,21.3,0
	c0-1.2,0-2.5,0-3.7c-1.2,0-2.4,0-3.6,0c0.2-1,0.4-1.9,0.5-2.9c1,0,2.1,0,3.1,0l0.1,0c-1,0.4-2.1,0.1-3.1,0.2
	c-0.1,0.8-0.3,1.6-0.3,2.4c1.1,0,2.3-0.1,3.4,0.1c0.1,1.4,0,2.7,0,4.1c-1,0.1-1.9,0.1-2.9,0.1c-3.5,0-7,0-10.5,0
	c0,1,0.4,2.1,0.2,3.1c-0.2-1-0.3-1.9-0.5-2.9c-1.5,0-3.1,0-4.7,0c0.2,1.1,0.3,2.3,0.5,3.4c-1.3,0-2.5,0-3.8,0c0,1.3,0,2.5,0,3.8
	c7.3,0,14.5,0,21.8,0c0-1.2,0-2.4,0-3.6c-1.3,0-2.6,0-3.9,0c0.2-1.2,0.4-2.4,0.5-3.6c-1.6,0-3.2,0-4.7,0c0.5-0.3,1.1-0.2,1.6-0.2
	c1,0,2-0.1,2.9,0c0.4,0.2,0.3,0.7,0.3,1c-0.1,0.8-0.3,1.6-0.3,2.5c1.2,0.1,2.4-0.1,3.7,0.1c0.3,0.4,0.2,0.9,0.2,1.3
	c-0.1,0.8,0.1,1.6,0,2.3c-0.1,0.5-0.6,0.4-1,0.4c-5.4,0-10.8,0-16.2,0c-1.7-0.1-3.4,0.1-5-0.1c-0.1-1.4-0.1-2.8,0-4.2
	c1.2-0.1,2.4,0,3.6-0.1c0-1.1-0.6-2.3-0.3-3.4c-1.1,0-2.3,0.1-3.4-0.1c0-1.3-0.2-2.7,0-4c1.2-0.2,2.4-0.1,3.6-0.1
	c-0.1-0.8-0.3-1.6-0.5-2.4c-1-0.1-2.1,0.2-3.1-0.1c-0.3-1.3-0.1-2.7,0-4c4-0.2,8,0,12-0.1c2.1,0,4.3,0.1,6.4,0
	C54.1,18.2,54.4,18.1,54.7,17.9z"/>
<g>
	<path fill="#FEFEFE" d="M35.5,18.4c7.1,0,14.2,0.1,21.3,0c0.1,1.3,0,2.5,0,3.8c-1,0-2.1,0-3.1,0c-0.1,1-0.3,1.9-0.5,2.9
		c1.2,0,2.4,0,3.6,0c0,1.2,0,2.5,0,3.7c-7.1,0-14.2,0-21.3,0c0-1.3,0-2.5,0-3.8c1.2,0,2.5,0,3.7,0c-0.2-0.9-0.4-1.9-0.5-2.8
		c-1.1,0-2.1,0-3.2,0C35.5,20.9,35.5,19.7,35.5,18.4z M43.4,22.2c0.3,0.9,0.3,1.9,0.6,2.8c1.5,0,3,0,4.5,0c0.1-0.9,0.3-1.9,0.5-2.8
		C47.2,22.2,45.3,22.1,43.4,22.2z"/>
</g>
<path fill="#E60611" d="M14.1,21.9c0.1,0,0.2,0,0.2,0c0,0.9,0,1.8,0,2.7c0,0.6,0.3,1.3,0.8,1.7c0.3,0,0.6-0.1,0.8-0.3
	c0.8-1,1.3-2.2,2.1-3.1c-0.5,1.4-1.5,2.5-1.7,4c1.5,0.8,2.9-0.5,4.3-1.2l0,0.3c-0.8,0.5-1.6,1-2.4,1.5c-0.4,0.3-0.9,0.6-0.8,1.1
	c0.2,0.3,0.5,0.5,0.9,0.6c0,0.2-0.1,0.3-0.1,0.5c0.8,0,1.6,0,2.3,0c0,0,0.1,0.1,0.1,0.1c-0.8,0-1.7,0-2.5,0c-0.6,0-1,0.7-0.6,1.1
	c0.7,0.8,1.7,1.1,2.5,1.7c-0.6,0.2-1.1-0.3-1.6-0.6c-0.6-0.4-1.3-0.4-2-0.4c-0.3,1.2,0.7,2.2,1.1,3.3l-0.3,0
	c-0.6-0.7-0.8-1.7-1.6-2.3c-0.6-0.4-1.3,0.4-1.3,1c-0.1,1.1,0,2.3-0.1,3.4c-0.1,0-0.2,0.1-0.2,0.2c0-1.2,0-2.3-0.1-3.5
	c0-0.6-0.6-1-1-1.3c-0.6,0.6-1,1.3-1.4,2c0-0.1-0.1-0.2-0.1-0.3c0.4-0.7,0.9-1.5,0.7-2.4c-0.6,0-1.2-0.1-1.8,0.2
	c-0.8,0.4-1.5,0.9-2.2,1.3c0.1-0.2,0.2-0.4,0.4-0.6c0.8-0.6,1.9-1,2.6-1.7c0.2-0.3,0.3-0.8-0.2-0.9c-1.3-0.5-2.7-0.2-4.1-0.4
	c0.9-0.2,1.9-0.2,2.9-0.2c0.1-0.1,0.2-0.3,0.3-0.4c0.4-0.1,0.8-0.2,1.1-0.4c0.2-0.3,0.1-0.6-0.2-0.8c-0.9-0.7-1.9-1.2-2.9-1.8
	c0-0.1-0.1-0.2-0.2-0.3c0.9,0.5,1.7,1,2.6,1.4c0.4,0.1,0.8,0.4,1.2,0.1c0.4-0.4,0.2-0.9,0.1-1.4c0.1-0.1,0.3-0.2,0.3-0.3
	c0.3,0.5,0.8,0.8,1.3,0.8C14.3,24.9,14,23.4,14.1,21.9z"/>
<path fill="#E5030E" d="M43.4,22.2c1.9,0,3.8,0,5.7,0c-0.2,0.9-0.4,1.9-0.5,2.8c-1.5,0-3,0-4.5,0C43.7,24.1,43.7,23.1,43.4,22.2z"/>
<path fill="#CC1817" d="M10.3,22.8c0.4,0.1,0.6,0.5,0.8,0.9c0.4,0.6,0.8,1.3,1.2,1.9c-0.1,0.1-0.3,0.2-0.3,0.3
	C11.5,24.8,10.8,23.8,10.3,22.8z"/>
<path fill="#FEFEFE" d="M6.6,29.6c-0.2-1.3,0.1-2.7,0.8-3.9c0.1,0,0.4-0.1,0.6-0.1c0,0.1,0.1,0.2,0.2,0.3c0.9,0.7,2,1.1,2.9,1.8
	c0.2,0.2,0.4,0.6,0.2,0.8c-0.3,0.2-0.8,0.3-1.1,0.4c-0.1,0.1-0.2,0.3-0.3,0.4c-1,0-1.9,0-2.9,0.2c1.4,0.2,2.8-0.1,4.1,0.4
	c0.4,0.1,0.3,0.6,0.2,0.9c-0.7,0.7-1.7,1.1-2.6,1.7c-0.2,0.1-0.4,0.3-0.4,0.6l0-0.3c-0.2,0.2-0.6,0.5-0.7,0.1
	C6.8,32,6.5,30.8,6.6,29.6z"/>
<path fill="#FEFEFD" d="M20.6,26c0.2-0.1,0.4-0.2,0.7-0.3c1.3,2.3,1.3,5.3,0,7.6c-0.4-0.2-0.8-0.4-1.1-0.6c-0.8-0.6-1.9-1-2.5-1.7
	c-0.4-0.4,0-1.1,0.6-1.1c0.8,0,1.7,0.1,2.5,0c0.3,0,0.6,0,0.9,0c0-0.1,0-0.2,0-0.3c-1.1-0.1-2.2,0-3.3-0.3c-0.3-0.2-0.7-0.3-0.9-0.6
	c0-0.5,0.4-0.9,0.8-1.1C19,26.9,19.8,26.5,20.6,26z"/>
<path fill="#E1020C" d="M27.9,29c0.3-0.1,0.5-0.1,0.8-0.2c0,3.4,0,6.8,0,10.3c1.5,0.1,3,0,4.5,0.1c-0.3,0.2-0.7,0.2-1,0.2
	c-1.4,0-2.7,0-4.1,0c-0.3-0.9-0.2-1.9-0.2-2.8C27.9,34,27.8,31.5,27.9,29z"/>
<path fill="#CC1817" d="M18.3,29.2c1.1,0.4,2.2,0.2,3.3,0.3c0,0.1,0,0.2,0,0.3c-0.3,0-0.6,0-0.9,0c0,0-0.1-0.1-0.1-0.1
	c-0.8,0-1.6,0-2.3,0C18.2,29.5,18.2,29.3,18.3,29.2z"/>
<path fill="#FEFFFE" d="M38.7,29.2c1.5,0,3.1,0,4.7,0c0.2,0.9,0.3,1.9,0.5,2.9c0,0.2,0.1,0.4,0.1,0.6c1.6,0,3.1,0,4.7,0
	c0.1-1.2,0.3-2.3,0.4-3.5c1.6,0.1,3.2,0,4.7,0c-0.1,1.2-0.3,2.4-0.5,3.6c1.3,0,2.6,0,3.9,0c0,1.2,0,2.4,0,3.6c-7.3,0-14.5,0-21.8,0
	c0-1.3,0-2.5,0-3.8c1.3,0,2.5,0,3.8,0C39.1,31.5,38.9,30.4,38.7,29.2z"/>
<path fill="#FDFEFD" d="M10.4,31.9c0.5-0.3,1.2-0.2,1.8-0.2c0.2,0.9-0.3,1.7-0.7,2.4c-0.4,0.7-0.7,1.3-1.1,2
	c-0.7-0.2-1.2-0.7-1.7-1.2c-0.4-0.4-0.8-0.9-0.9-1.4c0.1-0.1,0.3-0.2,0.4-0.2C8.9,32.8,9.6,32.3,10.4,31.9z"/>
<path fill="#FCFEFD" d="M16.5,31.7c0.7,0,1.4,0,2,0.4c0.5,0.2,1,0.7,1.6,0.6l-0.3,0.1c0.4,0.2,0.8,0.5,1.2,0.8
	c-0.6,1.1-1.6,2-2.7,2.6c-0.2-0.4-0.5-0.8-0.7-1.2C17.2,33.9,16.2,32.9,16.5,31.7z"/>
<path fill="#FDFEFE" d="M11.6,34.4c0.4-0.7,0.9-1.4,1.4-2c0.4,0.3,1,0.7,1,1.3c0.1,1.1,0.1,2.3,0.1,3.5c-1.2,0.1-2.4-0.3-3.4-0.9
	C10.7,35.6,11.3,35.1,11.6,34.4z"/>
<path fill="#FDFEFE" d="M14.4,33.6c0.1-0.6,0.7-1.4,1.3-1c0.8,0.6,1,1.6,1.6,2.3c0.3,0.5,0.6,0.9,0.8,1.4c-0.9,0.5-1.9,0.8-2.9,0.9
	c-0.3,0.1-0.6,0-0.9-0.2C14.4,35.9,14.3,34.7,14.4,33.6z"/>
<path fill="#E80510" d="M3.6,46.6c10.6,0,21.1,0,31.7,0c8.3,0,16.6,0,24.9,0c-0.4,0.8-0.9,1.5-1.3,2.2c-11.2,0-22.4,0-33.5,0
	c-6.8,0-13.6,0-20.4,0C4.5,48.1,4,47.4,3.6,46.6z"/>
<path fill="#E8040F" d="M6.3,50.8c10.1-0.1,20.3,0,30.4,0c7,0,13.9,0,20.9,0c-0.5,0.8-1.1,1.4-1.6,2.2c-16,0.1-32,0-48,0
	C7.4,52.3,6.8,51.6,6.3,50.8z"/>
</svg>
