<?xml version="1.0" encoding="utf-8"?>
<!-- Generator: Adobe Illustrator 18.1.1, SVG Export Plug-In . SVG Version: 6.00 Build 0)  -->
<svg version="1.1" id="图层_1" xmlns="http://www.w3.org/2000/svg" xmlns:xlink="http://www.w3.org/1999/xlink" x="0px" y="0px"
	 viewBox="0 0 97.4 40.3" enable-background="new 0 0 97.4 40.3" xml:space="preserve">
<g>
	<path fill="#D69B98" d="M93,0.2c2.4-1.1,5.3,1.6,4.2,4.1c-0.7,2.5-4.5,2.8-5.8,0.6C90.3,3.3,91.1,0.9,93,0.2z M95.2,0.8
		c0.3,0.5,0.5,0.9,0.7,1.4c-0.3,0.4-0.6,0.9-0.9,1.3c0.2,0.4,0.5,0.8,0.7,1.2c0.4-0.2,0.7-0.4,1-0.7C96.8,2.7,96.2,1.6,95.2,0.8z
		 M92.4,4.9c0.1-1.2,0.1-2.4,0-3.7C91.4,2.3,91.3,3.9,92.4,4.9z M93.5,1.8c-0.1,0.6,1,1.6,1.3,0.7C95.2,1.7,94,1.3,93.5,1.8z
		 M93.1,4.1c-0.2,0.5-0.3,1-0.3,1.5c0.9,0,1.8,0,2.7,0C95,4.9,94.6,4.1,93.7,4l-0.1,0l-0.1,0L93.1,4.1z"/>
</g>
<path fill="#972721" d="M93.4,4.1l0.1,0C93.5,4.1,93.4,4.1,93.4,4.1z"/>
<g>
	<path fill="#AD2727" d="M3.9,4.5c2.4-0.8,5-0.4,7.5-0.1c7.1,0.8,14.1,1.9,21.2,2.2c7.1,0.2,14.1,0.6,21.2,0.2
		c8.5-0.2,17-1.4,25.4-2.3c2.4-0.3,4.9-0.7,7.2,0c2.4,0.7,4.2,2.9,4.2,5.4c0,5.7,0,11.3,0,17c0,2.1-1.1,4.1-2.9,5.2
		c-2.1,1.4-4.9,1.3-7.3,0.9c-15.5-2.7-31.3-3.2-47-2.6c-7.8,0.4-15.6,1.3-23.3,2.6c-2.1,0.3-4.3,0.5-6.3-0.3c-2.4-0.8-4-3.3-3.9-5.8
		c0-5.7,0-11.3,0-17C0,7.5,1.7,5.3,3.9,4.5z M4.7,5.9c-2,0.6-3.5,2.7-3.4,4.8c0,5.4,0,10.8,0,16.2c0.2,3.1,3.4,5.1,6.2,4.8
		c4-0.3,7.9-1.4,11.8-1.7c7.9-0.7,15.8-1.5,23.8-1.4c9.5-0.1,19,0.6,28.4,1.4c4,0.3,7.9,1.6,11.9,1.6c2.7,0,5.6-2,5.8-4.9
		c0.1-5.4,0-10.7,0-16.1c0.1-1.7-0.9-3.5-2.4-4.3c-1.8-1.1-4-1-6-0.7c-5.9,0.9-11.9,1.5-17.8,1.9C52.7,8.7,42.2,8.6,31.8,8
		c-7.2-0.6-14.5-1.1-21.6-2.2C8.3,5.5,6.5,5.3,4.7,5.9z"/>
</g>
<g>
	<path fill="#AC1F22" d="M50.5,10.3c1.2,0.2,2.4,0.8,2.9,2c1.2-0.2,2.8,0.1,2.6,1.6c-0.3,0.1-1,0.3-1.3,0.4
		c-0.4-0.2-0.8-0.4-1.1-0.6c0.6,0.5,1.3,1.1,1.9,1.7c-0.7,0.6-1.7,0.6-2.5,1.1c1.8,0.2,3.7-1,5.3,0c0,0.4,0,0.9,0,1.3
		c-1.1,0-2.2-0.1-3.2-0.1c1.2,2.3,4,2.9,5.9,4.2c0,0.1,0,0.3,0,0.4c-1.8,0.7-3.8,0.2-5.3-0.9c0,1.3,0.4,2.8-0.4,3.9
		c-0.4,0.7-1.2,1-1.8,1.3c-0.3-0.5-0.6-1-0.9-1.5c-0.8-0.1-1.5,0.4-2.2,0.6c-1.3-1.5-0.6-3.6-0.7-5.4c-1.5,1.7-3.1,3.6-5.4,4.1
		c0.9-2,2.8-3.3,3.9-5.2c-1.2,0.3-2.3-0.4-2.7-1.5c1.6-0.2,3.2-0.4,4.7-0.8c-0.6-0.3-1.3-0.5-1.9-0.7c-0.1-0.2-0.2-0.5-0.2-0.7
		c0.9-0.2,1.7-0.4,2.6-0.6c-0.7-0.3-1.4-0.5-2-0.7c0-0.4,0-0.8,0.1-1.1c0.7-0.1,1.4-0.1,2.1-0.2C50.6,12,50.5,11.2,50.5,10.3z
		 M50.9,18.5c-0.2,0.4-0.3,0.9-0.3,1.3c0.5,0.5,1.2,0.6,1.9,1c0,0.4,0,1.2,0,1.6c-0.4,0-1.1,0.1-1.5,0.1c0.7,0.6,1.5,1.1,2.3,1.6
		c0-1.3,0-2.6,0-3.9c-0.7-0.2-1.5-0.3-2-0.9c0.8-0.2,1.6-0.4,2.2-0.9C52.6,18.3,51.8,18.2,50.9,18.5z"/>
</g>
<path fill="#A81F20" d="M15,10.7c1.6,0.3,3.8,0.3,4.4,2.1c-0.9,0.7-2,1.7-3.2,1.1C15.6,12.9,15.4,11.8,15,10.7z"/>
<path fill="#AB1F20" d="M68.6,10.5c1.1,0.1,2.5,0.4,3.1,1.5c-0.1,0.4-0.1,0.9-0.2,1.3c0.1,0.4,0.2,0.8,0.3,1.2
	c0.4,0,0.7-0.1,1.1-0.1c-0.4-0.3-0.8-0.6-1.2-0.9c0.2-0.3,0.5-0.9,0.7-1.3c1.1-0.1,2.3,0.1,2.5,1.4c-0.3,0.2-0.6,0.5-0.9,0.7
	c1.2,0.4,2.3,1.2,3.3,1.9c-0.4,0.5-0.5,1.3-1.2,1.6c-1,0.1-1.7-0.6-2.5-1c0.1-0.3,0.3-1,0.4-1.3c-1.2,0.1-2.5,0.1-3.6,0.6
	c0,0.1,0,0.3-0.1,0.4c1.1,0.2,2.1,0,3.2-0.1c-0.1,0.4-0.2,1.1-0.3,1.5c-1,1-1.3,2.5-2.7,3c0.9,0.1,1.8,0.4,2.1,1.4
	c-0.6,0.2-1.2,0.4-1.7,0.6c-0.1,0.3-0.4,0.9-0.5,1.2c1.4,0.1,3.7-1.1,4.5,0.7c0.6,0.8-0.7,1.2-1.2,1.6c-2.3-1.3-4.9-0.6-7.3,0
	c-1.2,0.4-2-1.2-2.1-2.2c1.3,0,2.6,0.1,3.9,0.1c-0.6-0.7-1.2-1.4-1.8-2.1c0.8-0.2,1.6-0.4,2.4-0.6c-1.3-1.1-2.2-2.7-2.5-4.4
	c0.3-0.1,1-0.2,1.4-0.2c0.3,0.7,0.6,1.4,0.9,2.2c0.5,0,1,0,1.4,0c0-0.2,0.1-0.6,0.1-0.8c-0.4-0.1-1.1-0.2-1.4-0.3
	c0-0.7,0.1-1.3,0.4-2c-1.4,0.3-2.7,0.5-4.1,0.6c0,1,0.2,2.3-0.9,2.9c-1,0.2-1.8-0.7-2.1-1.5c-0.2-1.4,1-2.3,1.6-3.4
	c0.9,0.4,2.1,1.1,2.9,0.1c-0.3-0.1-1-0.2-1.3-0.3c0-0.7,0-1.4,0.7-1.8c0.4,0.3,0.9,0.7,1.4,1c0.3-0.1,0.8-0.4,1-0.5
	C68.5,12.1,68.5,11.3,68.6,10.5z"/>
<g>
	<path fill="#A91E1F" d="M31.1,13.4c3.2-0.4,6.4-0.3,9.6-0.7c0.5,0.5,1.1,1,1.5,1.6c0.2,1.3-0.3,2.6-0.6,3.9
		c-0.4,1.5-0.6,3.1-1.5,4.4c-0.9,1.1-2.3,1.4-3.6,1.7c-0.1-0.4-0.2-1.1-0.2-1.5c-2,0.1-3.9,0.4-5.8,0.5c-0.9-0.4-1.2-1.4-1.3-2.3
		c-0.3-2.4-0.8-4.8-1-7.2c1,0.1,1.9,0.3,2.5,1.1C30.8,14.4,31,13.9,31.1,13.4z M32.3,15c-0.4,0.1-0.9,0.2-1.4,0.3
		c0.1,2.1,0.3,4.2,0.7,6.2c1.6,0,3.2,0,4.8-0.3c0.6-0.1,1.4-0.1,1.7-0.7c0.8-1.8,1-3.9,1.2-5.9C37,14.4,34.6,14.7,32.3,15z"/>
</g>
<g>
	<path fill="#A81D20" d="M19.4,14.6c1.6-0.1,3.5-1.1,4.8,0.2c0.6,0.3,0.7,1.1,0.4,1.6c-1.6,0-3.2-0.2-4.7-0.1
		c-0.2,0.5-0.4,1-0.6,1.4c1,0.4,2.1,0.6,3,1.3c0.3,0.8-0.2,1.5-0.4,2.2c-0.8,2-2,3.9-3.9,4.9c-0.8,0.2-1.3-0.5-1.9-0.9
		c0-0.5-0.1-1-0.1-1.5c-0.2-0.4-0.5-0.8-0.7-1.1c-1.6,1-3.3,2.5-5.3,2.2c2.8-2.4,5.6-5,7.4-8.3c-2,0-3.8,1.2-5.7,1.4
		c-0.7-0.7-1.1-1.6-1.6-2.4C13,15.8,16.1,14.8,19.4,14.6z M18.3,19.3c-0.9,1-1.6,2.2-2.9,2.9c0.3,0.3,0.6,0.7,0.9,1
		c0.2,0.1,0.7,0.2,0.9,0.2c1.1-1,1.9-2.3,2.5-3.6C19.3,19.7,18.8,19.5,18.3,19.3z"/>
</g>
<g>
	<path fill="#AF1D21" d="M31.9,16.8c1.8-0.3,3.8-1.3,5.5-0.2c0.5,1.2-0.4,2.5-0.8,3.6c-1.2,0.2-2.4,0.1-3.6,0.2
		C32.8,19.2,32.4,18,31.9,16.8z M34,17.2c0,0.5-0.1,1.1-0.1,1.6c0.5-0.1,0.9-0.2,1.4-0.2c0-0.4,0-0.8,0-1.3
		C34.9,17.3,34.4,17.3,34,17.2z"/>
</g>
<path fill="#D9B7B6" d="M79.3,20.5c1.1-0.9,2.7-0.3,4-0.4c0.5,0.2,1,0.3,1.5,0.5c-0.2,0.3-0.5,0.8-0.7,1.1c-1.3,0-2.7,0-4,0
	c0,0.3-0.1,1-0.1,1.4l0.2,0.1c0.1,0,0.4,0.1,0.5,0.2c1.1,0.4,2.3,0.5,3.5,0.6v0.5c-1.2,0-2.4,0-3.6,0.3c-0.1,0.1-0.3,0.4-0.4,0.5
	l-0.1,0.6c-0.2,0-0.6,0.1-0.8,0.1l-0.1,0C79.3,24.1,79.2,22.3,79.3,20.5z"/>
<path fill="#821C2C" d="M83.4,20.1c0.6,0,1.2,0.1,1.8,0.1c-0.1,2,0.3,4-0.1,5.9c-1.9-0.4-3.8-0.1-5.6-0.3c0.2,0,0.6-0.1,0.8-0.1
	c1.6-0.1,3.2,0,4.7,0c0-0.8,0-1.6,0-2.4c-1.4,0-2.7,0.1-4.1,0c-0.1,0-0.4-0.1-0.5-0.2c1.5,0,3-0.1,4.6-0.1c0-0.8,0-1.7,0-2.5
	C84.4,20.4,83.9,20.3,83.4,20.1z"/>
<path fill="#AD8887" d="M80.5,22.2c1.3,0,2.7,0,4,0.2c-1.3,0.4-2.7,0.3-4,0.3L80.5,22.2z"/>
<path fill="#A3676A" d="M80.4,25.1c0.1-0.1,0.3-0.4,0.4-0.5c1.3,0,2.6,0.1,3.9,0.4C83.2,25.2,81.8,25.2,80.4,25.1z"/>
<path fill="#821C2C" d="M40.1,35.1c1.5,0.4,3-0.6,4.4-0.1c-0.9,0.2-2.1,0.1-2.2,1.3c1,0.1,2.2-0.1,3.1,0.4c-1,0.1-2,0.1-3,0.1
	c-0.1,1,0.4,2.5-0.7,3c-0.6,0.5-1.3,0.3-1.9,0.1c0.7-0.2,1.7,0,2.1-0.8c0.3-0.7,0.2-1.5,0.3-2.3C41,37,39.4,36.3,38.5,37
	c-0.2,0.9-0.1,1.8-0.2,2.7c-0.5,0.1-1.1,0.1-1.6,0.2c0.8-0.4,1.8-0.8,1.4-2c-0.5,0.3-0.9,0.5-1.4,0.8c0.4-0.6,1.2-1,1.3-1.7
	c-0.5-0.2-1.1-0.2-1.6-0.1c0.5-0.4,1.1-0.8,1.6-1.2l-0.8-0.2c0.4-0.1,0.8-0.2,1.3-0.3c0,0.4,0,0.9-0.1,1.3c1.3-0.1,2.6-0.1,3.9-0.1
	C42.1,35.3,41,35.3,40.1,35.1z"/>
<g>
	<path fill="#BB8486" d="M29.1,34.8c0.5,0.8,1.3,1.1,2.2,1.1c0,1.2,0,2.5,0,3.7c-1.2-0.1-0.6-1.3-0.6-2.1c0-0.8-0.9,0-0.9,0.5
		c-0.5-0.3-1-0.5-1.5-0.8c-0.2,0.3-0.5,0.6-0.7,0.9c-0.1-0.3-0.3-0.9-0.4-1.2c0.5-0.1,1-0.1,1.5-0.2C28.9,36,29,35.4,29.1,34.8z
		 M29.4,36.3c0,0.6,1,0.6,1.3,0.3C30.8,36,29.7,36,29.4,36.3z"/>
</g>
<path fill="#821C2C" d="M34.7,34.8c0.3,0.6-0.1,1.1-0.2,1.6c0.5,0.1,1,0.3,1.5,0.4c-0.1,0-0.3,0-0.4,0c-0.8,0.1-2-0.2-2.1,1L33.3,38
	l0.1-0.6l0-0.3c-0.4-0.1-0.9-0.2-1.3-0.3c0.7-0.1,1.6,0.1,2.2-0.4c-0.4-0.1-1.2-0.4-1.7-0.5C33.7,36.2,34.5,36,34.7,34.8z"/>
<path fill="#8B131C" d="M46,36.4c0.5-0.6,1-1.1,1.6-1.5c0.1,1.7,0.1,3.3,0,5c-0.9-1.1-0.2-2.8-0.4-4.1C46.9,36,46.3,36.3,46,36.4z"
	/>
<g>
	<path fill="#821C2C" d="M49.4,35.6c0.7-0.9,1.8-0.5,2.7-0.4c0.1,0.2,0.3,0.6,0.4,0.8c-0.8-0.5-1.7-0.7-2.6-0.5
		c-0.2,0.4-0.6,1.1-0.8,1.4c1,0,2.3-0.5,3.1,0.4c0.3,0.8,0.4,1.9-0.4,2.4c-0.7,0.2-1.6,0.3-2.3-0.1C48.5,38.6,48.9,36.8,49.4,35.6z
		 M49.2,37.3c0.2,0.7,0.4,1.5,0.6,2.2c0.7,0,1.4,0,2.1-0.1c0-0.7,0-1.5,0-2.2C51,37.1,50.1,37.2,49.2,37.3z"/>
</g>
<g>
	<path fill="#8B131C" d="M57.3,35.9c0.4-1.1,1.7-0.7,2.6-0.7c0.8,1.2,0.6,2.7,0.3,4c-0.8,1.1-2.8,1-3.3-0.4c0.9,0.6,1.8,1,2.9,0.6
		c0.1-0.4,0.3-1.3,0.4-1.7c-0.9,0.6-1.8,0.5-2.7,0.1C57.3,37.1,56.8,36.4,57.3,35.9z M58,35.5c-0.2,0.3-0.5,0.9-0.6,1.2
		c0.5,1,1.6,1.1,2.6,0.9c0.1-0.7,0.1-1.3,0-2C59.3,35.5,58.7,35.5,58,35.5z"/>
</g>
<path fill="#8B131C" d="M26.5,35.2l0.5,0c-0.1,1-0.1,1.9-0.2,2.9c0.9,1.8,3,1.6,4.6,1.8c-1.9,0.4-3.7-0.1-5.3-1.2
	c-0.1,0.6-0.3,1.1-0.7,1.6l0.2-1c-0.3,0.1-0.9,0.2-1.3,0.3c0.9-0.5,1.9-1.1,2.1-2.2c-0.5,0-1.5,0-2-0.1c0.6-0.3,1.3-0.4,1.9-0.5
	C26.6,36.3,26.5,35.6,26.5,35.2z"/>
<path fill="#8B131C" d="M53.5,37.6c0.6-0.6,0.7-2.5,1.8-2.1c0.3,0.9,0.4,1.8,0.5,2.7c0.2,0.1,0.6,0.2,0.8,0.2
	c-0.2,0.1-0.6,0.3-0.8,0.4c0.2,0.7,0.1,1-0.4,0.9c0-0.3-0.1-0.8-0.1-1.1c-0.8-0.2-2.3,0.6-2.5-0.6c0.9,0.1,1.7,0.2,2.6,0.2
	c-0.1-0.8-0.1-1.6-0.2-2.4C54.6,36.4,54,37,53.5,37.6z"/>
<path fill="#8B131C" d="M62,35.3c0.7,0.5,1.4,1,2.3,0.6c0.7,0.1,1.3,0.3,2,0.5c-0.7,0-1.4,0-2.1,0c0.1,0.6,0.3,1.2,0.4,1.8
	c0.8,0,1.7-0.3,2.5,0.2c-1,0.1-1.9,0.1-2.9,0.1c0,0.6,0,1.2,0.1,1.7c-0.1,0-0.4,0-0.5,0c0-0.6,0-1.1,0.1-1.7c-1.1,0-2.2,0.1-3.2-0.2
	c1.1-0.6,3.4,0.5,3.7-1.1c-0.4,0-1.2,0.1-1.6,0.2c0.3-0.2,1-0.7,1.3-0.9c-0.9,0-1.9,0-2.8-0.1c0.4-0.1,1.1-0.3,1.4-0.3
	C62.5,35.9,62.1,35.5,62,35.3z"/>
<path fill="#975A5F" d="M34.5,37.5"/>
<path fill="#B38386" d="M35.7,37.4c0.7-0.1,0.8,0.1,0.3,0.6C35.9,37.9,35.8,37.6,35.7,37.4z"/>
<path fill="#B27F82" d="M28.9,38.3c0.5-0.5,1.3,0.2,1,0.8C29.4,39.6,28.6,38.9,28.9,38.3z"/>
<path fill="#A96E74" d="M35.5,39c0.1-0.2,0.4-0.5,0.5-0.6c0,0.4,0,1.2,0,1.6c-1.4-0.2-3.2,0.5-4.3-0.6c1.2,0,2.3,0,3.5,0.1L35.5,39z
	"/>
</svg>
