<?xml version="1.0" encoding="utf-8"?>
<!-- Generator: Adobe Illustrator 18.1.1, SVG Export Plug-In . SVG Version: 6.00 Build 0)  -->
<svg version="1.1" id="图层_1" xmlns="http://www.w3.org/2000/svg" xmlns:xlink="http://www.w3.org/1999/xlink" x="0px" y="0px"
	 viewBox="0 0 70.5 30.6" enable-background="new 0 0 70.5 30.6" xml:space="preserve">
<g>
	<path fill="#A42952" d="M0,0C23.5,0,47,0.1,70.5,0c0.1,10.2,0,20.4,0.1,30.6h-0.4c0.1-2.5,0.4-5.2-0.3-7.6
		c-0.2-0.8-0.3-1.6-0.3-2.5c0.1-6.5,0-12.9,0-19.4c-7.2-0.1-14.3,0-21.5,0c0,7.3,0,14.6,0,21.9c7.1,0.1,14.2,0,21.3,0.1
		c-1.4,0.5-2.9,0.5-4.3,0.4c-11.2-0.1-22.4,0.1-33.6,0c-2.1,0-4.2,0.3-6.2-0.4c7.3-0.2,14.6,0,21.9-0.1c0-7.3,0-14.6,0-21.9
		c-7.3,0-14.6,0-21.9,0c0,7.3,0,14.7,0,22c-1.3,0.2-2.6,0.4-4,0.4c-7,0-13.9,0-20.9-0.1c-0.1,2.3,0.1,4.7-0.3,7
		C-0.1,20.4,0.1,10.2,0,0z M0.9,1.1c0,7.3,0,14.6,0,21.9c7.8,0,15.7,0,23.5,0c-0.1-7.3,0-14.6,0-21.9C16.6,1.2,8.8,1,0.9,1.1z"/>
</g>
<g>
	<path fill="#FDFEFD" d="M0.9,1.1c7.8-0.1,15.7,0.1,23.5,0c0.1,7.3,0,14.6,0,21.9c-7.8,0-15.7,0-23.5,0C0.9,15.7,0.9,8.4,0.9,1.1z
		 M10.6,2.2c0,1,0,2.1-0.2,3.1C9.3,5.9,7.9,5.7,6.6,6C6.4,6.7,7.1,7.2,7.6,7.6C8.3,7.9,9.2,7.5,10,7.4C9.5,9,7.6,8.2,6.4,8.5
		c0.3,0.6,0.7,1.1,1,1.7c0.4,0,1.1,0.1,1.5,0.1c-1.3,1.3-3.5,0.8-5.2,1.1C4.1,13,5.5,13.9,7,13.5c-1.5,2.1-3.5,3.8-5.2,5.7
		c3.7-0.3,6-3.7,8-6.5c1.4-0.4,2.9-0.7,4.3-0.9c0.2,2-2.8,0.7-2.9,2.4c0.9,0.4,1.9,0.1,2.8,0.1c0,1.9-0.1,3.9-0.1,5.8
		c-0.5-0.1-0.9-0.3-1.4-0.4c0.1-0.4,0.2-1.1,0.2-1.4c-0.7,0.1-1.3,0.3-2,0.4c0-0.5,0-0.9,0-1.4c0.3,0,1,0,1.4,0
		c0.2-0.3,0.5-0.8,0.7-1.1c-0.6-0.3-1.2-0.6-1.7-1c-0.3-0.6-0.5-2.2-1.5-1.5c-0.8,1.8-0.7,3.7-0.7,5.6c-0.1,0.8,0.5,1.4,0.9,2.1
		c0.8-0.4,1.6-0.8,2.4-1.1c0.8,0.4,1.5,1,1.7,2c1.1-0.3,2.3-0.8,2.8-1.9c0.6-1.4,0.2-3,0.2-4.5c0.9,0.7,1.8,1.6,2.9,1.9
		c1.1,0,2.3-0.4,3.3-0.8c0-0.2,0-0.5,0-0.6c-2.8-0.8-5.3-2.3-7.1-4.6c1.2-0.5,2.6-0.5,3.9-0.6c-0.2-1-1.1-1.4-1.8-1.8
		c-2.4,0.5-4.8,0.8-7.3,1.2c0.2-0.2,0.5-0.6,0.6-0.8c1.6-0.5,3.4-0.5,5-0.9c-0.3-0.5-0.5-1-1.1-1.3c-1.2,0-2.3,0.3-3.4,0.4
		c1-1.9,3.5-1.1,5.2-1.4c-0.4-0.8-0.8-1.4-1.5-2c-0.9,0.3-1.9,0.5-2.8,0.6c0.1-0.4,0.4-1.3,0.5-1.8C12.4,2.9,11.6,2.4,10.6,2.2z"/>
</g>
<g>
	<path fill="#FDFEFD" d="M25.4,1.1c7.3,0,14.6,0,21.9,0c0,7.3,0,14.6,0,21.9c-7.3,0.1-14.6-0.1-21.9,0.1l0,0
		C25.4,15.8,25.4,8.5,25.4,1.1z M37.3,2.8c0,1.6,0,3.2,0,4.7c-0.7,0.3-1.4,0.5-2,0.8c0.4,0.7,1.3,0.7,2,0.9c-0.1,1.3,0,2.9,1.5,3.3
		c2.2,0.1,4.3-1,6.3-1.8c-0.5-0.9-1-1.8-1.6-2.6c-0.4,0.5-0.7,1-1,1.4c-0.9,0.4-1.9,0.5-2.9,0.6c0.1-0.6,0.2-1.2,0.3-1.8
		c1.4-0.6,2.7-1.4,3.8-2.5c-0.4-0.6-0.9-1.1-1.5-1.6c-0.8,0.7-1.5,1.4-2.4,2c0.1-0.8,0.2-1.7,0.2-2.5C39.2,3.1,38.2,3,37.3,2.8z
		 M32.9,2.9c-1,3.2-3.6,5.4-5.9,7.7c1.6,0.1,3.1-0.7,4.1-1.8c0.1,1.6-0.4,3.6,1.1,4.6c0.4-0.3,0.8-0.5,1.2-0.9
		c0.3-1.8,0-3.6,0.2-5.3c0.6-0.8,1.2-1.6,1.9-2.4C34.9,3.8,34,3.1,32.9,2.9z M35.1,11.7c0,0.9,0,1.8,0.1,2.7c-2.5,0.4-5,0.9-7.5,0.7
		c0.4,1,0.8,2.8,2.2,2.4c1.8-0.4,3.5-0.8,5.3-1.1c0.1,2-0.2,4.1,0.5,6c0.5-0.4,1.4-0.5,1.5-1.3c0.2-1.6,0.1-3.2,0.2-4.9
		c2.4-0.3,4.7-0.3,7.1-0.2c0-1.2-0.9-2.8-2.3-2.5c-1.6,0.2-3.2,0.6-4.9,0.6c0-0.6,0.4-1.3-0.2-1.7C36.6,11.9,35.8,11.9,35.1,11.7z"
		/>
</g>
<g>
	<path fill="#FEFEFD" d="M48.2,1.1c7.2,0.1,14.3-0.1,21.5,0c0,6.5,0,12.9,0,19.4c0,0.8,0.1,1.7,0.3,2.5l-0.4,0.1
		c-7.1-0.1-14.2,0-21.3-0.1C48.2,15.7,48.1,8.4,48.2,1.1z M53.7,3.4c0.3,0.6,0.5,1.2,0.8,1.7c0.8,0.2,1.6,0.2,2.4,0.3
		c-1.3,0.7-2.9,0.8-4.3,1.1c0-0.8-0.5-1.3-1.1-1.7c-0.6,1-1.2,1.9-1.8,2.9c0.3,0.9,0.4,1.8,0.6,2.6c0.4,0.7,1.5,1.1,2,0.3
		c0.4-0.9,0.3-1.9,0.6-2.8c1-0.2,1,0.9,1.4,1.5c-0.3,0-0.8,0-1.1,0c0.3,0.6,0.3,1.5,1,1.7c0.9,0.3,1.8-0.1,2.6-0.3
		c0.7,0.4,1.7,0.4,2.1-0.4c0.3-1.2,0.2-2.4,0.1-3.7c1.4-0.3,2.8-0.8,4.3-0.4c-0.2,0.7-0.3,1.4-0.5,2.2C64,8,65.2,7.6,66.4,7.2
		c0-0.6-0.1-1.3-0.7-1.7c-2-2-4.7,0-7.1-0.4c1.1-0.6,2.4-0.8,3.6-1.1c-0.2-0.9-1-1.3-1.7-1.7C58.3,2.9,56,3.4,53.7,3.4z M59.3,7.1
		c0.3,0.5,0.7,0.9,1,1.4c0.7,0,1.5,0,2.2-0.1c-0.1-1-1-1.4-1.7-1.9C60.3,6.7,59.8,6.9,59.3,7.1z M59.5,8.7c0.1,0.3,0.3,0.9,0.4,1.2
		l0.9,0.6c-0.5,0.2-1,0.4-1.5,0.6c-0.6,1.5-1.8,2.8-2.5,4.2c0.7-0.1,1.4-0.4,2.1-0.6c0.7-0.2,0.8,0.9,0.3,1.1
		c-0.5,0.5-1.1,0.9-1.7,1.3c-0.7-0.4-1.4-0.7-2.1-0.8c1.1-0.8,1.3-2.3,1.6-3.5c0.2-0.5-0.1-1.4-0.8-1.2c-1.8,0-3.3,1.2-5,1
		c-0.5,0.9,0.2,1.9,0.4,2.8c0.1,0.9,1.2,0.9,1.9,1.1c0,1,0.1,2.2-0.6,3.1c0-0.7,0-1.5,0-2.2c-0.6-0.1-1.3-0.2-1.9-0.2
		c0,0.9,0,1.8,0,2.7c-0.6,0.2-1.1,0.4-1.6,0.6c0.7,0.6,1.4,2,2.6,1.4c2-0.7,3.7-1.9,5.7-2.7c-0.5-1-1.7-0.4-2.5-0.5
		c-0.2-1.8,2-0.6,3-0.8c0.2,1.2,0.3,2.4,0.6,3.6c0.8,0.6,1.7-0.1,2.6-0.1c0.6-0.3,1.5,0.5,2,0c0.9-0.8,0.8-2.1,1-3.1
		c0.8,0,1.7,0,2.6-0.1c0.6-0.2,1.6,0,1.5-0.9c-1.9-0.8-4.3-0.8-5.7-2.5c0.5-0.9,1.2-1.7,1.7-2.6c-0.6-0.3-1.1-0.5-1.7-0.8
		c-0.6,0.2-1.3,0.4-2,0.5c0-0.3,0.1-1,0.1-1.3c0.6-0.1,1.2-0.2,1.7-0.5C62,8.8,60.7,8.7,59.5,8.7z"/>
</g>
<path fill="#B0093E" d="M10.6,2.2c0.9,0.2,1.8,0.6,2.6,1.2c-0.1,0.4-0.4,1.3-0.5,1.8c1-0.1,1.9-0.3,2.8-0.6c0.6,0.5,1.1,1.2,1.5,2
	c-1.7,0.3-4.2-0.5-5.2,1.4c1.1-0.1,2.3-0.4,3.4-0.4c0.5,0.2,0.8,0.8,1.1,1.3c-1.7,0.4-3.4,0.4-5,0.9c-0.1,0.2-0.4,0.6-0.6,0.8
	c2.4-0.3,4.9-0.6,7.3-1.2c0.7,0.5,1.6,0.9,1.8,1.8c-1.3,0.1-2.7,0-3.9,0.6c1.9,2.2,4.3,3.8,7.1,4.6c0,0.2,0,0.5,0,0.6
	c-1.1,0.4-2.2,0.7-3.3,0.8c-1.2-0.3-2-1.2-2.9-1.9c0,1.5,0.3,3.1-0.2,4.5c-0.5,1.1-1.7,1.6-2.8,1.9c-0.2-0.9-0.9-1.5-1.7-2
	c-0.8,0.3-1.6,0.8-2.4,1.1c-0.4-0.6-1-1.3-0.9-2.1c0-1.9,0-3.8,0.7-5.6c1-0.7,1.2,1,1.5,1.5c0.6,0.3,1.2,0.6,1.7,1
	c-0.2,0.3-0.5,0.8-0.7,1.1c-0.3,0-1,0-1.4,0c0,0.5,0,0.9,0,1.4c0.7-0.2,1.3-0.3,2-0.4c-0.1,0.4-0.2,1.1-0.2,1.4
	c0.5,0.1,0.9,0.3,1.4,0.4c0-1.9,0.1-3.9,0.1-5.8c-0.9,0-1.9,0.3-2.8-0.1c0.1-1.7,3.1-0.4,2.9-2.4c-1.5,0.2-2.9,0.6-4.3,0.9
	c-2,2.7-4.3,6.2-8,6.5c1.7-2,3.7-3.6,5.2-5.7c-1.5,0.5-2.9-0.4-3.3-1.9c1.7-0.3,3.9,0.2,5.2-1.1c-0.4,0-1.1-0.1-1.5-0.1
	c-0.4-0.6-0.7-1.1-1-1.7C7.6,8.2,9.5,9,10,7.4c-0.8,0-1.7,0.5-2.5,0.2C7.1,7.2,6.4,6.7,6.6,6c1.2-0.2,2.6-0.1,3.8-0.7
	C10.6,4.3,10.6,3.2,10.6,2.2z"/>
<path fill="#B2083D" d="M37.3,2.8c0.9,0.2,2,0.3,2.6,1.1c0,0.8-0.1,1.7-0.2,2.5c0.8-0.6,1.6-1.3,2.4-2c0.6,0.5,1.1,1,1.5,1.6
	c-1.1,1.1-2.4,1.9-3.8,2.5c-0.1,0.6-0.2,1.2-0.3,1.8c1-0.2,2-0.3,2.9-0.6c0.4-0.5,0.7-1,1-1.4c0.7,0.8,1.1,1.7,1.6,2.6
	c-2,0.8-4.1,1.9-6.3,1.8c-1.5-0.4-1.6-2-1.5-3.3c-0.7-0.2-1.5-0.2-2-0.9c0.7-0.3,1.4-0.5,2-0.8C37.3,5.9,37.3,4.4,37.3,2.8z"/>
<g>
	<path fill="#B10B3F" d="M53.7,3.4c2.3,0,4.6-0.5,6.8-1c0.7,0.4,1.5,0.9,1.7,1.7c-1.2,0.3-2.5,0.4-3.6,1.1c2.4,0.4,5.1-1.6,7.1,0.4
		c0.6,0.4,0.6,1.1,0.7,1.7C65.2,7.6,64,8,62.7,8.4c0.1-0.7,0.3-1.5,0.5-2.2c-1.4-0.3-2.9,0.2-4.3,0.4c0,1.2,0.1,2.5-0.1,3.7
		c-0.4,0.8-1.4,0.8-2.1,0.4c-0.8,0.2-1.7,0.7-2.6,0.3c-0.7-0.3-0.7-1.2-1-1.7c0.3,0,0.8,0,1.1,0c-0.4-0.6-0.4-1.7-1.4-1.5
		c-0.3,0.9-0.1,2-0.6,2.8c-0.5,0.8-1.6,0.4-2-0.3c-0.2-0.9-0.3-1.8-0.6-2.6c0.6-1,1.2-1.9,1.8-2.9c0.6,0.4,1.1,1,1.1,1.7
		c1.4-0.3,3-0.4,4.3-1.1c-0.8-0.1-1.6-0.1-2.4-0.3C54.1,4.6,53.9,4,53.7,3.4z M54.8,7.6C55.4,8,56.3,8,56.6,8.7
		C56,9,55.4,9.2,54.8,9.4c0.6,0.2,1.3,0.3,1.9,0.5c0-0.9,0-1.8-0.1-2.6C56,7.2,55.4,7.4,54.8,7.6z"/>
</g>
<path fill="#B1083D" d="M32.9,2.9c1.1,0.3,1.9,0.9,2.5,1.9c-0.6,0.8-1.3,1.5-1.9,2.4c-0.1,1.8,0.2,3.6-0.2,5.3
	c-0.3,0.4-0.8,0.6-1.2,0.9c-1.5-1.1-1-3.1-1.1-4.6c-1,1.1-2.5,1.9-4.1,1.8C29.3,8.3,31.9,6.1,32.9,2.9z"/>
<path fill="#A2214B" d="M59.3,7.1c0.5-0.2,1-0.4,1.5-0.6c0.7,0.5,1.6,0.9,1.7,1.9c-0.7,0-1.5,0.1-2.2,0.1C60,8,59.6,7.5,59.3,7.1z"
	/>
<path fill="#FEFDFD" d="M54.8,7.6c0.6-0.3,1.2-0.5,1.9-0.3c0.1,0.9,0.1,1.8,0.1,2.6c-0.7-0.2-1.3-0.3-1.9-0.5
	C55.4,9.2,56,9,56.6,8.7C56.3,8,55.4,8,54.8,7.6z"/>
<g>
	<path fill="#B10D40" d="M59.5,8.7c1.2,0,2.4,0.1,3,1.3c-0.6,0.3-1.1,0.5-1.7,0.5c0,0.3-0.1,1-0.1,1.3c0.7-0.1,1.3-0.3,2-0.5
		c0.6,0.2,1.1,0.5,1.7,0.8c-0.5,0.9-1.1,1.7-1.7,2.6c1.4,1.7,3.8,1.7,5.7,2.5c0.1,0.9-1,0.7-1.5,0.9c-0.8,0.1-1.7,0.1-2.6,0.1
		c-0.2,1.1-0.1,2.4-1,3.1c-0.5,0.6-1.3-0.3-2,0c-0.9,0-1.8,0.7-2.6,0.1c-0.4-1.2-0.4-2.4-0.6-3.6c-1,0.2-3.1-1-3,0.8
		c0.8,0.1,2.1-0.5,2.5,0.5c-1.9,0.8-3.7,2-5.7,2.7c-1.2,0.6-1.9-0.7-2.6-1.4c0.5-0.2,1.1-0.4,1.6-0.6c0-0.9,0-1.8,0-2.7
		c0.6,0.1,1.3,0.1,1.9,0.2c0,0.7,0,1.5,0,2.2c0.7-0.9,0.5-2,0.6-3.1c-0.7-0.1-1.8-0.1-1.9-1.1c-0.2-0.9-0.9-1.9-0.4-2.8
		c1.8,0.2,3.3-1,5-1c0.6-0.2,1,0.7,0.8,1.2c-0.3,1.2-0.5,2.7-1.6,3.5c0.8,0.1,1.5,0.4,2.1,0.8c0.6-0.4,1.2-0.9,1.7-1.3
		c0.5-0.3,0.4-1.3-0.3-1.1c-0.7,0.2-1.4,0.4-2.1,0.6c0.7-1.5,1.9-2.7,2.5-4.2c0.5-0.2,1-0.4,1.5-0.6l-0.9-0.6
		C59.8,9.6,59.6,9,59.5,8.7z M59.9,13.4c0.3,0.3,0.6,0.6,0.9,1c0.3-0.5,0.5-0.9,0.8-1.4C61,13.1,60.4,13.2,59.9,13.4z M52.4,13.1
		c0.3,0.6,0.5,1.2,0.8,1.9c0.8-0.3,1.8-0.6,1.7-1.7C54,13.2,53.2,13.2,52.4,13.1z M61.3,16c-0.5,0.6-1.1,1.1-1.6,1.7
		c0,0.8,0.1,1.5,0.1,2.3c0.7-0.1,1.5-0.1,2.3-0.1c0-0.5,0-0.9,0-1.4c-0.7,0-1.4,0.2-2-0.2c-0.3-1.1,1.7-0.7,2-1.6
		C61.8,16.5,61.6,16.2,61.3,16z"/>
</g>
<path fill="#B00A3E" d="M35.1,11.7c0.7,0.2,1.5,0.3,2,0.7c0.5,0.5,0.2,1.2,0.2,1.7c1.7,0,3.3-0.4,4.9-0.6c1.4-0.3,2.3,1.2,2.3,2.5
	c-2.4,0-4.8-0.1-7.1,0.2c-0.1,1.6,0,3.3-0.2,4.9c-0.1,0.7-1,0.9-1.5,1.3c-0.7-1.9-0.4-4-0.5-6c-1.8,0.3-3.5,0.7-5.3,1.1
	c-1.4,0.4-1.9-1.4-2.2-2.4c2.5,0.2,5.1-0.2,7.5-0.7C35.2,13.5,35.1,12.6,35.1,11.7z"/>
<path fill="#FFFFFF" d="M59.9,13.4c0.6-0.1,1.1-0.3,1.7-0.4c-0.3,0.5-0.6,0.9-0.8,1.4C60.5,14,60.2,13.7,59.9,13.4z"/>
<path fill="#FEFDFD" d="M52.4,13.1c0.8,0.1,1.6,0.1,2.5,0.2c0.1,1.1-0.9,1.4-1.7,1.7C52.9,14.3,52.6,13.7,52.4,13.1z"/>
<path fill="#FFFBFF" d="M61.3,16c0.3,0.2,0.5,0.5,0.7,0.7c-0.2,0.9-2.2,0.5-2,1.6c0.6,0.4,1.3,0.2,2,0.2c0,0.5,0,0.9,0,1.4
	c-0.8,0-1.5,0.1-2.3,0.1c-0.1-0.8-0.1-1.5-0.1-2.3C60.3,17.1,60.8,16.6,61.3,16z"/>
<g>
	<path fill="#B20A42" d="M21.4,23.6c1.3,0,2.7-0.2,4-0.4l0,0c2,0.7,4.1,0.4,6.2,0.4c11.2,0.1,22.4-0.1,33.6,0c1.4,0,2.9,0,4.3-0.4
		l0.4-0.1c0.7,2.5,0.4,5.1,0.3,7.6c-23.3,0-46.6,0-70,0l0-0.1c0.4-2.3,0.2-4.7,0.3-7C7.5,23.6,14.4,23.5,21.4,23.6z M3.8,24.2
		c0,0.2-0.1,0.7-0.1,0.9c0.6,0,1.2,0,1.8,0.1c0,1.5,0,3,0,4.4c0.2,0,0.7,0,1,0c0-1.5,0-3,0-4.5c0.6,0,1.1,0,1.7,0c0-0.2,0-0.7,0-1
		C6.7,24.2,5.2,24.2,3.8,24.2z M10.6,26c0.4,1.4,2.4,0.9,3,2.1c-0.7,1.2-2,0.5-2.9,0c-0.1,0.2-0.3,0.7-0.4,0.9c1,0.5,2.3,1,3.4,0.4
		c0.8-0.5,0.8-1.5,0.6-2.3c-0.8-0.6-1.8-0.8-2.8-1.2c0.2-0.5,0.5-1.4,1.2-0.9c0.5,0,1.7,0.9,1.6-0.2C13.3,23.4,10.4,24,10.6,26z
		 M20.7,24.4c0,0.6,0,1.2,0.1,1.8c-0.8,0-1.5,0-2.3,0c0-0.7,0-1.4,0.1-2.1c-0.3,0-0.8,0.1-1.1,0.1c-0.1,1.8,0,3.6,0,5.4
		c0.3,0,0.8,0,1.1,0c0-0.8,0-1.7,0-2.5c0.8,0,1.5,0,2.3,0c0,0.9,0,1.7,0,2.6c0.2,0,0.7-0.1,1-0.1c0.1-1.8,0.1-3.7,0-5.5
		C21.4,24.1,21.1,24.3,20.7,24.4z M42,24c-0.3,1.3-0.5,2.7-1.2,3.9c-0.4-1.2-0.7-2.5-1.1-3.7c-0.3,0-1-0.1-1.3-0.2
		c0.8,1.8,1.2,3.7,1.9,5.5c0.3,0,0.8,0.1,1,0.1c0.3-1,0.6-1.9,1-2.9c0.7,1,0.5,3,2.1,3c0.6-1.9,1.3-3.8,1.8-5.7
		c-0.3,0.1-0.9,0.2-1.2,0.3c-0.4,1.2-0.6,2.4-1.1,3.6c-0.7-1.2-0.9-2.5-1.3-3.8C42.6,24.1,42.2,24.1,42,24z M56.1,24.2
		c0,1.8,0,3.6,0,5.4c1.3,0,2.6,0,3.9,0c0.1-1.7-1.9-0.7-2.9-0.9c0-1.5,0.1-3.1-0.2-4.6C56.7,24.1,56.3,24.2,56.1,24.2z M66.1,24.2
		c0,1.2,0,2.4,0,3.6c-0.1,0.2-0.4,0.6-0.5,0.8c-0.3,0-1,0-1.4,0.1c-0.6-1.4-0.4-3.1-0.4-4.6l-1,0c0,1.5-0.1,3,0.1,4.5
		c0.9,1.5,3.4,1.4,4-0.3c0.2-1.3,0.1-2.7,0.1-4.1C66.9,24.2,66.3,24.2,66.1,24.2z M24.8,24.2c0,1.8,0,3.6,0,5.4c1.3,0,2.6,0,3.9,0
		c0.1-1.6-2-0.6-3-0.9c0-0.4,0-1.1,0-1.5c0.7,0,1.5,0,2.2,0c0-0.2,0-0.7,0-1c-0.7,0-1.5,0.1-2.2,0.1c0-0.3,0-0.9,0-1.2
		c0.9,0,1.8,0,2.7,0c0-0.2,0-0.7,0-0.9C27.3,24.2,26.1,24.2,24.8,24.2z M31.5,24.1c0.1,1.8-0.1,3.6,0,5.4c0.2,0.1,0.7,0.2,0.9,0.2
		c0.3-0.8,0-2.1,1.1-2.2c0.6,0.9,1.1,2.2,2.4,2.2c0-1.9,0-3.8,0-5.7c-0.2,0-0.7,0.1-0.9,0.2c-0.3,0.7-0.2,1.9-1.2,2.1
		C33.2,25.4,32.8,24,31.5,24.1z M48.1,29.6c1.2,0.3,1.4-0.8,1.7-1.6c0.6,0,1.2-0.1,1.9-0.1c0.2,0.6,0.4,1.1,0.6,1.7
		c0.4,0,0.8,0,1.2,0c-0.9-1.8-1.3-3.7-2.3-5.4c-0.2,0-0.7,0.1-1,0.1C49.5,26,48.9,27.9,48.1,29.6z"/>
</g>
<path fill="#FFF9FD" d="M3.8,24.2c1.5,0.1,2.9,0.1,4.4,0c0,0.2,0,0.7,0,1c-0.6,0-1.2,0-1.7,0c0,1.5,0,3,0,4.5c-0.2,0-0.7,0-1,0
	c0-1.5,0-3,0-4.4c-0.6,0-1.2,0-1.8-0.1C3.7,24.9,3.7,24.4,3.8,24.2z"/>
<path fill="#FFFAFE" d="M10.6,26c-0.3-2,2.7-2.6,3.8-1.3c0.2,1.1-1,0.2-1.6,0.2c-0.8-0.4-1,0.4-1.2,0.9c0.9,0.4,1.9,0.6,2.8,1.2
	c0.2,0.8,0.2,1.8-0.6,2.3c-1.1,0.7-2.4,0.1-3.4-0.4c0.1-0.2,0.3-0.7,0.4-0.9c0.9,0.5,2.2,1.2,2.9,0C13.1,26.9,11,27.4,10.6,26z"/>
<path fill="#FFFBFF" d="M20.7,24.4c0.3-0.1,0.7-0.3,1-0.4c0.1,1.8,0.1,3.7,0,5.5c-0.2,0-0.7,0.1-1,0.1c0-0.9,0-1.7,0-2.6
	c-0.8,0-1.5,0-2.3,0c0,0.8,0,1.7,0,2.5c-0.3,0-0.8,0-1.1,0c0-1.8-0.1-3.6,0-5.4c0.3,0,0.8-0.1,1.1-0.1c0,0.7,0,1.4-0.1,2.1
	c0.8,0,1.5,0,2.3,0C20.8,25.6,20.7,25,20.7,24.4z"/>
<path fill="#FFFDFE" d="M42,24c0.2,0,0.5,0.1,0.7,0.1c0.3,1.3,0.6,2.6,1.3,3.8c0.5-1.2,0.7-2.4,1.1-3.6c0.3-0.1,0.9-0.2,1.2-0.3
	c-0.6,1.9-1.2,3.8-1.8,5.7c-1.6,0-1.4-2-2.1-3c-0.3,1-0.6,1.9-1,2.9c-0.3,0-0.8-0.1-1-0.1c-0.8-1.8-1.2-3.7-1.9-5.5
	c0.3,0,1,0.1,1.3,0.2c0.4,1.2,0.6,2.5,1.1,3.7C41.5,26.7,41.8,25.4,42,24z"/>
<path fill="#FEFDFD" d="M56.1,24.2c0.2,0,0.7-0.1,0.9-0.1c0.2,1.5,0.2,3,0.2,4.6c1,0.2,3-0.7,2.9,0.9c-1.3,0-2.6,0-3.9,0
	C56.1,27.8,56.1,26,56.1,24.2z"/>
<path fill="#FFFAFD" d="M66.1,24.2c0.3,0,0.8,0,1,0c0,1.4,0.1,2.7-0.1,4.1c-0.6,1.7-3.2,1.8-4,0.3c-0.3-1.5-0.1-3-0.1-4.5l1,0
	c0.1,1.5-0.2,3.1,0.4,4.6c0.3,0,1,0,1.4-0.1c0.1-0.2,0.4-0.6,0.5-0.8C66.1,26.6,66.1,25.4,66.1,24.2z"/>
<path fill="#FFFAFE" d="M24.8,24.2c1.2,0.1,2.5,0.1,3.8,0.1c0,0.2,0,0.7,0,0.9c-0.9,0-1.8,0-2.7,0c0,0.3,0,0.9,0,1.2
	c0.7,0,1.5-0.1,2.2-0.1c0,0.2,0,0.7,0,1c-0.7,0-1.5,0-2.2,0c0,0.4,0,1.1,0,1.5c1,0.3,3.1-0.7,3,0.9c-1.3,0-2.6,0-3.9,0
	C24.9,27.8,24.9,26,24.8,24.2z"/>
<path fill="#FEFDFE" d="M31.5,24.1c1.3-0.1,1.7,1.3,2.3,2.1c0.4,0.5,0.7,1,1.1,1.6c0-1.2,0-2.4,0-3.6c0.2,0,0.7-0.1,0.9-0.2
	c0,1.9,0,3.8,0,5.7c-1.3,0-1.7-1.3-2.4-2.2c-0.3-0.5-0.7-1-1.1-1.5c-0.1,1.2,0,2.4,0,3.6c-0.2-0.1-0.7-0.2-0.9-0.2
	C31.4,27.7,31.6,25.9,31.5,24.1z"/>
<path fill="#A33E62" d="M33.8,26.2c1-0.1,0.9-1.3,1.2-2.1c0,1.2,0,2.4,0,3.6C34.6,27.3,34.2,26.8,33.8,26.2z"/>
<g>
	<path fill="#FFFDFF" d="M48.1,29.6c0.8-1.8,1.4-3.6,2.2-5.4c0.2,0,0.7-0.1,1-0.1c1,1.7,1.5,3.7,2.3,5.4c-0.4,0-0.8,0-1.2,0
		c-0.2-0.6-0.4-1.1-0.6-1.7c-0.6,0-1.3,0-1.9,0.1C49.5,28.8,49.3,30,48.1,29.6z M50.2,27.2c0.3,0,0.9-0.1,1.2-0.1
		c-0.2-0.5-0.5-1.1-0.7-1.6C50.5,26.1,50.3,26.7,50.2,27.2z"/>
</g>
<path fill="#821C2C" d="M50.2,27.2c0.2-0.6,0.3-1.1,0.5-1.7c0.2,0.5,0.5,1.1,0.7,1.6C51.1,27.2,50.5,27.2,50.2,27.2z"/>
<path fill="#A84E6E" d="M32.5,26.1c0.4,0.5,0.7,1,1.1,1.5c-1.1,0.1-0.8,1.4-1.1,2.2C32.4,28.5,32.4,27.3,32.5,26.1z"/>
</svg>
