<?xml version="1.0" encoding="utf-8"?>
<!-- Generator: Adobe Illustrator 18.1.1, SVG Export Plug-In . SVG Version: 6.00 Build 0)  -->
<svg version="1.1" id="图层_1" xmlns="http://www.w3.org/2000/svg" xmlns:xlink="http://www.w3.org/1999/xlink" x="0px" y="0px"
	 viewBox="0 0 51.1 52.4" enable-background="new 0 0 51.1 52.4" xml:space="preserve">
<g>
	<path fill="#17AD3E" d="M0,1.4C0.6,0.7,1.3-0.1,2.3,0c15.4,0,30.8,0,46.2,0c1.5-0.2,2.7,1.2,2.4,2.7c0,15.7,0,31.4,0,47.2
		c0.3,1.4-1,2.7-2.4,2.4c-15.3,0-30.6,0-45.9,0c-0.7-0.1-1.5,0.1-2-0.5c-1.1-0.9-0.6-2.4-0.7-3.7C0,32.6,0,17,0,1.4z M46.3,2.2
		c-2.1,0.4-1.9,4.2,0.3,4.2c1.3,0.1,2.7-1.1,2.3-2.4C49.1,2.6,47.4,1.8,46.3,2.2z M7.6,6c5.9,0.4,11.8,0,17.7,0.2
		c6-0.1,12,0.1,18-0.1c-0.6-0.2-1.2-0.3-1.9-0.3c-9.2,0.1-18.4,0-27.6,0C11.7,5.8,9.6,5.5,7.6,6z M6.4,8.3c0,11.6,0,23.2,0,34.9
		c0.4,0.5,0.9,1,1.3,1.5c9,0.1,17.9,0,26.9,0.1c1.6,0,3.1-0.3,4.7-0.2c1.8-0.1,3.9,0.8,5.3-0.8c0.1-0.7,0.3-1.5,0.4-2.2
		c0-11,0-22.1,0-33.1c-0.2-0.4-0.4-0.9-0.5-1.3c-0.8-0.4-1.7-0.7-2.6-0.6c-11.2,0-22.3,0-33.5,0C7.1,6.1,6.3,7.2,6.4,8.3z M8.2,45
		c2.4,0.5,4.9,0.2,7.3,0.3c7.1-0.1,14.2,0,21.2,0c2.2-0.1,4.4,0.4,6.5-0.3c-3-0.4-6-0.1-9-0.2c-4.9-0.1-9.9,0.1-14.8,0.1
		C15.6,44.6,11.9,44.8,8.2,45z M6.6,46.6c0.1,1.3,0.1,2.7,0.2,4c0.6,0,1.2-0.1,1.7-0.1c0.3,0,0.8,0.1,1,0.2c1.3,0.1,0.7-1.7,1-2.5
		l-0.1-0.2c0.7-0.1,0.2-1,0.3-1.5C9.4,46.6,8,46.7,6.6,46.6z M17.8,46.6c-0.2,1.3-0.2,2.7-0.1,4.1l0.2-0.1c1.5-0.1,3-0.2,4.5-0.1
		c-0.2-1-1-0.8-1.8-0.7c0.7-0.6,1.4-1.4,1.8-2.3c-0.5-0.1-1-0.2-1.5-0.3l0.3-0.5C20.1,46.6,18.9,46.6,17.8,46.6z M28.9,46.7
		c0.3,0.3,0.6,0.6,0.9,1c-0.3,0.6-0.6,1.2-0.8,1.8c0.4,0.2,0.8,0.3,1.2,0.4c0.1-0.5,0.2-1,0.4-1.5c0.1,0.9-0.3,2.1,0.9,2.4
		c0-0.4-0.1-1.1-0.1-1.5c0.7,0.2,1.3,0.4,2,0.6c-0.3-0.6-0.6-1.3-0.9-1.9c-0.7,0-1.4-0.1-2.1-0.1c0-0.1,0-0.2,0.1-0.2
		c1-0.1,2.3,0.1,3-0.9C31.9,46.6,30.4,46.7,28.9,46.7z M40.7,46.6c-0.1,0.6-0.4,1.2-0.4,1.8c0,0.8,0,1.5-0.1,2.3
		c1.1,0.1,2.2-0.4,3.3-0.2l0.3,0.8c0.4-0.5,0.4-1,0-1.5c0.4-0.2,0.7-0.4,1.1-0.5C44.7,49.1,44.2,49,44,49c0.1-0.7,0.1-1.5,0.2-2.2
		C43.1,46.7,41.9,46.6,40.7,46.6z"/>
</g>
<g>
	<path fill="#FDFEFC" d="M46.3,2.2c1.2-0.3,2.8,0.4,2.6,1.8c0.3,1.3-1.1,2.6-2.3,2.4C44.4,6.4,44.2,2.6,46.3,2.2z M46,2.4
		c0.2,0.3,0.6,1,0.9,1.3c-0.2,0.2-0.6,0.7-0.8,0.9c1,0,1.1-0.9,1.4-1.6l0.2,1c0.3-0.3,0.5-0.6,0.8-0.9C47.7,2.7,46.8,2.5,46,2.4z
		 M46.9,5.9c0.9,0,1.5-1,1.7-1.8c-0.3,0-0.8,0-1.1,0l0.4,0.7c-0.7,0-1.4,0-2.1,0c0.1-0.5,0.2-1.6,0.3-2.2
		C44.4,3.2,45.1,6.3,46.9,5.9z"/>
</g>
<path fill="#3EA031" d="M46,2.4c0.9,0.1,1.7,0.3,2.5,0.6c-0.3,0.3-0.5,0.6-0.8,0.9l-0.2-1C47.2,3.7,47,4.6,46,4.6
	c0.2-0.2,0.6-0.7,0.8-0.9C46.6,3.4,46.2,2.8,46,2.4z"/>
<path fill="#3EA031" d="M46.9,5.9c-1.8,0.4-2.5-2.7-0.9-3.4c-0.1,0.5-0.2,1.6-0.3,2.2c0.7,0,1.4,0,2.1,0L47.5,4c0.3,0,0.8,0,1.1,0
	C48.4,4.9,47.8,5.9,46.9,5.9z"/>
<path fill="#50923C" d="M7.6,6c2-0.5,4.1-0.2,6.1-0.3c9.2,0,18.4,0.1,27.6,0c0.6,0,1.3,0.1,1.9,0.3c-6,0.2-12,0-18,0.1
	C19.4,6,13.5,6.4,7.6,6z"/>
<g>
	<path fill="#EA010C" d="M6.4,8.3c-0.1-1.1,0.8-2.2,1.9-2c11.2,0,22.3,0,33.5,0c0.9-0.1,1.8,0.2,2.6,0.6c0.2,0.4,0.3,0.9,0.5,1.3
		c0,11,0,22.1,0,33.1c0,0.8-0.2,1.5-0.4,2.2c-1.4,1.6-3.5,0.8-5.3,0.8c-1.6-0.1-3.1,0.3-4.7,0.2c-9-0.1-17.9,0.1-26.9-0.1
		c-0.4-0.5-0.9-1-1.3-1.5C6.4,31.5,6.3,19.9,6.4,8.3z M15.1,9.5c-0.2,1.5-0.3,3-0.4,4.5c-0.1,0-0.2,0-0.2,0c0-0.4,0.1-1.2,0.1-1.7
		c-0.9,0-1.8,0-2.7,0.1c0.1-0.9,0.1-1.7,0.2-2.6c-0.8,0-1.5,0-2.3,0.1c-0.2,0-0.7,0.1-1,0.1c-0.3,1.9-0.2,3.8-0.1,5.7
		c0.3,0.3,0.5,0.7,0.8,1c-0.1,0.8-1.4,1.5-0.7,2.4c0.9,1.1,0.7,2.6,0.7,4c0.7,0.6,1.3,1.4,2.3,1.4c1.1,0.1,3.2,0.3,2.7-1.4
		c-0.7-1-1.1-2-1-3.2c0.3,0,0.8,0,1,0c0,1.5-0.2,3,0.2,4.4c0.7,0.3,1.4,0.3,2.1,0.3c1.5,0,0.9-1.9,1-2.9c0.2-0.1,0.7-0.2,0.9-0.2
		c0.2-0.2,0.5-0.5,0.7-0.7c0.5,0,0.6,0.7,0.9,1c0.2,0.1,0.7,0.3,1,0.4c-0.1,0.7-0.4,1.5-0.2,2.2c0.7,0.5,1.8,0.3,2.6-0.1
		c0.5-0.5,1-1.1,0.8-1.9c-0.1-2.1,0.2-4.2-0.3-6.2c-1.4-0.2-2.7-0.3-4.1-0.4c1-0.8,2.6-0.3,3.6-1.3c0.2-1.5,0.5-3.3-0.4-4.6
		C20.7,9,17.8,9.5,15.1,9.5z M26.2,11.2c0,3.3-0.1,6.5-0.2,9.8c0,0.9-0.2,2.1,0.6,2.7l0,0.1c0.1,0,0.4,0.1,0.6,0.1
		c0.7,1.1,2.1,0.6,3.1,0.7c4-0.1,8.1,0.3,12-0.6c0.6-1.5,0.3-3.2,0.3-4.8c-0.1-2.7,0.3-5.4-0.1-8.1c-0.1-1.2-1.4-1.8-2.5-1.7
		c-4-0.1-8,0-12,0C27.2,9.4,26.1,10.2,26.2,11.2z M10.5,29.1C10,30,9.1,30.7,9,31.7c0.7,0.1,1.4,0.1,2.1,0.2
		c0.1,2.7-0.2,5.5,0.1,8.2c0.8,1.7,3,0.8,4.4,1c0-0.3,0-0.9,0.1-1.2c-0.5-0.2-1.1-0.3-1.6-0.4c0-1.9,0-3.7,0-5.6c1.7,0,3.5,0,5.3,0
		c0,0.2,0,0.7,0,0.9c-1.6,0-3.2,0-4.7,0c0,0.3,0,0.9,0,1.2c0.6,0.4,1.1,0.8,1.7,1.1c1.2,1.3,2.6,2.3,3.9,3.5c1,1,2.6,0.6,3.9,0.6
		c-0.8-0.7-1.7-1.3-2.5-1.9c0.6-0.7,1.2-1.5,1.1-2.6c0-1.4,0.3-2.9,0.3-4.3c0.6-0.2,1.2-0.4,1.8-0.5c-1-1.6-1.9-3.4-3.2-4.8
		c-2.8-0.2-5.7,0-8.5-0.1C11.5,26.7,11.1,28.2,10.5,29.1z M26.6,26.9c0.3,0.9,0.5,1.7,0.9,2.6c-0.2,0.7-1.3,1.5-0.6,2.2
		c0.3,0.8,0.6,1.6,0.8,2.4l0.3,0c0,0.3,0.1,0.8,0.1,1.1c-0.5,2-1.1,4-1.6,6.1c1,0,2,0,3.1,0c0.3-1.3,0.6-2.6,1-3.8
		c0.6,0.7,1,1.6,1.3,2.5c0.3,0.7,1,1.4,1.8,1.4c2.8,0.1,5.6,0,8.4,0c0-0.6,0-1.2,0-1.8c-2.5-0.1-5,0.3-7.4-0.2
		c-0.2-3.5,0-6.9,0-10.4c2.4-0.1,4.9,0.1,7.3-0.1c0-0.5,0-1.1,0-1.6c-2.3-0.3-4.7-0.1-7-0.2c-1.2,0-2.7,0.1-3.1,1.4l-0.4,0
		c-0.1,0.1-0.3,0.4-0.4,0.6c-0.4-0.2-0.7-0.4-1-0.6C29.8,26.5,27.9,26.8,26.6,26.9z"/>
</g>
<g>
	<path fill="#DF0406" d="M15.1,9.5c2.7,0,5.6-0.6,8.3,0.3c-2.7,0.1-5.3,0-8,0.1c0,1.6-0.2,3.2,0.1,4.7c0.8,0.6,1.9,0.6,2.8,0.8
		c0-1.4-0.1-2.8-0.1-4.2c1,0,1.9,0,2.9,0c0,0.8,0,1.6,0,2.4c-0.6,0-1.2,0.1-1.7,0.1c0.5-0.3,0.9-0.5,1.4-0.8c0-0.4,0.1-0.8,0.1-1.2
		c-0.8,0-1.5,0-2.3,0c0,0.8,0,1.7,0,2.5c0,0.5,0,1,0,1.5C17.4,15.9,16.2,16,15,16c-0.3,2.7-0.1,5.3-0.1,8c0.8,0,1.7,0,2.5,0.1
		c0-0.9,0-1.8,0-2.8c0.5,0,1-0.1,1.5-0.1c0.2-0.6,0.5-1.1,0.8-1.7c0.2,0.6,0.4,1.1,0.6,1.7c0.6,0,1.2,0.1,1.8,0.1
		c-0.1,0.4-0.1,0.8-0.2,1.3c-0.5,0.4-0.6,0.8-0.4,1.3c0.7,0.4,1.5,0.2,2.2,0.3c-0.8,0.4-1.9,0.6-2.6,0.1c-0.2-0.8,0.1-1.5,0.2-2.2
		c-0.2-0.1-0.7-0.3-1-0.4c-0.3-0.3-0.4-1-0.9-1c-0.2,0.2-0.5,0.5-0.7,0.7c-0.2,0.1-0.7,0.2-0.9,0.2c-0.2,1,0.5,2.9-1,2.9
		c-0.7,0.1-1.4,0-2.1-0.3c-0.4-1.5-0.2-3-0.2-4.4c-0.3,0-0.8,0-1,0c-0.1,1.2,0.3,2.3,1,3.2c0.4,1.7-1.6,1.5-2.7,1.4
		c-1,0.1-1.6-0.8-2.3-1.4c0-1.4,0.3-2.9-0.7-4c-0.7-0.9,0.6-1.5,0.7-2.4c-0.3-0.4-0.5-0.7-0.8-1c-0.1-1.9-0.2-3.8,0.1-5.7
		c0.2,0,0.7-0.1,1-0.1c-0.2,0.2-0.6,0.6-0.8,0.7c0,1.1,0,2.2,0,3.4c1.9,0,3.7,0,5.6,0c0.1,0,0.2,0,0.2,0C14.7,12.5,14.9,11,15.1,9.5
		z M8.9,14.7c0,0.3,0,1,0,1.3c0.3,0,0.9,0.1,1.2,0.1c0,0.6,0,1.2,0,1.7c-0.3,0-0.9,0.1-1.2,0.1c0,0.4,0,1.1,0,1.5c0.3,0,0.8,0,1,0
		c0,1.2,0,2.5,0,3.7c0.3,0.3,0.6,0.6,0.8,0.9c1.1,0.1,2.2,0.1,3.3,0.1c0-0.4,0-1.1,0.1-1.5c-0.3,0-1-0.1-1.3-0.1c0-1,0-2.1,0-3.1
		c0.5,0,1,0,1.6,0c0-0.4,0-1.1,0-1.5c-0.4,0-1.2,0-1.6,0c0.1-0.6,0.2-1.2,0.3-1.8c0.3,0,1,0,1.3,0c0-0.5,0.1-0.9,0.1-1.4
		C12.6,14.7,10.7,14.7,8.9,14.7z"/>
</g>
<g>
	<path fill="#BE0911" d="M26.2,11.2c-0.1-1.1,1-1.9,2-1.8c4,0.1,8,0,12,0c1.1-0.1,2.3,0.5,2.5,1.7c0.4,2.7,0,5.4,0.1,8.1
		c-0.1,1.6,0.3,3.3-0.3,4.8c-3.9,0.9-8,0.4-12,0.6c-1.1-0.1-2.4,0.4-3.1-0.7c3.8,0.4,7.7,0.1,11.5,0.2c0-0.3,0-1,0-1.3
		c-3.1-0.1-6.3,0.2-9.4-0.2c-0.1-3.8,0-7.5,0-11.2c3.4,0.1,6.9-0.4,10.3,0c0,4.3,0,8.5,0,12.8c0.8-0.1,1.8,0.1,2.5-0.4
		c0.5-1.6,0.2-3.3,0.3-4.9c-0.1-2.9,0.2-5.8-0.3-8.7c-2.3-0.5-4.7-0.2-7-0.3c-2.4,0.1-4.8-0.1-7.2,0c-1.1,0.1-1.2,1.3-1.2,2.1
		c0.1,3.9-0.1,7.8,0.1,11.7C25.8,23,26.1,21.9,26,21C26.1,17.7,26.1,14.5,26.2,11.2z M33.5,11.8c-0.1,0.2-0.4,0.7-0.6,1
		c-0.7-0.4-1.3-1.1-2.2-0.8c-0.4,0.6-0.6,1.4-0.9,2.1c0.8,0,1.5,0.1,2.3,0.1c-0.4,1.4-2.9-0.1-2.5,1.7c0.4,0.3,0.8,0.6,1.2,0.9
		c-0.7,0.2-1.2,0.6-1.4,1.3c0.3,0,0.8,0.1,1,0.2c-1.7,0.5-0.7,2.7-0.7,4c0.2-0.1,0.6-0.2,0.7-0.3c2.7,0,5.4,0,8.1,0c0-0.3,0-1,0-1.3
		c-1.9,0-3.8,0-5.7,0c0-0.8,0-1.6,0-2.4c1.1,0,2.1,0,3.2,0c0,0.2-0.1,0.6-0.2,0.7c-0.8,0.1-1.6,0.1-2.3,0.1c0.1,0.3,0.3,0.8,0.4,1.1
		c1.4,0.1,2.8,0,4.3-0.3c0.2-0.8,0.4-1.7,0.9-2.4c-0.4-0.3-0.8-0.5-1.2-0.8c0.2-0.5,0.6-0.7,1.1-0.7c-0.1-0.4-0.1-0.8-0.1-1.2
		c-1.4-0.1-2.8,0-4.2-0.1c-0.2-0.2-0.4-0.4-0.5-0.7c1.6,0,3.2,0,4.8-0.1c-0.2-0.7-0.5-1.4-0.7-2.1c-0.6,0-1.1,0.1-1.7,0.1
		c-0.3,0.2-0.8,0.6-1,0.9c0-0.3-0.1-0.8-0.1-1.1C34.9,11.8,34.2,11.8,33.5,11.8z"/>
</g>
<path fill="#FCFEFC" d="M9.7,9.9c0.8-0.1,1.5-0.1,2.3-0.1c-0.1,0.9-0.1,1.7-0.2,2.6c0.9,0,1.8,0,2.7-0.1c0,0.4-0.1,1.2-0.1,1.7
	c-1.9,0-3.7,0-5.6,0c0-1.1,0-2.2,0-3.4C9.1,10.5,9.5,10.1,9.7,9.9z"/>
<g>
	<path fill="#FDFEFD" d="M15.3,9.9c2.7,0,5.3,0,8-0.1c0.9,1.4,0.6,3.1,0.4,4.6c-0.9,1-2.5,0.5-3.6,1.3c1.4,0.1,2.7,0.2,4.1,0.4
		c0.5,2,0.2,4.1,0.3,6.2c0.1,0.8-0.4,1.4-0.8,1.9c-0.7-0.1-1.5,0.1-2.2-0.3c-0.2-0.5-0.1-0.9,0.4-1.3c0.1-0.4,0.1-0.8,0.2-1.3
		c-0.6,0-1.2-0.1-1.8-0.1c-0.2-0.6-0.4-1.1-0.6-1.7c-0.3,0.6-0.5,1.1-0.8,1.7c-0.5,0-1,0.1-1.5,0.1c0,0.9,0,1.8,0,2.8
		c-0.8,0-1.7,0-2.5-0.1c0-2.7-0.2-5.4,0.1-8c1.2,0,2.4-0.1,3.7-0.2c0-0.5,0-1,0-1.5c0.2-0.1,0.6-0.4,0.8-0.6
		c0.6-0.1,1.1-0.1,1.7-0.1c0-0.8,0-1.6,0-2.4c-1,0-2,0-2.9,0c0,1.4,0,2.8,0.1,4.2c-0.9-0.2-2-0.2-2.8-0.8
		C15.1,13.1,15.4,11.5,15.3,9.9z M17.3,19.9c0.6-0.8,0.5-1.9,0.7-2.8C16.8,17.5,17.4,19,17.3,19.9z M19.9,17.3c0,0.2,0,0.7,0,0.9
		c0.6,0,1.1,0,1.7,0c0,0.4,0.1,1.1,0.1,1.4c0.1,0,0.3,0,0.4,0c0-0.8,0-1.5,0-2.3C21.3,17.3,20.6,17.3,19.9,17.3z"/>
</g>
<path fill="#FEFEFD" d="M26.6,12.1c0-0.9,0-2.1,1.2-2.1c2.4-0.2,4.8,0,7.2,0c2.3,0.1,4.7-0.2,7,0.3c0.5,2.9,0.2,5.8,0.3,8.7
	c-0.1,1.6,0.2,3.3-0.3,4.9c-0.7,0.5-1.7,0.3-2.5,0.4c0.1-4.3,0.1-8.5,0-12.8c-3.4-0.4-6.9,0.1-10.3,0c0,3.7,0,7.5,0,11.2
	c3.1,0.4,6.3,0.1,9.4,0.2c0,0.3,0,1,0,1.3c-3.8-0.1-7.7,0.3-11.5-0.2c-0.1,0-0.4-0.1-0.6-0.1l0-0.1C26.6,19.8,26.7,16,26.6,12.1z"/>
<path fill="#E70103" d="M18.6,11.8c0.8,0,1.5,0,2.3,0c0,0.4-0.1,0.8-0.1,1.2c-0.5,0.3-1,0.5-1.4,0.8c-0.2,0.1-0.6,0.4-0.8,0.6
	C18.6,13.5,18.6,12.6,18.6,11.8z"/>
<g>
	<path fill="#FBFEFE" d="M33.5,11.8c0.7,0,1.4,0,2.1,0c0,0.3,0.1,0.8,0.1,1.1c0.3-0.2,0.8-0.6,1-0.9c0.6,0,1.1-0.1,1.7-0.1
		c0.2,0.7,0.4,1.4,0.7,2.1c-1.6,0.1-3.2,0.1-4.8,0.1c0.2,0.2,0.3,0.5,0.5,0.7c1.4,0.1,2.8,0,4.2,0.1c0,0.4,0.1,0.8,0.1,1.2
		c-0.6,0-1,0.2-1.1,0.7c0.4,0.3,0.8,0.5,1.2,0.8c-0.5,0.7-0.7,1.6-0.9,2.4c-1.4,0.2-2.8,0.4-4.3,0.3c-0.1-0.3-0.3-0.8-0.4-1.1
		c0.8-0.1,1.6-0.1,2.3-0.1c0-0.2,0.1-0.6,0.2-0.7c-1.1,0-2.1,0-3.2,0c0,0.8,0,1.6,0,2.4c1.9,0,3.8,0,5.7,0c0,0.3,0,1,0,1.3
		c-2.7,0.1-5.4,0-8.1,0c0-1.2,0-2.5-0.1-3.7c-0.3-0.1-0.8-0.1-1-0.2c0.2-0.7,0.6-1.1,1.4-1.3c-0.4-0.3-0.8-0.6-1.2-0.9
		c-0.4-1.9,2.1-0.4,2.5-1.7c-0.8-0.1-1.5-0.1-2.3-0.1c0.2-0.7,0.5-1.4,0.9-2.1c0.9-0.3,1.5,0.4,2.2,0.8C33.1,12.5,33.4,12,33.5,11.8
		z M32.8,16.8c1,0.2,2,0.2,3,0.2c0-0.2-0.1-0.6-0.2-0.8C34.6,16.2,33.4,15.9,32.8,16.8z"/>
</g>
<path fill="#FDFEFD" d="M8.9,14.7c1.9,0,3.8,0,5.7,0c-0.1,0.5-0.1,0.9-0.1,1.4c-0.3,0-1,0-1.3,0c-0.1,0.6-0.2,1.2-0.3,1.8
	c0.4,0,1.2,0,1.6,0c0,0.4,0,1.1,0,1.5c-0.5,0-1,0-1.6,0c0,1,0,2.1,0,3.1c0.3,0,1,0.1,1.3,0.1c0,0.4,0,1.1-0.1,1.5
	c-1.1,0-2.2,0-3.3-0.1c-0.3-0.3-0.6-0.6-0.8-0.9c0-1.2,0-2.5,0-3.7c-0.3,0-0.8,0-1,0c0-0.4,0-1.1,0-1.5c0.3,0,0.9-0.1,1.2-0.1
	c0-0.6,0-1.2,0-1.7c-0.3,0-0.9-0.1-1.2-0.1C8.8,15.7,8.9,15,8.9,14.7z"/>
<path fill="#C10B12" d="M32.8,16.8c0.7-0.9,1.8-0.6,2.8-0.6c0,0.2,0.1,0.6,0.2,0.8C34.7,17,33.7,17,32.8,16.8z"/>
<path fill="#972721" d="M17.3,19.9c0.1-0.9-0.5-2.4,0.7-2.8C17.9,18,17.9,19.1,17.3,19.9z"/>
<path fill="#BD0B12" d="M19.9,17.3c0.7,0,1.4,0,2.1,0c0,0.8,0,1.5,0,2.3c-0.1,0-0.3,0-0.4,0c0-0.4-0.1-1.1-0.1-1.4
	c-0.6,0-1.1,0-1.7,0C19.9,18,19.9,17.6,19.9,17.3z"/>
<path fill="#D80618" d="M29.9,22.3c-0.1-1.3-1-3.5,0.7-4c0.1,1.2,0.1,2.5,0.1,3.7C30.4,22.1,30,22.2,29.9,22.3z"/>
<g>
	<path fill="#FDFEFD" d="M10.5,29.1c0.7-0.9,1.1-2.4,2.5-2.2c2.8,0,5.7-0.2,8.5,0.1c1.3,1.4,2.2,3.2,3.2,4.8c-0.8,0-1.6,0-2.5,0.1
		c0,1.3,0,2.6,0,3.8c-2.5,0.6-5.1,0.2-7.7,0.3c0-0.3,0-0.9,0-1.2c1.6,0,3.2,0,4.7,0c0-0.2,0-0.7,0-0.9c-1.8,0-3.5,0-5.3,0
		c0,1.9,0,3.7,0,5.6c0.5,0.1,1.1,0.3,1.6,0.4c0,0.3,0,0.9-0.1,1.2c-1.5-0.1-3.6,0.7-4.4-1c-0.2-2.7,0-5.5-0.1-8.2
		c-0.7,0-1.4,0-2.1-0.2C9.1,30.7,10,30,10.5,29.1z M13.3,28.8l0.1,0l-0.2,0.6c-0.3,0.4-0.5,0.8-0.7,1.2c0.8,0,1.6,0,2.5,0
		c0.7-1.3,2.8-1.4,3.4,0.1c0.8,0,1.7,0,2.5-0.1c-0.3-0.4-0.5-0.7-0.8-1.1L20.1,29l-0.1-0.2C17.7,28.8,15.5,28.7,13.3,28.8z M14,31.8
		c0,0.2,0,0.6,0,0.8c1.8,0,3.6,0,5.4,0c0-0.2,0-0.6,0-0.9C17.7,31.8,15.8,31.9,14,31.8z"/>
</g>
<path fill="#FEFEFD" d="M26.6,26.9c1.3,0,3.2-0.3,3.5,1.4c0.2,0.7,0.5,1.3,0.7,2c-1,0-1.9,0-2.9,0c-0.1-0.2-0.3-0.6-0.4-0.8
	C27.1,28.6,26.8,27.7,26.6,26.9z"/>
<path fill="#FEFEFD" d="M31.9,28.3c0.5-1.3,2-1.4,3.1-1.4c2.3,0.1,4.7-0.1,7,0.2c0,0.5,0,1.1,0,1.6c-2.4,0.2-4.9,0.1-7.3,0.1
	c0,3.5-0.1,6.9,0,10.4c2.4,0.4,4.9,0.1,7.4,0.2c0,0.6,0,1.2,0,1.8c-2.8,0-5.6,0-8.4,0c-0.8,0-1.5-0.7-1.8-1.4
	C31.6,35.9,31.8,32.1,31.9,28.3z"/>
<path fill="#DD0207" d="M30,28.2c0.3,0.2,0.7,0.4,1,0.6c0.1-0.1,0.3-0.4,0.4-0.6c0,2.2,0,4.3-0.1,6.5c-0.2-0.2-0.5-0.5-0.6-0.7
	c-0.4-1-0.7-2.1-1.1-3.2c-0.8,0-1.6,0-2.4-0.1c-0.1,0.2-0.3,0.5-0.4,0.7c-0.7-0.6,0.4-1.5,0.6-2.2c0.1,0.2,0.3,0.6,0.4,0.8
	c1,0,1.9,0,2.9,0C30.5,29.6,30.3,28.9,30,28.2z"/>
<path fill="#AC1F22" d="M31.5,28.3l0.4,0c-0.1,3.8-0.2,7.7,0,11.5c-0.3-0.9-0.7-1.8-1.3-2.5c0.2-0.7,0.4-1.5,0.6-2.2
	c-1,0-2.1,0-3.1,0c0-0.3-0.1-0.8-0.1-1.1c0.9,0,1.8,0.1,2.8,0.2c0.2,0.2,0.5,0.5,0.6,0.7C31.5,32.6,31.5,30.5,31.5,28.3z"/>
<path fill="#8B131C" d="M13.3,28.8c2.2-0.1,4.4-0.1,6.6,0l0.1,0.2c-2.2,0.4-4.4,0.3-6.6-0.1L13.3,28.8z"/>
<path fill="#E8030B" d="M13.5,28.9c2.2,0.4,4.4,0.5,6.6,0.1l0.1,0.6l0,0.5c-0.1,0.1-0.3,0.2-0.4,0.3c-0.6,0.1-1-0.2-1.1-0.9
	c-1.2,0-2.5-0.1-3.7,0c-0.1,1-1.1,0.8-1.8,0.9c0.1-0.2,0.2-0.7,0.2-0.9L13.5,28.9z"/>
<path fill="#AD2727" d="M12.5,30.7c0.2-0.4,0.5-0.8,0.7-1.2c-0.1,0.2-0.2,0.7-0.2,0.9c0.7-0.1,1.7,0.2,1.8-0.9
	c1.2-0.1,2.5-0.1,3.7,0c0.1,0.7,0.5,1,1.1,0.9c0.1-0.1,0.3-0.2,0.4-0.3l0-0.5c0.3,0.4,0.5,0.7,0.8,1.1c-0.8,0.1-1.7,0.1-2.5,0.1
	c-0.6-1.5-2.7-1.4-3.4-0.1C14.2,30.7,13.4,30.7,12.5,30.7z"/>
<path fill="#FDFDFE" d="M26.9,31.6c0.1-0.2,0.3-0.5,0.4-0.7c0.8,0,1.6,0,2.4,0.1c0.4,1.1,0.7,2.1,1.1,3.2C29.8,34,28.9,34,28,34
	l-0.3,0C27.4,33.2,27.2,32.4,26.9,31.6z"/>
<path fill="#BA0A0F" d="M14,31.8c1.8,0,3.6,0,5.4,0c0,0.2,0,0.6,0,0.9c-1.8,0-3.6,0-5.4,0C14,32.5,14,32.1,14,31.8z"/>
<path fill="#CF050F" d="M22.2,31.8c0.8,0,1.6,0,2.5-0.1c-0.6,0.2-1.2,0.4-1.8,0.5c0,1.4-0.3,2.9-0.3,4.3c-0.6,0-1.1,0-1.7,0
	c-0.5,0.3-1,0.6-1.5,0.8c-0.5-0.2-0.9-0.5-1.4-0.8c-0.7,0-1.4-0.1-2.1-0.1l0.3,0.5c-0.6-0.4-1.2-0.7-1.7-1.1
	c2.6-0.1,5.2,0.3,7.7-0.3C22.2,34.4,22.2,33.1,22.2,31.8z"/>
<path fill="#FCFEFD" d="M28.1,35.1c1,0,2,0,3.1,0c-0.2,0.7-0.4,1.5-0.6,2.2c-0.4,1.3-0.7,2.5-1,3.8c-1,0-2.1,0-3.1,0
	C27,39.1,27.6,37.1,28.1,35.1z"/>
<path fill="#FCFEFD" d="M15.9,36.6c0.7,0,1.4,0,2.1,0.1c0.4,0.3,0.9,0.6,1.4,0.8c0.5-0.2,1-0.5,1.5-0.8c0.6,0,1.1,0,1.7,0
	c0.1,1-0.5,1.8-1.1,2.6c0.9,0.6,1.7,1.2,2.5,1.9c-1.3,0.1-2.8,0.4-3.9-0.6c-1.3-1.1-2.7-2.2-3.9-3.5L15.9,36.6z"/>
<path fill="#618632" d="M8.2,45c3.7-0.2,7.4-0.3,11.1-0.1c4.9,0,9.9-0.2,14.8-0.1c3,0.1,6-0.2,9,0.2c-2.1,0.7-4.3,0.2-6.5,0.3
	c-7.1,0.1-14.2-0.1-21.2,0C13,45.2,10.6,45.4,8.2,45z"/>
<path fill="#BDE9CC" d="M6.6,46.6c1.4,0,2.8,0,4.1-0.1c0,0.5,0.5,1.4-0.3,1.5c-0.1-0.3-0.3-0.9-0.4-1.2c-1.1,0-2.2,0-3.3,0
	c0,1,0.1,1.9,0.1,2.9c0.2-0.2,0.5-0.6,0.7-0.7c0.3-0.5,0.3-1,0.1-1.5c0.3,0.6,0.5,1.2,0.8,1.8c0,0.4-0.1,0.8-0.1,1.3
	c-0.6,0-1.2,0.1-1.7,0.1C6.8,49.3,6.7,48,6.6,46.6z"/>
<path fill="#B0D4B0" d="M17.8,46.6c1.2,0,2.3,0,3.5,0l-0.3,0.5c-0.1,0-0.3,0-0.4,0c-1-0.2-1.9-0.3-2.8,0.3c0.3,0,0.9,0.1,1.2,0.1
	c0,0.9,0,1.8,0,2.7c-0.3,0.1-0.8,0.3-1.1,0.4l-0.2,0.1C17.6,49.3,17.6,48,17.8,46.6z"/>
<g>
	<path fill="#FDFEFC" d="M28.9,46.7c1.5,0,3-0.1,4.5,0.1c-0.7,1-1.9,0.7-3,0.9c0,0.1,0,0.2-0.1,0.2c0.7,0,1.4,0,2.1,0.1
		c0.3,0.6,0.6,1.3,0.9,1.9c-0.7-0.2-1.3-0.4-2-0.6c0,0.4,0.1,1.1,0.1,1.5c-1.2-0.2-0.8-1.5-0.9-2.4c-0.1,0.5-0.3,1-0.4,1.5
		c-0.4-0.1-0.8-0.3-1.2-0.4c0.2-0.6,0.5-1.2,0.8-1.8C29.5,47.3,29.2,47,28.9,46.7z M31.8,48.8"/>
</g>
<g>
	<path fill="#FBFEFE" d="M40.7,46.6c1.2,0,2.4,0,3.5,0.1c-0.1,0.7-0.2,1.4-0.2,2.2c0.2,0.1,0.7,0.2,0.9,0.2
		c-0.4,0.2-0.7,0.4-1.1,0.5c0.4,0.5,0.4,1,0,1.5l-0.3-0.8c-0.3-0.7-0.5-1.4-0.7-2.1c-0.3,0.5-0.6,1-0.8,1.5
		c-0.3-0.4-0.6-0.8-0.9-1.2c-0.1,0.5-0.2,1.5-0.3,1.9c-0.2-0.7-0.4-1.5-0.5-2.2C40.3,47.8,40.6,47.2,40.7,46.6z M41.1,47.4
		c-0.5,0.4,0.1,1.4,0.7,1C42.2,48,41.6,47,41.1,47.4z M42.7,47.5"/>
</g>
<path fill="#DFF7E6" d="M6.9,46.8c1.1,0,2.2,0,3.3,0c0.1,0.3,0.3,0.9,0.4,1.2l0.1,0.2c-0.3,0.8,0.3,2.6-1,2.5
	C9.4,49.5,9.8,48,8.9,47c-0.1,0.8-0.2,1.5-0.2,2.3c-0.3-0.6-0.5-1.2-0.8-1.8c-0.8-0.1-0.5,1.2-0.1,1.5c-0.2,0.2-0.5,0.6-0.7,0.7
	C7,48.8,6.9,47.8,6.9,46.8z"/>
<g>
	<path fill="#FDFEFC" d="M17.8,47.4c0.9-0.5,1.8-0.4,2.8-0.3c0.1,0,0.3,0,0.4,0c0.5,0.1,1,0.2,1.5,0.3c-0.5,0.9-1.1,1.7-1.8,2.3
		c0.7,0,1.6-0.2,1.8,0.7c-1.5-0.1-3,0-4.5,0.1c0.3-0.1,0.8-0.3,1.1-0.4c0-0.9,0-1.8,0-2.7C18.7,47.5,18.1,47.4,17.8,47.4z
		 M19.5,48.9c0.6,0,0.6-1,0.3-1.3C19.2,47.6,19.1,48.6,19.5,48.9z M20.2,48.2c-0.2,0.6-0.1,0.8,0.5,0.6C21,48.2,20.8,48,20.2,48.2z
		 M19.5,49.5"/>
</g>
<path fill="#79AD89" d="M7.7,49c-0.4-0.3-0.7-1.6,0.1-1.5C8.1,48,8.1,48.5,7.7,49z"/>
<path fill="#5CAA6C" d="M8.9,47c0.9,1,0.5,2.5,0.7,3.7c-0.3,0-0.8-0.1-1-0.2c0-0.4,0.1-0.8,0.1-1.3C8.7,48.5,8.8,47.8,8.9,47z"/>
<path fill="#3EA031" d="M19.5,48.9c-0.4-0.3-0.3-1.3,0.3-1.3C20.1,47.9,20.1,48.9,19.5,48.9z"/>
<path fill="#A1D7A6" d="M41.1,47.4c0.6-0.4,1.2,0.6,0.7,1C41.2,48.8,40.6,47.8,41.1,47.4z"/>
<path fill="#7C9C73" d="M42.7,47.5"/>
<path fill="#3E9F30" d="M20.2,48.2c0.6-0.2,0.8,0,0.5,0.6C20.2,49,20,48.8,20.2,48.2z"/>
<path fill="#4E8C61" d="M31.8,48.8"/>
<path fill="#90CA9D" d="M40.3,48.5c0.1,0.7,0.3,1.5,0.5,2.2c0.1-0.5,0.2-1.5,0.3-1.9c0.3,0.4,0.6,0.8,0.9,1.2c0.3-0.5,0.5-1,0.8-1.5
	c0.2,0.7,0.5,1.4,0.7,2.1c-1.1-0.2-2.2,0.3-3.3,0.2C40.3,50,40.3,49.2,40.3,48.5z"/>
<path fill="#588D68" d="M19.5,49.5"/>
</svg>
