<?xml version="1.0" encoding="utf-8"?>
<!-- Generator: Adobe Illustrator 18.1.1, SVG Export Plug-In . SVG Version: 6.00 Build 0)  -->
<svg version="1.1" id="图层_1" xmlns="http://www.w3.org/2000/svg" xmlns:xlink="http://www.w3.org/1999/xlink" x="0px" y="0px"
	 viewBox="0 0 85.1 34" enable-background="new 0 0 85.1 34" xml:space="preserve">
<path fill="#3F9F30" d="M56.2,0.1c1.6,0,3.3,0,4.9,0c0,0.3,0,0.8,0,1c0.9,0,1.7,0.1,2.6,0.1c0,0.9,0,1.7,0,2.6c-1,0-2,0.1-3,0.2
	c0.8,0.8,2,0.6,3,0.8c0.2,1.4-0.5,2.8-2,2.8c0.8,0.8,1.5,1.5,2.1,2.4c-1.5,0-3,0.2-4.4-0.1c-0.8-0.6-0.9-1.6-1.2-2.5
	c-0.5,0.8-0.7,1.8-1.3,2.4c-1.5,0.2-2.9,0-4.4,0c0.1-0.4,0.2-1.1,0.2-1.5c0.4-0.3,0.8-0.6,1.2-0.9c-0.4-0.1-1.1-0.2-1.4-0.3
	c0-0.9,0-1.7,0-2.6c1.2-0.2,2.8,0.5,3.7-0.7c-1.2-0.1-2.4-0.1-3.6-0.1c0-1.3,0-2.5,0-3.8c0.9,0,1.9,0,2.8,0c0,0.3,0,0.8,0,1.1
	c0.1,0,0.4,0,0.6,0C56.1,0.9,56.2,0.4,56.2,0.1z"/>
<path fill="#3EA030" d="M67.9,0.1c1.7,0,3.5,0,5.2,0c0,0.3-0.1,0.8-0.1,1c0.9,0.1,1.9,0.2,2.8,0.2c-0.1,0.8,0.1,1.6-0.2,2.3
	c-0.9,0.3-2,0.1-2.9,0.3c0.8,0.8,2.1,0.6,3.2,0.8c0,0.8,0,1.6,0,2.4c-0.5,0.1-0.9,0.3-1.4,0.4c0.5,0.2,0.9,0.4,1.4,0.6
	c0,0.4,0,1.3,0,1.7c-1.6-0.1-3.2,0.2-4.8-0.2c-0.6-0.8-0.9-1.7-1.2-2.5c-0.3,0.9-0.4,2.1-1.3,2.6c-1.3,0.3-2.7,0.1-4.1,0.1
	c0.5-0.8,1.1-1.6,1.5-2.5c-1.3-0.3-1.8-1.4-1.6-2.7c1.1-0.1,2.3-0.1,3.3-0.8c-1.1-0.1-2.2-0.2-3.3-0.2c0-1.2,0-2.5,0.1-3.7
	c1,0,1.9,0,2.9,0c0,0.6,0.2,1,0.6,1.3C67.9,1.1,67.9,0.5,67.9,0.1z"/>
<g>
	<path fill="#3F9F30" d="M80.1,0.2c2.6-0.9,5.6,1.7,4.8,4.5c-0.3,2.8-4.3,4.2-6.3,2.1C76.5,4.9,77.4,1,80.1,0.2z M80.4,0.9
		c-2.3,0.6-2.9,3.8-1.2,5.3c1.4,1.5,4.2,0.7,4.9-1.2C85.1,2.8,82.8,0.1,80.4,0.9z"/>
</g>
<path fill="#3EA031" d="M0,0.4c4.1,0.5,8.3,0.2,12.4,0.3c3.8-0.1,7.7,0.3,11.5-0.3c-0.1,1.9,0.2,3.9-0.2,5.8c-0.5-0.3-1-0.8-1.6-0.8
	c-2.1-0.1-4.1,0-6.2,0c0,1.1,0,2.1,0,3.2c2.2-0.1,4.6,0.3,6.8-0.6c0,2,0,3.9,0,5.9c-2.1-1.1-4.5-0.5-6.8-0.6c0,1,0,2,0,3.1
	c2.2,0,4.5,0,6.7,0c0.4-0.3,0.8-0.6,1.1-0.9c0,2,0,4.1,0,6.1c-1.7-0.7-3.6-0.5-5.5-0.5c-5.1,0-10.2,0-15.3,0C2,20.9,1,21.2,0,21.4
	c0-2,0-4,0-6c0.4,0.3,0.9,0.6,1.3,0.9c2.2,0,4.4,0,6.5,0c0-1,0-2,0-3c-2.2,0-4.7-0.4-6.7,0.7c0-2.1,0-4.1,0.1-6.2
	C2.9,8.9,5,8.4,7,8.5c1.5,0.3,0.8-1.6,1-2.4C8.3,6.1,9.1,6,9.5,6C9.1,5.8,8.7,5.4,8.2,5.4c-2-0.1-4,0-6,0C1.6,5.3,1,5.6,0.5,6
	C0.4,6,0.2,6.1,0,6.2C0,4.3,0,2.3,0,0.4z"/>
<path fill="#3EA031" d="M32.6,0.8c3.6,0,7.1,0,10.7,0c-0.5,0.6-1.1,1.2-1,2.1c-0.1,4.4,0,8.8,0,13.2c0.1,2.2-1.5,4.3-3.6,4.8
	C37,21.2,35.2,21,33.5,21c-0.3-0.7-0.6-1.3-0.9-2c1.3-0.6,1.2-2.2,1.2-3.4c0-4.3,0-8.5,0-12.8C34,2,33.2,1.4,32.6,0.8z"/>
<g>
	<path fill="#3F9F30" d="M79.7,1.8c0.9,0.1,1.9-0.2,2.7,0.2c0.7,0.6,0.1,1.5,0,2.2c0,0.6,0.3,1.2,0.4,1.8c-1.1-0.1-1.2-1.4-2.2-1.8
		c-0.1,0.8,0.2,1.8-0.9,2C79.6,4.7,79.6,3.2,79.7,1.8z M80.5,2.5c0,0.3,0,0.8,0.1,1.1c0.4,0,0.9-0.1,1.4-0.1
		C81.9,2.7,81.2,2.5,80.5,2.5z"/>
</g>
<path fill="#3EA031" d="M25.7,4.2c2.2,0,4.4,0,6.6,0c0,3.9,0,7.9,0,11.8c0,1.1-0.6,2.4-1.8,2.7c-1.6,0.2-3.2,0.1-4.8,0.1
	c0.4-0.7,0.7-1.5,0.7-2.3c0-3.4,0-6.8,0-10.2C26.4,5.5,26.1,4.8,25.7,4.2z"/>
<path fill="#3E9F30" d="M43.9,4.3c2.2,0,4.4,0,6.7,0c-1.4,1.8-0.6,4.2-0.7,6.2c0.1,2.8-0.8,5.8,0.7,8.3c-1.5,0-3.1,0.1-4.6-0.1
	c-1.2-0.2-2.1-1.4-2.1-2.6C43.6,12.2,43.9,8.2,43.9,4.3z"/>
<g>
	<path fill="#3E9F2F" d="M52.4,10.4c4.4,0.4,8.7,0.1,13.1,0.2c3.5,0.1,7,0,10.5-0.2c-1.2,2.1-0.2,4.6-1,6.8c-1.4,0-2.7-0.1-4.1,0
		c1.4,0.5,3,0.5,4.5,0.8c0,1.2,0,2.3,0,3.5c-3.8-0.1-7.8-0.4-11.1-2.5c-3.4,2-7.4,2.4-11.3,2.5c0-1.2-0.1-2.4-0.1-3.5
		c1.6-0.2,3.2-0.3,4.7-0.9c-1.5-0.3-3.4,0.6-4.6-0.4C52.8,14.6,53.2,12.4,52.4,10.4z M59.2,14c0,1,0,1.9,0,2.9
		c1-0.5,2.4-1.1,2.2-2.4c1.8,0,3.6,0,5.4,0c-0.3,1.5,1.1,1.9,2.2,2.4c-0.2-0.9,0.4-2.4-0.5-2.9C65.5,14.1,62.3,14,59.2,14z"/>
</g>
<path fill="#3F9B2F" d="M34.7,24.6c0.5,0,0.9,0.1,1.4,0.1c-0.1,0.4-0.2,1.1-0.3,1.4c0.9,0,1.8,0,2.7,0c0-0.3,0.1-1,0.1-1.4
	c0.4,0,1.2,0,1.6,0c-0.1,0.4-0.2,1.1-0.2,1.4c1,0,2.1,0,3.1,0c0,0.4,0,0.8,0.1,1.2c-0.5,0.1-1,0.2-1.5,0.3c-0.1,1.7,0.2,3.3-0.1,5
	c-0.4,1.4-2.2,1-3.3,1c0-0.4,0-0.8,0-1.2c0.6-0.1,1.3,0.1,1.8-0.3c0.1-1.5,0.1-3.1,0.1-4.6c-0.5,0-0.9,0-1.4,0.1c0,0.3,0,1,0,1.3
	c-0.4,0-1.2,0-1.6,0c0-0.5,0-1.1,0-1.6c-0.3,0.1-0.7,0.2-1,0.3c0,2.1,0,4.2-0.1,6.3c-0.4,0-1.1,0-1.5,0c0-1.8,0-3.6,0-5.4
	c-0.5,0.4-1.8,1.2-1.8,0C33.7,27.1,34.4,26,34.7,24.6z"/>
<g>
	<path fill="#3F9B31" d="M46.7,24.6c0.5,0,1,0,1.5,0.1c0,0.5,0,1.1,0,1.6c1,0,2,0,3,0c0-0.6,0-1.1,0-1.7c0.5,0,1,0,1.4,0
		c0,0.5-0.1,1-0.1,1.6c0.9,0,1.8,0.1,2.6,0.1c0,0.3,0,0.8,0,1.1c-0.9,0.1-1.8,0.2-2.7,0.2c1.1,1.1,2.1,2.4,2.9,3.7
		c0.5,0.7-0.7,1-1,0.5c-0.7-0.7-1.2-1.6-1.7-2.4c0,1.4,0,2.9,0,4.3c-0.3,0-1,0-1.3,0c-0.1-1.3-0.1-2.5-0.1-3.8
		c-0.6,0.9-1.2,1.8-2,2.5c-0.3-0.3-0.5-0.6-0.7-1c0.2-0.5,1-0.8,0.8-1.5c-0.3-0.2-0.7-0.4-1-0.6c0,1.5,0,2.9,0,4.4
		c-0.4,0-1.1,0-1.5,0c0-1.3,0-2.6-0.1-3.9c-0.3,0.5-0.6,1-0.9,1.5c-0.2,0-0.6-0.1-0.8-0.1c-0.1-0.2-0.2-0.7-0.2-0.9
		c0.7-1,1.5-1.9,2.2-2.9c-0.7-0.1-1.3-0.3-2-0.4c-0.1-1.1,1-1.2,1.8-1.2C46.8,25.6,46.7,25.1,46.7,24.6z M48.1,27.8
		c0.7,0.5,1.4,1,2.1,1.5c0.2-0.6,0.3-1.2,0.5-1.8C49.8,27.5,48.9,27.6,48.1,27.8z"/>
</g>
<path fill="#44992E" d="M62.3,24.4c0.4,0,1.2,0,1.6,0c0,0.3,0.1,0.8,0.1,1.1c0.7,0,1.4,0,2.2-0.1c0,1.2,0,2.3,0.1,3.5
	c-1.2,0.1-2.4,0.1-3.7,0c0.7-0.4,1.5-0.8,2.2-1.2c0-0.2,0-0.7,0.1-1c-1,0-2-0.1-2.9,0.2c0.8,0.2,1.9-0.4,2.3,0.7
	c-0.7,0-1.3,0.1-2,0.1c0,0.5,0.1,1,0.2,1.6c1.4-0.1,2.9-0.1,4.3-0.1c0,1.3,0.1,2.5-0.2,3.8c-1,1.2-2.8,0.9-4.2,0.7
	c0.1-0.3,0.3-0.7,0.4-1c0.9,0,1.8-0.1,2.8-0.1c0-0.7-0.1-1.5-0.1-2.2l-0.1,0c-1.4-0.2-2.9-0.1-4.3-0.1c-0.1-1.6,0-3.2,0.1-4.8
	c0.3,0,1,0,1.3,0C62.4,25.3,62.3,24.7,62.3,24.4z"/>
<g>
	<path fill="#439B2D" d="M10.2,24.8c3.1,0,6.1,0.1,9.2,0c0,1.2,0,2.4-0.1,3.6c0,2-2.7,1.1-4,1.3c0,0.8-0.1,1.6-0.1,2.3
		c1,0.2,2,0.3,3,0.3c0-0.6,0-1.2,0.1-1.7c0.4,0,0.9,0,1.4,0.1c-0.1,0.8,0.1,1.7-0.3,2.4c-1.6,0.7-3.6,0.6-5.2,0
		c-0.3-2.4,0-4.9-0.2-7.3c-0.1,0.1-0.2,0.4-0.3,0.5c-0.1,2.1,0.1,4.3-0.1,6.4c-0.3,1.1-2.3,1.5-2.2,0.1c0.3-0.3,0.6-0.5,0.9-0.8
		c0-0.2,0.1-0.7,0.1-0.9c-0.2,0-0.6-0.1-0.8-0.1c-0.4,1-0.6,2.3-1.6,2.9c-0.2-0.6-0.4-1.1-0.6-1.7c0.2-0.2,0.6-0.6,0.8-0.8
		C10.2,29.2,10.2,27,10.2,24.8z M11.5,26.1c0,0.2-0.1,0.6-0.1,0.8c0.2,0,0.6,0.1,0.8,0.1c0-0.3,0-0.8,0-1C12,26,11.6,26.1,11.5,26.1
		z M15.2,26.3c0,0.7,0,1.3,0,2c0.2,0,0.6,0,0.8,0c0-0.7,0-1.3,0-2C15.8,26.3,15.4,26.3,15.2,26.3z M17.4,28.9
		c0.6-0.8,0.4-1.8,0.5-2.8C16.5,26.4,17.2,28,17.4,28.9z M11.4,28.5c0,0.2,0,0.7,0,1c0.2,0,0.5,0,0.7-0.1c0-0.2,0.1-0.7,0.1-0.9
		C12,28.5,11.6,28.5,11.4,28.5z"/>
</g>
<g>
	<path fill="#409932" d="M21.2,33.5c0.7-2.8,0.8-5.8,0.7-8.7c1.1,0,2.2,0,3.4,0c-0.1,1.9,0,3.8-0.1,5.6c0.4-0.5,0.8-1,1.2-1.4
		c-0.3,0-0.9,0-1.1,0c-0.3-1.7,2-1.6,2.4-3c-0.7,0-1.5,0-2.2,0c0.1-0.3,0.2-0.9,0.2-1.2c1.7-0.1,3.5,0,5.2-0.1
		c0.1,1.6-1.7,2.1-2.8,2.9c1,0,1.9,0,2.9,0c-0.1,1.8,0.4,3.7-0.2,5.5c-0.8,0.6-1.9,0.4-2.8,0.3c-0.9-1.4,0.8-1.2,1.7-1.2
		c0.2-1.1,0.2-2.2,0.2-3.4c-0.1,0-0.2,0-0.3,0c-0.4,1.9-1.8,3.9-3.6,4.5c-0.1-0.1-0.4-0.4-0.5-0.5c0.9-1.5,2.5-2.4,3-4.1
		c-1.1,1.3-2.4,2.4-3.4,3.8c-0.2,0.5-0.7,0.7-1.2,1C23.1,33,22.2,33.4,21.2,33.5z M23.6,25.9c-0.7,0-0.7,1.2,0,1.1
		C24.3,27.1,24.3,25.9,23.6,25.9z M23.6,29.6c0.7,0,0.7-1.3,0-1.4C22.9,28.3,22.9,29.5,23.6,29.6z M23.3,30.5
		c-0.1,0.6-0.1,1.2-0.2,1.9C24.2,32.1,24.3,30.9,23.3,30.5z"/>
</g>
<path fill="#3A9A2D" d="M56.8,25.6c1.3,0,2.6,0,3.9,0c0,1.3-0.4,2.6-0.8,3.9c-0.3,0.6,0.2,1.1,0.5,1.7c1.5-0.4,3.2-0.3,4.8-0.3
	c-0.1,0.3-0.3,0.8-0.4,1.1c-1.6,0-3.2,0.3-4.7,0.7c-0.4-0.3-0.6-0.8-0.9-1.2c-0.5,0.9-1.2,1.9-2.4,1.9c-0.2-1.3,1.4-2,1.5-3.2
	c-0.4-0.9-0.9-1.7-1.2-2.6c0.7,0.1,1.4,0.4,1.9,0.8c0.1-0.5,0.2-1.1,0.4-1.6c-0.8,0-1.7,0-2.5,0C56.8,26.5,56.8,25.9,56.8,25.6z"/>
</svg>
