<?xml version="1.0" encoding="utf-8"?>
<!-- Generator: Adobe Illustrator 18.1.1, SVG Export Plug-In . SVG Version: 6.00 Build 0)  -->
<svg version="1.1" id="图层_1" xmlns="http://www.w3.org/2000/svg" xmlns:xlink="http://www.w3.org/1999/xlink" x="0px" y="0px"
	 viewBox="0 0 67.6 20.9" enable-background="new 0 0 67.6 20.9" xml:space="preserve">
<path fill="#024DA2" d="M38.2,0.2c1.4-0.7,3.2,0.3,3.3,1.9c0.3,1.8-2,3.3-3.5,2.2C36.3,3.5,36.5,0.8,38.2,0.2z"/>
<path fill="#024DA5" d="M0,2.4c0-0.4,0-0.7,0.1-1c1.5-0.2,3-0.1,4.4,0c0,2.6,0,5.1,0,7.7c2.8,0,5.5,0,8.3,0C12.9,6.6,12.7,4,13,1.5
	c1.4-0.2,2.9-0.3,4.3,0c0.2,1,0.1,2,0.1,3.1c0,5.4,0,10.8,0,16.2c-1.5,0-3,0.1-4.4,0c-0.3-2.5,0-5.1-0.1-7.6c-2.8,0-5.5,0-8.3,0
	c0,2.5,0,5.1,0,7.6c-1.5,0.1-3.1,0.1-4.6-0.1C0,14.6,0,8.5,0,2.4z"/>
<path fill="#024CA4" d="M62.7,6.5c1.1-1,2.6-1.5,4-1.9c0.4,1.3,0.7,2.6,0.8,3.9c-1.5,0.4-3.1,1.5-3.2,3.3c-0.1,3,0,6,0,9
	c-1.4,0-2.7,0-4.1,0c0-2.9,0-5.7,0-8.6C60.3,10,61.1,7.9,62.7,6.5z"/>
<g>
	<path fill="#024DA4" d="M46.4,7c2.6-1.7,6.3-1.8,8.9-0.1c2.5,1.5,3.7,4.5,3.5,7.3c-3.9,0.1-7.9-0.1-11.8,0.1c0.4,1.2,1,2.4,2.2,2.9
		c1.4,0.7,3.5,0.6,4.6-0.7c0.4-0.3,0.6-0.8,1.1-1c1.2,0.2,2.4,0.4,3.6,0.6c-1.4,4.1-6.5,5.9-10.3,4.3c-2.3-0.9-4.2-2.8-4.8-5.1
		C42.4,12.2,43.8,8.7,46.4,7z M47.2,11.5c2.5,0.1,5,0.1,7.5,0c-0.6-1-1.3-2-2.5-2.3C50.3,8.4,48,9.6,47.2,11.5z"/>
</g>
<g>
	<path fill="#024DA5" d="M21.1,8.2c2.2-2.7,6.5-3.3,9.5-1.7c0.1-0.2,0.2-0.5,0.3-0.6c1.3-0.2,2.6-0.1,3.8-0.1c0,4.5,0,9,0,13.5
		c-0.9,1.5-2.7,1-4.1,0.6c-3.2,1.8-7.6,0.9-9.9-1.9C18.5,15.2,18.7,10.9,21.1,8.2z M25.8,9.2c-1.8,0.6-3.1,2.3-3,4.2
		c0,2.1,1.8,3.9,3.8,4c2.5,0.4,4.8-1.9,4.7-4.3C31.3,10.4,28.3,8.4,25.8,9.2z"/>
</g>
<path fill="#0F498F" d="M37,5.8c1.4,0,2.8-0.1,4.2,0c0,0.2,0.1,0.5,0.2,0.6c-1.3-0.2-2.6-0.2-3.9-0.2c0,4.7-0.1,9.3,0,14
	c1.1,0,2.2,0.1,3.3,0.1c0.2-4.1,0-8.3,0.2-12.4c0.1-0.4,0.2-0.8,0.3-1.2c0.1,4.7,0,9.3,0,14c-1.4,0-2.9,0-4.3-0.1
	C37,15.7,36.9,10.8,37,5.8z"/>
<path fill="#024DA5" d="M37.4,6.3c1.3-0.1,2.6,0,3.9,0.2l-0.1,0.3c-0.1,0.4-0.3,0.8-0.3,1.2c-0.2,4.1,0.1,8.3-0.2,12.4
	c-1.1,0-2.2,0-3.3-0.1C37.3,15.6,37.5,11,37.4,6.3z"/>
<path fill="#0F4988" d="M30.6,20c1.4,0.4,3.2,0.9,4.1-0.6c0,0.5,0,0.9,0,1.4c-1.3,0-2.6,0-4,0C30.7,20.5,30.7,20.1,30.6,20z"/>
</svg>
