<?xml version="1.0" encoding="utf-8"?>
<!-- Generator: Adobe Illustrator 18.1.1, SVG Export Plug-In . SVG Version: 6.00 Build 0)  -->
<svg version="1.1" id="图层_1" xmlns="http://www.w3.org/2000/svg" xmlns:xlink="http://www.w3.org/1999/xlink" x="0px" y="0px"
	 viewBox="0 0 84.2 27.2" enable-background="new 0 0 84.2 27.2" xml:space="preserve">
<path fill="#110505" d="M0,0c4,0,8.1-0.1,12.1,0c0,0.6,0,1.3-0.1,1.9C9.4,2,6.7,2,4.1,2c0,2.3-0.1,4.6,0,6.9C4,9.5,4.7,9.9,5.2,9.8
	c2.3,0,4.6,0,6.9,0c0,0.6,0,1.3,0,1.9c-3.1,0-6.2,0-9.2,0C1.6,11.7,0.1,11,0,9.6C0,6.4,0,3.2,0,0z"/>
<path fill="#130605" d="M62.5,0.5c1.4,0,2.7,0,4.1,0c0,0.6,0,1.2,0,1.7c1.4,0,2.8,0,4.3,0c0,0.5,0,1,0,1.5c-1.4,0-2.9,0-4.3,0
	c0,1.9-0.1,3.7,0,5.6c0.1,0.1,0.2,0.4,0.3,0.5c1.3,0.1,2.7,0,4,0.1c0,0.6,0.1,1.3,0.1,1.9c-2,0-4,0.1-5.9,0c-1.2,0-2.5-0.8-2.6-2
	c-0.1-1.9,0-3.9,0-5.8c-0.3,0-0.9-0.1-1.2-0.2c-0.1-0.5-0.1-1,0-1.5c0.3,0,0.9,0,1.2,0C62.4,1.6,62.5,1,62.5,0.5z"/>
<path fill="#130504" d="M52.7,4.8c-0.1-1.2,0.8-2.4,2.1-2.5c1.7-0.1,3.5-0.1,5.2,0c0,0.5,0,0.9,0,1.4c-1.1,0-2.2,0-3.4,0.2
	c0,2.6,0,5.2,0,7.9c-1.3,0-2.6,0-3.9,0C52.6,9.4,52.7,7.1,52.7,4.8z"/>
<g>
	<path fill="#120606" d="M13.6,2.5c0.5-0.3,1.1-0.1,1.6-0.2c2.6,0,5.3,0,7.9,0c1.2,0,2.3,0.9,2.3,2.1c0.1,2.4,0,4.8,0,7.2
		c-3.1,0.1-6.1,0-9.2,0c-1.1,0.1-2.4-0.4-2.6-1.6c-0.2-1.3-0.1-2.7-0.1-4.1c2.7-0.2,5.3-0.1,8-0.1c-0.2-0.6,0-1.7-0.8-1.9
		c-2.2-0.1-4.4,0-6.6,0C13.3,4.1,13.6,3,13.6,2.5z M17.5,7.7c0.1,0.8-0.2,1.7,0.3,2.4c1.2,0.3,2.4,0.1,3.6,0.1c0-0.8,0-1.7-0.1-2.5
		C20.1,7.7,18.8,7.6,17.5,7.7z"/>
</g>
<path fill="#120605" d="M27,3.1c-0.1-0.7,0.8-0.8,1.3-0.8c3,0,6,0,9,0c0.9-0.1,0.9,1.2,0.5,1.7c-2.6,0.2-5.2,0-7.8,0.2
	c0.2,0.6,0.4,1.3,1.1,1.4c1.9,0.5,4,0.4,5.8,1.2c1.7,1,1,3.3,1.1,4.9c-3.7,0-7.4,0.1-11,0c0-0.6,0-1.2,0-1.9c2.7-0.1,5.3,0.1,8-0.1
	c-0.2-0.5-0.3-1.2-1-1.4c-2-0.6-4.4-0.3-6.2-1.6C26.6,5.8,27,4.3,27,3.1z"/>
<g>
	<path fill="#120505" d="M39.5,2.3c3.1,0,6.3,0,9.4,0c1.2-0.1,2.3,0.9,2.3,2.1c0.1,2.4,0.1,4.9,0,7.3c-3.1,0.1-6.1,0-9.2,0
		c-1.1,0.1-2.3-0.4-2.6-1.6c-0.2-1.4-0.1-2.8,0-4.1C42.1,6,44.7,6,47.3,6c-0.2-0.7,0-2-1.1-1.9c-2.2,0-4.5,0.2-6.7,0
		C39.5,3.5,39.5,2.9,39.5,2.3z M43.5,7.7c0,0.8-0.4,1.9,0.3,2.5c1.1,0.2,2.3,0.1,3.5,0.1c0-0.9,0-1.7-0.1-2.6
		C45.9,7.7,44.7,7.7,43.5,7.7z"/>
</g>
<g>
	<path fill="#120605" d="M72.3,3.1c0-0.6,0.5-0.9,1-0.8c2.9,0,5.7,0,8.6,0c0.9,0,1.9,0.5,2.1,1.4c0.2,1.4,0.1,2.9,0.1,4.3
		c-2.6,0-5.3,0-7.9,0c0.1,0.6,0,1.7,0.9,1.8c2.3,0.2,4.7,0,7,0.1c0,0.6,0,1.2,0,1.8c-2.8,0-5.6,0-8.4,0c-1,0-2,0-2.8-0.7
		c-0.7-0.6-0.7-1.6-0.7-2.5C72.3,6.7,72.2,4.9,72.3,3.1z M76.4,3.8c0,0.8,0,1.6,0,2.4c1.3,0,2.5,0,3.8,0c0-0.8,0-1.6,0-2.4
		C78.9,3.8,77.6,3.8,76.4,3.8z"/>
</g>
<g>
	<path fill="#0E0303" d="M60.9,18.1c1-0.3,1.9-0.9,3-0.8c0.1,0.2,0.3,0.5,0.5,0.6c1.5-0.1,3,0.1,4.4-0.1c0.1-0.1,0.4-0.3,0.5-0.4
		c0.4,0,0.9,0,1.3,0c0.4,0.4,0.9,0.5,1.4,0.7c-0.3,1.1-1.7,1.4-2.7,1.3l0,0.6c0.9,0,1.7,0,2.6,0c0,0.3,0,0.9,0,1.1
		c-0.4,0-0.8-0.1-1.2-0.1c0,0.4,0,0.8,0,1.2c0.7,0,1.6-0.1,1.2,0.9c-1.4,0.2-2.8-0.1-4.2,0.2c-0.1,1.2,0,2.5-0.1,3.8
		c-0.8,0.1-1.5,0.1-2.3,0c-0.2-0.3-0.4-0.5-0.6-0.8c-0.5,0.7-1.4,0.6-2.1,0.8c-0.6,0.2-1.1,0-1.6-0.2c0.3-2.5,0-5,0.1-7.5
		c0.9,0.2,2,0.7,2.9,0.3c0.6-0.4,1.2,0,1.7,0.4c0.6,0,1.1,0,1.7,0c0.6-0.4,1.1-0.7,1.7-1.2c-1.6-0.1-3.1,0-4.7-0.1
		C63.8,20.3,61.5,19.3,60.9,18.1z M62.9,22.2c0.2,0,0.5,0,0.7,0c-0.1-0.6-0.2-1.1-0.3-1.7C63,21,63,21.6,62.9,22.2z M68.3,20.9
		c0,0.5,0,0.9,0.1,1.4c1,0.2,1-0.7,0.9-1.5C69,20.9,68.7,20.9,68.3,20.9z M65.5,21c-0.5,1.6,0.3,3.2-0.2,4.8
		c0.2,0.2,0.3,0.3,0.5,0.5c0.2-1.2,0.3-2.5,0.1-3.7c0.7-0.3,0.6-1.1,0.7-1.7C66.3,20.9,65.8,21,65.5,21z M63,23.1c0,0.8,0,1.7,0,2.5
		c0.1,0,0.4,0,0.6,0c0-0.8,0-1.7,0-2.5C63.4,23.1,63.1,23.1,63,23.1z"/>
</g>
<g>
	<path fill="#0C0202" d="M77.1,17.9c0.5-0.8,1.4-0.7,2.3-0.6c0.1,0.2,0.3,0.5,0.4,0.6c1.4-0.1,2.9-0.1,4.3,0c0,0.2,0,0.6,0,0.8
		c-0.5,0-1,0-1.5,0c-0.3,0.6-0.5,1.1-0.8,1.7c0.8,0.1,1.5,0.2,2.3,0.2c0,0.6,0,1.1,0,1.7c-0.7,0-1.4,0-2.1,0c-0.3-0.4-0.3-1.2-1-1.1
		c-0.4,0.1-1.2-0.2-1.2,0.5c0,0.4,0,0.8,0,1.1c1.4,0,2.9,0,4.3,0c0,0.9,0,1.9,0,2.9c0.1,0.4-0.2,0.9-0.7,0.8c-0.9,0-1.8,0.2-2.7,0.4
		c0-0.4,0-0.7,0-1c0.4-0.1,0.8-0.2,1.2-0.3c0-0.6,0-1.2-0.1-1.8c-0.7,0-1.4,0-2.1,0c0,0.9,0.1,1.9-0.1,2.8c-0.5,0.6-1.4,0.4-2.1,0.4
		c-0.3-1-0.1-2.1-0.2-3.2c-0.7,0-1.3,0-2,0c0,1,0,1.9,0,2.9c-0.7,0-1.6,0.4-2.1-0.1c-0.2-1.3-0.1-2.6-0.1-3.8c1.4,0,2.8,0.2,4.2,0.1
		c0-0.5,0-1.1,0-1.6c-0.6,0-1.2,0-1.7,0c-0.1,0.3-0.3,0.7-0.5,1c-0.7,0.1-1.3,0-2,0c0-0.6,0-1.2,0-1.8c0.7,0,1.4,0,2.2,0
		C75,20,74.7,19.5,74.4,19c-0.4-0.1-0.8-0.2-1.2-0.3c0.1-0.3,0.1-0.5,0.2-0.8C74.6,17.8,75.9,17.9,77.1,17.9z M76.3,18.8
		c0.3,0.6,0.6,1.1,1,1.6c0.7,0.1,1.5,0.1,2.3,0.1c0.3-0.6,0.7-1.2,1-1.8C79.2,18.8,77.7,18.8,76.3,18.8z"/>
</g>
<path fill="#0F0303" d="M50.4,17.5c0.9-0.1,1.8-0.1,2.7,0c0,0.4,0.1,0.9,0.1,1.3c2,0,4.1,0,6.1,0c0,0.2,0.1,0.7,0.2,0.9
	c-2.1,0-4.2,0-6.4,0c0,0.5,0,1,0,1.5c2.1,0,4.2-0.1,6.3,0c0,0.2-0.1,0.7-0.1,1c-2.1,0.1-4.1,0-6.2,0c0,0.5,0,1,0,1.5
	c1.8,0,3.8,0.1,5.5,1c0.8,0.5,0.7,1.5,0.7,2.3c-0.6,0.1-1.2,0.1-1.9,0.1c-0.2-0.6,0.1-1.4-0.6-1.7c-1.2-0.5-2.6-0.3-3.9-0.6
	c0,0.7,0,1.5-0.1,2.2c-0.8,0-1.7,0.1-2.5,0c0-1.6,0-3.2,0-4.8c-0.8,0-1.6,0.1-2.4,0c-0.3-0.3-0.3-0.7-0.1-1c0.8-0.1,1.6,0,2.4,0
	C50.4,19.9,50.4,18.7,50.4,17.5z"/>
</svg>
