<?xml version="1.0" encoding="utf-8"?>
<!-- Generator: Adobe Illustrator 18.1.1, SVG Export Plug-In . SVG Version: 6.00 Build 0)  -->
<svg version="1.1" id="图层_1" xmlns="http://www.w3.org/2000/svg" xmlns:xlink="http://www.w3.org/1999/xlink" x="0px" y="0px"
	 viewBox="0 0 82.9 18.6" enable-background="new 0 0 82.9 18.6" xml:space="preserve">
<path d="M13.4,0.2c0.5-0.4,1.1-0.1,1.5,0.3c1.1,1.1,2.3,2.1,3.3,3.3c0.5,0.5,0.4,1.4-0.1,1.8c-1.1,1.1-2.2,2.2-3.3,3.3
	c-0.3,0.2-0.8,0.9-1.2,0.5c-1.3-1-2.3-2.3-3.5-3.4C9.6,5.5,8.9,4.6,9.6,3.9C10.8,2.6,12.1,1.4,13.4,0.2z"/>
<path d="M0.1,5.4c0.5-1.3,2.2-0.6,3.2-0.8c1.3,0.2,2.9-0.5,3.8,0.6c0.1,1.8,0.1,3.7,0,5.5c-0.4,0.4-0.8,0.8-0.4,1.4
	c0.4-0.2,0.8-0.7,1.3-0.7c1.7,0,3.5,0,5.2,0c0.6,0,0.9,0.7,0.8,1.3c0,1.6,0,3.2,0,4.8c0.1,0.4-0.4,0.8-0.8,0.9c-1.1,0.1-2.3,0-3.4,0
	c-1,0-2,0.2-2.9-0.4c-0.4,0.2-0.8,0.4-1.3,0.3c-1.6,0-3.2,0.1-4.8,0c-0.5,0-0.9-0.4-0.9-0.9c-0.1-1.2,0-2.5,0-3.7
	c0-0.8-0.2-1.7,0.5-2.3C0.4,11.2,0,10.9,0,10.4C0,8.8,0,7.1,0.1,5.4z"/>
<path d="M23.8,4.7c0.8,0,1.6,0,2.4,0c0.1,3.6-0.1,7.3,0.1,10.9c0.1,0.1,0.3,0.3,0.5,0.4c1.2,0.1,2.4,0,3.6,0
	c0.1,0.8,0.1,1.6,0.1,2.4c-1.4,0-2.7,0.1-4.1,0c-1.4,0-2.5-1.3-2.5-2.6C23.8,12.2,23.8,8.4,23.8,4.7z"/>
<g>
	<path fill="#010000" d="M62.6,4.7c0.7,0,1.5,0,2.2,0c0.1,2.9,0,5.9,0,8.8c-0.2,3.5-4.4,6.1-7.6,4.5c-2.9-1.1-4.2-4.9-2.6-7.6
		c1.4-2.7,5.3-3.8,7.8-1.8C62.5,7.3,62.4,6,62.6,4.7z M58.2,10.3c-2.1,0.9-2.4,4-0.5,5.2c1.9,1.5,5-0.4,4.7-2.7
		C62.3,10.8,60,9.5,58.2,10.3z"/>
</g>
<g>
	<path fill="#010101" d="M30.6,12.8c0.1-2.6,2.2-4.8,4.8-5.1c3.5-0.6,7.2,3.1,6,6.6c-2.7,0-5.3-0.1-8,0c0.6,0.9,1.5,1.8,2.7,1.7
		c1.1,0.2,1.9-0.7,2.7-1.3c0.7,0.1,1.7,0.4,1.9,1.1c-1.2,2.2-4,3.2-6.3,2.4C32.1,17.5,30.4,15.2,30.6,12.8z M33.3,11.8
		c1.8,0,3.6,0.1,5.4,0c-0.6-1.1-1.8-2-3.1-1.7C34.5,10.1,33.9,11.1,33.3,11.8z"/>
</g>
<g>
	<path fill="#010101" d="M42.4,14.2c-0.7-3.1,1.8-6.4,5-6.5c3.1-0.4,6,2.4,5.8,5.5c0,1.7,0.1,3.4-0.1,5.1c-0.6,0.4-1.4,0.1-2,0.2
		c-0.1-0.2-0.2-0.7-0.3-0.9C47.8,19.7,43,17.9,42.4,14.2z M46.5,10.3c-1,0.5-1.8,1.4-1.8,2.5c-0.2,1.8,1.5,3.5,3.3,3.2
		c1.9-0.2,3.3-2.5,2.4-4.2C49.9,10.3,47.9,9.7,46.5,10.3z"/>
</g>
<g>
	<path fill="#010000" d="M65.7,13.1c-0.1-2.7,2-5.1,4.6-5.4c2.9-0.5,6,1.8,6.2,4.8c0.1,0.6,0.3,1.8-0.7,1.8c-2.5,0.1-5,0-7.5,0
		c0.6,1,1.5,1.8,2.6,1.8c1.1,0.2,1.9-0.8,2.7-1.4c0.7,0.1,1.3,0.4,1.8,0.8c0.3,0.5-0.3,0.9-0.6,1.2c-0.9,0.9-2.1,1.5-3.3,1.6
		C68.7,18.8,65.6,16.2,65.7,13.1z M68.4,11.8c1.8,0,3.7,0.1,5.5,0c-0.5-1-1.6-1.9-2.8-1.8C69.9,10,69.1,11,68.4,11.8z"/>
</g>
<path d="M77.5,10.4c0-1.2,0.8-2.2,1.9-2.6c1.2-0.3,2.4-0.2,3.5-0.1c0,0.8,0,1.5,0,2.3c-1,0.3-2.4-0.3-2.9,0.8c-0.2,2.5,0,5-0.1,7.5
	c-0.8,0.2-1.6,0.2-2.4,0.1C77.4,15.7,77.5,13.1,77.5,10.4z"/>
</svg>
