<?xml version="1.0" encoding="utf-8"?>
<!-- Generator: Adobe Illustrator 18.1.1, SVG Export Plug-In . SVG Version: 6.00 Build 0)  -->
<svg version="1.1" id="图层_1" xmlns="http://www.w3.org/2000/svg" xmlns:xlink="http://www.w3.org/1999/xlink" x="0px" y="0px"
	 viewBox="0 0 89.9 27" enable-background="new 0 0 89.9 27" xml:space="preserve">
<path fill="#E0181D" d="M12.9,0.5C15-0.1,17.3,0,19.5,0c20.3,0,40.6,0,60.9,0c2.9,0.1,5.7-0.1,8.6,0.1c1.5,0.6,0.8,2.4,0.6,3.5
	l0-0.3c-0.1-0.9-0.2-1.7-0.4-2.6c-1-0.3-2.1-0.2-3.2-0.2C61.6,0.5,37.2,0.5,12.9,0.5z"/>
<g>
	<path fill="#FB151D" d="M3.9,7.3c1.9-3.4,5.2-6,9-6.7c24.4-0.1,48.7,0,73.1,0c1.1,0,2.1-0.1,3.2,0.2c0.2,0.8,0.3,1.7,0.4,2.6
		c0,1.5-0.5,3-0.7,4.5c-0.7,3.8-1.9,7.6-4,10.9c-2.1,3.7-6.1,6.1-10.2,7.1c-8.2,2.1-16.7,1.1-24.9,0.1c-13.9-1.3-28-2.1-41.9-0.4
		c-2.2,0.2-4.4,0.8-6.5,1c-1.2,0.1-1.4-1.3-1.2-2.2c0.5-3.3,1.3-6.6,1.9-10C2.4,11.9,2.7,9.4,3.9,7.3z M17.1,4.5L17.1,4.5
		c0,0.4,0,0.9,0,1.3c2.3,0.7,4.7-0.1,7,0.3c-2.3,1.1-4.6,2.3-6.8,3.6c-0.6,0.3-0.5,1.1-0.1,1.5c2.8,0.1,5.6,0,8.5,0.1
		c-0.4,2.5-0.8,5.1-1.2,7.6c-0.7,0.1-1.4,0-2.1,0.3c-0.4,0.4-0.4,0.9-0.6,1.4c1.6,0.2,3.8,0.1,4.4-1.8c0.7-1.3,0.6-2.9,0.9-4.3
		c0.3-1.7,0.6-3.3,0.7-5.1c-1.6-0.4-3.3,0-5-0.3c0-0.1-0.1-0.4-0.2-0.6c1.6-0.9,3.4-1.6,4.9-2.7c0.5-0.3,0.2-1,0.4-1.5
		c-0.3-0.7-1.1-0.4-1.7-0.5c-2.3,0.1-4.6,0-6.9,0C18.5,3.9,17.5,3.7,17.1,4.5z M30.4,4.4c-0.6,5.4-1.6,10.8-2.2,16.2
		c4.8,0,9.6,0,14.4,0c0.1-0.5,0.1-1.1,0.2-1.6c-1.9,0-3.8,0-5.7,0c0.1-1,0.2-2,0.3-2.9c1.3,0,2.5,0,3.8-0.1c1.1-0.1,1.9-1,2.1-2.1
		c0.3-1.5,0.6-3,0.7-4.6C44,9.3,43.9,9.1,43.8,9C42,9,40.3,9,38.5,9c0.1-1,0.2-1.9,0.4-2.9c2-0.1,4,0.2,5.9-0.2c0-0.5,0.1-1,0.1-1.5
		l0-0.4c-3.9-0.2-7.7,0-11.6-0.1C32.4,4,31.2,3.7,30.4,4.4z M12.9,4.8c0.2,1,0.3,2,0.3,3c0.3,0,1,0.1,1.3,0.1c0.2-1.2,0.1-2.4,0-3.6
		C14,4.4,13.4,4.5,12.9,4.8z M48.5,4.9c-0.7,1.7-1.4,3.4-2.2,5.1c-0.6,0.6-1.2,1.3-1.1,2.2c0,0.8,0.9,0.9,1.4,1.3
		c-0.1,2.4-1.1,4.8-0.6,7.3c0.6,0.7,1.5,0.2,2.2-0.1c1.2,0.4,2.4,0.5,3.6,0.4c2.3-0.1,4.6,0.1,6.9,0c0.5-0.1,1.2-0.1,1.4-0.6
		c0.1-0.6,0-1.2-0.1-1.8c0.2-1.8,0.5-3.7,0.6-5.5c-3.1,0-6.2,0-9.2,0c-0.6,0-1.2-0.1-1.8,0.3c-0.5,0.9-0.6,1.9-0.8,2.9
		c-0.3-2,0.3-3.9,0.4-5.9c-0.2-0.1-0.5-0.3-0.7-0.4c-0.1-0.2-0.2-0.7-0.2-0.9c0.6-1.5,1.5-3,1.8-4.7C49.6,4.4,48.7,4.2,48.5,4.9z
		 M55.4,5.1c-1.5,0-3,0-4.5,0c0,0.5,0,1,0,1.5c3.6,0.1,7.2,0,10.8,0c0.1-0.5,0.3-1,0.4-1.5c-1.5,0-3,0-4.5,0c-0.3-0.6-0.9-1-1.6-0.9
		C55.8,4.5,55.6,4.8,55.4,5.1z M65.7,4.3l0.1,0.3c-0.9,1.8-1.6,3.8-2.4,5.6c-0.3,0.7-0.7,1.3-0.7,2.1c0.2,0.8,1,0.4,1.5,0.4
		c-0.3,1.4-0.4,2.9-0.6,4.3C63,18.1,63,19.4,63,20.7c1.5-0.2,3.1,0.3,4.4-0.7c1.2,1,2.9,0.8,4.4,0.8c1.7-0.1,3.5,0.2,5.2-0.2
		c0.1-0.5,0.1-1,0.2-1.5c-1.8-0.1-3.6-0.1-5.4,0c-0.8,0-1.6,0.1-2.4-0.3c1,0.2,2,0.2,3-0.1c0.1-0.3,0.3-0.8,0.3-1.1
		c0,0.2,0,0.7,0,0.9c0.5,0,1,0,1.6,0c0-0.2,0.1-0.7,0.1-0.9c0.8,0,1.6,0,2.4-0.1c0.5-0.3,0.3-0.9,0.5-1.4l-0.2,0
		c-0.5-0.4-1.2-0.5-1.8-0.7c0.8-0.1,1.7,0.1,2.2-0.6c0-0.5,0-1,0.1-1.5c-0.8,0-1.6,0-2.5,0c0-0.3,0.1-1,0.1-1.3c0.8,0,1.6,0,2.4-0.1
		c0.5-0.8,0.4-1.8,0.6-2.6c0.7-0.3,1.3-1.5,0.2-1.7c0.1-0.8,0.2-1.7,0.2-2.5c-0.7,0-1.4,0-2.1-0.1c-0.3-0.3-0.4-0.9-0.9-0.9
		c-0.7-0.2-1,0.5-1.4,0.9c-0.5,0-1.1,0-1.6,0c0,0.2,0,0.5-0.1,0.7c-0.2-0.4-0.5-0.8-0.8-1.1c-1.4-0.1-2.7,0.1-4.1,0
		C67.1,4.3,66.4,4.1,65.7,4.3z M59.3,7.9c-0.5,0.8-0.7,1.7-1.3,2.5c-1.5,0.1-2.9,0-4.4,0c-0.1-0.8-0.2-1.7-0.2-2.5
		c-0.6-0.2-1.1-0.2-1.7,0c0.1,0.8,0.2,1.6,0.3,2.4c-0.6,0-1.1,0-1.7,0c-0.1,0.5-0.1,1.1-0.2,1.6c3.6,0.1,7.2,0,10.8,0
		c0.1-0.6,0.2-1.1,0.4-1.7c-0.5,0-0.9,0-1.4-0.1c0.3-0.8,0.6-1.6,0.8-2.5C60.3,7.7,59.7,7.4,59.3,7.9z M13.2,9.7
		c0,1.4,0.3,2.9-0.3,4.2c-0.8,2-1.5,3.9-2.3,5.9c-0.6,1,1.4,1.3,1.5,0.4c0.9-1.9,1.5-3.9,2.3-5.9c0.7-1.4,0.5-3,0.5-4.6
		c-0.2-0.1-0.6-0.3-0.8-0.4C13.8,9.4,13.4,9.6,13.2,9.7z M17.2,12.9c-0.6,2.5-1.5,5-2.7,7.3c0.1,0.1,0.4,0.3,0.6,0.4
		c0.8,0.5,1.1-0.5,1.4-1.1c1-2.2,2.1-4.3,2.3-6.7C18.3,12.6,17.5,12.2,17.2,12.9z M20.7,14.6c-0.4,2.1-1.8,3.9-2.1,6
		c0.5-0.1,1.2,0.3,1.5-0.3c0.7-1.3,1.2-2.8,1.8-4.2c0.4-1.2,1-2.4,0.5-3.7C21.1,11.9,21,13.8,20.7,14.6z"/>
</g>
<path fill="#D91D24" d="M17.1,4.5c0.5-0.7,1.4-0.5,2.1-0.6c2.3,0.1,4.6,0.1,6.9,0c0.6,0,1.4-0.2,1.7,0.5C24.2,4.4,20.7,4.3,17.1,4.5
	z"/>
<path fill="#D91C21" d="M30.4,4.4c0.8-0.7,1.9-0.4,2.9-0.5C37.2,4,41.1,3.8,44.9,4l0,0.4C40.1,4.4,35.3,4.4,30.4,4.4z"/>
<path fill="#FAFEFD" d="M12.9,4.8c0.5-0.3,1.1-0.4,1.7-0.5c0.1,1.2,0.1,2.4,0,3.6c-0.3,0-1-0.1-1.3-0.1C13.1,6.8,13.1,5.8,12.9,4.8z
	"/>
<path fill="#FDFEFD" d="M17.1,4.5L17.1,4.5c3.6-0.1,7.2,0,10.7,0c-0.1,0.5,0.1,1.2-0.4,1.5c-1.5,1.1-3.3,1.8-4.9,2.7
	c-0.6,0.3-1.1,0.7-1.6,1c2.2,0,4.3,0,6.5,0.1c-0.3,3.1-0.7,6.1-1.3,9.2c-0.6,1.9-2.8,2-4.4,1.8c0.2-0.4,0.2-1,0.6-1.4
	c0.7-0.3,1.4-0.2,2.1-0.3c0.4-2.5,0.8-5.1,1.2-7.6c-2.8-0.1-5.6,0-8.5-0.1c-0.4-0.4-0.5-1.3,0.1-1.5c2.2-1.3,4.5-2.4,6.8-3.6
	c-2.3-0.5-4.7,0.4-7-0.3C17.1,5.3,17.1,4.9,17.1,4.5z"/>
<g>
	<path fill="#FDFEFD" d="M30.4,4.4c4.8,0.1,9.7,0,14.5,0c0,0.5-0.1,1-0.1,1.5c-2,0.4-4,0.1-5.9,0.2c-0.2,1-0.3,1.9-0.4,2.9
		c1.8,0,3.5,0,5.3,0c0.1,0.1,0.2,0.3,0.3,0.4c-0.2,1.5-0.5,3.1-0.7,4.6c-0.2,1-1,2-2.1,2.1c-1.3,0.1-2.5,0-3.8,0.1
		c-0.1,1-0.2,2-0.3,2.9c1.9,0,3.8,0,5.7,0c-0.1,0.5-0.1,1.1-0.2,1.6c-4.8,0-9.6,0-14.4,0C28.8,15.2,29.8,9.8,30.4,4.4z M31.8,6.1
		c-0.1,1-0.2,1.9-0.2,2.9c1.7,0,3.5,0,5.2-0.1C36.9,8,37,7,37.2,6.1C35.4,6.1,33.6,6.1,31.8,6.1z M31.2,10.6
		c-0.1,1.3-0.2,2.5-0.4,3.8c3.6,0,7.2,0.1,10.8-0.1c0.4-1.2,0.5-2.5,0.6-3.7C38.5,10.6,34.9,10.6,31.2,10.6z M30.4,16.1
		c-0.1,1-0.2,1.9-0.2,2.9c1.7,0,3.4,0,5.1,0c0.1-1,0.3-1.9,0.4-2.9C33.9,16.1,32.2,16,30.4,16.1z"/>
</g>
<path fill="#FCFEFD" d="M48.5,4.9c0.2-0.7,1.1-0.5,1.7-0.6C49.9,6,49,7.5,48.4,9c-0.6,0.8,0.2,1.4,0.7,2c-0.5,3.2-0.9,6.4-1.3,9.6
	c-0.5,0-1.1,0-1.6,0c0.3-2.8,0.7-5.5,1.2-8.3c-0.5,0.2-1.1,0.8-1.6,0.3c-0.3-0.9,0.3-1.7,0.6-2.5C47.1,8.4,47.8,6.6,48.5,4.9z"/>
<path fill="#FDFEFD" d="M55.4,5.1c0.2-0.3,0.4-0.6,0.6-1c0.7,0,1.3,0.3,1.6,0.9c1.5,0,3,0,4.5,0c-0.1,0.5-0.3,1-0.4,1.5
	c-3.6,0-7.2,0.1-10.8,0c0-0.5,0-1,0-1.5C52.4,5.1,53.9,5.1,55.4,5.1z"/>
<path fill="#E05E61" d="M65.7,4.3c0.7-0.2,1.4,0.1,2,0.5c1.4,0,2.7-0.1,4.1,0c0.3,0.3,0.6,0.7,0.8,1.1c0,0.2,0,0.5,0,0.6
	c-0.2-0.1-0.6-0.3-0.7-0.4c0-0.3-0.1-0.8-0.1-1.1c-1.3,0-2.7,0-4,0.1c0,0.4,0,0.8,0,1.3c0.7,0,1.3,0.1,2,0.1
	c-0.2,0.3-0.4,0.6-0.6,0.9c0-0.1,0-0.4-0.1-0.6c-0.5-0.1-1-0.2-1.5-0.3c-0.1-0.5-0.2-0.9-0.3-1.4c0.1-0.9-0.8-0.6-1.4-0.6L65.7,4.3z
	"/>
<g>
	<path fill="#FDFDFD" d="M74.3,5.1c0.4-0.4,0.7-1.1,1.4-0.9c0.5,0,0.6,0.6,0.9,0.9c0.7,0.1,1.4,0.1,2.1,0.1
		c-0.1,0.8-0.2,1.7-0.2,2.5c1,0.2,0.5,1.4-0.2,1.7c-0.2,0.9-0.1,1.9-0.6,2.6c-0.8,0.1-1.6,0.1-2.4,0.1c0,0.3-0.1,1-0.1,1.3
		c0.8,0,1.6,0,2.5,0c0,0.5,0,1-0.1,1.5c-0.9,0-1.8,0-2.7,0c0,0.3-0.1,0.9-0.1,1.2c0.8,0,1.6,0,2.4,0l0.2,0c-0.1,0.5,0,1.1-0.5,1.4
		c-0.8,0.1-1.6,0.1-2.4,0.1c0,0.2-0.1,0.7-0.1,0.9c-0.5,0-1,0-1.6,0c0-0.2,0-0.7,0-0.9c-0.6,0-1.3,0-1.9-0.1c-0.4-0.3-0.1-1-0.1-1.4
		c0.8,0,1.5,0,2.3,0c0.1-0.4,0.1-0.8,0.2-1.2c-0.7,0-1.4,0-2,0c0-0.5,0.1-1,0.1-1.5c0.7,0,1.4,0,2.1,0c0.1-0.4,0.1-0.8,0.2-1.2
		c-0.7,0-1.3,0-2,0c0-0.5,0.1-1,0.1-1.5c0.7,0,1.4-0.1,2.1-0.1c0-0.3,0.1-0.9,0.2-1.2c-0.7,0-1.4,0-2.1-0.1
		c-0.1-0.5-0.2-0.9-0.2-1.4c0.8,0,1.6-0.1,2.4-0.1c0.1-0.4,0.2-0.7,0.3-1.1c-0.6-0.1-1.2-0.1-1.8-0.3c0-0.2,0-0.5,0-0.6
		c0-0.2,0-0.5,0.1-0.7C73.2,5.1,73.7,5.1,74.3,5.1z M75.8,7.8c0.4,0,0.7,0,1.1,0.1c0.1-0.4,0.4-1.3-0.3-1.3
		C75.8,6.4,75.9,7.3,75.8,7.8z M75.5,9.4c0,0.4,0,0.8-0.1,1.2c0.3,0,0.7,0,1,0c0-0.5,0.1-0.9,0.1-1.4C76.2,9.3,75.9,9.3,75.5,9.4z"
		/>
</g>
<path fill="#FCFEFD" d="M65.8,4.5c0.6-0.1,1.5-0.4,1.4,0.6c-0.7,1.6-1.4,3.3-2,4.9c0.4,0.2,0.9,0.5,0.8,1.1c0,1.9-0.5,3.7-0.7,5.6
	c-0.1,1.3-0.3,2.6-0.6,3.9c-0.5,0-1.1,0-1.6,0c0.2-1.2,0.3-2.4,0.4-3.6c0.2-1.4,0.4-2.9,0.6-4.3c-0.5,0-1.3,0.4-1.5-0.4
	c-0.1-0.8,0.4-1.4,0.7-2.1C64.2,8.3,64.9,6.4,65.8,4.5z"/>
<path fill="#FDFEFD" d="M67.7,5.1c1.3,0,2.7,0,4-0.1c0,0.3,0.1,0.8,0.1,1.1c-1.1,1.5-2.2,2.9-3.2,4.5c0.7,0,1.4,0,2,0.1
	c-0.2,2.7-0.5,5.5-2,7.9c0.2,0.1,0.5,0.3,0.7,0.3c0.7,0.4,1.6,0.4,2.4,0.3c1.8-0.1,3.6-0.1,5.4,0c-0.1,0.5-0.1,1-0.2,1.5
	c-2.4,0-4.9,0-7.3,0c-0.9,0.1-1.6-0.5-2.3-1c-0.6,0.4-1.3,0.8-2,1c0.1-0.8,0.3-1.7,0.8-2.3l0.3-0.1c-0.1-1.3-0.7-2.8,0.1-4
	c0.3,0,0.9-0.1,1.1-0.1c0,0.9,0.1,1.8,0.2,2.8c0.8-1.4,0.9-3.1,1.1-4.7c-0.8,0-1.6,0-2.4-0.1c0-1.9,1.3-3.3,2.4-4.7
	c0.2-0.3,0.4-0.6,0.6-0.9c-0.7,0-1.3-0.1-2-0.1C67.7,5.9,67.7,5.5,67.7,5.1z"/>
<path fill="#F2181F" d="M67.2,5.1c0.1,0.5,0.2,0.9,0.3,1.4c0.5,0.1,1,0.2,1.5,0.3c0,0.1,0,0.4,0.1,0.6c-1.1,1.4-2.4,2.8-2.4,4.7
	c0.8,0,1.6,0.1,2.4,0.1c-0.2,1.6-0.3,3.3-1.1,4.7c-0.1-0.9-0.1-1.8-0.2-2.8c-0.3,0-0.9,0.1-1.1,0.1c-0.8,1.2-0.2,2.7-0.1,4l-0.3,0.1
	c-0.3,0.2-0.7,0.3-1,0.5c0-0.7-0.1-1.4-0.1-2.1c0.2-1.9,0.6-3.7,0.7-5.6c0.1-0.6-0.4-0.8-0.8-1.1C65.8,8.4,66.5,6.7,67.2,5.1z"/>
<path fill="#F5151B" d="M31.8,6.1c1.8-0.1,3.6,0,5.3,0C37,7,36.9,8,36.8,8.9c-1.7,0.1-3.5,0-5.2,0.1C31.7,8.1,31.8,7.1,31.8,6.1z"/>
<path fill="#EE161C" d="M71.8,6.1c0.2,0.1,0.6,0.3,0.7,0.4c0.6,0.1,1.2,0.2,1.8,0.3c-0.1,0.4-0.2,0.7-0.3,1.1c-0.8,0-1.6,0-2.4,0.1
	c0,0.5,0.1,0.9,0.2,1.4c0.7,0.1,1.4,0.1,2.1,0.1c0,0.3-0.1,0.9-0.2,1.2c-0.7,0-1.4,0.1-2.1,0.1c0,0.5-0.1,1-0.1,1.5c0.7,0,1.3,0,2,0
	c-0.1,0.4-0.1,0.8-0.2,1.2c-0.7,0-1.4,0-2.1,0c0,0.5-0.1,1-0.1,1.5c0.7,0,1.3,0,2,0c-0.1,0.4-0.1,0.8-0.2,1.2c-0.8,0-1.5,0-2.3,0
	c0.1,0.5-0.2,1.1,0.1,1.4c0.6,0.1,1.3,0.1,1.9,0.1c-0.1,0.3-0.3,0.8-0.3,1.1c-1,0.2-2,0.2-3,0.1c-0.2-0.1-0.5-0.3-0.7-0.3
	c1.5-2.4,1.7-5.2,2-7.9c-0.7,0-1.4,0-2-0.1C69.6,9,70.8,7.5,71.8,6.1z"/>
<path fill="#CD2A2C" d="M75.8,7.8c0.1-0.5,0-1.5,0.8-1.3c0.7,0,0.3,0.9,0.3,1.3C76.5,7.9,76.1,7.8,75.8,7.8z"/>
<path fill="#FDFEFE" d="M59.3,7.9c0.4-0.5,1-0.2,1.5-0.1c-0.2,0.9-0.5,1.7-0.8,2.5c0.5,0,0.9,0,1.4,0.1c-0.1,0.6-0.2,1.1-0.4,1.7
	c-3.6,0-7.2,0-10.8,0c0.1-0.5,0.1-1.1,0.2-1.6c0.6,0,1.1,0,1.7,0c-0.1-0.8-0.2-1.6-0.3-2.4c0.5-0.2,1.1-0.2,1.7,0
	c0,0.8,0.1,1.7,0.2,2.5c1.5,0,2.9,0.1,4.4,0C58.6,9.6,58.8,8.6,59.3,7.9z"/>
<path fill="#FB151D" d="M20.9,9.6c0.5-0.3,1.1-0.7,1.6-1c0,0.1,0.1,0.4,0.2,0.6c1.7,0.3,3.4-0.1,5,0.3c0,1.7-0.4,3.4-0.7,5.1
	c-0.3,1.4-0.2,3-0.9,4.3c0.5-3,0.9-6.1,1.3-9.2C25.2,9.5,23.1,9.6,20.9,9.6z"/>
<path fill="#E21E24" d="M49.1,11c-0.5-0.6-1.2-1.2-0.7-2c0.1,0.2,0.2,0.7,0.2,0.9c0.2,0.1,0.5,0.3,0.7,0.4c-0.1,2-0.7,3.9-0.4,5.9
	c0.3-1,0.3-2,0.8-2.9c-0.2,2.4-0.7,4.8-0.9,7.1c3.6,0.1,7.2,0,10.8,0.1c0.2-0.6,0.4-1.3,0.5-2c0.1,0.6,0.2,1.2,0.1,1.8
	C60,21,59.3,21,58.8,21.1c-2.3,0.2-4.6-0.1-6.9,0c-1.2,0-2.5,0-3.6-0.4c-0.7,0.2-1.6,0.8-2.2,0.1c-0.5-2.4,0.5-4.8,0.6-7.3
	c-0.5-0.3-1.5-0.4-1.4-1.3c-0.1-0.9,0.5-1.6,1.1-2.2c-0.3,0.8-0.9,1.7-0.6,2.5c0.5,0.5,1.1-0.1,1.6-0.3c-0.4,2.8-0.9,5.5-1.2,8.3
	c0.5,0,1.1,0,1.6,0C48.2,17.4,48.6,14.2,49.1,11z"/>
<path fill="#CF202F" d="M75.5,9.4c0.3,0,0.7-0.1,1-0.1c0,0.5-0.1,0.9-0.1,1.4c-0.3,0-0.7,0-1,0C75.5,10.2,75.5,9.8,75.5,9.4z"/>
<path fill="#FCFEFE" d="M13.2,9.7c0.2-0.1,0.6-0.3,0.8-0.4c0.2,0.1,0.6,0.3,0.8,0.4c0.1,1.5,0.2,3.1-0.5,4.6c-0.8,1.9-1.4,4-2.3,5.9
	c-0.2,0.9-2.1,0.6-1.5-0.4c0.8-2,1.6-3.9,2.3-5.9C13.5,12.6,13.2,11.1,13.2,9.7z"/>
<path fill="#FB141C" d="M31.2,10.6c3.7,0,7.3,0,11,0c-0.2,1.2-0.3,2.5-0.6,3.7c-3.6,0.2-7.2,0-10.8,0.1C31,13.2,31.1,11.9,31.2,10.6
	z"/>
<path fill="#FCFEFC" d="M17.2,12.9c0.2-0.7,1-0.4,1.5-0.1c-0.1,2.4-1.3,4.6-2.3,6.7c-0.3,0.5-0.6,1.5-1.4,1.1
	c-0.1-0.1-0.4-0.3-0.6-0.4C15.7,17.9,16.7,15.5,17.2,12.9z"/>
<path fill="#FCFEFD" d="M20.7,14.6c0.3-0.8,0.4-2.7,1.7-2.1c0.5,1.2-0.1,2.5-0.5,3.7c-0.6,1.4-1.1,2.8-1.8,4.2
	c-0.2,0.6-1,0.3-1.5,0.3C18.9,18.5,20.3,16.7,20.7,14.6z"/>
<g>
	<path fill="#FEFEFD" d="M49.8,13.4c0.5-0.3,1.2-0.2,1.8-0.3c3.1,0,6.1,0,9.2,0c-0.1,1.8-0.4,3.7-0.6,5.5c-0.1,0.7-0.3,1.3-0.5,2
		c-3.6-0.1-7.2,0-10.8-0.1C49,18.2,49.5,15.8,49.8,13.4z M50.7,19c2.6,0.1,5.2,0,7.7,0c0.2-1.4,0.4-2.8,0.6-4.2c-2.5,0-5.1,0-7.6,0
		C51,16.1,50.9,17.6,50.7,19z"/>
</g>
<path fill="#F9131C" d="M50.7,19c0.2-1.4,0.4-2.8,0.7-4.2c2.5,0.1,5.1,0,7.6,0c-0.2,1.4-0.4,2.8-0.6,4.2C55.8,19,53.2,19.1,50.7,19z
	"/>
<path fill="#D0262A" d="M74.8,14.9c0.9,0,1.8,0,2.7,0c-0.5,0.7-1.4,0.5-2.2,0.6c0.6,0.1,1.3,0.2,1.8,0.7c-0.8,0-1.6,0-2.4,0
	C74.7,15.8,74.8,15.2,74.8,14.9z"/>
<path fill="#FA131B" d="M30.4,16.1c1.7-0.1,3.5,0,5.2-0.1c-0.1,1-0.2,1.9-0.4,2.9c-1.7,0-3.4,0-5.1,0C30.3,18,30.4,17.1,30.4,16.1z"
	/>
<path fill="#AE1323" d="M64.7,20.6c0.2-1.3,0.4-2.6,0.6-3.9c0,0.7,0,1.4,0.1,2.1c0.3-0.1,0.7-0.3,1-0.5c-0.6,0.6-0.8,1.5-0.8,2.3
	c0.7-0.2,1.4-0.6,2-1c0.7,0.5,1.4,1.1,2.3,1c2.4,0.1,4.9,0,7.3,0c-1.7,0.5-3.5,0.1-5.2,0.2c-1.5,0-3.2,0.2-4.4-0.8
	c-1.3,0.9-3,0.4-4.4,0.7c0-1.3,0-2.6,0.6-3.8c-0.1,1.2-0.3,2.4-0.4,3.6C63.6,20.6,64.2,20.6,64.7,20.6z"/>
</svg>
