<?xml version="1.0" encoding="utf-8"?>
<!-- Generator: Adobe Illustrator 18.1.1, SVG Export Plug-In . SVG Version: 6.00 Build 0)  -->
<svg version="1.1" id="图层_1" xmlns="http://www.w3.org/2000/svg" xmlns:xlink="http://www.w3.org/1999/xlink" x="0px" y="0px"
	 viewBox="0 0 79 30.4" enable-background="new 0 0 79 30.4" xml:space="preserve">
<path fill="#0286C7" d="M6.7,2.8c5.2-3.9,13-3.7,18.1,0.3c1.1,0.9,2.1,1.9,2.8,3c0.7,1,1.3,2,1.5,3.2c-1.6-2.5-4.1-4.4-6.8-5.5
	c-3.8-1.4-8.3-1.4-12,0.3c-4.1,2-7.4,5.8-8.1,10.4C2,16.3,2.2,18.2,2.5,20c-1.4-2.8-1.9-6.2-1.1-9.3C2.1,7.5,4.2,4.7,6.7,2.8z"/>
<g>
	<path fill="#0185C5" d="M76.6,9c0.8-0.2,1.8-0.1,2.2,0.7c0.6,1.1-0.5,2.5-1.7,2.3c-0.9-0.1-1.6-1-1.5-1.8C75.7,9.7,76.1,9.2,76.6,9
		z M76,10c-0.4,1.1,1,2.3,2,1.6c-0.3-0.4-0.5-0.9-0.9-1.2c-0.1,0.4,0,0.9-0.4,1.1c0-0.7,0-1.4,0-2c0.5,0,1.1-0.1,1.4,0.4
		c-0.1,0.2-0.3,0.3-0.4,0.5c0.2,0.4,0.5,0.8,0.3,1.3c0.5-0.5,0.9-1.3,0.6-1.9C78.1,8.8,76.2,8.8,76,10z M77.1,9.9
		c-0.2,0.3,0.3,0.6,0.5,0.3C77.9,9.9,77.3,9.6,77.1,9.9z"/>
</g>
<path fill="#0187C7" d="M20.8,10.7c1,0,2,0,3,0c0.6,4.2,1.3,8.3,1.8,12.5c1.2-1.5,2-3.3,2.6-5.1c0.8-2.4,0.8-4.9,0.8-7.3
	c0.9,0,1.9,0,2.8,0c0.9,5.1,1.6,10.1,2.5,15.2c-1.2,0-2.4,0.1-3.6,0c-0.4-2.5-0.7-4.9-1-7.4c-0.7,1.9-1.4,3.8-2.6,5.5
	c-1.7,2.5-4.2,4.6-7.1,5.6c-2.8,1.1-5.8,1.2-8.7,0.4c-3.1-0.8-5.9-2.6-8-5.1c-1.7-2.1-3.1-4.5-3.5-7.2c0.9,2.6,2.5,5,4.6,6.7
	c2.3,2,5.3,3.1,8.3,3.6c3.4,0.5,6.9-0.1,9.8-1.8c-0.2-2.5-0.6-5.1-0.9-7.6c-1.1,3.2-3.9,5.6-7,6.7c-1.1,0.4-2.4,0.5-3.6,0.4
	c2.7-0.5,5-2.3,6.5-4.6C19.6,18,20.5,14.3,20.8,10.7z"/>
<path fill="#0185C5" d="M36.3,10.7c0.8,0,1.7,0,2.5,0c0,0.9,0,1.8,0,2.7c-0.8,0-1.7,0-2.5,0C36.3,12.5,36.3,11.6,36.3,10.7z"/>
<g>
	<path fill="#0187C7" d="M49.4,10.7c0.8,0,1.7,0,2.5,0c0,5,0,10.1,0,15.2c-0.8,0-1.7,0-2.5,0c0-0.5,0-0.9,0-1.4
		c-1.3,1-2.9,1.7-4.6,1.3c-1.8-0.3-3.2-1.9-3.6-3.6c-0.3-1.5-0.3-3.1,0.3-4.5c0.6-1.4,1.9-2.4,3.4-2.7c1.5-0.4,3.1-0.1,4.5,0.6
		C49.4,13.9,49.4,12.3,49.4,10.7z M44.5,17.9c-0.6,1-0.7,2.3-0.4,3.4c0.3,1.2,1.4,2.3,2.7,2.3c1,0.1,1.9-0.3,2.6-0.9
		c0-1.7,0-3.3,0-5c-0.6-0.4-1.1-0.8-1.8-1C46.4,16.6,45.1,17,44.5,17.9z"/>
</g>
<path fill="#0085C6" d="M36.4,14.8c0.8-0.1,1.6,0,2.5,0c0,3.7,0,7.3,0,11c-0.8,0-1.7,0-2.5,0c0-3.5,0-7,0-10.5
	C36.4,15.2,36.4,14.9,36.4,14.8z"/>
<g>
	<path fill="#0287C7" d="M68.8,15.5c1.8-1,4.3-1,5.9,0.4c0.8,0.6,1,1.6,1,2.6c0,2.2,0,4.4,0,6.6c-0.4,0.7-1.2,0.6-1.9,0.5
		c-0.1-0.3-0.2-0.7-0.3-1c-1.6,1.8-4.8,1.7-6.2-0.2c-1-1.3-0.8-3.3,0.4-4.4c1.5-1.4,3.8-1.3,5.7-1.1c0-0.8,0-1.7-0.8-2.2
		c-1.6-0.9-4.1-0.2-4.8,1.5c-0.3-0.2-0.6-0.3-0.9-0.5C67.4,17,67.8,16,68.8,15.5z M69.7,20.8c-1,0.7-1,2.3,0,3
		c1.1,0.8,2.8,0.5,3.6-0.5c0-0.8,0-1.5,0-2.3C72.3,20.1,70.8,20.1,69.7,20.8z"/>
</g>
<g>
	<path fill="#0286C6" d="M54.9,17.2c1.6-2.5,5.4-3.3,7.7-1.4c1.5,1.2,2.2,3.2,2.1,5c-2.7,0-5.4,0-8,0c0.1,1,0.7,1.9,1.5,2.5
		c1.8,1,4.3,0.5,5.4-1.2c0.3,0.2,0.6,0.3,1,0.5c-0.6,1-1.3,2-2.4,2.6c-2,1.1-4.6,0.9-6.3-0.6C53.8,22.9,53.4,19.5,54.9,17.2z
		 M57.5,17.5c-0.5,0.5-0.6,1.2-0.7,1.8c1.8,0,3.7,0,5.5,0C62,18.4,61.8,17.5,61,17C60,16.2,58.3,16.4,57.5,17.5z"/>
</g>
<path fill="#147DAF" d="M73.5,24.6c0.1,0.3,0.2,0.7,0.3,1c0.7,0,1.5,0.2,1.9-0.5c0,0.3,0,0.5,0,0.8c-0.8,0-1.5,0-2.3,0
	C73.4,25.5,73.4,25.1,73.5,24.6z"/>
</svg>
