<?xml version="1.0" encoding="utf-8"?>
<!-- Generator: Adobe Illustrator 18.1.1, SVG Export Plug-In . SVG Version: 6.00 Build 0)  -->
<svg version="1.1" id="图层_1" xmlns="http://www.w3.org/2000/svg" xmlns:xlink="http://www.w3.org/1999/xlink" x="0px" y="0px"
	 viewBox="0 0 124.2 13.3" enable-background="new 0 0 124.2 13.3" xml:space="preserve">
<g>
	<path fill="#25272B" d="M113.7,0c0.6,0,1.2,0,1.8,0c0.1,0.2,0.4,0.5,0.5,0.7c2.6,0.1,5.3-0.1,7.9,0.1c0.1,0.1,0.3,0.4,0.4,0.5
		c-1,0.1-2.1,0.2-3.1,0.2c0,0.3,0.1,0.9,0.1,1.1c1,0,1.9-0.1,2.9,0.2c0,0.1-0.1,0.4-0.2,0.5c-5.6,0.2-11.2,0-16.8,0.1
		c-0.8-0.1-1.8,0.2-2.3-0.5c1-0.1,2.1-0.2,3.1-0.2c0-0.3,0-1-0.1-1.3c-0.9-0.2-2.6,0.6-2.9-0.7c2.7-0.1,5.4,0,8.1-0.1
		C113.2,0.5,113.5,0.2,113.7,0z M110.3,2.6c2.8,0,5.6,0,8.4,0c0-0.3,0.1-1,0.1-1.3c-2.8,0-5.6,0-8.4-0.1
		C110.3,1.8,110.3,2.2,110.3,2.6z"/>
</g>
<g>
	<path fill="#DD031E" d="M45.4,0.8c1.8-0.9,3.9-0.9,5.8-0.4c1.2,0.3,2.5,1.3,2.4,2.7c0.2,1.9-1.9,2.7-3.3,3.3c1.1,0.7,2.1,1.9,3.5,2
		c0.3-0.6,0.6-1.3,0.9-1.9c0.8,0,1.5,0.1,2.3,0.1c-0.5,1-1.1,2-1.6,3c1.4,0.9,2.9,1.9,4.2,3c-1.3,0-2.8,0.4-3.9-0.6
		c-0.7-0.3-1.4-1.3-2.2-0.7c-2.3,1.7-5.5,2.2-8.2,1.2c-1.6-0.6-2.9-2.4-2.2-4.1c0.4-1.3,1.8-1.7,2.9-2.4C45.6,5.2,44,4.8,44,3.6
		C43.8,2.5,44.4,1.3,45.4,0.8z M46.6,2.2c-0.4,0.2-0.6,0.8-0.5,1.3c0.7,0.7,1.5,1.3,2.5,1.7c0.8,0,1.6-0.6,2.3-1
		c0.8-0.3,0.8-1.7,0-2.1C49.5,1.5,47.9,1.5,46.6,2.2z M45.1,8.7c-0.6,1.4,1,2.5,2.2,2.7c1.8,0.2,3.7-0.2,5.1-1.4
		c-1.4-0.9-2.8-1.8-4.2-2.8l-0.5,0C46.8,7.6,45.9,8,45.1,8.7z"/>
</g>
<g>
	<path fill="#26272D" d="M94.1,0.7c0.2-0.1,0.5-0.4,0.7-0.6c0.3,0,1,0,1.4-0.1c0.2,0.1,0.6,0.4,0.7,0.6c2,0,4-0.1,6,0.1
		c-0.1,0.1-0.3,0.4-0.5,0.6c-1.9,0.1-3.8,0-5.7,0.1c0,0.3,0,1,0.1,1.4c1.8,0,3.7,0,5.5,0c0,1.5,0,2.9,0,4.4c-4.4,0.1-8.9,0-13.3,0
		c0-1.5,0-3-0.1-4.5c1.8,0.1,3.7,0.1,5.5,0.1c0-0.3,0-1,0-1.4c-1.8,0-3.6,0.1-5.4-0.1c-0.1-0.2-0.2-0.5-0.3-0.6
		C90.5,0.6,92.3,0.6,94.1,0.7z M90.9,3.5c0,1,0,1.9,0,2.9c0.6,0,1.2,0,1.8,0c0-1,0-2-0.1-2.9C92.1,3.5,91.5,3.5,90.9,3.5z M94.7,3.4
		c0,1,0,2,0,3c0.7,0,1.3,0,2,0c0-1,0-2,0.1-3C96.1,3.4,95.4,3.4,94.7,3.4z M98.7,3.4c0,1,0,2,0,3c0.6,0,1.1,0,1.7,0c0-1,0-2,0-2.9
		C99.8,3.5,99.3,3.4,98.7,3.4z"/>
</g>
<path fill="#DE031B" d="M0,0.5c4.4,0,8.9-0.1,13.3,0c2.6,0,5.3,1.5,6.1,4c1.4,3.6-1.4,7.9-5.2,8.2c-4.7,0.1-9.5,0-14.2,0
	c0-2.7,0-5.4,0-8.1c0.7,0.2,1.9-0.4,2.3,0.4c0,1.9-0.2,3.8,0.1,5.6c4,0,8.1,0.2,12.1-0.2c2.7-0.6,4-4.1,2.3-6.2
	c-1.3-1.7-3.6-1.7-5.6-1.7c-3.7,0-7.4,0-11.2,0C0,2,0,1.2,0,0.5z"/>
<path fill="#DC021B" d="M25.2,1c1.9-0.7,3.9-0.5,5.9-0.5c3.3,0.1,6.6-0.1,9.9,0c0,0.7,0,1.4,0,2.1c-4.4,0.1-8.8-0.1-13.3,0.1
	c-1.6,0-3.3,0.9-3.9,2.4c-0.6,1.6-0.3,3.6,1.1,4.6c1.8,1.4,4.2,0.8,6.2,1c3.3,0.2,6.5-0.3,9.8,0.1c0,0.6,0,1.3,0,2
	c-4.4,0.2-8.8-0.1-13.2,0c-2.7,0.1-5.4-1.5-6.1-4.2C20.4,5.7,22.3,2.1,25.2,1z"/>
<path fill="#D9021B" d="M59.1,5.2c0.5-2.3,2.4-4,4.7-4.5c2-0.3,4-0.1,5.9-0.2c3,0,6-0.1,9.1,0.1c0,0.7,0,1.3,0,2c-4,0-8,0-12,0
	c-1.4,0.1-3,0-4.2,1c-1.9,1.6-1.7,5,0.4,6.3c1.3,1.1,3.1,0.7,4.6,0.8c3.7,0.1,7.5,0,11.2,0.1c0,0.7,0,1.3,0,2c-4.7,0-9.4,0.1-14.2,0
	C61,12.7,58.2,8.7,59.1,5.2z"/>
<path fill="#4E4D51" d="M83.9,1.3c-0.1-1.1,1.4-0.6,2-0.7c0.8,0.1,2.3-0.4,2.3,0.9C86.7,1.4,85.3,1.6,83.9,1.3z"/>
<path fill="#28272D" d="M84.4,2.7c1.1,0,2.2,0,3.4,0l0,0.6c-0.3,0-0.8,0.1-1,0.1c-0.3,3.3,0,6.6-0.1,9.9c-0.8,0-1.5,0-2.3,0
	C84.4,9.7,84.4,6.2,84.4,2.7z"/>
<g>
	<path fill="#28292F" d="M105.4,4.6c6,0,12.1,0,18.1,0c0,1.4-0.1,2.8-0.1,4.2c-6-0.1-12,0.1-18-0.1C105.5,7.4,105.5,6,105.4,4.6z
		 M107.7,5.3c0,0.3,0,0.8,0.1,1c4.4-0.1,8.9,0,13.3,0c0-0.3,0.1-0.8,0.1-1.1C116.7,5.4,112.2,5.1,107.7,5.3z M107.8,7
		c0,0.3-0.1,0.9-0.1,1.2c4.5,0,9,0,13.5,0c0-0.3,0-0.9,0-1.2C116.7,7,112.3,7.1,107.8,7z"/>
</g>
<path fill="#E0021A" d="M26.1,6.1c0.4-0.4,1-0.6,1.6-0.6c4.4,0,8.8,0,13.3,0c0,0.7,0,1.4-0.1,2.1c-4.9,0-9.8,0.2-14.7-0.1
	C26.2,7.1,26.1,6.6,26.1,6.1z"/>
<path fill="#DD021B" d="M64.1,6c0.5-0.5,1.2-0.4,1.9-0.4c4.3,0.1,8.6,0,12.8,0c0,0.7,0,1.4,0,2.1c-4.9,0-9.9,0.1-14.8-0.1
	C64,7.1,63.8,6.5,64.1,6z"/>
<path fill="#26272D" d="M88.2,8.2C93,8.2,97.8,8,102.6,8.3c0.1,0.1,0.2,0.4,0.3,0.6c-4.9,0-9.8,0.1-14.7,0L88.2,8.2z"/>
<path fill="#282931" d="M88.4,9.9c0.6,0,1.3,0.1,1.9,0.1c0,1.1,0,2.2,0,3.3c-0.6,0-1.3,0-1.9,0C88.4,12.1,88.4,11,88.4,9.9z"/>
<path fill="#27262E" d="M91.5,9.9c0.5,0,1.1,0.1,1.6,0.1c0.1,0.8,0.1,1.6,0.1,2.4c1.4,0.1,2.8,0.3,4.1,0c0.8-0.6,1.1-1.6,1.8-2.3
	c1.1-0.2,2.3-0.1,3.5-0.1c0,1.1,0,2.2,0,3.3c-0.4,0-1.3,0-1.7,0c0-0.9,0.1-1.9-0.3-2.7c-0.8,0.9-1.4,2.1-2.4,2.7
	c-2.2,0.1-4.4,0-6.5,0C91.5,12.1,91.4,11,91.5,9.9z"/>
<path fill="#1E1D26" d="M94.6,10c0.7,0,1.4,0,2.1,0c0,0.6-0.1,1.2-0.1,1.7c-0.7-0.1-1.4-0.1-2.1-0.2C94.6,11,94.6,10.5,94.6,10z"/>
<path fill="#27262E" d="M105.3,10c0.7,0,1.4,0,2.1,0c0,1.1,0,2.2,0,3.3c-0.7,0-1.4,0-2.1,0C105.3,12.2,105.3,11.1,105.3,10z"/>
<path fill="#232329" d="M108.5,10c0.7,0,1.4,0,2.1,0c0,0.8,0,1.7,0.1,2.5c2.2,0,4.4,0.1,6.6,0c1.1-0.4,1.5-1.7,2.1-2.5
	c1.4,0,2.9,0,4.3,0c0,1.1,0,2.2,0,3.3c-0.6,0-1.3,0-1.9,0c0-1,0-1.9-0.1-2.9c-1.1,0.6-1.6,1.9-2.5,2.8c-3.4,0.2-6.8,0.1-10.2,0.1
	C108.7,12.2,108.6,11.1,108.5,10z"/>
<path fill="#201B25" d="M113.3,10.1c0.9,0,1.9,0,2.8,0c0,0.5,0,1,0,1.5c-1,0.1-2,0.1-3,0C113.2,11.1,113.3,10.6,113.3,10.1z"/>
</svg>
