<?xml version="1.0" encoding="utf-8"?>
<!-- Generator: Adobe Illustrator 18.1.1, SVG Export Plug-In . SVG Version: 6.00 Build 0)  -->
<svg version="1.1" id="图层_1" xmlns="http://www.w3.org/2000/svg" xmlns:xlink="http://www.w3.org/1999/xlink" x="0px" y="0px"
	 viewBox="0 0 97.9 17.5" enable-background="new 0 0 97.9 17.5" xml:space="preserve">
<path fill="#0E0504" d="M56,0.1c1.2-0.5,2.8,0.5,2.5,1.9c0,1.4-2,2.2-3,1.2C54.5,2.4,54.7,0.5,56,0.1z"/>
<path fill="#100403" d="M45.1,3.6c1,0,2,0,3,0c0.1,0.5,0.1,1.1,0.2,1.6c1.3,0,2.6,0,3.9,0c0,0.7,0,1.3,0,2c-1.3-0.1-2.7-0.1-4-0.1
	c0,2.4,0,4.9,0,7.4c0.2,1.9,2.7,1,3.9,1.1c-0.1,0.8-0.4,1.7-1.3,1.8c-1.9,0.3-5,0.5-5.6-1.9c-0.2-2.8,0-5.5-0.1-8.3
	c-0.7,0-1.4,0-2.2,0c0-0.6,0-1.2,0-1.8c0.8,0,1.5,0,2.3,0C45.1,4.8,45.1,4,45.1,3.6z"/>
<path fill="#110404" d="M34.3,5.2c0-0.5,0-1.1,0.1-1.6c1,0,2,0,3,0c0,0.5,0,1,0,1.6c1.4,0,2.7,0,4.1,0c0,0.6,0,1.2,0,1.8
	c-1.4,0-2.8,0-4.1,0c0.1,2.6-0.1,5.1,0.1,7.7c0.8,1.3,2.6,0.6,3.9,0.8c-0.2,0.5-0.4,1.1-0.5,1.6c-1.9,0.3-4.3,0.8-5.8-0.7
	c-0.7-0.7-0.6-1.7-0.6-2.6c0-2.3,0-4.5,0-6.8c-0.8,0-1.5,0-2.3-0.1c0-0.6,0-1.2,0-1.9C32.9,5.2,33.6,5.2,34.3,5.2z"/>
<path fill="#0A0302" d="M64.4,3.7c1.6,0,3.1,0,4.7,0c0,2.5,0,5.1,0,7.6c-0.8,0-1.6,0-2.5,0c0-2,0-4,0-6.1c-0.8,0-1.5,0-2.3,0
	C64.3,4.7,64.4,4.2,64.4,3.7z"/>
<path fill="#0A0303" d="M71,11.3c-0.4-2.5-0.1-5.1-0.2-7.7c0.8,0,1.6,0,2.5,0c0,0.7,0,1.4,0,2.1c2-0.5,4.1-0.8,6.1-1
	c0,0.5,0,1,0,1.5c-2,0.4-4.1,0.7-6.2,1c0,0.9,0,1.8,0,2.8c2.1,0,4.1,0,6.2,0c0,0.3,0,1,0,1.4C76.6,11.3,73.8,11.3,71,11.3z"/>
<path fill="#0C0707" d="M89.2,3.5c0.8,0,1.5,0,2.3,0c0.1,0.2,0.2,0.7,0.3,0.9c1.9,0.4,3.9,0.1,5.9,0.2c0,0.4,0.1,1.1,0.1,1.5
	c-4.9,0.2-9.8,0-14.7,0.1c0-0.5,0-1,0-1.6c2,0,4.1,0,6.1,0C89.1,4.4,89.1,3.8,89.2,3.5z"/>
<path fill="#100403" d="M0,5.2c1.1,0,2.3,0,3.4,0c1.5,3,2.7,6,4.3,8.9c1.4-3,2.8-6,4.2-8.9c1.2,0,2.4,0,3.5,0
	c-2,3.7-3.6,7.5-5.5,11.3c-0.5,1.6-2.6,0.8-3.8,0.9C3.7,13.5,2.2,9.1,0,5.2z"/>
<path fill="#110404" d="M16.9,8.3c-0.1-1.8,1.6-3.3,3.3-3.2c3,0,6,0.1,9,0c0,4.1,0,8.2,0,12.3c-1,0-2,0-2.9-0.1
	c-0.1-3.4,0-6.9,0-10.3c-1.6,0-3.2,0-4.8,0c-0.6,0-1.5,0.2-1.5,0.9c-0.1,2.3-0.2,4.6,0.1,6.9c1.1,1.3,3,0.6,4.5,0.7
	c0.9,0.4,0.2,1.6-0.5,1.8c-1.4,0.2-2.9,0.2-4.3,0.1c-1.4-0.1-2.8-1.2-2.8-2.6C16.8,12.6,16.9,10.5,16.9,8.3z"/>
<path fill="#0C0101" d="M55.2,17.4c-0.1-4.1,0-8.1,0-12.2c1,0,2,0,3,0c0,4.1,0,8.1,0,12.2C57.2,17.4,56.2,17.4,55.2,17.4z"/>
<path fill="#0C0504" d="M93.6,7c0.8-0.2,1.7-0.2,2.5,0c-0.2,0.4-0.5,0.8-0.7,1.2c0.8,0,1.7,0.1,2.5,0.1c0,1,0,2,0.1,3
	c-0.8,0-1.6,0.1-2.3,0.1c0-0.5,0-1.1,0-1.6c-3.5,0.1-6.9-0.1-10.3,0c0,0.5,0,1,0,1.5c-0.8,0-1.6,0-2.4,0c0-1,0-2.1,0-3.1
	c0.9,0,1.7,0.1,2.6,0.1c-0.1-0.4-0.2-1.2-0.2-1.5c0.7,0,1.3,0.1,2,0.1c0.2,0.4,0.4,0.9,0.6,1.3c1.8,0,3.7,0.1,5.5,0
	C93.4,7.9,93.5,7.3,93.6,7z"/>
<path fill="#0B0304" d="M89.1,11.1c0.8,0,1.6,0,2.4,0.1c0,0.3,0.1,0.8,0.1,1c1.7,0.3,3.6-0.2,5.3,0.3c0.9,1.1,0.3,2.8,0.5,4.1
	c-0.8,0-1.7,0-2.5,0c0-0.9,0-1.9,0-2.8c-1.1,0-2.3,0-3.4,0c0,1.2,0,2.4,0,3.6c-0.8,0-1.7,0-2.5,0c0-1.2,0-2.4,0-3.7
	c-1.1,0-2.2,0-3.3,0c0,0.9,0,1.9,0,2.8c-0.8,0-1.7,0-2.5,0c0.1-1.3-0.2-2.8,0.5-4c1.7-0.6,3.6-0.2,5.3-0.3
	C89.1,12,89.1,11.4,89.1,11.1z"/>
<path fill="#0B0405" d="M70.8,12.3c0.8,0,1.6,0,2.4,0c0.1,0.4,0.1,0.8,0.2,1.2c2,0,4,0,6.1,0c0,0.5,0,1,0,1.5c-2,0-4.1,0-6.1,0
	c0,0.8,0,1.6,0,2.4c-0.8,0.1-1.6,0.1-2.5,0.1c0-0.8,0-1.6,0-2.4c-2.1-0.1-4.3,0-6.4,0c0-0.5,0-1,0-1.5c2.1,0,4.3,0,6.4,0
	C70.8,13.2,70.8,12.6,70.8,12.3z"/>
</svg>
