<?xml version="1.0" encoding="utf-8"?>
<!-- Generator: Adobe Illustrator 18.1.1, SVG Export Plug-In . SVG Version: 6.00 Build 0)  -->
<svg version="1.1" id="图层_1" xmlns="http://www.w3.org/2000/svg" xmlns:xlink="http://www.w3.org/1999/xlink" x="0px" y="0px"
	 viewBox="0 0 76.5 16.8" enable-background="new 0 0 76.5 16.8" xml:space="preserve">
<path fill="#F84A01" d="M2.8,0.9c2.9-1.7,6.5-0.8,9.2,1c-0.5,1.1-1.1,2.1-1.8,3C8.3,3.8,5.7,2.5,3.9,4.3c0.2,0.5,0.4,0.9,0.6,1.4
	c2.2,0.9,4.8,1.2,6.7,2.7c1.7,1.7,1.4,4.6,0,6.4c-1.6,2-4.5,2.2-6.9,1.6c-1.6-0.4-3.3-1-4.4-2.3c0.3-1,1.2-1.7,1.8-2.5
	c1.9,0.9,3.9,2.2,6.1,1.5C9,12.8,9,11.2,8,10.8c-1.8-0.8-3.8-1-5.5-2C-0.3,7.1,0,2.4,2.8,0.9z"/>
<g>
	<path fill="#F84B01" d="M51.2,0.1c2.1-0.4,4.4,0.1,6.2,1.3c2.8,1.8,4.4,5.4,3.6,8.6c-0.8,4.1-5,7.3-9.2,6.7
		c-3.8-0.4-7.2-3.7-7.4-7.6C43.9,5,47.1,0.8,51.2,0.1z M51.8,3.6c-2.3,0.5-4.2,2.7-4,5.1c0.2,2.6,2.6,4.7,5.2,4.5
		c2.6-0.1,4.9-2.7,4.5-5.4C57.3,5.1,54.4,3,51.8,3.6z"/>
</g>
<path fill="#DE5016" d="M14.3,0.4c1.2,0,2.5-0.1,3.7,0c-0.1,3.4,0.2,6.9-0.1,10.4c-0.1,0.1-0.2,0.4-0.3,0.5
	c-0.4-3.4,0.3-6.8-0.2-10.2C16.5,1,15.7,1,14.9,1c-0.1,3.9,0.1,7.8,0,11.8c-0.7-1.7-0.5-3.5-0.5-5.3C14.3,5.1,14.3,2.8,14.3,0.4z"/>
<path fill="#F84900" d="M24.3,0.4c1.2,0,2.4,0,3.6,0c0,3.3,0,6.6,0,10c0,2.4-1.4,4.9-3.7,5.8c-3.3,1.6-8.1,0.2-9.2-3.4
	c0.1-3.9-0.1-7.8,0-11.8c0.8,0,1.6,0,2.4,0.1c0.5,3.4-0.2,6.8,0.2,10.2c0.1-0.1,0.2-0.4,0.3-0.5c0.5,1.2,1.4,2.5,2.9,2.5
	c1.7,0.3,3.4-1,3.5-2.8C24.3,7.1,24.2,3.8,24.3,0.4z"/>
<g>
	<path fill="#F94901" d="M30.3,0.4c2.3,0,4.7,0,7,0c2.3,0,4.8,1.4,5.4,3.7c0.9,2.6-0.2,5.8-2.6,7c-1.9,1.1-4.1,0.7-6.1,0.7
		c-0.2,1.6-0.1,3.1-0.1,4.7c-1.2,0-2.4,0-3.6,0C30.3,11.2,30.3,5.8,30.3,0.4z M33.8,3.9c0,1.5,0,3,0,4.6C35.4,8.3,37,8.8,38.4,8
		c1.4-0.9,1.3-3.3-0.3-3.9C36.7,3.6,35.2,3.9,33.8,3.9z"/>
</g>
<g>
	<path fill="#FB4C01" d="M63.1,0.4c2.6,0,5.2,0,7.8,0c1.7,0,3.3,0.9,4.4,2.2c1.2,1.8,1.3,4.4,0,6.3c-0.6,0.9-1.5,1.4-2.3,2.1
		c1.1,1.9,2.5,3.6,3.5,5.6c-1.3,0-2.7,0-4,0c-1.1-1.7-2.2-3.4-3.3-5c-0.8,0-1.6,0-2.3,0c-0.2,1.7-0.1,3.4-0.1,5c-1.2,0-2.4,0-3.7,0
		C63.1,11.2,63.1,5.8,63.1,0.4z M66.7,3.9c0,1.4,0,2.9,0,4.3c1.5-0.1,3.1,0.2,4.6-0.3c1.6-0.7,1.5-3.2,0-3.9
		C69.8,3.6,68.2,3.9,66.7,3.9z"/>
</g>
<path fill="#F54001" d="M51.9,6.3c1.3-0.6,2.9,0.4,2.8,1.9c0.2,1.7-2,2.5-3.2,1.5C50.2,9,50.6,6.9,51.9,6.3z"/>
</svg>
