<?xml version="1.0" encoding="utf-8"?>
<!-- Generator: Adobe Illustrator 18.1.1, SVG Export Plug-In . SVG Version: 6.00 Build 0)  -->
<svg version="1.1" id="图层_1" xmlns="http://www.w3.org/2000/svg" xmlns:xlink="http://www.w3.org/1999/xlink" x="0px" y="0px"
	 viewBox="0 0 81.4 28" enable-background="new 0 0 81.4 28" xml:space="preserve">
<g>
	<path fill="#D6021F" d="M0,1.6C-0.2,0.4,1-0.1,1.9,0c5.5,0.1,11-0.2,16.6,0.2l0,0.2c-0.1,9.1,0.1,18.2-0.1,27.3v0.2
		C13.4,28.1,8.3,27.9,3.2,28c-0.9,0-1.9,0.1-2.7-0.3c-0.7-0.6-0.5-1.5-0.6-2.3C0.1,17.4,0,9.5,0,1.6z M5.8,3.7
		C5.4,5.6,5.7,7.6,5.6,9.5C4.5,9.3,3.4,8.9,2.3,8.7c-0.5,0.6-0.7,1.3-1,1.9c1.4,0.2,2.9,0.5,4.3,0.7c0,4.1,0,8.3,0,12.4
		c-0.1,0.8,0.7,1.5,1.5,1.5c1.7,0.1,3.3,0.1,5,0c1,0,1.5-1.1,1.4-2c0-4,0-8,0-12c1.4-0.1,2.8-0.4,4.1-0.6c-0.2-0.6-0.1-1.5-0.9-1.8
		c-1.1,0.1-2.1,0.4-3.2,0.6c-0.1-1.8,0.1-3.6-0.1-5.4C13.1,2.3,11,2.7,9.6,2.6C8.3,2.7,6.5,2.3,5.8,3.7z"/>
</g>
<path fill="#A5A4A0" d="M79.6,0.7c0.5-0.6,1.2-0.1,1.9,0.1c-0.1,0.7,0.1,1.8-0.8,1.9C79.5,3.2,78.5,1.3,79.6,0.7z"/>
<path fill="#B40C26" d="M18.5,0.4C18.6,0.6,18.9,1,19,1.2C19.1,9.1,19,17,19,24.9c-0.1,0.9,0.2,2.1-0.6,2.7
	C18.6,18.5,18.4,9.5,18.5,0.4z"/>
<path fill="#141114" d="M25,1.5c0.5,0,1,0,1.5,0c0,1.6,0,3.2,0,4.8c1.9,0,3.8,0,5.7,0c0-1.6,0-3.2,0-4.8c0.5,0,1.1,0,1.6,0
	c0.1,3.7,0.1,7.5,0,11.2c-0.5,0.1-1,0.1-1.5,0.1c0-1.7,0-3.4,0-5.1c-1.9,0.1-3.8,0-5.7,0.1c0,1.7,0,3.3,0,5c-0.4,0-1.2,0-1.5,0
	C24.9,9,25,5.2,25,1.5z"/>
<path fill="#100B0C" d="M55.7,1.5c0.5,0,1.1,0,1.6,0c0,0.9,0,1.9,0,2.8c-0.5,0-1,0-1.6,0C55.7,3.4,55.7,2.4,55.7,1.5z"/>
<path fill="#141011" d="M59.2,1.5c0.5-0.1,1.1-0.1,1.6-0.1c0,1.8,0,3.6,0,5.4c1.8-1.7,3.6-3.5,5.4-5.3c0.7,0,1.5,0,2.2-0.1
	c-1.9,1.8-3.7,3.8-5.7,5.5c2,1.9,3.9,3.9,5.8,5.8c-0.7,0-1.5,0-2.2,0c-1.8-1.8-3.4-3.9-5.5-5.4c-0.1,1.8,0,3.6-0.1,5.4
	c-0.5,0-1.1,0-1.6-0.1C59.1,9,59.2,5.3,59.2,1.5z"/>
<g>
	<path fill="#151114" d="M36.9,1.7c1-0.5,2.2-0.2,3.3-0.3c1.3,0.1,2.9-0.3,4,0.8C44.9,3,44.8,4.1,44.8,5c-0.1,1.9,0.1,3.7-0.1,5.6
		c0,1.1-1,2-2,2.1c-1.6,0.1-3.1,0.1-4.7,0c-1.3,0-2.3-1.4-2.3-2.6c0-2.1,0-4.2,0-6.3C35.7,3,36.2,2.1,36.9,1.7z M37.8,3.1l-0.2,0.1
		c-0.3,2.3-0.2,4.8-0.1,7.1c0.1,1.2,1.5,0.8,2.3,0.9c1.1-0.1,2.3,0.3,3.3-0.4c0.5-1.8,0.1-3.6,0.2-5.4c-0.1-0.8,0.2-2-0.7-2.4
		C41,2.9,39.3,2.8,37.8,3.1z"/>
</g>
<path fill="#161215" d="M46.8,1.5c0.4,0,1.2,0,1.6,0c0,3.2-0.2,6.4,0.1,9.6c1.7,0.3,3.5,0,5.3,0.1c0,0.4,0,1.2,0,1.6
	c-1.7,0-3.5,0.1-5.2,0c-1.2,0-1.9-1.2-1.8-2.2C46.8,7.5,46.8,4.5,46.8,1.5z"/>
<path fill="#131114" d="M69.8,3.3C69.7,2.4,70.5,2,71,1.5c2.2,0.1,4.4,0,6.6,0c0,0.4,0,1.2,0,1.6c-2.1,0-4.2,0-6.3,0
	c0,1,0,2.1,0,3.1c2,0,3.9,0,5.9,0c0,0.4,0.1,1.1,0.1,1.5c-2,0-4,0-6,0c0,1.1,0,2.2,0.1,3.3c2.1,0.1,4.1,0.1,6.2,0.1
	c0,0.4,0,1.2,0,1.6c-1.9,0-3.8,0-5.7,0c-1.2,0.1-2.3-1.1-2.2-2.2C69.8,8.1,69.7,5.7,69.8,3.3z"/>
<g>
	<path fill="#FEFEFE" d="M5.8,3.7c0.7-1.5,2.5-1,3.9-1.1c1.4,0,3.5-0.4,3.9,1.5c0.1,1.8,0,3.6,0.1,5.4c1.1-0.2,2.1-0.5,3.2-0.6
		c0.7,0.2,0.6,1.2,0.9,1.8c-1.4,0.3-2.7,0.5-4.1,0.6c0,4,0,8,0,12c0.1,0.9-0.4,2-1.4,2c-1.7,0.1-3.4,0.1-5,0
		c-0.8-0.1-1.6-0.7-1.5-1.5c0-4.1,0-8.3,0-12.4c-1.5-0.1-2.9-0.4-4.3-0.7c0.3-0.7,0.5-1.4,1-1.9c1.1,0.3,2.1,0.6,3.2,0.8
		C5.7,7.6,5.4,5.6,5.8,3.7z M8,3.8c0,1.9,0,3.8,0,5.7c1,0,2,0,3,0c0-1.8,0-3.7,0-5.5C10.1,3.5,9.1,3.5,8,3.8z M8,11.3
		c0.1,4.3-0.1,8.7,0.1,13c1,0,1.9,0,2.9,0c0.1-4.4,0-8.7,0-13C10.1,11.2,9,11.3,8,11.3z"/>
</g>
<path fill="#D50220" d="M8,3.8c1-0.3,2.1-0.4,3.1,0.1c0,1.8,0,3.7,0,5.5c-1,0-2,0-3,0C8.1,7.6,8,5.7,8,3.8z"/>
<path fill="#141013" d="M55.7,5.5c0.4,0,1.2,0,1.6,0c0,2.4,0,4.8,0,7.2c-0.4,0-1.2,0-1.6,0C55.7,10.3,55.7,7.9,55.7,5.5z"/>
<path fill="#D5021F" d="M8,11.3c1,0,2,0,3.1,0c0,4.3,0,8.7,0,13c-1,0-1.9,0-2.9,0C7.9,19.9,8.2,15.6,8,11.3z"/>
<path fill="#09090B" d="M39.8,15.3c0.3,0,0.8,0,1,0c0,0.2,0,0.7,0.1,0.9c1.3,0,2.7,0,4,0c0-0.2,0-0.7,0-0.9c0.3,0,0.8,0,1.1-0.1
	c0.1,0.2,0.2,0.7,0.3,1c0.6,0,1.2,0,1.8,0c0,0.2,0.1,0.6,0.1,0.7c-0.7,0-1.3,0-2,0c0.1,0.2,0.1,0.7,0.2,1c-0.3,0-0.9-0.1-1.2-0.1
	l-0.4-0.6c0.3,0,0.8-0.1,1-0.2c-1.6-0.1-3.2-0.2-4.8-0.1c-0.1,0.2-0.2,0.6-0.3,0.8c-0.3,0-1,0.1-1.3,0.1c0.1-0.2,0.2-0.7,0.2-0.9
	c-0.7-0.1-1.4-0.1-2.1-0.2c0.1-0.2,0.3-0.5,0.4-0.7c0.4,0.1,1.2,0.2,1.5,0.2C39.6,16.1,39.8,15.6,39.8,15.3z"/>
<g>
	<path fill="#0B090C" d="M26,15.2c1.4-0.2,1.1,1.1,1.1,2c0.9,0,1.7,0,2.6,0c-0.2,2.4,0.7,5.3-1.3,7.2c0.7,0.6,1.3,1.3,2,1.9
		c-1,0.9-1.9-0.7-2.7-1.2c-0.8,0.8-1.6,1.7-2.8,1.5c0.6-0.8,1.3-1.6,2-2.3c-1.6-1.8-0.9-4.2-1-6.3c-0.3,0-0.8-0.1-1.1-0.1
		c0.1-0.7,0.7-0.8,1.2-0.8C26,16.5,26,15.9,26,15.2z M27.1,18c0,1.9-0.5,3.9,0.5,5.6c1.8-1.3,1-3.8,1-5.6C28.1,18,27.6,18,27.1,18z"
		/>
</g>
<path fill="#0D0D10" d="M30.5,16.3c0.1-0.2,0.3-0.5,0.4-0.6c1.6-0.3,3.2-0.1,4.9-0.1c-0.5,1.5-1.6,2.6-2,4.1
	c0.8,0.1,1.7,0.1,2.5,0.3c-0.1,0.2-0.2,0.5-0.2,0.7c-0.7,0-1.4,0-2.1,0c-0.1,1.9,0.1,3.9-0.2,5.8c-0.8,0-1.5,0.1-2.3,0
	c0.1-0.2,0.2-0.6,0.2-0.8c0.3,0,1,0,1.3,0c0-1.7,0-3.4,0-5.1c-0.9,0-1.7,0-2.6,0l0-0.9c0.9,0,1.7,0,2.6,0.1c0-1.3,0.9-2.3,1.4-3.4
	C33,16.4,31.7,16.4,30.5,16.3z"/>
<g>
	<path fill="#080608" d="M54.2,16.2c0.5-0.4,1.1-0.9,1.8-0.9c0.1,0.2,0.4,0.7,0.5,0.9c1.4,0.1,2.8,0,4.2,0.1c0,0.4,0,1.2,0,1.7
		c-1.2,1-2.4,2.1-3.9,2.8c1.3,0.7,2.7,1,4.2,1.2c-0.1,0.8-0.7,0.8-1.3,0.8c0.1,1.3,0.1,2.5,0,3.8c-2.8,0-5.5,0-8.3,0
		c0-1.3,0-2.6,0-3.9c-0.3,0-0.9,0-1.2,0c0-0.2-0.1-0.6-0.1-0.8c1.4-0.1,2.8-0.5,4.2-1c-0.6-0.4-1.2-0.8-1.8-1.2
		c-0.7,0.4-1.4,0.8-2.1,1c0.5-1.1,1.3-2.1,2.2-3c1.7,0.9,3.7,0.5,5.5,0.6c0.7,0.1,1.8-0.2,1.5-1.2c-2.6,0-5.3-0.1-7.9,0
		c-0.2,0.7-0.5,1.3-1.2,1.7c-0.2-0.8-0.1-1.7,0.2-2.5C51.8,16.2,53,16.3,54.2,16.2z M53.2,19c0.7,0.4,1.5,0.9,2.3,1.1
		c0.8-0.2,1.4-0.8,2.1-1.2C56.1,18.9,54.6,18.8,53.2,19z M51.9,22.6c2.4,0.1,4.7,0.1,7.1,0c-1.2-0.5-2.4-0.9-3.6-1.5
		C54.3,21.8,53,22.1,51.9,22.6z M52.4,23.5c0,0.7,0,1.5,0.1,2.2c2.1,0,4.1,0,6.2,0c0-0.7,0-1.5,0-2.2C56.5,23.5,54.4,23.5,52.4,23.5
		z"/>
</g>
<g>
	<path fill="#060407" d="M41.8,18.4c0.5-0.4,1.4-1,1.8,0c1.3,0.1,2.6-0.1,3.9,0.1c0.1,0.2,0.4,0.5,0.6,0.7c-0.4,0-1.1,0-1.5,0
		c-0.2,0.8-0.5,1.6-0.9,2.4c0.7,0,1.5-0.1,2.2-0.1c0,0.2,0.1,0.6,0.2,0.8c-0.8,0-1.6,0-2.4,0c0.8,1.5,1.8,2.8,2.5,4.3
		c-0.3,0-0.8-0.1-1.1-0.2c-1-1.3-1.7-2.7-2.4-4.1c-0.4,0-1.1-0.1-1.4-0.1c0.1,1.4,0.1,2.9,0.1,4.3c-0.2,0-0.7-0.1-1-0.1
		c0-1.4,0-2.8,0-4.2c-0.7,0-1.4,0.1-1.7,0.8c-0.7,1.2-1.3,2.3-2,3.5c-0.3,0-0.8-0.1-1-0.2c0.9-1.3,1.7-2.7,2.4-4.1
		c-0.8,0-1.6,0-2.4,0l0.1-0.8c0.8,0,1.6,0,2.4,0c-0.4-0.7-0.7-1.5-1.1-2.2c-0.6,0-1.1-0.3-1.4-0.7C39.1,18.4,40.5,18.5,41.8,18.4z
		 M40.2,19.7c0.6,0.7,0.9,2,2.2,1.9c0-0.8,0-1.6,0-2.4C41.7,19.3,40.5,18.8,40.2,19.7z M43.4,19.1c0,0.8,0,1.6,0,2.4
		c1.2,0.3,1.8-0.9,2.2-1.8C45.4,18.8,44.1,19.3,43.4,19.1z"/>
</g>
</svg>
