<?xml version="1.0" encoding="utf-8"?>
<!-- Generator: Adobe Illustrator 18.1.1, SVG Export Plug-In . SVG Version: 6.00 Build 0)  -->
<svg version="1.1" id="图层_1" xmlns="http://www.w3.org/2000/svg" xmlns:xlink="http://www.w3.org/1999/xlink" x="0px" y="0px"
	 viewBox="0 0 72.3 31.6" enable-background="new 0 0 72.3 31.6" xml:space="preserve">
<path fill="#033C1E" d="M53,1.9C53.1,1,53.4-0.3,54.6,0c1-0.1,1.1,1,1.2,1.8c2.3,0.1,4.7,0,7.1,0c0.8,0,1.6,0.6,1.6,1.4
	c0,1.1,0.1,2.2-0.1,3.3c-0.2,1.1-2,1.2-2.3,0.2C62,6,62,5.2,62,4.4c-5,0-9.9,0-14.9,0C47,5.5,47.5,7.2,46,7.5
	c-1,0.1-1.6-0.9-1.4-1.8c0.1-1.2-0.4-3,0.9-3.7C48,1.8,50.5,1.9,53,1.9z"/>
<g>
	<path fill="#033A1C" d="M68.1,0.4c1.7-1.1,4.4,0.4,4.2,2.5C72.2,5.1,69,6,67.7,4.3C66.4,3.3,66.7,1.2,68.1,0.4z M67.7,1.9
		c-0.4,0.7,0,1.7,0.7,2.1c0-0.9,0-1.7,0-2.6c0.9-0.1,1.7,0,2.6,0.1c0,0.9-0.5,1.9,0.4,2.5c0.2-0.6,0.4-1.1,0.2-1.7
		C71.2,0.6,68.5,0.4,67.7,1.9z M69,2c0.3,0.6,0.9,0.5,1.5,0.4C70.1,1.9,69.5,2,69,2z M69.2,3.2c0,0.4,0.1,0.9,0.1,1.3
		c0.5-0.1,0.9-0.2,1.4-0.3C70.3,3.7,69.8,3.3,69.2,3.2z"/>
</g>
<g>
	<path fill="#023B1D" d="M0,2.6c-0.1-0.9,0.7-1.8,1.6-1.8c1,0,2.1,0,3.1,0.1C5.9,1,7,2,7,3.2C7,4.9,6.2,6.4,5.8,8
		C6,10.2,7,12.4,6.9,14.6c-0.4,2-2.9,2.2-4.3,1.2c0,1.3,0.1,2.7,0,4c-0.1,0.8-1.2,1.4-1.9,0.9C0,20.3,0,19.4,0,18.7
		C0,13.3,0,8,0,2.6z M2.6,3.3c0,3.6,0,7.2,0,10.8c0.7,0,1.3-0.1,2-0.1c-0.4-1.9-1-3.7-1.3-5.6c0.3-1.7,1-3.4,1.1-5.1
		C3.8,3.3,3.2,3.3,2.6,3.3z"/>
</g>
<path fill="#033D1F" d="M7.9,1.3c0.4-0.6,1.3-0.6,1.9-0.6c3,0,6,0,9,0c1.2-0.3,2.1,1.6,1,2.3c-0.4,0.1-0.9,0.2-1.3,0.2
	c0.1,4.5,0,8.9,0.1,13.4c0.1,1.4-0.4,2.9-1.7,3.6c-0.9,0.6-2,0.3-2.9,0.4c-0.7,0-1.5,0.1-2.2-0.4c-0.7-0.6-0.3-1.9,0.6-2
	c1-0.1,2,0.1,3-0.1c0.8-0.4,0.6-1.4,0.7-2.1c0-4.2,0.1-8.5-0.1-12.7c-2.4,0-4.8,0.1-7.2,0C7.9,3.3,7.2,2,7.9,1.3z"/>
<g>
	<path fill="#033E20" d="M22.7,1.3c0.5-0.6,1.3-0.5,2-0.5c1.8,0,3.7,0,5.5,0c1-0.1,2.2,0.7,2.2,1.8c0,2.4,0,4.8,0,7.2
		c0,0.7-0.4,1.6-1.1,1.7c-0.9,0.2-1.7,0.1-2.6,0.1c0,0.4,0,0.8,0,1.1c1,0,2,0,3,0.1c0.9,0.3,1.1,1.9,0.2,2.4c-1.1,0.3-2.2,0-3.3,0
		c0,0.6,0,1.3,0,1.9c1-0.1,2-0.3,3-0.3c1.1,0.3,1.1,2.2,0,2.5c-2.6,0.4-5.3,0.6-7.9,0.9C23,20.3,22.3,20,22,19.4
		c-0.1-0.8,0.5-1.6,1.2-1.8c0.9-0.1,1.8,0,2.8-0.1c0-0.8,0-1.5,0-2.3c-1.1,0-2.3,0.1-3.4-0.1c-1.1-0.3-0.8-2.2,0.3-2.3
		c1-0.1,2.1-0.1,3.1-0.1c0-0.4,0-0.8,0-1.2c-1.4,0-3.4,0.5-4-1.2c-0.2-1.9,0-3.8-0.1-5.8C22,3.5,21.7,2.1,22.7,1.3z M28.6,3.2
		c0,0.6,0,1.1,0,1.7c0.5,0,0.9,0,1.4,0c0-0.5,0-1-0.1-1.4C29.6,3,29,3.3,28.6,3.2z M24.5,3.3c0,0.5,0,1,0,1.5c0.5,0,1,0,1.6,0
		c0-0.5,0-1,0-1.6C25.5,3.3,25,3.3,24.5,3.3z M24.4,7.2c0,0.6,0,1.2,0,1.8c0.5,0,1,0,1.6,0c0-0.6,0-1.2,0-1.7
		C25.5,7.3,25,7.3,24.4,7.2z M28.5,7.2c0,0.6,0,1.3,0,1.9c0.5,0,0.9,0,1.4,0c0-0.6,0-1.2,0-1.8C29.4,7.3,29,7.3,28.5,7.2z"/>
</g>
<path fill="#023D1E" d="M33.7,3c-1-0.3-0.8-2.1,0.3-2.2c1.6,0,3.2-0.2,4.7,0.2c1,0.3,0.9,1.5,0.7,2.3c0.9-0.8,1.6-2.1,2.9-2.5
	c1.1-0.1,1.7,1.3,1,2.1c-1.4,1.6-3.1,3.1-4.8,4.5c-0.5,0.5-1.4,1-2.1,0.4c-0.9-0.7-1.8-1.5-2.5-2.5c-0.4-0.9,0.5-1.5,1.1-1.9
	c0.9,0.4,1.6,1.1,2.1,1.9c0.7-0.7,1.5-1.3,2.2-2.1C37.4,3.3,35.5,3.5,33.7,3z"/>
<g>
	<path fill="#023D1E" d="M8.6,5.2c1.8-0.3,3.9-0.4,5.3,1c1.3,1.2,1.1,3.1,1.1,4.7c0,1.5,0,3.2-1.2,4.3c-1.2,1-2.8,0.8-4.2,0.8
		C9,15.8,8.3,16.1,8,15.5c-0.3-0.5-0.3-1-0.3-1.6c0-2.2,0-4.4,0-6.5C7.7,6.6,7.8,5.6,8.6,5.2z M10.3,7.6c-0.1,1.9,0,3.8,0,5.7
		c0.6,0,1.2,0,1.8,0c0.7-1.5,0.4-3.3,0.3-4.9C12.1,7.5,11,7.6,10.3,7.6z"/>
</g>
<path fill="#033C1E" d="M48.1,7.8c-0.9-0.5-0.8-2.2,0.4-2.2c4-0.1,8-0.1,12,0c1.3,0,1.4,2.1,0.3,2.4c-1.6,0.1-3.2-0.1-4.7,0.2
	c0.3,0.9,0.2,2.2,1.1,2.7c0.5-0.4,0.1-1.7,1-1.9c1.4-0.2,2.8-0.1,4.2-0.1c0.6,0,1.4-0.2,1.9,0.4c0.7,0.7,0.5,2.1-0.5,2.3
	c-1.2,0.1-2.4,0-3.6,0c0.4,2.3,1.5,4.7,3.6,5.9c0.8,0.7,1.7-0.8,0.8-1.3c-0.7-0.1-1.8,0.2-2.2-0.7c-0.7-1.1,0.6-2.3,1.7-2.1
	c1.8,0.2,3.8,1.9,3.3,3.9c-0.2,1.5-1.5,2.8-3,2.9c-1.3,0-2.5-0.6-3.4-1.5c-2-1.9-3-4.5-3.5-7.1c-0.1,0-0.2-0.1-0.3-0.1
	c-0.4,2.4,0.3,4.9-0.5,7.2c-0.3,1-1.2,1.9-2.3,1.9c-1.5,0.1-3.1,0.4-4.5-0.4c-0.1-0.8,0.2-1.6,1-1.9c1.1-0.2,2.2,0,3.2-0.1
	c0.3-0.7,0.4-1.5,0.4-2.3c-1.2,0.7-2.3,1.5-3.5,2c-1.8,0.9-3.8,1.4-5.7,2.1c-0.6-0.4-1.3-0.8-1.3-1.6c0-0.8,0.8-1,1.4-1.2
	c3.2-0.9,6.6-2.1,8.9-4.7c-2.7,1.4-5.5,3.3-8.6,3.3c-1.2,0.1-1.6-2-0.4-2.3C48,12.7,51,12,53.1,9.9c-2.3,1-4.6,2-7.1,2.1
	c-1,0-1.7-1.7-0.6-2.3c1.9-0.8,4.2-0.6,5.9-1.9C50.2,7.9,49.1,8.1,48.1,7.8z"/>
<path fill="#033D1E" d="M33.6,10.9c-1.1-0.1-1.6-2.2-0.3-2.5c2.4-0.1,4.8,0,7.2-0.1c1.2-0.1,2.3,0.9,2.2,2.1c0,1.1-0.2,2.3-0.6,3.4
	c-0.2,0.9-1.4,0.9-2.1,0.5C39.6,13.3,40,12,40,10.9c-0.3,0-1,0-1.3,0c0,2.4,0.1,4.7,0,7.1c-0.1,2.5-3.5,4-5.4,2.5
	c-0.5-0.6,0-1.3,0.3-1.8c0.9-0.1,2.3,0.3,2.6-0.9c0.2-2.3,0.1-4.5,0.1-6.8C35.3,10.9,34.4,11,33.6,10.9z"/>
<g>
	<path fill="#033C1D" d="M11.4,23.4c0.8-0.3,1.7,0,1.9,0.9c0.8,2.4,2.1,4.6,2.4,7.1c-0.4,0-0.9,0-1.3,0c-0.4-0.6-0.6-1.3-0.8-2
		c-0.9,0-1.9,0-2.8,0c-0.3,0.7-0.5,1.5-0.9,2.1c-0.5,0.1-1.3,0.1-1.2-0.6c0.2-1.3,0.9-2.5,1.3-3.8C10.5,25.8,10.7,24.5,11.4,23.4z
		 M12.1,25.2c-0.3,0.9-0.6,1.7-0.9,2.6c0.6,0,1.2,0,1.8,0C12.8,26.9,12.5,26,12.1,25.2z"/>
</g>
<path fill="#023B1C" d="M20.1,23.5c0.5-0.3,1-0.1,1.3,0.3c-0.7,1.5-1.8,2.8-2.6,4.3c-0.3,1.1-0.1,2.3-0.2,3.4
	c-0.4-0.1-1,0.1-1.3-0.3c-0.1-1-0.1-2-0.1-3c-1-1.5-2-3-2.8-4.7c0.5,0,1.1,0,1.6,0c0.7,1.1,1.3,2.1,2,3.2
	C18.8,25.6,19.3,24.5,20.1,23.5z"/>
<path fill="#03391A" d="M22.2,23.4c1.5-0.2,3-0.1,4.5-0.1c0.7-0.1,0.4,0.8,0.5,1.2c-1.3,0.1-2.6,0.1-3.8,0.1c0,0.6,0,1.3,0,1.9
	c1.1,0,2.3,0,3.4,0c0,0.3,0,0.9,0.1,1.2c-1.1,0.1-2.3,0.1-3.4,0.1c0,0.8,0,1.5,0,2.3c1.3,0,2.5,0,3.8,0c0,0.3,0.1,0.8,0.2,1.1
	c-1.8,0.2-3.6,0.1-5.3,0.1c-0.2-2.5-0.1-5-0.1-7.5C22,23.8,22.1,23.5,22.2,23.4z"/>
<path fill="#033B1C" d="M28.2,23.3c0.4,0,0.9,0,1.3,0.1c0.4,1,0.1,2.2,0.2,3.2c1.2,0,2.4,0,3.5,0c0-1,0-2.1,0.1-3.1
	c0.4-0.3,0.9-0.2,1.3-0.2c0.1,2.7,0.1,5.4,0,8.1c-0.4,0-0.9,0-1.3,0c-0.3-1.1,0-2.3-0.2-3.5c-1.2,0-2.3,0-3.5,0c0,1,0.1,2,0,3
	c0,0.7-0.9,0.3-1.4,0.4C28.1,28.7,28.1,26,28.2,23.3z"/>
<g>
	<path fill="#023B1C" d="M37.9,23.4c1.3-0.6,3-0.2,4,0.8c1.5,1.7,1.6,4.5,0.1,6.2c-1.4,1.6-4.4,1.4-5.6-0.4
		C34.8,28,35.3,24.4,37.9,23.4z M38.3,24.8c-1.3,0.8-1.3,2.6-1,4c0.4,1.5,2.7,2,3.6,0.6c0.7-1.2,0.8-2.9-0.1-4.1
		C40.2,24.5,39.1,24.5,38.3,24.8z"/>
</g>
<path fill="#033A1C" d="M43.9,24.2C43.7,23,45.4,23,46,23.5c0.9,1.8,1.2,3.8,2,5.7c0.6-1.9,1-3.9,1.8-5.7c0.5-0.4,1.3-0.1,2-0.2
	c0.4,2.5,0.1,5,0.2,7.5c0.1,0.8-0.8,0.7-1.3,0.5c-0.3-1.8,0-3.7-0.3-5.5c-0.6,1.8-1.1,3.7-1.8,5.5c-0.4,0-0.9,0-1.3-0.1
	c-0.8-1.7-1.2-3.6-1.9-5.5c-0.2,1.8,0.2,3.7-0.2,5.5c-0.5,0.1-1.3,0.2-1.3-0.5C43.8,28.6,43.9,26.4,43.9,24.2z"/>
<path fill="#03391C" d="M53.2,23.3c1.8,0,3.5-0.2,5.3,0c0,0.4,0,0.8,0,1.2c-1.3,0.1-2.6,0.1-3.9,0.1c0,0.6,0,1.3,0,1.9
	c1.2,0,2.3,0,3.5,0c0,0.3,0,0.9,0,1.2c-1.2,0.1-2.3,0-3.5,0c0,0.8,0,1.6,0,2.3c1.3,0,2.7,0,4,0c0,0.4,0,0.8,0,1.1
	c-1.8,0.1-3.7,0.1-5.5-0.1C53.2,28.6,53,25.9,53.2,23.3z"/>
</svg>
