<?xml version="1.0" encoding="utf-8"?>
<!-- Generator: Adobe Illustrator 18.1.1, SVG Export Plug-In . SVG Version: 6.00 Build 0)  -->
<svg version="1.1" id="图层_1" xmlns="http://www.w3.org/2000/svg" xmlns:xlink="http://www.w3.org/1999/xlink" x="0px" y="0px"
	 viewBox="0 0 63.8 28.6" enable-background="new 0 0 63.8 28.6" xml:space="preserve">
<path fill="#A16308" d="M5.4,0.2c0.8,0,1.6,0,2.4,0C7.9,0.5,8,1,8,1.3c1.2,0,2.4-0.1,3.6,0c0.7,0.5,0.2,1.6-0.3,2
	c-1,0.3-2.2,0.1-3.2,0.1C7.7,9.8,8,16.2,7.9,22.5c-0.1,2,0.2,4-0.2,6c-0.7,0-1.3,0-2,0c-0.3-4.4,0-8.8-0.1-13.2c0-3.9,0-7.8,0-11.7
	c-1.1,0-2.3,0-3.4,0c0.1-0.7-0.3-1.7,0.3-2.1c0.9-0.1,1.9,0,2.9,0C5.4,1,5.4,0.5,5.4,0.2z"/>
<path fill="#A2650A" d="M32.8,0.2c0.7,0,1.5,0,2.2,0.1c0.2,0.3,0.2,1,0.7,0.9c2.7,0.1,5.5-0.1,8.2,0.1c0.1,1.6,0,3.2,0,4.8
	c-0.3,0.1-0.5,0.2-0.7,0.2c0-0.2-0.1-0.7-0.2-0.9c-0.4-0.1-0.8-0.2-1.1-0.3c0-0.5-0.1-1-0.1-1.6c-2.2,0-4.4,0-6.6,0
	c-0.1,0.8,0.2,1.8-0.4,2.6c-0.7,0.2-1.4,0.1-2,0.1C32.8,4.2,32.8,2.2,32.8,0.2z"/>
<path fill="#A26308" d="M52.4,0.1C53.1,0.1,53.8,0,54.5,0c0.1,0.5,0.3,1,0.3,1.5c0,6.2,0,12.3,0,18.5c0.8,0,1.7-0.1,2.5-0.1
	c0.3,0.7,0.2,1.4,0.1,2.2c-0.9,0-1.7,0-2.6,0.1c-0.1,2.1,0.2,4.3-0.2,6.4c-0.7,0-1.4,0-2.1,0c-0.2-2.1-0.1-4.2-0.1-6.3
	c-2.4-0.2-4.9,0-7.3-0.1C45.1,21.3,45,20,46,20c2.2-0.1,4.3,0,6.5,0C52.4,13.3,52.4,6.7,52.4,0.1z"/>
<g>
	<path fill="#9F5C0C" d="M59,0.4c2.6-1.4,5.8,1.8,4.4,4.4c-0.8,2.2-3.9,2.8-5.4,1C56.5,4.2,57,1.3,59,0.4z M58.8,1.5
		c-1.3,1.1-1.1,3.4,0.4,4.2c1,0.7,2.1,0.2,3-0.3c-1.1,0-1.4-1.2-2.3-1.6c-0.1,0.6,0,1.4-0.8,1.4c0-1.2,0-2.4,0-3.6
		c0.9,0,2-0.3,2.7,0.5c0.2,0.7-0.3,1.2-0.7,1.7c0.4,0.5,0.8,0.9,1.2,1.4c0.5-0.9,0.9-2.1,0.3-3.1C62,0.8,59.9,0.4,58.8,1.5z
		 M59.7,3.3c0.5-0.1,1.4,0,1.3-0.8C60.5,1.6,59.6,2.5,59.7,3.3z"/>
</g>
<g>
	<path fill="#A36408" d="M13.6,1.3c3-0.1,6.1,0,9.2-0.1c0.5,0,1-0.1,1.5,0.1c0.1,0.4-0.1,0.8-0.2,1.2c-0.7,1.7-1.5,3.4-2.1,5.1
		c1.1,0.1,3.2-0.6,3.4,1.1c-0.5,3.5-0.8,7.1-2.1,10.5c-0.2,0.5-0.4,1-0.5,1.5c0.9,2.5,2.7,4.6,4,6.9c-0.6,0.5-1.3,0.8-2,1.1
		c-1.2-1.6-2.3-3.3-3.3-5.1c-1,1.7-1.9,3.4-3.1,5c-0.7-0.5-1.4-0.9-2.1-1.2c1.5-2.1,2.7-4.3,3.8-6.6c-1.3-3.4-2.3-6.8-2.4-10.5
		c0.7,0,1.5-0.1,1.8-0.9c-0.7-0.2-0.4-1-0.3-1.4c0.5-1.4,1.1-2.8,1.5-4.3c-1.4-0.2-2.7-0.1-4.1,0c0,4.7,0,9.4,0,14.1
		c-0.1,3.7-0.5,7.6-2.4,10.9c-0.7-0.3-1.4-0.7-2.1-1c0.4-1.3,1-2.4,1.3-3.7c0.6-2.6,0.8-5.3,0.8-7.9c0-4.1,0-8.2,0-12.3
		c-0.5-0.2-1.3,0.1-1.5-0.5C12.9,2.5,13.2,1.9,13.6,1.3z M19.8,9.8c0.2,2.5,0.6,4.9,1.4,7.3c0.9-2.3,1.2-4.8,1.4-7.2
		C21.7,9.8,20.8,9.8,19.8,9.8z"/>
</g>
<path fill="#A36408" d="M45.3,4.2c1.7,0,3.4,0,5.1,0c0.3,0.7,0.4,1.4,0.1,2.1c-1.7,0-3.5,0.1-5.2-0.1C44.7,5.6,45.2,4.8,45.3,4.2z"
	/>
<path fill="#A36307" d="M2.6,5.4c0.7,0,1.4,0,2.1,0c0,4.4,0.1,8.9-0.1,13.3c-0.2,3.4-0.8,6.9-2.8,9.8c-0.6-0.4-1.2-0.7-1.8-1
	c0.8-2,1.8-4,2.1-6.1C2.8,16.1,2.3,10.7,2.6,5.4z"/>
<path fill="#A06209" d="M8.8,5.4c0.7-0.1,1.4-0.2,2,0c0.3,0.4,0.3,1,0.3,1.5c0,6.7,0,13.3,0,20c0,0.5-0.2,1.1-0.3,1.6
	c-0.7-0.1-1.3-0.3-2-0.4C8.8,20.6,8.8,13,8.8,5.4z"/>
<g>
	<path fill="#A36508" d="M33.2,7.1c3.3,0,6.6,0,9.8,0c0.6-0.1,1.1,0.3,1,0.9c0,6.3,0,12.6,0,18.9c0,0.5,0.1,1.3-0.6,1.4
		c-1.2,0.1-2.4,0-3.6,0c0-0.7,0.1-1.3,0.2-2c0.5-0.1,1-0.2,1.6-0.3c0.2-1.3,0.1-2.6,0.1-3.9c-2.2,0-4.4-0.1-6.6,0.1
		c-0.3,2.1-0.9,4.3-2.4,5.9c-0.7-0.3-1.3-0.7-2-1.1c1.4-2.2,2.1-4.8,2.2-7.5c0.1-3.8,0-7.6,0-11.3C32.9,7.9,33.1,7.5,33.2,7.1z
		 M35.2,9.3c0,1.4,0,2.8,0,4.3c0.7,0,1.4,0,2.2,0c0-1.2-0.1-2.4,0-3.6c0.5-0.5,1.8-0.6,2.1,0.2c0.2,1.1-0.1,2.2,0.2,3.3
		c0.6,0,1.7,0.4,2.1-0.3c0.1-1.3,0.1-2.7-0.1-4C39.5,9.2,37.4,9.3,35.2,9.3z M35.2,15.5c-0.1,1.5,0,3-0.1,4.5c0.7,0,1.5,0,2.2,0
		c0-1.5,0-2.9,0-4.4C36.7,15.6,36,15.6,35.2,15.5z M39.5,15.7c0,1.4,0,2.9,0,4.3c0.7,0,1.5,0,2.2,0c0-1.5,0-2.9,0-4.3
		C41,15.6,40.3,15.6,39.5,15.7z"/>
</g>
<path fill="#A4650B" d="M45.5,13c1.7,0,3.3,0,5,0c0.1,0.7,0.1,1.4,0.1,2.1c-1.9-0.1-3.7,0.2-5.6-0.1C44.8,14.3,45.2,13.6,45.5,13z"
	/>
</svg>
