<?xml version="1.0" encoding="utf-8"?>
<!-- Generator: Adobe Illustrator 18.1.1, SVG Export Plug-In . SVG Version: 6.00 Build 0)  -->
<svg version="1.1" id="图层_1" xmlns="http://www.w3.org/2000/svg" xmlns:xlink="http://www.w3.org/1999/xlink" x="0px" y="0px"
	 viewBox="0 0 100.7 31.7" enable-background="new 0 0 100.7 31.7" xml:space="preserve">
<path fill="#FDFDFD" d="M10.4,2.8L9.7,3L6.7,5.4L5.1,7.2c0,0,1.1,3.5,1.1,3.7c0,0.2,2,2.1,2,2.1l2.8,1.6l1.7-1.4L10.4,2.8z"/>
<g>
	<path fill="#F34A02" d="M9.8,5c0-2.8,2.8-5,5.5-4.9c1.3-0.2,2.5,0.8,3.8,0.9c1.2,0.1,2.3,1.1,2.6,2.2c0.1,1.7-0.1,3.4-0.4,5
		c-1.4-0.6-2.3-2-2.8-3.4c-0.4,0.5-0.9,1-1.3,1.5c-1.2,0-2.4-0.1-3.6,0.2c0.1-0.2,0.2-0.6,0.3-0.9c0.2-0.1,0.6-0.2,0.8-0.3
		c-1.4,0.3-2.9,0.6-4.3,1c0.3,0.1,1,0.3,1.3,0.3c-0.4,0.2-0.8,0.3-1.2,0.5C10.1,7.6,10,8.2,9.9,8.8C9.9,7.5,9.9,6.2,9.8,5z
		 M13.9,3.9c0.8,0,1.6-0.3,2.1-0.9C15.2,3.3,14.5,3.6,13.9,3.9z"/>
</g>
<path fill="#FBEDD2" d="M13.9,3.9c0.7-0.4,1.4-0.7,2.1-0.9C15.4,3.7,14.7,4,13.9,3.9z"/>
<g>
	<path fill="#F0440A" d="M21.7,3.1c2.1,0.5,3.7,2.1,5.1,3.6c-0.3,0.2-0.5,0.4-0.7,0.5c-1.1-1.4-2.6-2.4-4-3.5c0.1,1.7,0,3.4,0,5.1
		c0,0.8-0.7,1.3-1.2,1.8l-0.3,0.3c-0.1,0-0.2,0.1-0.3,0.2c0.1,0.3,0.1,0.5,0.2,0.8c-0.3,0.5-0.5,0.9-0.8,1.4
		c-0.1,0.1-0.3,0.2-0.5,0.3c-0.6,0.6-0.1,1.3,0.4,1.7c0.7,0.8,1.9,0.9,2.9,1.2c-0.3,0.2-0.5,0.3-0.8,0.5c-1.4-0.6-2.7,0.3-4,0.8
		c0.7-0.5,1.4-1,2.1-1.5c-0.3-0.1-0.8-0.3-1.1-0.5c-0.2-0.4-0.3-0.7-0.5-1.1c-0.6,1.3-1.6,2.3-2.3,3.5c-1.8,0.6-3.7,1-5.1,2.3
		c0.5,0.4,1,0.8,1.6,1.1c1,0.2,2,0.2,2.9,0.7c2.3,1,4.6,2.2,7,2.9c-0.5,0.3-1,0.7-1.5,0.9c-0.6,0.2-1.1-0.3-1.6-0.5
		c0.7,0,1.4,0,2.1,0c-4.2-1-8-3.1-12.2-4.3c1.1-0.5,1.7-1.6,2.7-2.2c1.2-0.6,2.6-0.9,3.8-1.5c-0.8-0.9-1.6-1.8-2.3-2.8
		c-0.4,0.5-0.9,1-1.3,1.5c0.2,0.1,0.7,0.2,1,0.3c0.1,0.2,0.3,0.6,0.3,0.8c-0.5-0.3-1-0.7-1.5-1.1c-1.6,0.3-3.2,0.6-4.7,1.4
		c-1.3,0.6-2,1.9-2.9,3c0-0.1,0-0.4-0.1-0.5c0.4-0.9,1-1.9,1.8-2.4c1.8-1.3,4.3-1.1,6-2.6c0.5-0.3,0.3-0.9,0.3-1.3
		c-0.1-0.2-0.3-0.5-0.3-0.7c-0.2-0.4-0.4-0.8-0.6-1.2c-0.1,0.1-0.4,0.2-0.5,0.2c-0.1-0.4-0.2-0.8-0.3-1.2c0-0.1,0.1-0.4,0.2-0.5
		c-0.2-0.1-0.6-0.2-0.7-0.3C9.4,8.5,9.5,6.7,9.8,5c0,1.3,0.1,2.6,0.1,3.9c0.1-0.6,0.2-1.2,0.5-1.8c0,1-0.1,2.1,0.5,3
		c0.9,1.5,1.3,3.7,3.2,4.4c2.1,1.3,4.6-0.5,5.6-2.4c0.5-1.3,1.5-2.5,1.7-4C21.6,6.5,21.9,4.8,21.7,3.1z M14.3,15.4
		c0.5,0.5,1,1.1,1.5,1.7c0.7-0.5,1.2-1.2,1.6-2C16.4,15.4,15.3,15.6,14.3,15.4z"/>
</g>
<path fill="#F14702" d="M2.6,10.8c1-3.5,3.9-6.2,7.1-7.7c0,0.2,0,0.6,0,0.9c-1.4,1-2.8,1.9-4,3.2c0.9,0.8,2.2,1.3,2.7,2.4
	c-0.3,0.5-1,0.8-0.9,1.4c-0.1,1,0.7,1.8,1.4,2.3c1,0.6,2.1,0.3,3.2,0c0.1,0.2,0.3,0.5,0.3,0.7c-0.4,1.2-1.4,2-2.6,2.3
	c-0.7,0.4-1.2-0.3-1.7-0.7c-1.6-1.4-3.2-2.8-4.9-4c-0.1,0.3-0.2,0.9-0.2,1.2C2.8,12,2.7,11.4,2.6,10.8z"/>
<path fill="#FDFEFE" d="M22,3.7c1.4,1.1,2.9,2.1,4,3.5C25,8,24,8.8,23,9.6c1.8,1.2,0.4,3.9-1.5,4c-0.7-0.1-1.3-0.2-1.9-0.4
	c0.2-0.5,0.5-0.9,0.8-1.4c0.1,0.4,0.2,0.7,0.3,1.1c0.3,0.1,1,0.2,1.3,0.3c0.5-0.6,1.1-1.3,1.4-2c0.4-0.6-0.3-1-0.8-0.9
	c-0.7,0.1-1.4,0.4-2.1,0.6l0.3-0.3c0.5-0.5,1.2-1,1.2-1.8C22,7.1,22.1,5.4,22,3.7z"/>
<g>
	<path fill="#FDFEFD" d="M18.5,4.8c0.5,1.4,1.4,2.8,2.8,3.4c-0.2,1.5-1.2,2.6-1.7,4c-1,1.9-3.4,3.7-5.6,2.4
		c-1.8-0.8-2.2-2.9-3.2-4.4c-0.6-0.9-0.5-2-0.5-3c0.4-0.2,0.8-0.3,1.2-0.5c-0.3-0.1-1-0.3-1.3-0.3c1.4-0.3,2.9-0.7,4.3-1
		c-0.2,0.1-0.6,0.2-0.8,0.3c-0.7,0.2-1.4,0.4-2.1,0.6c0.4,0.2,0.8,0.3,1.2,0.5c-0.8,0-1.7-0.1-2.3,0.5C10.7,7.4,10.9,8,11,8.3
		c0.2-0.2,0.7-0.6,0.9-0.8c0.7-0.3,1.4,0.2,2.1,0.4c-0.5,0.3-1,0.6-1.5,1c0.7,0.1,1.4,0.3,2,0.4c0.1-0.5,0.2-1.1,0.3-1.6
		c-0.4-0.2-0.7-0.3-1-0.5C15,7,16.2,6.9,17.2,6.3C17.6,5.8,18.1,5.3,18.5,4.8z M16.5,8.3c0.1,0.4,0.2,0.9,0.2,1.3
		C16.9,9,17,8.4,17.1,7.8c0.3,0.6,0.6,1.1,1,1.6c0.2,0,0.6-0.1,0.8-0.2c0.1-1-1-1-1.6-1.4c0.7-0.1,1.4-0.1,2.2-0.2
		C18.5,7.1,17.1,7.2,16.5,8.3z M15.2,11.5c0.5,0,0.9,0,1.4-0.1c-0.1-0.5-0.2-0.9-0.3-1.3c-0.1,0.3-0.2,0.8-0.2,1.1l-0.5,0
		c-0.1-0.2-0.2-0.7-0.2-1C15.2,10.7,15.2,11.1,15.2,11.5z M14.2,12.4c0.8,1.1,2.7,1.4,3.3,0C16.4,12.3,15.3,12.3,14.2,12.4z"/>
</g>
<g>
	<path fill="#DC794D" d="M11.7,6.1c0.7-0.2,1.4-0.3,2.1-0.6c-0.1,0.2-0.2,0.6-0.3,0.9c1.2-0.3,2.4-0.1,3.6-0.2
		c-1,0.7-2.2,0.8-3.3,0.9c0.3,0.2,0.7,0.3,1,0.5c-0.1,0.5-0.2,1-0.3,1.6c-0.7-0.1-1.4-0.3-2-0.4c0.5-0.3,1-0.7,1.5-1
		c-0.7-0.2-1.4-0.7-2.1-0.4c-0.2,0.2-0.7,0.6-0.9,0.8c-0.1-0.3-0.3-0.9-0.4-1.2c0.7-0.6,1.5-0.5,2.3-0.5C12.5,6.5,12.1,6.3,11.7,6.1
		z M14.7,6.5l-0.1,0.2l0.3,0.2l0.3-0.2l-0.1-0.2C15.1,6.5,14.8,6.5,14.7,6.5z"/>
</g>
<path fill="#FEE1CC" d="M14.7,6.5c0.1,0,0.3,0,0.5,0l0.1,0.2l-0.3,0.2l-0.3-0.2L14.7,6.5z"/>
<path fill="#F14503" d="M26,7.2c0.2-0.2,0.5-0.4,0.7-0.5c1,1.3,1.8,2.7,2.5,4.1l-0.1,0c-0.2,0.1-0.5,0.4-0.7,0.6
	c-1.6,1.3-3.2,2.5-4.6,3.9c-1.5,1.6-4.7,0.4-4.7-1.8c0.1-0.1,0.3-0.2,0.5-0.3c0.6,0.1,1.2,0.3,1.9,0.4c1.9-0.1,3.2-2.8,1.5-4
	C24,8.8,25,8,26,7.2z"/>
<g>
	<path fill="#0E0405" d="M84,6.9c0.6,0,1.2,0,1.8,0c-0.1,0.5-0.2,0.9-0.3,1.4c1.2,0,2.4,0,3.6,0.1c0.1,1.1-0.5,2-1,2.9
		c0.8,0,1.6-0.1,2.4-0.1c0.2,0.5,0.3,1,0.3,1.5c0,1.8,0,3.7,0,5.5c0,0.7-0.3,1.6-1.2,1.6c-1.9,0.1-3.9,0-5.8,0.1
		c-0.5,0-1.2,0-1.2-0.6c-0.1-2.4,0.1-4.8-0.1-7.2c-0.2-0.1-0.5-0.3-0.7-0.4C82.2,9.9,83.4,8.6,84,6.9z M84.6,9.7
		c-0.4,0.5-0.7,1.1-1,1.6c0.8,0,1.5,0,2.3,0c0.2-0.6,0.4-1.1,0.7-1.7C85.9,9.7,85.2,9.6,84.6,9.7z M84.3,12.7c0,0.7,0,1.4,0,2.1
		c0.4,0,0.9,0,1.4,0c0-0.7,0-1.4,0-2.1C85.2,12.7,84.8,12.7,84.3,12.7z M87.6,12.7c0,0.7,0,1.4,0,2.1c0.4,0,0.8,0,1.2,0
		c0-0.7,0-1.4,0-2.1C88.4,12.7,88,12.7,87.6,12.7z M84.4,16.1c0,0.7,0,1.5,0.1,2.3c0.4,0,0.8,0,1.2,0c0-0.8,0-1.5,0.1-2.3
		C85.2,16.1,84.8,16.1,84.4,16.1z M87.6,16.1c0,0.8,0,1.5,0,2.3c0.4,0,0.8,0,1.3,0c0-0.8,0-1.5,0-2.3C88.4,16.1,88,16.1,87.6,16.1z"
		/>
</g>
<path fill="#110506" d="M92,6.9c0.7-0.1,1.5-0.2,2.3,0c0.4,0.7,0.6,1.6,1,2.4c0.3,0,0.9-0.1,1.2-0.1c0.2-0.8,0.4-1.5,0.7-2.3
	c0.8-0.1,1.6-0.1,2.4-0.1c-0.3,0.8-0.6,1.6-0.9,2.3c0.6,0,1.2,0,1.8,0c0,0.5,0,0.9,0,1.4c-1.1,0-2.1,0-3.2,0c0,1,0,2.1,0,3.1
	c1,0.1,2.1-0.2,3.1,0.1c0,0.3,0,0.9,0,1.2c-1,0.1-2.1,0.1-3.1,0.1c0,1.1,0,2.1,0,3.2c1,0.2,2.3-0.4,3.2,0.4c0,0.2,0,0.6,0,0.9
	c-1.1,0.1-2.1,0.1-3.2,0.1c-0.1,1.1,0.3,2.5-0.9,3.1c-0.5,0.3-1.4,0.6-1.9,0.1c-0.1-1.1,0-2.1-0.1-3.2c-1,0-2,0.1-3-0.1
	c0-0.3,0.1-1,0.1-1.3c1,0,2,0,2.9,0c0-1.1,0-2.1,0-3.2c-1,0-2,0-3,0c0-0.5,0-0.9,0.1-1.3c1-0.2,2,0,3-0.1c0-1,0-2.1,0-3.1
	c-1,0-2,0-3,0c0-0.5,0-1,0-1.5c0.5,0,1,0,1.5,0C92.6,8.5,92.3,7.7,92,6.9z"/>
<path fill="#A36307" d="M16.5,8.3c0.6-1.1,2-1.2,3-0.7c-0.7,0.1-1.4,0.1-2.2,0.2c0.6,0.4,1.7,0.4,1.6,1.4c-0.2,0-0.6,0.1-0.8,0.2
	c-0.4-0.5-0.8-1-1-1.6C17,8.4,16.9,9,16.7,9.6C16.7,9.2,16.6,8.7,16.5,8.3z"/>
<path fill="#120606" d="M45,8.3c0-0.4,0.1-0.9,0.1-1.3c0.7,0,1.5,0,2.3,0c0.1,0.4,0.2,0.9,0.3,1.3c2.3,0.1,4.5-0.1,6.8,0
	c0.7,0,1.3,0.7,1.2,1.5c-0.1,1.1,0.4,2.6-0.7,3.3c-0.6,0.3-1.3,0.3-2,0.4c0-1.2,0-2.4,0-3.6c-3.1-0.1-6.2,0-9.3-0.1
	c0,1.5-0.1,3,0.1,4.6c0.3,0.4,0.9,0.4,1.4,0.4c3.7,0,7.3,0,11,0c1-0.1,1.7,1,1.6,2c0,1.8,0.1,3.6-0.1,5.3c-0.5,0.9-1.7,1-2.6,1.2
	c-0.1-2.4,0-4.7-0.1-7.1c-4.2-0.1-8.4,0-12.6-0.1c-0.7-0.1-1.6-0.5-1.6-1.4c0-2.1-0.1-4.3,0-6.4C42.3,8.3,43.6,8.4,45,8.3z"/>
<path fill="#110506" d="M66.2,7c1,0,2.2-0.2,2.9,0.7c0.2,1.2,0,2.4,0.1,3.7c2.8,0,5.5,0,8.3,0c0,0.5,0,1,0,1.6c-2.8,0-5.6,0-8.4,0
	c0,2.9,0,5.9,0,8.8c3.3,0,6.7-0.1,10,0c0,0.5,0,0.9,0,1.4c-5.5,0-11,0-16.4,0c-0.7,0-1.4,0.1-2.1-0.1c0-0.5,0-0.9,0-1.3
	c1.8,0,3.7,0,5.5,0C66.2,16.8,66.1,11.9,66.2,7z"/>
<path fill="#D56338" d="M7.9,10.1c0.6,0,1.2,0.1,1.7,0.3c-0.3,0.1-0.9,0.2-1.2,0.2c0.1,0.6,0.3,1.2,0.4,1.8
	C8.1,11.7,7.7,11,7.9,10.1z"/>
<path fill="#A06209" d="M15.2,11.5c0-0.4,0-0.8,0.1-1.3c0.1,0.3,0.2,0.7,0.2,1l0.5,0c0.1-0.3,0.2-0.8,0.2-1.1
	c0.1,0.4,0.2,0.9,0.3,1.3C16.1,11.5,15.6,11.5,15.2,11.5z"/>
<path fill="#F64104" d="M20.5,10.9c0.7-0.2,1.4-0.5,2.1-0.6c0.6-0.1,1.2,0.3,0.8,0.9c-0.3,0.8-0.9,1.4-1.4,2c-0.3-0.1-1-0.2-1.3-0.3
	c-0.1-0.4-0.2-0.7-0.3-1.1c-0.1-0.3-0.1-0.5-0.2-0.8C20.3,11,20.4,11,20.5,10.9z"/>
<path fill="#F74502" d="M8.4,10.5c0.3-0.1,0.9-0.2,1.2-0.2c0.4,0.1,0.7,0.3,0.9,0.7c0.1,0.4,0.2,0.8,0.3,1.2l0.1,0.5
	c-0.7,0.4-1.5,0.3-2.2-0.1l-0.1-0.3C8.7,11.7,8.6,11.1,8.4,10.5z"/>
<path fill="#130507" d="M45.7,11.7c0.5-0.5,1-0.9,1.6-1.3c1.2,0.8,2.3,1.7,3.4,2.6c-0.5,0.5-0.9,1.3-1.7,1.1
	C47.8,13.4,46.6,12.8,45.7,11.7z"/>
<g>
	<path fill="#F44703" d="M2.9,21.9C1.5,18.4,1,14.3,2.6,10.8c0.1,0.6,0.2,1.2,0.2,1.8c-0.2,1.2-0.4,2.3-0.3,3.5c0,1.2,1.4,1.7,2,2.6
		c-0.1,0.4-0.2,0.8-0.4,1.2l0,0.3c0,0.1,0,0.4,0.1,0.5c-0.2,0.3-0.4,0.5-0.6,0.8c5.6-0.9,10.3,2.6,15.5,4c0.5,0.2,1,0.7,1.6,0.5
		c0.5-0.2,1-0.6,1.5-0.9c0.3,0.1,0.8,0.2,1,0.2c0.1,0.2,0.2,0.5,0.4,0.8c-0.1-1.8-0.5-3.5-1.4-5c1.8,1.1,1.6,3.6,2.9,5.1
		c0.1,0.1,0.4,0.4,0.5,0.5c-0.2,0.3-0.4,0.5-0.6,0.8c-2.8,1.5-6.1,1.5-9.1,1.2c-0.7-0.5-1.5-0.7-2.3-1c-0.8-0.5-1.4-1.4-2.3-1.7
		c-1-0.5-2.1-0.6-3.2-0.6c-0.3-0.2-0.6-0.4-0.8-0.6l0.2,0.6c-0.6,0-1.2,0.2-1.8,0.3l-0.1,0c-0.1,0-0.2-0.1-0.3-0.1
		c-0.6-0.5-1.2-1-1.8-1.4c0.1-0.4,0.1-0.9,0.2-1.3c-0.7,0-1.5,0.1-2.2,0.1c-0.3,0.3-0.6,0.5-0.9,0.8c0.1,0.3,0.1,0.5,0.2,0.8
		l0.1,0.5c-0.2,0-0.5,0.1-0.7,0.2l-0.1,0c-0.2-0.4-0.3-0.7-0.5-1.1C0.4,22.7,1.5,21.7,2.9,21.9z M6.7,24.1c-0.2,0.5,0,0.6,0.5,0.5
		C7.4,24.1,7.2,23.9,6.7,24.1z"/>
</g>
<path fill="#D8380E" d="M28.5,11.5c0.2-0.1,0.5-0.4,0.7-0.6c1.1,2.5,1.3,5.5,0.6,8.1c-0.1-1.1-0.2-2.2-0.2-3.3
	c-0.1,0.5-0.2,1-0.3,1.4c-0.1,0.1-0.4,0.3-0.5,0.4C29.7,15.6,29.2,13.4,28.5,11.5z"/>
<path fill="#FDFEFE" d="M23.9,15.3c1.5-1.4,3.1-2.6,4.6-3.9c0.6,1.9,1.1,4.1,0.3,6.1c-0.4,0.3-0.8,0.6-1.2,0.9
	c-0.1,0.1-0.4,0.3-0.6,0.4c-1-1.2-2.5-1.8-4-2.3c-0.2,0.2-0.5,0.3-0.7,0.5c1.4,0.2,2.9,0.8,3.9,1.9c1.2,1.2,1.8,2.8,2.4,4.3
	c-1,1.1-1.9,2.3-3.3,2.9c-1.4-1.5-1.1-3.9-2.9-5.1c0.8,1.6,1.2,3.3,1.4,5c-0.1-0.3-0.2-0.5-0.4-0.8c-0.3,0-0.8-0.1-1-0.2
	c-2.5-0.7-4.7-1.9-7-2.9c-0.9-0.4-2-0.4-2.9-0.7c-0.6-0.2-1.1-0.7-1.6-1.1c1.4-1.3,3.4-1.7,5.1-2.3c0.8-1.2,1.7-2.2,2.3-3.5
	c0.2,0.4,0.3,0.7,0.5,1.1c0.3,0.1,0.8,0.3,1.1,0.5c-0.7,0.5-1.4,0.9-2.1,1.5c1.3-0.5,2.6-1.4,4-0.8c0.2-0.2,0.5-0.3,0.8-0.5
	c-1-0.3-2.2-0.4-2.9-1.2c-0.5-0.4-1-1.2-0.4-1.7C19.2,15.7,22.4,16.9,23.9,15.3z"/>
<path fill="#FCFFFE" d="M3.1,11.4c1.7,1.2,3.3,2.6,4.9,4c0.5,0.4,1,1,1.7,0.7c1.2-0.2,2.2-1,2.6-2.3c0,0.5,0.1,1-0.3,1.3
	c-1.7,1.5-4.2,1.4-6,2.6c-0.9,0.6-1.4,1.5-1.8,2.4l0-0.3c0.1-0.4,0.2-0.8,0.4-1.2c-0.6-0.9-2-1.4-2-2.6c-0.1-1.2,0.2-2.3,0.3-3.5
	C2.9,12.3,3,11.7,3.1,11.4z"/>
<path fill="#F48558" d="M14.2,12.4c1.1,0,2.2,0,3.3,0C16.9,13.7,15,13.4,14.2,12.4z"/>
<path fill="#FDFEFD" d="M13.3,14.8c0.7,1,1.5,1.9,2.3,2.8c-1.3,0.5-2.6,0.8-3.8,1.5c-1,0.6-1.7,1.7-2.7,2.2c4.1,1.2,8,3.3,12.2,4.3
	c-0.7,0-1.4,0-2.1,0c-5.2-1.4-9.9-4.9-15.5-4c0.2-0.3,0.4-0.5,0.6-0.8c0.8-1.1,1.6-2.4,2.9-3c1.5-0.7,3.1-1.1,4.7-1.4
	c0.5,0.4,1,0.7,1.5,1.1c-0.1-0.2-0.3-0.6-0.3-0.8c-0.2-0.1-0.7-0.2-1-0.3C12.5,15.9,12.9,15.4,13.3,14.8z"/>
<path fill="#FAFAF8" d="M14.3,15.4c1,0.2,2.1,0,3.1-0.3c-0.4,0.8-0.9,1.4-1.6,2C15.3,16.5,14.8,16,14.3,15.4z"/>
<path fill="#F14202" d="M29.6,15.7c0,1.1,0.1,2.2,0.2,3.3c-0.1,0.8-0.4,1.6-0.7,2.4c-0.8-0.7-1.2-1.7-1.7-2.7l0.2-0.3
	c0.4-0.3,0.8-0.6,1.2-0.9c0.1-0.1,0.4-0.3,0.5-0.4C29.4,16.7,29.5,16.2,29.6,15.7z"/>
<g>
	<path fill="#EC4606" d="M22.3,17.1c0.2-0.2,0.5-0.3,0.7-0.5c1.5,0.5,3,1,4,2.3c0.7,1.1,1.2,2.3,1.9,3.4c0.1-0.2,0.3-0.6,0.4-0.8
		c1.2,0,2.8,0.1,3.3,1.5c0.1,0.9,0.1,1.9,0,2.8c-0.7,0.8-1.8,1-2.8,1.3c-0.7,1.6-2.7,2.1-4.3,1.9C25,30,24.4,31.3,22.9,31l0.1-0.6
		c0.1-0.1,0.3-0.3,0.4-0.4c-0.6-0.3-1.2-0.5-1.8-0.8c0.7,0,1.3,0.1,2,0.1c0.1-0.2,0.3-0.5,0.4-0.6c0.5-0.1,1-0.1,1.5-0.2
		c0.2-0.5,0.3-0.9,0.5-1.4c-0.2,0.1-0.6,0.2-0.8,0.2c0.2-0.3,0.4-0.5,0.6-0.8c-0.1-0.1-0.4-0.4-0.5-0.5c1.4-0.5,2.3-1.8,3.3-2.9
		c-0.6-1.5-1.3-3.1-2.4-4.3C25.1,17.9,23.7,17.3,22.3,17.1z M29.7,22.5c-0.8,0.3,0.4,0.6,0.6,0.7c0-0.1-0.1-0.3-0.2-0.4
		c0.3,0,1-0.1,1.3-0.2C30.8,22.2,30.2,21.9,29.7,22.5z M30.9,22.9c-0.1,0.5,0.6,0.8,1,0.9C32.5,23.4,31.5,22.3,30.9,22.9z
		 M30.6,23.8c0.2,0.2,0.6,0.7,0.8,1c-0.2,0.1-0.5,0.4-0.6,0.5c0.1,0.2,0.3,0.6,0.4,0.7c0-0.2,0.1-0.5,0.1-0.7
		c0.2,0.1,0.6,0.2,0.8,0.2C32.1,24.7,31.6,23.9,30.6,23.8z M26.4,26.5c-0.1,0.6-0.2,1.2-0.3,1.9l0.7-0.1c0.2-0.8,0.4-1.7,0.9-2.4
		c0.8,0.7-0.6,1.3-0.4,2.2c0.9,0.2,1.1-0.3,0.9-1.1c0.2,0.3,0.4,0.6,0.6,0.9c0.7-0.9,0.4-2.2-0.9-2.3c0.4-0.1,0.8-0.1,1.2-0.1
		c0.3,0.5,0.8,0.9,1.5,0.8c-0.5-0.8-1.5-1.1-2.2-1.6C27.9,25.6,27.3,26.2,26.4,26.5z"/>
</g>
<path fill="#100405" d="M44.9,17.3c0.8,0,1.6,0,2.4,0c0,1.5,0,2.9,0,4.4c1.1,0,2.2,0,3.3,0c0-1.2,0-2.3,0-3.5
	c0.8,0.1,1.8-0.3,2.4,0.3c0.1,1.5,0,3.1,0,4.6c-3.9,0-7.8,0-11.7,0c-0.8,0-1.7-0.4-1.9-1.2c-0.1-1.2-0.1-2.5-0.1-3.7
	c0.8,0,1.5,0,2.3,0c0.1,1.2,0.1,2.3,0.2,3.5c1,0,2,0,2.9,0C44.9,20.3,44.9,18.8,44.9,17.3z"/>
<path fill="#0D0507" d="M81.8,21.8c3.1-0.2,6.2-0.5,9.3-0.8c0,0.3,0.1,1,0.1,1.3c-2.9,0.3-5.8,0.7-8.8,0.9
	C81.6,23.2,81.9,22.3,81.8,21.8z"/>
<path fill="#FBEDD2" d="M29.7,22.5c0.5-0.6,1.2-0.3,1.8,0c-0.3,0-1,0.1-1.3,0.2c0,0.1,0.1,0.3,0.2,0.4C30,23.1,28.9,22.9,29.7,22.5z
	"/>
<path fill="#DB7C4E" d="M1.8,22.8c0.7-0.1,1.5-0.1,2.2-0.1c-0.1,0.4-0.1,0.9-0.2,1.3c-0.9,0-1.8,0.1-2.6,0.4
	c-0.1-0.3-0.2-0.5-0.2-0.8c0.9-0.1,1.8-0.1,2.6-0.4C3,22.9,2.4,22.9,1.8,22.8z"/>
<path fill="#FBEDD2" d="M0.9,23.6c0.3-0.3,0.6-0.5,0.9-0.8c0.6,0.1,1.2,0.1,1.7,0.4C2.7,23.5,1.8,23.5,0.9,23.6z"/>
<path fill="#FBEDD2" d="M30.9,22.9c0.5-0.6,1.5,0.5,1,0.9C31.5,23.7,30.8,23.4,30.9,22.9z"/>
<path fill="#FDFFFD" d="M1.2,24.4C2,24.1,2.9,24,3.8,24c0.6,0.4,1.2,0.9,1.8,1.4c-0.7-0.3-1.3-0.7-2.1-0.9c-0.7-0.1-1.5,0.2-2.2,0.3
	L1.2,24.4z"/>
<path fill="#EF8C65" d="M6.7,24.1c0.5-0.2,0.6,0,0.5,0.5C6.7,24.7,6.6,24.6,6.7,24.1z"/>
<path fill="#FBEDD2" d="M30.6,23.8c1,0.1,1.4,0.9,1.5,1.8c-0.2-0.1-0.6-0.2-0.8-0.2c0,0.2-0.1,0.5-0.1,0.7c-0.1-0.2-0.3-0.6-0.4-0.7
	c0.2-0.1,0.5-0.3,0.6-0.5C31.2,24.6,30.8,24.1,30.6,23.8z"/>
<g>
	<path fill="#DB4824" d="M1.3,24.8c0.7-0.1,1.4-0.4,2.2-0.3c0.7,0.2,1.4,0.6,2.1,0.9c0.1,0,0.2,0.1,0.3,0.1c-0.4,0-1.3,0.1-1.7,0.1
		c0.8,0.3,1.6,1.2,2.6,0.7c0.2,0.1,0.3,0.2,0.5,0.3c-0.6,0.3-1,0.8-1.4,1.4c-0.3-0.2-0.6-0.4-0.8-0.5c0.1-0.2,0.3-0.6,0.4-0.8
		c-0.2,0-0.7,0.2-1,0.2c-0.6,0.5,0.2,1,0.4,1.5c0,0.3,0.1,0.8,0.1,1.1c0.4-0.3,0.7-0.6,1.1-0.9c4,2.7,9.2,2.1,13.8,1.4
		c-2.1-0.5-4.2,0-6.3-0.2c3.2-0.7,6.7-0.8,9.7,0.7L22.9,31c-1-0.3-2.1-0.9-3.2-0.6c-3,0.8-6.2,0.9-9.3,0.5c-0.4-0.1-0.8,0-1.2,0.1
		c-1.1-0.5-2.1-1-3.2-1.5c-1.3,0.8-2.5-0.4-3.4-1.2c-0.2-0.5-0.2-1.1-0.3-1.7c-0.3-0.2-0.8-0.7-1.1-0.9C2.1,26,3.7,26.1,4,25
		C3,24.4,2,24.9,1.5,25.8c-0.3-0.3-0.6-0.5-0.9-0.8C0.8,24.9,1.1,24.9,1.3,24.8z M2.9,26.3C3,26.8,3,27.4,3,28
		c0.4,0.3,0.8,0.6,1.3,0.8c-0.2-0.8-0.5-1.6-0.4-2.4C3.7,26.4,3.2,26.3,2.9,26.3z"/>
</g>
<g>
	<path fill="#FCFDFA" d="M7.5,24.6c0.3,0.2,0.6,0.4,0.8,0.6c1.1,0,2.2,0.2,3.2,0.6c0.9,0.4,1.5,1.2,2.3,1.7c0.7,0.4,1.6,0.5,2.3,1
		c3.1,0.3,6.4,0.3,9.1-1.2c0.2-0.1,0.6-0.2,0.8-0.2c-0.1,0.5-0.3,0.9-0.5,1.4c-0.5,0.1-1,0.1-1.5,0.2c-0.1,0.2-0.3,0.5-0.4,0.6
		c-0.7,0-1.3-0.1-2-0.1c0.6,0.3,1.2,0.6,1.8,0.8c-0.1,0.1-0.3,0.3-0.4,0.4c-3-1.5-6.5-1.4-9.7-0.7c2.1,0.2,4.2-0.3,6.3,0.2
		c-4.5,0.7-9.7,1.4-13.8-1.4c-0.4,0.3-0.7,0.6-1.1,0.9c0-0.3-0.1-0.8-0.1-1.1c-0.2-0.5-1-1-0.4-1.5c0.2-0.1,0.7-0.2,1-0.2
		c-0.1,0.2-0.3,0.6-0.4,0.8c0.3,0.2,0.6,0.4,0.8,0.5c0.4-0.5,0.8-1,1.4-1.4c-0.2-0.1-0.3-0.2-0.5-0.3c-0.9,0.5-1.8-0.4-2.6-0.7
		c0.4,0,1.3-0.1,1.7-0.1l0.1,0c0.6-0.2,1.2-0.3,1.8-0.3L7.5,24.6z M7.8,25.5c-0.1,0.2-0.2,0.6-0.2,0.8c1.2-0.2,2.8-0.4,3.6,0.8
		c-0.6-0.3-1.1-0.6-1.7-0.8c0.1,0.3,0.2,0.7,0.3,1c-0.5,0.1-0.9,0.2-1.4,0.4c0.4,0.5,1,1.3,1.8,0.9c0.7-0.3,1.6-0.6,1.7-1.4
		c0.1,0,0.3,0,0.5,0c0.1,0.4,0.2,0.8,0.4,1.2c0.7,0,1.6,0.5,2.1-0.3c-1.5-0.4-2.3-1.8-3.8-2.2C10,25.3,8.9,25.3,7.8,25.5z"/>
</g>
<path fill="#FDFFFD" d="M26.4,26.5c0.9-0.3,1.5-0.9,1.9-1.8c0.8,0.5,1.7,0.8,2.2,1.6c-0.7,0.1-1.2-0.3-1.5-0.8c-0.4,0-0.8,0-1.2,0.1
	c1.2,0.1,1.6,1.4,0.9,2.3c-0.2-0.3-0.4-0.6-0.6-0.9c0.2,0.8,0,1.2-0.9,1.1c-0.2-0.8,1.2-1.5,0.4-2.2c-0.5,0.7-0.6,1.6-0.9,2.4
	l-0.7,0.1C26.2,27.8,26.3,27.1,26.4,26.5z"/>
<path fill="#F3471D" d="M7.8,25.5c1.1-0.1,2.2-0.1,3.2,0.4c1.5,0.4,2.3,1.8,3.8,2.2c-0.5,0.7-1.4,0.3-2.1,0.3
	c-0.1-0.4-0.3-0.8-0.4-1.2c-0.1,0-0.3,0-0.5,0c-0.1,0.8-1,1.1-1.7,1.4c-0.8,0.3-1.3-0.4-1.8-0.9c0.5-0.1,0.9-0.3,1.4-0.4
	c-0.1-0.3-0.2-0.7-0.3-1c0.6,0.2,1.2,0.5,1.7,0.8c-0.8-1.2-2.4-1-3.6-0.8C7.6,26.1,7.7,25.7,7.8,25.5z"/>
<path fill="#FDFFFD" d="M2.9,26.3c0.2,0,0.7,0.1,1,0.2c-0.1,0.8,0.2,1.6,0.4,2.4C3.9,28.6,3.5,28.3,3,28C3,27.4,3,26.8,2.9,26.3z"/>
<path fill="#020101" d="M53.8,27.2c0.1,0.2,0.2,0.4,0.4,0.5c-0.3,0-0.9,0-1.2,0l-0.1,0.4c0.7,0,2-0.8,2,0.5
	c-0.7,0.1-2.4-1.1-2.3,0.3c0.3-0.1,1-0.3,1.3-0.4c-0.1,0.2-0.2,0.7-0.3,0.9c0.2,0,0.5,0,0.7,0L53.9,29c0.2,0,0.5-0.1,0.7-0.1
	c0.1,0.4,0.4,0.8,0.9,1c-0.2-0.6-0.3-1.2-0.5-1.8c1,0.4,0.9,1.6,0.9,2.5c0,0.5-0.2,0.9-0.5,1.2c0.1-0.4,0.2-0.9,0.2-1.3
	c-0.9-0.1-0.9,1-1.6,1.3c0.4-0.7,0.5-2.1,1.7-1.6l0.1-0.2c-0.9-0.1-1.7-0.2-2.6,0c0.4,0.3,0.8,0.5,1.2,0.8c-0.5-0.1-1-0.2-1.5-0.3
	c-0.2,0.4-0.5,0.7-0.7,1.1c-0.1,0-0.2,0-0.3,0c0.2-0.4,0.4-0.9,0.6-1.3c0.4-0.4,0.7-0.7,1-1.1c-0.4,0-1.1,0.1-1.4,0.1
	c0.2-0.4,0.4-0.7,0.7-1.1c-0.3-0.2-0.6-0.3-0.9-0.5C52.4,27.5,53.3,27.8,53.8,27.2z"/>
<path fill="#0E0405" d="M59.8,28.3c0.3-0.4,0.7-0.8,1-1.2c0,0.3,0.1,0.8,0.1,1.1c0.3-0.4,0.6-0.7,1-1.1c0,0.3-0.1,0.7-0.1,1l0.7-0.1
	C61.8,28.7,60.7,28.2,59.8,28.3z"/>
<path fill="#020101" d="M79.7,27.1c0.1,0.2,0.3,0.6,0.4,0.8c0.5-0.4,1-0.4,1.4,0.1c-0.7,0.1-1.5,0.2-2.2,0.3
	C79.4,27.9,79.5,27.5,79.7,27.1z"/>
<g>
	<path fill="#0E0405" d="M90.7,27.5c0.9-0.1,1.7-0.1,2.6-0.1c-0.1,0.5-0.1,1-0.2,1.6c0.3,0,0.8,0.1,1.1,0.1
		c-1.1,0.5-2.4,0.2-3.5,0.2C90.7,28.6,90.7,28.1,90.7,27.5z M91.2,27.7c0,0.3,0,0.9-0.1,1.3c0.4,0,1.1,0,1.4,0
		c0.1-0.4,0.3-0.8,0.5-1.3C92.4,27.7,91.8,27.7,91.2,27.7z"/>
</g>
<path fill="#020101" d="M97.4,27.1c0.4,0.9,1.7,1.2,2,0.1c0.2,0.6,0.8,0.7,1.3,1.1c-1.2,0-2.4-0.4-3.4,0.3c0.1,0.2,0.4,0.6,0.5,0.8
	c-0.4-0.1-1.1-0.3-1.5-0.4c0.2-0.1,0.6-0.2,0.8-0.2l0-0.5l-0.6,0c0.1-0.2,0.2-0.5,0.3-0.6c0.2,0.1,0.5,0.2,0.6,0.3
	C97.4,27.8,97.4,27.3,97.4,27.1z"/>
<g>
	<path fill="#0E0405" d="M40.9,27.9c0.1-0.2,0.2-0.6,0.2-0.8c0.1,0.2,0.4,0.6,0.6,0.8c0.5,0,0.9,0,1.4,0c0,0.6,0,1.2,0,1.7
		c-0.5,0-1.1,0-1.6,0c0,0.7,0,1.3-0.1,2c-0.4-0.6-0.2-1.3-0.3-2c-0.6,0-1.2,0-1.7,0c0-0.6,0-1.2,0.1-1.8
		C39.8,27.9,40.4,27.9,40.9,27.9z M39.7,28.2c0,0.4,0,0.7,0,1.1c0.4,0,0.9,0,1.3,0c0-0.4,0-0.8,0-1.2C40.6,28.2,40.1,28.2,39.7,28.2
		z M41.4,28.3c0,0.3-0.1,0.8-0.1,1c0.5,0,0.9,0,1.4,0c0-0.4,0-0.8,0-1.2C42.2,28.2,41.8,28.1,41.4,28.3z"/>
</g>
<g>
	<path fill="#0E0405" d="M45.3,27.5c1.4,0,2.8,0,4.3,0c0,1.2,0,2.5,0,3.7c-1.4,0-2.8,0-4.2,0C45.3,30,45.3,28.8,45.3,27.5z
		 M45.9,27.8c0,0.2,0.1,0.7,0.1,0.9c0.6-0.2,1.1-0.4,1.7-0.6C47.1,28,46.5,27.9,45.9,27.8z M47.7,27.9c0,0.2,0.1,0.5,0.1,0.7
		c0.4,0,1.1,0.1,1.5,0.1C49.5,27.5,48.3,28,47.7,27.9z M45.9,28.9c0.1,0.4,1.3,0.4,1.4-0.1C46.8,28.6,46.4,28.7,45.9,28.9z
		 M47.8,29.1c0.4,0.2,1.2,0.3,1.4-0.2C48.7,28.7,47.9,28.6,47.8,29.1z M45.6,30c0.7,0.1,1.3,0.1,2,0C47.5,29.1,45.8,29.1,45.6,30z
		 M47.8,29.8c0.3,0.4,1,0.4,1.4,0.1C49.6,29.1,48,29.3,47.8,29.8z M45.7,30.6l-0.1,0.3c1.2,0.1,2.4-0.1,3.6,0l0-0.5
		c-1.2,0-2.3,0-3.5,0L45.7,30.6z"/>
</g>
<path fill="#020101" d="M54.4,27.6c0.5-0.2,1.1-0.2,1.7,0C55.9,28,54.5,28.1,54.4,27.6z"/>
<path fill="#0E0405" d="M58.7,27.9c0.1-0.4,0.3-0.6,0.6-0.7L59,28c0.2,0,0.6,0.1,0.8,0.1c-0.2,0.2-0.5,0.5-0.6,0.7
	c-0.2,0.9,0.4,2.3-0.4,2.9c0-0.7,0-1.4,0-2c-0.2,0-0.6,0.1-0.8,0.2c0.4-0.4,0.7-0.7,1.1-1.1C58.3,28.6,58.2,28.3,58.7,27.9z"/>
<path fill="#0E0405" d="M64.9,27.9c0.4-0.5,1.1-0.3,1.6-0.4c0.7,0.1,1.5-0.2,2,0.4C67.3,28,66.1,28,64.9,27.9z"/>
<path fill="#020101" d="M71.5,27.6c1,0.1,2.6-0.7,3.1,0.5c-0.1,0.2-0.4,0.7-0.5,0.9l0-0.5c0-0.2-0.1-0.5-0.1-0.6c-0.7,0-1.4,0-2.1,0
	c0,0.2,0,0.5,0,0.7l0,0.4C71.6,28.6,71.5,28.1,71.5,27.6z"/>
<path fill="#020101" d="M77.6,27.9c0.2-0.4,1-0.5,1.1,0C78.7,28.4,77.7,28.3,77.6,27.9z"/>
<g>
	<path fill="#020101" d="M83.7,28.8c0.1-0.5,0.2-1,0.3-1.6c0.2,0.4,0.4,0.7,0.7,1c-0.1-0.2-0.2-0.7-0.2-1c1,0.7,2.2,0.3,3.3,0.2
		c0,1,0,2,0.1,3c-0.2,0-0.5,0-0.7,0c0.4-0.8,0.5-2.3-0.4-2.8c0,1.3,0,2.6-0.1,3.8c-0.1,0-0.3,0-0.4,0c0-1.2,0-2.4,0.1-3.6
		C86,28,85.2,28,84.8,28c0.2,0.2,0.5,0.6,0.7,0.8L84.9,29c-0.1,0.5,0.1,0.9,0.4,1.3c0-0.3,0.1-0.9,0.1-1.2c0.6,0.5,0.4,1.7-0.6,1.2
		c0,0.2,0.1,0.5,0.2,0.7c-0.5,0-1,0.1-1.5,0.1c0.4-0.7,0.2-1.5,0-2.2c0.3,0,0.9,0.1,1.1,0.1c-0.1-0.2-0.2-0.6-0.2-0.8
		C84.3,28.4,83.9,28.7,83.7,28.8z M84.5,30.5c0-0.2,0-0.7,0-0.9C83.9,29.4,84,30.6,84.5,30.5z"/>
</g>
<path fill="#0E0405" d="M65.2,28.7c1.1,0,2.1-0.1,3.2,0c0.1,0.1,0.2,0.3,0.3,0.3c-1,0.1-2,0.1-3,0.1c-0.1,0.9-0.2,2-1.1,2.5
	C64.9,30.6,65.2,29.7,65.2,28.7z"/>
<g>
	<path fill="#020101" d="M77.3,28.6c0.8,0,1.7-0.1,2.6,0c0,0.4-0.1,0.8-0.4,1.1c0.5,0.1,0.9-0.1,1.2-0.5c-0.2-0.3-0.4-0.6-0.5-0.8
		c0.3,0.1,0.8,0.2,1.1,0.3c-0.1,0.1-0.4,0.4-0.6,0.6c0.2,0.2,0.6,0.5,0.8,0.7c-1,0.1-2,0.3-3-0.1c0,0.4,0,1.1,0,1.4
		c0.7,0.1,1.2-0.4,1.8-0.8c0.3,0.3,0.6,0.5,0.9,0.8c-0.4-0.1-0.7-0.2-1.1-0.2c-0.7,0.8-1.5,0-2.3,0.3c0.3-0.4,0.5-0.8,0.7-1.2
		c-0.4-0.2-0.8-0.3-1.2-0.5c0.2,0,0.7,0,1,0c0-0.1,0-0.4,0-0.6C78,28.9,77.5,28.7,77.3,28.6z M78.5,29c0.3,0.6,0.6,0.6,0.9,0
		C79.1,28.6,78.8,28.6,78.5,29z"/>
</g>
<g>
	<path fill="#020101" d="M98.9,29c0.4-0.4,0.9-0.5,1.5-0.3l-0.5,0.5c-0.1,0.2-0.2,0.6-0.2,0.8c0.2,0,0.7-0.1,1-0.1l0,0.4
		c-0.2,0-0.7,0-0.9,0c0,0.4,0,0.8,0.1,1.3c-0.1,0-0.3,0-0.3,0c0-0.5,0-0.9,0-1.4c-0.5,0-0.9,0-1.4,0c0,1-0.9,1.5-1.7,1.1
		c0.3-0.2,1-0.6,1.4-0.8c-0.6,0-1.1-0.2-1.4-0.6c0.8-0.2,1.9,0.4,2.5-0.4c-0.2-0.1-0.7-0.2-0.9-0.3c0-0.1,0.1-0.4,0.1-0.5L98.9,29z
		 M99,29.2"/>
</g>
<g>
	<path fill="#020101" d="M59.8,28.6c0.8,0.2,1.6,0.2,2.4,0.2c0,0.8,0,1.7,0,2.5c-0.5,0-0.9,0-1.4,0c0-0.8,0.1-1.6,0-2.3
		c-0.3,0.1-0.8,0.3-1.1,0.4L59.8,28.6z M61.5,29.3c-0.2,0.4-0.3,1-0.1,1.5C61.9,30.7,62,29.4,61.5,29.3z"/>
</g>
<path fill="#4B4849" d="M71.1,29.4c0.2-0.1,0.7-0.3,0.9-0.4c0.7,0,1.4,0,2.1,0.1c0.2,0.1,0.7,0.3,0.9,0.4
	C73.7,29.6,72.4,29.6,71.1,29.4z"/>
<path fill="#FFFFFF" d="M99,29.2"/>
<path fill="#343334" d="M60.1,29.5c0.5,0.1,0.5,1.4,0,1.6C59.9,30.6,59.9,30,60.1,29.5z"/>
<g>
	<path fill="#020101" d="M71.2,29.9c1.3,0.1,2.5,0,3.8,0c0,0.5,0,1,0,1.5c-1.2,0-2.5,0-3.7,0C71.2,30.9,71.2,30.4,71.2,29.9z
		 M71.6,30.1c0,0.3-0.1,0.8-0.1,1c0.4,0,1.2-0.1,1.6-0.1c-0.2-0.1-0.7-0.2-1-0.3l0-0.1c0.4,0,0.9,0,1.3-0.1
		c-0.1,0.1-0.2,0.4-0.2,0.6c0.3,0,1,0,1.3,0c0-0.2,0.1-0.7,0.1-0.9C73.6,30.3,72.6,30.3,71.6,30.1z"/>
</g>
<path fill="#020101" d="M90,31.3c0.2-0.6,0.2-1.4,0.9-1.7c-0.1,0.5-0.3,1-0.5,1.5c0.5,0,1.1,0,1.6-0.1c-0.1-0.3-0.3-0.7-0.3-1
	c0.3-0.1,0.8-0.4,1-0.5c-0.1,0.2-0.4,0.7-0.5,1c0.3,0.8,1.2,0.3,1.8,0.5c-0.2-0.5-0.5-0.9-0.7-1.4c0.9-0.2,0.7,1.1,1,1.7
	C93,31.2,91.5,31.4,90,31.3z"/>
</svg>
