<?xml version="1.0" encoding="utf-8"?>
<!-- Generator: Adobe Illustrator 18.1.1, SVG Export Plug-In . SVG Version: 6.00 Build 0)  -->
<svg version="1.1" id="图层_1" xmlns="http://www.w3.org/2000/svg" xmlns:xlink="http://www.w3.org/1999/xlink" x="0px" y="0px"
	 viewBox="0 0 46.2 55" enable-background="new 0 0 46.2 55" xml:space="preserve">
<g>
	<path fill="#0C187C" d="M15.2,1.7c-0.6-0.6,0-1.9,0.9-1.7c1.2,0.3,2,1.2,2.7,2.2c0.4,0,0.8-0.1,1.1,0.2c-0.1,0.1-0.3,0.2-0.5,0.3
		c0.3,0.6,0.2,1.2,0.1,1.8c0.5,0.3,0.9,0.6,1.2,1c-0.2,0.1-0.4,0.2-0.6,0.3c-0.3-0.5-0.7-0.9-1.2-1.2c-0.4,0.5-1.3,0.5-1.4,1.1
		c-1.2-0.3-1.3-2-0.5-2.8c0.4-0.3,0.9-0.4,1.4-0.6c-0.5-0.8-1.3-1.3-2.2-1.5c-0.3,0-0.7,0.2-0.6,0.5c0.2,0.1,0.4,0.2,0.6,0.3
		C16.1,2.3,15.4,2.1,15.2,1.7z M17.5,3.7c-0.4,0.5-0.2,1.2,0.2,1.7C18,4.7,18.4,4,19.1,3.8C19,3.6,19,3.3,18.9,3
		C18.4,3.1,17.8,3.2,17.5,3.7z"/>
</g>
<path fill="#0F1B7F" d="M29,1.2c0.1-0.1,0.4-0.2,0.5-0.3c0.9,1.2,2.5,1.2,3.8,1c0,0.3-0.1,0.6-0.4,0.7C32,3,31.1,2.6,30.3,2.4
	C29.7,2.2,29.2,1.8,29,1.2z"/>
<path fill="#091D7B" d="M21.6,1.7c0.3-0.2,0.8-0.1,0.9,0.3c0,0.4-0.2,0.8-0.6,0.8C21.5,2.6,21.3,2.1,21.6,1.7z"/>
<g>
	<path fill="#0A197A" d="M23.8,2.4c0.9-0.8,2.1-0.6,3.1-0.2c-0.1,0.2-0.2,0.3-0.3,0.5c0,0.5-0.1,1.1-0.2,1.6c0.1,0.4,0.3,0.7,0.5,1
		c-0.1,0.1-0.4,0.3-0.6,0.4c-0.2-0.4-0.4-0.8-0.6-1.2c-0.4,0.1-1,0.4-1.3-0.1c0.1-0.7,0.9-0.6,1.4-0.5c0-0.3,0.1-0.7,0-1
		c-0.6-0.4-1.6,0-1.8,0.8c-0.1,0.5,0,1,0,1.5c-0.4-0.2-0.8-0.5-0.9-0.9C23.1,3.5,23.5,3,23.8,2.4z M23.9,2.6"/>
</g>
<path fill="#0C157A" d="M9.9,3.8c-0.6-0.4-0.2-1.5,0.5-1.6c1.2-0.2,2.3,0.4,3,1.3c0.4,0.4,1-0.2,1.4-0.1c0.4,0.6-0.6,0.9-0.9,1.2
	c0,0.2-0.1,0.5-0.2,0.6c1.3-0.4,2.8,0.6,2.7,2C16,6.5,15.3,6,14.5,5.9c-0.7-0.2-1.2,0.4-1.6,1c-0.1,0-0.4,0.1-0.5,0.1
	c-0.1-0.9,0.7-1.3,1.1-2c-0.5,0.1-1,0.4-1.6,0.3C11.7,5,12,4.7,12.1,4.5c0.4-0.1,0.7-0.2,1.1-0.3c-0.4-1-1.6-1.5-2.6-1.2
	c-0.1,0.3,0.2,0.6,0.4,0.8C10.7,3.9,10.2,4.2,9.9,3.8z"/>
<path fill="#8A93E6" d="M23.9,2.6"/>
<g>
	<path fill="#0E177D" d="M27.8,3.1c0.2-0.5,0.8-0.4,1.3-0.4c0.5,0.1,1,0,1.5,0c0.1,0.6,0.7,0.7,1.1,1c-0.6,1.8-1.5,3.4-2.1,5.2
		c-0.2-0.8-0.8-1.6-1.6-2c-0.4-0.2-1-0.3-1.2-0.7c0.3-0.2,0.7-0.5,1.1-0.3c0.8,0.3,1.3,1,1.8,1.6c0.1-0.3,0.3-0.7,0.4-1
		c-0.4-1-1.4-1.5-2.3-1.9c0-0.5,0.2-1,0.6-1.3C28.2,3.2,28,3.1,27.8,3.1z M28.7,4c0.7,0.4,1.3,1,1.6,1.7C30.5,5.2,31,4.6,30.6,4
		C30.3,3.2,29,3.2,28.7,4z"/>
</g>
<g>
	<path fill="#0E197B" d="M33.1,4.5c0.5,0,1-0.2,1.4,0.1c0.4,0.3,0.8,0.6,1.2,0.8C36,5.6,36.4,5.6,36.5,6c0,0.2-0.3,0.3-0.5,0.4
		c-0.7,1.5-1.6,2.8-2.3,4.2c-0.3,0.4-0.5,1-1,1.2c0.6-1.9,1.8-3.5,2.6-5.2c0.2-0.3-0.2-0.5-0.4-0.6c-0.3,0.7-0.6,1.3-1.1,1.8
		c-0.2,0-0.5,0.1-0.6,0.1c0-0.2,0.1-0.5,0.1-0.7c-0.3-0.5-0.9-0.7-1-1.3c0-0.4,0.5-0.6,0.8-0.6C33.1,5,33.1,4.8,33.1,4.5z M33.3,5.2
		c0.1,0.4,0.1,0.9-0.1,1.3c0.2,0.1,0.4,0.2,0.6,0.3c0.3-0.3,0.7-0.6,0.6-1C34.2,5.3,33.7,5.2,33.3,5.2z"/>
</g>
<path fill="#0A1878" d="M10.5,5.4c0.4-0.2,0.9,0.4,0.6,0.8c-0.2,0.3-1,0.4-1.1-0.1C9.8,5.8,10.2,5.5,10.5,5.4z"/>
<g>
	<path fill="#081878" d="M6.6,8.5c0.8-0.6,1.6-1.4,2.4-2c1.4,1.9,3,3.6,4.4,5.5c-0.4,0.2-0.6-0.2-0.8-0.4c-1.3-1.3-2.3-2.9-3.7-4
		C8.7,7.3,8.5,7.7,8.3,7.8c0.9,0.7,1.6,1.6,1.7,2.7C9.7,10.3,9.3,10,9,9.7c-0.3,0.3-0.7,0.6-1,0.9c-0.2-0.1-0.4-0.2-0.6-0.3
		c-0.2-0.3-0.1-0.8-0.5-1C6.8,9.2,6.3,8.8,6.6,8.5z M7.6,9.4c0.5,0.4,1-0.1,1.5-0.2C8.8,8.9,8.4,8.6,8,8.4c0-0.1,0-0.2,0-0.3
		C7.8,8.5,7.5,8.9,7.6,9.4z"/>
</g>
<path fill="#0E1582" d="M37.4,6.8c0.3-0.1,0.7-0.1,0.7,0.3c0.1,0.5-0.6,0.6-1,0.6C36.6,7.5,37.1,6.9,37.4,6.8z"/>
<path fill="#0C177D" d="M38.7,8.3c0.2-0.1,0.5-0.2,0.7-0.3c0.6,0.9,1.4,1.5,2,2.4c-0.2,0-0.5,0.1-0.7,0.1c-0.4-0.3-0.8-0.5-1.3-0.5
	c0.3,0.9,0.4,2.1-0.4,2.8c-0.6,0.4-1.2,0.8-1.9,1c0.1-0.1,0.2-0.4,0.3-0.6c-0.2-0.1-0.4-0.3-0.5-0.4c0-0.2,0-0.5,0.1-0.7
	c0.6,0,1.2,0.5,1.7,0c0.4-0.6,0.2-1.5-0.4-1.9c-0.4-0.3-0.9-0.3-1.3-0.4c0.2-0.3,0.5-0.7,1-0.5c0.5,0.1,1,0.3,1.5,0.2
	C39.1,9.1,38.8,8.8,38.7,8.3z"/>
<path fill="#0C1580" d="M23.1,8.4c1.6,1.6,3.2,3.3,4.9,4.9c0.4-0.4,0.7-0.8,1.1-1.2c1.3,1.3,2.5,2.5,3.8,3.8c0.3,0.3,0.6,0.6,0.9,1
	c-1.3-0.9-2.6-1.9-3.9-2.8c0,0.6-0.5,1.1-0.8,1.5c-2-1.9-3.9-3.8-5.9-5.6c0,0.8,0.1,1.6,0.3,2.4c-0.2,0-0.5,0-0.7,0.1
	c0.4,0.8,1,1.6,1.6,2.3c-1.3,0-2.7,0-4,0.2c0.7,1,1.5,1.8,2.3,2.8c-2.1-0.9-4.2-1.8-6.4-2.8c-0.1,0.5-0.1,1-0.1,1.5
	c-0.4-0.1-0.7-0.4-1-0.6c-1,0.3-1.9,0.9-2.8,1.2c1.6-1.7,3.3-3.3,5-4.9c0.4,0.4,0.7,0.8,1.1,1.1C20,11.5,21.6,10,23.1,8.4z"/>
<path fill="#0D197D" d="M5.2,10.2C5.1,9.8,5.5,9.5,5.8,9.7C6,9.9,6,10.3,6.3,10.4c0.8,0.4,1.3,1.1,2.1,1.6c-0.7,0.2-1.5,0.3-2.2,0.7
	c-0.5,0.3-0.6,0.8-1.1,1.1c-0.6-0.4-1.1-1-1.5-1.6c0.2-0.5,0.6-0.9,1-1.4c0.1,0.3,0.5,0.7,0.2,1c-0.3,0.3-0.2,0.8,0.1,1.1
	c0.5-0.6,1.2-0.9,1.9-1.2C7,11.1,6.2,11,5.9,11c0,0.3,0.1,0.6,0.1,0.9c-0.1,0-0.3,0-0.4,0C5.4,11.3,5.2,10.8,5.2,10.2z"/>
<path fill="#0F1378" d="M40.3,13.2c0.7-0.6,1.4-1.2,2.1-1.7c0.1,0.2,0.6,0.5,0.2,0.7c-1.5,1-3,2-4.4,3.2c-0.3,0.3-0.7,0.5-1.1,0.7
	c0-0.1-0.1-0.3-0.1-0.5C38.1,14.8,39.2,14,40.3,13.2z"/>
<path fill="#0B1480" d="M3.4,14.6c1.1,0.2,2.1,0.9,3,1.6c1.3,1,2.4,2.1,3.3,3.4c2.2-0.4,4.4-0.8,6.6-0.5c-1.3,1.4-2.7,2.7-4,4.2
	c-1.4,0.1-2.8,0.5-4.2,0.9C7.4,20.5,5.9,17.2,3.4,14.6z"/>
<path fill="#0B1480" d="M42.8,14.5c-0.2,0.5-0.7,0.9-1,1.3c-1.9,2.4-2.9,5.3-3.6,8.3c-1.3-0.5-2.7-0.7-4.1-0.9
	c-1.3-1.5-2.7-2.8-4.1-4.2c2.2-0.1,4.5,0.1,6.7,0.6C38.1,17.3,40.3,15.5,42.8,14.5z"/>
<path fill="#FAD50C" d="M16.9,19.5c0.3-0.4,0.8-0.2,1.2-0.2c-0.1,0.2-0.1,0.4-0.2,0.6c-1.1,1.1-2.2,2.2-3.2,3.4
	c-0.4,0-0.8,0-1.2-0.1C14.6,21.9,15.8,20.7,16.9,19.5z"/>
<path fill="#FCD60C" d="M28,19.4c0.4-0.1,0.8-0.3,1.2-0.1c1.3,1.3,2.5,2.6,3.8,3.8c-0.4,0.1-0.7,0.2-1.1,0.2
	C30.6,22,29.3,20.7,28,19.4z"/>
<path fill="#2A8D3E" d="M18.9,19.9c0.3-0.5,0.9-0.1,1.3,0c-1.2,1.2-2.4,2.5-3.6,3.7c-0.2,0.3-1.2,0.1-0.8-0.4
	C16.8,22.1,17.9,21,18.9,19.9z"/>
<path fill="#30933D" d="M26.1,19.8c0.3-0.1,0.7-0.2,1-0.3c1.2,1.3,2.6,2.5,3.7,3.9c-0.3,0.1-0.5,0.2-0.8,0.3
	C28.7,22.5,27.4,21.2,26.1,19.8z"/>
<path fill="#DB040F" d="M20.8,20.4c0.3-0.4,0.9-0.1,1.3-0.1c-1.3,1.3-2.5,2.6-3.9,3.9c-0.3-0.1-0.5-0.2-0.8-0.3
	C18.5,22.7,19.6,21.6,20.8,20.4z"/>
<path fill="#D90513" d="M24.3,20.3c0.3-0.1,0.6-0.2,1-0.2c1.2,1.3,2.5,2.5,3.7,3.8c-0.3,0.1-0.5,0.2-0.8,0.3
	C26.8,22.9,25.5,21.7,24.3,20.3z"/>
<path fill="#0B1581" d="M22.8,20.7c0.1-0.1,0.3-0.5,0.5-0.2c1.3,1.3,2.6,2.7,3.9,4c-1.4,0.7-2.8,1.7-3.2,3.3
	c-0.2,1.1-0.3,2.4,0.5,3.4c0.5,0.6,0.9,1.3,0.8,2.2c0,1.1-1,2-2,2c-1.2,0.1-2.3-1-2.2-2.2c0-0.8,0.4-1.4,0.8-2
	c0.7-1,0.7-2.3,0.4-3.5c-0.4-1.5-1.8-2.5-3.2-3.2C20.3,23.2,21.6,22,22.8,20.7z"/>
<g>
	<path fill="#09127B" d="M1.7,37.3c0.4,0,0.8,0,1.1,0c0,0.7,0,1.3,0,2c0.6-0.1,1.2-0.4,1.7-0.1c-0.1,1.9,0,3.8-0.1,5.7
		c-0.1,0.4-0.3,0.7-0.6,1c-0.5,0.1-0.7-0.3-1-0.6c0,0.9,0,1.8,0,2.7c-0.4,0-0.8,0-1.2,0c0-2.7,0-5.3,0-8c-0.1,0-0.4,0-0.6,0
		c0,1.9,0,3.8,0,5.8c-0.4,0-0.7,0-1.1,0c0-2.3,0-4.6,0-6.9c0.6,0.2,1.1,0.3,1.7,0.5C1.7,38.7,1.7,38,1.7,37.3z M2.9,44.7
		c0.1,0,0.4,0,0.5,0c0-1.6,0-3.1,0-4.7c-0.1,0-0.4,0-0.5,0C2.8,41.6,2.9,43.1,2.9,44.7z"/>
</g>
<path fill="#091279" d="M25.7,37.4c0.4,0,0.8,0,1.3,0c-0.1,0.9-0.1,1.8-0.1,2.7c0.3,0,0.7,0,1,0c0,0.2,0,0.4,0,0.7c-0.3,0-0.7,0-1,0
	c0,0.8,0,1.7,0,2.5c0.3-0.1,0.6-0.1,0.9-0.2c0.1,0.6-0.6,0.8-0.9,1.1c0,1.3,0,2.5,0,3.8c-0.4,0-0.8,0-1.2,0c0-1.1,0-2.1,0-3.2
	c-0.4,0.4-0.8,0.7-1.3,1c-0.2-0.4-0.4-0.9-0.6-1.3c0.6-0.2,1.2-0.4,1.8-0.6c0-1,0-2.1,0-3.1c-0.2,0-0.4,0-0.7,0
	c-0.3,0.8-0.5,1.8-1.4,2.2c0.6-1.5,0.6-3.1,0.5-4.6c0.4,0,0.9,0.2,1.2,0.4c-0.2,0.5-0.2,1-0.2,1.5c0.1,0,0.4,0,0.6,0
	C25.8,39.2,25.8,38.3,25.7,37.4z"/>
<path fill="#091279" d="M29.7,37.3c0.4,0.1,0.7,0.2,1.1,0.3c-0.2,0.6-0.3,1.2-0.4,1.8c1.2,0.1,2.5-0.1,3.7,0.1
	c0.1,0.4-0.6,0.5-0.6,0.9c-0.3,1.4-0.7,2.8-1.4,4c0.9,1.1,1.8,2.3,2.2,3.7c-0.3-0.2-0.6-0.3-0.8-0.6c-0.6-0.8-1.2-1.5-1.9-2.2
	c-0.6,1.1-1.5,2-2.5,2.8c-0.3-0.4-0.6-0.8-0.9-1.2c1.2-0.4,1.9-1.4,2.5-2.4c-0.5-0.5-1.1-1-1.7-1.4c0.4-0.3,0.6-0.7,0.9-1.1
	c0.5,0.5,0.9,1,1.5,1.3c0.4-1.1,0.8-2.2,1-3.3c-0.7,0-1.5,0-2.2,0c-0.5,1-1.1,2.1-2,2.9c-0.1-0.6,0.3-1.1,0.4-1.6
	C29.3,40.1,29.5,38.7,29.7,37.3z"/>
<g>
	<path fill="#09117B" d="M7.3,37.4c0.4,0.2,0.8,0.4,1.2,0.6c-0.4,0.5-0.8,0.9-1.2,1.3c0.7,0,1.4,0,2.1-0.2c0.3-0.1,0.5,0,0.8,0
		c-0.1,2.9,0,5.9-0.1,8.8c-0.4,0-0.8,0-1.2,0c0-0.1-0.1-0.2-0.1-0.3c-0.8-0.1-1.7,0-2.5,0c0,0.1,0,0.3-0.1,0.4c-0.4,0-0.8,0-1.2,0
		c0.4-1.4,0.2-3,0.2-4.4c0-1.5-0.1-3.1,0.1-4.6c0.4,0,0.7,0.1,1,0.2C6.8,38.6,7.1,38,7.3,37.4z M6.3,40c0,1,0,2.1,0,3.1
		c0.9,0,1.7,0,2.6,0c0-1,0-2.1,0-3.1C8.1,40,7.2,40,6.3,40z M6.4,43.8c0,1.1,0,2.1,0,3.2c0.9,0,1.7,0,2.6,0c0-1.1,0-2.2,0-3.2
		C8.1,43.8,7.2,43.8,6.4,43.8z"/>
</g>
<path fill="#09137C" d="M44.1,37.7c0.4,0,0.7-0.2,1-0.3c0.2,0.2,0.4,0.3,0.7,0.5c-0.4,0.8-1.2,1.2-1.8,1.8c-0.7,0.6-1.4,1.1-2,1.7
	c0.9,0,1.9,0,2.8,0c0.3,0,0.5-0.2,0.8-0.3c0.2,0,0.5,0.1,0.7,0.2c-0.3,2,0,4.1-0.2,6.2c-0.2,0.8-1.3,0.5-1.9,0.6
	c-0.1-0.4-0.2-0.7-0.2-1.1c0.3,0,0.7,0,1,0c0.1-1.6,0.1-3.2,0.1-4.9c-0.1,0-0.4,0-0.5,0c-0.4,1.4-0.7,3-1.6,4.3
	c-0.6,0.8-1.4,1.7-2.4,1.8c1.7-1.5,2.3-3.8,2.8-6c-0.2,0-0.5,0.1-0.7,0.1c-0.4,2.3-1.4,4.9-3.7,5.9c0-0.1-0.1-0.2-0.1-0.2
	c1.8-1.5,2.4-3.8,2.7-6c-0.3,0.2-0.6,0.3-0.9,0.5c-0.1-0.3-0.3-0.7-0.4-1c1.3-0.8,2.6-1.8,3.6-2.9c-1.1,0-2.2,0-3.3,0
	c0-0.3,0-0.5,0-0.7C41.6,37.7,42.8,37.7,44.1,37.7z"/>
<g>
	<path fill="#08117A" d="M13.2,37.9c0.7,0,1.2,0.3,1.9,0.3c1.1,0,2.2,0,3.3,0c0.6,0,1.2,0.1,1.8-0.1c0.4-0.2,0.8-0.1,1.2,0.1
		c-0.3,1.8-0.1,3.6-0.1,5.5c-0.4,0-0.8,0-1.2,0c-0.1-0.1-0.2-0.3-0.3-0.4c-0.6,0-1.3,0-1.9,0c0,0.5,0,1.1,0,1.6c1.2,0.1,2.5,0,3.7,0
		c0,0.2,0,0.5,0,0.8c-1.3,0-2.5,0-3.8,0c0,0.5,0,1,0.1,1.5c-0.5,0.2-1,0.3-1.5,0.4c0-0.2,0-0.3,0.1-0.5c0.1-0.5,0-0.9,0-1.4
		c-1.3,0-2.5,0-3.8,0c0-0.2,0-0.5,0-0.7c1.3-0.1,2.6,0,3.8,0c0-0.5,0-1.1,0-1.6c-0.6,0-1.3,0-1.9,0c-0.1,0.1-0.2,0.3-0.2,0.4
		c-0.4,0-0.8,0-1.2,0C13.1,41.8,13.2,39.8,13.2,37.9z M14.5,38.8c0,0.5,0,1.1,0,1.6c0.7,0,1.4,0,2,0c0-0.5,0-1.1,0-1.6
		C15.8,38.8,15.1,38.8,14.5,38.8z M17.9,40.5c0.7,0,1.4,0,2.1,0c0-0.5,0-1.1,0-1.6c-0.7,0-1.4,0-2,0C17.8,39.3,17.9,39.9,17.9,40.5z
		 M14.4,41.1c0,0.5,0,1,0,1.5c0.7,0,1.4,0,2,0c0-0.5,0-1,0-1.5C15.8,41.1,15.1,41.1,14.4,41.1z M17.9,41.1c0,0.5,0,1,0,1.6
		c0.7,0,1.4,0,2.1,0c0-0.5,0-1,0-1.5C19.3,41.1,18.6,41.1,17.9,41.1z"/>
</g>
<path fill="#081179" d="M37.1,37.9c0.5-0.1,1-0.1,1.5,0c-0.1,0.7-0.1,1.5-0.1,2.2c0.4,0,0.9,0,1.3,0c0,0.2,0,0.5,0,0.6
	c-0.5,0-0.9,0-1.4,0c0,1.1,0,2.3,0,3.4c0.3-0.2,0.6-0.4,1-0.6c0.1,0.1,0.2,0.4,0.3,0.6c-1,0.8-2.1,1.5-3.2,2.2
	c-0.2-0.4-0.6-0.9-0.5-1.3c0.4-0.2,0.8-0.3,1.2-0.4c0-1.3,0-2.6,0-3.8c-0.4,0-0.9,0-1.3,0c0-0.2,0-0.5,0-0.6c0.4,0,0.9,0,1.3,0
	C37.2,39.4,37.2,38.6,37.1,37.9z"/>
<path fill="#050A5F" d="M5.1,39c0.1,0,0.3,0,0.4-0.1c-0.3,1.5-0.1,3-0.1,4.6c0,1.5,0.2,3-0.2,4.4C5,45,5.1,42,5.1,39z"/>
<path fill="#0A0E71" d="M12.3,47c1.4,0,2.8,0,4.1,0c0,0.2,0,0.3-0.1,0.5c0.5-0.1,1-0.2,1.5-0.4c1.4-0.2,2.8,0,4.1-0.1
	c0,0.2,0,0.4,0,0.6c-3.2,0-6.5,0-9.7,0C12.3,47.4,12.3,47.1,12.3,47z"/>
<path fill="#0B1374" d="M6.1,50.3c0.6-1.1,2.3-1.4,3.3-0.7c1,0.7,0.3,2.4-0.8,2.6c-0.4,0.1-0.8-0.1-1.2-0.2c-0.3,0.5-0.4,1.2-1,1.3
	c-0.3,0-0.5-0.3-0.2-0.5c0.6-0.9,1-1.8,1.4-2.8C7.9,50,8.1,50,8.3,50c-0.2,0.5-0.5,1-0.7,1.5c0.9,0.7,2-0.6,1.4-1.5
	c-0.8-0.8-2.2-0.2-2.7,0.6c0,0.2,0.4,0.6,0.1,0.7C5.9,51.3,5.9,50.6,6.1,50.3z"/>
<path fill="#040E75" d="M16.8,52c0.4-0.7,0.6-1.5,0.9-2.3c0.1,0.1,0.4,0.2,0.6,0.3c-0.4,1-0.8,1.9-1,2.9c0.6,0,0.9-0.6,1.4-0.8
	c-0.3,0.7-0.9,1.3-1.6,1.3C16.4,53.1,16.6,52.4,16.8,52z"/>
<path fill="#091375" d="M19.8,51.5c0.2-1,1.4-1.4,2.3-1.7c0.4-0.2,0.8-0.1,0.7,0.4c0.4-0.2,0.8-0.6,1.2-0.4c0.1,0.1,0.2,0.3,0.3,0.5
	c0.4-0.3,0.9-0.8,1.5-0.5c0.4,0.3,0.2,0.9,0,1.2c-0.4,0.8-1.1,1.8-0.4,2.6c-0.4,0-0.8-0.1-0.9-0.5c-0.2-1,0.8-1.9,0.7-2.9
	c-0.4,0.1-0.7,0.4-0.9,0.8c-0.4,0.7-0.7,1.4-1,2.2c-0.2,0-0.4-0.1-0.7-0.1c0.3-0.9,0.8-1.8,1-2.8c-1.2,0.3-1.4,1.7-1.8,2.6
	c-0.1,0.3-0.5,0.2-0.7,0.2c0.3-1,0.8-1.9,1-2.9c-0.6,0.3-1.4,0.5-1.6,1.1c0.1,0.3,0.3,0.5,0.5,0.7c-0.1,0.1-0.3,0.2-0.4,0.3
	C20.2,52.2,19.7,52,19.8,51.5z"/>
<g>
	<path fill="#0A1071" d="M33.4,49.7c0.2,0.1,0.4,0.2,0.7,0.3c-0.4,0.9-0.8,1.9-1,3c0.3-0.1,0.7-0.2,0.6-0.6c-0.1-1,1.2-1.8,2-1.2
		c0.9,1.1-0.9,3-2,1.9c-0.4,0.2-1,0.5-1.4,0c-0.2,0.1-0.4,0.2-0.6,0.4c-0.4-0.1-0.7-0.4-1.1-0.6c0.3-0.6,0.3-1.5,1.1-1.8
		c0.4-0.3,0.8,0.2,1.2,0.3C33,50.8,33.2,50.2,33.4,49.7z M31.9,51.4c-0.6,0.3-0.6,1-0.3,1.5c0.4-0.2,0.7-0.4,0.9-0.8
		C32.7,51.7,32.3,51.1,31.9,51.4z M34.5,52.9c0.5-0.3,1.1-1.2,0.4-1.6C34.3,51.3,33.9,52.5,34.5,52.9z"/>
</g>
<path fill="#081576" d="M35.8,52.7c0.2-0.7,0.5-1.4,0.7-2.1c0.2,0.1,0.4,0.2,0.6,0.3c-0.2,0.6-0.7,1.2-0.5,1.8c0.7,0,0.9-1,1.2-1.5
	c0.1-0.4,0.5-0.2,0.7-0.1c-0.2,0.6-0.6,1.2-0.6,1.9c0.9-0.4,1-1.4,1.6-2.1c0.1,0.1,0.4,0.2,0.5,0.3c-0.3,0.6-0.8,1.4-0.4,2.1
	c-0.4,0.3-1.1,0.3-1-0.4c-0.4,0.5-1.1,0.8-1.5,0.2c-0.3,0.2-0.6,0.4-0.9,0.3C36.1,53.2,36,52.9,35.8,52.7z"/>
<g>
	<path fill="#06106E" d="M9.6,52.9c-0.3-0.8,0.3-1.9,1.2-2c0.5,0.1,0.9,0.2,1.4,0.1c-0.1,0.7-0.4,1.3-0.5,2c0.1,0,0.4-0.1,0.5-0.2
		c0.1-0.5,0.2-1.1,0.6-1.5c0.4-0.5,1.2-0.5,1.7-0.1c0.3,0.5,0.1,1,0,1.5c-0.2,0.8-0.5,1.8-1.2,2.2c-0.5,0.2-1.3,0.2-1.6-0.4
		c0.1-0.1,0.2-0.3,0.3-0.5c0.3-0.1,0.5-0.1,0.8-0.1c-0.2,0.2-0.5,0.7,0,0.7c0.6-0.2,0.7-1,1-1.4c-0.5,0.2-1.1,0.2-1.4-0.3
		c-0.4,0.4-1,0.7-1.4,0.1C10.6,53.4,9.9,53.5,9.6,52.9z M10.4,52.8c0.7-0.1,1.3-1.1,0.7-1.6C10.3,51.4,9.7,52.3,10.4,52.8z
		 M13.3,52.9c0.7-0.1,1.1-1.2,0.5-1.6C13,51.3,12.7,52.4,13.3,52.9z"/>
</g>
<path fill="#071370" d="M15.3,50.8c0.3,0,0.5,0.1,0.8,0.3c0.1-0.1,0.3-0.2,0.4-0.3c0.3,0.2,0.5,0.4,0.6,0.7c-0.3,0-0.8-0.4-1.1,0
	c-0.3,0.5-0.4,1.1-0.7,1.6c-0.2,0-0.5,0.1-0.7,0.1C14.9,52.5,15.1,51.7,15.3,50.8z"/>
<g>
	<path fill="#0D1076" d="M26.6,51c0.5-0.3,1.3,0.1,1.3,0.7c0.1,1-1.2,2.1-2.1,1.4C25.3,52.3,25.9,51.3,26.6,51z M26.7,51.4
		c-0.3,0.4-0.6,1-0.2,1.4c0.5,0.1,0.8-0.5,0.9-0.9C27.5,51.6,27,51.1,26.7,51.4z"/>
</g>
<g>
	<path fill="#0A1176" d="M28.5,51.3c0.5-0.6,1.4-0.3,2.1-0.2c-0.1,0.6-0.3,1.1-0.5,1.7c0.2,0.1,0.4,0.2,0.6,0.3
		c-0.2,0.1-0.6,0.2-0.8,0.3c-0.1-0.1-0.3-0.2-0.4-0.3c-0.4,0.2-1,0.4-1.3,0C27.8,52.5,28.1,51.7,28.5,51.3z M29.1,51.3
		c-0.3,0.4-0.8,1-0.3,1.5c0.7,0.1,1.1-0.9,0.9-1.4C29.5,51.4,29.3,51.3,29.1,51.3z"/>
</g>
</svg>
