<?xml version="1.0" encoding="utf-8"?>
<!-- Generator: Adobe Illustrator 18.1.1, SVG Export Plug-In . SVG Version: 6.00 Build 0)  -->
<svg version="1.1" id="图层_1" xmlns="http://www.w3.org/2000/svg" xmlns:xlink="http://www.w3.org/1999/xlink" x="0px" y="0px"
	 viewBox="0 0 84.2 51.5" enable-background="new 0 0 84.2 51.5" xml:space="preserve">
<path fill="#102CA6" d="M34,4.6c2.2-2.5,5.9-2.3,8.2-4.6c1.9,2.1,5,2,7.1,3.9c1.1,0.6,1,1.9,1.5,2.8c0.4,0.4,0.9,0.7,1.4,1
	c0.2,0.1,0.6,0.4,0.8,0.5c0,0.2,0,0.7-0.1,0.9c-0.8-0.7-1.7-1.1-2.5-1.7c-0.5-0.8-0.6-1.8-1.2-2.5c-1.8-1.7-4.3-1.9-6.3-3.3
	c-0.1,0.2-0.4,0.6-0.5,0.8c0-0.3,0.1-1,0.1-1.3C40,2.7,37.1,3.3,34.7,5c-0.3,0.8-0.3,1.9-1.1,2.5c-0.8,0.6-1.7,1.1-2.4,1.7
	c0-0.3,0.1-0.8,0.2-1.1c0-0.1,0.1-0.2,0.2-0.3C33,7.3,34,6.1,34,4.6z"/>
<g>
	<path fill="#7FCDF6" d="M34.7,5c2.4-1.8,5.3-2.3,7.7-3.9c0,0.3-0.1,1-0.1,1.3c0.1-0.2,0.4-0.6,0.5-0.8c2,1.3,4.6,1.6,6.3,3.3
		c0.6,0.7,0.7,1.7,1.2,2.5c0.8,0.6,1.7,1.1,2.5,1.7l0.3,0.2l0.2,0.2l0,0.2c-0.9,0.1-1.8,0.1-2.6,0c-0.8-0.2-1.7-0.6-2.4,0
		c-0.3-0.1-1-0.3-1.3-0.3c0.1,0,0.4,0,0.6,0c-1.3-1.7-3-3.6-5.4-3.4c-0.2,0.1-0.5,0.4-0.6,0.6c-1.4,0.2-2.9,0.2-4.1,0.9
		c-1.2,0.6-2.2,1.4-3.4,2.1c-1.1,0.3-2.3,0.3-3.5,0.3c0.2-0.2,0.5-0.5,0.7-0.7c0.8-0.6,1.6-1.1,2.4-1.7C34.5,7,34.4,5.9,34.7,5z
		 M37.9,5.9c1.9,0.2,3.5-1.3,3.9-3.1C40.3,3.6,39.3,5,37.9,5.9z"/>
</g>
<path fill="#763138" d="M31.5,3c1,0.1,1.8-0.4,2.7-0.7c-0.3,0.7-0.6,1.3-1,2C33.1,4.1,33,3.7,33,3.4c-0.4,0.4-0.7,0.9-1.1,1.4
	c-0.3,0-0.8,0.1-1.1,0.1c-0.1-0.2-0.3-0.6-0.4-0.7C30.8,3.8,31.2,3.4,31.5,3z"/>
<path fill="#A03940" d="M49.9,2.5c0.9,0.2,1.9,0.3,2.8,0.6c0.7,0.6,1.2,1.4,1.6,2.2c-0.6,0.1-1.3,0.3-1.9,0.5c0,0.4-0.1,1.2-0.1,1.6
	c-0.6-1-1.1-2.1-1.7-3.1c0.2,0.1,0.7,0.2,1,0.3C50.8,4,50.3,3.2,49.9,2.5z"/>
<path fill="#AFE4F9" d="M37.9,5.9c1.4-0.9,2.5-2.3,3.9-3.1C41.4,4.6,39.7,6.1,37.9,5.9z"/>
<path fill="#AD2727" d="M31.9,4.8c0.3-0.5,0.7-0.9,1.1-1.4c0.1,0.2,0.2,0.7,0.3,0.9c0,0.4,0,0.8-0.1,1.1c-0.1,0.1-0.4,0.2-0.6,0.2
	c-0.6,0.5-1.2,1.1-1.8,1.6c-0.2-0.3-0.5-0.8-0.7-1c0.4-0.2,0.9-0.4,1.3-0.7C31.5,5.4,31.8,5,31.9,4.8z"/>
<path fill="#802B2A" d="M30.4,4.2c0.1,0.2,0.3,0.6,0.4,0.7c0.3,0,0.8-0.1,1.1-0.1c-0.1,0.2-0.4,0.6-0.5,0.8
	c-0.4,0.2-0.9,0.4-1.3,0.7c0.2,0.3,0.5,0.8,0.7,1c0.6-0.6,1.1-1.1,1.8-1.6c0.2,0.8-0.6,1.4-1,2.1c0,0.1-0.1,0.2-0.2,0.3
	c-1.1-0.6-2.3-1.1-3.5-1.6C28,6.2,28.4,5.4,28.5,5c0.3,0.4,0.5,0.9,0.8,1.3C29.6,5.6,30,4.9,30.4,4.2z"/>
<g>
	<path fill="#972721" d="M52.4,5.8c0.6-0.2,1.3-0.3,1.9-0.5c0.3,0.5,0.6,0.9,0.9,1.4c0.1-0.4,0.1-1.2,0.2-1.6c0.6,0.6,1.3,1.2,2,1.7
		c1.1,3.1,1.5,6.8-0.4,9.6c-0.1,0.1-0.3,0.3-0.4,0.4c-0.2,0.2-0.5,0.6-0.7,0.8c-0.4-0.1-0.8-0.3-1.1-0.4c-2.5-3.2-7.1-2.2-10.3-4
		c3,0.2,6.1,0.6,8.9,1.9c0.3-2.3,0.1-4.6,0.5-6.9c-0.1,0-0.4,0-0.5,0l-0.3,0c-0.2-0.1-0.6-0.4-0.8-0.5l0-0.4
		C52.3,6.9,52.3,6.1,52.4,5.8z M55.6,9.4c-0.4,0.3-0.5,1.3,0.2,1.4C56.6,10.8,56.5,8.9,55.6,9.4z"/>
</g>
<path fill="#FDFEFD" d="M42.2,6c2.4-0.2,4.1,1.7,5.4,3.4c-0.1,0-0.4,0-0.6,0c-0.1,0-0.4-0.1-0.5-0.1c-0.1-0.2-0.3-0.7-0.4-1
	c-0.9-0.3-1.9-1.5-2.7-0.4c0.7,0.1,1.5,0.2,2.2,0.3c0.6,0.7,1.2,1.8,2.3,1.7l0.5-0.3c0.7-0.6,1.6-0.2,2.4,0c-0.8,0-1.6,0.1-2.4,0.3
	c1.5,0.6,3,1.5,4.6,0.8l0.3,0.5c0-0.5,0.1-1,0.1-1.6l0-0.2l-0.2-0.2c0.3-0.4,0.3-0.8,0.1-1.2c0.1,0,0.4,0,0.5,0
	c-0.4,2.3-0.2,4.6-0.5,6.9c-2.8-1.3-5.9-1.7-8.9-1.9c-0.3,0-0.7-0.1-1-0.1c-3-0.4-6,0.3-9.1,0.6l0.4-0.4c1.3-0.7,2.7-1.3,4.2-1
	c0.4-0.3,0.8-0.7,1.2-1c1.6,0.5,3.2,1.1,4.8,1.7c-0.6-0.4-1.2-0.8-1.7-1.2c-0.2-1.2-0.9-2.3-1.4-3.4c0.3-0.1,0.9-0.2,1.2-0.3
	c0.2-0.4,0.3-0.7,0.4-1.1C42.9,6.7,42.6,6.3,42.2,6z"/>
<path fill="#A62B1F" d="M27,6.2c0.2,0.1,0.7,0.3,0.9,0.4c1.2,0.4,2.4,1,3.5,1.6c0,0.3-0.1,0.8-0.2,1.1c-0.2,0.2-0.5,0.5-0.7,0.7
	c0,1.9-0.3,3.9,0.8,5.6c-0.3,0.2-0.6,0.3-0.9,0.5c-0.7-0.2-2,0.3-2.3-0.7c0.2-0.6,0.5-1.3,0.8-1.9c-0.3-0.1-0.7-0.1-1-0.2
	c0-1.2-0.1-2.4-0.2-3.5c0.4-0.6,0.8-1.2,1.2-1.8c-0.7-0.5-1.5-0.7-2.4-0.6C26.7,6.9,26.9,6.5,27,6.2z"/>
<path fill="#FBFEFE" d="M37.5,7.5c1.2-0.7,2.7-0.8,4.1-0.9c-1,1.4-2.9,0.8-4.1,1.8c-1,0.7-2.2,1-3.4,1.2C35.2,8.9,36.3,8.2,37.5,7.5
	z"/>
<path fill="#121DA4" d="M41.6,6.6c0.2-0.1,0.5-0.4,0.6-0.6c0.3,0.3,0.7,0.7,1,1.1c-0.1,0.4-0.3,0.7-0.4,1.1
	c-0.3,0.1-0.9,0.2-1.2,0.3c0.6,1.1,1.2,2.2,1.4,3.4c0.6,0.4,1.1,0.8,1.7,1.2c-1.6-0.6-3.2-1.1-4.8-1.7c-0.4,0.3-0.8,0.7-1.2,1
	c-1.5-0.2-2.9,0.4-4.2,1l-0.4,0.4c-0.1,0.2-0.3,0.3-0.4,0.5c-0.9,0.3-1.7,0.6-2.5,1.1c-1.1-1.6-0.8-3.7-0.8-5.6c1.2,0,2.3,0,3.5-0.3
	c1.2-0.2,2.4-0.5,3.4-1.2C38.7,7.4,40.6,8,41.6,6.6z"/>
<g>
	<path fill="#842F2D" d="M26.6,7.3c0.9-0.1,1.7,0.1,2.4,0.6c-0.4,0.6-0.8,1.2-1.2,1.8c0.2,1.2,0.2,2.4,0.2,3.5
		c0.3,0.1,0.7,0.1,1,0.2c-0.3,0.6-0.6,1.2-0.8,1.9c0.3,1,1.5,0.5,2.3,0.7c-0.2,0.1-0.6,0.4-0.9,0.5C28.6,17,28,18,27.4,19
		c-0.1-0.9-0.2-1.9-0.5-2.8c0.5-1.6,1.1-4.1-1.1-4.7C25.8,10.1,26.1,8.7,26.6,7.3z M27.5,8.1"/>
</g>
<path fill="#121DA4" d="M43.4,8c0.8-1.1,1.8,0.1,2.7,0.4c0.1,0.2,0.3,0.7,0.4,1c0.1,0,0.4,0.1,0.5,0.1c0.3,0.1,1,0.3,1.3,0.3
	L47.8,10c-1.1,0.1-1.7-1-2.3-1.7C44.8,8.2,44.1,8.1,43.4,8z"/>
<path fill="#E7A7A1" d="M27.5,8.1"/>
<path fill="#38193D" d="M53,8.2l0.3,0c0.2,0.4,0.2,0.8-0.1,1.2l-0.3-0.2C52.9,8.9,53,8.5,53,8.2z"/>
<path fill="#C13E21" d="M55.6,9.4c1-0.5,1,1.4,0.2,1.4C55.1,10.8,55.1,9.8,55.6,9.4z"/>
<path fill="#091E9A" d="M48.4,10.1c0.8-0.2,1.6-0.3,2.4-0.3c0.9,0.1,1.8,0.1,2.6,0c0,0.5-0.1,1-0.1,1.6L53,10.8
	C51.4,11.6,49.9,10.6,48.4,10.1z"/>
<path fill="#B03B1A" d="M25.8,11.5c2.2,0.6,1.6,3.1,1.1,4.7C26.2,14.7,25.8,13.1,25.8,11.5z"/>
<path fill="#821C2C" d="M34.3,13.8c3-0.3,6-1,9.1-0.6c-3,0.2-6.1,0.5-9,1.4c1.5,1,3.2,0.7,4.9,0.4c0.1,0.5,0.2,0.9,0.3,1.4
	c-0.3-0.1-0.6-0.2-1-0.3l0.4-1.1c-1,0.2-2,0.3-2.4,1.3c-0.1-0.3-0.4-0.8-0.5-1c-0.5,0-1,0-1.5,0c0.1,0.4,0.2,0.8,0.3,1.2
	c-0.5-0.1-1-0.1-1.6-0.2c1.1-0.2,0.8-1.2,0.6-2C34,14.2,34.2,14,34.3,13.8z"/>
<g>
	<path fill="#DE021C" d="M34.4,14.6c2.9-0.9,6-1.2,9-1.4c0.3,0,0.7,0.1,1,0.1c3.3,1.7,7.8,0.7,10.3,4c-0.7,1.1-1,2.5-1.9,3.4
		c-1.8,0-3.6-0.6-5.2-1.5c1.3-0.6-0.6-1.6-0.3-0.1c-3,0.3-6.1-0.1-9.1,0.3c-0.3,0-0.8,0.1-1.1,0.1c-1.6,0.1-3.2,0.6-4.7,1.2
		c-1,0.5-1.5-0.8-2.1-1.3c-0.3-1-0.5-2-0.6-3c0.2-0.1,0.6-0.4,0.9-0.5c0.3-0.2,0.6-0.3,0.9-0.5c0.8-0.4,1.6-0.8,2.5-1.1
		c0.2,0.8,0.5,1.8-0.6,2c-0.3,0.1-1,0.3-1.4,0.5c0.3,0.4,0.7,0.9,1,1.3c0.3-0.1,0.6-0.2,0.9-0.3c0.2,0.4,0.3,0.8,0.5,1.3
		c0.3-0.5,0.7-1,1-1.4c0.2,0.2,0.5,0.6,0.7,0.8c0.7,0.5,0.8-0.8,0.5-1.2c0.7,0,1.3-0.1,2-0.1c0-0.2,0-0.7,0-1c0.3,0.1,0.6,0.2,1,0.3
		c0.2,0.7,0.1,2.2,1.2,1.3c0.2,0.1,0.6,0.3,0.8,0.4c0-0.3,0.1-0.8,0.1-1.1c0.4,0,0.8,0.1,1.1,0.1c0.4,0.4,0.9,0.7,1.3,1.1
		c-0.2-0.6-0.4-1.2-0.7-1.7c0.1-0.3,0.2-0.8,0.3-1.1c-0.3-0.2-0.8-0.6-1.1-0.8c-1.1,0.3-2.3,0.4-3.4,0.5
		C37.6,15.3,35.8,15.5,34.4,14.6z M44.3,14.8c0,0.5,0,1.1,0,1.6l0.4-0.1c0,0.4-0.1,1.2-0.2,1.6c0.6,0.1,1.2,0.2,1.8,0.4
		c0.1-1.1,0.1-2.2,0.1-3.3C45.7,15,45,14.9,44.3,14.8z M47,16.6c0.3,0.4,0.7,0.6,1.1,0.8c0.4,0.3,1,1.2,1.4,0.4
		c-0.3-0.5-0.7-1-1-1.4c0.6,0.1,0.9,0.4,0.9,1c0.2,0.1,0.7,0.2,0.9,0.3c-0.1,0.6-0.3,1.2-0.4,1.8c1.1-0.1,0.9-1.3,1.2-2
		c1.2-0.5,0-1.2-0.6-1.2C49.3,16,47.7,15.3,47,16.6z"/>
</g>
<g>
	<path fill="#FEFBFC" d="M39.2,15c1.2-0.1,2.3-0.3,3.4-0.5c0.3,0.2,0.8,0.6,1.1,0.8c-0.1,0.3-0.2,0.8-0.3,1.1
		c0.2,0.6,0.5,1.2,0.7,1.7c-0.4-0.4-0.9-0.7-1.3-1.1c-0.4,0-0.8-0.1-1.1-0.1c0,0.3-0.1,0.8-0.1,1.1c-0.2-0.1-0.6-0.3-0.8-0.4
		c-1.1,0.9-1-0.6-1.2-1.3C39.5,16,39.4,15.5,39.2,15z M42,15.7c-0.2,0.6,0.1,0.8,0.6,0.7C42.9,15.8,42.6,15.6,42,15.7z"/>
</g>
<g>
	<path fill="#FBEDF2" d="M44.3,14.8c0.7,0.1,1.4,0.1,2.1,0.2c0,1.1-0.1,2.2-0.1,3.3c-0.6-0.2-1.2-0.3-1.8-0.4c0-0.4,0.1-1.2,0.2-1.6
		l-0.4,0.1C44.2,15.9,44.2,15.4,44.3,14.8z M45.2,15.8"/>
</g>
<g>
	<path fill="#FEFDFA" d="M34.6,15.3c0.5,0,1,0,1.5,0c0.1,0.3,0.4,0.8,0.5,1c0.5-1,1.5-1.1,2.4-1.3l-0.4,1.1c0,0.3,0,0.8,0,1
		c-0.7,0-1.3,0.1-2,0.1c-0.5-0.1-0.9,0.1-1.2,0.4c-0.4,0.5-0.7,0.9-1,1.4c-0.2-0.4-0.3-0.8-0.5-1.3c-0.3,0.1-0.6,0.2-0.9,0.3
		c-0.3-0.5-0.7-0.9-1-1.3c0.3-0.1,1-0.3,1.4-0.5c0.5,0,1.1,0.1,1.6,0.2C34.8,16.1,34.7,15.7,34.6,15.3z M34.7,17"/>
</g>
<path fill="#AA687A" d="M42,15.7c0.6-0.1,0.8,0.1,0.6,0.7C42.1,16.5,41.9,16.3,42,15.7z"/>
<path fill="#D7C1C5" d="M45.2,15.8"/>
<path fill="#FBFEFE" d="M47,16.6c0.8-1.3,2.3-0.6,3.5-0.3c0.6,0.1,1.8,0.7,0.6,1.2c-0.2,0.7-0.1,2-1.2,2c0.1-0.6,0.2-1.2,0.4-1.8
	c-0.2-0.1-0.7-0.2-0.9-0.3c0-0.6-0.4-1-0.9-1c0.3,0.5,0.7,1,1,1.4c-0.4,0.8-1-0.1-1.4-0.4C47.7,17.2,47.2,17,47,16.6z"/>
<path fill="#9B1828" d="M27.4,19c0.6-1,1.2-2,2.2-2.6c0.1,1,0.3,2,0.6,3c-0.3,0.4-0.5,0.7-0.8,1.1c-0.2,0-0.7,0-0.9,0
	C28.1,20,27.8,19.5,27.4,19z"/>
<path fill="#821C2C" d="M56.6,16.9c0.1-0.1,0.3-0.3,0.4-0.4c0.1,1.7-0.7,3.2-1.5,4.7c-0.2,0.1-0.7,0.2-1,0.3c0.3,1,0.6,2,1,2.9
	c-1.3-0.1-2.5,0.2-3.4,1.2c-1.7-0.7-3.6-0.9-5.2-1.8c-1.6,0.5-3.3,0.5-4.7,1.3c-1.4-0.8-3-0.8-4.5-1.2c-1.6,0.8-3.5,0.9-5.2,1.5
	c-0.3-0.9-0.7-1.8-1-2.7c-0.2,0-0.7,0-1-0.1c-0.1,0.7-0.2,1.4-0.3,2.1c-1-0.9-1.7-2-1.7-3.4c0-0.2,0.1-0.4,0.1-0.6
	c0.2,0,0.7,0,0.9,0c0.3-0.4,0.5-0.8,0.8-1.1c0.6,0.5,1.1,1.8,2.1,1.3c1.5-0.6,3.1-1.1,4.7-1.2c-0.4,0.9-1,1.9-0.9,2.9
	c0.7,1.2,2.4,0.6,3.5,0.8c2.6-0.2,5.4,0.6,7.9-0.6c0.6-0.6,0.4-1.4,0.4-2.1c-0.8-0.5-1.7-0.9-2.7-0.9c-2.3,0-4.7,0.1-7-0.2
	c3-0.5,6.1-0.1,9.1-0.3l0.3,0.1c1.6,0.8,3.4,1.5,5.2,1.5c1-0.9,1.3-2.3,1.9-3.4c0.4,0.1,0.7,0.3,1.1,0.4C56,17.4,56.4,17,56.6,16.9z
	"/>
<path fill="#AF939F" d="M34.7,17"/>
<path fill="#E6A2AC" d="M35.4,17.7c0.3-0.3,0.7-0.4,1.2-0.4c0.3,0.4,0.2,1.7-0.5,1.2C36,18.3,35.6,17.9,35.4,17.7z"/>
<path fill="#E84F62" d="M47.3,19c-0.3-1.4,1.5-0.5,0.3,0.1L47.3,19z"/>
<path fill="#872411" d="M37.1,19.5c0.3,0,0.8-0.1,1.1-0.1c2.3,0.3,4.7,0.2,7,0.2c1,0,1.9,0.4,2.7,0.9c-0.3,0.5-0.6,0.9-0.9,1.4
	c-0.1-0.4-0.2-1.1-0.2-1.5c-0.9,0-1.7,0-2.6,0c-0.2,0.6-0.3,1.2-0.5,1.8c-0.1-0.7-0.2-1.3-0.2-2c-0.3,0-0.8,0-1,0.1
	c0.1,0.6,0.2,1.2,0.3,1.8c-0.2,0-0.7,0-1,0c0.1-0.6,0.3-1.2,0.4-1.8c-1,0.2-2.3-0.1-2.7,1.1c-0.2-0.3-0.4-0.6-0.6-0.9
	c-0.2,0-0.5,0.1-0.7,0.2c-0.3-0.1-0.9-0.4-1.2-0.6c0.2,0.5,0.4,0.9,0.6,1.4c-0.2,0-0.6,0.1-0.9,0.1c-0.2,1,0.9,0.9,1.6,1
	c3.1,0.2,6.2,0.1,9.4,0c-2.4,1.2-5.3,0.4-7.9,0.6c-1.1-0.2-2.8,0.4-3.5-0.8C36.1,21.4,36.7,20.4,37.1,19.5z"/>
<g>
	<path fill="#ECA313" d="M36.9,20.1c0.3,0.1,0.9,0.4,1.2,0.6c0.2,0,0.5-0.1,0.7-0.2c0.2,0.3,0.4,0.6,0.6,0.9
		c0.4-1.2,1.7-0.9,2.7-1.1c-0.1,0.6-0.3,1.2-0.4,1.8c0.2,0,0.7,0,1,0c-0.1-0.6-0.2-1.2-0.3-1.8c0.3,0,0.8,0,1-0.1
		c0.1,0.7,0.2,1.3,0.2,2c0.2-0.6,0.3-1.2,0.5-1.8c0.9,0,1.7,0,2.6,0c0.1,0.4,0.2,1.1,0.2,1.5c0.3-0.5,0.6-0.9,0.9-1.4
		c0,0.7,0.2,1.6-0.4,2.1c-3.1,0.1-6.2,0.2-9.4,0c-0.6-0.1-1.8-0.1-1.6-1c0.2,0,0.6-0.1,0.9-0.1C37.3,21,37.1,20.6,36.9,20.1z
		 M40.2,21.2c-0.4,0.6,0.5,1.2,1,0.7C41.6,21.3,40.6,20.6,40.2,21.2z M44.9,21.2c-0.6,0.3-0.6,0.6-0.1,0.8
		C45.4,21.7,45.4,21.4,44.9,21.2z"/>
</g>
<path fill="#AE4E0A" d="M40.2,21.2c0.4-0.5,1.4,0.1,1,0.7C40.8,22.4,39.8,21.7,40.2,21.2z"/>
<path fill="#8F3D01" d="M44.9,21.2c0.5,0.3,0.5,0.6-0.1,0.8C44.3,21.7,44.3,21.5,44.9,21.2z"/>
<path fill="#B00C21" d="M54.6,21.3c0.2-0.1,0.7-0.2,1-0.3c1.1,0.2,2.2,0.7,3.2,1.1c-1,0.6-2,1.2-2.9,2c0.1,0.9,0.1,1.9-0.1,2.8
	c-1.3-0.4-2.5-1-3.7-1.5c0.9-1,2.1-1.3,3.4-1.2C55.2,23.3,54.9,22.3,54.6,21.3z"/>
<path fill="#A50E24" d="M25.4,22.3c1-0.4,2-0.8,3-1.1c0,1.4,0.7,2.5,1.7,3.4c0.1-0.7,0.2-1.4,0.3-2.1c0.2,0,0.7,0,1,0.1
	c0.3,0.9,0.7,1.8,1,2.7l0,0.1c-1.3,0.5-2.5,1.2-3.8,1.5c-0.8-0.5-0.2-1.7-0.2-2.5C27.6,23.4,26.5,22.8,25.4,22.3z"/>
<g>
	<path fill="#111BA5" d="M2,27.8c7.6-2.1,15.4-3.5,23.2-4.3c1-0.3,1.7,0.7,2.3,1.3c0,1.2,0.1,3.6,1.9,2.8c3.8-2.2,8.6-3.6,12.8-1.8
		c2.8-1.2,6-1,8.8,0.1c1.6,0.5,3.1,1.5,4.7,2c1-0.7,0.7-2.1,0.9-3.2c0.4-0.4,0.8-0.9,1.1-1.3c7.3,0.7,14.5,1.9,21.7,3.7
		c1.2,0.3,2.5,0.5,3.6,1.1c0.9,0.5,1.1,1.7,1,2.7c0,4.4,0,8.8-0.1,13.1c0.1,1.2-1,2.2-2.1,2.5c-11.7,3.2-23.9,4.7-36,5
		c-14.8,0.3-29.7-1.1-44-5c-1.1-0.3-2-1.3-2-2.4c0-4.7,0-9.3,0-14C-0.1,28.9,1,28,2,27.8z M32.6,30.3l0,0.2c-1.8-0.1-3.5,0-5.3,0
		c-0.6,0-1.4-0.1-1.8,0.5h-0.1c0.1,0.4,0.2,0.9,0.3,1.4c1.2,0.1,2.3,0.1,3.5,0.1c-0.4,1.4-0.9,2.8-1.5,4.1c-0.8,0-1.6,0.1-2.4,0.1
		c0,0.4,0,0.9,0,1.4c0.7,0,1.5,0,2.2,0.1c0,1.4,0,2.8,0,4.2c-0.8,0.2-1.2,0.7-1.4,1.5c1.3-0.1,3.1,0.4,3.9-0.9
		c0.3-1.6,0.1-3.2,0.1-4.8c0.6,0,1.2,0,1.8,0c0-0.3,0-1,0-1.4c-0.6,0-1.2,0-1.7,0c0.6-1.3,1.2-2.6,1.8-3.9c0.3,0.9,1.2,0.8,1.9,0.7
		c0.1-0.2,0.4-0.7,0.5-1c1.4,0,2.7,0,4.1,0c-0.1,1.7,0.3,3.7-0.6,5.3c-0.3,0.4-0.9,1.2-1.5,0.6c-1.3-1.1-1-2.8-1.1-4.3
		c-0.8,0-1.6,0-2.4,0c-0.2,2.2,0.2,4.5,1.9,6c-0.8,0.5-1.6,1.1-2.4,1.6c0,0.7,0.1,1.4,0.1,2.1c1.6-0.7,3-1.6,4.5-2.5
		c1.4,0.9,2.7,2.1,4.4,2.4c0.1-0.6,0.1-1.2,0.1-1.9c-0.9-0.6-1.7-1.1-2.6-1.7c0.7-0.9,1.5-1.9,1.8-3.1c0.4-1.9,0.1-4,0.5-5.9
		c-2.2-0.3-4.6,0.7-6.6-0.6C34,30.4,33.3,30.4,32.6,30.3z M15,30.4c-0.2,0.2-0.5,0.5-0.6,0.7C12.3,31,10.1,31,8,31
		c0,0.3,0,1,0.1,1.3c2.3,0.1,4.7-0.2,7,0.2c-2.2,0.2-4.4,0.1-6.6,0.1c0,1.8,0,3.6,0,5.4c4.5,0.2,8.9,0,13.4,0.1
		c1.6,0.2,1.6-1.7,1.5-2.8c0.1-0.4,0.2-0.8,0.2-1.2c0-0.3-0.1-1-0.2-1.4C21.3,32.5,19,33,17,32.4c2.4-0.2,4.8,0,7.2,0
		c0-0.3,0-1,0-1.4c-2.1,0-4.2,0.1-6.3,0c-0.2-0.1-0.6-0.4-0.8-0.5C16.4,30.4,15.7,30.4,15,30.4z M51.2,31.1c-0.9,0-1.7-0.1-2.6-0.1
		l-0.1-0.4l-0.2,0.5c-1.9-0.1-3.8,0-5.6,0c0,4.2,0,8.5,0,12.7c1.7-0.1,3.5,0.2,5.1-0.4c0.2-0.5,0.4-1,0.5-1.5c1.3,0,2.6,0,4,0.1
		c0,0.6,0,1.2,0,1.9c0.8,0,1.6,0,2.4,0c0-0.7,0-1.3,0.1-1.9c1.2,0,2.5,0,3.7-0.1c0-0.3-0.1-0.8-0.2-1.1c-1.1-0.2-2.3-0.1-3.4-0.1
		c0-0.8,0-1.6-0.8-2.1c1-1.4,2.8-0.8,4.2-0.9c0.2-2.2,0.1-4.4,0.1-6.6c-1.3,0-2.7,0-4,0c-0.2-0.2-0.5-0.5-0.7-0.7
		C52.9,30.5,51.5,29.9,51.2,31.1z M60,30.6c0.1,0.6,0.3,1.1,0.5,1.7l0,0.2c-0.9,0-0.8,0.9-0.8,1.6c0.5,1,1,2,1.2,3
		c0.8,0,1.5-0.1,2.3-0.1L63,36.3l0.4,0.4c0.2,2.3-0.2,4.6,0.1,6.9c2.5,0.4,5.1,0.1,7.6,0.2c1.5-0.1,3.2,0.2,4.6-0.5
		c0.2-3.1,0.1-6.2,0.1-9.3c0.2-0.5,0.3-1.1,0.4-1.7c0-0.3,0-1,0-1.3l-0.1-0.4c-2.9-0.1-5.9-0.2-8.8-0.1c-1.2,0.1-2.5-0.2-3.6,0.5
		l-0.4,0c-0.1,0.4-0.3,0.8-0.4,1.2C62.8,30.6,61.2,30.6,60,30.6z M60.3,37.8c0.4,2,0.1,4.1-0.1,6.1c0.9-0.3,1.8-0.7,2.5-1.4
		c0.4-1.5,0.2-3.2,0.2-4.8C62,37.6,61.2,37.7,60.3,37.8z M20.5,38.7c-2.5-0.1-5.1,0.1-7.6,0c-1.6-0.4-3.1-0.4-4.7-0.2
		c0.1,1.7,0.1,3.5,0.2,5.2c3.9,0.1,7.8,0,11.7,0.1c1.1,0,2.2,0.1,3.2-0.3c0.6-0.8,0.2-1.8,0.5-2.7c0-0.6,0.7-1.2,0.2-1.7
		C23,38.3,21.5,37.7,20.5,38.7z"/>
</g>
<path fill="#FEFEFE" d="M32.6,30.3c0.7,0,1.4,0,2.1,0.1c1.9,1.3,4.4,0.3,6.6,0.6c-0.4,2-0.1,4-0.5,5.9c-0.3,1.2-1,2.1-1.8,3.1
	c0.8,0.6,1.7,1.2,2.6,1.7c0,0.6-0.1,1.2-0.1,1.9c-1.7-0.3-3-1.5-4.4-2.4c-1.5,0.9-2.9,1.8-4.5,2.5c0-0.7-0.1-1.4-0.1-2.1
	c0.8-0.5,1.6-1,2.4-1.6c-1.7-1.5-2.1-3.8-1.9-6c0.8,0,1.6,0,2.4,0c0.1,1.5-0.2,3.3,1.1,4.3c0.5,0.6,1.1-0.2,1.5-0.6
	c1-1.6,0.5-3.5,0.6-5.3c-1.4,0-2.7,0-4.1,0c-0.1,0.2-0.4,0.7-0.5,1c-0.8,0.1-1.6,0.1-1.9-0.7c-0.6,1.3-1.2,2.6-1.8,3.9
	c0.6,0,1.2,0,1.7,0c0,0.3,0,1,0,1.4c-0.6,0-1.2,0-1.8,0c0,1.6,0.2,3.2-0.1,4.8c-0.8,1.3-2.6,0.8-3.9,0.9c0.2-0.7,0.7-1.3,1.4-1.5
	c0.1-1.4,0-2.8,0-4.2c-0.7,0-1.5,0-2.2-0.1c0-0.5,0-0.9,0-1.4c0.8,0,1.6,0,2.4-0.1c0.5-1.4,1.1-2.7,1.5-4.1c-1.2,0-2.3,0-3.5-0.1
	c-0.2-0.4-0.2-0.9-0.3-1.4h0.1c2.1,0,4.2,0,6.3,0c0.1,0.4,0.3,1.1,0.5,1.5c0.2-0.7,0.3-1.3,0.3-2L32.6,30.3z"/>
<g>
	<path fill="#FEFEFE" d="M15,30.4c0.7,0,1.4,0.1,2.1,0.1c0.2,0.1,0.6,0.4,0.8,0.5c2.1,0.1,4.2,0,6.3,0c0,0.3,0,1,0,1.4
		c-2.4,0-4.8-0.2-7.2,0c2,0.7,4.3,0.1,6.4,0.3c0,0.3,0.1,1,0.2,1.4c-4.9-0.1-9.9-0.3-14.8,0.1c0.9,0.6,1.9,0.7,2.9,0.7
		c3.9-0.1,7.7-0.2,11.6-0.1l0.1,0.6c0.1,1.1,0.1,3-1.5,2.8c-4.5,0-8.9,0.1-13.4-0.1c0-1.8,0-3.6,0-5.4c2.2-0.1,4.4,0.1,6.6-0.1
		c-2.3-0.4-4.7-0.1-7-0.2C8,32,8,31.3,8,31c2.1,0.1,4.3,0,6.4,0.1C14.5,30.9,14.8,30.5,15,30.4z M11.3,35.9
		c-0.1,0.2-0.2,0.6-0.2,0.8c3.3-0.1,6.6,0.1,9.9-0.1c-0.1-0.2-0.3-0.6-0.4-0.8C17.6,35.8,14.4,35.7,11.3,35.9z"/>
</g>
<path fill="#151A88" d="M25.5,31c0.4-0.6,1.2-0.5,1.8-0.5c1.8,0,3.5-0.1,5.3,0c-0.1,0.7-0.2,1.3-0.3,2c-0.1-0.4-0.3-1.1-0.5-1.5
	C29.7,31,27.6,31,25.5,31z"/>
<g>
	<path fill="#FEFEFE" d="M51.2,31.1c0.3-1.1,1.7-0.5,2.5-0.7c0.2,0.2,0.5,0.5,0.7,0.7c1.3,0,2.7,0,4,0c0,2.2,0.1,4.4-0.1,6.6
		c-1.4,0.1-3.3-0.5-4.2,0.9c0.7,0.5,0.8,1.3,0.8,2.1c1.1,0,2.3-0.1,3.4,0.1c0.1,0.3,0.1,0.8,0.2,1.1c-1.2,0-2.5,0.1-3.7,0.1
		c0,0.6,0,1.3-0.1,1.9c-0.8,0-1.6,0-2.4,0c0-0.6,0-1.3,0-1.9c-1.3,0-2.6,0-4-0.1c-0.2,0.5-0.3,1-0.5,1.5c-1.7,0.5-3.4,0.3-5.1,0.4
		c0-4.2,0-8.5,0-12.7c1.9,0,3.8-0.1,5.6,0c-0.3,3.1-0.1,6.2-0.2,9.3c0.8-1.2,1.9-2.1,3.4-2.3C50.6,38,49.7,38,48.7,38
		c-0.1-2.3,0.1-4.6-0.1-6.9C49.5,31,50.4,31,51.2,31.1z M51.2,32.5c0,0.5,0,1,0,1.5c0.3,0,0.8-0.1,1.1-0.1c0-0.5,0-0.9,0-1.3
		C52,32.5,51.5,32.5,51.2,32.5z M54.8,32.4c0,0.5-0.1,0.9-0.1,1.4c0.4,0,0.9,0,1.3,0c0-0.5,0-0.9-0.1-1.4
		C55.6,32.5,55.2,32.4,54.8,32.4z M45,32.5c-0.1,3.4-0.1,6.8,0,10.2c0.2-0.1,0.6-0.3,0.8-0.4c0.1-3.1,0.1-6.3,0-9.4
		C45.7,32.7,45.2,32.6,45,32.5z M51.2,35.3c0,0.5,0,1,0,1.5c0.2,0,0.7-0.1,0.9-0.2c0.1-0.4,0.1-0.9,0.1-1.3
		C52,35.3,51.5,35.3,51.2,35.3z M54.8,35.3c0,0.5,0,1.1,0,1.6c0.9-0.1,1.2-0.8,1.3-1.6C55.7,35.3,55.2,35.3,54.8,35.3z M49.8,40.6
		c0.8,0,1.7,0.1,2.5,0.1c0-0.6,0-1.1,0-1.7C51.5,39.6,50.7,40.1,49.8,40.6z"/>
</g>
<g>
	<path fill="#FEFEFE" d="M60,30.6c1.2,0.1,2.8,0.1,2.9,1.6c0.1-0.4,0.3-0.8,0.4-1.2l0.4,0c4.2,0,8.3,0,12.5,0c0,0.3,0,1,0,1.3
		c-1.3,0-2.5,0-3.8,0c0,0.5,0,1.1,0,1.6c1.1,0,2.3,0,3.4,0c-0.1,3.1,0,6.2-0.1,9.3c-1.4,0.7-3.1,0.4-4.6,0.5
		c-2.5-0.1-5.1,0.2-7.6-0.2c-0.2-2.3,0.1-4.6-0.1-6.9c0-0.9,0.1-1.9,0.1-2.8c1.1,0,2.2,0,3.2,0.1c0-0.5,0-1.1-0.1-1.6
		c-1.2,0-2.3,0-3.5,0c-0.1,0.3-0.2,0.8-0.3,1c-0.9,0-1.7,0-2.6,0c0-0.2,0.1-0.7,0.2-1l0-0.2C60.3,31.7,60.2,31.1,60,30.6z
		 M69.2,32.5c0.1,0.6-0.2,1.4,0.6,1.6c0.3-0.5,0.2-1.1,0.2-1.7C69.8,32.4,69.4,32.5,69.2,32.5z M72.5,35.2c0,0.9,0,1.8,0.1,2.8
		c0.2,0,0.5,0,0.7,0c0.1-0.9,0-1.8,0-2.7C73.1,35.3,72.7,35.3,72.5,35.2z M65.9,35.7c0,0.8,0,1.6,0,2.4c0.8-0.6,0.8-1.6,0.8-2.5
		C66.5,35.7,66.1,35.7,65.9,35.7z M69.3,35.3c0,1.8-0.7,3.8-2.6,4.4c-0.2,0-0.7-0.1-0.9-0.1c0.3,0.3,0.6,0.4,1,0.4
		c2.1,0,4.2-0.1,6.3,0c0.1-0.1,0.3-0.4,0.4-0.5c-0.9,0-1.8,0-2.7,0.1c-1.3-1.1-0.6-2.9-0.7-4.3L69.3,35.3z M65.9,41.5
		c0.1,0.2,0.2,0.7,0.3,1c2.3,0.1,4.7,0.1,7,0c0.1-0.2,0.2-0.7,0.3-0.9C70.9,41.5,68.4,41.5,65.9,41.5z"/>
</g>
<path fill="#0C148A" d="M63.7,31c1.1-0.7,2.4-0.5,3.6-0.5c2.9-0.1,5.9,0,8.8,0.1l0.1,0.4C72,31,67.8,31,63.7,31z"/>
<path fill="#070A7E" d="M48.3,31.1l0.2-0.5l0.1,0.4c0.2,2.3,0.1,4.6,0.1,6.9c0.9,0,1.9,0.1,2.8,0.1c-1.5,0.2-2.6,1.1-3.4,2.3
	C48.3,37.3,48.1,34.1,48.3,31.1z"/>
<path fill="#121DA4" d="M51.2,32.5c0.3,0,0.8,0,1.1,0c0,0.4,0,0.9,0,1.3c-0.3,0-0.8,0.1-1.1,0.1C51.2,33.5,51.2,33,51.2,32.5z"/>
<path fill="#121DA4" d="M54.8,32.4c0.4,0,0.8,0,1.1,0c0,0.5,0,0.9,0.1,1.4c-0.4,0-0.9,0-1.3,0C54.7,33.4,54.8,32.9,54.8,32.4z"/>
<path fill="#090F98" d="M63.2,32.4c1.2,0,2.3,0,3.5,0c0,0.5,0,1.1,0.1,1.6c-1.1,0-2.2-0.1-3.2-0.1c0,0.9-0.1,1.8-0.1,2.8L63,36.3
	c-0.2-0.7-0.3-1.5-0.7-2.1c-0.8-0.2-1.7-0.1-2.6-0.1c-0.1-0.6-0.1-1.5,0.8-1.6c-0.1,0.2-0.2,0.7-0.2,1c0.9,0,1.7,0,2.6,0
	C63,33.2,63.1,32.7,63.2,32.4z"/>
<path fill="#121DA4" d="M69.2,32.5c0.2,0,0.6-0.1,0.9-0.1c-0.1,0.6,0.1,1.2-0.2,1.7C69,33.9,69.3,33.1,69.2,32.5z"/>
<path fill="#0F1797" d="M72.4,32.3c1.3,0,2.5,0,3.8,0c-0.1,0.6-0.2,1.1-0.4,1.7c-1.1,0-2.3,0-3.4,0C72.4,33.4,72.4,32.8,72.4,32.3z"
	/>
<path fill="#121DA4" d="M45,32.5c0.2,0.1,0.6,0.3,0.8,0.3c0,3.1,0,6.3,0,9.4c-0.2,0.1-0.6,0.3-0.8,0.4C45,39.3,44.9,35.9,45,32.5z"
	/>
<path fill="#A7A1C4" d="M8.8,34.1c4.9-0.3,9.9-0.2,14.8-0.1c-0.1,0.4-0.2,0.8-0.2,1.2l-0.1-0.6c-3.9-0.1-7.7,0-11.6,0.1
	C10.7,34.8,9.6,34.6,8.8,34.1z"/>
<path fill="#FCFDFE" d="M59.7,34c0.9,0,1.8-0.1,2.6,0.1c0.4,0.6,0.5,1.4,0.7,2.1l0.1,0.7c-0.8,0-1.5,0.1-2.3,0.1
	C60.7,36,60.2,34.9,59.7,34z"/>
<path fill="#121DA4" d="M51.2,35.3c0.3,0,0.8,0,1.1,0.1c-0.1,0.4-0.1,0.9-0.1,1.3c-0.2,0-0.7,0.1-0.9,0.2
	C51.2,36.3,51.2,35.8,51.2,35.3z"/>
<path fill="#121DA4" d="M54.8,35.3c0.4,0,0.9,0,1.3,0c-0.2,0.7-0.5,1.5-1.3,1.6C54.8,36.3,54.8,35.8,54.8,35.3z"/>
<path fill="#141D73" d="M72.5,35.2c0.2,0,0.6,0.1,0.8,0.1c0,0.9,0,1.8,0,2.7c-0.2,0-0.5,0-0.7,0C72.4,37.1,72.5,36.2,72.5,35.2z"/>
<path fill="#121DA4" d="M65.9,35.7c0.2,0,0.7-0.1,0.9-0.1c-0.1,0.9-0.1,1.9-0.8,2.5C65.9,37.3,65.9,36.5,65.9,35.7z"/>
<path fill="#1210A3" d="M69.3,35.3l0.7,0c0.2,1.4-0.5,3.2,0.7,4.3c-1.3,0.2-2.7,0.2-4,0C68.6,39.1,69.3,37.1,69.3,35.3z"/>
<path fill="#121DA4" d="M11.3,35.9c3.1-0.2,6.2-0.1,9.3,0c0.1,0.2,0.3,0.6,0.4,0.8c-3.3,0.1-6.6,0-9.9,0.1
	C11.2,36.5,11.3,36.1,11.3,35.9z"/>
<path fill="#FEFEFF" d="M60.3,37.8c0.9-0.1,1.7-0.1,2.6-0.1c0,1.6,0.2,3.2-0.2,4.8c-0.6,0.8-1.6,1.1-2.5,1.4
	C60.4,41.8,60.7,39.8,60.3,37.8z"/>
<g>
	<path fill="#FEFEFD" d="M20.5,38.7c1-1,2.5-0.4,3.5,0.3c0.5,0.5-0.2,1.1-0.2,1.7c-0.3,0.9,0.1,1.9-0.5,2.7c-1,0.4-2.1,0.3-3.2,0.3
		c-3.9-0.1-7.8,0.1-11.7-0.1c-0.2-1.7-0.2-3.5-0.2-5.2c1.6-0.2,3.2-0.2,4.7,0.2C15.4,38.8,18,38.7,20.5,38.7z M10.5,40
		c-0.4,0.6,0.6,1.2,1,0.7C11.9,40.1,10.9,39.6,10.5,40z M10.6,42.3c3.5,0.2,7.1,0.1,10.6,0.1l0.2-0.4L21,41.6
		c-2.7-0.2-5.4,0-8.1-0.1C12.1,41.6,10.9,41.3,10.6,42.3z"/>
</g>
<path fill="#121DA4" d="M49.8,40.6c0.8-0.5,1.7-1,2.5-1.6c0,0.5,0,1.1,0,1.7C51.5,40.7,50.6,40.7,49.8,40.6z"/>
<path fill="#26272D" d="M65.8,39.6c0.2,0,0.7,0.1,0.9,0.1c1.3,0.1,2.7,0.2,4,0c0.9-0.1,1.8-0.1,2.7-0.1c-0.1,0.1-0.3,0.4-0.4,0.5
	c-2.1-0.1-4.2,0-6.3,0C66.4,40,66.1,39.8,65.8,39.6z"/>
<path fill="#26272D" d="M10.5,40c0.4-0.5,1.3,0.1,1,0.7C11.1,41.3,10.1,40.6,10.5,40z"/>
<path fill="#353181" d="M10.6,42.3c0.3-1,1.5-0.7,2.3-0.8c2.7,0.1,5.4-0.1,8.1,0.1l0.4,0.4l-0.2,0.4C17.7,42.5,14.2,42.5,10.6,42.3z
	"/>
<path fill="#282B8C" d="M65.9,41.5c2.5,0,5,0.1,7.5,0c-0.1,0.2-0.2,0.7-0.3,0.9c-2.3,0.1-4.7,0.1-7,0C66.1,42.2,65.9,41.7,65.9,41.5
	z"/>
</svg>
