<?xml version="1.0" encoding="utf-8"?>
<!-- Generator: Adobe Illustrator 18.1.1, SVG Export Plug-In . SVG Version: 6.00 Build 0)  -->
<svg version="1.1" id="图层_1" xmlns="http://www.w3.org/2000/svg" xmlns:xlink="http://www.w3.org/1999/xlink" x="0px" y="0px"
	 viewBox="0 0 52.6 46.3" enable-background="new 0 0 52.6 46.3" xml:space="preserve">
<path fill="#660D16" d="M16.2,0l2.4,0c-1.8,1.2-3.7,2.4-5,4.2c-1.9,2.4-3,5.4-3.1,8.5c-0.5,5.8,2.7,11.6,7.7,14.6
	c2.7,1.6,5.9,2.4,9.1,2.2c5.3-0.4,10.4-3.5,12.9-8.3c2.2-3.9,2.4-8.8,1-13C39.9,4.7,37.1,2,34,0.1l2.4,0c3.7,2.8,6.3,7.1,6.7,11.7
	c0.5,4.9-1.1,10-4.4,13.5c-2.9,3.2-7.2,5.1-11.5,5.5c-5.4,0.3-11-2.2-14.3-6.5c-2.9-3.5-4.1-8.2-3.6-12.7C9.7,7,12.4,2.6,16.2,0z"/>
<g>
	<path fill="#AC1A2A" d="M18.6,0l15.4,0c3.1,2,5.9,4.6,7.1,8.2c1.4,4.2,1.1,9-1,13c-2.5,4.8-7.5,7.9-12.9,8.3
		c-3.2,0.2-6.3-0.6-9.1-2.2c-5-2.9-8.2-8.8-7.7-14.6c0.1-3.1,1.2-6.1,3.1-8.5C14.9,2.4,16.8,1.2,18.6,0z M22.5,3.2
		c-1.1,0.8-1.7,2.3-3.1,2.4c-3,0.4-5.6,2.2-7.6,4.5c0,0.6,0.7,0.9,1.1,1.3c1.1,0.7,2,1.6,3.2,2.3c1.6,0.2,3.3,0.4,4.9,0.7
		c0.5,1.3,0.8,2.6,0.8,4c0,1.2,1.4,1.6,1.6,2.7c0.3,1.2,1,2.1,1.8,3c-0.2,0-0.7,0.1-1,0.2l-0.3,0c-1.5-0.5-3-0.3-4.5-0.3
		c-0.1,0.8,0,1.6,0.3,2.4l-0.5,0.1c1.1,0.6,2.5,0.3,3.7,0.3c1.1,0,2.3,0.1,3.4,0.1c0.1-0.1,0.3-0.4,0.4-0.5c0.8,0.3,1.6,0.9,2.5,0.7
		c0-0.9,0-1.7,0.1-2.6c0.9,0.3,0.7,1.1,0.3,1.8c0.1,0.2,0.3,0.5,0.4,0.7c0.2-0.4,0.4-1.6,1-0.6c0,0.2,0.1,0.7,0.2,0.9
		c0.6-0.3,1.2-0.7,1.7-1c-0.8-0.4-0.3-1.2,0-1.8c-0.6-0.2-1.3-0.4-1.9-0.5c-0.1,0.2-0.2,0.6-0.3,0.8c0.5,0,0.9,0.1,1.4,0.2
		c0.2,0.5,0.2,0.9,0.1,1.4c-0.7,0-1.1-0.8-1.6-1.2c0.1-0.4,0.2-0.8,0.3-1.2c-1.2,0.3-2.5,0.3-3.7,0.2c1.1-1.1,2.1-2.3,3.1-3.5
		c0.5-0.7,1.3-1.3,1.3-2.3c0-1.6,0.8-2.9,0.9-4.5c1.5,0,3.2,0.1,4.5-0.8c1-0.8,1.9-1.7,2.9-2.5c0.5-0.4,1.2-1,0.8-1.8
		c-2.4-2.1-5.5-3-8.6-3.4c-1.4-1.5-2.8-3.2-4.7-3.9C25.5,0.7,23.9,2.2,22.5,3.2z"/>
</g>
<g>
	<path fill="#FBEDD2" d="M22.5,3.2c1.4-1,3-2.5,4.8-1.8c1.9,0.8,3.3,2.4,4.7,3.9c3.1,0.5,6.2,1.4,8.6,3.4c0.4,0.7-0.3,1.3-0.8,1.8
		c-1,0.8-1.9,1.8-2.9,2.5c-1.3,0.9-3,0.8-4.5,0.8c-0.1,1.5-0.9,2.9-0.9,4.5c0,0.9-0.8,1.6-1.3,2.3c-1,1.2-2.1,2.3-3.1,3.5
		c1.2,0.1,2.5,0,3.7-0.2c-0.1,0.4-0.2,0.8-0.3,1.2c0.5,0.4,0.9,1.1,1.6,1.2c0.2-0.5,0.2-0.9-0.1-1.4c-0.5-0.1-0.9-0.1-1.4-0.2
		c0.1-0.2,0.2-0.6,0.3-0.8c0.6,0.1,1.3,0.3,1.9,0.5c-0.2,0.6-0.8,1.4,0,1.8c-0.6,0.3-1.2,0.7-1.7,1c0-0.2-0.1-0.7-0.2-0.9
		c-0.6-1-0.8,0.2-1,0.6c-0.1-0.2-0.3-0.5-0.4-0.7c0.4-0.7,0.6-1.5-0.3-1.8c-0.1,0.9-0.1,1.7-0.1,2.6c-1,0.2-1.7-0.4-2.5-0.7
		c-0.1,0.1-0.3,0.4-0.4,0.5c-1.1-0.1-2.3-0.1-3.4-0.1c-1.2,0-2.6,0.3-3.7-0.3l0.5-0.1c0.5-0.1,1.1-0.2,1.7-0.2c0-0.2,0-0.5,0-0.6
		c0.3,0.4,0.5,0.8,0.8,1.2c0.1-1,0.9-1.5,1.6-2.1c-0.7,0-1.4,0-2-0.1c-0.3,0.4-0.6,0.8-0.9,1.3c0.1-0.3,0.2-1,0.2-1.3
		c-0.5,0-1,0.1-1.4,0.1l0-0.6c1.5,0,3,0,4.4,0.1l0.3,0c0.2,0,0.7-0.1,1-0.2c-0.8-0.8-1.5-1.8-1.8-3c-0.2-1.1-1.6-1.6-1.6-2.7
		c0-1.4-0.3-2.7-0.8-4c-1.6-0.3-3.3-0.5-4.9-0.7C15,12.9,14,12,12.9,11.3c-0.4-0.4-1.1-0.7-1.1-1.3c2-2.2,4.6-4,7.6-4.5
		C20.8,5.4,21.4,3.9,22.5,3.2z M25.1,2c-1.4,0.8-2.8,1.7-3.8,3c-0.2,1.6-2.4,0.4-2.9,1.4c1.2,0.3,2.5,0,3.7,0.2
		c-0.3-0.3-0.6-0.6-0.9-0.8C22.5,4.3,24,3,25.9,2.3c1.2-0.2,1.8,1.2,2.3,2c0.2,1.2-1.5,0.9-2.2,1.2c0.2,0.1,0.4,0.3,0.6,0.4
		c1.4-0.4,3,0.5,4,1.6c-0.1,0.2-0.4,0.6-0.5,0.8c0,0.5,0,1,0,1.5c-1.2-0.6-2.5-0.8-3.8-0.7c0,0.1,0,0.2,0,0.3c1.3,0,2.6,0.3,3.8,1
		c0.1,0.4,0.2,0.9,0.3,1.3c-1.2-0.2-2.5-0.2-3.5,0.6c0,1.1,0.1,2.1,0.2,3.2c-0.7,1-1.8,0.2-2.2-0.6c-0.6,0.4-1.2,0.8-1.6,1.3
		c-0.1,0.6-0.2,1.3-0.2,1.9c-0.3-0.2-0.7-0.3-1-0.5c0.2,0.8,0.7,1.5,1.4,2.1c-0.1-1.4-0.2-2.9,0.9-3.9c0.6,0.3,1.2,0.5,1.9,0.6
		c0.5-0.2,0.9-0.4,1.4-0.6c0.9,0.3,2.3,0.6,2.2,1.9c0.2,2.3-1.5,4-2.9,5.5c1.6-0.8,2.6-2.3,3.7-3.7c0.7-0.8,0.4-2,0.7-2.9
		c0.3-1.1,0.5-2.2,0.8-3.3c1.5,0.1,3.1,0.3,4.4-0.5c1.1-0.8,2.1-1.8,3.1-2.7c0.2-0.2,0.6-0.8,0.1-0.8c-0.3-0.3-1.5-0.1-1.3-0.7
		c0.1-0.1,0.4-0.2,0.5-0.3c-2.2-1.5-4.9-1.8-7.3-2.4c-0.9-1.1-1.8-2.3-3-3.1C27.6,1.8,26.2,1.4,25.1,2z M22.2,5.6
		c-0.1,0.5,0.1,0.7,0.5,0.6C22.9,5.6,22.7,5.5,22.2,5.6z M21.4,6.9c-1.3,0.1-2.6,0-3.9,0.3c1.1,0.9,2.6,0.5,3.8,1
		c-0.1,0.6-0.2,1.2-0.3,1.8c0.1,1.5-0.4,3.3,0.9,4.5c-0.1-0.9-0.2-1.8-0.4-2.7c0.9-0.8,1.8-1.5,2.8-2.2c-0.7,0.2-1.3,0.5-2,0.8
		c0.1-0.8,0-1.7,0.6-2.2c1.1-1.1,2.8-1.1,4.3-1C28.3,7,29,8,30,7.9c0-0.1,0-0.3,0-0.3c-1.2-0.9-2.8-1.2-4.3-1.1
		c-0.1-0.1-0.2-0.2-0.2-0.3C24.1,6.4,22.7,6.7,21.4,6.9z M12.4,10.2c1.2,0.8,2.4,1.7,3.5,2.5c0.6,0.5,1.4,0.3,2.1,0.4
		c-0.5-0.3-0.9-0.6-1.4-1c0.9-0.6,1.9-1.1,2.8-1.8c-1.2,0.3-2.3,0.9-3.5,1.3c-1,0.1-1.9-1.1-1.8-2.1c0.7-1.6,2.5-2.1,3.8-3
		C15.7,6.7,13.9,8.6,12.4,10.2z M22.4,12.1c0.7,0,1.3,0.1,1.9,0.3c-0.4,0.2-1.1,0.5-1.4,0.7c0.6,0.2,1.2,0.3,1.7-0.2
		c0.3,0.1,0.7,0.3,1,0.4c0-0.5,0-1.2-0.6-1.3C24.2,11.8,23,11.2,22.4,12.1z M22.1,16c-0.3,0.4-0.2,0.7,0.3,0.8
		C22.7,16.4,22.6,16.1,22.1,16z M28.2,16.7c-1.2,0.8-2.7,0.1-4.1,0.2c1.1,0.8,2.6,0.4,3.8,0.8c-0.5,0.9-1.6,0.3-2.5,0.4
		c0.7,0.4,1.5,0.4,2.3,0.4c-0.4,1.1-1.2,1.8-1.7,2.8c1.6-0.7,2.4-2.4,2.7-4C28.6,17,28.4,16.9,28.2,16.7z M26.3,19 M23.8,21
		c0.6,1.3,1.5,2.5,2.8,3.2c-0.8-1.4-2.2-2.3-2.7-3.8C23.9,20.5,23.9,20.8,23.8,21z M24.1,24.5c-0.3,0.5-0.6,1.1-0.7,1.7
		c0.7-0.1,1.7-0.3,1.3-1.3c0.3,0,0.8,0,1.1,0c0-0.1,0-0.3,0-0.4C25.2,24.6,24.7,24.7,24.1,24.5z M26.9,24.4c0.2,0.2,0.6,0.6,0.9,0.8
		c-0.6-0.1-1.2-0.3-1.7-0.5c0.1,0.2,0.4,0.6,0.6,0.9c0.3,0,0.7,0.1,1,0.1c0.4-0.4,0.8-0.7,1.3-0.9C28.3,24.7,27.6,24.5,26.9,24.4z
		 M25.3,25.7l-0.1,0.2c0.1,0.1,0.3,0.3,0.4,0.5c0.2-0.1,0.6-0.3,0.8-0.4C26.1,25.5,25.7,25.4,25.3,25.7z M28.1,25.9
		c-0.2,0.6,0,0.7,0.6,0.5C28.8,25.9,28.6,25.7,28.1,25.9z"/>
</g>
<g>
	<path fill="#700E18" d="M25.1,2c1.1-0.7,2.5-0.2,3.4,0.5c1.2,0.8,2.1,2,3,3.1c2.5,0.7,5.2,0.9,7.3,2.4c-0.1,0.1-0.4,0.2-0.5,0.3
		c-0.2,0.6,1,0.4,1.3,0.7c0.6,0,0.1,0.7-0.1,0.8c-1,0.9-2,1.9-3.1,2.7c-1.3,0.8-2.9,0.7-4.4,0.5c-0.3,1.1-0.5,2.2-0.8,3.3
		c-0.3,1,0,2.1-0.7,2.9c-1.1,1.4-2.1,2.9-3.7,3.7c1.4-1.5,3.1-3.2,2.9-5.5c0.1-1.2-1.3-1.5-2.2-1.9c-0.5,0.2-0.9,0.5-1.4,0.6
		c-0.7-0.1-1.3-0.4-1.9-0.6c-1.1,1-1,2.6-0.9,3.9c-0.7-0.5-1.2-1.2-1.4-2.1c0.3,0.2,0.7,0.3,1,0.5c0.1-0.6,0.1-1.3,0.2-1.9
		c0.4-0.6,1.1-0.9,1.6-1.3c0.4,0.8,1.5,1.6,2.2,0.6c-0.1-1.1-0.2-2.1-0.2-3.2c1-0.8,2.3-0.8,3.5-0.6c-0.1-0.4-0.2-0.9-0.3-1.3
		c-1.2-0.6-2.5-1-3.8-1c0-0.1,0-0.2,0-0.3c1.3,0,2.6,0.1,3.8,0.7c0-0.5,0-1,0-1.5c0.1-0.2,0.4-0.6,0.5-0.8c-0.9-1.1-2.5-1.9-4-1.6
		c-0.2-0.1-0.4-0.3-0.6-0.4c0.7-0.3,2.4,0,2.2-1.2c-0.5-0.9-1.1-2.2-2.3-2c-1.9,0.7-3.4,2-4.7,3.5c0.3,0.3,0.6,0.6,0.9,0.8
		c-1.2-0.1-2.5,0.1-3.7-0.2c0.5-1,2.7,0.2,2.9-1.4C22.4,3.8,23.8,2.9,25.1,2z M35.4,7.8c0.7,0.5,1.6,0.6,2.5,0.7
		c0-0.1,0-0.3,0.1-0.4C37.1,7.9,36.3,7.8,35.4,7.8z M27.3,12.7c1.1,0,2.4-0.4,3.1,0.8c-0.5-0.1-1-0.2-1.4-0.3
		c-0.5,0.1-1,0.2-1.5,0.3c-0.1,1.6,1.3,2.2,2.6,2.6c1.3-0.8,0.8-2.7,0.1-3.8C29.2,11.9,28,12,27.3,12.7z"/>
</g>
<path fill="#B78F84" d="M22.2,5.6c0.5-0.1,0.7,0.1,0.5,0.6C22.3,6.2,22.1,6,22.2,5.6z"/>
<path fill="#700C15" d="M21.4,6.9c1.4-0.3,2.7-0.5,4.1-0.8c0.1,0.1,0.2,0.2,0.2,0.3c1.5-0.1,3.1,0.2,4.3,1.1c0,0.1,0,0.3,0,0.3
	C29,8,28.3,7,27.3,7.1c-1.5,0-3.2,0-4.3,1c-0.6,0.6-0.6,1.5-0.6,2.2c0.6-0.3,1.3-0.6,2-0.8c-1,0.7-1.9,1.4-2.8,2.2
	c0.1,0.9,0.3,1.8,0.4,2.7c-1.3-1.2-0.8-2.9-0.9-4.5c0.1-0.6,0.2-1.2,0.3-1.8c-1.2-0.5-2.7-0.1-3.8-1C18.8,6.9,20.1,7,21.4,6.9z"/>
<path fill="#7B1116" d="M12.4,10.2c1.5-1.6,3.3-3.5,5.6-3.6c-1.3,0.9-3.1,1.4-3.8,3c-0.1,1,0.7,2.2,1.8,2.1c1.2-0.4,2.2-1,3.5-1.3
	c-0.9,0.7-1.8,1.2-2.8,1.8c0.5,0.3,0.9,0.6,1.4,1c-0.7-0.1-1.5,0.1-2.1-0.4C14.7,11.9,13.6,11.1,12.4,10.2z"/>
<path fill="#FEFFFD" d="M35.4,7.8c0.8,0,1.7,0.1,2.5,0.3c0,0.1,0,0.3-0.1,0.4C37,8.4,36.2,8.2,35.4,7.8z"/>
<path fill="#660D16" d="M22.4,12.1c0.6-0.9,1.8-0.2,2.6-0.1c0.6,0.1,0.6,0.8,0.6,1.3c-0.3-0.1-0.7-0.3-1-0.4
	c-0.5,0.5-1.1,0.4-1.7,0.2c0.4-0.2,1.1-0.5,1.4-0.7C23.8,12.1,23.1,12,22.4,12.1z"/>
<path fill="#FBECCA" d="M27.3,12.7c0.8-0.7,1.9-0.9,2.9-0.4c0.8,1.1,1.3,3-0.1,3.8c-1.3-0.3-2.7-1-2.6-2.6c0.5-0.1,1-0.2,1.5-0.3
	c0.5,0.1,0.9,0.2,1.4,0.3C29.7,12.4,28.3,12.7,27.3,12.7z"/>
<path fill="#9B685D" d="M22.1,16c0.4,0.1,0.5,0.3,0.3,0.8C21.9,16.7,21.9,16.5,22.1,16z"/>
<path fill="#690C11" d="M28.2,16.7c0.2,0.2,0.4,0.3,0.6,0.5c-0.3,1.7-1.1,3.3-2.7,4c0.4-1,1.3-1.7,1.7-2.8c-0.8,0-1.6,0-2.3-0.4
	c0.8-0.1,1.9,0.5,2.5-0.4c-1.2-0.4-2.7,0-3.8-0.8C25.5,16.8,26.9,17.5,28.2,16.7z"/>
<path fill="#D1B299" d="M26.3,19"/>
<path fill="#660D16" d="M23.8,21c0-0.2,0.1-0.5,0.1-0.6c0.6,1.5,1.9,2.5,2.7,3.8C25.3,23.5,24.4,22.3,23.8,21z"/>
<g>
	<path fill="#975049" d="M19.4,23.8c1.5,0,3.1-0.2,4.5,0.3C22.5,24,21,24,19.5,24l0,0.6c0.5,0,1-0.1,1.4-0.1c-0.1,0.3-0.2,1-0.2,1.3
		c0.3-0.4,0.6-0.8,0.9-1.3c0.7,0,1.4,0.1,2,0.1c-0.7,0.6-1.5,1.1-1.6,2.1c-0.3-0.4-0.5-0.8-0.8-1.2c0,0.2,0,0.5,0,0.6
		c-0.6,0-1.1,0.1-1.7,0.2C19.4,25.5,19.3,24.6,19.4,23.8z M19.7,25"/>
</g>
<path fill="#700E18" d="M24.1,24.5c0.6,0.1,1.1,0.1,1.7,0.1c0,0.1,0,0.3,0,0.4c-0.3,0-0.8,0-1.1,0c0.4,1-0.6,1.2-1.3,1.3
	C23.5,25.6,23.8,25.1,24.1,24.5z"/>
<path fill="#700E18" d="M26.9,24.4c0.7,0.1,1.4,0.3,2.1,0.4c-0.5,0.2-1,0.5-1.3,0.9c-0.3,0-0.7-0.1-1-0.1c-0.1-0.2-0.4-0.6-0.6-0.9
	c0.6,0.2,1.1,0.4,1.7,0.5C27.6,25,27.1,24.6,26.9,24.4z"/>
<path fill="#F9DAC9" d="M19.7,25"/>
<path fill="#660D16" d="M25.3,25.7c0.5-0.2,0.8-0.1,1.1,0.3c-0.2,0.1-0.6,0.3-0.8,0.4c-0.1-0.1-0.3-0.3-0.4-0.5L25.3,25.7z"/>
<path fill="#965B57" d="M28.1,25.9c0.6-0.2,0.8-0.1,0.6,0.5C28.1,26.6,27.9,26.5,28.1,25.9z"/>
<path fill="#AB1422" d="M18.3,36.6c0.3-0.3,0.5-0.8,1-0.9c0.7-0.3,1,0.5,1.3,0.9c1.5,0.1,3-0.1,4.5,0.2c0.2,0.7,0.1,1.4,0,2.1
	c-0.4,0-0.8,0-1.2,0c-0.1-0.2-0.2-0.7-0.2-0.9c-1.6,0-3.3,0-4.9,0c-0.4,0.7-0.8,1.3-1.3,2c0.9,0.1,1.8,0.3,2.6,0.8
	c1,0.7,2.3,0.4,3.4,0.4c0.1-0.2,0.2-0.7,0.2-1c0.6,0,1.8-0.1,1.4,0.9c-0.3,1.3-1.8,1.4-2.9,1.6c1.1,1.1,2.1,2.4,3,3.6
	c-0.8,0-1.5,0-2.3,0c-1.1-1.8-2.7-3.4-4.5-4.6c-0.7-0.5-1.5-0.5-2.3-0.6c0,1.3-0.1,2.6,0,3.8c1.6,0,3.2-0.1,4.8,0
	c0.6,0.3,0.3,1.3-0.3,1.2c-2,0-4,0-6-0.2c0-1.5,0-3,0-4.5c-0.3-0.1-0.7-0.2-1-0.3c0-0.4,0-0.8,0-1.2c0.7-0.1,1.6,0.2,2.2-0.5
	c0.4-0.4,0.8-1,1.1-1.5c-0.5,0-0.9-0.1-1.3-0.1c-0.2,0.4-0.5,0.7-0.7,1.1c-0.3-0.1-0.8-0.2-1-0.3c0.1-0.7-0.3-1.8,0.6-2
	C15.7,36.6,17,36.7,18.3,36.6z"/>
<path fill="#AF1223" d="M27.5,37.2c1.1,0.1,1.6-0.9,2.5-1.4c2-0.1,3.9,0,5.9,0c1.2-0.1,1.8,1.3,3,1.4c0,0.3-0.1,0.9-0.1,1.1
	c-1.1,0-2.1-0.4-2.8-1.4c-1.8,0-3.6,0-5.5,0c-0.7,0.9-1.7,1.6-2.8,1.2C27.6,37.9,27.5,37.4,27.5,37.2z"/>
<path fill="#A61322" d="M0.9,36.2c3.5,0,7,0,10.4,0c0,0.3-0.1,0.9-0.1,1.2c-3.4,0.1-6.8,0-10.3,0.1C0.9,37.1,0.9,36.6,0.9,36.2z"/>
<g>
	<path fill="#A91021" d="M41.2,36.4c0.1-0.1,0.3-0.2,0.4-0.3c3.4,0,6.8,0,10.2,0.1c0,1.3,0.1,2.6-0.1,3.9c-0.4,0.7-1.4,0.6-2.1,0.6
		c-2.8-0.1-5.6,0.1-8.4-0.1C41.1,39.1,41.1,37.7,41.2,36.4z M42.6,37.3c0,0.7,0,1.3,0,2c2.5,0.2,5.1,0.1,7.6,0.1
		c0-0.7,0.1-1.4,0.1-2.1C47.8,37.3,45.2,37.2,42.6,37.3z"/>
</g>
<g>
	<path fill="#AD1221" d="M31.7,38.5c0.3-0.9,1.1-1,1.9-0.9c0.1,0.2,0.2,0.7,0.2,0.9c1.6,0,3.3-0.1,4.9,0.3c0.1,1.1,0.1,2.3,0,3.4
		c-1.5,0.4-3.1,0.2-4.6,0.3c0.6,0.4,1.1,0.8,1.7,1.1c0.7,0.2,1.2-0.3,1.7-0.6c0.3,0,0.9,0,1.2,0c-0.1,0.6,0.1,1.2-0.5,1.6
		c-0.6,0.1-1.1,0-1.7,0c0.5,0.5,0.9,1,1.1,1.7c-0.5,0-1,0-1.6,0c-0.8-0.5-1.2-1.4-2-1.9c-0.9-0.6-1.8-1.2-2.8-1.7
		c-0.8-0.2-1.6-0.1-2.3-0.2c0,0.8,0,1.6,0.1,2.4c1.5,0,3,0,4.5,0c0,0.4,0,0.7,0.1,1.1c-2.1,0.2-4.2,0.4-6.2-0.1c0-2.4,0-4.8,0.1-7.1
		C28.8,38.4,30.3,38.6,31.7,38.5z M29,39.7c0.2,0.1,0.5,0.3,0.6,0.4c2.4,0.1,4.9,0.1,7.3,0c0.1-0.1,0.4-0.2,0.5-0.3
		C34.6,39.5,31.8,39.6,29,39.7z M28.8,41.1c0.9,0.5,1.9,0.3,2.9,0.3c2-0.1,4,0.2,5.9-0.2C36.4,40.8,35,41,33.8,41
		C32.1,41,30.4,40.9,28.8,41.1z"/>
</g>
<path fill="#AE1323" d="M5,39.7c0.1-0.7,0.2-1.4,0.4-2c0.6,0,1.2,0,1.8,0c-0.1,0.7-0.1,1.3-0.2,2c1.4,0,2.8,0,4.2,0
	c0,0.3,0,1-0.1,1.3c-1.3,0-2.6,0-3.9,0c2.4,1,4.6,2.6,5.7,5.1c-0.7,0-1.4,0.1-2.1-0.1c-1.2-1.6-2.6-3.2-4.6-3.8
	C5.9,43.4,6.1,45,5,45.9C3.3,46.2,1.7,46,0,46c0.1-0.5,0.1-0.9,0.3-1.4c1.2,0,2.3,0.2,3.5,0c0.4-1.1,0.6-2.3,0.8-3.5
	c-1.3,0-2.5,0-3.8,0c0.1-0.4,0-0.9,0.3-1.3C2.3,39.7,3.7,39.8,5,39.7z"/>
<g>
	<path fill="#A81222" d="M40.4,41.6c0.9-0.7,2.2-0.3,3.3-0.4c0.7,0.1,1.7-0.2,2.2,0.3c0.1,1.1,0.1,2.3,0,3.4c0,0.7-0.5,1.3-1.2,1.4
		c-1.5,0.1-3,0-4.4-0.1C40.3,44.6,40.3,43.1,40.4,41.6z M41.8,42.6c0,0.8,0,1.6,0,2.3c1,0,2,0,3,0c0-0.8,0-1.5,0-2.3
		C43.7,42.6,42.7,42.5,41.8,42.6z"/>
</g>
<g>
	<path fill="#AB1424" d="M47,41.6c0.3-0.5,1-0.4,1.5-0.4c1.3,0,2.6,0,4,0c0,1.5,0.1,2.9-0.1,4.4c-0.4,0.8-1.5,0.6-2.2,0.6
		C49.1,46.2,48,46.5,47,46C46.8,44.5,46.8,43,47,41.6z M48.2,42.5c-0.1,0.8-0.1,1.5-0.1,2.3c1,0,2,0,3,0c0-0.8,0-1.6,0-2.3
		C50.2,42.5,49.2,42.5,48.2,42.5z"/>
</g>
</svg>
