<?xml version="1.0" encoding="utf-8"?>
<!-- Generator: Adobe Illustrator 18.1.1, SVG Export Plug-In . SVG Version: 6.00 Build 0)  -->
<svg version="1.1" id="图层_1" xmlns="http://www.w3.org/2000/svg" xmlns:xlink="http://www.w3.org/1999/xlink" x="0px" y="0px"
	 viewBox="0 0 80.8 37.1" enable-background="new 0 0 80.8 37.1" xml:space="preserve">
<path fill="#0A0503" d="M43.7,0c0.3,0,0.8,0.1,1.1,0.1c0.2,1.4,0.2,2.8,0.3,4.1c1-0.2,1.9-0.5,2.9-0.8c0.3,1.8,0.6,3.6,0.7,5.4
	c-1.1,0.3-2.3,0.7-3.4,1.1c0,0.9,0,1.7,0,2.6c1.9-0.4,4-0.6,5.7-1.6c1.1-1,1.6-2.4,2.6-3.5c0.4-0.9,2.1,0,1.2,0.8
	c-0.6,1.2-1.7,2.1-2.6,3c-1.8,1.7-4.5,2-6.8,2.7c0,0.7,0,1.5,0.1,2.2c1.4,1.1,2.7,2.5,4.3,3.3c1.8,1.2,3.9,1.5,6,2.1
	c1.2,1.1,0,2.5-0.6,3.5c-1.6-0.4-3.2-0.7-4.7-1.2c-0.9-0.6-1.2-1.7-1.9-2.4c-1-1-2-2-3-3c-0.3,3.8,0.2,7.7,0.4,11.5
	c-0.9,0.6-2,0.7-3,0.6c0-0.2,0.1-0.6,0.2-0.8c0.5-0.2,1-0.4,1.6-0.6c-0.1-3.1-0.1-6.2-0.4-9.2c-2.5,1.1-4.4,3.1-6.7,4.4
	c-3.7,1.7-7.9,2-11.8,3c-3.7,0.2-7.4,0.9-11.1,0.1c-1.6,0.2-3,1.7-4.7,1.4c-1.7-0.2-3.4-0.7-5.1-0.9c-1.3-0.3-2.8-0.5-3.6-1.6
	c4.3-0.1,8.6,0,12.9,0.1c4.9,0.7,10.1,0.8,14.8-0.7c1.8-0.5,3.9-0.6,5.3-1.9c2.4-2.2,4.8-4.3,7.2-6.5c0.9-0.9,1.9-1.8,2.5-2.9
	c-2.1,0.5-4.4,1-6.2,2.3c-0.9-0.5-1.6-1.3-1.9-2.2c2.7-0.3,5.3-1.2,8-1.7c0-0.8,0-1.6,0.1-2.4c-1.9,0.2-3.7,1.1-5.6,1
	c-0.9-1.5-1.5-3.1-2-4.8c2.4-0.6,4.7-1.4,7.1-1.9C43.7,3.2,43.5,1.6,43.7,0z"/>
<path fill="#080301" d="M17.5,4.9c1.2,0.7,2.2,1.9,2.6,3.3c-1.2,0.9-2.4,1.8-3.5,2.7c0.6,0.5,1.2,1.1,1.9,1.6
	c2.1,0.5,3.4-3.1,5.3-1.6c-1.2,1.3-2.9,2.1-4.5,2.7c0.7,3.7,0,7.6-2,10.7c-1.4-0.2-2.5-0.9-3.3-2.1c-1.1-0.4-2.4-0.9-2.9-2.1
	c1.1,0,2.1,0.4,3.1,0.6c1-0.2,1.5-1.1,2-1.8c1-1.4,0.5-3.1,0.7-4.7c-1.8,0.4-3.7,0.6-5.3,1.7c-0.8-0.1-1.3-0.7-1.4-1.5
	c2.2-0.3,4.4-0.8,6.6-1.3c-0.2-0.5-0.4-1.1-0.6-1.6c-0.8,0.5-1.7,0.9-2.7,0.9c1.1-1.8,2.3-3.7,3.3-5.6c-2,0.7-3.8,1.7-5.6,2.8
	c-0.4-0.5-0.7-1-1-1.5c2.4-0.6,4.6-1.5,7-2.1C17.1,5.6,17.3,5.1,17.5,4.9z"/>
<path fill="#020202" d="M63.6,7.2c-0.8-0.6-1.3-1.4-1.5-2.4c1.1,0.3,2.9,0.5,3.1,2C65.3,7.6,64.1,7.8,63.6,7.2z"/>
<g>
	<path fill="#060301" d="M5.5,6.1C6.4,6.6,7.3,7.1,8,7.9C7.5,9,6.7,10,6.2,11.1c0.7,0,1.7-0.8,2.1-0.1c0,0.3-0.1,1-0.1,1.3
		c0.3,0.1,0.8,0.4,1.1,0.6c-0.2,1.5-1.4,2.6-2.2,3.8c1.3,0.3,2.7,0.4,3.7,1.4c-0.4,0.6-0.5,1.8-1.4,1.9c-1.3-0.4-2.6-0.9-3.9-1.2
		c-1.3,1-2.7,2.1-4.3,2.6c-0.6,0.2-0.9-0.4-1.3-0.6c1.5-0.4,2.8-1.4,3.7-2.6c-0.6-0.3-1.2-0.5-1.7-0.9c-0.9-1.5,1.2-2.4,1.5-3.7
		c-0.9,0-2.6,1.3-3-0.2c1.1-0.6,2.5-0.7,3.4-1.7C4.6,9.8,5.1,7.9,5.5,6.1z M4.9,12.9c-0.6,0.9-1,2-1.5,3c0.4,0,1.3,0,1.8,0
		c0.7-1.3,1.4-2.5,1.6-4C6.2,12.2,5.5,12.5,4.9,12.9z"/>
</g>
<path fill="#090503" d="M32.5,7.5c0.3-0.5,0.2-1.7,1.1-1.3c1.2,1.1,2.1,2.5,2.7,4c-1.5,2.2-1.3,5-2.1,7.5c-1,0.6-2.3,0.4-3.3,0.2
	c-0.6,0.1-1.1,0.2-1.7,0.3c-0.3,0.6-0.6,1.3-0.9,2c-0.4-0.4-0.8-0.7-1.2-1.1c-0.3-2.8-1.7-5.3-1.9-8.1c0-0.2,0.1-0.7,0.2-0.9
	c0.8-0.7,1,0.5,1.4,0.9c0.5,0.9,1.5,1.1,2.3,1.7c0,1.1-0.1,2.2-0.1,3.3c0.9-0.5,2.2-0.3,3-1c0.2-2.1,0.1-4.2,0.3-6.3
	c-1.2,0.7-2.3,1.6-3.6,2.1c-0.1-0.1-0.4-0.2-0.5-0.3C29.6,9.4,31.1,8.5,32.5,7.5z"/>
<g>
	<path fill="#080402" d="M66.3,7.8c0.3-0.4,0.4-1.2,1-1c1,1,2.2,1.9,2.8,3.3c-0.7,1.9-1.6,3.6-2.3,5.4c-0.9-0.1-1.7-0.3-2.6-0.2
		c-1.1,0.5-2.1,1.3-3.3,1.7c-0.1,0.8-0.2,1.6-0.2,2.4c1.5-0.6,2.8-1.6,4.4-1.9c0-0.4-0.1-1.1-0.1-1.4c1.6,0.2,2.8,1.4,3.3,2.8
		c0.2,0.7-0.6,1.6-1.4,1.5c-0.9-0.7-1.3-1.9-1.7-2.9c-1.9,1.9-3.3,4.4-5.3,6.3c-0.4,0-0.7,0-1.1,0c-0.8-0.8-1.7-1.5-2.1-2.5
		c0.6-0.4,1.2-0.7,1.7-1.1c0.1-2.6-0.2-5.2,0.2-7.8c-0.3-0.6-0.7-1.1-1-1.7C61.2,9.9,63.8,8.9,66.3,7.8z M61.7,11.6
		c0,0.2-0.1,0.6-0.2,0.8c1.3,0.3,2.6-0.8,4-0.8c0.3-1,0.6-2,0.9-3C64.8,9.5,63.2,10.5,61.7,11.6z M62,13.7c0,0.5,0.1,1.1,0.1,1.6
		c1.2-0.6,2.6-1,3.2-2.3c-0.3,0-0.8-0.1-1.1-0.2C63.5,13.1,62.8,13.4,62,13.7z"/>
</g>
<g>
	<path fill="#080402" d="M71.2,13.1c0-2-0.3-4.1,0.4-6c1.3,0.6,1.9,2,2.8,3.1c1.2-0.6,2.3-1.3,3.3-2c1.1,1,2,2.1,2.8,3.2
		c-0.7,0.7-1.5,1.3-2.1,2.1c1,1.3,2.2,2.5,2.2,4.2c0.1,1.7,0.5,3.6-0.4,5.1c-0.7,1.1-2.1,0.7-3.1,0.5c-1.5-0.3-2.4-1.7-3.5-2.6
		c-0.3,2.7-0.3,5.4-0.7,8.1c-0.1,0.9-0.7,1.6-1.3,2.2C71.2,25,71.2,19,71.2,13.1z M74.5,11.2c-0.6,2.7-0.7,5.6-0.8,8.4
		c0.9,0.7,1.7,1.6,2.7,2.2c1,0.3,2.1-0.2,2.7-1.1c0.2-2.3,0.2-4.8-1.3-6.6c-0.9,0.7-1.7,1.9-2.9,1.2c0.1-1.7,1.1-3.1,1.5-4.7
		C75.7,10.1,75.1,11,74.5,11.2z"/>
</g>
<g>
	<path fill="#EE5B0E" d="M59.8,23.9c0.3,0,0.7,0,1.1,0c1.1,0,2.3,0,3.4,0c0,2.3,0,4.6,0,6.8c-2.3,0.1-4.5,0-6.8,0
		c-0.1-2.3-0.1-4.5,0-6.8C58.3,23.9,59,23.9,59.8,23.9z M58.8,24.8c0,0.5,0.1,0.9,0.1,1.4c0.1,0.1,0.4,0.2,0.6,0.3
		c0.2-0.6,0.5-1.2,0.8-1.8C59.8,24.7,59.3,24.8,58.8,24.8z M61.8,24.2c0,0.8,0,1.5,0,2.3c0.2,0,0.7,0.1,0.9,0.2
		C62.6,25.7,63.1,24.3,61.8,24.2z M58.8,27.6c0,0.6,0,1.2,0,1.8c0.5,0,1,0,1.4,0c-0.1-0.6-0.3-1.3-0.4-1.9
		C59.5,27.6,59,27.6,58.8,27.6z M62,28.6c-0.2,0-0.7,0.1-0.9,0.1c0,0.2-0.1,0.5-0.2,0.7c0.7,0,1.5,0.1,2.2,0.1
		c-0.2-0.8-0.5-1.5-0.7-2.3C62.3,27.6,62.1,28.2,62,28.6z"/>
</g>
<g>
	<path fill="#0A0503" d="M22.7,34.8c0.1-0.6,0-1.3,0.4-1.8c0.2,1.1-0.3,2.3,0.3,3.4c1.1-0.5,1.2-2.3,1.9-3.2c0.5,1,0.9,2.1,1.4,3.1
		c0.1,0,0.3,0.1,0.4,0.1c0.3-1,0.2-2,0.3-3.1c0.9,0,1.9-0.2,2.6,0.4c0.4,0.4,0.5,1,0.8,1.5c-0.3,0.4-0.4,1.1-0.8,1.4
		c-1.1,0.7-2.3,0.1-3.5,0.1c-0.1-0.2-0.3-0.7-0.4-1c-0.4,0-1.2,0-1.6,0c-0.1,0.3-0.2,0.8-0.3,1c-0.5,0-0.9,0-1.4,0.1
		c0-0.6,0-1.1,0-1.7c-0.7,0-1.4,0-2.1-0.1c-0.1,0.7,0,1.4-0.4,2.1c-0.1-1.4-0.1-2.7,0-4.1c0.3,0.6,0.3,1.2,0.4,1.8
		C21.3,34.8,22,34.8,22.7,34.8z M27.7,33.5c-0.1,1-0.1,2.1,0,3.1c1.1,0.1,2.5-0.1,2.6-1.5C30.2,33.8,28.9,33.5,27.7,33.5z
		 M25.1,34.5"/>
</g>
<path fill="#26272D" d="M32.3,33c1,0.7,1.1,2,1.5,3.1c0.5-1,1-2,1.5-3c0.5,1,0.9,2,1.3,3c0.4-0.9,0.7-1.8,1.1-2.7
	c1.5-0.2,2.9,0.1,4.4,0.1c0,1.2-0.1,2.4-0.1,3.5l-0.4,0c0-1.1,0-2.3,0-3.4c-1,0.3-3-0.5-3,1.1c0.8,0.1,1.6,0.1,2.3,0.4
	c-0.7,0.1-1.4,0.1-2.1,0.2c0,0.3,0,0.9,0,1.2c0.8,0,1.7,0.1,2.5,0.2c-0.9,0.3-1.9,0.2-2.9,0.2c0-1,0.2-2.1-0.2-3
	c-1,0.6-0.9,2.2-1.5,3.2c-0.6-0.9-1-1.9-1.4-2.8c-0.5,0.9-0.9,1.9-1.4,2.8C33.2,35.7,32.6,34.4,32.3,33z"/>
<path fill="#090503" d="M42.9,37c0-1.3-0.1-2.7,0.2-4c0.3,1.2,0.2,2.4,0.2,3.6c0.7,0,1.4,0,2.1,0c0.5-1.1,1-2.3,1.5-3.4
	c0.3,0.4,0.5,0.7,0.8,1.1c-0.2,0.2-0.3,0.5-0.5,0.7l-0.3-1.3c-0.1,0.5-0.4,1.4-0.5,1.9c0.3-0.1,0.8-0.3,1.1-0.3
	c0.1,0,0.4-0.1,0.6-0.1c0,0.7,0.3,1.1,0.8,1.3c0.6-1,0.2-2.2,0.4-3.3c0.9,1,1.7,2,2.7,3c0-1,0-2,0.1-3c0.3,1.3,0.1,2.6,0.3,3.9
	c-1-0.9-1.9-2-2.8-2.9c0,1,0,2,0,3.1c-0.4-0.1-0.8-0.1-1.1-0.2c-0.2-0.4-0.4-0.9-0.7-1.3c-0.4,0-1.1,0.1-1.5,0.1
	c-0.1,0.3-0.3,0.8-0.4,1C44.8,36.9,43.9,36.9,42.9,37z"/>
<g>
	<path fill="#26272D" d="M53,33.3c0.9,0,1.8-0.1,2.6,0.3c1.2,0.8,1,2.9-0.4,3.3c-0.7,0.1-1.4,0-2.1,0C53,35.7,53,34.5,53,33.3z
		 M53.5,33.6c0,1,0,2,0,3c0.6,0,1.1-0.1,1.7-0.2c1-0.4,1.1-2.1,0.1-2.5C54.6,33.7,54,33.6,53.5,33.6z"/>
</g>
<path fill="#FDFEFC" d="M25.1,34.5"/>
</svg>
