<?xml version="1.0" encoding="utf-8"?>
<!-- Generator: Adobe Illustrator 18.1.1, SVG Export Plug-In . SVG Version: 6.00 Build 0)  -->
<svg version="1.1" id="图层_1" xmlns="http://www.w3.org/2000/svg" xmlns:xlink="http://www.w3.org/1999/xlink" x="0px" y="0px"
	 viewBox="0 0 53.1 64.4" enable-background="new 0 0 53.1 64.4" xml:space="preserve">
<g>
	<path fill="#0A0202" d="M20.8,0.5c0.7-0.5,1.6-0.8,2.3,0c-0.1,0.3-0.3,0.8-0.4,1c0.9,1.9,2.3,4.6,0.6,6.4c0.1,0.3,0.3,0.9,0.4,1.2
		L22.7,9c0.7,0.5,1.3,1,2.1,1.4c-0.2-0.2-0.6-0.7-0.8-0.9c0.2-0.2,0.5-0.4,0.7-0.7c0.4,0.6,0.8,1.2,1.1,1.8c2.6-0.3,5.1,0.8,7.8,0.4
		c2.1-0.1,4.2-1.1,6.4-0.8c1.4,0.5,1.6,2.1,1.7,3.4c2.3,0.6,3.9,3,4.2,5.3c-0.1,4.3-1.4,8.6-4.1,11.9c-2.6,3.7-6.6,6.2-10.9,7.2
		c-5.4,1.3-11.2,0-15.6-3.2c-3.9-2.7-6.6-7-7.6-11.6c-0.3-2.1-2.9-2.6-4.6-1.9c-0.2-0.5-0.3-1.1,0.3-1.5c0.5-0.7,1.1-1.3,1.7-1.8
		c0.8-0.1,1.4-0.4,2.1-0.8c0.6,0.1,1.1,0.2,1.7,0.3c0.1-2.7,3-4.4,5.4-4.3c-0.2,1.3-0.9,2.5-0.6,3.9c0.5,2.2,2.4,4.4,4.8,3.9
		c-0.1-1.9,0.4-4.1-0.7-5.8c-0.9-1.9-1.2-4.6,0.6-6c-1-0.8-2-1.6-2.5-2.7C15,7.3,14.2,8,13.2,8.3c-1.4,0.4-3.1-0.1-3.5-1.6
		c1.7,0.1,3.8,0.5,5.2-0.9c-0.6-0.4-1.2-0.8-1.7-1.3c0.7-0.7,1.5-1.3,2.5-1.6c0.6-0.9,1.2-1.7,2.2-2.2C18.8,0.3,19.8,0.4,20.8,0.5z
		 M19.8,1.2c0.2,0.5,0.3,1,0.5,1.5c-0.7,0-1.5-0.1-2.2-0.1C18,2.4,17.6,2.1,17.4,2c-1.3,0.7-1.1,2.4-1.1,3.7
		c0.3,2.5,3.5,4.1,5.6,2.7c1.5-0.8,1.9-2.8,1.1-4.3c-0.3,0.2-0.6,0.4-1,0.6c-0.2-0.6-0.4-1.1-0.7-1.7c0.4,0,1.2,0,1.5,0
		c-0.4-0.8-1.1-1.4-1.8-2C20.8,1.1,20.2,1.1,19.8,1.2z M10.8,7.4c1,1,2.8,0.5,3.5-0.6C13.2,7,11.3,6.2,10.8,7.4z M21.1,10.4
		c-0.9-0.2-1.8-0.4-2.6-0.6c-1.1,1.2-1.1,2.9-0.6,4.4c0.5,1.2,1.8,1.7,2.9,1.8c1.5,0.1,3.4,0.2,4.3-1.2c0.4,0.2,0.7,0.5,1.1,0.7
		c0.1-0.6,0.5-1.3,0.4-1.9c-1.1-0.4-2.4,0-3.6-0.2c-1-0.3-2.5,0.7-3.1-0.6c0.3,0,0.9,0.1,1.2,0.1c0.1-0.7,0.2-1.5,0.4-2.2
		c0-0.3-0.1-1-0.1-1.4C21.3,9.5,21.2,10.1,21.1,10.4z M21.7,12.2c1.2,0.6,2.5,0.6,3.7,0.5c-0.3-1.4-1.5-1.8-2.7-2.3
		C22.4,11,22,11.6,21.7,12.2z M25.9,11.4c0,0.9,0.8,1.3,1.6,1.3c0.2-0.4,0.3-0.9,0.5-1.3C27.3,11.4,26.6,11.4,25.9,11.4z M28.6,11.4
		 M36,11.9c0.7,0.1,1.5,0.2,2.2,0.3c0.5,0.8,1.4,1.9,2.3,0.8c-0.2-0.5-0.4-1-0.6-1.5C38.8,10.7,37.3,11.4,36,11.9z M29.5,12.3
		c-1.3,0.7-2.4,1.9-2.5,3.4c3-0.8,5.8-2.3,8.7-3.5C33.6,12.3,31.6,12.4,29.5,12.3z M35.2,13.6c-2.4,1.3-5,2.4-7.7,3.1
		c0.4,0.2,0.9,0.4,1.3,0.6c3.1-1.3,6.1-2.8,9.3-3.6C37.4,12.9,36.2,13.1,35.2,13.6z M32.3,16.8c-1.7,0.8-3.5,1.4-5.1,2.4
		c1,1.2,2,2.4,2.2,4c0.7-0.5,0.9-1.4,1-2.2c0.7,0.6,1.2,1.5,1.6,2.3c1.6,3.5,4.7,6.3,8.3,7.7c3-3.3,4.7-7.8,4.4-12.3
		c-0.9-0.1-1.9,0.2-2.7-0.4c-1-0.8-1.5-2-2.1-3.1c-0.2,0-0.5,0-0.6-0.1c0,0.2-0.1,0.7-0.2,1c-1.2,0.4-1.2-0.6-1.2-1.4
		C36,14.9,34.2,16,32.3,16.8z M41.7,14.8c-0.2,0.6,0.1,0.8,0.7,0.6C42.5,14.8,42.3,14.6,41.7,14.8z M9.3,18c0.5,0.3,1.2,0.2,1.6-0.2
		c0.4,0.1,1.2,0.3,1.6,0.4c-0.1-1.1-0.2-2.2-0.3-3.2c-0.4,0.8-0.9,1.5-1.1,2.4l-0.8,0.1c0.4-0.9,0.7-1.7,1-2.6
		C10.1,15.5,9.3,16.7,9.3,18z M18.9,16.2c0.1,1.3,0.1,2.6,0.1,3.9c-0.2,1.6,0.9,3,2.1,3.9c1.8,0.7,3.5-0.2,5-1
		c0.1,1.6,1.3,2.7,2.2,4c1.6-0.5,3.7-1.8,3-3.8c-0.7,0.3-1.2,1-2,0.9c-0.6-0.2-0.5-0.9-0.6-1.4c-0.1-1.2-1-2.1-2-2.7
		c-1.4-0.4-3.1,0-4.2-1c1.2-0.2,2.4-0.1,3.5-0.1c-0.7-0.8-1.4-1.7-2.4-2.1C21.9,16.9,20.3,17,18.9,16.2z M24.5,16.2
		c0.5,0.8,1,2.1,2.3,1.5C26.3,16.9,25.7,16,24.5,16.2z M26.6,18c0,0.8,1.2,0.6,1.3,0C28,17.2,26.7,17.4,26.6,18z M5.1,19
		c1.2,0.1,2.3,0.4,3.5,0.8c0.7,0,0.9-0.4,0.8-1C8,18.1,6.3,18.1,5.1,19z M8.9,21c-1.5,1.4-0.3,3.6,0.3,5.2c2.5,6.5,9,11,15.9,11.5
		c5.3,0.4,10.6-1.6,14.3-5.3c-3.1-1.6-5.9-3.9-7.5-7.1c-1,1.4-2.5,2.7-4.3,2.7c-1,0.1-2.2,0-2.7,1c-0.7,0.9-0.8,2.8-2.4,2.5
		c-1.9,0.1-2.6-2-3.3-3.3c-0.9-0.3-1.9-0.5-2.6-1.2c-0.6-0.6-0.8-1.4-1.3-2.1c-1-0.8-2.4-1.2-3-2.3c-0.7-0.9-0.6-2.1-0.5-3.2
		C10.6,19.4,9.6,20.1,8.9,21z M15.4,23.7c0.2-0.5,0.4-1.1,0.6-1.6c-1-0.9-2-1.8-2.8-2.8C11.3,20.8,13.5,23.5,15.4,23.7z M4.3,19.9
		c1.1,0.4,2.2,1,3.3,1.3c0.2-0.2,0.5-0.5,0.6-0.6C7,20,5.6,19.9,4.3,19.9z M18.9,27.2c0.7-0.7,0.9-1.9,1.5-2.7
		c-1-1.1-1.7-2.7-3.4-2.5C15.6,23.8,16.6,26.8,18.9,27.2z M23.8,25c0.8,1.2,1.9,2.4,3.5,2.1c-0.7-0.9-1.3-1.9-1.9-2.8
		C24.8,24.5,24.3,24.8,23.8,25z M21,25.3c-1.9,1.7-0.6,5.6,2.1,5.4c0.3-1.2,0.8-2.3,1.7-3.2c-0.7-0.8-1.3-1.8-2-2.6
		C22.2,24.7,21.4,24.8,21,25.3z"/>
</g>
<g>
	<path fill="#FEFEFE" d="M19.8,1.2c0.3,0,1-0.1,1.3-0.1c0.7,0.6,1.3,1.2,1.8,2c-0.4,0-1.2,0-1.5,0c0.3,0.6,0.5,1.1,0.7,1.7
		c0.3-0.2,0.6-0.4,1-0.6c0.8,1.4,0.4,3.5-1.1,4.3c-2.2,1.3-5.4-0.2-5.6-2.7c0-1.3-0.2-2.9,1.1-3.7c0.2,0.1,0.6,0.4,0.8,0.6
		c0.7,0,1.5,0,2.2,0.1C20.2,2.1,20,1.6,19.8,1.2z M18.1,5c0.4,0,1.1,0,1.5-0.1c-0.3,0.6-1,0.4-1.5,0.5c0.1,0.2,0.4,0.7,0.6,0.9
		c0.5-0.3,1.2-0.4,1.5-0.9c0-0.7-0.7-1.1-1.1-1.6C18.7,4.2,18.4,4.6,18.1,5z M20.3,6.9C21.2,7.3,22.2,7,22.4,6
		C21.7,6.3,21,6.6,20.3,6.9z"/>
</g>
<path fill="#020101" d="M18.1,5c0.3-0.4,0.6-0.8,1-1.2c0.4,0.5,1.1,0.8,1.1,1.6c-0.3,0.6-1,0.7-1.5,0.9c-0.1-0.2-0.4-0.7-0.6-0.9
	c0.5,0,1.2,0.2,1.5-0.5C19.2,5,18.5,5,18.1,5z"/>
<path fill="#010101" d="M20.3,6.9C21,6.6,21.7,6.3,22.4,6C22.2,7,21.2,7.3,20.3,6.9z"/>
<path fill="#73070A" d="M10.8,7.4c0.5-1.2,2.4-0.5,3.5-0.6C13.5,7.9,11.8,8.4,10.8,7.4z"/>
<path fill="#FEFEFE" d="M21.1,10.4c0.1-0.3,0.2-0.9,0.3-1.2c0,0.3,0.1,1,0.1,1.4c-0.2,0.7-0.3,1.5-0.4,2.2c-0.3,0-0.9-0.1-1.2-0.1
	c0.6,1.3,2.1,0.4,3.1,0.6c1.2,0.2,2.5-0.2,3.6,0.2c0.1,0.7-0.2,1.3-0.4,1.9c-0.4-0.3-0.7-0.5-1.1-0.7c-0.9,1.5-2.8,1.3-4.3,1.2
	c-1.2-0.2-2.5-0.7-2.9-1.8c-0.5-1.4-0.5-3.2,0.6-4.4C19.3,10,20.2,10.2,21.1,10.4z"/>
<path fill="#E7030E" d="M21.7,12.2c0.3-0.6,0.7-1.2,1-1.7c1.1,0.4,2.4,0.9,2.7,2.3C24.2,12.7,22.9,12.8,21.7,12.2z"/>
<path fill="#FCFEFE" d="M25.9,11.4c0.7,0,1.4,0,2.1,0c-0.1,0.4-0.3,0.9-0.5,1.3C26.7,12.7,25.9,12.3,25.9,11.4z"/>
<path fill="#747172" d="M28.6,11.4"/>
<path fill="#FEFDFD" d="M36,11.9c1.2-0.4,2.8-1.2,4-0.3c0.2,0.5,0.4,1,0.6,1.5c-0.9,1.1-1.8,0-2.3-0.8C37.5,12.1,36.8,12,36,11.9z"
	/>
<path fill="#FEFEFD" d="M29.5,12.3c2.1,0.1,4.1-0.1,6.2-0.1C32.8,13.5,30,15,27,15.7C27.1,14.2,28.2,13,29.5,12.3z"/>
<path fill="#FDFEFC" d="M35.2,13.6c0.9-0.5,2.2-0.7,3,0.2c-3.3,0.8-6.3,2.3-9.3,3.6c-0.5-0.2-0.9-0.4-1.3-0.6
	C30.2,16,32.8,14.9,35.2,13.6z"/>
<g>
	<path fill="#E7000B" d="M32.3,16.8c1.8-0.8,3.6-1.9,5.7-2.1c0,0.8,0.1,1.8,1.2,1.4c0-0.2,0.1-0.7,0.2-1c0.2,0,0.5,0,0.6,0.1
		c0.6,1.1,1.1,2.3,2.1,3.1c0.7,0.6,1.8,0.3,2.7,0.4c0.3,4.5-1.4,9-4.4,12.3c-3.6-1.4-6.7-4.1-8.3-7.7c-0.4-0.9-0.9-1.7-1.6-2.3
		c-0.1,0.8-0.3,1.7-1,2.2c-0.3-1.6-1.2-2.8-2.2-4C28.9,18.2,30.7,17.6,32.3,16.8z M35,17.9c-1.2,0.3-1.9,1.5-1.8,2.7
		c-0.1,2.3,2.8,4.3,4.7,2.7c1.8-1.1,1.2-3.3,0.3-4.8C37.4,17.6,36.1,17.7,35,17.9z"/>
</g>
<path fill="#2B2728" d="M41.7,14.8c0.6-0.2,0.8,0,0.7,0.6C41.8,15.6,41.5,15.4,41.7,14.8z"/>
<path fill="#7B5053" d="M9.3,18c-0.1-1.3,0.8-2.6,1.9-3.2c-0.3,0.9-0.6,1.8-1,2.6l0.8-0.1c0,0.1-0.1,0.3-0.1,0.4
	C10.5,18.2,9.8,18.3,9.3,18z"/>
<path fill="#FEFDFD" d="M11.1,17.3c0.2-0.9,0.7-1.6,1.1-2.4c0.1,1.1,0.2,2.1,0.3,3.2c-0.4-0.1-1.2-0.3-1.6-0.4
	C11,17.7,11,17.5,11.1,17.3z"/>
<path fill="#FEFEFD" d="M18.9,16.2c1.4,0.8,3,0.7,4.6,0.6c1,0.4,1.7,1.3,2.4,2.1c-1.2,0-2.4,0-3.5,0.1c1.2,1,2.9,0.6,4.2,1
	c1,0.6,2,1.5,2,2.7c0.1,0.5,0,1.2,0.6,1.4c0.8,0.1,1.3-0.7,2-0.9c0.7,2-1.4,3.3-3,3.8c-0.9-1.2-2.1-2.4-2.2-4c-1.5,0.9-3.3,1.8-5,1
	c-1.2-0.9-2.3-2.4-2.1-3.9C19,18.8,19,17.5,18.9,16.2z"/>
<path fill="#711B19" d="M24.5,16.2c1.1-0.2,1.8,0.7,2.3,1.5C25.6,18.3,25.1,17,24.5,16.2z"/>
<path fill="#FEFDFD" d="M26.6,18c0.1-0.7,1.3-0.8,1.3,0C27.9,18.7,26.6,18.8,26.6,18z"/>
<g>
	<path fill="#150607" d="M35,17.9c1.1-0.2,2.4-0.3,3.2,0.6c0.9,1.4,1.4,3.7-0.3,4.8c-1.9,1.6-4.8-0.4-4.7-2.7
		C33.1,19.4,33.9,18.2,35,17.9z M34.6,19c-0.8,0.7-0.5,1.8-0.5,2.7c0.8-1.3,2-2.2,3.1-3.2C36.3,18.6,35.2,18.2,34.6,19z M35.2,22.3
		c0.5,1.1,2,0.5,2.6-0.1c0.8-0.7,0.2-1.8,0.1-2.6C36.7,20,35.2,20.9,35.2,22.3z"/>
</g>
<path fill="#FDFDFD" d="M5.1,19c1.3-0.9,2.9-0.9,4.3-0.2c0.1,0.6-0.2,1-0.8,1C7.4,19.4,6.2,19.1,5.1,19z"/>
<path fill="#FEFDFC" d="M34.6,19c0.6-0.8,1.7-0.4,2.6-0.5c-1.1,1-2.3,1.9-3.1,3.2C34.1,20.9,33.8,19.7,34.6,19z"/>
<g>
	<path fill="#E7010B" d="M8.9,21c0.7-0.9,1.7-1.5,2.8-1.8c-0.1,1.1-0.2,2.3,0.5,3.2c0.7,1.2,2,1.5,3,2.3c0.5,0.7,0.8,1.5,1.3,2.1
		c0.7,0.7,1.7,0.9,2.6,1.2c0.7,1.4,1.5,3.4,3.3,3.3c1.6,0.3,1.7-1.5,2.4-2.5c0.5-1,1.7-1,2.7-1c1.8,0,3.3-1.3,4.3-2.7
		c1.6,3.2,4.4,5.5,7.5,7.1c-3.7,3.7-9,5.8-14.3,5.3c-6.9-0.4-13.4-5-15.9-11.5C8.7,24.6,7.4,22.4,8.9,21z M26.2,29.8
		c-1.1,1.1-1.9,2.5-3.3,3.4c-0.3,0-0.9,0-1.1,0c0.1,0.4,0.1,0.8,0.2,1.1c1.6,0.5,3.2,0.4,4.8,0.8c1.9,0.6,4.3-0.9,4.1-3
		C31,29.8,28,28.2,26.2,29.8z"/>
</g>
<path fill="#FDFEFC" d="M15.4,23.7c-1.9-0.2-4-2.9-2.3-4.5c0.8,1.1,1.8,1.9,2.8,2.8C15.7,22.6,15.5,23.2,15.4,23.7z"/>
<path fill="#FEFDFD" d="M4.3,19.9c1.3,0,2.7,0.1,3.9,0.7c-0.2,0.2-0.5,0.5-0.6,0.6C6.4,20.9,5.4,20.3,4.3,19.9z"/>
<path fill="#FCFEFC" d="M35.2,22.3c0.1-1.5,1.5-2.3,2.7-2.7c0.1,0.8,0.7,2-0.1,2.6C37.1,22.8,35.6,23.4,35.2,22.3z"/>
<path fill="#FEFFFF" d="M18.9,27.2c-2.3-0.4-3.3-3.4-2-5.2c1.7-0.2,2.4,1.4,3.4,2.5C19.8,25.4,19.6,26.5,18.9,27.2z"/>
<path fill="#FDFEFC" d="M23.8,25c0.5-0.3,1.1-0.5,1.6-0.8c0.6,1,1.3,1.9,1.9,2.8C25.7,27.5,24.6,26.3,23.8,25z"/>
<path fill="#FEFEFE" d="M21,25.3c0.5-0.5,1.2-0.6,1.8-0.3c0.7,0.8,1.3,1.8,2,2.6c-0.9,0.9-1.4,2-1.7,3.2
	C20.4,30.9,19.1,27.1,21,25.3z"/>
<g>
	<path fill="#2E0804" d="M26.2,29.8c1.8-1.5,4.8,0,4.7,2.3c0.2,2.1-2.3,3.6-4.1,3c-1.6-0.4-3.2-0.3-4.8-0.8
		c-0.1-0.4-0.1-0.8-0.2-1.1c0.3,0,0.9,0,1.1,0C24.3,32.3,25.1,30.9,26.2,29.8z M26.2,30.7c0.9,0.2,2.3-0.3,2.8,0.8
		c0.7,1.4-1.2,2.7-2.5,2.1c-0.2,1.1,1.4,0.9,2,0.6c1.6-0.4,2.4-2.6,1-3.7C28.6,29.5,27.2,30,26.2,30.7z M25.9,31.1
		c-0.3,1.6,2.6,2.5,2.5,0.7C27.6,31.5,26.7,31.3,25.9,31.1z M23.5,33.7c1,0,2,0.1,2.9-0.3c-0.3-0.3-1-0.9-1.3-1.2
		C24.6,32.8,24,33.2,23.5,33.7z"/>
</g>
<path fill="#FBFEFE" d="M26.2,30.7c1-0.7,2.4-1.2,3.3-0.2c1.4,1.1,0.6,3.3-1,3.7c-0.7,0.2-2.2,0.4-2-0.6c1.3,0.6,3.2-0.7,2.5-2.1
	C28.5,30.4,27.1,30.9,26.2,30.7z"/>
<path fill="#FBFEFE" d="M25.9,31.1c0.8,0.2,1.7,0.4,2.5,0.7C28.4,33.6,25.5,32.7,25.9,31.1z"/>
<path fill="#EEEDEE" d="M23.5,33.7c0.5-0.5,1.1-1,1.7-1.5c0.3,0.3,1,0.9,1.3,1.2C25.5,33.8,24.4,33.8,23.5,33.7z"/>
<g>
	<path fill="#020101" d="M29.5,42.7c0.7,0.2,1.5,0.5,2.2,0.8c-0.1,0.3-0.2,1-0.2,1.3c0.6,0.2,1.2,0.4,1.8,0.6
		c-0.3-1.5,1.2-0.7,2-0.7c1-0.2,2-0.4,2.9-0.1c0.1,0.2,0.4,0.6,0.5,0.9c-0.6,1.2-0.5,2.7-1.2,3.8c-0.8-0.1-2.3-1.4-2.4,0.1
		c0.2,0.2,0.6,0.7,0.9,0.9c-0.3,0.7-0.5,1.4-0.8,2.1c0.6-0.3,1.2-0.6,1.9-0.8c0.7,0.2,1.1,0.8,1.6,1.3c-0.6,1.6-0.8,3.4-2,4.7
		c-1.2,0.8-2.1-0.8-2.8-1.5c0.8,0,1.4-0.3,1.9-0.8c-2.3-0.1-4.6,0.4-6.9,0.7c-0.8,0.1-1.2-0.7-1.7-1.2c1-0.2,2-0.3,3-0.4
		c-1.2-0.9-0.4-2,0.2-2.9c-0.2-0.2-0.6-0.6-0.9-0.8c0.4-0.3,0.7-0.6,1.1-0.9c-0.1-0.2-0.4-0.5-0.5-0.7c-1,1.4-2.3,2.9-4.2,2.7
		c1.2-1.2,2.4-2.6,3-4.2c-0.8-0.3-1.7-0.7-2-1.6c0.8-0.1,1.7-0.1,2.5-0.2C29.4,44.7,29.5,43.7,29.5,42.7z M33.2,48.3
		c-0.5,0.4-0.9,1.1-1.1,1.7c0.6-0.2,1.1-0.5,1.7-0.7c0-1.1,0-2.3-0.2-3.4C33.5,46.8,33.4,47.6,33.2,48.3z M35.2,46.2
		c0.2,0.6,0.4,1.1,0.9,1.5c0.1-0.5,0.1-1,0.2-1.4C36.1,46.2,35.5,46.2,35.2,46.2z M30.6,48.2c0.7-0.3,1-1.1,0.8-1.9
		C31,46.9,30.7,47.5,30.6,48.2z M31.8,52.4c0.8,0,1.6-0.2,2.2-0.9C33.1,51,31.7,51.2,31.8,52.4z M31.3,54.2c1.6,0,3.2-0.2,4.8,0.1
		c0-0.2-0.1-0.6-0.1-0.8C34.5,53.9,32.7,53.4,31.3,54.2z"/>
</g>
<path fill="#020101" d="M5.1,43.9C6,43,7,44.3,7.9,44.7C7.5,48.1,7.7,51.6,7.6,55c0,1.2-0.9,2.1-1.9,2.5c-0.8-1.1-1.7-2.2-2.4-3.3
	c0.7,0.1,1.3,0.3,2,0.5C5.2,51.1,5.6,47.5,5.1,43.9z"/>
<g>
	<path fill="#020101" d="M17.3,44.5c0.3-0.4,0.3-1.2,1-1.2c1.1-0.3,1.3,1.1,1.5,1.9c0.3-0.3,0.7-0.6,1-0.8c0.7,0.5,1.5,1,2.1,1.6
		c-0.6,0.6-1.2,1.1-1.8,1.7c0.9,0.2,2.1,0,2.5,1c0.2,2.1-0.4,4.1-1.1,6.1c1-0.1,2-0.1,3,0c0.3,0.6,0.5,1.3,0.6,2
		c-2.9,0.1-5.8-0.2-8.7,0.3c-1.5,0.2-3.9,0.7-4.2-1.5c2.8-0.6,5.7,0.1,8.4-0.8c-0.9-0.4-2.1-0.8-3-0.2c-0.7,0.3-1.6,0.8-2.2,0.1
		c-1-1.4-0.6-3.3-0.8-4.9c-0.5,0.1-1.4,0.2-1.9,0.3C15,48.2,16.4,46.5,17.3,44.5z M16.5,48.7c0.8-0.1,1.7-0.2,2.5-0.3
		c0.1-0.6,0.2-1.2,0.2-1.8C18.3,47.2,17.1,47.6,16.5,48.7z M21,49.5c-0.6,0.1-0.8,1.2-0.1,1.2C21.4,50.7,21.7,49.5,21,49.5z
		 M17.9,50c-0.7,0.4,0,1.4,0.7,1C19.3,50.6,18.5,49.6,17.9,50z M20.1,52.2c0.2,0.4,0.3,1.1,0.9,1c0.1-0.5,0.1-1,0.1-1.5
		C20.8,51.8,20.5,52,20.1,52.2z M17.8,52.4c-0.2,0.7,0,0.9,0.7,0.7C18.8,52.4,18.5,52.2,17.8,52.4z"/>
</g>
<path fill="#040201" d="M49.8,43.5c0.9-0.5,1.8,0.4,2.6,0.8c-0.2,4,0.1,7.9-0.1,11.9c-0.3,0.7-0.8,1.9-1.7,1.6c-0.9-1-1.7-2-2.6-3
	c0.8,0,1.5,0,2.3,0C50,51.1,50.6,47.2,49.8,43.5z"/>
<g>
	<path fill="#020101" d="M40.5,45.2c1.8-0.3,3.7-0.6,5.6-1c0.5,0.3,1,0.7,1.5,1c-0.6,0.8-1.7,0.8-2.6,1.1c-0.5,0.6-1,1.2-1.5,1.7
		c0.5,0,1,0,1.6,0c0-0.3-0.1-1-0.1-1.3c1-0.1,1.9,0.4,2.3,1.3c0.2,0.1,0.5,0.2,0.6,0.3c-0.1-0.5-0.3-1.6-0.4-2.1
		c0.7,0.1,1.8,0.1,2.1,1c0.2,1.8,0.1,3.7,0,5.5c-0.7,0.1-1.5-0.5-2,0.3c-1.9,1.5-4.2,2.3-6.3,3.4c-0.5-0.6-1.2-1.2-1.3-2
		c1.2-0.3,3.4,0,3.5-1.7c-1.2,0.3-2.4-0.3-2.6-1.6c0.7,0,1.4,0.1,2.2,0.2c0-0.3,0-1,0-1.4c-0.8,0.3-2.4,0.5-2.3-0.8
		c0.6-0.8,1.5-1.5,2.2-2.3C41.7,46.5,40.6,46.3,40.5,45.2z M47.2,48.6L47,49.3c-0.8,0-1.5,0-2.3,0c0.2,1.4,2.2,0.8,2.5,2.2
		c-0.8,0.2-1.6,0.4-2.4,0.6c0,0.2,0,0.7,0,0.9c0.9-0.3,1.9-0.6,2.8-0.9C47.5,51,47.9,49.7,47.2,48.6z"/>
</g>
<path fill="#030302" d="M0.1,51.6c0.9-1.3,2-2.5,2.9-3.7c0.8,0.8,0.5,1.9,0.4,2.9c-0.2,1.2-0.6,2.5-1.7,3.1
	C0.7,53.7,0.1,52.5,0.1,51.6z"/>
<path fill="#020101" d="M7.9,48c1.8,0.1,3.6,1.1,4.7,2.5c0.8,1,0.2,2.3-0.6,2.9c-1.1,0.2-1.6-0.9-1.9-1.7C9.4,50.4,8.9,49.1,7.9,48z
	"/>
<path fill="#020101" d="M30.4,58.6c0.4,0.4,0.6,0.9,0.8,1.3c0.2-0.2,0.6-0.5,0.8-0.6c0.8,1.2-1.1,1-1.7,1.5
	C30.3,60.1,30.3,59.4,30.4,58.6z"/>
<g>
	<path fill="#020101" d="M11.9,59.8c0.6-0.1,1.3-0.8,1.8,0c0.7-0.3,1.8-0.7,1.5,0.6c0.2,0,0.6,0.1,0.7,0.1c-0.1,0.3-0.2,1-0.2,1.3
		c-0.4-0.1-0.9-0.2-1.3-0.3c0.1,0.6,0.5,1,1.1,1.3c0.3-0.2,0.7-0.4,1-0.6c-0.2,0.2-0.6,0.6-0.8,0.9c-0.2-0.1-0.7-0.2-1-0.3
		c-0.1,0.6-0.2,1.1-0.3,1.7c-0.4-0.8-0.5-1.7-0.5-2.6c-0.2,0-0.5,0-0.6,0.1c0.1,0.3,0.2,0.8,0.3,1c-0.8,0.4-1.9,0.8-2.5-0.2
		c0.2-0.2,0.7-0.5,0.9-0.6c0.2,0.1,0.5,0.4,0.7,0.5c0-0.3-0.1-0.8-0.1-1.1c-0.2,0.2-0.7,0.5-0.9,0.6c0-0.2,0-0.6,0-0.8
		C10.6,60.9,11.5,60.3,11.9,59.8z M12.1,60.4 M13.8,60.6c-0.3,0.6-0.1,0.8,0.5,0.6C14.5,60.5,14.4,60.4,13.8,60.6z"/>
</g>
<g>
	<path fill="#020101" d="M23.3,60.7c-0.9-0.2-1-0.8-0.4-1.4c0.6,0.5,1.2,1,1.7,1.5c0.2-0.1,0.5-0.2,0.7-0.3c0,0.5-0.1,1.1-0.1,1.6
		c-0.2,0.2-0.7,0.5-1,0.7c-0.3,0-1-0.1-1.4-0.2c0.3,0.2,0.8,0.6,1.1,0.8c-1,0.1-2,0.3-3.1,0.3c-0.9-0.1-1.5-0.8-2.2-1.2
		c-0.7,0.7-1.6,1.3-2.6,1.4c0.7-0.9,2.4-1.2,2-2.6c-0.2,0.2-0.7,0.7-1,0.9c0-0.3,0-0.8,0-1.1c0.4-0.4,0.8-0.9,1.2-1.3
		c0,0.4-0.1,1.2-0.2,1.6c0.9-0.6-0.1-2.2,1.6-1.9c-0.2,0.6-0.3,1.3-0.5,1.9c0.7,0.1,1.4,0.2,2.1,0.3c-0.8,0.5-1.7,0.3-2.6,0.4
		c1,0.6,2.1,2,3.3,1.1c0.5-0.7-0.2-1.5-0.3-2.2c0.2,0,0.7,0,0.9,0c0,0.3,0.1,0.8,0.1,1C22.8,61.4,23,61,23.3,60.7z M23.4,61.6
		c0.1,0.2,0.3,0.5,0.4,0.6c0.6,0,0.9-0.3,0.9-0.8C24.4,61.3,23.8,61.4,23.4,61.6z"/>
</g>
<path fill="#1D1515" d="M34.7,59.6c0.1-0.9,1.4,0.1,0.8,0.6C35.3,60,34.9,59.7,34.7,59.6z"/>
<g>
	<path fill="#040203" d="M37.6,61.8c0.6-1.3,1.5-2.3,2.9-2.7c0.9,0.2,1,0.8,0.5,1.6c-0.5,0.3-1,0.6-1.4,0.9
		c-0.2,0.1-0.5,0.4-0.7,0.5l-0.2-0.6C38.4,61.5,37.9,61.7,37.6,61.8z M40.2,60.2"/>
</g>
<g>
	<path fill="#090503" d="M28,61.2c0.3-0.6,0.3-1.3,0.4-2c0.7,0.9,1.6,1.7,2.5,2.5c0-0.3,0.1-0.9,0.1-1.2c0.5,0.2,0.9,0.6,1.2,1.1
		c-0.2,0.1-0.6,0.4-0.8,0.6c0.3,0.1,1,0.3,1.3,0.3c-0.2,0.2-0.7,0.5-0.9,0.7c-0.6-0.4-1.1-0.8-1.6-1.2c-0.1,0.2-0.4,0.6-0.6,0.8
		c0.3,0.1,0.9,0.3,1.2,0.4c-0.5,0.1-0.9,0.3-1.4,0.4c0-0.2,0-0.7,0-1c-0.1,0.3-0.4,0.9-0.5,1.2c-0.4-0.3-0.9-0.7-1.3-1
		c0.4-0.5,0.7-1,1.1-1.6L28,61.2z M29.3,62.1c0.6-0.3,0.6-0.6,0-1C28.7,61.4,28.6,61.7,29.3,62.1z M28.2,62.7"/>
</g>
<path fill="#242B28" d="M37,59.7"/>
<path fill="#7D7B7D" d="M40.2,60.2"/>
<path fill="#FEFEFD" d="M12.1,60.4"/>
<path fill="#010101" d="M33,60.7c1-0.1,1.9-0.1,2.9-0.1c0.1,0,0.4,0,0.5,0c0.1,0.2,0.4,0.6,0.6,0.8c-0.4,1.3-1.2,2.6-2.7,2.6
	c0.2-0.2,0.5-0.6,0.7-0.8c0.1-0.1,0.2-0.4,0.3-0.6c0.2-0.1,0.6-0.4,0.8-0.5c0.1-0.2,0.2-0.6,0.3-0.8c-0.1-0.1-0.4-0.2-0.6-0.3
	C34.9,60.9,33.9,60.8,33,60.7z"/>
<path fill="#545454" d="M41,60.6c0.5-0.1,0.9,0.1,1.2,0.4c-0.2,0.2-0.7,0.5-0.9,0.6c0.8,0,1.2,0.3,1.2,0.9c-0.4,0-1.2,0.1-1.6,0.1
	c0,0.3-0.1,0.8-0.1,1.1c-0.5-0.3-1-0.5-1.5-0.8c0-0.2,0.1-0.6,0.1-0.8l0.1-0.6C40,61.2,40.5,60.9,41,60.6z"/>
<path fill="#020101" d="M0,60.8c1.6-0.2,3,1.1,4.6,0.3c1.5-0.8,3.1,0.1,4.6,0.5c-1,1.2-2.5-0.7-3.7,0C3.6,62.4,1.4,62.1,0,60.8z"/>
<path fill="#020101" d="M43.7,61.6c1.2-0.3,2.3-0.7,3.5-0.8c1,0,1.9,0.7,3,0.6c1-0.2,1.9-0.6,2.9-0.7c-0.3,1-1.5,0.9-2.3,1.2
	c-1.2,0.4-2.4-0.2-3.6-0.4C46,61.6,44.7,62.5,43.7,61.6z"/>
<path fill="#0A0503" d="M33.8,61.7l0.2,0.1c0,0.3,0,0.8,0,1C33.3,63.5,33.1,61.9,33.8,61.7z"/>
<path fill="#524444" d="M35.3,62.6"/>
<path fill="#020101" d="M37.7,61.8c0.6,0.1,1.2,0.2,1.8,0.3c0,0.2-0.1,0.6-0.1,0.8l0,0.3c-0.4,0.2-0.8,0.3-1.2,0.5
	c0.3-0.4,0.5-0.8,0.8-1.3c-0.3,0.1-1,0.2-1.4,0.2L37.7,61.8z"/>
<path fill="#DDDAD9" d="M28.2,62.7"/>
<path fill="#090503" d="M23.8,63.1c0.7-0.3,1.7-0.3,2.3,0.3C25.6,63.8,24.2,63.5,23.8,63.1z"/>
</svg>
