<?xml version="1.0" encoding="utf-8"?>
<!-- Generator: Adobe Illustrator 18.1.1, SVG Export Plug-In . SVG Version: 6.00 Build 0)  -->
<svg version="1.1" id="图层_1" xmlns="http://www.w3.org/2000/svg" xmlns:xlink="http://www.w3.org/1999/xlink" x="0px" y="0px"
	 viewBox="0 0 91.8 33.7" enable-background="new 0 0 91.8 33.7" xml:space="preserve">
<path fill="#8E131D" d="M3.3,5.5c4.4-5.6,12.9-7.2,19-3.8c4.6,2.3,7.6,7.2,7.8,12.3c-1.5,0-3,0-4.5,0c-0.4-2.6-1.4-5.1-3.4-6.8
	c-3.6-3.5-9.7-3.7-13.6-0.6c-4,2.9-5.2,8.7-3,13c2,3.9,6.4,6.4,10.8,5.8c4.8-0.5,8.8-4.7,9.2-9.4c1.5,0,3,0,4.5,0
	c-0.4,4.6-2.7,9-6.6,11.5c-6,4.2-15,3-19.8-2.5C-1.1,19.8-1.3,11,3.3,5.5z"/>
<g>
	<path fill="#8B131C" d="M12.4,5.9c4.4-1.4,9.6,1,11.5,5.2c1.6,3.5,0.8,7.9-1.9,10.6c-2.3,2.5-6.1,3.4-9.4,2.5C8.3,23,5,18.5,5.6,14
		C5.9,10.2,8.8,6.9,12.4,5.9z M15,9.2c-2.2,0.7-2.6,4-0.7,5.3c1.5,1.3,3.8,0.2,5.2,1.7c1.1,1.2,0.6,3.3-1,3.8
		c-1.3,0.4-2.8,0.2-4.1,0.2c0,0.1,0,0.4,0,0.6c1.8,0,3.9,0.4,5.5-0.7c1.6-1,1.6-3.7,0-4.8c-0.7-0.5-1.6-0.6-2.5-0.8
		c0-1.2,0-2.4,0.1-3.6c-0.2,0-0.7,0-1,0c0,1.3-0.1,2.5,0,3.8c-0.7-0.3-1.5-0.5-2-1.1c-1-1.2-0.4-3.3,1.1-3.7
		c1.4-0.4,2.9-0.1,4.4-0.1C18.7,8.5,16.6,8.7,15,9.2z M9.4,9c-0.2,3.2-0.1,6.5,0,9.7c0.2,0.1,0.6,0.2,0.8,0.3c0-2.1,0-4.3,0-6.4
		c1,1.3,1.9,2.7,3.1,3.8c1.2,1.1,2.4,2.5,4.2,2.7c0.1-1,0.1-2.1,0.1-3.1c-0.2,0-0.7,0-1-0.1c0,0.6,0,1.2,0,1.9
		C13.3,15.7,10.8,12.5,9.4,9z"/>
</g>
<path fill="#010000" d="M38,8c1.1,0.1,2.7-0.5,3.2,0.8c1.6,2.8,3.4,5.4,5.1,8.1c0.3,0.3,0.4,0.9,0.9,0.8c0-3.2,0-6.5,0-9.7
	c0.7,0,1.5,0,2.2,0c0,4.7,0,9.5,0,14.2c-0.8,0-1.6,0-2.4,0c-2.3-3.5-4.2-7.2-6.6-10.6c-0.1,3.5,0,7.1-0.1,10.6c-0.8,0-1.5,0-2.3,0
	C38,17.5,38,12.7,38,8z"/>
<g>
	<path fill="#010101" d="M57.2,8.1c0.8,0,1.7,0,2.5,0c1.7,4.8,3.7,9.4,5.5,14.2c-0.9,0-1.8,0-2.7-0.1c-0.6-1.9-1.2-3.8-2-5.6
		c-1.9,0.6-3.7,1.4-5.1,2.7c-0.3,1-0.7,1.9-1,2.9c-0.9,0-1.7,0-2.6,0.1C53.5,17.6,55.4,12.9,57.2,8.1z M58.4,10.6
		c-0.8,1.8-1.4,3.7-2,5.6c1.1-0.4,2.3-0.8,3.5-1.1C59.5,13.6,59,12.1,58.4,10.6z"/>
</g>
<g>
	<path fill="#020101" d="M67.5,8.2c2.3,0.1,4.5-0.1,6.8,0.1c1.6,0.1,3.3,1.1,3.9,2.7c0.5,1.7,0.3,3.8-1.2,4.9c-2,1.6-4.7,0.8-7,1
		c0,1.8,0,3.6,0,5.4c-0.8,0-1.6,0-2.4,0C67.4,17.6,67.5,12.9,67.5,8.2z M69.9,10.3c0,1.5,0,3,0,4.6c1.5,0,3,0.1,4.5-0.1
		c2-0.5,2-3.7,0.2-4.4C73,10,71.4,10.2,69.9,10.3z"/>
</g>
<g>
	<path fill="#010101" d="M83.8,8.2c0.8,0,1.7,0,2.5,0c1.8,4.7,3.5,9.4,5.4,14.1c-0.9,0-1.8,0-2.7,0c-0.6-1.9-1.3-3.7-1.9-5.6
		c-1.9,0.6-3.6,1.6-5.2,2.7c-0.3,1-0.7,2-1.1,3c-0.8,0-1.7,0-2.5,0C80.1,17.6,82,12.9,83.8,8.2z M85,10.5c-0.6,1.9-1.3,3.7-1.9,5.6
		c1.1-0.4,2.3-0.8,3.4-1.1C86.1,13.5,85.6,12,85,10.5z"/>
</g>
<path fill="#FFFCFC" d="M15,9.2c1.6-0.4,3.6-0.7,5,0.4c-1.5,0-3-0.3-4.4,0.1c-1.5,0.5-2.1,2.5-1.1,3.7c0.5,0.6,1.3,0.8,2,1.1
	c0-1.3,0-2.5,0-3.8c0.2,0,0.7,0,1,0c0,1.2,0,2.4-0.1,3.6c0.8,0.2,1.8,0.2,2.5,0.8c1.6,1.1,1.6,3.8,0,4.8c-1.6,1.1-3.7,0.7-5.5,0.7
	c0-0.1,0-0.4,0-0.6c1.4,0,2.8,0.2,4.1-0.2c1.5-0.5,2.1-2.7,1-3.8c-1.4-1.5-3.7-0.4-5.2-1.7C12.4,13.2,12.8,9.8,15,9.2z"/>
<path fill="#FFFDFE" d="M9.4,9c1.5,3.5,3.9,6.7,7.2,8.7c0-0.6,0-1.3,0-1.9c0.2,0,0.7,0,1,0.1c0,1,0,2.1-0.1,3.1
	c-1.8-0.1-3-1.5-4.2-2.7c-1.2-1.1-2.1-2.5-3.1-3.8c0,2.1,0,4.2,0,6.4c-0.2-0.1-0.6-0.2-0.8-0.3C9.3,15.5,9.2,12.2,9.4,9z"/>
<path fill="#040304" d="M48.5,25.5c0.7-1.5,2.5-2,4-2.5c0.7-0.2,2.1-0.3,2,0.8c0,0.8-0.9,1.2-1.4,1.5c0.2-0.6,0.4-1.3,0.7-1.9
	c-1.8,0.3-3.6,0.9-4.7,2.4c1.1,0.9,2.4,1.6,3.4,2.7c0,0.5,0,1,0,1.5c-0.9,0.3-2.3,1.3-2.9,0.1c-0.2-0.7,0.6-1,1.1-1.4
	c0,0.3-0.1,0.9-0.1,1.2c0.4-0.1,1.1-0.2,1.5-0.3C52.2,27.5,48.6,27.6,48.5,25.5z"/>
<path fill="#010101" d="M69.6,24c1.4-0.7,0.4,2-0.3,0.6C69.4,24.5,69.5,24.1,69.6,24z"/>
<path fill="#090503" d="M53.7,28.1c0.7-0.7,1.2-1.7,2.1-2c0.6,1-0.2,2.4,0.2,3.5c-0.9-0.3-0.8-1.2-0.8-2c-0.6,0.4-1.3,0.9-1.9,1.3
	c-0.2-0.7-0.4-1.4-0.4-2.1c0.2-0.1,0.7-0.4,0.9-0.5C53.7,26.7,53.7,27.6,53.7,28.1z"/>
<g>
	<path fill="#0B0C0C" d="M59.6,28.1c1.1-0.8,2.2-2.4,3.7-1.6c-0.3,0.4-0.8,1.1-1,1.5c1.5-0.6,2.9-1.5,4.5-1.6c1-0.1,2,0.6,2.9-0.2
		c-0.2,0.9-0.3,1.8-0.5,2.8c-1-0.1-0.6-1.3-0.7-2c-0.4,0-1.2-0.1-1.6-0.1c-0.5,0.8-0.9,1.6-1.3,2.4c-1.1,0.3-0.4-1.3-0.5-1.9
		c-1,0.4-1.9,1-2.8,1.5c-0.5-0.3-1.1-0.6-1.6-0.9c-1,0.5-1.9,1.2-2.8,2l-0.4-0.4c-0.2,0-0.5,0-0.6,0c-0.6-1.1,0-2.3,0.2-3.5
		c0.4,0.3,0.6,0.8,0.7,1.4c0.5-0.3,1.4-1.7,1.9-0.7C59.6,27.2,59.6,27.8,59.6,28.1z M57.6,28.9c0.6,0.3,1.5-0.6,1.2-1.3
		C58.2,27.5,57.5,28.4,57.6,28.9z"/>
</g>
<g>
	<path fill="#010101" d="M72.7,27c1.4-1.4,3.5-0.2,5.2-1c1.2,0.7-0.4,1.2-0.9,1.4c1.4,0.2,2.7-0.2,3.9-0.9c0,0.1-0.1,0.4-0.1,0.5
		c-1.2,1-2.6,1.5-4,1.6c-0.2-0.6-0.4-1.2-0.7-1.8c-0.6,0-1.2,0.1-1.8,0.2c-0.4,0.9-0.9,1.9-1.4,2.8c-0.3-0.7-0.3-1.4-0.2-2
		c-0.5,0.7-1.2,1.1-2,1.2c-0.3-1.2-0.1-2.7,1.4-2.8C72.3,26.4,72.6,26.8,72.7,27z M71.3,27.2c-0.3,0.6-0.1,0.8,0.5,0.5
		C72.1,27.1,71.9,26.9,71.3,27.2z"/>
</g>
<path fill="#010101" d="M55.8,33.7c0.2-1-0.1-2.6,0.9-3.2C57.2,31.1,56.9,33.1,55.8,33.7z"/>
</svg>
