<?xml version="1.0" encoding="utf-8"?>
<!-- Generator: Adobe Illustrator 18.1.1, SVG Export Plug-In . SVG Version: 6.00 Build 0)  -->
<svg version="1.1" id="图层_1" xmlns="http://www.w3.org/2000/svg" xmlns:xlink="http://www.w3.org/1999/xlink" x="0px" y="0px"
	 viewBox="0 0 85.5 25.1" enable-background="new 0 0 85.5 25.1" xml:space="preserve">
<path fill="#1171F5" d="M3,0.7c2.9-1.8,7.1,0.1,7.8,3.4C10.2,4.2,9.6,4.3,9,4.4C8.3,3.2,7.2,2,5.7,2.1c-2.1-0.1-4,2-3.6,4.1
	c0.1,2,2.1,3.6,4.1,3.3c1.4-0.1,2.3-1.2,3-2.3c0.6,0.1,1.1,0.2,1.7,0.3c-0.7,3.9-6.2,5.3-9,2.6C-1.1,7.6-0.4,2.4,3,0.7z"/>
<path fill="#126FF5" d="M15.8,0c0.7,0,1.3,0.1,2,0.1c-0.7,2-1.7,3.9-2,6c1.2,0,2.3,0,3.5,0c0.2,0.6,0.4,1.1,0.6,1.7
	c-2.3,0.5-4.7,0.2-7,0.2C13.8,5.3,14.8,2.7,15.8,0z"/>
<path fill="#1471F2" d="M18.5,0.1c0.7,0,1.5-0.2,2.2,0.1c1.2,2.5,1.9,5.3,3,7.8c-0.7,0-1.4,0.1-2.1,0.1C20.7,5.4,19.6,2.7,18.5,0.1z
	"/>
<path fill="#1371F1" d="M26.1,0.1c0.7,0,1.3,0,2,0c0.1,3.8,0,7.6,0.1,11.4c-0.7-0.1-1.4-0.1-2-0.2C26.2,7.5,26.1,3.8,26.1,0.1z"/>
<path fill="#106DF2" d="M52.5,5.9c0.6,0,1.3,0,1.9,0c0,0.3,0.1,0.8,0.1,1.1c2.8,0,5.5,0,8.3,0c0-0.3,0.1-0.9,0.2-1.2
	c0.6,0,1.2,0,1.7,0c0,0.3,0.1,0.8,0.1,1.1c0.6,0,1.3,0,1.9,0.2C66.9,7.7,67,8.3,67,8.9c-0.7,0-1.4,0-2.1,0c0,0.3,0,0.8-0.1,1.1
	C64,9.9,62.5,10.4,62.8,9c-2.7,0-5.5,0-8.2,0c0.3,1.4-1.1,1-2,1.1c-0.1-0.3-0.2-0.9-0.2-1.2c-0.6,0-1.1,0-1.7,0.1
	c0-0.6-0.3-1.4,0.1-2C51.3,7,51.8,7,52.4,7C52.4,6.7,52.5,6.2,52.5,5.9z"/>
<path fill="#0D6EF4" d="M76,7c0.1-0.4,0.3-0.8,0.5-1.2c0.5,0,1.1,0,1.6,0c0.1,0.3,0.2,0.9,0.2,1.2c1.7,0,3.4-0.1,5,0
	c0.5,2,0.1,4.2,0.2,6.3c-0.7,0-1.3,0-2,0c0-1.5,0-3,0-4.4c-2.9,0.1-5.8,0.1-8.7,0c0,2,0,4.1,0,6.1c4.2,0.1,8.4-0.2,12.5,0.2
	c0.2,3.2,0.2,6.4,0,9.6c-0.6,0-1.3,0-1.9,0c0-2.6,0.1-5.2-0.1-7.8c-4.1,0-8.3,0-12.4,0c0-3.3-0.1-6.7,0-10C72.6,7,74.3,7,76,7z"/>
<path fill="#106EF3" d="M17.2,9.8c0.7,0,1.3,0,2,0c0.2,3.8,0,7.6,0.1,11.4c-0.7,0-1.3,0.1-2,0.1C17.1,17.5,17.2,13.6,17.2,9.8z"/>
<g>
	<path fill="#5894DD" d="M76.2,9.8c0.7,0,1.3,0,2,0c0.1,1.2,0.1,2.5,0.1,3.7c-0.7,0-1.5,0-2.2,0C76.1,12.3,76.1,11.1,76.2,9.8z
		 M76.7,10.2c0,1-0.8,3,0.8,3.1c0.9-0.8,0.5-2.1,0.4-3.1C77.6,10.2,77,10.2,76.7,10.2z"/>
</g>
<path fill="#1370F9" d="M76.7,10.2c0.3,0,0.9,0,1.2,0c0.1,1,0.5,2.3-0.4,3.1C75.9,13.2,76.7,11.2,76.7,10.2z"/>
<path fill="#116EF2" d="M51.1,10.8c5,0,10.1,0,15.1,0c0,0.6,0,1.2,0,1.8c-5,0.2-10.1,0-15.1,0.1C51.1,12,51.1,11.4,51.1,10.8z"/>
<path fill="#0D6EF4" d="M0.1,13.4c0.6,0,1.3-0.1,1.9-0.1C4.4,16,6.5,19,9,21.6c0.2-2.7-0.2-5.5,0.1-8.2c0.6,0,1.3,0,1.9,0
	c0,3.9,0.1,7.8-0.1,11.7c-0.6,0-1.3-0.1-1.9-0.2c-2.5-2.7-4.6-5.7-7-8.4c0,2.8,0,5.7,0,8.5c-0.7,0-1.3,0-2,0C0,21.1,0,17.2,0.1,13.4
	z"/>
<path fill="#106EF4" d="M26.1,13.5c0.8,0,1.6-0.4,2.4,0c1.5,3.8,3.1,7.5,4.2,11.4c-0.5,0-1.4,0.1-1.8,0.1c-1.4-2.8-2.2-5.9-3.4-8.8
	c-1.3,2-1.9,4.5-2.7,6.8c1.1,0,2.3-0.1,3.4,0c0.7,0.4,0.6,1.3,0.8,1.9c-2.4,0.1-4.7,0-7.1,0C23.1,21.1,24.7,17.4,26.1,13.5z"/>
<g>
	<path fill="#1270F1" d="M37.9,13.7c2.9-1.2,6.4,0.6,7.3,3.5c1,2.9-0.6,6.7-3.7,7.5c-3.2,1.1-7.1-1.5-7.1-5
		C34.1,17.3,35.5,14.6,37.9,13.7z M38.3,15.7c-2.7,1.4-2.6,6,0.3,7c2.3,1,4.9-1,4.8-3.4C43.8,16.7,40.7,14.4,38.3,15.7z"/>
</g>
<g>
	<path fill="#4D84D6" d="M52.4,13.4c0.7,0,1.4,0,2.1,0.1c0,1,0,1.9,0,2.9c-0.7,0-1.4,0.1-2.1,0.1C52.4,15.4,52.4,14.4,52.4,13.4z
		 M54.3,16c-0.1-0.8,0.4-2.3-0.9-2.3C52.2,14.4,52.7,16.5,54.3,16z"/>
</g>
<path fill="#4684DA" d="M57.5,13.5c0.7,0,1.5-0.1,2.2-0.1c0,0.9,0,1.7-0.1,2.6l-0.3,0c-0.2-0.8,0.3-2.3-1-2.3
	c-0.5,0.6-0.3,1.5-0.4,2.2h-0.4C57.6,15.1,57.6,14.3,57.5,13.5z"/>
<path fill="#0D76F2" d="M63,13.4c0.7,0,1.3,0,2-0.1c0,1,0,2,0,2.9c-0.7,0-1.4,0-2,0C62.9,15.3,63,14.4,63,13.4z"/>
<path fill="#0D71F6" d="M54.3,16c-1.5,0.5-2.1-1.5-0.9-2.3C54.7,13.6,54.1,15.1,54.3,16z"/>
<path fill="#1270FA" d="M58,16c0.1-0.7-0.1-1.6,0.4-2.2c1.3,0,0.8,1.4,1,2.3C59,16,58.4,16,58,16z"/>
<path fill="#97D2FE" d="M57.6,16H58c0.3,0,1,0,1.4,0l0.3,0c0,0.5,0.1,1,0.1,1.6c-0.2-0.2-0.7-0.5-0.9-0.7c-0.4,0.2-0.9,0.4-1.3,0.6
	C57.6,17,57.6,16.5,57.6,16z"/>
<path fill="#0D6EF1" d="M57.5,17.5c0.4-0.2,0.9-0.4,1.3-0.6c0.2,0.2,0.7,0.5,0.9,0.7c2.2,0.4,4.5,0,6.8,0.2c0,0.6,0.1,1.3,0.1,1.9
	c-0.7,0-1.4,0.1-2.1,0.1c0.6,1.7,1.4,3.5,1.8,5.2c-0.7,0-1.4,0-2,0c-0.7-1.8-1.2-3.6-1.9-5.4c-0.9,0-1.8,0.1-2.7,0.1
	c0,1.7,0,3.5,0,5.2c-0.7,0-1.3,0-2,0c0-1.7,0.1-3.5,0-5.2c-0.9-0.1-1.8-0.1-2.7,0.1c-0.5,1.8-1.1,3.5-1.8,5.2c-0.6,0-1.2,0-1.8,0
	c0.4-1.8,1.1-3.4,1.7-5.1c-0.7-0.1-1.3-0.3-2-0.4c0-0.6,0.1-1.2,0.1-1.7C53.2,17.6,55.4,18,57.5,17.5z"/>
<path fill="#1170F3" d="M69.8,20.9c3.9-0.1,7.8,0,11.7,0c0,0.7,0,1.3,0.1,2c-3.9,0-7.9,0.1-11.8,0C69.8,22.2,69.8,21.6,69.8,20.9z"
	/>
<path fill="#1E73F6" d="M16.7,23.1c0.9,0,1.9,0,2.8,0c0,0.7,0,1.3,0,2c-0.9,0-1.8,0-2.7,0C16.8,24.4,16.8,23.8,16.7,23.1z"/>
</svg>
