<?xml version="1.0" encoding="utf-8"?>
<!-- Generator: Adobe Illustrator 18.1.1, SVG Export Plug-In . SVG Version: 6.00 Build 0)  -->
<svg version="1.1" id="图层_1" xmlns="http://www.w3.org/2000/svg" xmlns:xlink="http://www.w3.org/1999/xlink" x="0px" y="0px"
	 viewBox="0 0 58.6 35.1" enable-background="new 0 0 58.6 35.1" xml:space="preserve">
<path fill="#E60030" d="M7.9,1.8c1.3-1.4,3.3-2,5.2-1.7c4.3,0.6,8.1,2.8,12,4.6c1.7,0.8,3.4,1.4,5.1,2.2c-4.7,2.5-10,1.2-15,0.6
	c-3.2-0.5-6.4,0-9.6,0.3C5.9,5.6,6.4,3.4,7.9,1.8z"/>
<path fill="#55C48C" d="M36,5.7C40.9,4.4,46,3.3,51.2,3.9c1.9,0.2,3.9,1,5.1,2.6c1.2,1.7,1,3.9,0.4,5.8c-2.4-1.5-5.2-2.4-8-2.9
	C43,8.2,37,9.1,31.5,7.1C32.8,6.3,34.5,6.1,36,5.7z"/>
<g>
	<path fill="#7E0101" d="M15.3,7.4c4.9,0.6,10.3,2,15-0.6c0.4,0,0.8,0.1,1.2,0.2C37,9.1,43,8.2,48.7,9.3c2.8,0.6,5.5,1.4,8,2.9
		l0.3,0.2l-0.2,0.3c-1.5,2.6-2.7,5.3-4.4,7.8c-1.7,2.8-4.2,4.9-6,7.5c-0.3,0.3-0.7,0.5-1.1,0.7c-5.2,2.2-10.5,4.1-15.9,5.5
		c-1.3,0.2-2.6,0.4-4,0.6c0.4-0.2,0.9-0.5,1.3-0.7c-4.1-0.7-8.1-1.7-12.1-3c-1.6-0.6-3.2-1.4-5-1.5l-0.2,0c-0.3-0.4-0.7-0.8-1-1.2
		c-1.4-2.9-2.5-5.9-3-9C5.2,15.7,5.2,12,5.6,8.3c0-0.1,0-0.4,0-0.5C8.9,7.4,12.1,6.9,15.3,7.4z M13.2,10.9
		c-1.8,4.8-3.2,9.7-4.9,14.5c1.1,0.1,2.2,0.1,3.3,0c0.4-1.2,0.8-2.3,1.2-3.5c1.4,0,2.8,0,4.1,0c0.4,1.2,0.7,2.4,1.3,3.5
		c1.1,0.1,2.2,0,3.2,0c-1.5-4.3-2.9-8.7-4.3-13.1c-0.2-0.5-0.3-1-0.7-1.4C15.4,10.8,14.3,10.9,13.2,10.9z M27.7,10.9
		c-1,3.2-1.7,6.5-2.8,9.6c-0.6-3.2-0.9-6.4-1.6-9.5c-1.1-0.1-2.1-0.1-3.2-0.1c0.6,4.2,1.6,8.3,2.3,12.5c0.2,0.8,0.2,2.1,1.3,2.1
		c0.9,0.1,2.5,0.4,2.7-0.8c0.9-3,1.8-6,2.6-9c1.2,3.2,1.5,6.6,2.9,9.7c1.2,0.3,3.4,0.7,3.5-1.1c0.6-2.6,1-5.2,1.5-7.8
		c0.3,0.6,0.7,1.1,0.7,1.8c0.1,2.1-0.1,4.2,0,6.3c-0.1,0.5,0.1,0.8,0.6,0.9c2.8-0.2,5.7-0.1,8.5-0.1c0-0.9,0-1.8,0-2.6
		c-1.8,0-3.5,0-5.2,0c0-1.2,0-2.3,0-3.5c1.6,0,3.2,0,4.8,0c0-0.8,0-1.7,0-2.5c-1.6,0-3.2,0-4.8,0c0-1.1,0-2.1-0.1-3.2
		c1.7,0,3.5,0,5.2,0c0-0.9,0-1.8,0-2.6c-2.8-0.1-5.6,0.1-8.4-0.1c-0.1,0.1-0.3,0.2-0.4,0.3c-1-0.2-2-0.2-3-0.2
		c-0.8,3.3-1.1,6.7-1.8,10c-0.7-3.4-1.5-6.8-2.7-10C29.5,10.9,28.6,10.9,27.7,10.9z"/>
</g>
<path fill="#738564" d="M4.9,8.3c0.2,0,0.5,0,0.7-0.1C5.2,12,5.2,15.7,5.5,19.4C4.2,15.8,5.3,12,4.9,8.3z"/>
<path fill="#55C38D" d="M0,15.8c0-3.2,2-6.2,4.9-7.5c0.4,3.7-0.7,7.5,0.6,11c0.5,3.1,1.7,6.1,3,9C3.9,26-0.2,21.3,0,15.8z"/>
<g>
	<path fill="#FEFEFE" d="M13.2,10.9c1.1,0,2.2-0.1,3.2,0.1c0.3,0.4,0.5,0.9,0.7,1.4c1.5,4.4,2.8,8.7,4.3,13.1c-1.1,0-2.2,0.1-3.2,0
		c-0.5-1.1-0.8-2.4-1.3-3.5c-1.4,0-2.8,0-4.1,0c-0.4,1.2-0.8,2.3-1.2,3.5c-1.1,0.1-2.2,0.1-3.3,0C10,20.6,11.4,15.7,13.2,10.9z
		 M13.5,19.2c0.9,0,1.9,0,2.8,0c-0.4-1.5-0.8-3-1.3-4.4C14.2,16.2,13.9,17.8,13.5,19.2z"/>
</g>
<path fill="#FEFEFE" d="M27.7,10.9c0.9,0,1.8,0,2.7,0c1.2,3.3,2,6.6,2.7,10c0.7-3.3,1-6.7,1.8-10c1,0,2,0,3,0.2
	c-0.3,1.8-0.6,3.6-0.9,5.4c-0.5,2.6-0.9,5.2-1.5,7.8c-0.1,1.7-2.3,1.4-3.5,1.1c-1.4-3.1-1.7-6.5-2.9-9.7c-0.8,3-1.7,6-2.6,9
	c-0.2,1.2-1.8,0.9-2.7,0.8c-1.1,0-1.1-1.3-1.3-2.1c-0.7-4.2-1.7-8.3-2.3-12.5c1.1,0,2.1,0,3.2,0.1c0.7,3.1,1,6.3,1.6,9.5
	C26,17.4,26.7,14.1,27.7,10.9z"/>
<path fill="#620204" d="M37.9,11.1c0.1-0.1,0.3-0.2,0.4-0.3c0,4.9,0,9.9,0,14.8c-0.4-0.1-0.6-0.5-0.6-0.9c-0.1-2.1,0.1-4.2,0-6.3
	c0-0.7-0.4-1.3-0.7-1.8C37.3,14.7,37.6,12.9,37.9,11.1z"/>
<path fill="#FEFEFE" d="M38.3,10.8c2.8,0.2,5.6,0.1,8.4,0.1c0,0.9,0,1.8,0,2.6c-1.7,0-3.5,0-5.2,0c0,1.1,0,2.1,0.1,3.2
	c1.6,0,3.2,0,4.8,0c0,0.8,0,1.7,0,2.5c-1.6,0-3.2,0-4.8,0c0,1.2,0,2.3,0,3.5c1.7,0,3.5,0,5.2,0c0,0.9,0,1.8,0,2.6
	c-2.8,0-5.7-0.1-8.5,0.1C38.3,20.7,38.3,15.7,38.3,10.8z"/>
<path fill="#E0012B" d="M56.9,12.7c1.5,0.9,2.1,2.8,1.6,4.5c-0.8,2.4-2.5,4.2-4.4,5.8c-2.4,1.9-4.9,3.7-7.7,5c1.9-2.6,4.3-4.8,6-7.5
	C54.2,18,55.3,15.3,56.9,12.7z"/>
<path fill="#7E0203" d="M13.5,19.2c0.5-1.5,0.8-3,1.5-4.4c0.5,1.5,0.9,2.9,1.3,4.4C15.3,19.3,14.4,19.3,13.5,19.2z"/>
<path fill="#5DC593" d="M29.4,34.2c5.5-1.4,10.8-3.3,15.9-5.5c-3.6,3.6-8.7,5.4-13.6,5.8C30.9,34.6,30.1,34.4,29.4,34.2z"/>
<path fill="#E20131" d="M9.7,29.6c1.8,0.1,3.3,0.9,5,1.5c4,1.2,8,2.2,12.1,3c-0.4,0.2-0.9,0.5-1.3,0.7c-4.2,0.8-8.8,0.3-12.4-1.9
	C11.7,32,10.3,31,9.7,29.6z"/>
</svg>
