<?xml version="1.0" encoding="utf-8"?>
<!-- Generator: Adobe Illustrator 18.1.1, SVG Export Plug-In . SVG Version: 6.00 Build 0)  -->
<svg version="1.1" id="图层_1" xmlns="http://www.w3.org/2000/svg" xmlns:xlink="http://www.w3.org/1999/xlink" x="0px" y="0px"
	 viewBox="0 0 119.5 17" enable-background="new 0 0 119.5 17" xml:space="preserve">
<path fill="#87C218" d="M0.1,0C2.3,0,4.6,0,6.8,0.1c0,1.2,0,2.4,0,3.6C4.6,3.9,2.4,3.9,0.2,3.8C-0.2,2.6,0.1,1.3,0.1,0z"/>
<g>
	<path fill="#000A28" d="M7.5,4.9C8.4,4,8,2.6,8.1,1.5c2.3,0,4.6,0,7,0c2.2,0,4.5,0.8,5.9,2.6c2.4,2.9,2.4,7.6-0.2,10.4
		c-1.5,1.7-3.9,2.5-6.1,2.5c-3.4,0-6.8,0-10.3,0c0-4,0-8.1,0-12.1C5.4,4.7,6.5,4.9,7.5,4.9z M7.9,6.2c0.1,2.4,0,4.9,0.1,7.3
		c2.5,0,5,0,7.5,0c1.7-0.1,3.2-1.2,3.8-2.7c1-2.3-0.4-5.3-2.8-5.8c-2.7-0.6-5.5,0-8.2-0.3C8,5.1,7.8,5.7,7.9,6.2z"/>
</g>
<path fill="#010A2A" d="M21.8,1.5c1.4,0,2.9-0.1,4.3,0c0.5,0.1,0.7,0.7,1.1,1c1.5,1.8,3,3.8,4.7,5.5c1.5-2.2,3.1-4.3,4.7-6.5
	c1.4,0,2.8,0,4.2,0C37.1,6.9,33.2,12.1,29.1,17c-1.6,0-3.2,0-4.7-0.1c1.7-2,3.5-4,5.1-6.1C27.1,7.6,24.2,4.7,21.8,1.5z"/>
<path fill="#010A2A" d="M41.7,1.5c1.2-0.1,2.5,0,3.7-0.1c4,2.7,7,6.5,10.2,10c0.1-3.3,0-6.6,0-9.9c1.2-0.1,2.4-0.1,3.6-0.1
	c0,5.1,0,10.3,0,15.4c-1.4,0.1-2.7,0.1-4.1,0c-2.3-2.7-4.2-5.8-6.8-8.2c-1-0.9-1.9-2.1-3.2-2.7c0,3.6,0,7.2,0,10.9
	c-1.2,0-2.3,0-3.5,0C41.7,11.8,41.7,6.7,41.7,1.5z"/>
<path fill="#000929" d="M61.4,1.5c5.1,0,10.2,0,15.3,0c0,1,0,2,0,3c-3.9,0-7.8,0-11.8,0c0,0.9,0,1.8,0,2.8c3.6,0.1,7.1,0,10.7,0
	c0,1.1,0,2.1,0,3.1c-3.6,0.2-7.2,0-10.7,0.1c0,1.1,0,2.2,0,3.3c3.9,0,7.9,0,11.8,0c0,1.1,0,2.2-0.1,3.3c-5,0-10.1,0-15.1,0
	C61.3,11.9,61.5,6.7,61.4,1.5z"/>
<path fill="#010826" d="M80.3,3.6c0-0.7,0-1.4,0.1-2.2c1.2,0,2.4,0,3.7,0c0,0.7,0,1.4,0.1,2.2C82.8,3.8,81.5,3.8,80.3,3.6z"/>
<path fill="#010A28" d="M90.5,3.3c0-0.6,0-1.2,0.1-1.8c0.9-0.1,1.8-0.1,2.6,0c0,0.6,0,1.2,0,1.8c1.8,0,3.6,0,5.3,0.1
	c0,0.8,0,1.5,0,2.3c-1.8,0-3.6-0.1-5.4,0c1,2,2.4,3.9,4.3,5.2c0.4,0.3,1,0.5,1.2,0.9c0,0.7,0.1,1.3,0.1,2c-2.9-0.5-5.4-2.4-6.9-4.9
	c-1.4,2.5-3.9,4.2-6.7,5c0-0.7,0-1.4,0-2.1c2.2-1.5,4.4-3.5,5.1-6.2c-1.7,0-3.3,0-5,0c0-0.8,0-1.5,0-2.3C87,3.3,88.8,3.3,90.5,3.3z"
	/>
<g>
	<path fill="#010A28" d="M101.4,1.5c6,0,12,0,18,0c0.1,4.8,0,9.7,0,14.5c-0.1,0.9-1.2,1-1.9,1c-5.4,0-10.8,0-16.2,0
		C101.4,11.8,101.4,6.7,101.4,1.5z M104.3,3.8c0,3.6,0,7.3,0,10.9c4.1,0.1,8.2,0.1,12.4,0c0-3.6,0-7.2,0-10.9
		C112.5,3.7,108.4,3.8,104.3,3.8z"/>
</g>
<path fill="#010A27" d="M108.8,5.5c0-0.3,0.1-0.8,0.2-1.1c0.9,0,1.8,0,2.8,0c0,0.2,0.1,0.7,0.1,0.9c1.2,0.1,2.4,0.1,3.6,0.1
	c0,0.8,0,1.5,0,2.3c-1.2,0-2.4,0-3.6,0c0.9,1.7,2.2,3.1,3.9,4.1c0,0.7,0,1.3,0,2c-2.2-0.4-4.1-1.9-5.4-3.7c-1.3,1.7-3.1,3.2-5.2,3.7
	c0-0.7,0-1.3,0-2c1.5-1.1,2.9-2.4,3.7-4.2c-1.2,0-2.4,0-3.6,0c0-0.8,0-1.5,0-2.3C106.4,5.5,107.6,5.5,108.8,5.5z"/>
<path fill="#010926" d="M80.3,5.6c1.2,0,2.5,0,3.7,0c0.1,3-0.1,5.9,0.1,8.9c0.5,0.5,1.3,0.2,1.9,0.3c4.2-0.1,8.5,0,12.7-0.1
	c0,0.8,0,1.6,0,2.3c-4.7,0-9.3,0-14,0c-0.9,0.1-1.8-0.3-2.6-0.7c-0.6,0.2-1.2,0.5-1.8,0.7c0-0.8,0-1.6,0-2.4
	c0.2-0.1,0.7-0.3,0.9-0.5c0-2.1,0.1-4.2,0-6.3c-0.2,0-0.7-0.1-0.9-0.2C80.3,7,80.3,6.3,80.3,5.6z"/>
</svg>
