<?xml version="1.0" encoding="utf-8"?>
<!-- Generator: Adobe Illustrator 18.1.1, SVG Export Plug-In . SVG Version: 6.00 Build 0)  -->
<svg version="1.1" id="图层_1" xmlns="http://www.w3.org/2000/svg" xmlns:xlink="http://www.w3.org/1999/xlink" x="0px" y="0px"
	 viewBox="0 0 43.3 43.2" enable-background="new 0 0 43.3 43.2" xml:space="preserve">
<path fill="#C79B41" d="M0,0C8.8,0,17.5,0,26.2,0c-1.5,4.5-3.7,8.8-5.4,13.2c-1.2,2.7-2.2,5.4-3.4,8.1c-0.2,0-0.6,0-0.8,0
	C11.2,19.8,5.6,20,0,20.3C0,13.5,0,6.8,0,0z"/>
<path fill="#C59A40" d="M26.8,0c5.5,0,11-0.1,16.5,0.1c0,11.2,0,22.3,0,33.5c0,1.8,0,3.5-0.1,5.3c-0.5-0.7-1-1.5-1.3-2.4
	C38,26.9,34,17.4,30,7.8C29,5.2,27.7,2.7,26.8,0z"/>
<path fill="#C79A3D" d="M23.6,11.3c0.1,0,0.3,0,0.4-0.1c1.7,4.1,3.4,8.1,5.2,12.2c0.6,1.6,1.4,3.1,1.8,4.7
	c-3.7-2.3-7.5-4.8-11.8-5.9C20.4,18.5,22.2,15,23.6,11.3z"/>
<g>
	<path fill="#C59A3F" d="M0,20.7c4.4,0.2,8.9,0.6,13.2,2c8.2,2.5,15.7,7.6,20.8,14.6c1.4,1.8,2.7,3.8,3.7,5.8
		c-12.4,0.1-24.7,0.1-37.1,0c-0.9,0.1-0.5-1.1-0.6-1.6C0,34.6,0,27.6,0,20.7z M5.9,29.8c-0.5,1.5-1.4,3-1.4,4.6
		C4.7,34,5,33.5,5.3,33c0.5,0,1.1,0,1.6,0c0.4,0.5,0.7,1,1.1,1.4c-0.1-1.6-0.9-3-1.4-4.5C6.4,29.9,6,29.9,5.9,29.8z M7.9,29.8
		c0.3,1.4,0.7,2.8,1,4.3c0.2,0.1,0.5,0.2,0.7,0.2c0.3-1.1,0.5-2.2,0.8-3.3c0.7,1.1,0.5,2.7,1.6,3.5c0.4-1.5,1-3,1-4.5l-0.3-0.1
		c-0.5,1-0.6,2.1-1.1,3c-0.3-1-0.5-2.1-0.8-3.1c-1.2,0.6-1.1,2.1-1.7,3.1C8.8,31.8,9.2,30.1,7.9,29.8z M14,29.9
		c-0.2,1.4-0.2,2.8-0.2,4.2c1,0.1,2,0.1,3.1,0.1c0-0.1,0-0.4,0-0.6c-0.8,0-1.6-0.1-2.4-0.1c0-0.3,0-0.9,0-1.2
		c0.7-0.1,1.7,0.2,2.2-0.6c-0.7-0.1-1.4-0.1-2.1-0.1c0-0.3,0-0.8-0.1-1.1c0.8-0.1,1.7-0.1,2.6-0.2C16.4,29.5,15,30.1,14,29.9z
		 M10.2,35.5c-0.2,1.1-0.5,2.2-1,3.2c-0.3-1.2-0.4-2.5-1.1-3.5c-0.3,1,0.2,2,0.4,3c0.3,0.6,0.1,1.7,1,1.9c0.7-1.1,0.7-2.4,1.1-3.6
		c0.7,1.2,0.3,2.8,1.4,3.7c0.9-1.3,1-3,1.4-4.5l-0.2-0.4c-0.8,0.9-0.7,2.2-1.4,3.2c-0.3-1-0.5-2.1-0.8-3.1
		C10.8,35.4,10.4,35.5,10.2,35.5z M14.7,35.2c-0.6,1.6-1.3,3.1-1.6,4.7c0.5-0.2,0.9-0.5,1-1.1c0.5,0,1,0,1.5,0
		c0.4,0.4,0.7,0.9,1.1,1.3c0.1-1-0.4-1.9-0.7-2.8C15.7,36.6,15.6,35.6,14.7,35.2z M17.5,35.4c0,1.5-0.1,3.1,0,4.6
		c1-0.2,0.5-1.3,0.7-2c1.4,0,1.3,2.1,2.7,2.1c-0.3-0.6-0.7-1.2-1.1-1.9c0.4-0.6,1-1.1,0.8-1.9C20.1,35.1,18.6,35.5,17.5,35.4z
		 M4.4,40c0.4-0.3,0.8-0.7,1.2-1.2c0.3,0,1,0,1.3,0c0.3,0.4,0.7,0.9,1.2,1c-0.6-1.5-0.7-3.6-2.1-4.6C5.1,36.7,4.7,38.4,4.4,40z
		 M21.4,35.8c-0.1,1.4,0,2.9,0,4.3c1.1-0.1,2.6,0.1,3.3-1.1c0.5-1.1,0.5-3-0.9-3.4C23,35.5,22,35.2,21.4,35.8z"/>
</g>
<path fill="#C59A40" d="M5.6,32.5c0.1-0.6,0.2-1.2,0.7-1.7c0.1,0.5,0.3,1.1,0.4,1.6C6.5,32.5,5.9,32.5,5.6,32.5z"/>
<path fill="#C59A40" d="M18.2,36c0.6,0.2,1.8-0.1,1.7,0.8c0.2,0.9-1.3,0.4-1.7,0.6C18.2,37.1,18.2,36.4,18.2,36z"/>
<path fill="#C59A40" d="M6.2,36.7c0.7,0.1,0.9,1.8-0.1,1.6C5.4,38,5.7,37,6.2,36.7z"/>
<path fill="#BB9F61" d="M15,36.6c0.6,0.3,0.7,1.5,0,1.7C14.2,38.1,14.3,36.8,15,36.6z"/>
<path fill="#CA9641" d="M22.1,36.3c1-0.3,2.2,0.2,2,1.4c0.2,1.2-1,1.7-2,1.5C22.2,38.2,22.2,37.3,22.1,36.3z"/>
</svg>
