<?xml version="1.0" encoding="utf-8"?>
<!-- Generator: Adobe Illustrator 18.1.1, SVG Export Plug-In . SVG Version: 6.00 Build 0)  -->
<svg version="1.1" id="图层_1" xmlns="http://www.w3.org/2000/svg" xmlns:xlink="http://www.w3.org/1999/xlink" x="0px" y="0px"
	 viewBox="0 0 97.8 31.2" enable-background="new 0 0 97.8 31.2" xml:space="preserve">
<g>
	<path d="M5.2,3.9c4.3-3.8,10.7-4.9,16-2.8c5.7,2.2,9.7,8.1,9.8,14.1c0.1,2.4-0.6,4.7-1.4,6.9c1.3,1.7,2.7,3.7,2.3,6
		c-0.2,1.6-1.6,2.8-3.2,2.9c-2.1,0.3-3.9-1-5.7-1.9c-7.1,4.3-17.2,1.2-21-6C-1.6,17-0.2,8.5,5.2,3.9z M4.7,6
		c-3,3.4-4.3,8.3-3.2,12.7c1.9-0.9,4-1.4,6-2c1.2-0.3,2.2-1.2,3.4-1.2c0.9,0.6,1.5,1.6,2.2,2.4c0.3-0.2,0.9-0.6,1.2-0.8
		c-0.3-0.5-0.7-0.9-1-1.4c1.9-0.3,2.6-2.1,3.1-3.6c-0.8,0.1-1.7,0.2-2.5,0.3c0-0.9,0.1-1.9,0.2-2.8c-0.8,0.4-1.5,0.8-2.3,1.2
		C11.9,10,12,9.3,12,8.7c-0.7-0.4-1.3-0.9-1.9-1.3c1-0.9,2.6-0.9,3.3-2.1c0.6-0.8,1-2.1,2.2-2c2,0,4.1,0.8,5.7,2
		c1.3,1,0.8,2.7,0.9,4c0.4,0.4,0.8,0.7,1.2,1.1c-0.5,1.3-1.9,1.6-3,2.3c1.3,1,3,1.6,3.9,3c0.6,1.1,1.2,2.3,1.7,3.5
		c-0.6,0.3-1.3,0.6-1.9,0.9c1.2,0,2.2-0.8,3.2-1.4c0.5,0.7,0.9,1.5,1.4,2.3c2.6-5.8,0.6-13.1-4.5-16.8C18.5-0.5,9.4,0.5,4.7,6z
		 M18.2,15.7c0.3,1.4,1.8,2.1,3.1,1.9C20.7,16.4,19.4,16,18.2,15.7z M9.8,16.5c0.8,4-0.2,8.1-0.9,12.1c0.8-1.2,1.3-2.6,2-3.8
		c0.5-0.9,1.3-1.7,1.7-2.7c-0.3-1-1-1.8-1.5-2.7c1.2,0.4,2.3,1.6,3.7,1.1c0.9-0.3,1.9-0.5,2.4-1.4c-1.1,0-2.1,0.2-3,0.7
		c0-0.2-0.1-0.6-0.1-0.8C12.8,17.9,11.3,17.2,9.8,16.5z M14.3,26c0.3-1.7,0.7-3.4,1.8-4.8C13.7,21.4,13.9,24.3,14.3,26z"/>
</g>
<path fill="#010101" d="M87.3,12.2c0.2-1.4,1.9-1.4,3-1.4c2.4,0.1,4.8-0.3,7.1,0.3c0.4,1,0.4,2,0.4,3c-0.7,0-1.5,0-2.2,0
	c0-0.5,0-1.1,0-1.6c-2,0-4,0-6,0c0,2.1,0,4.1,0,6.2c2,0,3.9,0,5.9,0c0-0.7,0-1.3,0-2c0.8,0,1.5,0,2.3,0c-0.1,1.1,0.3,2.9-1,3.5
	c-2.7,0.2-5.4,0.1-8.1,0.1c-1,0-1.5-1.1-1.4-2C87.3,16.2,87.1,14.2,87.3,12.2z"/>
<path d="M38.6,10.8c3.7,0,7.3,0,11,0c0,0.6,0,1.1,0,1.7c-1.5,0-2.9,0-4.4,0c0,2.6,0,5.2,0,7.8c-0.8,0-1.5,0-2.2,0c0-2.6,0-5.2,0-7.8
	c-1.5,0-3,0-4.4,0C38.6,11.9,38.6,11.4,38.6,10.8z"/>
<g>
	<path fill="#010101" d="M52.8,11c2.4-0.4,4.8-0.1,7.2-0.2c1.2,0,3-0.2,3.4,1.3c0.3,1.9,0.1,3.8,0.2,5.6c0.1,1.1-0.5,2.4-1.8,2.4
		c-2.5,0.1-4.9,0-7.4,0.1c-1,0-2.3-0.1-2.6-1.2c-0.2-2,0-4-0.1-6C51.7,12.3,51.9,11.2,52.8,11z M56.7,12.2c-3.3,0.7-3.3,6-0.1,6.8
		c2.2,0.8,4.6-1.1,4.6-3.4C61.5,13.3,58.8,11.4,56.7,12.2z"/>
</g>
<path d="M66.3,10.8c0.7,0.1,1.6-0.2,2.2,0.3c1.5,1.7,2.7,3.6,4.2,5.4c1.5-1.9,2.8-3.9,4.3-5.7c0.7,0,1.3,0.1,2,0.2
	c0,3.1,0,6.3,0,9.4c-0.7,0-1.5,0-2.2,0c0-2.1,0-4.2,0-6.4c-1.4,1.8-2.8,3.7-4.2,5.5c-1.5-1.8-2.9-3.7-4.3-5.5
	c-0.1,2.1-0.1,4.2,0,6.3c-0.7,0-1.4,0-2.1,0C66.3,17.2,66.3,14,66.3,10.8z"/>
<path d="M82.2,10.9c0.6,0,1.2,0,1.9-0.1c0.1,3.2,0,6.3,0,9.5c-0.6,0-1.3,0-1.9,0C82.2,17.2,82.2,14,82.2,10.9z"/>
</svg>
