<?xml version="1.0" encoding="utf-8"?>
<!-- Generator: Adobe Illustrator 18.1.1, SVG Export Plug-In . SVG Version: 6.00 Build 0)  -->
<svg version="1.1" id="图层_1" xmlns="http://www.w3.org/2000/svg" xmlns:xlink="http://www.w3.org/1999/xlink" x="0px" y="0px"
	 viewBox="0 0 71.7 27.9" enable-background="new 0 0 71.7 27.9" xml:space="preserve">
<g>
	<path fill="#0480CE" d="M0,11.4C-0.2,6,4,0.8,9.4,0.3c1.1,0.1,2.2,0.3,3.4,0.3c11.8,0,23.6,0,35.4,0c2.3,0,4.6-0.2,6.9,0.5
		c-2.3,1.4-4.3,3.4-5.1,6c-1.6,4.1-0.7,9.1,2.5,12.2c1.3,1.3,2.9,2.2,4.5,3.1c-14.7,0.1-29.4,0-44.1,0.1c-1.7,0-3.4,0-5-0.5
		C3.3,20.4,0,16.1,0,11.4z M46.7,3.9c0.2,0.6,0,1.9,1,1.9c1,0.4,2-0.9,1.3-1.7C48.2,3.7,47.4,3.9,46.7,3.9z M6.1,6.9
		c0,0.7,0.1,1.5,0.2,2.2c1.1,0.3,2.2,0.2,3.4,0.2c0,0.3,0,0.9,0,1.2c-1.1,0-2.3,0.1-3.4,0.1c0,0.5,0,1,0,1.5
		c0.1,0.3,0.4,0.9,0.6,1.2H6.5c0,1.5-0.2,3.1,0.1,4.6c2.9,0.6,5.9,0.1,8.8,0.3c0.1-1.6,0.1-3.2,0.1-4.8c-1,0-2.1,0-3.1,0
		c0-0.3,0-0.9,0-1.2c1.1,0,2.3,0,3.4,0c0-0.5,0-1.1,0.1-1.6c-1.1,0-2.3,0-3.4,0c0-0.3,0-1,0-1.3c1.1,0,2.3,0,3.4,0.1
		c-0.1-1,0.5-2.5-0.8-3c-1.4-0.7-2.7-1.9-4.2-2.2C9.3,4.8,7.7,6,6.1,6.9z M35.7,4.1c0,0.2,0,0.6-0.1,0.8c-2.6,0-5.2-0.1-7.7,0.1
		c0,1.1-0.1,2.1,0,3.2c0.9,0,1.7-0.1,2.6-0.2c0-0.4,0-1.2,0-1.6c0.8,0.1,1.6,0.1,2.4,0.2c-1,1.1-2.2,1.9-3.5,2.5c0,0.7,0,1.3,0,2
		c1.3-0.2,2.5-0.6,3.6-1.3c0.5,0.4,1,0.8,1.4,1.2c-2.1,0.6-4.3,0.9-6.5,0.8c0,0.7,0,1.4,0,2.1c0.7,0,1.3,0,2-0.1
		c0.1,1.4-0.2,2.8,0.3,4.1c2.2,0.3,4.4,0.1,6.7,0.1c2.3-0.1,4.5,0.1,6.8-0.1c0.9-1.1,0.3-2.7,0.4-4.1c0.6-0.1,1.3-0.1,1.9-0.2
		c-0.1-0.6,0.2-1.4-0.2-1.8c-1.7-0.2-3.5-0.3-5.2-0.8c0.7-0.6,1.5-1.1,2.1-1.7c0.2-0.6,0.1-1.2,0.1-1.8c-2.6-0.1-5.1,0.1-7.7-0.2
		c0.3-0.2,0.8-0.5,1-0.7c2.4-0.2,4.8,0,7.3-0.1c0,0.5,0.1,1,0.1,1.5c0.8,0,1.7,0,2.5,0.1C46,7.2,46.5,5.8,45.5,5
		c-2.2-0.2-4.4,0-6.7,0c-0.1-0.2-0.3-0.6-0.3-0.9C37.6,4.1,36.6,4.1,35.7,4.1z M16.5,5c0,0.5,0,1-0.1,1.5c1.9,0.1,3.9,0,5.8,0.1
		c-0.5,0.9-1,2-1.9,2.6c-1.1-0.2-2-1.1-3-1.5c0,1,0.1,2,0.3,3c-0.3,0-0.9,0-1.3,0.1c0.1,0.3,0.2,0.9,0.2,1.3c1,0.3,2,0.2,3,0.3
		c0,1.3,0,2.6-0.1,3.9c-0.9,0.1-1.9-0.2-2.6,0.3c0,0.7,0.2,1.7,1,1.6c1.3,0.1,2.7,0.3,3.9-0.3c1.4-1.6-0.3-4.2,1.1-5.9
		c0.1,0.6,0.3,1.2,0.4,1.8c0.6,0.1,1.2,0.1,1.9,0.2c0.2-1.1,0.3-2.3,0.3-3.4c-1,0-2,0-3,0C23.2,9,24.3,7.7,25,6.2
		c0.3-0.7-0.3-1.3-1-1.2C21.5,4.9,19,4.9,16.5,5z"/>
</g>
<path fill="#1375B4" d="M9.4,0.3C10.8,0,12.2,0,13.6,0C28.1,0.1,42.5-0.1,57,0.1c-0.6,0.3-1.2,0.6-1.8,0.9L55,1
	c-2.2-0.7-4.6-0.5-6.9-0.5c-11.8,0-23.6,0-35.4,0C11.6,0.6,10.5,0.4,9.4,0.3z"/>
<g>
	<path fill="#047FCE" d="M59.1,0.4C65-0.6,71.3,4,71.7,10.1c0.7,5.4-3.4,10.7-8.6,11.8c-3.6,0.8-7.6-0.4-10.2-3.1
		c-3.6-3.5-3.9-9.6-1.1-13.7C53.4,2.5,56.2,0.9,59.1,0.4z M58.7,4.4c-0.2,1.5-0.1,3-0.1,4.5c-1.5,0-3-0.1-4.4,0.1
		c-1.9,0.5-2,3.5-0.1,4.1c1.5,0.3,3,0.1,4.5,0.1c0,1.5-0.1,2.9,0.1,4.4c0.6,1.7,3.5,1.8,4.1,0.1c0.3-1.5,0.1-3,0.2-4.5
		c1.5-0.1,3.1,0.2,4.6-0.2c1.6-0.7,1.6-3.3,0-4C66,8.7,64.4,9,62.9,8.9c-0.1-1.5,0.1-3-0.2-4.5C62.1,2.8,59.4,2.8,58.7,4.4z"/>
</g>
<path fill="#FDFEFD" d="M58.7,4.4c0.7-1.6,3.4-1.6,4.1,0c0.3,1.5,0.1,3,0.2,4.5C64.4,9,66,8.7,67.5,9.1c1.6,0.7,1.7,3.2,0,4
	c-1.5,0.4-3.1,0.2-4.6,0.2c0,1.5,0.2,3-0.2,4.5c-0.6,1.8-3.6,1.7-4.1-0.1c-0.2-1.5-0.1-2.9-0.1-4.4c-1.5-0.1-3,0.1-4.5-0.1
	c-1.9-0.6-1.8-3.6,0.1-4.1c1.5-0.2,2.9-0.1,4.4-0.1C58.6,7.4,58.5,5.9,58.7,4.4z"/>
<g>
	<path fill="#78BEE3" d="M46.7,3.9c0.7,0,1.5-0.2,2.2,0.1c0.8,0.8-0.3,2.1-1.3,1.7C46.7,5.9,46.9,4.5,46.7,3.9z M47.4,4.9
		c0.1,0.6,0.4,0.7,0.9,0.3C48.3,4.7,48,4.5,47.4,4.9z"/>
</g>
<g>
	<path fill="#FDFEFE" d="M6.1,6.9C7.7,6,9.3,4.8,11,4.1c1.5,0.4,2.8,1.5,4.2,2.2c1.2,0.5,0.7,2,0.8,3c-1.2,0-2.3,0-3.4-0.1
		c0,0.3,0,1,0,1.3c1.1,0,2.3,0,3.4,0c0,0.5-0.1,1.1-0.1,1.6c-1.1,0-2.3,0-3.4,0c0,0.3,0,0.9,0,1.2c1,0,2.1,0,3.1,0
		c0,1.6,0,3.2-0.1,4.8c-2.9-0.1-5.9,0.3-8.8-0.3c-0.3-1.5-0.1-3.1-0.1-4.6h0.3c1,0,2,0,3-0.1c-0.3-1.8-2.4-1-3.6-1.2
		c0-0.5,0-1,0-1.5c1.1,0,2.3,0,3.4-0.1c0-0.3,0-0.9,0-1.2c-1.1,0-2.3,0.1-3.4-0.2C6.2,8.4,6.1,7.6,6.1,6.9z M8.7,7.6
		c1.5,0.1,3.1,0.1,4.6,0.1c-0.5-0.4-1-0.8-1.5-1.1C10.7,5.8,9.7,7.1,8.7,7.6z M9.2,14.9c0,0.6,0,1.2,0.1,1.7c1.2,0,2.4,0,3.6,0
		c0-0.6,0-1.2,0-1.8C11.7,14.9,10.4,14.9,9.2,14.9z"/>
</g>
<g>
	<path fill="#FDFEFD" d="M35.7,4.1c0.9,0,1.8,0,2.7,0c0.1,0.2,0.3,0.6,0.3,0.9c2.2,0,4.5-0.1,6.7,0c1,0.8,0.5,2.2,0.6,3.3
		c-0.8,0-1.7,0-2.5-0.1c0-0.5-0.1-1-0.1-1.5c-2.4,0.1-4.9-0.1-7.3,0.1c-0.3,0.2-0.8,0.5-1,0.7c2.6,0.3,5.1,0.1,7.7,0.2
		c0,0.6,0.1,1.2-0.1,1.8c-0.6,0.7-1.4,1.2-2.1,1.7c1.7,0.5,3.5,0.6,5.2,0.8c0.5,0.4,0.1,1.2,0.2,1.8c-0.6,0.1-1.3,0.1-1.9,0.2
		c-0.1,1.3,0.4,3-0.4,4.1c-2.2,0.3-4.5,0-6.8,0.1c-2.2-0.1-4.5,0.2-6.7-0.1c-0.6-1.3-0.3-2.7-0.3-4.1c-0.7,0-1.3,0-2,0.1
		c0-0.7,0-1.4,0-2.1c2.2,0.1,4.4-0.2,6.5-0.8c-0.5-0.4-1-0.8-1.4-1.2c-1.1,0.6-2.3,1-3.6,1.3c0-0.7,0-1.3,0-2
		c1.3-0.6,2.5-1.4,3.5-2.5c-0.8-0.1-1.6-0.1-2.4-0.2c0,0.4,0,1.2,0,1.6c-0.9,0.1-1.7,0.1-2.6,0.2c0-1.1,0-2.1,0-3.2
		C30.5,4.8,33.1,5,35.7,5C35.7,4.8,35.7,4.3,35.7,4.1z M35.2,9.1c0.6,0.4,1.2,0.9,2,1.1c1,0.1,1.7-0.6,2.4-1.1
		C38.1,9.1,36.6,9.1,35.2,9.1z M34.3,13.5c2.2,0.1,4.5,0.1,6.7,0c-1.2-0.5-2.4-1.1-3.7-1.2C36.2,12.4,35.3,13,34.3,13.5z M33.2,14.9
		c0,0.5,0,1,0,1.6c2.5,0.3,5.1,0.1,7.7,0.1c0-0.4,0-1.2,0.1-1.6C38.4,14.9,35.8,14.9,33.2,14.9z"/>
</g>
<path fill="#FDFEFD" d="M16.5,5c2.5,0,5-0.1,7.5,0c0.7-0.1,1.3,0.5,1,1.2c-0.8,1.5-1.9,2.8-2.6,4.4c1,0,2,0,3,0
	c0,1.2-0.1,2.3-0.3,3.4c-0.6-0.1-1.2-0.1-1.9-0.2c-0.1-0.6-0.3-1.2-0.4-1.8c-1.3,1.6,0.4,4.2-1.1,5.9c-1.2,0.6-2.6,0.3-3.9,0.3
	c-0.9,0-1.1-1-1-1.6c0.8-0.6,1.7-0.2,2.6-0.3c0-1.3,0.1-2.6,0.1-3.9c-1-0.1-2,0-3-0.3c0-0.3-0.2-0.9-0.2-1.3c0.3,0,0.9,0,1.3-0.1
	c-0.2-1-0.3-2-0.3-3c1,0.4,1.9,1.3,3,1.5c0.9-0.6,1.4-1.6,1.9-2.6c-1.9,0-3.9,0-5.8-0.1C16.5,6,16.5,5.5,16.5,5z"/>
<path fill="#4185AF" d="M47.4,4.9c0.5-0.4,0.8-0.3,0.9,0.3C47.8,5.6,47.5,5.5,47.4,4.9z"/>
<path fill="#1178C6" d="M8.7,7.6c0.9-0.5,2-1.8,3.1-1c0.5,0.3,1,0.7,1.5,1.1C11.8,7.8,10.3,7.7,8.7,7.6z"/>
<path fill="#227CB6" d="M35.2,9.1c1.5,0,2.9,0,4.4,0c-0.7,0.5-1.5,1.2-2.4,1.1C36.4,10,35.8,9.5,35.2,9.1z"/>
<path fill="#1375B7" d="M6.2,12.1c1.3,0.2,3.3-0.6,3.6,1.2c-1,0-2,0.1-3,0.1C6.7,13,6.4,12.4,6.2,12.1z"/>
<path fill="#428BB4" d="M34.3,13.5c1-0.5,1.9-1,3-1.2c1.3,0.1,2.5,0.7,3.7,1.2C38.8,13.6,36.5,13.6,34.3,13.5z"/>
<path fill="#087DC1" d="M9.2,14.9c1.2,0,2.5,0,3.8,0c0,0.6,0,1.2,0,1.8c-1.2,0-2.4,0-3.6,0C9.2,16,9.2,15.5,9.2,14.9z"/>
<path fill="#077DC6" d="M33.2,14.9c2.6,0,5.2,0,7.7,0.1c0,0.4,0,1.2-0.1,1.6c-2.6,0-5.1,0.2-7.7-0.1C33.2,16,33.2,15.5,33.2,14.9z"
	/>
<path fill="#6897B2" d="M10.8,25.6c1-0.7,1.9-1.7,3.1-1.9c-0.4,0.5-0.8,0.9-1.2,1.3c0.9,0,1.8-0.1,2.7,0l0,0.5l-0.3,0
	c-1,0-2.1,0-3.1,0C11.7,25.7,11.1,25.6,10.8,25.6z"/>
<path fill="#62ACD3" d="M37.8,24.2c1-0.1,1.9-0.2,2.9-0.2c0,0.9-0.1,1.7-0.6,2.4c0.2,0.3,0.7,0.8,1,1.1c-0.5-0.2-1-0.4-1.5-0.6
	c-0.2,0-0.7,0.1-0.9,0.1c-0.3,0-0.8,0.1-1.1,0.1c0.5-0.4,1-0.9,1.4-1.3c-0.3-0.1-0.6-0.2-0.9-0.3C38,25.2,37.9,24.6,37.8,24.2z"/>
<path fill="#7EADC3" d="M20.1,24.5c0.3-0.1,1-0.4,1.3-0.5c0,1-0.3,2.3,0.7,3c-0.1-0.3-0.3-1-0.4-1.4c0.3-0.5,0.6-1,0.9-1.5
	c0.8,0.5,0.4,1.4,0.3,2.2c0.4,0.3,0.8,0.7,1.2,1c-1.7-0.1-3.4,0.2-5-0.2c0.6-0.2,1.2-0.3,1.8-0.5c0-0.5-0.5-0.7-0.7-1
	C20.1,25.3,20.1,24.8,20.1,24.5z"/>
<g>
	<path fill="#0047A2" d="M28.8,24.3c1,0,2,0,3.1,0.1c0,0.9,0,1.8,0,2.6c-1,0-2-0.1-3,0C28.8,26.1,28.8,25.2,28.8,24.3z M29,24.6
		c0,0.7,0,1.4,0.1,2.1c0.8,0,1.6,0,2.3,0c0-0.7,0-1.4,0-2.1C30.6,24.6,29.8,24.6,29,24.6z"/>
</g>
<path fill="#74C5E9" d="M37,24.2c0.2,0,0.6-0.1,0.8-0.1l0,0.1c0.1,0.3,0.2,1,0.2,1.3c0.3,0.1,0.6,0.2,0.9,0.3
	c-0.5,0.5-0.9,0.9-1.4,1.3c-0.2,0.1-0.5,0.3-0.7,0.4C36.9,26.5,36.9,25.3,37,24.2z"/>
<g>
	<path fill="#74B6D1" d="M45.9,24.2c1.1,0,2.1,0,3.2,0c0,0.8,0,1.6,0,2.4c-0.3-0.1-0.9-0.2-1.2-0.3c0.2-0.2,0.5-0.5,0.6-0.7
		c0-0.3-0.1-0.8-0.1-1.1c-0.7,0.8-1.1,1.8-1.2,2.8c-0.5,0.1-1.1,0.1-1.6,0.2c0-0.7,0.3-1.6-0.3-2.2C45.5,24.9,45.7,24.6,45.9,24.2z
		 M46.4,26.2"/>
</g>
<path fill="#4B89A4" d="M54.8,25c-1,0.5-0.8-1.5,0.1-0.6C54.9,24.5,54.8,24.9,54.8,25z"/>
<g>
	<path fill="#75B7D3" d="M54.9,24.4l0.6-0.2c-0.4,1,1.2,1.1,0.7,0.1c0.4,0,1.2,0,1.6-0.1c-0.1,0.9-0.2,1.8-0.5,2.7
		c0.3,0,0.8,0,1.1,0c-0.9,0.9-2.3,0.5-3.4,0.5c0-0.4-0.1-1.1-0.1-1.5l0-0.3l0-0.6C54.8,24.9,54.9,24.5,54.9,24.4z M56,25.8
		c-0.4,0.5-0.3,0.8,0.3,0.9C56.6,26.2,56.6,25.9,56,25.8z"/>
</g>
<path fill="#4E96C1" d="M55.5,24.2c0.2,0,0.5,0,0.7,0.1C56.7,25.2,55.2,25.1,55.5,24.2z"/>
<path fill="#9AC9DD" d="M12,25.7c1,0,2.1,0,3.1,0c-0.3,0.5-0.7,1-1,1.4c0.3-1.5-1.3-0.7-0.3,0.2l0.3,0.5c-0.5-0.3-1-0.5-1.5-0.8
	c0.7-0.2,0.3-1-0.2-1.1L12,25.7z"/>
<path fill="#498CA7" d="M54.4,26.8c-0.7-0.1-0.3-1.6,0.4-1.2l0,0.3C54.7,26.2,54.5,26.6,54.4,26.8z"/>
<path fill="#498CB2" d="M56,25.8c0.6,0.1,0.7,0.4,0.3,0.9C55.7,26.6,55.6,26.3,56,25.8z"/>
<path fill="#70A3BA" d="M12.5,25.9c0.5,0.1,0.9,0.9,0.2,1.1l-0.3-0.3C12.4,26.6,12.4,26.1,12.5,25.9z"/>
<path fill="#4283B2" d="M13.8,27.3c-1-0.9,0.6-1.8,0.3-0.2L13.8,27.3z"/>
<path fill="#A5E2EE" d="M46.4,26.2"/>
<path fill="#5B8DA3" d="M38.6,27.1c0.2,0,0.7-0.1,0.9-0.1l-0.2,0.4l-0.4,0.1L38.6,27.1z"/>
</svg>
