<?xml version="1.0" encoding="utf-8"?>
<!-- Generator: Adobe Illustrator 18.1.1, SVG Export Plug-In . SVG Version: 6.00 Build 0)  -->
<svg version="1.1" id="图层_1" xmlns="http://www.w3.org/2000/svg" xmlns:xlink="http://www.w3.org/1999/xlink" x="0px" y="0px"
	 viewBox="0 0 101 27.6" enable-background="new 0 0 101 27.6" xml:space="preserve">
<path fill="#F73338" d="M92.6,0.3C93.9-0.1,95.2,0,96.4,0c0,2.3-0.3,4.8-1.6,6.8C94,8.2,92.3,9,90.7,9.2c-1.3,0.1-2.5,0.1-3.8-0.2
	c0.7-0.4,1.6-0.6,2.2-1.2c1.5-1.4,1.9-3.5,2.2-5.4C91.4,1.6,91.8,0.6,92.6,0.3z"/>
<path fill="#090909" d="M0,5.8c1.4,0.1,3-0.2,4.3,0.5c1.2,0.7,1.8,2,2.5,3.2c1.9,3.3,3.8,6.7,5.6,10c0.1,0,0.4,0,0.6,0
	c0-4.5,0-8.9,0-13.4c23.4,0,46.9,0,70.3,0c-0.8,1.5-2.5,2.4-4.1,2.5c-21,0-42,0-62.9,0c0,6,0,11.9,0,17.9c-0.9,0-1.7,0-2.6,0
	c-1.3-0.1-2.5-0.8-3.1-1.9c-2.2-3.7-4.2-7.5-6.4-11.2c-0.2-0.4-0.6-0.7-1-1c0,4.7,0,9.3,0,14c-1.1,0-2.1,0-3.2,0
	C0,19.6,0,12.7,0,5.8z"/>
<path fill="#0A0909" d="M33.4,12c1.2-0.8,2.6-1,4-1c1.5,0,3.1,0.2,4.5,0.8c0,0.8,0,1.7,0,2.5c-1.8-0.6-3.9-1-5.8-0.5
	c-1.1,0.3-1.3,2-0.3,2.5c1.8,1,4,1.1,5.7,2.3c1,0.7,1.4,1.9,1.4,3.1c0,1.1-0.1,2.2-0.8,3.1c-0.8,1-2.1,1.5-3.3,1.7
	c-2.2,0.3-4.4,0-6.5-0.7c0-0.9,0-1.7-0.1-2.6c1.6,0.7,3.3,0.9,5,0.9c0.6-0.1,1.3-0.1,1.8-0.6c0.6-0.6,0.4-1.8-0.4-2.2
	C37,20.4,35,20.1,33.4,19c-0.9-0.6-1.4-1.6-1.5-2.6C31.7,14.8,32.1,13,33.4,12z"/>
<path fill="#090909" d="M48.2,11.4c2.1-0.8,4.5-0.6,6.6,0c0,0.9,0,1.8,0,2.7c-1.4-0.5-3-0.9-4.5-0.4c-1,0.3-1.4,1.4-1.5,2.3
	c-0.2,2-0.3,4.2,0.1,6.2c0.2,0.9,1,1.6,1.9,1.7c1.3,0.1,2.7,0,4-0.4c0,0.8,0,1.6,0,2.5c-2.4,0.7-5.1,0.9-7.4-0.2
	c-1.6-0.7-2.2-2.5-2.4-4.1c-0.3-2.4-0.3-4.8,0.4-7.1C45.8,13.1,46.8,11.9,48.2,11.4z"/>
<path fill="#0A0909" d="M19,11.8c3.4,0,6.9,0,10.3,0c0,0.8,0,1.6,0,2.5c-2.2,0-4.4,0-6.6,0c0,1.3,0,2.5,0,3.8c1.9,0,3.8,0,5.7,0
	c0,0.8,0,1.7,0,2.5c-1.9,0-3.8,0-5.7,0c0,0.9-0.1,1.8,0.1,2.7c0.1,0.8,0.9,1.3,1.6,1.4c1.7,0.3,3.4,0,4.9-0.4c0,0.9,0,1.7,0,2.6
	c-2,0.7-4.3,0.8-6.4,0.4c-1.3-0.3-2.7-1-3.4-2.3c-0.5-0.9-0.6-2-0.6-3C19,18.5,19,15.2,19,11.8z"/>
<g>
	<path fill="#090909" d="M61.7,11.8c1.5,0,3,0,4.5,0c2.3,4.7,3.7,9.7,5,14.7c-1.4,0-2.7,0-4.1,0c-0.2-1-0.5-2-0.7-3
		c-1.8,0-3.6,0-5.4,0c-0.3,1-0.4,2-0.7,2.9c-1.1,0-2.3,0-3.4,0c1-3.6,1.8-7.2,3.1-10.7C60.5,14.5,61.1,13.1,61.7,11.8z M63.6,14.9
		c-0.9,2.1-1.6,4.3-2.2,6.5c1.5,0,3,0,4.5,0C65.3,19.2,64.6,17,63.6,14.9z"/>
</g>
<path fill="#080808" d="M72.9,11.8c3.5,0,7,0,10.5,0c0,0.8,0,1.6,0,2.4c-2.3,0-4.5,0-6.8,0c0,1.3,0,2.5,0,3.8c2.1,0,4.1,0,6.2,0
	c0,0.8,0,1.7,0,2.5c-2.1,0-4.1,0-6.2,0c0,2.3,0,4.6,0,7c-1,0-2.1-0.3-2.9-0.9c-0.6-0.5-0.8-1.4-0.8-2.2C72.9,20.2,72.9,16,72.9,11.8
	z"/>
<path fill="#090808" d="M85.1,11.8c3.4,0,6.9,0,10.3,0c0,0.8,0,1.6,0,2.4c-2.2,0-4.4,0-6.7,0c0,1.3,0,2.5,0,3.8c1.9,0,3.8,0,5.7,0
	c0,0.8,0,1.7,0,2.5c-1.9,0-3.8,0-5.6,0c0,1-0.1,2.1,0.3,3.1c0.3,0.7,1.1,1,1.8,1c1.5,0.2,3.1,0,4.6-0.5c0,0.9,0,1.7,0,2.6
	c-2.1,0.7-4.5,0.8-6.7,0.3c-1.3-0.3-2.7-1.1-3.2-2.5c-0.4-1.1-0.5-2.2-0.5-3.3C85.1,18.1,85.1,15,85.1,11.8z"/>
<g>
	<path fill="#0A0909" d="M99,23.8c1.2-0.4,2.4,0.9,1.9,2c-0.4,1-2,1.2-2.6,0.3C97.7,25.4,98.1,24.1,99,23.8z M98.4,25.9
		c0.4,0.6,1.2,0.7,1.8,0.5c-0.1-0.1-0.3-0.2-0.4-0.3c-0.1-0.4-0.2-0.8-0.7-0.7c0,0.2,0,0.7,0,0.9c-0.4-0.5-0.1-1.3-0.3-1.9
		c0.4,0.1,1-0.1,1.3,0.3c0,0.3-0.2,0.5-0.3,0.7c0.2,0.3,0.4,0.6,0.7,0.9c0.6-0.8,0.2-2-0.8-2.2C98.7,23.8,97.8,25.1,98.4,25.9z
		 M99.1,25.1c0.3,0,0.6-0.1,0.7-0.4C99.5,24.5,99,24.6,99.1,25.1z"/>
</g>
</svg>
