<?xml version="1.0" encoding="utf-8"?>
<!-- Generator: Adobe Illustrator 18.1.1, SVG Export Plug-In . SVG Version: 6.00 Build 0)  -->
<svg version="1.1" id="图层_1" xmlns="http://www.w3.org/2000/svg" xmlns:xlink="http://www.w3.org/1999/xlink" x="0px" y="0px"
	 viewBox="0 0 49.9 63.7" enable-background="new 0 0 49.9 63.7" xml:space="preserve">
<path fill="#07A33D" d="M31.6,0c1.5,4.7,2.9,9.4,3.1,14.3c0.3,6.1-0.4,12.4-3.2,17.8c-3.7,6.4-9.3,11.7-15.7,15.4
	c2.2-2.4,4.9-4.3,7.1-6.7c4.3-4.4,7.7-9.7,9.1-15.7c1-4.5,1.1-9.3,0.2-13.9C30.9,17.5,28.6,24,24,28.6c0.6-1.3,1.4-2.6,2.2-3.8
	c-1.7-4.3-4.1-8.6-8.2-10.9c0.2,5,0.2,10.4,3.2,14.7c1.3,2.1,3.3,3.6,5.2,5.3c-1.7-0.4-3-1.7-4.3-2.8c-1.4-1.2-2.5-2.7-3.4-4.3
	C18.1,26,17.8,25,17,24.5c-2-1.3-4.3-2.1-6.7-2.6c1.6,3,2.9,6.3,5.5,8.5c2.4,2.5,5.7,3.6,8.8,5c-4.1-0.8-8.5-2-11.3-5.2
	c-3-3.5-4.6-8-7.6-11.6c3.8,1.9,8.1,2.8,11.6,5.3c-1.2-5-0.8-10.1-1.5-15.2c1.7,3.6,5.4,5.7,7.5,8.9c1.4,2.1,2.4,4.4,2.9,6.9
	C30.2,17,31,8.3,31.6,0z"/>
<g>
	<path fill="#020101" d="M46.7,47c0.8-0.3,1.9-0.3,2.6,0.4c1,0.8,0.7,2.8-0.7,3.1c-0.8,0-1.7,0.1-2.3-0.6
		C45.3,49.2,45.8,47.6,46.7,47z M46.5,47.5c-0.4,0.5-0.4,1.3-0.6,1.9c0.9,0.5,1.8,1.2,2.9,0.8c0.3-1.2-1.3-1.9-1.9-0.8
		c0-0.4,0-1.1,0-1.4c0.2,0.2,0.7,0.5,0.9,0.7c0.2-0.2,0.6-0.5,0.8-0.7c0,0.2,0,0.6,0,0.8l0.6,1.1c0.3-0.6,0.9-1.5,0.2-2
		C48.6,47,47.4,47.1,46.5,47.5z"/>
</g>
<path fill="#010101" d="M3.1,47.4c0.6,0.1,1.2,0.3,1.8,0.5c-0.6,1.2-1.3,2.4-1.1,3.9c0.4,0,1.3,0.1,1.7,0.2
	c-0.5,0.3-1.1,0.5-1.7,0.6c-0.5,3.3,0.7,6.7-0.5,9.9c-0.3-0.4-0.7-0.8-1-1.3C2.8,58.3,3,55.4,3,52.5c-1.8,0.2-1.1,2.2-1.5,3.4
	c-0.5-0.2-1-0.5-1.5-0.9c0.3-0.8,0.5-1.7,0.9-2.5c0.6-0.4,1.3-0.3,1.9-0.4C3,50.6,2.8,49,3.1,47.4z"/>
<path fill="#010101" d="M36.5,47.4c0.7,0,1.5-0.1,2.1,0.3c0.1,0.8-0.2,1.6-0.3,2.4c1.3-0.2,2.9-1.6,3.9-0.1
	c-0.7,0.8-1.5,1.5-2.5,0.8c-0.7,0.2-1.4,0.5-2.1,0.8c-0.4,0.7-0.6,1.4-0.9,2.1c2.7-0.5,5.4-1.4,8.2-1.7c0.4,0.5,0.9,1,1.3,1.4
	c-0.5,1.7-1,3.3-1.3,5.1c-0.2,1.2-0.6,2.7-1.9,3.1c-0.7-0.5-1.3-1-1.9-1.6c0.7-0.1,1.5,0.1,2.1-0.4c0.8-1,0.9-2.3,1.1-3.5
	c0.1-0.8,0.5-2-0.4-2.5c-1.3-0.3-2.6,0.1-3.9,0.2c0.2,0.8,0.3,1.6,0.1,2.4c0.4,0,1.2,0.1,1.6,0.1c-0.6,1.1-2.4,0.4-2.7,1.7
	c0.8,0,1.6,0,2.4,0.1c-0.2,1.1-1.4,0.8-2.1,1.1c-0.4,1.4,0.4,3.3-0.7,4.3c-0.3-1.3-0.3-2.6-0.3-4c-0.9,0.2-1.8,0.5-2.7,0.6
	c0.7-0.6,1.5-1,2.3-1.4c0.1-0.3,0.2-0.8,0.3-1.1c-0.7,0-1.4-0.1-2.1-0.1c0.5-0.3,0.9-0.6,1.4-0.8c0-0.3-0.1-1-0.1-1.3
	c0.2,0.4,0.5,0.8,0.7,1.3c0.6-0.2,1.3-0.4,1.9-0.5c0.1-0.7,0.1-1.4,0.2-2.1c-2,0.5-4,0.5-6.1,0.7c0,1.7,0.1,3.5-0.1,5.2
	c0,0.5-0.2,0.8-0.6,1.1c-0.6-2.3-0.1-4.8-0.9-7.1c0.6,0.1,1.1,0.2,1.7,0.3c0.5-0.2,1.1-0.4,1.6-0.6c0.2-0.7,0.3-1.4,0.5-2.1
	c-0.9,0.5-1.6,0.2-2.3-0.5c0.7-0.7,1.8-0.6,2.7-0.9C37.2,49.6,36.8,48.4,36.5,47.4z"/>
<path fill="#020101" d="M19.7,48.6c1.2,0.1,2.4,0.6,2.6,1.9c-0.3,0.2-0.7,0.3-1,0.5C20.8,50.2,20.2,49.4,19.7,48.6z"/>
<path fill="#010101" d="M6.2,50.7c2.4,0.2,4.8-1,7.2-0.7c0,0.3,0,0.8,0,1.1c-2.2,1.5-4.7,3.5-4.9,6.4c2.6,1,6.1,0.5,7.7-2
	c0.1,1.4-0.1,3.2-1.5,3.9c-1.5,0.6-3.3,0.6-4.9,0.4c-1.3-0.3-3-1.1-2.9-2.7c0.4-2.3,2.5-3.7,4-5.4c-1.2,0-2.2,0.5-3.3,0.9
	C7.1,52,6.7,51.4,6.2,50.7z"/>
<path fill="#010101" d="M22.5,52.7c1.5-0.4,3.1-0.6,4.6-1c1.1-0.2,2.7-0.4,3.1,0.9c-1,0.2-1.9,0.4-2.9,0.6c0.1,1.9-1.1,3.2-2.1,4.6
	c1.5,0,3-0.3,4.5-0.5c0.7-0.1,1.2,0.5,1.6,1c-0.7,1-1.9,0.2-2.9,0.3c-1.9,0.1-3.7,0.9-5.7,1c-0.7,0-1-0.6-1.3-1.1
	c0.9-0.4,2-0.3,2.6-1.1c0.8-1.1,1.1-2.5,1.4-3.8C24.5,53.6,22,54.4,22.5,52.7z"/>
<path fill="#030000" d="M17.5,51.9c1,0.2,2.2,0.8,2.4,2c0.2,0.5-0.3,1.2-0.9,0.9C18.3,53.9,17.9,52.9,17.5,51.9z"/>
<path fill="#020101" d="M17.2,58.9c1.1-0.6,1.9-1.6,2.8-2.6c-0.5,1.7,0.2,4-1.6,5C17.9,60.5,17.6,59.7,17.2,58.9z"/>
</svg>
