<?xml version="1.0" encoding="utf-8"?>
<!-- Generator: Adobe Illustrator 18.1.1, SVG Export Plug-In . SVG Version: 6.00 Build 0)  -->
<svg version="1.1" id="图层_1" xmlns="http://www.w3.org/2000/svg" xmlns:xlink="http://www.w3.org/1999/xlink" x="0px" y="0px"
	 viewBox="0 0 38.6 52.5" enable-background="new 0 0 38.6 52.5" xml:space="preserve">
<g>
	<path fill="#037ABA" d="M14.8,0.6c6.1-1.7,13.1,0.3,17.3,5c-0.1,0.8-0.7,1.3-1.1,2c0.6,0.8,1.2,1.7,1.9,2.4c0.7-0.2,1.9-1.1,2.3,0
		c3.9,7.2,1.9,16.9-4.4,22.1c-3.3,2.7-7.5,4.4-11.8,4.2c-6.7,0.1-13.2-4-16.1-10c-2.6-5-2.5-11.4,0.2-16.3C3.7,9,4.9,9.8,5.6,10
		c0.7-0.8,1.3-1.7,1.8-2.6C7,6.9,6.5,6.4,6.1,5.9C8.2,3.1,11.5,1.5,14.8,0.6z M17.8,1.2c0.2,1.2,0.2,2.4,0,3.6c0.8,0,1.7,0.1,2.5,0
		c1.3-0.4,1.5-2.3,0.5-3.1C19.9,1.1,18.8,1.3,17.8,1.2z M9.3,4.4c0.9,0.9,1.6,1.9,1.9,3.2C11.6,7.4,12,7.2,12.4,7
		c-0.6-1-1.1-2-1.5-3.1c1.8-0.3,1.7,1.7,1.9,2.9c1.3-0.8,1.2-2.6,0-3.5C11.5,2.7,10.4,3.8,9.3,4.4z M26.8,3C26.6,4.1,26,5.2,25,5.9
		c0.9,0.6,1.8,1.2,2.7,1.8c0.4-0.9,1-1.8,1.8-2.5C28.8,4.2,27.8,3.5,26.8,3z M10.3,9.5c1.1,1.4,2.8,2.9,1.8,4.9
		c-1.5,0.2-2.7-0.8-3.8-1.6c0.4,0,1.1-0.1,1.5-0.1c-0.3-0.3-0.4-1.3-1-0.9C6.9,14.4,6.3,17.8,7,21c-0.1,0.2-0.4,0.7-0.6,0.9
		c-0.3-0.4-0.5-0.7-0.8-1.1c-0.9,0.4-1.9,0.6-2.8,0.7c0.2,0.8,0.3,1.7,0.7,2.5C4.2,24.1,5,24,5.7,24.1c-0.4,0.5-1,0.9-1.3,1.5
		c-0.1,0.8,0.6,1.5,1.1,2c1.1,0.4,1.9-0.7,2.8-1.2c0.1,1.3-1.3,1.9-1.9,2.9C7.2,29.8,8,30.6,9,30.9c0.1,0.2,0.3,0.5,0.5,0.6
		c0,0.8,1,0.9,1.6,1.3c0.3,0.6,1,0.7,1.6,0.9c0.9,0.2,1.7,0.6,2.6,0.8c0.1-0.5,0.3-1,0.4-1.5c-0.6,0.2-1.1,0.6-1.7,0.6
		c0-0.9,1.2-2,0.6-2.8c-0.2-0.2-0.5-0.5-0.7-0.7c0.2-0.1,0.5-0.3,0.7-0.4c3.1,1.3,6.7,1.2,9.8-0.1c3.8-1.8,6.8-5.5,7.3-9.8
		c0.3-3-0.2-6.2-2.1-8.5c-0.2,0.5-0.4,1-0.6,1.5c0.5-0.1,0.9-0.1,1.4-0.1c-1,0.8-2.1,1.4-3.2,1.9c-0.5-0.6-1-1.3-1.4-1.9
		c0.7-1.1,1.6-2.2,2.6-3.1c-2-2.3-4.9-3.8-7.9-4C16.6,5.4,12.9,6.9,10.3,9.5z M6.8,10.1c0.9,0.4,1.9,0.5,2.8,1.1
		c0.7,0.9,1.1,2.1,2,2.9C12.6,11.5,9.4,10,8.3,8C7.5,8.4,7,9.2,6.8,10.1z M30.1,8.2c-1.1,1.3-2.4,2.5-3.4,3.9
		c-0.7,0.8-0.1,1.8,0.7,2.1c0.5-1,0.8-2.4,1.7-3.1c0.9-0.4,1.8-0.6,2.6-1C31.4,9.4,31.1,8.1,30.1,8.2z M3.9,14.3
		c0.5,0.2,1.1,0.4,1.5,0.7C5.1,15.7,4,15.7,3.6,15c-0.2-0.1-0.7-0.1-0.9-0.2C2.7,15.1,2.9,15.7,3,16l0.4,0.1
		c-0.4,0.3-0.5,0.6-0.3,1.1l-0.5,0.1c-0.1,0.9-0.4,2,0.2,2.8c1.2,0.7,3,0.4,3.1-1.3C5.5,19,5,19.2,4.5,19.4
		c-0.4-0.1-1.4,0.2-1.4-0.4c-0.3-1.3,1.9-1.2,2-0.1c0.2-0.2,0.5-0.5,0.7-0.7c-0.2-0.3-0.7-1-1-1.3l0-0.2C6,16,6,14.7,6.3,13.6
		c-0.3,0.1-0.9,0.2-1.2,0.2c-0.6-0.3-1.2-0.6-1.8-0.9C2.6,13.4,3,15,3.9,14.3z M33.4,14.1c0.9-0.1,1.4,0.2,1.4,1.1
		c-0.3-0.2-1-0.7-1.3-0.9c0,0.4,0.1,1.1,0.1,1.5c-1-0.5,0.1-2.3-1.4-1.9c0.4,1.4,0,3.1,1.4,4c-1.3,0.2-0.8,1.5-1,2.5
		c1.1-0.5,2.2-0.6,3.3,0c0-0.3,0.1-1,0.1-1.3c-0.5-0.1-1-0.1-1.5-0.1c0-0.2,0-0.6,0-0.9c0.5,0.1,1,0.2,1.5,0.3
		c0-0.3-0.1-0.9-0.1-1.2c-0.8,0-1.8,0.1-2.3-0.6c0.5-0.5,1.9,0.2,2.2-0.6c-0.1-0.9-0.3-1.7-0.5-2.6C34.5,13.5,33.9,13.8,33.4,14.1z
		 M32,21.4c0.3,1.4,1.9,1.8,2.9,2.7c0-0.3,0.1-0.9,0.2-1.2c-0.5-0.1-1.1-0.1-1.3-0.7c0.4,0.1,1.1,0.2,1.5,0.2
		c0.1-0.4,0.4-1.1,0.6-1.4C34.6,21.2,33.3,21.5,32,21.4z M30.8,25.8c0.4,0.8,1.5,1.5,2.4,1.2c0.6-0.6,0.9-1.4,1.2-2.2
		c-0.3-0.1-0.9-0.2-1.2-0.3c0.1,0.5,0.3,0.9,0.4,1.4c-1.1,0.3-2.2-0.4-2.1-1.6c0.3,0,1,0,1.3,0.1c-0.3-0.3-0.5-0.7-0.8-1
		C31.7,24.2,30.9,24.8,30.8,25.8z M28.7,29.2c-0.3-0.1-0.8-0.2-1.1-0.3c-0.7,1-2,1.2-2.9,2c0.2,0.6,0.4,1.1,0.8,1.5l0.1,0.2
		c-0.2,0.2-0.5,0.7-0.7,1c-0.9-0.7-1.2-2.4-2.6-2.2c-0.1,1.1-0.2,2.2-0.3,3.4c1.1-0.4,2.4-0.4,3.3-1.3c1.2,0,2.4-0.5,2.9-1.7
		c-0.6-0.5-1.1-1.1-1.2-2c1.3-0.3,1.8,1,2.8,1.4c1.1-0.5,0-1.4-0.4-2c0-0.6,0-1.2,0-1.8C28.5,27.5,28.4,28.4,28.7,29.2z M18.3,31.8
		c0.1,1.1,0,2.2,0,3.3c0.9-0.1,1.7-0.1,2.6-0.2c0.4-0.9,0.1-1.9,0.1-2.9C20,31.9,19.2,31.8,18.3,31.8z"/>
</g>
<g>
	<path fill="#FDFEFE" d="M17.8,1.2c1,0,2.1-0.2,3,0.5c1,0.8,0.8,2.7-0.5,3.1c-0.8,0.1-1.6,0.1-2.5,0C18.1,3.7,18,2.4,17.8,1.2z
		 M19.1,1.7c0,0.9,0,1.7,0,2.6c0.3,0,0.8-0.1,1-0.1C20.6,3.2,20.3,2,19.1,1.7z"/>
</g>
<path fill="#0F7EB0" d="M19.1,1.7c1.2,0.2,1.5,1.4,1,2.5c-0.3,0-0.8,0.1-1,0.1C19.1,3.4,19.1,2.6,19.1,1.7z"/>
<path fill="#FDFEFE" d="M9.3,4.4c1.1-0.5,2.2-1.7,3.5-1c1.2,0.8,1.3,2.6,0,3.5c-0.2-1.2-0.1-3.2-1.9-2.9C11.2,5,11.8,6,12.4,7
	c-0.4,0.2-0.8,0.4-1.2,0.6C11,6.3,10.2,5.3,9.3,4.4z"/>
<g>
	<path fill="#FDFEFE" d="M26.8,3c1,0.5,2,1.2,2.6,2.2c-0.7,0.7-1.3,1.6-1.8,2.5c-0.9-0.5-1.8-1.1-2.7-1.8C26,5.2,26.6,4.1,26.8,3z
		 M28.2,5.3c0-0.2-0.1-0.6-0.1-0.8C26.9,3.7,27.1,5.9,28.2,5.3z M26.6,5.7c-0.2,0.6,0,0.8,0.6,0.7C27.4,5.8,27.2,5.6,26.6,5.7z"/>
</g>
<path fill="#023221" d="M28.2,5.3c-1.1,0.6-1.3-1.6-0.1-0.8C28.1,4.7,28.2,5.1,28.2,5.3z"/>
<path fill="#4D7A9C" d="M26.6,5.7c0.6-0.1,0.8,0.1,0.6,0.7C26.6,6.6,26.4,6.3,26.6,5.7z"/>
<g>
	<path fill="#FDFEFD" d="M10.3,9.5c2.6-2.6,6.3-4.1,10-3.7c3,0.2,5.9,1.6,7.9,4c-1,0.9-1.9,1.9-2.6,3.1c0.5,0.7,0.9,1.3,1.4,1.9
		c1.1-0.5,2.3-1.1,3.2-1.9c-0.5,0-1,0.1-1.4,0.1c0.2-0.5,0.4-1,0.6-1.5c1.9,2.3,2.4,5.6,2.1,8.5c-0.5,4.3-3.5,8-7.3,9.8
		c-3.1,1.3-6.7,1.4-9.8,0.1c-3.7-1.6-6.5-5-7.4-8.9c-0.7-3.2-0.1-6.6,1.7-9.3c0.6-0.4,0.7,0.6,1,0.9c-0.4,0-1.1,0.1-1.5,0.1
		c1.2,0.8,2.3,1.8,3.8,1.6C13,12.4,11.3,10.9,10.3,9.5z M18.3,7c0.3,0.6,1.9,0.6,2.2,0C19.9,6.7,19,6.7,18.3,7z M16.6,8.6
		c-0.1,0.1-0.2,0.4-0.3,0.5c0.1,0.2,0.4,0.7,0.6,1c-0.8,0-1.5-0.1-2.3,0c-1.1,1.2-1.4,2.7-1.4,4.3c0.4,1.1,1.7,2.5,0.6,3.6
		c-0.2,0.2-0.5,0.6-0.7,0.7c-0.1-0.7-0.2-1.4-0.2-2.1c0,1.2,0,2.4-0.1,3.6c0.5,0,1,0,1.4,0.2c0.1,0.6,0.2,1.2,0.3,1.9
		c0.8,0.8,2,1.3,2.9,0.4c0.1-0.8,0.4-1.6-0.4-2.1c0.1-0.8,1-1.3,1.6-1.8c-0.2-1.2,0.3-2.4,0.7-3.5c1.5-1,3.3-2.4,5.3-1.5
		c0.3-0.9,0.5-2.1-0.2-2.9c-0.9,0.1-1.7,0.4-2.5-0.1c0.5-0.4,0.9-0.7,1.4-1.1c-1.6,0.5-3.3,0.3-4.9,0.8c-0.1,1.2-0.9,2-2,2.4
		c-0.1-0.3-0.2-0.9-0.3-1.2c-0.8,0.5-1.7,1.1-2.5,1.6c0.1-1.1,0.5-2.1,1.1-3c0.5,0,1.4,0.1,1.8,0.1c-0.2,0.3-0.6,0.8-0.8,1
		c0.9-0.4,1.6-1,2.4-1.6c-0.3,0-1,0.1-1.4,0.1C16.7,9.4,16.7,8.8,16.6,8.6z M23.8,17.9c-0.1-1,0.6-1.3,1.5-1.2
		c-0.4-0.2-0.8-0.5-1.1-0.7c0.8-0.4,0.6-1.4,0.7-2.1C24.4,15.2,23.5,16.4,23.8,17.9z M20.8,15.9c0.3,0.3,0.5,0.6,0.8,0.9
		c-0.2,0.1-0.7,0.3-0.9,0.4c0.3,0,0.9,0.1,1.2,0.2c-0.4-0.6,0.1-1,0.4-1.5C21.8,15.9,21.3,15.9,20.8,15.9z M24.2,18.2
		c0.1,0.2,0.2,0.7,0.2,0.9c-0.3,0-0.9-0.1-1.2-0.1c0.2,0.4,0.1,0.7-0.1,1c-0.3-0.6-1.7,0-0.9,0.5c0.5,0.6,1.3,0.8,2.1,0.7
		c0.2-1,0.3-1.9,0.4-2.9C24.7,18.3,24.4,18.2,24.2,18.2z M13.6,22.2c-0.6,0.4-0.9,2-0.2,2.3C13.7,23.8,14.1,22.7,13.6,22.2z
		 M21.5,22.1c0,0.4-0.4,0.9,0,1.2c1,1,2.7,0.9,3.8,1.8c0,0.1,0,0.4,0,0.6c-1.4,0.9-2.8,1.9-4.2,2.9c-1.5-1.3-3.1-2.5-4.8-3.7
		c0-0.2-0.1-0.6-0.1-0.8c-0.2,0.1-0.5,0.2-0.7,0.3c-0.4,0.6-0.7,1.2-1.1,1.9c0.5-0.3,0.9-1.4,1.6-1.1c1.6,1,3.1,2.1,4.4,3.4
		c0.3,0,0.8,0,1,0c1.3-1.1,2.8-2,4.1-3c0-0.2,0-0.7-0.1-0.9c-1.3-0.4-2.6-0.8-3.7-1.5c-0.7-1.3,1.5-0.8,2.3-1.1
		C23.3,22.2,22.4,22.1,21.5,22.1z"/>
</g>
<path fill="#C4D2D8" d="M18.3,7c0.7-0.3,1.5-0.4,2.2,0C20.3,7.6,18.6,7.6,18.3,7z"/>
<path fill="#FCFEFD" d="M6.8,10.1C7,9.2,7.5,8.4,8.3,8c1.1,2,4.3,3.5,3.2,6.1c-0.9-0.8-1.3-2-2-2.9C8.7,10.7,7.7,10.5,6.8,10.1z"/>
<path fill="#F9FDFD" d="M30.1,8.2c0.9-0.1,1.3,1.2,1.7,1.9c-0.9,0.4-1.8,0.7-2.6,1c-1,0.7-1.2,2-1.7,3.1c-0.8-0.3-1.4-1.3-0.7-2.1
	C27.7,10.7,29,9.5,30.1,8.2z"/>
<path fill="#037FC2" d="M16.6,8.6c0,0.3,0.1,0.8,0.1,1.1c0.3,0,1-0.1,1.4-0.1c-0.8,0.6-1.5,1.2-2.4,1.6c0.2-0.3,0.6-0.8,0.8-1
	c-0.5,0-1.4-0.1-1.8-0.1c-0.6,0.9-0.9,1.9-1.1,3c0.8-0.5,1.7-1.1,2.5-1.6c0.1,0.3,0.2,0.9,0.3,1.2c1.1-0.4,1.9-1.2,2-2.4
	c1.6-0.5,3.3-0.3,4.9-0.8c-0.5,0.4-0.9,0.7-1.4,1.1c0.8,0.5,1.7,0.2,2.5,0.1c0.7,0.8,0.4,1.9,0.2,2.9c-1.9-0.8-3.7,0.5-5.3,1.5
	c-0.4,1.1-0.8,2.3-0.7,3.5c-0.6,0.5-1.5,0.9-1.6,1.8c0.7,0.5,0.5,1.4,0.4,2.1c-0.9,0.9-2.1,0.4-2.9-0.4c0-1.2,0.3-2.4,0.7-3.5
	c-0.5-0.3-1-0.5-1.5-0.8c1.1-1.1-0.2-2.4-0.6-3.6c0-1.5,0.3-3.1,1.4-4.3c0.8-0.1,1.5,0,2.3,0c-0.1-0.2-0.4-0.7-0.6-1
	C16.4,8.9,16.6,8.7,16.6,8.6z"/>
<path fill="#FDFEFE" d="M3.9,14.3C3,15,2.6,13.4,3.3,12.9c0.6,0.3,1.2,0.6,1.8,0.9c0.3-0.1,0.9-0.2,1.2-0.2C6,14.7,6,16,4.9,16.7
	c-0.5-0.2-1-0.4-1.5-0.5L3,16c-0.1-0.3-0.3-0.9-0.4-1.2c0.2,0,0.7,0.1,0.9,0.2c0.5,0.6,1.5,0.7,1.9-0.1C5,14.6,4.4,14.5,3.9,14.3z"
	/>
<g>
	<path fill="#F5FEFE" d="M33.4,14.1c0.6-0.4,1.2-0.7,1.8-0.9c0.2,0.9,0.4,1.7,0.5,2.6c-0.4,0.8-1.7,0.1-2.2,0.6
		c0.6,0.7,1.5,0.7,2.3,0.6c0,0.3,0.1,0.9,0.1,1.2c-0.5-0.1-1-0.2-1.5-0.3c0,0.2,0,0.6,0,0.9c0.5,0,1,0.1,1.5,0.1
		c0,0.3-0.1,1-0.1,1.3c-1-0.6-2.2-0.6-3.3,0c0.1-0.9-0.4-2.3,1-2.5c-1.4-0.8-1.1-2.6-1.4-4c1.6-0.4,0.4,1.5,1.4,1.9
		c0-0.4-0.1-1.1-0.1-1.5c0.3,0.2,1,0.7,1.3,0.9C34.8,14.3,34.2,14,33.4,14.1z M33.4,18.8"/>
</g>
<path fill="#037ABA" d="M23.8,17.9c-0.3-1.5,0.6-2.7,1-4c-0.1,0.7,0.1,1.7-0.7,2.1c0.4,0.2,0.8,0.4,1.1,0.7
	C24.5,16.6,23.8,16.9,23.8,17.9z"/>
<path fill="#037ABA" d="M20.8,15.9c0.5,0,1,0,1.5,0c-0.2,0.5-0.8,0.9-0.4,1.5c-0.3,0-0.9-0.1-1.2-0.2c0.2-0.1,0.7-0.3,0.9-0.4
	C21.3,16.5,21.1,16.2,20.8,15.9z"/>
<path fill="#4C93B0" d="M3.4,16.2c0.5,0.1,1,0.3,1.5,0.5l0,0.2c-0.6,0.2-1.2,0.3-1.8,0.4C2.9,16.8,3,16.5,3.4,16.2z"/>
<path fill="#298FCF" d="M12.8,20.1c0.1-1.2,0-2.4,0.1-3.6c0.1,0.7,0.2,1.4,0.2,2.1c0.2-0.2,0.5-0.6,0.7-0.7c0.5,0.3,1,0.5,1.5,0.8
	c-0.4,1.1-0.7,2.3-0.7,3.5c-0.1-0.6-0.2-1.2-0.3-1.9C13.8,20.1,13.3,20,12.8,20.1z"/>
<path fill="#DDF5FA" d="M3.1,17.2c0.6-0.1,1.2-0.2,1.8-0.4c0.2,0.3,0.7,1,1,1.3c-0.2,0.2-0.5,0.5-0.7,0.7c-0.1-1.1-2.3-1.2-2,0.1
	c0.1,0.7,1,0.3,1.4,0.4C5,19.2,5.5,19,5.9,18.9c-0.1,1.7-1.9,2-3.1,1.3c-0.6-0.8-0.3-1.9-0.2-2.8L3.1,17.2z"/>
<path fill="#9EC7D6" d="M24.2,18.2c0.2,0,0.5,0.1,0.7,0.2c-0.1,1-0.3,1.9-0.4,2.9c-0.8,0-1.6-0.1-2.1-0.7c0.2-0.1,0.6-0.4,0.9-0.5
	c0.2-0.3,0.2-0.7,0.1-1c0.3,0,0.9,0.1,1.2,0.1C24.4,18.9,24.3,18.4,24.2,18.2z"/>
<path fill="#4A8293" d="M33.4,18.8"/>
<path fill="#588EAD" d="M22.3,20.5c-0.8-0.4,0.5-1.1,0.9-0.5C23,20.2,22.6,20.4,22.3,20.5z"/>
<g>
	<path fill="#FDFEFE" d="M2.8,21.5c1-0.1,1.9-0.3,2.8-0.7c0.3,0.4,0.5,0.7,0.8,1.1c0,0.9-0.3,1.7-0.8,2.4c0.3,0,1-0.1,1.4-0.1
		c0.7,1.7,2.1,3.1,3.4,4.4c-0.5,0.7-1,1.5-1.4,2.3c-1-0.3-1.8-1.1-2.6-1.6c0.7-1,2-1.6,1.9-2.9c-0.8,0.5-1.6,1.7-2.8,1.2
		c-0.5-0.5-1.2-1.2-1.1-2c0.3-0.6,0.8-1,1.3-1.5c-0.7,0-1.5,0.1-2.1-0.1C3.1,23.2,3,22.3,2.8,21.5z M3.6,22.4c0,1.5,1.9,0.7,2.4-0.2
		C5.2,22.1,4.4,22.1,3.6,22.4z M5.4,26.9c0.8,0,2.4-1,1.3-1.8C5.8,25.3,4.9,25.8,5.4,26.9z M8.6,28.1c-0.2,0.7,0.1,0.9,0.7,0.7
		C9.6,28.1,9.3,27.9,8.6,28.1z M7.7,29c-0.5,0.6,0.5,1.3,1,0.9C9.2,29.3,8.2,28.5,7.7,29z"/>
</g>
<path fill="#067BB7" d="M7,21c0.9,3.9,3.8,7.3,7.4,8.9c-0.2,0.1-0.5,0.3-0.7,0.4c0.2,0.2,0.5,0.5,0.7,0.7c-0.2,0-0.5,0.1-0.7,0.1
	c-0.4,0.9-0.7,1.8-1.1,2.8c-0.6-0.2-1.3-0.3-1.6-0.9c0.2,0.1,0.7,0.3,0.9,0.4c0-0.7,0.1-1.3,0.1-2c-0.3-0.1-0.8-0.4-1.1-0.6
	c0.2-0.1,0.6-0.2,0.8-0.3c0.1,0.3,0.4,0.9,0.5,1.2c0.3-0.4,0.6-0.8,0.9-1.2c-0.8-0.4-1.6-0.8-2.4-1.1c-0.5,0.8-1,1.6-1.4,2.4
	c-0.1-0.2-0.3-0.5-0.5-0.6c0.4-0.8,0.9-1.5,1.4-2.3C9.1,27.3,7.8,26,7,24.2c-0.3,0-1,0.1-1.4,0.1c0.5-0.7,0.8-1.6,0.8-2.4
	C6.6,21.6,6.9,21.2,7,21z"/>
<path fill="#FDFEFE" d="M32,21.4c1.3,0.1,2.6-0.2,3.8-0.5c-0.1,0.4-0.4,1.1-0.6,1.4c-0.4-0.1-1.1-0.2-1.5-0.2
	c0.2,0.6,0.8,0.6,1.3,0.7c0,0.3-0.1,0.9-0.2,1.2C33.9,23.2,32.3,22.8,32,21.4z"/>
<path fill="#037ABA" d="M3.6,22.4c0.8-0.3,1.6-0.3,2.4-0.2C5.5,23.1,3.6,23.9,3.6,22.4z"/>
<path fill="#B5CED1" d="M13.6,22.2c0.4,0.5,0.1,1.7-0.2,2.3C12.7,24.1,13,22.6,13.6,22.2z"/>
<path fill="#037ABA" d="M21.5,22.1c0.9,0,1.7,0.1,2.6,0.1c-0.7,0.2-2.9-0.3-2.3,1.1c1.2,0.6,2.5,1,3.7,1.5c0,0.2,0,0.7,0.1,0.9
	c-1.4,1-2.8,2-4.1,3c-0.2,0-0.8,0-1,0c-1.3-1.3-2.8-2.4-4.4-3.4c-0.7-0.3-1.1,0.7-1.6,1.1c0.4-0.6,0.7-1.2,1.1-1.9
	c0.2-0.1,0.5-0.2,0.7-0.3c0,0.2,0.1,0.6,0.1,0.8c1.7,1.1,3.3,2.3,4.8,3.7c1.3-1,2.8-2,4.2-2.9c0-0.1,0-0.4,0-0.6
	c-1.1-0.9-2.7-0.8-3.8-1.8C21.2,23,21.5,22.5,21.5,22.1z"/>
<path fill="#FDFEFE" d="M30.8,25.8c0.1-1,0.9-1.6,1.3-2.4c0.3,0.3,0.5,0.7,0.8,1c-0.3,0-1,0-1.3-0.1c-0.1,1.2,1.1,1.9,2.1,1.6
	c-0.1-0.5-0.3-0.9-0.4-1.4c0.3,0.1,0.9,0.2,1.2,0.3c-0.4,0.7-0.6,1.6-1.2,2.2C32.4,27.3,31.3,26.6,30.8,25.8z"/>
<path fill="#037ABA" d="M5.4,26.9c-0.5-1.1,0.4-1.6,1.3-1.8C7.8,25.9,6.2,26.8,5.4,26.9z"/>
<g>
	<path fill="#EDFEFF" d="M28.7,29.2c-0.2-0.8-0.2-1.6,0.8-1.7c0,0.6,0,1.2,0,1.8c0.4,0.6,1.5,1.5,0.4,2c-1-0.4-1.5-1.7-2.8-1.4
		c0,0.8,0.6,1.4,1.2,2c-0.5,1.2-1.7,1.6-2.9,1.7c-0.9,0.9-2.2,0.9-3.3,1.3c0.1-1.1,0.2-2.2,0.3-3.4c1.4-0.3,1.7,1.5,2.6,2.2
		c0.2-0.2,0.5-0.7,0.7-1c0.5,0.1,1.4,0.3,1.6-0.4c-0.2-0.8-1.3-0.2-1.6,0.2c-0.4-0.5-0.7-1-0.8-1.5c0.9-0.8,2.2-1,2.9-2
		C27.8,28.9,28.4,29.1,28.7,29.2z M25.8,30.5c-0.2,0.7,0,0.9,0.7,0.7C26.8,30.5,26.6,30.3,25.8,30.5z M22.9,33.1"/>
</g>
<path fill="#037ABA" d="M8.6,28.1c0.7-0.2,0.9,0,0.7,0.7C8.7,29,8.4,28.8,8.6,28.1z"/>
<path fill="#037ABA" d="M7.7,29c0.5-0.5,1.5,0.3,1,0.9C8.2,30.3,7.2,29.6,7.7,29z"/>
<g>
	<path fill="#FDFEFE" d="M10.9,29.2c0.8,0.4,1.6,0.8,2.4,1.1c-0.3,0.4-0.6,0.8-0.9,1.2c-0.1-0.3-0.4-0.9-0.5-1.2
		c-0.2,0.1-0.6,0.2-0.8,0.3c0.3,0.1,0.8,0.4,1.1,0.6c0,0.7-0.1,1.3-0.1,2c-0.2-0.1-0.7-0.3-0.9-0.4c-0.6-0.4-1.6-0.5-1.6-1.3
		C9.9,30.8,10.4,30,10.9,29.2z M10.7,31.4c-0.2,0.7,0,0.9,0.7,0.7C11.6,31.5,11.4,31.2,10.7,31.4z"/>
</g>
<path fill="#709EAE" d="M25.8,30.5c0.7-0.2,1,0,0.7,0.7C25.9,31.4,25.6,31.2,25.8,30.5z"/>
<path fill="#FDFEFE" d="M13.7,31c0.2,0,0.5-0.1,0.7-0.1c0.6,0.9-0.6,1.9-0.6,2.8c0.6,0,1.2-0.4,1.7-0.6c-0.1,0.5-0.2,1-0.4,1.5
	c-0.8-0.3-1.7-0.6-2.6-0.8C13,32.9,13.3,31.9,13.7,31z"/>
<path fill="#6193AB" d="M10.7,31.4c0.7-0.2,1,0,0.7,0.7C10.7,32.3,10.5,32.1,10.7,31.4z"/>
<g>
	<path fill="#F4FFFF" d="M18.3,31.8c0.9,0.1,1.7,0.1,2.6,0.2c0,0.9,0.3,2-0.1,2.9C20,35,19.1,35,18.3,35.1
		C18.3,34,18.4,32.9,18.3,31.8z M19.5,32.7 M19.5,33.9"/>
</g>
<path fill="#639AAE" d="M25.5,32.4c0.4-0.4,1.4-1,1.6-0.2c-0.2,0.7-1,0.5-1.6,0.4L25.5,32.4z"/>
<path fill="#29516C" d="M19.5,32.7"/>
<path fill="#347A96" d="M22.9,33.1"/>
<path fill="#4C7C9F" d="M19.5,33.9"/>
<g>
	<path fill="#ADD6DC" d="M36.1,36.6c0.7-0.7,1.6,0,2.3,0.3l-0.2,0.3C38,37.6,37.9,38,38,38.4l0.1,0.7c-0.9,0.1-1.8,0.1-2.7-0.1
		C35.5,38.2,35.2,37.1,36.1,36.6z M36.3,37.2c0,0.3,0.1,0.9,0.1,1.3c0.3,0,0.9,0,1.2,0c0-0.3,0-0.9,0-1.3
		C37.2,37.2,36.6,37.2,36.3,37.2z"/>
</g>
<g>
	<path fill="#5CA8B8" d="M36.3,37.2c0.3,0,0.9,0,1.3,0c0,0.3,0,0.9,0,1.3c-0.3,0-0.9,0-1.2,0C36.3,38.2,36.3,37.5,36.3,37.2z
		 M36.9,37.8"/>
</g>
<path fill="#9AB4B9" d="M38,38.4c-0.1-0.4-0.1-0.8,0.2-1.2C38.8,37.8,38.7,38.2,38,38.4z"/>
<path fill="#A7F6FC" d="M36.9,37.8"/>
<g>
	<path fill="#0473A4" d="M0.1,40.7c1.3,0,2.7-0.2,4,0.1c1.7,0.7,1.7,3.6,0,4.2c-1.3,0.5-2.8,0.2-4.1,0.2c0.2-0.1,0.6-0.4,0.8-0.5
		c0.1-1.1,0.2-2.2,0.2-3.3C0.7,41.2,0.4,41,0.1,40.7z M2,41.2c0,1.2,0.1,2.4,0.2,3.7c0.6-0.2,1.4-0.2,1.6-0.9
		C4.5,42.6,3.7,40.8,2,41.2z"/>
</g>
<g>
	<path fill="#0677A7" d="M7.3,40.8c1.7-0.9,4.1,0.4,3.8,2.4c0,2.5-3.6,3.1-4.9,1.2C5.6,43.2,5.9,41.3,7.3,40.8z M8.2,41.2
		c-1.4,0.8-1.1,4.4,1,3.5C10.1,43.7,10.1,40.8,8.2,41.2z"/>
</g>
<g>
	<path fill="#06769F" d="M11.7,40.7c1.4,0.1,2.8-0.2,4.1,0.3c1.3,0.5,1.4,2.1,0.9,3.3c-1.1,1.7-3.4,1.1-5,1.1
		c1.1-0.9,0.8-2.3,0.9-3.5C12.2,41.4,11.9,41.1,11.7,40.7z M13.7,41.1c0,1.2,0,2.5,0,3.7c1,0,1.9-0.6,1.8-1.6
		C15.8,42,14.8,41.1,13.7,41.1z"/>
</g>
<g>
	<path fill="#0776A5" d="M19.1,40.7c1.6-0.8,4,0.5,3.7,2.4c0,2-2.5,2.9-4.1,1.9C16.9,44.2,17.2,41.3,19.1,40.7z M19.6,41.2
		c-0.9,0.8-0.9,2.3-0.2,3.3c0.6,0.5,1.8,0.4,1.9-0.5C21.7,42.9,21.2,40.6,19.6,41.2z"/>
</g>
<g>
	<path fill="#06789F" d="M23.3,40.6c1.5,0.3,3.9-0.6,4.5,1.3c-0.3,0.4-0.5,0.8-0.8,1.2c0.7,0.4,1.3,1.2,0.5,1.9
		c-1.3,0.8-2.9,0.3-4.4,0.4c0.2-0.2,0.6-0.5,0.8-0.7C23.9,43.2,24.4,41.6,23.3,40.6z M25.2,41.4c0,0.4,0.1,1.1,0.1,1.4
		c0.4-0.2,1.2-0.2,1.1-0.9C26.5,41.4,25.6,40.8,25.2,41.4z M25.2,43.2c0,0.5,0,1,0,1.5c0.5,0,0.9,0,1.4,0
		C26.8,43.7,26.2,43,25.2,43.2z"/>
</g>
<path fill="#0575A4" d="M28.3,40.7c1.5-0.1,3.1-0.1,4.6,0c0,0.6,0,1.2,0,1.7c-0.5-0.3-0.8-0.7-1.1-1.1c-0.4-0.1-0.8-0.1-1.2-0.2
	c0,0.5,0,1.1,0,1.6c0.5-0.3,0.9-0.6,1.4-0.8c0,0.7,0,1.4,0,2.2c-0.4-0.4-0.7-1-1.4-1c-0.1,0.5-0.1,1.1,0,1.6c0.5,0,0.9-0.1,1.4-0.1
	c0.3-0.5,0.7-0.9,1.1-1.3c0,0.7,0.1,1.3,0.1,2c-1.6,0-3.2,0.1-4.8-0.1c0.3-0.3,0.6-0.6,0.9-0.8C29.1,43.2,29.6,41.5,28.3,40.7z"/>
<path fill="#096FA1" d="M33.4,40.7c1,0,2,0,3-0.1c-0.2,0.2-0.6,0.6-0.7,0.8c0,1.1,0,2.2,0,3.3c1.4,0.2,1.9-0.7,2.6-1.7
	c0,0.8,0,1.5,0,2.3c-1.6,0-3.1,0-4.7,0c1.2-1,0.8-2.6,0.8-3.9C34,41.2,33.7,41,33.4,40.7z"/>
<path fill="#037ABA" d="M14.9,47.3c1,0,2,0,3,0c0.1,0.9,0.4,1.9,0.7,2.8c-1-0.4-1.2-1.4-1.1-2.3c-0.7,0-1.4,0-2.1-0.1
	c0.2,1.1-0.2,2-1.3,2.3C14.8,49.2,14.8,48.2,14.9,47.3z"/>
<path fill="#037ABA" d="M23.4,46.9c1,1.7,0.1,3.7,0.4,5.6c-0.8-0.2-1.6-0.6-2.2-1.2c-0.4,0.4-0.9,0.9-1.4,1.2
	c1.2-1.3,1.2-3.1,1.7-4.7c-0.3-0.1-1-0.2-1.4-0.3c-0.1,1.2-0.2,2.4-0.3,3.6l-0.4,0c0-1.3,0-2.6,0-3.9c0.9,0.1,1.7,0.2,2.6,0.3
	c-0.3,1.2-0.3,2.4-0.3,3.6c0.5,0.3,1,0.6,1.5,1C23.4,50.3,23.3,48.6,23.4,46.9z"/>
<path fill="#037ABA" d="M9.3,47.4c0.9,0,1.9,0,2.8,0c0.1,1,0.2,2,1.4,2c-0.6,0.4-1.4,0.3-2.1,0.4c0.8,0.8,1.6,1.6,2.2,2.5
	c-0.5-0.2-0.9-0.4-1.4-0.6c-0.1-0.3-0.2-0.9-0.3-1.2c-0.9,0.3-0.5,1.3-0.6,1.9c-0.1,0-0.4-0.1-0.5-0.1c0-0.6,0-1.2-0.1-1.8
	c-0.4,0.5-0.9,1-1.3,1.5c0.1-0.4,0.2-0.8,0.3-1.2c-0.2-0.1-0.7-0.4-0.9-0.5c0.4,0,1.1,0.1,1.4,0.2c0.1-0.3,0.3-0.8,0.4-1
	c0.3,0,1,0.1,1.3,0.1c-0.1-0.6-0.2-1.3-0.2-1.9c-0.6,0-1.2,0-1.8,0c-0.1,0.7,0.1,1.9-0.9,1.8c0.1-0.2,0.3-0.6,0.5-0.8
	C9.4,48.4,9.4,47.7,9.3,47.4z"/>
<path fill="#037ABA" d="M25.8,47c1,0.7,0.4,1.9,0.6,2.9c0.1,1-0.1,2.4-1.3,2.6C26.4,51,25.5,48.9,25.8,47z"/>
<path fill="#037ABA" d="M27.9,47.6c0.1-0.1,0.3-0.3,0.4-0.4c0.3,1.5,0,3.1,0.1,4.7c0.6,0.1,1.2,0.2,1.8,0.4
	c-0.8,0.1-1.6,0.1-2.3,0.1C27.8,50.8,27.7,49.2,27.9,47.6z"/>
<path fill="#037ABA" d="M16.2,49c1,1.2,2,2.3,2.8,3.5c-1-0.3-1.5-1.3-2.1-2.1c-0.2,0.7,0.3,1.9-0.7,2.1c0.1-0.6,0.2-1.3,0.3-1.9
	c-0.7,0.6-1.4,1.3-2.1,1.9c0.2-0.5,0.5-0.9,0.8-1.4c-0.1-0.2-0.3-0.6-0.3-0.8c0.5,0,1,0,1.6-0.1C16.3,49.9,16.2,49.3,16.2,49z"/>
</svg>
