<?xml version="1.0" encoding="utf-8"?>
<!-- Generator: Adobe Illustrator 18.1.1, SVG Export Plug-In . SVG Version: 6.00 Build 0)  -->
<svg version="1.1" id="图层_1" xmlns="http://www.w3.org/2000/svg" xmlns:xlink="http://www.w3.org/1999/xlink" x="0px" y="0px"
	 viewBox="0 0 85.8 30.9" enable-background="new 0 0 85.8 30.9" xml:space="preserve">
<g>
	<path fill="#DE1E16" d="M76.4,0.1c2.5-0.4,5.1,0.4,6.9,2.1c2.6,2.3,3.3,6.6,1.5,9.6c-1.5,2.6-4.4,4.4-7.5,4.2
		c-4.4,0-8.3-4.3-7.8-8.7C69.8,3.7,72.8,0.6,76.4,0.1z M76.9,1c0.4,0.7,0.8,1.4,1.1,2.2c-1-0.2-1.3-1.2-2.1-1.7
		c-0.8-0.2-1.2,0.6-1.8,0.9c0.4,0.2,0.7,0.4,1.1,0.5c-0.1-0.3-0.2-0.9-0.2-1.2C76,2,76.7,2.7,77,3.7c-1.2,0-2.7,0.1-3.1,1.5
		c0.6-0.2,1.2-0.5,1.8-0.7c0.5,0.6,0.8,1.4,1.1,2.1c-0.5,0.4-1.1,0.8-1.8,0.6c-1.4-0.2-0.9-2.3-2.3-2.4c-0.2,1.8,1.3,3.5,3.2,3.2
		c-0.4,1.7,1.6,2.9,1.1,4.4c-1.1,1.6-3.1-1.7-3.8,0.5c1.1,0.2,2.2,0.6,3.4,0.7c1.1-0.1,1.6-1.4,2.1-2.2c0.6,0,1.1,0,1.7,0
		c0.2,0.8,0,2.8,1.4,2.4c0-1.2-0.3-2.5-0.9-3.5c-0.9-0.1-1.7,0.1-2.6,0C77.4,10,77.4,9,77.1,8.4c1.6,0.2,4.1,0.2,4.4-1.9
		c-0.4,0.1-0.7,0.3-1.1,0.5c-0.2-0.1-0.6-0.1-0.8-0.2c0.1-0.4,0.2-0.9,0.3-1.3c0.6-1-0.6-1.6-1.2-2.2C78,2.9,78.1,1.9,78,1.1
		C77.7,1.1,77.2,1.1,76.9,1z M79.1,2.3c-0.2,0.7,0,0.9,0.7,0.7C80,2.3,79.8,2,79.1,2.3z"/>
</g>
<path fill="#E77067" d="M79.1,2.3C79.8,2,80,2.3,79.8,3C79.1,3.2,78.9,3,79.1,2.3z"/>
<g>
	<path fill="#DBB5B1" d="M66.1,3.6c1.5-0.4,2.4,2.2,0.7,2.6C65,6.7,64.4,4.1,66.1,3.6z M66.1,4.4C65.8,5,66,5.2,66.6,5
		C66.8,4.4,66.7,4.2,66.1,4.4z"/>
</g>
<path fill="#CD817E" d="M66.1,4.4c0.6-0.2,0.8,0,0.6,0.6C66,5.2,65.8,5,66.1,4.4z"/>
<path fill="#CC2124" d="M78.7,6.7c0.4-0.4,0.9-0.8,1.3-1.3c-0.1,0.4-0.2,0.9-0.3,1.3c0.2,0.1,0.6,0.1,0.8,0.2
	c-0.8,0.7-1.8,0.7-2.8,0.6c0-0.5-0.1-0.9-0.1-1.4C77.9,6.4,78.3,6.6,78.7,6.7z"/>
<path fill="#DD1E16" d="M37.7,7.6c2-1.3,4.5-2.2,6.8-1.5c2.1,0.7,3,3.4,1.9,5.2c-1,1.9-3,2.6-4.9,3.3c2.8,0.1,5.9,0.6,7.9,2.9
	c1.6,1.4,1.7,3.8,0.8,5.6c-1.2,2.5-3.4,4.2-5.7,5.6c-4.7,2.5-10.6,2.9-15.5,0.7c-2.3-1.1-4.7-3.3-4-6.1c0.2,0.8,0.4,1.7,0.6,2.5
	c0.2-0.6,0.4-1.2,0.6-1.7c-0.3,1.4,0.3,2.7,1.5,3.4c3.5,2.4,8.2,2.1,11.9,0.2c2.6-1.2,4.8-3.4,5.7-6.2c0.7-1.9-0.4-4.1-2.1-5
	c-1.5-0.9-3.2-0.9-4.9-1c-0.3,3.1-0.4,6.3-1.9,9c-0.4,0.8-1.1,1.5-2,1.8c0.9-5.1,0.6-10.4,1.5-15.5c0.2-1.3,2.2-2,2.8-0.6
	c0.1,1.5-0.2,3.1-0.3,4.6c1.6-0.9,3.3-1.9,4.1-3.6c0.4-1,0.4-2.4-0.6-3C40.6,7.3,39.1,7.6,37.7,7.6z"/>
<path fill="#DC1D14" d="M3.3,8.8C4.8,7.6,6.8,7.7,8.5,8c1.1,0.2,2.1,1.1,2,2.3c0.1,1.4-1.3,2-2.3,2.6c-1.4,0.8-3.1,1-4.5,2
	c2.7,0.7,6.1,0.7,7.9,3.2c1.1,1.7-0.2,3.8-1.8,4.6c-3,1.6-6.6,2.5-9.9,1.5c2.2-0.4,4.6-0.7,6.4-2c0.9-0.7,2-1.9,1.4-3.1
	c-1-1.4-2.6-2.1-4.1-2.7c-0.3,2.3-0.5,4.9-2.3,6.6c0-2.2,0-4.5,0.1-6.7c-0.2-0.4-0.4-0.8-0.6-1.2c0.2-0.2,0.5-0.5,0.6-0.7
	C1.6,12.8,1.8,11.4,2,10c0.7-0.2,1.7-0.9,2,0.2c0.1,1.1,0,2.2,0,3.3c1.3-0.7,3.6-1.4,3.1-3.3C6.4,8.9,4.6,9.1,3.3,8.8z"/>
<path fill="#C6241A" d="M60,9.3c1.1-1.4,3.4-1.4,4.6-0.3c-0.1,0.8-1,0.5-1.6,0.5c-1-0.1-2,0-2.8,0.5c-0.7-0.4-1.6-0.5-2.4-0.4
	c-0.6,0-1.1,0-1.6,0C57.3,8.8,58.7,8.7,60,9.3z"/>
<path fill="#CC1E17" d="M22.4,10.1c1.3-1.5,3.2-1.2,4.9-0.7c-0.6,1.9-2.8,0-4.1,1.1c-0.3,1.2-0.4,2.4-0.7,3.6c0-1.1-0.1-2.2-0.2-3.3
	c-0.6-0.3-1.2-0.6-1.7-0.9c0.2,1,0.5,2.1,0,3.1c0-0.8,0.3-1.7-0.1-2.4c-0.3-0.1-1-0.2-1.4-0.3C20,9.3,21.3,9.5,22.4,10.1z"/>
<path fill="#D91D13" d="M57.9,9.7c0.8-0.1,1.7,0,2.4,0.4c-0.3,2.2,0,4.7-1.4,6.5c-0.6,0.9-1.7,0.7-2.6,0.8
	C56.7,14.8,59,12.3,57.9,9.7z"/>
<path fill="#D91C10" d="M20.6,9.9c0.6,0.3,1.1,0.6,1.7,0.9c0.1,1.1,0.1,2.2,0.2,3.3c0.2,2.1-1.7,4.1-3.8,3.4c0.6-1.5,1.3-3,1.9-4.5
	C21.1,12,20.8,10.9,20.6,9.9z"/>
<path fill="#DA1C15" d="M60.7,14.9c0.4-2.2,1.9-4.1,4-4.9c1.2-0.3,2.4,0.1,3.3,0.9C67,11,66,10.7,65.1,11c-1.5,0.9-2.2,2.7-2.1,4.4
	c1.7-0.7,2.5-3,4.6-2.8c1,0.4,0.8,1.7,1.1,2.6c0.1,0.8,0.9,1.2,1.4,1.8c-0.6-0.1-1.2,0-1.8-0.3c-0.8-0.7-1.1-1.7-1.6-2.6
	c-1.3,1-2.3,2.4-3.8,3C61.7,17.6,60.4,16.2,60.7,14.9z"/>
<path fill="#DC1B13" d="M50.3,10.6c0.8-0.6,1.9-0.3,2.5,0.4c-0.8,1.4-2.8,1.7-3.3,3.4c1.2,1.4,3.2,0.2,4-1c0.8-1,0.5-2.3-0.2-3.2
	c1.5,0,2.8,1,3.1,2.5c-0.4,1.7-1.4,3.3-3.1,3.9c-1.8,0.9-4.6,0.2-5.3-1.8C47.6,13.2,49,11.6,50.3,10.6z"/>
<path fill="#D91E14" d="M13.8,10.9c1-0.3,1.4,1.3,0.6,1.7c-0.9,0.6-2,1.1-2.4,2.3c1.9,1.6,4.6-0.9,4.4-3c-0.4-0.4-0.7-0.8-1-1.1
	c1.1,0,2.6,0.2,3.1,1.4c0.9,2.8-2.2,5.5-4.9,5.1c-1.2,0-2.3-0.9-2.6-2C10.7,13.4,12.2,11.7,13.8,10.9z"/>
<path fill="#DA1D16" d="M27.3,11c0.7-0.1,1.5-0.3,2,0.3c-2.2,0.2-3.9,2.2-3.7,4.4c1.6-0.6,2.7-2.1,4.4-2.6c1.6-0.3,1.6,1.6,1.8,2.6
	c0,1,1.3,1,2.1,1.2c-0.9,0.3-1.9,0.5-2.7-0.2c-0.9-0.5-0.8-2.1-1.9-2.1c-1.4,0.9-2.3,2.5-3.9,3c-1.3,0.2-2.3-1-2.2-2.3
	C23.7,13.3,25.3,11.5,27.3,11z"/>
<path fill="#C2514D" d="M59,20.8c-0.1-0.7,0-2.2,1.1-1.6c0.3,0.6,0.1,1.2-0.4,1.7c0.4-0.1,1.2-0.2,1.6-0.3c-0.1,1.2-1.4,0.7-2.2,0.9
	c-1,0.2-1.9,0.1-2.6-0.7c0.7-0.3,1.4-0.7,2.1-1.1c0,0.3-0.1,0.9-0.1,1.2C58.7,20.8,58.9,20.8,59,20.8z"/>
<g>
	<path fill="#7E0101" d="M70.5,19.3c0.5,0.1,0.9,0.2,1.4,0.4c-0.8,0.3-1.8,0.2-2.3,1c0.8,0,1.5,0.1,2.3,0.1
		c-0.2,0.2-0.5,0.6-0.7,0.8c0,0.4,0,1.2,0.1,1.6c0.3,0,0.8,0,1.1,0c-0.3,0.4-0.7,0.6-1.3,0.4c0.1,0.2,0.2,0.7,0.3,1
		c-0.4-0.5-0.8-0.8-1.4-0.6c0-0.3-0.1-0.8-0.2-1.1c-0.4,0.1-0.9,0.2-1.3,0.3c0.1-0.3,0.2-0.9,0.2-1.1c-0.2-0.4-0.8-0.9-0.4-1.4
		C69,20.2,69.8,19.8,70.5,19.3z M69.1,21.1c0,0.4,0,1.2,0,1.7c0.2-0.2,0.7-0.6,1-0.8c-0.3,0.8-0.1,1.5,0.6,1.8
		c0-0.9,0.1-1.8,0.2-2.8C70.4,21.1,69.6,21.1,69.1,21.1z"/>
</g>
<path fill="#C14C47" d="M53.1,20.5c1.1,0.5,1.6-0.2,1.9-1.1c0.5,0.3,1.2,0.5,1.5,1c-0.4,0-1.2,0.1-1.6,0.1c0.5,0.1,1,0.1,1.5,0.2
	c-0.3,1.2-2.1,0.5-3,0.6L53.1,20.5z"/>
<path fill="#D54B48" d="M63,21.1c0-1.5,2.1-1,3-1.7c0.6,0.4,1.1,0.7,1.7,1.1c-0.5,0.3-1.2,0.4-1.9,0.2c0.8,1.2,1.6,2.3,2.1,3.7
	c-0.4-0.3-0.8-0.6-1.2-0.9c-0.5,0.3-1.1,0.7-1.6,1c0.3-0.7,1.6-2.2,0.1-2.3c0,0.3-0.1,0.9-0.1,1.3c-0.7,0.3-1.4,0.7-2,1
	c-0.3-1.4,0.9-2,1.9-2.6c-0.8,0.2-1.6,0.5-2.4,0.5c0.6-0.6,1.4-0.8,2.1-1.3C64.1,21,63.4,21,63,21.1z"/>
<path fill="#7E0101" d="M51.8,22.1c0.4-0.7,0.7-1.5,1-2.3c0,1-0.4,2.1,0,3.1c0.6-0.1,0.7-0.7,1-1.1c0.5,0,1.1-0.1,1.6-0.1
	c0.3,0.6,0.6,1.2,0.8,1.9c0.3,0.1,0.9,0.2,1.2,0.3c0.1-0.8,0.2-1.5,0.3-2.3c0.5,0.2,1.1,0.3,1.6,0.5c-0.5,0-1,0.1-1.5,0.1
	c0,0.3,0,0.8,0,1.1c0,0.2,0,0.5,0,0.7c-1.1-0.1-2.3,0.1-3.3-0.2c0.3-0.1,1-0.3,1.3-0.4c-0.5-0.5-0.8-1.3-1.6-1.4
	c-0.1,0.5-0.2,0.9-0.3,1.4c-0.4,0.1-0.8,0.3-1.2,0.4C52.7,23.1,52.2,22.6,51.8,22.1z"/>
<path fill="#DC2218" d="M24.9,23.3c0.7-2.2,3.6-2.5,5.4-1.8c1.7,0.5,1.7,3.1,0.1,3.8c-1-0.5-0.9-2.1-2.1-2.4c-1-0.4-1.8,0.5-2.2,1.3
	c-0.2,0.6-0.4,1.2-0.6,1.7C25.3,25,25.1,24.2,24.9,23.3z"/>
<path fill="#CB6365" d="M59.9,21.5c0.8,0.1,1,0.7,1.2,1.4c0.3,0.3,0.6,0.6,0.8,0.8c-0.5,0.2-1.1,0.4-1.6,0.7
	c-0.2-0.7-0.3-1.5-0.4-2.2L59.9,21.5z"/>
<path fill="#DE9D97" d="M59.3,22.1c0.2,0,0.5,0,0.6-0.1c0.1,0.8,0.2,1.5,0.4,2.2c-0.2,0-0.7-0.1-1-0.1c-0.1-0.5-0.3-1-0.4-1.5
	c-0.3,0.2-0.8,0.5-1.1,0.6c0-0.3,0-0.8,0-1.1C58.3,22.2,58.8,22.2,59.3,22.1z"/>
</svg>
