<?xml version="1.0" encoding="utf-8"?>
<!-- Generator: Adobe Illustrator 18.1.1, SVG Export Plug-In . SVG Version: 6.00 Build 0)  -->
<svg version="1.1" id="图层_1" xmlns="http://www.w3.org/2000/svg" xmlns:xlink="http://www.w3.org/1999/xlink" x="0px" y="0px"
	 viewBox="0 0 56.4 46.4" enable-background="new 0 0 56.4 46.4" xml:space="preserve">
<g>
	<path fill="#83C834" d="M5.4,2.8C9.9-0.7,16.5-1,21.2,2.3c2.9,2.1,4.7,5.2,7.1,7.9l0.2,0.2c-2,1.2-2.8,3.5-4.6,4.9
		c-2.2,0.2-4.4,0.1-6.5,0c0-0.5,0.1-1,0.1-1.5c-1.1,0-2.1,0-3.2,0c-0.1,0.6-0.2,1.2-0.3,1.8c-1.4,0.1-2.8,0.1-4.1,0.1
		c0,0.9-0.1,1.8-0.1,2.6c1.3,0,2.7,0,4,0c-0.6,2.8-1.8,5.6-4.4,7.1c-0.1,1.1-0.1,2.2-0.1,3.3c4-1.7,7.1-5.4,7.6-9.8
		c1.5-0.9,3.3-0.4,5-0.4c-0.9,0.9-1.8,1.9-2.5,2.9c-0.7-0.4-1.5-0.6-2.3-0.8c-0.5,1.1-0.6,2.3,0.6,3c-3.6,3.7-3.7,9.3-2.6,14
		c-1.2-1.2-2.2-2.6-3.3-4c-3.2-4.1-6.4-8.2-9.5-12.4C-1.8,15.5-0.1,6.9,5.4,2.8z M9.6,13.6c0,0.5,0.1,0.9,0.2,1.4
		c1,0.3,2,0.4,3.1,0.3c0-0.3,0-1,0-1.4C11.7,13.8,10.6,13.7,9.6,13.6z"/>
</g>
<g>
	<path fill="#039E40" d="M34.8,2.6c3.6-2.6,8.6-3.3,12.7-1.7c5.8,2.1,9.6,8.6,8.7,14.8c-0.3,2.4-1.2,4.7-2.7,6.5
		c-4.1,5-7.7,10.3-11.8,15.2c0-1.4,0.1-2.7,0.2-4.1c0.1-1.8-0.5-3.5-0.1-5.3c0.8-0.6,1.5-1.3,2.3-1.9c0.8,1,1.3,2.7,3,2.5
		c0.4-1.7-0.6-3.2-1.2-4.6c1.3-1.4,1.8-3.3,1.5-5.2c-1.1,0.7-1.6,1.8-2.2,2.9c-0.5-2.7-1.3-5.3-1.5-8.1c-0.9,0-1.8,0.1-2.7,0.1
		c0.1,0.6,0.1,1.2,0.2,1.8c-1.8,0-3.7-0.1-5.5,0.1c-0.6,0.1-0.7,0.7-0.9,1.1c-0.4-0.4-0.8-0.8-1.2-1.1c-1.3-0.2-2.7-0.1-4-0.1
		c0.2-0.1,0.6-0.2,0.7-0.2c1-0.2,2.1,0.1,3-0.3c0-0.3,0.1-0.9,0.1-1.2c-0.8-0.1-1.6-0.1-2.4-0.2c-0.8-1.1-1.6-2.2-2.6-3.2l-0.2-0.2
		C30.4,7.6,32.1,4.6,34.8,2.6z M47.4,12.8c0.1,0.1,0.4,0.2,0.5,0.3l-0.2,0.4c0.6-0.1,1.3,0.1,1.8-0.4V13c1.5-0.9-0.3-3-1.6-2.3
		C46.9,10.9,47,12.1,47.4,12.8z M45.1,13.7c-0.1,0.7-0.1,1.3-0.2,2c-0.2,0-0.7,0.1-1,0.1c0.2,0.6,0.4,1.3,0.7,1.9
		c0.8,0.3,1.7,0.2,2.5,0.2c0.5-1.4,0.4-2.8,0.2-4.2C46.6,13.7,45.8,13.7,45.1,13.7z"/>
</g>
<g>
	<path fill="#5ABA21" d="M23.8,15.2c1.8-1.4,2.6-3.7,4.6-4.9c1,1,1.8,2.1,2.6,3.2c-0.2,0-0.5,0.1-0.7,0.1c-0.1,0.5-0.1,1-0.1,1.6
		c-0.2,0.1-0.6,0.2-0.7,0.2c0,1,0,1.9,0,2.9c0.2,0,0.7,0,0.9,0c-0.3,2.8-0.1,5.6-0.8,8.3c-0.2,0.8,0,1.6,0.1,2.4
		c2.2-0.5,4.5-0.7,6.7-0.3c0.3,0,0.8,0.1,1,0.1c0.8,0,1.6,0.1,2.4-0.1c0.4-0.4,0.8-0.8,1.2-1.3c0,0.1,0.1,0.3,0.1,0.4l0.2,0.6
		l0.5-0.3c-0.4,1.7,0.2,3.5,0.1,5.3c-0.1,1.4-0.2,2.7-0.2,4.1v0.1c-1.8,2.1-3.2,4.6-5.5,6.2c-4.7,3.5-11.7,3.4-16.4-0.1
		c-2.2-1.5-3.6-3.8-5-6c-1.2-4.7-1-10.3,2.6-14c0.7,0.7,1.5,1.4,2.2,2c0.7,0.9,2.2-0.2,1.9-1.2c-0.5-1.2-1.5-2.1-2.4-3
		c0.7-1.1,1.5-2,2.5-2.9c-1.7,0-3.5-0.5-5,0.4c0.2-1.2,0.4-2.5,0.5-3.7C19.5,15.3,21.6,15.5,23.8,15.2z M17.3,18.3
		c1.8,0,3.7,0,5.6,0c-0.3,2.8-0.2,5.7-0.9,8.5c-0.7,0.1-1.3,0.2-1.9,0.3c0.1,0.7,0.3,1.3,0.7,1.9c1.7,0,4,0,4.9-1.8
		c0.5-3,0.5-6,0.7-9c0.1-1.1-0.2-2.8-1.6-2.7c-2.3-0.1-4.6,0-6.8,0C17,16,17.5,17.4,17.3,18.3z"/>
</g>
<g>
	<path fill="#46B46E" d="M47.4,12.8c-0.4-0.7-0.5-1.9,0.5-2.2C49.2,9.9,51,12,49.5,13c0,0,0,0.1,0,0.2c-0.5,0.5-1.2,0.3-1.8,0.4
		l0.2-0.4c0.4-0.6,0.5-1.3,0.3-2C47.8,11.6,47.4,12.2,47.4,12.8z M48.8,11.6"/>
</g>
<path fill="#73D494" d="M47.4,12.8c0-0.7,0.4-1.2,0.8-1.7c0.1,0.7,0.1,1.4-0.3,2C47.8,13.1,47.5,12.9,47.4,12.8z"/>
<path fill="#8DDFA8" d="M48.8,11.6"/>
<path fill="#7FE8A1" d="M49.5,13.1c0,0,0-0.1,0-0.2V13.1z"/>
<path fill="#FFFEFA" d="M9.6,13.6c1.1,0.1,2.2,0.2,3.2,0.3c0,0.3,0,1,0,1.4c-1,0.1-2.1,0-3.1-0.3C9.6,14.5,9.6,14.1,9.6,13.6z"/>
<path fill="#FEFEFC" d="M14.2,13.7c1.1,0,2.1,0,3.2,0c0,0.5-0.1,1-0.1,1.5c-0.1,1.2-0.3,2.5-0.5,3.7c-0.5,4.4-3.6,8.1-7.6,9.8
	c0-1.1,0-2.2,0.1-3.3c2.6-1.5,3.8-4.3,4.4-7.1c-1.3,0-2.7,0-4,0c0-0.9,0-1.8,0.1-2.6c1.4,0,2.8,0,4.1-0.1
	C13.9,14.9,14,14.3,14.2,13.7z"/>
<path fill="#FCFFFD" d="M30.3,13.6c0.2,0,0.5-0.1,0.7-0.1c0.8,0.1,1.6,0.2,2.4,0.2c0,0.3-0.1,0.9-0.1,1.2c-0.9,0.4-2,0.1-3,0.3
	C30.2,14.7,30.3,14.2,30.3,13.6z"/>
<path fill="#FDFEFC" d="M40.9,13.7c0.9-0.1,1.8-0.1,2.7-0.1c0.1,2.8,0.9,5.4,1.5,8.1c0.6-1,1.1-2.2,2.2-2.9c0.3,1.9-0.1,3.8-1.5,5.2
	c0.6,1.5,1.6,3,1.2,4.6c-1.6,0.2-2.2-1.5-3-2.5c-0.8,0.6-1.5,1.3-2.3,1.9l-0.5,0.3l-0.2-0.6C41,26.2,42,24.9,43,23.7
	c-0.3-2-1-4-1.4-6c-1.4,0.1-2.8,0.1-4.2,0.2c-0.1,0.2-0.3,0.6-0.4,0.8c1.3,0,2.7,0,4,0.2c0.7,2.8-0.4,5.7,0,8.6
	c-0.4,0.4-0.7,0.9-1.2,1.3c-0.8,0.2-1.6,0.2-2.4,0.1c0-0.7,0-1.3-0.1-2c0.4-0.2,0.8-0.3,1.2-0.5c0.1-1.8,0.3-3.6,0.5-5.4
	c-0.7,0-1.4-0.1-2.1-0.1c-0.3,2.6-0.4,5.2-0.7,7.8c-2.2-0.5-4.5-0.3-6.7,0.3c-0.1-0.8-0.3-1.6-0.1-2.4c0.7-2.7,0.5-5.5,0.8-8.3
	c-0.2,0-0.7,0-0.9,0c0-1,0-1.9,0-2.9c1.3,0,2.7-0.1,4,0.1c-0.1,3.3-0.4,6.6-0.6,9.9c0.2,0.2,0.6,0.5,0.8,0.7c0,0.7,0.1,1.5,0.2,2.2
	c0.5-3.9,0.7-7.8,0.8-11.7c0.3-0.4,0.4-1,0.9-1.1c1.8-0.2,3.7-0.1,5.5-0.1C41.1,14.9,41,14.3,40.9,13.7z"/>
<path fill="#FCFEFC" d="M45.1,13.7c0.8,0,1.5,0,2.3,0c0.3,1.4,0.3,2.8-0.2,4.2c-0.8-0.1-1.7,0.1-2.5-0.2c-0.3-0.6-0.5-1.3-0.7-1.9
	c0.2,0,0.7-0.1,1-0.1C45,15,45,14.4,45.1,13.7z"/>
<path fill="#FEFEFC" d="M17.3,18.3c0.2-0.9-0.3-2.3,0.6-2.8c2.3,0,4.6-0.1,6.8,0c1.4-0.1,1.7,1.6,1.6,2.7c-0.2,3-0.2,6-0.7,9
	C24.7,29,22.5,29,20.7,29c-0.4-0.6-0.6-1.2-0.7-1.9c0.6-0.1,1.3-0.2,1.9-0.3c0.6-2.8,0.6-5.7,0.9-8.5C21,18.3,19.1,18.3,17.3,18.3z"
	/>
<path fill="#54AB24" d="M33.5,15.6c0.4,0.4,0.8,0.8,1.2,1.1c-0.2,3.9-0.3,7.8-0.8,11.7c-0.1-0.7-0.2-1.5-0.2-2.2
	c-0.2-0.2-0.6-0.5-0.8-0.7C33.1,22.2,33.3,18.9,33.5,15.6z"/>
<path fill="#0C983D" d="M37.4,17.9c1.4-0.2,2.8-0.1,4.2-0.2c0.4,2,1.1,4,1.4,6c-0.9,1.2-1.9,2.5-1.8,4.1c0-0.1-0.1-0.3-0.1-0.4
	c-0.5-2.8,0.6-5.7,0-8.6c-1.3-0.1-2.7-0.1-4-0.2C37.1,18.5,37.3,18.1,37.4,17.9z"/>
<path fill="#4AAA2C" d="M37.1,21c0.7,0,1.4,0.1,2.1,0.1c-0.2,1.8-0.4,3.6-0.5,5.4c-0.4,0.2-0.8,0.3-1.2,0.5c0,0.7,0,1.3,0.1,2
	c-0.3,0-0.8-0.1-1-0.1C36.8,26.2,36.8,23.6,37.1,21z"/>
<path fill="#FEFEFA" d="M17.5,23.7c-1.1-0.7-1.1-1.9-0.6-3c0.8,0.2,1.6,0.4,2.3,0.8c0.9,0.9,1.9,1.8,2.4,3c0.3,1-1.1,2.1-1.9,1.2
	C19,25.1,18.2,24.4,17.5,23.7z"/>
</svg>
