<?xml version="1.0" encoding="utf-8"?>
<!-- Generator: Adobe Illustrator 18.1.1, SVG Export Plug-In . SVG Version: 6.00 Build 0)  -->
<svg version="1.1" id="图层_1" xmlns="http://www.w3.org/2000/svg" xmlns:xlink="http://www.w3.org/1999/xlink" x="0px" y="0px"
	 viewBox="0 0 113.1 39.9" enable-background="new 0 0 113.1 39.9" xml:space="preserve">
<g>
	<path fill="#77C11E" d="M63.7,0.3c2.3,0.1,4.6,0,6.9,0.1c2.1,0.2,3.9,1.8,4.3,3.8c0.4,1.3-0.3,2.5-0.8,3.8c0.6,1.2,1.3,2.5,1.1,3.9
		c0.1,2.7-2.4,4.9-5,4.9c-2,0-4,0.1-6,0c-1.1,0.1-1.9-1-1.8-2c0-4.1,0-8.2,0-12.2C62.4,1.6,63,0.9,63.7,0.3z M66.3,4.3
		c0,0.7-0.1,1.3-0.1,2c1.5,0,3,0.1,4.5-0.1c0.5-0.4,0.2-1.2,0.4-1.8C69.5,4.1,67.9,4.1,66.3,4.3z M66.2,10c0,1,0,2,0,3
		c1.5,0,3.1,0.2,4.6-0.1c1-0.6,0.9-2.4-0.3-2.8C69.1,9.9,67.6,10,66.2,10z"/>
</g>
<path fill="#9FC85E" d="M108.3,0.4c1-0.3,2.1-0.3,3.1-0.2c0.1,0.3,0.3,0.8,0.4,1c0.3-0.4,0.6-0.9,1-1.3c0.4,0.8,0.3,1.7,0.3,2.6
	c-0.8-0.2-1.6,0-2.4,0.2c-0.1-0.7-0.2-1.4-0.2-2.1c-0.5,0.6-0.5,1.5-1.1,2.1c-0.1-0.6-0.2-1.2-0.3-1.8
	C108.8,0.8,108.4,0.6,108.3,0.4z"/>
<path fill="#76C11F" d="M3.7,0.6c2.1-0.7,4.5-0.5,6.6,0.3c0.7,0.3,1.6,0.8,1.6,1.7c0.3,1.2-0.9,2.2-2,2C8,4.3,5.7,3,4.1,4.6
	c0.1,0.2,0.2,0.7,0.3,0.9c2.3,1.4,5.5,1,7.4,3.1c1.8,1.9,1.3,5.3-0.8,6.9c-2.9,2.2-7.2,1.8-10.2-0.1c-1.3-0.8-1.1-2.8,0.3-3.3
	c1.2-0.6,2.2,0.6,3.3,0.9c1.3,0.3,2.7,0.5,3.9-0.1c0.8-0.3,0.8-1.8,0-2C5.9,9.7,2.5,9.9,0.9,7.3C-0.6,4.8,1,1.4,3.7,0.6z"/>
<g>
	<path fill="#75C21F" d="M19.6,1.7c0.3-0.8,1.1-1.1,1.7-1.5c1.9,0.5,2.5,2.5,3.4,4c1.7,3.4,3.5,6.7,5.2,10.1
		c0.7,1.3-0.8,2.7-2.1,2.4c-1.4-0.1-1.8-1.7-2.3-2.7c-2.7,0-5.3-0.1-8,0c-0.5,0.9-0.8,2-1.7,2.5c-0.6,0.1-1.2,0.1-1.8,0.1
		c-0.6-0.7-1.3-1.6-0.7-2.5C15.2,10,17.4,5.9,19.6,1.7z M19.5,10.3c1.3,0.1,2.6,0.1,3.9,0.1c-0.5-1.2-1-2.5-1.8-3.6
		C20.4,7.5,20.1,9.1,19.5,10.3z"/>
</g>
<path fill="#75C11E" d="M34.6,0.7c3.1-1.2,6.9-0.3,9,2.4c0.8,1,0.1,2.6-1.1,2.7c-1.7,0.5-2.6-1.6-4.2-1.7c-2.8-0.6-5.8,1.9-5.3,4.8
	c-0.1,3,3.4,5.2,6.2,4.1c0.9-0.4,1.6-1.3,2.5-1.7c1.3-0.1,2.9,1.3,2.1,2.7c-1.2,1.8-3.4,2.8-5.5,3c-3.9,0.4-7.7-2.2-8.8-5.9
	C28.1,6.9,30.5,2.1,34.6,0.7z"/>
<g>
	<path fill="#74C01D" d="M50.1,0.5c4-1.2,8.6,1,10.2,4.9c1.3,3.2,0.4,7.1-2.1,9.4c-2,1.8-5,2.6-7.7,1.9c-2.9-0.7-5.3-3.1-6.1-5.9
		C44,8.8,44,6.5,45,4.7C46.1,2.7,48,1.2,50.1,0.5z M50.5,4.4c-3.6,1.4-3.4,7.3,0.3,8.5c2.9,1.4,6.5-1.2,6.2-4.4
		C57.3,5.2,53.4,2.9,50.5,4.4z"/>
</g>
<path fill="#77C31C" d="M77.3,2.6c-0.1-1.2,0.8-1.9,1.7-2.3c0.5,0.2,1,0.4,1.5,0.5c0.9,1.3,0.5,2.9,0.6,4.3
	c-0.1,3.4,0.1,6.8-0.1,10.2c-0.3,2-3.5,2.1-3.7,0C77.3,11,77.3,6.8,77.3,2.6z"/>
<g>
	<path fill="#76C21E" d="M82.8,8.1c0.2-4.2,4-7.8,8.2-7.8c1.8-0.1,3.6,0.5,5.2,1.5c1.4,1.2,2.6,2.7,3.1,4.5c1,3.4-0.4,7.4-3.4,9.4
		c-2.3,1.4-5.2,1.9-7.8,0.8C84.8,15.2,82.4,11.6,82.8,8.1z M89,4.4c-1.6,0.8-2.7,2.6-2.5,4.4c0.1,2.1,1.9,4.1,4,4.3
		c2.9,0.6,5.5-2.3,5.2-5.1C95.5,5,91.7,3,89,4.4z"/>
</g>
<path fill="#B6E382" d="M96.2,1.7C99.3-0.9,104.4,0,107,3c2,2.1,2.5,5.3,1.7,8c-0.9,2.9-3.4,5.2-6.3,5.8c-2.2,0.5-4.6,0-6.5-1.2
	c2.9-2,4.4-6,3.4-9.4C98.8,4.4,97.5,2.9,96.2,1.7z"/>
<g>
	<path fill="#79C120" d="M26.2,23.8c0.7,0,1.4,0,2.1-0.1c0.1,0.3,0.2,0.8,0.2,1.1c1.4,0,2.9,0,4.3,0c-0.3-1.2,0.9-1,1.7-1.1
		c0.1,0.3,0.4,0.9,0.5,1.2c1.1,0,2.2,0,3.3,0c0,0.6,0,1.2-0.1,1.8c-1.2,0.4-2.5,0.1-3.7,0.2c0.1,0.4,0.1,1.1,0.2,1.5
		c1.2,0.2,2.4,0,3.6,0.1c-0.1,0.7-0.2,1.3-0.3,2c-0.4,0-1.2-0.1-1.5-0.2c0.1,0.5,0.3,1.1,0.4,1.6c0.5,0.1,0.9,0.3,1.4,0.6
		c0,0.5-0.1,1.1-0.2,1.6c-2.4-0.1-4.8-0.1-7.2,0c0,2.1-0.5,4.3-2,5.9c-0.7,0.1-1.2-0.5-1.6-1c1.5-1.8,1.7-4.2,1.7-6.5
		c1.1-0.2,1.8-0.9,2-2c-0.7,0-1.4-0.1-2.1-0.1c0-0.6,0-1.2,0-1.9c1.4-0.2,4.2,0.8,3.9-1.6c-1.5-0.1-2.9-0.1-4.4-0.1
		c-0.1,0.3-0.2,0.8-0.3,1c-0.7,0.1-1.4,0.2-2,0.2c0-0.3-0.1-0.9-0.1-1.3c-1.1,0-2.2,0-3.3,0c0.1-0.7,0.2-1.3,0.3-2
		c1,0,2.1,0.1,3.1,0.1C26.2,24.6,26.2,24.1,26.2,23.8z M32.4,30.5c0.2,0.5,0.3,1,0.5,1.5c0.6,0,1.2,0,1.8,0c0.2-0.5,0.4-1,0.6-1.5
		C34.3,30.5,33.3,30.5,32.4,30.5z"/>
</g>
<path fill="#78BF1D" d="M39.2,24.8c1.8,0.1,3.6-0.4,5.3-0.9c1.1-0.2,0.6,1.2,0.8,1.8c-0.6,0.3-1.2,0.6-1.8,0.8c0,0.7,0,1.3,0,2
	c0.6,0,1.2-0.1,1.8-0.1c-0.1,0.6,0.2,1.3-0.2,1.8c-0.6,0.2-1.2,0.3-1.8,0.4c0,0.2-0.1,0.7-0.1,0.9c0.3,0,0.9,0,1.2,0
	c0.8,0.7,1.6,1.7,0.8,2.7c-0.8,0.1-1.3-0.8-1.9-1.2c0.1,2.3,0.1,4.6,0.1,7c-0.7,0-1.3,0-2,0c0-1.8,0-3.5,0-5.3
	c-0.7,0.4-1.3,0.8-2,1.3c-0.3-0.6-1.1-1.5-0.3-2.1c1-1,2.7-1.8,2.3-3.4c-0.8,0-1.6,0-2.5,0c0-0.6,0.1-1.2,0.2-1.9c0.8,0,1.5,0,2.3,0
	c0-0.4,0-1.3,0-1.7c-0.8,0-1.5,0-2.3,0C38.9,26.1,38.9,25.4,39.2,24.8z"/>
<path fill="#79BE1C" d="M51,23.7c0.6,0,1.2,0,1.8,0c0,3.1,0,6.2,0,9.3c0.3,0,0.9,0.1,1.2,0.1c0,0.6,0,1.2,0,1.7
	c-0.3,0-0.9,0.1-1.2,0.1c-0.1,1.6-0.1,3.3-0.1,4.9c-0.6,0-1.2,0-1.8,0c0-1.4,0-2.9-0.2-4.3c-2,0.7-4,1.2-6.1,0.9
	c0.1-0.6,0-1.5,0.8-1.8c1.8-0.7,3.8-0.4,5.5-1.3C50.8,30.2,50.6,26.9,51,23.7z"/>
<path fill="#7BC11E" d="M77.6,23.8c0.6,0,1.2,0,1.8,0c0.1,0.3,0.2,0.8,0.3,1.1c1.9,0.2,3.8,0.1,5.6,0.3c0.1,2.7,0,5.5,0,8.2
	c-0.9,0.2-1.9,0.4-2.2-0.7c-1.2,1.4-2.6-0.1-3.6-1c-0.1,0.6-0.1,1.3-0.4,1.9c-0.6,0-1.2,0.1-1.8,0.1c0-0.7-0.1-1.3-0.1-2
	c-1,0.8-2.1,1.8-3.5,1.7c0-0.4,0.1-1.2,0.1-1.6c0.7-0.3,1.4-0.7,2-1.1c-0.7,0-1.3,0-1.9-0.1c-0.6-1.6,0.8-4,2.6-3
	c0.1,0.3,0.4,0.9,0.5,1.2c0.1-0.4,0.3-0.9,0.4-1.3c0.6,0,1.3-0.1,1.9-0.1c0,0.3,0.1,1,0.1,1.3c0.2,0,0.5,0,0.7-0.1
	c0-0.3,0.1-0.9,0.2-1.2c1.9-0.4,3,1.6,2.8,3.2c-0.6,0-1.3,0.1-1.9,0.1c0.7,0.6,1.4,1.1,2.1,1.6c0.1-1.8,0.1-3.6-0.1-5.3
	c-3.3,0.1-6.5,0-9.8,0c0,2.2,0,4.4,0,6.6c-0.4,0-1.3,0.1-1.7,0.1c-0.2-2.9-0.1-5.8-0.1-8.6c1.9-0.1,3.8,0,5.7-0.1
	C77.4,24.6,77.6,24.1,77.6,23.8z"/>
<path fill="#83C834" d="M85.9,23.6c0.8,0.1,1.6,0.2,2.5,0.3c0.1,0.2,0.3,0.5,0.4,0.7c0.4-0.4,0.8-0.7,1.2-1c0,0.7,0.1,1.4,0.1,2.1
	c-0.8,0-1.6,0-2.3,0c0-0.4-0.1-1.2-0.1-1.6c-0.6,0.4-0.8,0.9-0.8,1.7c-0.1,0-0.2,0-0.3,0C86.5,24.9,86.3,24.2,85.9,23.6z"/>
<path fill="#78BD1C" d="M45.8,25.8c0.5-0.4,0.7-1.4,1.5-1.1c1,0.7,2,1.6,3.1,2.2c-0.1,0.7-0.4,1.3-0.7,1.8
	C48.2,28,47,26.9,45.8,25.8z"/>
<g>
	<path fill="#78BF1F" d="M54.8,24.6c2.5-0.3,4.9-0.1,7.4-0.2c2.8,0.1,5.5-0.2,8.3,0.2c-0.1,0.6-0.1,1.2-0.1,1.8c-2.3,0-4.5,0-6.8,0
		c0,0.7,0,1.4,0.1,2c1.8,0,3.6-0.2,5.4,0.2c0,3.7,0.1,7.3-0.1,11c-4.3-0.1-8.6-0.1-12.9,0c0-3.7-0.1-7.4,0.1-11
		c1.6-0.2,3.2-0.1,4.9-0.1c0.7-0.4,0.4-1.3,0.5-1.9c-2.2-0.1-4.4,0-6.5-0.1C54.9,25.8,54.9,25.2,54.8,24.6z M57.9,30.5
		c0,0.7,0,1.5,0,2.2c3.1,0.1,6.2,0.1,9.3,0c-0.1-0.8-0.1-1.6-0.1-2.3C64,30.3,60.9,30.3,57.9,30.5z M58,34.8
		c-0.1,0.9-0.1,1.8-0.1,2.7c3.1,0.2,6.1-0.1,9.2,0c0-0.9,0-1.8,0-2.7C64.1,34.8,61.1,34.8,58,34.8z"/>
</g>
<g>
	<path fill="#77C11B" d="M23.6,28.5c1.5-0.2,3,0,4.5-0.1c0.5,1.3-0.7,2.3-0.7,3.6c1.7,2,0.8,4.9-0.8,6.6c-0.2,0-0.6,0-0.7,0
		c-0.3-0.2-0.6-0.4-0.9-0.6c0,0.6,0,1.2-0.1,1.8c-0.6-0.1-1.8,0.4-1.9-0.5c-0.1-2.7,0.1-5.4-0.1-8.1C22.9,30.3,22.7,29.2,23.6,28.5z
		 M25,30.1c0,0.5,0,0.9,0,1.4c0.2,0,0.7,0,0.9,0c-0.1-0.4-0.1-0.8-0.2-1.2C25.5,30.3,25.1,30.2,25,30.1z M24.9,32.5
		c0,1.4,0,2.7,0,4.1c0.2,0,0.7,0,1,0C26.5,35.3,26.6,33.1,24.9,32.5z"/>
</g>
<path fill="#72BE15" d="M46.1,29.4c0.2,0,0.6-0.1,0.7-0.1c0.9,0.8,2,1.4,3,2.1c0.5,0.7-0.6,1.7-1.4,1.4c-1.1-0.6-2-1.5-3-2.3
	C45.7,30.2,46,29.7,46.1,29.4z"/>
<path fill="#78BF1D" d="M70.8,35.8c0-0.6,0.1-1.2,0.1-1.8c5,0.1,10.1-0.1,15.1,0.1c0,0.6,0,1.2,0.1,1.7c-1.7,0.1-3.3,0-5,0.1
	c1.3,1.4,3.3,1.5,4.9,2c0,0.6,0,1.3,0,1.9c-2.9-0.3-5.3-1.9-7.7-3.4c-1.9,1.8-4.4,2.8-6.9,3.4c-0.9-0.2-0.5-1.3-0.6-2
	c1.8-0.3,3.6-0.7,5.1-1.8C74.2,36,72.5,35.9,70.8,35.8z"/>
</svg>
