<?xml version="1.0" encoding="utf-8"?>
<!-- Generator: Adobe Illustrator 18.1.1, SVG Export Plug-In . SVG Version: 6.00 Build 0)  -->
<svg version="1.1" id="图层_1" xmlns="http://www.w3.org/2000/svg" xmlns:xlink="http://www.w3.org/1999/xlink" x="0px" y="0px"
	 viewBox="0 0 55.8 55.7" enable-background="new 0 0 55.8 55.7" xml:space="preserve">
<g>
	<path fill="#02643B" d="M23.4,0.4c5.3-0.8,10.8-0.2,15.7,2c7.4,3.2,13.2,9.7,15.5,17.4c2.4,7.7,1.2,16.5-3.3,23.3
		c-4.1,6.4-11,11.1-18.5,12.3c-5.8,1-12,0.3-17.3-2.3c-5-2.5-9.2-6.5-12-11.3c-4-7.2-4.7-16.2-1.7-23.9C5.2,8.6,13.9,1.9,23.4,0.4z
		 M24,2.4C15,3.6,6.9,10.1,3.8,18.6c-1.9,4.9-2.2,10.3-1,15.4c1.8,7.8,7.6,14.5,15,17.6c5,2.1,10.7,2.6,16,1.4
		c7-1.6,13.2-6.2,16.7-12.5c3.2-5.9,4.2-13.1,2.3-19.6C49.7,8.7,36.4,0.1,24,2.4z"/>
</g>
<g>
	<path fill="#FCFEFD" d="M24,2.4c12.4-2.2,25.7,6.3,28.8,18.6c1.9,6.5,0.9,13.6-2.3,19.6C47,46.8,40.7,51.4,33.7,53
		c-5.3,1.3-11,0.8-16-1.4c-7.4-3.1-13.2-9.8-15-17.6c-1.2-5.1-1-10.5,1-15.4C6.9,10.1,15,3.6,24,2.4z M27.3,3.4 M22,3.8
		c-0.1,0.6-0.2,1.2-0.3,1.8c0.5-0.1,1.1-0.2,1.6-0.2C23.5,5.5,23.9,5.8,24,6c0.3-0.4,0.6-0.8,1-1.2c-0.3,1-0.7,1.9-0.9,2.9
		c1.2,0.8,2.5,0.3,3.7-0.2c0.1,0.3,0.2,0.8,0.3,1l0.6-0.4c0.1,0.2,0.4,0.7,0.6,1c-3.7-0.3-7.5,0.6-10.7,2.4
		C10.7,15.7,7,26.2,10.3,34.4c2.2,6.1,7.9,10.7,14.2,11.8c8.8,1.8,18.4-4,21-12.6c1.8-5.3,0.9-11.3-2.1-16c-3-4.7-8.3-7.7-13.8-8.4
		c-0.2-0.5-0.4-1-0.6-1.5c-0.2,0-0.6-0.1-0.8-0.1c0.3-0.7,0.6-1.4,1-2c-0.1,1,0.5,1.7,1.3,2.2c0.9-0.7,1.8-1.4,2.8-2
		c0-0.6,0.1-1.3,0.1-1.9c-0.7-0.1-1.4-0.1-2-0.2c1,0.3,1.8,0.7,1.8,1.9c-0.4,0-1.1,0-1.4,0.1c-0.4-0.7-1-1.2-1.7-1.5
		c-1,0.7-2,1.6-2.7,2.6c-0.5,0-1,0.1-1.5,0.1c-1.2-0.8,0.3-2,0.2-3.1c-0.7-0.1-1.3-0.1-2-0.2C23.6,4.4,22.6,4.7,22,3.8z M34.2,4.3
		c0.1,0.5,0.2,1.1,0.3,1.6l0.6-0.4c0.1,0.6,0.5,1.1,1.2,1.3c-0.5,0.7-1,1.7-1.9,1.9c0.1-0.3,0.3-1,0.4-1.3c-1.2-0.5-1.3,0.8-1.3,1.7
		c0.5,0,1,0,1.5,0c0.4,0.8,1.2,1,2,1.3c0.9,0.6,1.7,1.4,2.7,1.8c-0.4-0.6-1.4-1-1-1.8c0.2-0.1,0.7-0.4,1-0.6c0.2,0.7,0.3,1.4,0.4,2
		c0.6,0.4,1.2,0.5,1.7-0.1c0.8,0.5,1.6,1.1,2.5,0.7c-0.1-0.9,0.2-2-0.6-2.7c0.1,0.6,0.2,1.1,0.3,1.7c-0.1,0.3-0.3,0.6-0.4,0.9
		c-0.6-0.5-1.1-0.9-1.7-1.4c0.3-0.5,0.5-1,0.8-1.5c-0.3,0.1-0.8,0.4-1,0.5c0-0.5-0.1-1.4-0.1-1.8c-0.4,0.7-0.7,1.5-1,2.3
		c-0.1-0.5-0.3-0.9-0.4-1.3c-1.1,0.6-2.3,1.1-3.4,0.2c0.1-0.5,0.2-0.9,0.3-1.4c0.4-0.2,0.8-0.5,1.2-0.7c0.2-0.3,0.3-0.7,0.4-1
		c-0.9-0.4-1.9-0.6-2.8-0.8C35.5,4.7,35,4.3,34.2,4.3z M20.1,5.2c0.1,0.6,0.4,0.7,0.9,0.3C20.9,4.9,20.6,4.8,20.1,5.2z M17.4,7
		c0.4,0.2,0.8,0.3,1.2,0.5c-0.1,0.3-0.4,0.9-0.5,1.3c-0.2-0.5-0.4-1.1-0.7-1.6c-0.5,1.2-0.2,3.3-1.8,3.7c-1,0.4-0.9-0.8-1.2-1.4
		c-0.3,0.6-0.5,1.2-0.8,1.9c0.3,0.5,0.7,0.9,1,1.4c0.9-0.4,1.9-0.9,2-2c0.6,0.1,1.3,0.2,1.9,0.3c-0.5-0.6-0.9-1.4-0.9-2.2
		c0.6,0.3,1.3,0.6,1.9,1c0.3-0.4,0.6-0.8,0.9-1.2c-0.4-0.3-0.8-0.6-1.2-0.9c0.6,0,1.2,0,1.9,0c0-0.4,0.1-1.1,0.1-1.5l-0.6-0.2
		c0,0.3,0,0.8,0.1,1C19.7,7.1,18.8,7,17.8,7c0.3-0.3,1-0.9,1.3-1.3C18.4,6,17.8,6.4,17.4,7z M22.8,7.2c-0.1,0.4-0.1,0.8-0.1,1.2
		c0.5,0.1,1,0.2,1.5,0.4c-0.4-0.5-0.7-1.1-0.8-1.7C23.2,7,22.9,7.1,22.8,7.2z M11.2,10.2c0.1,0.2,0.3,0.6,0.4,0.8
		c-0.4,0.2-0.7,0-0.8-0.6l-0.3,0c0.1,0.5,0.2,1,0.3,1.5c0.6-0.1,1.1-0.4,1.5-0.7c1.1-0.1,1.3-1.5,2.4-1.7c-0.2-0.2-0.7-0.7-1-0.9
		c0.5-0.4,1-0.7,1.4-1.2C13.4,7.7,12.8,9.7,11.2,10.2z M45.6,11.6c0,0.4-0.1,0.9-0.1,1.3c0.2,0.2,0.5,0.5,0.6,0.6
		c-0.6,0.9-1.7,1.3-2.6,1.9c0.1-0.7,0.3-1.4,0.4-2.2c-0.7,0-1,0.5-1.1,1.2c0.4,1.2,1.4,2,2.2,3c0.1,0.9,0.3,1.9,0.6,2.8
		c0-0.6,0-1.1,0-1.7c0.6,0.3,1.3,0.4,1.9,0.3c-0.4,0.5-0.8,1.1-1.2,1.7c0.6,0.4,1.2,0.9,1.9,1.2c0,0.2,0,0.5,0,0.6
		c0.3,0,0.9,0.1,1.2,0.1c0.1,0.3,0.2,0.9,0.2,1.2c-0.8,0.6-2,0.9-2.2,2c0.6-0.3,1.3-0.6,1.9-1.1c0.7-1.1,1.1-2.4,1.1-3.8
		c-0.3,0.5-0.2,1.5-0.8,1.8c-0.8-0.4-1-1.4-1-2.3c0.4,0.1,1.3,0.3,1.7,0.4c-0.3-0.2-0.8-0.5-1.1-0.7l0-0.4c0.3-0.4,0.5-0.7,0.8-1.1
		c-0.4,0-0.8,0-1.2,0c-1-0.5-2-1-3.2-0.8c0-0.7,0.1-1.4,0.1-2.1c1,0,2,0,3,0.2c-0.1-0.2-0.3-0.5-0.5-0.7l-0.1,0
		c-0.3-1.1-1-2.1-1.9-2.9c0.1-0.2,0.4-0.7,0.6-0.9C46.6,11.5,45.9,11.6,45.6,11.6z M12.8,12.6c-0.1,0.2-0.3,0.7-0.4,1
		c0.6,0.2,1.2,0.4,1.8,0.5C13.8,13.6,13.6,12.5,12.8,12.6z M9.4,13.5c-0.4,0.5-0.8,1-1.1,1.5l0,0.1c-0.9,0.6,0,1.7,0,2.5l0.3-0.3
		c0,0.7,0,1.3-0.1,2c0.7,0.1,1.4,0.3,2.1,0.5c0.4-1-0.6-0.9-1.2-1.1c0-0.3-0.1-0.9-0.2-1.3c0.4,0.2,0.8,0.4,1.3,0.6
		c0.4-0.4,0.8-0.9,1.2-1.3c-0.2-0.3-0.4-0.6-0.7-0.9c0.4-1,0.6-2,0.1-2.9C10.5,13,9.9,13.2,9.4,13.5z M3.2,22.4
		c0.4,0.2,0.9,0.5,1.3,0.8l0.3-0.5c0.4-0.2,0.8-0.3,1.2-0.5c0.1-0.4,0.3-0.9,0.4-1.3c0.5,0.7,1,1.4,1.5,2.1c0.4-0.9,1.6-1.7,1.2-2.7
		c-0.5-0.2-1,0-1.3,0.7c-0.7-0.7-1.3-1.4-2.1-2C4.1,19.6,4.9,22,3.2,22.4z M6.3,22.6c0.2,0.5,0.2,1.7,1.1,1.5
		c0.9-0.1,1.5-0.7,1.4-1.6c-0.3,0.2-0.8,0.7-1.1,0.9C7.2,23.1,6.8,22.8,6.3,22.6z M51.1,24.2c-0.2,0.6-0.4,1.4-0.3,2.1
		c0.2,0.1,0.6,0.3,0.8,0.5c-0.3,0.4-0.7,0.9-1,1.3c2.3,0.8,2-1.9,1.4-3.1c0.2-0.2,0.7-0.6,0.9-0.8C52.4,24,51.6,23.7,51.1,24.2z
		 M4.3,25.3c-0.2,1.3-0.3,2.7-0.3,4c0.2-1.5,0.3-3,1.1-4.4c0.3,0,0.9,0.1,1.2,0.2c-0.2,0.7-0.4,1.5-0.5,2.2c-0.2,0-0.7,0.1-1,0.1
		c0,0.3,0,0.8,0.1,1c0.8,0.2,2,1.1,2.7,0.2c0.1-0.6,0.2-1.3,0.3-1.9c-0.2,0.1-0.7,0.2-1,0.3c0-0.5-0.1-1-0.1-1.5
		c-0.3-0.4-0.6-0.7-0.9-1.1C5.3,24.7,4.5,24.6,4.3,25.3z M47.8,26.5c0.1,0.7,0.3,1.4,0.4,2.1c-0.2,0.1-0.7,0.3-0.9,0.4
		c0.1,0.6,0.2,1.2,0.3,1.8c0-0.3,0.1-1,0.2-1.4c0.5,0.3,0.9,0.6,1.4,0.9c-0.8,0.6-1.5,1.2-2.3,1.9c0.6,0.2,1.3,0.4,1.9,0.6
		c-0.3,0.2-0.7,0.4-1,0.7c0.2,1,0.9,2.4,2.2,2.1c0.3-0.4,0.5-0.9,0.8-1.4c-0.1,0-0.4-0.1-0.6-0.2c0,0.3-0.1,1-0.2,1.3
		c-0.5-0.3-1.3-0.4-1.6-0.9c0.6-1.2,2-1.8,3.1-2.4l-0.8,0.1c-0.2-0.4-0.4-0.7-0.7-1.1c-0.2,0.3-0.7,0.8-0.9,1.1
		c-0.3-0.9,0.5-1.1,1-1.6c-0.7-0.5-1.5-1.3-1.3-2.2c0-0.9,0.9-0.9,1.6-0.7c0.2-0.5,0.2-0.9,0.1-1.4C50,26.1,49.4,26,48.8,26
		C48.5,26.1,48,26.4,47.8,26.5z M5,28.6c0.7,1,1.5,2,2.6,2.6c-0.1,0.4-0.3,1.3-0.4,1.7c-0.7-0.2-1.4-0.3-2-0.5c-0.2,0-0.7,0.1-1,0.2
		c0.1,1,0.2,2,0.9,2.7c-0.3,0.7-0.3,1.6,0.8,1.6c0.2-0.9-0.2-2,0.7-2.6l-0.8-1c0.5,0.3,1.4,0.8,1.9,1.1c1.5-0.3,1.6-2.2,0.6-3.1
		c0.4-0.8,0.7-1.6,0.8-2.5C8.6,29.1,8,29.7,7.7,30C6.7,29.8,5.9,29.1,5,28.6z M3.6,31.4 M7.3,35.4c0.5,0.4,1.1,0.4,1.7,0.3
		c0-0.3,0-1,0.1-1.3C8.5,34.7,7.9,35,7.3,35.4z M45.4,36.3c0.8,0.2,2,1.3,2.2-0.2C46.9,36,46.1,35.7,45.4,36.3z M6.1,37.1
		c0.2,0.7,0.5,1.4,1.3,1.8c-0.2-0.3-0.7-1-0.9-1.3c0.3-0.1,1-0.2,1.3-0.2C8,38,8.2,38.6,8.4,39.2c-0.5,0.2-1,0.3-1.5,0.5
		c1.2-0.1,1.8,0.9,2.6,1.6c0.7,0,1.5-0.1,2.2-0.1c0.5,0.6,0.9,1.3,1.8,1.1c-1.2,0.6-2.5,1.2-3.6,2c1,1,2.1,1.8,3,2.9
		c0.3,0,0.7-0.1,1-0.1c0-0.8-0.5-1.2-1.2-1.6c0.1-0.4,0.4-1.1,0.5-1.5c-0.7,0.2-1.4,0.5-2.1,0.7c0.5-0.9,1.4-0.7,2.3-0.7
		c0.4-0.4,1.1-0.7,1.2-1.4c-0.7-0.5-1.4-0.9-2.1-1.4c0-0.9-0.3-1.8-0.9-2.6c0,0.4,0,1.2,0,1.6c-0.7,0.1-1.4,0.2-2.1,0.5
		c0.4-0.4,0.9-0.7,1.3-1.1c0.2-0.8-0.4-1.4-0.8-2.1c-0.3,0.3-0.6,0.5-0.9,0.8c-0.2-0.4-0.4-0.8-0.6-1.3C7.7,37.1,6.9,37.1,6.1,37.1z
		 M48.8,38.4c-0.2-0.1-0.7-0.4-1-0.5c-0.2,0.1-0.5,0.2-0.7,0.3c-0.3-0.4-0.6-0.8-0.9-1.1c-0.9,0.4-1.4,1.2-1.8,2.1
		c-0.8,0.6-1.5,1.3-2.2,1.9c0.7-0.2,1.4-0.3,2.1-0.4c-0.2,0.3-0.5,0.8-0.7,1c0.4,0.5,0.7,1,1.1,1.5c0.5-0.8,1.2-2.2,0.1-2.9
		c0.2-0.3,0.4-0.6,0.5-0.9c0.8,0,1.7,0,2.4-0.6c0.2,0.5,0.5,1.1,0.7,1.6c-0.4-0.5-0.8-0.8-1.4-0.9c0,0.6,0.5,1.1,0.7,1.7
		c0.8-0.7,1.5-1.5,1.8-2.6c0.5-0.4,1.3-0.8,0.8-1.5C49.5,36.8,48.7,37.6,48.8,38.4z M7.6,40.3c-0.3,0.5,0.1,1.4,0.7,1.3
		C8.7,41.2,8.3,40,7.6,40.3z M41.7,43.9l1.2-0.9c-0.3,0.7-0.8,1.4-1.2,2.1c0.1,0.7,0.2,1.3,0.4,2c0.1-0.7,0.1-1.4,0.1-2
		c0.5-0.3,0.9-0.6,1.4-0.9c0.7,0.1,1.6,0.4,1.8-0.6c-0.5-0.1-1.1-0.2-1.6-0.2c0.1-0.9-0.2-1.4-1.1-1.3C42.5,42.4,42,43.4,41.7,43.9z
		 M14.5,44.3c0.2,0.5,0.5,0.9,0.8,1.4c0.1-0.9,0.3-1.8,0.4-2.7C15.2,43.3,14.4,43.6,14.5,44.3z M42.9,46c0,0.2-0.1,0.7-0.1,0.9
		c0.7-0.7,1.4-1.5,2.1-2.2C44.2,45.1,43.6,45.5,42.9,46z M17.9,46.6c0.3,0,1,0.1,1.3,0.1c-0.6,0.2-1.1,0.4-1.6,0.7
		c0-0.2,0-0.7,0-0.9c-0.1,0-0.3,0-0.4,0c0,0.7,0,1.4,0,2.1l-0.9-0.4c0.4,0.5,0.7,1,1.1,1.5c0.3-0.5,0.6-0.9,0.9-1.5
		c0.7,0.3,0.2,1.2,0.1,1.7c0.2,0.2,0.7,0.5,0.9,0.7c0-0.4,0-1.1,0-1.5c0.5,0.3,1.1,0.7,1.6,1c0.1-0.9,0.1-1.9,0.6-2.7
		c-0.7-0.7-1.4-1.4-2.1-0.3C19.7,46,17.7,44.9,17.9,46.6z M34.6,48c0.5-0.1,1.4-0.2,1.9-0.2c-0.2,1-0.4,2-0.8,3
		c0.3-0.2,0.9-0.6,1.2-0.8c0-0.4-0.1-1.2-0.1-1.5c0.3,0.4,0.5,0.9,0.8,1.3c1.3,0,2.5-0.8,3.1-2c-0.8,0.4-1.5,0.8-2.4,1.2
		c0.2-0.6,0.4-1.3,0.7-1.9c-0.4,0.3-0.8,0.6-1.2,0.9c-0.3,0.1-0.9,0.3-1.2,0.5c0.6-0.8,1.3-1.4,2.2-1.9c-0.4-0.4-0.8-0.7-1.2-1.1
		C36.4,46,35.8,47.3,34.6,48z M22.9,50.9c0.4-0.5,1-0.8,1.6-0.9c-0.2,0.8-0.8,1.3-1.3,1.9c2-0.3,1.8-2.5,1.5-4
		c-0.4,0-1.1-0.1-1.5-0.1C23.1,48.9,23,49.9,22.9,50.9z M25.1,48.4c0.7,0,1.4,0.1,2,0.4c0.1,0.7-0.5,1.1-0.8,1.7
		c-0.1-0.4-0.2-1.1-0.3-1.5l-0.6-0.2c0,0.9-0.1,1.8-0.1,2.7c0.6,0.5,1.5,0.3,2.2,0.4c0.1-0.2,0.4-0.5,0.5-0.7
		c-0.8,0-1.7,0.1-2.5,0.1c0.5-0.6,1.2-1,1.8-1.4c0.1-0.5,0.2-1,0.2-1.4c-0.4-0.2-0.9-0.5-1.3-0.7C25.9,48,25.5,48.2,25.1,48.4z
		 M30.3,47.5c0,0.3,0.1,1,0.2,1.3c-0.6,0.1-1.2,0.2-1.7,0.5c0.6,0,1.3,0,1.9,0c-0.1,0.3-0.2,0.8-0.3,1.1c-0.6,0.5-1.1,1.1-1.6,1.7
		c0.8-0.3,1.5-0.9,2.1-1.4c0.1-0.6,0.2-1.3,0.4-1.9l0.8,0.1c0,0.9,0,1.8,0.1,2.8c0.9-0.2,1.7-0.6,2.4-1.2c-0.6,0.1-1.2,0.2-1.8,0.2
		c-0.1-0.8-0.1-1.6-0.2-2.4c-0.3,0.1-0.9,0.2-1.2,0.3C31.2,48.1,30.9,47.7,30.3,47.5z M20,50.3"/>
</g>
<path fill="#A2B1AA" d="M27.3,3.4"/>
<g>
	<path fill="#0E6037" d="M22,3.8c0.6,0.9,1.5,0.6,2.3,0c0.7,0.1,1.3,0.1,2,0.2c0,1.1-1.4,2.2-0.2,3.1c0.5,0,1,0,1.5-0.1
		c0.7-1.1,1.6-1.9,2.7-2.6c0.7,0.3,1.3,0.8,1.7,1.5c0.4,0,1.1,0,1.4-0.1c0-1.2-0.8-1.6-1.8-1.9c0.7,0.1,1.4,0.2,2,0.2
		c0,0.6-0.1,1.3-0.1,1.9c-1,0.6-1.9,1.3-2.8,2c-0.8-0.5-1.4-1.2-1.3-2.2c-0.4,0.6-0.8,1.3-1,2c0.2,0,0.6,0.1,0.8,0.1
		c0.2,0.5,0.4,1,0.6,1.5c5.5,0.7,10.8,3.6,13.8,8.4c3,4.7,3.9,10.7,2.1,16c-2.6,8.6-12.2,14.4-21,12.6c-6.4-1.1-12-5.7-14.2-11.8
		c-3.3-8.3,0.3-18.7,8.3-22.8c3.2-1.8,7-2.6,10.7-2.4c-0.1-0.2-0.4-0.7-0.6-1l-0.6,0.4c-0.1-0.3-0.2-0.8-0.3-1
		c-1.2,0.4-2.5,1-3.7,0.2c0.2-1,0.6-2,0.9-2.9c-0.3,0.4-0.7,0.8-1,1.2c-0.2-0.2-0.6-0.5-0.7-0.7c-0.5,0.1-1.1,0.2-1.6,0.2
		C21.8,5,21.9,4.4,22,3.8z M24.7,10.3c-4.3,0.8-8.4,3.1-11,6.6c-2.4,3.1-3.8,7.1-3.7,11c-0.1,6.1,3.4,12,8.6,15.1
		c3.6,2.3,8,3.1,12.2,2.4c6-0.9,11.3-5.2,13.6-10.8c3.1-7.1,0.7-16-5.4-20.7C35,10.9,29.7,9.4,24.7,10.3z"/>
</g>
<path fill="#116340" d="M34.2,4.3c0.8,0,1.3,0.4,1.7,1c1,0.2,1.9,0.4,2.8,0.8c-0.2,0.3-0.3,0.7-0.4,1c-0.4,0.2-0.8,0.4-1.2,0.7
	c-0.1,0.5-0.2,0.9-0.3,1.4c1.1,0.9,2.3,0.4,3.4-0.2c0.1,0.4,0.3,0.9,0.4,1.3c0.2-0.8,0.5-1.6,1-2.3c0,0.5,0.1,1.4,0.1,1.8
	c0.3-0.1,0.8-0.4,1-0.5c-0.3,0.5-0.5,1-0.8,1.5c0.6,0.5,1.2,0.9,1.7,1.4c0.1-0.3,0.3-0.6,0.4-0.9c-0.1-0.6-0.2-1.1-0.3-1.7
	c0.8,0.7,0.5,1.8,0.6,2.7c-0.9,0.4-1.8-0.2-2.5-0.7c-0.5,0.7-1.1,0.5-1.7,0.1c-0.1-0.7-0.3-1.4-0.4-2c-0.2,0.1-0.7,0.4-1,0.6
	c-0.4,0.8,0.7,1.3,1,1.8c-1-0.4-1.8-1.2-2.7-1.8c-0.8-0.3-1.6-0.5-2-1.3c-0.5,0-1,0-1.5,0c0-0.9,0.1-2.1,1.3-1.7
	c-0.1,0.3-0.3,1-0.4,1.3c1-0.3,1.4-1.2,1.9-1.9c-0.6-0.2-1-0.6-1.2-1.3l-0.6,0.4C34.5,5.3,34.3,4.8,34.2,4.3z"/>
<path fill="#92AAA0" d="M20.1,5.2c0.5-0.4,0.8-0.3,0.9,0.3C20.5,5.9,20.2,5.8,20.1,5.2z"/>
<path fill="#0B5E35" d="M17.4,7c0.4-0.6,1.1-1,1.7-1.3c-0.3,0.3-1,0.9-1.3,1.3c0.9,0.1,1.9,0.2,2.8,0.2c0-0.3,0-0.8-0.1-1l0.6,0.2
	c0,0.4-0.1,1.1-0.1,1.5c-0.6,0-1.2,0-1.9,0c0.4,0.3,0.8,0.6,1.2,0.9c-0.3,0.4-0.6,0.8-0.9,1.2c-0.6-0.3-1.3-0.7-1.9-1
	c0,0.9,0.3,1.6,0.9,2.2c-0.6-0.1-1.3-0.2-1.9-0.3c-0.1,1.1-1.1,1.5-2,2c-0.3-0.5-0.7-0.9-1-1.4c0.3-0.6,0.5-1.3,0.8-1.9
	c0.3,0.6,0.3,1.8,1.2,1.4c1.6-0.5,1.3-2.5,1.8-3.7c0.3,0.5,0.5,1,0.7,1.6c0.1-0.3,0.4-0.9,0.5-1.3C18.2,7.4,17.8,7.2,17.4,7z"/>
<path fill="#123834" d="M22.8,7.2c0.1,0,0.4-0.1,0.6-0.2c0.1,0.6,0.4,1.2,0.8,1.7c-0.5-0.1-1-0.3-1.5-0.4
	C22.7,7.9,22.7,7.5,22.8,7.2z"/>
<path fill="#02603E" d="M11.2,10.2c1.6-0.5,2.2-2.4,3.9-2.8c-0.5,0.4-0.9,0.8-1.4,1.2c0.2,0.2,0.7,0.7,1,0.9
	c-1.1,0.2-1.3,1.6-2.4,1.7c-0.5,0.4-1,0.6-1.5,0.7c-0.1-0.5-0.2-1-0.3-1.5l0.3,0c0.1,0.6,0.4,0.8,0.8,0.6
	C11.5,10.8,11.3,10.4,11.2,10.2z"/>
<g>
	<path fill="#FEFEFD" d="M24.7,10.3c5-0.9,10.3,0.5,14.2,3.7c6,4.7,8.5,13.6,5.4,20.7c-2.3,5.6-7.6,9.9-13.6,10.8
		c-4.2,0.7-8.6-0.1-12.2-2.4c-5.2-3.1-8.6-9-8.6-15.1c-0.1-4,1.3-7.9,3.7-11C16.3,13.4,20.4,11.1,24.7,10.3z M28.6,14
		c0.8,0.9,1.6,1.9,2.6,2.7c0.6-0.2,1-0.7,1.6-1c-0.6-1.1-1.4-2-2.4-2.7C29.6,13.2,29.1,13.7,28.6,14z M33.8,14.1
		c-0.1,0.3-0.3,0.9-0.5,1.3c1.6-0.6,2.3,1.5,3.3,2.2c-0.1-1.3,0.5-3.2-1-4C35,13,34.4,13.8,33.8,14.1z M27,16.3
		c0.9,0.9,1.8,1.9,2.7,2.9c0.6-0.5,1.3-1,2-1.3c-1-0.6-1.8-1.5-2.7-2.2C28.3,15.1,27.6,16,27,16.3z M32,16.7
		c1.9,1.3,3.1,3.3,4.5,5.1c0-1.2,0.2-2.4-0.2-3.5c-0.7-1.1-1.8-2-2.8-2.8C33.2,16,32.7,16.4,32,16.7z M25.7,18.6
		c0.7,1,1.5,2,2.4,2.8c1.1-0.5,2-1.1,3-1.7c2.2,1.6,3.6,4.1,5.5,6.1c-0.1-1,0.1-2-0.2-2.9c-1.1-1.9-2.5-3.5-4.1-5
		c-1.1,0.6-2,1.4-2.9,2.3c-0.8-1-1.6-1.9-2.6-2.6C26.6,17.9,26,18.4,25.7,18.6z M16.8,20.8c-1-0.1-1.3,1.1-1.7,1.7
		c0.9,0.1,1.7,0.2,2.6,0.4c0.5,0.7,0,1.8,0.1,2.7c1.3-1.3,2.7-2.3,4.2-3.3c-0.6-0.9-1.2-1.8-2-2.5C18.9,20.3,17.9,20.8,16.8,20.8z
		 M24,21.3c0.9,0.9,1.7,1.9,2.7,2.7c0.2-0.2,0.7-0.7,0.9-0.9c0.2,0.1,0.3,0.3,0.5,0.4c-0.8,0.2-1.3,0.9-1.8,1.4
		c-0.7-0.8-1.5-1.5-2.2-2.3c-0.5,0.4-1.1,0.8-1.5,1.3c0.9,0.9,1.7,1.8,2.5,2.8c1-0.7,1.9-1.5,3-2.1c1.8,1.6,2.9,3.7,4.5,5.3
		c1.4,1.5,2.8,3.2,2.6,5.4c0.2,1.1-0.9,1.7-1.5,2.5c1.1,0.1,2.2,0,3.2-0.1c-0.3-0.5-0.6-1-0.9-1.4c0.1-1.8,1.2-3.8-0.1-5.4
		c-2.3-3-4.6-6-7.3-8.7c0.8,0.1,1.6,0.3,2,1c2,2.3,3.8,4.8,5.9,7c-0.1-1.1,0.3-2.4-0.5-3.4c-1.6-2.2-3.2-4.4-5.1-6.3
		c-1.1,0.4-2,1.1-3,1.8c-0.8-0.6-1.4-1.4-2.1-2C25.1,20.1,24.6,20.9,24,21.3z M17.7,26.2c-0.6,2,0.9,4,2.6,4.9
		c1.1,0.2,2.1-0.4,3.1-0.8c1.2,1.7,1.7,3.8,1.6,5.9c-0.2,0.8-1.1,1.1-1.7,1.6c1.1,0,2.3,0,3.4,0c-0.3-0.6-0.8-1-0.8-1.7
		c0.1-1.8,0.3-3.6,0.6-5.4c1-1.7,3.3-0.9,4.9-0.9c-1.1-1.5-2.3-3-3.5-4.4c-1.1,0.7-2.2,1.4-3.2,2.2c-1.3-1.3-2.3-2.9-2.8-4.6
		C20.4,23.8,18.8,24.8,17.7,26.2z M27.8,39.2c0.3,0.1,0.8,0.2,1.1,0.3c0,0.3,0,0.8,0,1c-0.4,0.1-1.2,0.2-1.5,0.2
		c0-0.3,0.1-0.9,0.2-1.2c-0.4-0.9-1.6-0.3-2.4-0.5c-0.1,0.5-0.3,1-0.4,1.5c-0.1-0.3-0.2-1-0.2-1.3l-0.8,0.1c0.2,0.6,0.5,1.2,0.8,1.8
		c1.1,0.2,1-0.9,1.2-1.6c0,0.4,0,1.1,0.1,1.5c1.6,0.2,3.3-0.2,4.9,0.2c0.3-0.2,0.7-0.4,1-0.5c0-0.7,0.2-1.5-0.6-1.9
		c-0.1,0.5-0.2,1.5-0.2,2c-0.2-0.6-0.3-1.3-0.5-1.9C29.6,39,28.7,39.1,27.8,39.2z M17.9,41.5c0-0.7,0-1.4,0-2.1
		c0.2,0.7,0.3,1.4,0.8,1.9c0.3-0.1,0.8-0.3,1.1-0.4c-0.3-0.2-0.9-0.6-1.2-0.8c0.2-0.3,0.3-0.7,0.5-1c-0.7-0.1-1.3-0.2-2-0.2
		C16.9,39.9,16.4,41.3,17.9,41.5z M19.5,39.1c0.2,0.9,0.3,2.4,1.5,2.1c0.5-0.8,0.2-1.6-0.1-2.4c-0.2,0.7-0.4,1.3-0.5,2
		c0-0.5-0.1-1.4-0.2-1.9C20.1,39,19.7,39.1,19.5,39.1z M21.8,39.3c-0.4,0.3-0.5,1.4,0.1,1.4C22.3,40.4,22.4,39.3,21.8,39.3z
		 M22.8,39.2c-0.1,0.5-0.1,1-0.2,1.5c0.3,0,0.8-0.1,1-0.1l0-0.3c-0.2,0-0.5,0-0.7,0c0.1-0.3,0.3-0.8,0.3-1.1L22.8,39.2z M32.8,39
		c-0.1,0.7-0.2,1.4-0.2,2.2c0.4-0.1,0.9-0.2,1.3-0.4c0.6,0.3,1.2,0.2,1.8-0.1c-0.3,0-1,0-1.4,0c0-0.3,0-1.1,0-1.4c1,0.1,1.5,1,2,1.7
		c0.5-0.2,1.2-0.1,1.2-0.9c0.4,0.4,0.7,0.8,1.1,1.1c0.1-0.5,0.6-3.3-0.3-1.3c-0.4-0.3-0.9-0.5-1.3-0.8l0.5,0.8L37,39.8
		c0,0.2-0.1,0.6-0.2,0.9c-0.3-0.1-0.8-0.4-1-0.6c0.3-0.2,0.8-0.5,1-0.7c-0.9,0-1.8,0-2.7-0.1c0.1,0.9-0.2,1.4-1,1.7
		C33,40.3,32.9,39.7,32.8,39z"/>
</g>
<g>
	<path fill="#10613D" d="M45.6,11.6c0.3-0.1,1-0.2,1.4-0.2c-0.1,0.2-0.4,0.7-0.6,0.9c0.9,0.8,1.5,1.8,1.9,2.9
		c-1,0.2-2.1,0.4-3.1,0.7c0.2,0.6,0.4,1.3,0.6,2c1.1-0.1,2.2,0.3,3.2,0.8c-0.3,0-1,0-1.4,0c0.2,0.5,0.3,1,0.5,1.5
		c0.5-0.4,1-0.9,1.5-1.3l-0.1,0.9l0,0.4c0.3,0.2,0.8,0.5,1.1,0.7c-0.4-0.1-1.3-0.3-1.7-0.4c-0.1,0.9,0.2,1.8,1,2.3
		c0.7-0.3,0.5-1.3,0.8-1.8c0,1.3-0.5,2.6-1.1,3.8c-0.6,0.4-1.3,0.7-1.9,1.1c0.2-1.2,1.4-1.4,2.2-2c-0.1-0.3-0.2-0.9-0.2-1.2
		c-0.3,0-0.9-0.1-1.2-0.1c0-0.2,0-0.5,0-0.6c-0.7-0.3-1.3-0.8-1.9-1.2c0.4-0.6,0.8-1.1,1.2-1.7c-0.7,0.1-1.3,0-1.9-0.3
		c0,0.6,0,1.1,0,1.7c-0.3-0.9-0.5-1.8-0.6-2.8c-0.8-1-1.8-1.8-2.2-3c0.1-0.6,0.5-1.1,1.1-1.2c-0.1,0.7-0.2,1.4-0.4,2.2
		c0.9-0.6,2-1,2.6-1.9c-0.2-0.2-0.5-0.5-0.6-0.6C45.5,12.5,45.5,12.1,45.6,11.6z M46.1,14.8c0.4,0.3,1.4-0.1,1.2-0.7
		C46.9,13.9,45.9,14.3,46.1,14.8z"/>
</g>
<path fill="#02603E" d="M12.8,12.6c0.8,0,1,1,1.4,1.5c-0.6-0.2-1.2-0.3-1.8-0.5C12.5,13.3,12.7,12.8,12.8,12.6z"/>
<path fill="#106941" d="M9.4,13.5c0.6-0.2,1.1-0.4,1.7-0.6c0.5,1,0.3,2-0.1,2.9c0.2,0.3,0.4,0.6,0.7,0.9c-0.4,0.4-0.8,0.9-1.2,1.3
	c-0.4-0.2-0.8-0.4-1.3-0.6c0,0.3,0.1,0.9,0.2,1.3c0.6,0.2,1.6,0.2,1.2,1.1c-0.7-0.1-1.4-0.3-2.1-0.5c0-0.7,0-1.3,0.1-2
	c0.2-0.2,0.6-0.6,0.7-0.7c-0.2-0.2-0.6-0.6-0.8-0.9c0.7-0.2,1.3-0.5,2-0.7c0.2-0.4,0.3-0.9,0.3-1.4c-0.1-0.1-0.4-0.2-0.5-0.2
	L9.4,13.5z"/>
<path fill="#026734" d="M28.6,14c0.6-0.4,1-0.9,1.7-1c1,0.6,1.9,1.6,2.4,2.7c-0.5,0.3-1,0.8-1.6,1C30.2,15.9,29.4,14.9,28.6,14z"/>
<path fill="#026C38" d="M33.8,14.1c0.6-0.3,1.2-1,1.9-0.5c1.5,0.8,0.9,2.7,1,4c-1.1-0.7-1.8-2.8-3.3-2.2
	C33.4,15,33.7,14.4,33.8,14.1z"/>
<path fill="#94BBAA" d="M8.2,15c0.4-0.5,0.7-1.1,1.1-1.5l0.9,0c-0.6,0.5-1.1,1.1-1.6,1.7c0.5,0,1.4,0,1.9,0c-0.7,0.2-1.4,0.4-2,0.7
	c0.2,0.2,0.6,0.6,0.8,0.9c-0.2,0.2-0.6,0.6-0.7,0.7l-0.3,0.3c0-0.8-1-2,0-2.5c0,0,0.1-0.1,0.2-0.1L8.2,15z"/>
<path fill="#EEFBF9" d="M10.2,13.5c0.1,0.1,0.4,0.2,0.5,0.2c0,0.5-0.1,0.9-0.3,1.4c-0.5,0-1.4,0-1.9,0C9.1,14.6,9.7,14,10.2,13.5z"
	/>
<path fill="#80C1A3" d="M46.1,14.8c-0.2-0.6,0.8-0.9,1.2-0.7C47.5,14.7,46.5,15.1,46.1,14.8z"/>
<path fill="#517C69" d="M8.2,15l0.1,0c0,0-0.1,0.1-0.2,0.1L8.2,15z"/>
<path fill="#97BDB0" d="M48.3,15.2l0.1,0c0.1,0.2,0.3,0.5,0.5,0.7c-1-0.1-2-0.2-3-0.2c0,0.7-0.1,1.4-0.1,2.1c-0.2-0.7-0.4-1.3-0.6-2
	C46.2,15.6,47.2,15.4,48.3,15.2z"/>
<path fill="#026C37" d="M27,16.3c0.6-0.3,1.3-1.2,2-0.6c0.9,0.8,1.7,1.6,2.7,2.2c-0.7,0.3-1.4,0.8-2,1.3C28.8,18.3,28,17.3,27,16.3z
	"/>
<path fill="#016931" d="M32,16.7c0.6-0.3,1.1-0.7,1.5-1.2c1,0.8,2,1.7,2.8,2.8c0.4,1.1,0.2,2.3,0.2,3.5C35.2,20,33.9,18,32,16.7z"/>
<path fill="#036E32" d="M25.7,18.6c0.3-0.3,0.9-0.8,1.1-1.1c1,0.7,1.9,1.6,2.6,2.6c0.9-0.8,1.8-1.6,2.9-2.3c1.5,1.5,3,3.2,4.1,5
	c0.2,0.9,0.1,2,0.2,2.9c-1.9-2-3.3-4.5-5.5-6.1c-1,0.6-1.9,1.3-3,1.7C27.2,20.6,26.4,19.7,25.7,18.6z"/>
<path fill="#9FBDB2" d="M48.9,18.6c0.4,0,0.8,0,1.2,0c-0.3,0.4-0.5,0.7-0.8,1.1l0.1-0.9c-0.5,0.4-1,0.9-1.5,1.3
	c-0.2-0.5-0.3-1-0.5-1.5C47.8,18.6,48.5,18.6,48.9,18.6z"/>
<path fill="#035C2C" d="M3.2,22.4c1.7-0.4,0.9-2.8,2.4-3.5c0.7,0.6,1.4,1.4,2.1,2C8,20.3,8.5,20,9,20.2c0.4,1-0.8,1.8-1.2,2.7
	c-0.5-0.7-1-1.4-1.5-2.1c-0.2-0.3-0.5-0.7-0.7-1c0,0.3-0.1,0.9-0.1,1.2c-0.2,0.5-0.4,1-0.7,1.6l-0.3,0.5C4.1,22.9,3.6,22.6,3.2,22.4
	z"/>
<path fill="#7CAC94" d="M5.6,19.9c0.3,0.3,0.5,0.7,0.7,1c-0.1,0.4-0.3,0.9-0.4,1.3c-0.4,0.2-0.8,0.3-1.2,0.5c0.2-0.5,0.5-1,0.7-1.6
	C5.5,20.8,5.5,20.2,5.6,19.9z"/>
<path fill="#036B3D" d="M16.8,20.8c1.1,0,2.1-0.5,3.1-0.9c0.8,0.7,1.4,1.6,2,2.5c-1.5,1-2.9,2-4.2,3.3c-0.1-0.9,0.4-1.9-0.1-2.7
	c-0.9-0.2-1.7-0.3-2.6-0.4C15.5,21.9,15.8,20.7,16.8,20.8z"/>
<path fill="#026E36" d="M24,21.3c0.6-0.5,1.1-1.2,1.9-1c0.7,0.6,1.3,1.4,2.1,2c0.9-0.7,1.9-1.4,3-1.8c2,1.9,3.5,4.1,5.1,6.3
	c0.8,0.9,0.4,2.3,0.5,3.4c-2.1-2.2-3.9-4.7-5.9-7c-0.5-0.7-1.2-0.9-2-1c2.7,2.7,5,5.7,7.3,8.7c1.4,1.5,0.3,3.6,0.1,5.4
	c0.3,0.5,0.6,1,0.9,1.4c-1.1,0.1-2.2,0.2-3.2,0.1c0.6-0.8,1.7-1.4,1.5-2.5c0.2-2.2-1.2-4-2.6-5.4c-1.6-1.7-2.8-3.8-4.5-5.3
	c-1.1,0.6-2,1.4-3,2.1c-0.8-1-1.6-1.9-2.5-2.8c0.5-0.5,1-0.9,1.5-1.3c0.7,0.8,1.5,1.5,2.2,2.3c0.6-0.5,1.1-1.2,1.8-1.4
	c-0.2-0.2-0.3-0.3-0.5-0.4c-0.2,0.2-0.7,0.7-0.9,0.9C25.8,23.2,24.9,22.2,24,21.3z"/>
<path fill="#528067" d="M6.3,22.6c0.5,0.3,0.9,0.5,1.4,0.8c0.3-0.2,0.8-0.7,1.1-0.9c0.1,0.9-0.5,1.6-1.4,1.6
	C6.6,24.2,6.5,23.1,6.3,22.6z"/>
<path fill="#026A3B" d="M17.7,26.2c1.1-1.4,2.7-2.4,4.3-3.3c0.5,1.8,1.5,3.4,2.8,4.6c1-0.8,2.1-1.5,3.2-2.2c1.3,1.4,2.4,2.9,3.5,4.4
	c-1.6,0-3.9-0.8-4.9,0.9c-0.4,1.8-0.6,3.6-0.6,5.4c-0.1,0.7,0.5,1.1,0.8,1.7c-1.1,0-2.3,0-3.4,0c0.5-0.6,1.4-0.9,1.7-1.6
	c0.1-2.1-0.4-4.2-1.6-5.9c-1,0.5-2,1-3.1,0.8C18.5,30.2,17.1,28.2,17.7,26.2z"/>
<path fill="#2A7F65" d="M51.1,24.2c0.5-0.6,1.3-0.3,1.9,0c-0.2,0.2-0.7,0.6-0.9,0.8c0.5,1.2,0.8,3.9-1.4,3.1c0.3-0.5,0.7-0.9,1-1.3
	c-0.2-0.1-0.6-0.3-0.8-0.5C50.7,25.6,50.9,24.9,51.1,24.2z"/>
<path fill="#166544" d="M4.3,25.3c0.2-0.7,1-0.6,1.5-0.8c0.3,0.4,0.6,0.7,0.9,1.1c0,0.5,0.1,1,0.1,1.5c0.2-0.1,0.7-0.2,1-0.3
	c-0.1,0.6-0.1,1.3-0.3,1.9c-0.7,0.9-1.9,0-2.7-0.2c0-0.3,0-0.8-0.1-1c0.2,0,0.7-0.1,1-0.1c0.2-0.7,0.4-1.5,0.5-2.2
	c-0.3,0-0.9-0.1-1.2-0.2c-0.8,1.3-0.9,2.9-1.1,4.4C4.1,27.9,4.1,26.6,4.3,25.3z"/>
<path fill="#03613F" d="M47.8,26.5c0.2-0.1,0.7-0.4,1-0.6c0.6,0,1.2,0.1,1.8,0.3c0.1,0.5,0,1-0.1,1.4c-0.7-0.3-1.6-0.2-1.6,0.7
	c-0.2,0.9,0.6,1.7,1.3,2.2c-0.5,0.5-1.3,0.7-1,1.6c0.2-0.3,0.7-0.8,0.9-1.1c0.2,0.4,0.4,0.7,0.7,1.1l0.8-0.1
	c-1.2,0.6-2.5,1.1-3.1,2.4c0.3,0.6,1.1,0.6,1.6,0.9c0-0.3,0.1-1,0.2-1.3c0.1,0,0.4,0.1,0.6,0.2c-0.3,0.5-0.5,0.9-0.8,1.4
	c-1.3,0.3-2-1-2.2-2.1c0.3-0.2,0.7-0.4,1-0.7c-0.6-0.2-1.3-0.4-1.9-0.6c0.7-0.7,1.5-1.3,2.3-1.9c-0.4-0.3-0.9-0.6-1.4-0.9
	c0,0.3-0.1,1-0.2,1.4c-0.1-0.6-0.2-1.2-0.3-1.8c0.2-0.1,0.7-0.3,0.9-0.4C48.1,28,47.9,27.2,47.8,26.5z"/>
<path fill="#0D663C" d="M5,28.6c0.9,0.5,1.7,1.2,2.8,1.4c0.3-0.3,0.9-0.9,1.1-1.2c-0.1,0.9-0.4,1.7-0.8,2.5c1.1,0.9,1,2.8-0.6,3.1
	c-0.5-0.3-1.4-0.8-1.9-1.1l0.8,1C5.6,34.9,6,36,5.8,36.9c-1,0-1-0.9-0.8-1.6c-0.7-0.7-0.8-1.7-0.9-2.7c0.2,0,0.7-0.1,1-0.2
	c0.7,0.2,1.4,0.3,2,0.5c0.1-0.4,0.3-1.3,0.4-1.7C6.5,30.6,5.7,29.6,5,28.6z"/>
<path fill="#C3C8C6" d="M3.6,31.4"/>
<path fill="#02603E" d="M7.3,35.4c0.6-0.3,1.1-0.7,1.7-1c0,0.3,0,1-0.1,1.3C8.4,35.8,7.8,35.8,7.3,35.4z"/>
<path fill="#123834" d="M45.4,36.3c0.7-0.5,1.5-0.3,2.2-0.2C47.5,37.5,46.2,36.5,45.4,36.3z"/>
<g>
	<path fill="#0B6D3A" d="M6.1,37.1c0.8,0,1.6,0,2.5,0c0.2,0.4,0.4,0.8,0.6,1.3c0.3-0.3,0.6-0.6,0.9-0.8c0.4,0.6,0.9,1.3,0.8,2.1
		c-0.4,0.4-0.9,0.7-1.3,1.1c0.7-0.2,1.4-0.3,2.1-0.5c0-0.4,0-1.2,0-1.6c0.6,0.8,0.9,1.7,0.9,2.6c0.7,0.4,1.5,0.9,2.1,1.4
		c-0.1,0.7-0.8,0.9-1.2,1.4c-0.8,0-1.8-0.2-2.3,0.7c0.7-0.2,1.4-0.4,2.1-0.7c-0.1,0.4-0.4,1.1-0.5,1.5c0.6,0.3,1.1,0.8,1.2,1.6
		c-0.2,0-0.7,0.1-1,0.1c-0.9-1.1-2-1.9-3-2.9c1.1-0.8,2.3-1.4,3.6-2c-0.9,0.2-1.3-0.5-1.8-1.1c-0.7,0-1.5,0.1-2.2,0.1
		c-0.8-0.7-1.4-1.7-2.6-1.6c0.5-0.2,1-0.3,1.5-0.5C8.2,38.6,8,38,7.7,37.4c-0.3,0.1-1,0.2-1.3,0.2c0.2,0.3,0.7,1,0.9,1.3
		C6.6,38.6,6.3,37.9,6.1,37.1z M9.2,39.7"/>
</g>
<path fill="#115F3F" d="M48.8,38.4c-0.1-0.8,0.7-1.6,1.5-1.3c0.5,0.7-0.3,1.1-0.8,1.5c-0.3,1.1-0.9,1.9-1.8,2.6
	c-0.2-0.6-0.7-1-0.7-1.7c0.6,0.1,1,0.4,1.4,0.9c-0.2-0.6-0.5-1.1-0.7-1.6c-0.7,0.6-1.5,0.6-2.4,0.6c-0.2,0.3-0.4,0.6-0.5,0.9
	c1.1,0.6,0.4,2.1-0.1,2.9c-0.4-0.5-0.7-1-1.1-1.5c0.2-0.3,0.5-0.8,0.7-1c-0.7,0.1-1.4,0.3-2.1,0.4c0.7-0.7,1.4-1.3,2.2-1.9
	c0.4-0.9,0.9-1.7,1.8-2.1c0.3,0.4,0.6,0.8,0.9,1.1c0.2-0.1,0.5-0.2,0.7-0.3C48.1,38,48.6,38.3,48.8,38.4z"/>
<g>
	<path fill="#89B497" d="M27.8,39.2c0.9-0.2,1.7-0.3,2.6-0.3c0.2,0.6,0.3,1.3,0.5,1.9c0.1-0.5,0.2-1.5,0.2-2
		c0.8,0.3,0.6,1.2,0.6,1.9c-0.3,0.2-0.7,0.4-1,0.5c-1.6-0.5-3.3,0-4.9-0.2c0-0.4,0-1.1-0.1-1.5c-0.2,0.7-0.2,1.8-1.2,1.6
		c-0.3-0.6-0.6-1.1-0.8-1.8l0.8-0.1c0.1,0.3,0.2,1,0.2,1.3c0.1-0.5,0.3-1,0.4-1.5c0.8,0.1,2-0.5,2.4,0.5c0,0.3-0.1,0.9-0.2,1.2
		c0.4-0.1,1.2-0.2,1.5-0.2c0-0.3,0-0.8,0-1C28.7,39.4,28.1,39.3,27.8,39.2z M26.4,39.7"/>
</g>
<path fill="#8DAE9A" d="M17.9,41.5c-1.5-0.3-0.9-1.6-0.8-2.6c0.7,0.1,1.3,0.2,2,0.2c-0.2,0.3-0.3,0.7-0.5,1c0.3,0.2,0.9,0.6,1.2,0.8
	c-0.3,0.1-0.8,0.3-1.1,0.4c-0.5-0.5-0.6-1.3-0.8-1.9C17.9,40.1,17.9,40.8,17.9,41.5z"/>
<path fill="#86A18F" d="M19.5,39.1c0.2,0,0.6-0.1,0.8-0.2c0,0.5,0.1,1.4,0.2,1.9c0.1-0.7,0.3-1.4,0.5-2c0.2,0.8,0.6,1.6,0.1,2.4
	C19.8,41.5,19.7,40,19.5,39.1z"/>
<path fill="#90A997" d="M21.8,39.3c0.6,0,0.5,1.1,0.1,1.4C21.3,40.7,21.4,39.6,21.8,39.3z"/>
<path fill="#123834" d="M22.8,39.2l0.5,0c-0.1,0.3-0.3,0.8-0.3,1.1c0.2,0,0.5,0,0.7,0l0,0.3c-0.3,0-0.8,0.1-1,0.1
	C22.7,40.1,22.8,39.7,22.8,39.2z"/>
<path fill="#02603E" d="M32.8,39c0.1,0.7,0.2,1.3,0.3,2c0.8-0.3,1.1-0.8,1-1.7c0.9,0.1,1.8,0.1,2.7,0.1c-0.3,0.2-0.8,0.5-1,0.7
	c0.3,0.1,0.8,0.4,1,0.6c0-0.2,0.1-0.6,0.2-0.9l0.5,0.1L37,39.1c0.4,0.3,0.9,0.5,1.3,0.8c0.9-2,0.4,0.9,0.3,1.3
	c-0.4-0.4-0.7-0.8-1.1-1.1c0.1,0.8-0.7,0.7-1.2,0.9c-0.5-0.7-1-1.6-2-1.7c0,0.3,0,1.1,0,1.4c0.3,0,1,0,1.4,0
	c-0.6,0.3-1.2,0.3-1.8,0.1c-0.4,0.1-0.9,0.2-1.3,0.4C32.7,40.4,32.7,39.7,32.8,39z"/>
<path fill="#84CCA7" d="M9.2,39.7"/>
<path fill="#ECFFF4" d="M26.4,39.7"/>
<path fill="#123834" d="M7.6,40.3c0.7-0.3,1,0.8,0.7,1.3C7.8,41.8,7.3,40.8,7.6,40.3z"/>
<path fill="#02603E" d="M41.7,43.9c0.3-0.5,0.8-1.5,1.1-2c0.9-0.1,1.2,0.5,1.1,1.3c0.5,0.1,1.1,0.1,1.6,0.2c-0.2,1-1.1,0.7-1.8,0.6
	c-0.5,0.3-0.9,0.6-1.4,0.9c0,0.7-0.1,1.4-0.1,2c-0.2-0.7-0.3-1.3-0.4-2c0.5-0.7,0.9-1.3,1.2-2.1L41.7,43.9z"/>
<path fill="#02603E" d="M14.5,44.3c-0.1-0.7,0.7-1.1,1.3-1.3c-0.2,0.9-0.3,1.8-0.4,2.7C15,45.3,14.7,44.8,14.5,44.3z"/>
<path fill="#02603E" d="M42.9,46c0.7-0.4,1.3-0.9,2-1.3c-0.7,0.8-1.4,1.5-2.1,2.2C42.8,46.6,42.9,46.2,42.9,46z"/>
<g>
	<path fill="#02603E" d="M17.9,46.6c-0.2-1.7,1.8-0.6,1.5,0.6c0.7-1,1.5-0.4,2.1,0.3c-0.6,0.8-0.6,1.8-0.6,2.7
		c-0.5-0.3-1.1-0.7-1.6-1c0,0.4,0,1.1,0,1.5c-0.2-0.2-0.7-0.5-0.9-0.7c0.1-0.5,0.7-1.4-0.1-1.7c-0.2,0.5-0.5,1-0.9,1.5
		c-0.4-0.5-0.8-1-1.1-1.5l0.9,0.4c0-0.7,0-1.4,0-2.1c0.1,0,0.3,0,0.4,0c0,0.2,0,0.7,0,0.9c0.5-0.3,1.1-0.5,1.6-0.7
		C18.9,46.7,18.2,46.6,17.9,46.6z M18.5,48.2c0.8,0.3,1.5,0.7,2.3,1c-0.3-0.3-0.6-0.7-0.9-1C19.6,47.4,18.6,47,18.5,48.2z
		 M20.5,47.4 M17.3,48.3"/>
</g>
<path fill="#397658" d="M34.6,48c1.2-0.6,1.8-1.9,3-2.6c0.4,0.3,0.8,0.7,1.2,1.1c-0.9,0.5-1.6,1.1-2.2,1.9c0.3-0.1,0.9-0.3,1.2-0.5
	c0.4-0.3,0.8-0.6,1.2-0.9c-0.2,0.6-0.5,1.3-0.7,1.9c0.8-0.3,1.6-0.7,2.4-1.2c-0.6,1.2-1.7,2-3.1,2c-0.3-0.4-0.5-0.9-0.8-1.3
	c0,0.4,0.1,1.2,0.1,1.5c-0.3,0.2-0.9,0.6-1.2,0.8c0.4-1,0.6-2,0.8-3C36,47.8,35.1,47.9,34.6,48z"/>
<path fill="#FEFFFD" d="M18.5,48.2c0-1.2,1.1-0.8,1.4,0c0.3,0.3,0.6,0.7,0.9,1C20.1,48.8,19.3,48.5,18.5,48.2z"/>
<path fill="#FCFFFE" d="M20.5,47.4"/>
<g>
	<path fill="#123834" d="M22.9,50.9c0.2-1,0.2-2.1,0.3-3.1c0.4,0,1.1,0.1,1.5,0.1c0.3,1.5,0.4,3.7-1.5,4c0.5-0.6,1.1-1.2,1.3-1.9
		C23.9,50.1,23.3,50.5,22.9,50.9z M23.7,48.4c0,0.2,0,0.7,0,0.9C24.4,49.6,24.5,48.2,23.7,48.4z"/>
</g>
<path fill="#02603E" d="M25.1,48.4c0.4-0.2,0.8-0.4,1.2-0.6c0.4,0.2,0.9,0.5,1.3,0.7c-0.1,0.5-0.2,0.9-0.2,1.4
	c-0.7,0.4-1.3,0.8-1.8,1.4c0.8,0,1.7-0.1,2.5-0.1c-0.1,0.2-0.4,0.5-0.5,0.7c-0.7-0.1-1.6,0.1-2.2-0.4c0-0.9,0.1-1.8,0.1-2.7L26,49
	c0.1,0.4,0.2,1.1,0.3,1.5c0.3-0.5,0.9-1,0.8-1.7C26.5,48.5,25.8,48.4,25.1,48.4z"/>
<path fill="#123834" d="M30.3,47.5c0.5,0.2,0.9,0.6,1,1.2c0.3-0.1,0.9-0.2,1.2-0.3c0.1,0.8,0.1,1.6,0.2,2.4c0.6-0.1,1.2-0.2,1.8-0.2
	c-0.7,0.6-1.5,1-2.4,1.2c0-0.9,0-1.9-0.1-2.8l-0.8-0.1c-0.1,0.6-0.3,1.3-0.4,1.9c-0.7,0.5-1.3,1.1-2.1,1.4c0.5-0.6,1-1.2,1.6-1.7
	c0.1-0.3,0.2-0.8,0.3-1.1c-0.6,0-1.3,0-1.9,0c0.5-0.3,1.1-0.4,1.7-0.5C30.5,48.5,30.4,47.8,30.3,47.5z"/>
<path fill="#E8FFFE" d="M17.3,48.3"/>
<path fill="#FCFFFE" d="M23.7,48.4c0.7-0.3,0.7,1.2,0,0.9C23.7,49.1,23.7,48.6,23.7,48.4z"/>
<path fill="#3A6256" d="M20,50.3"/>
</svg>
