<?xml version="1.0" encoding="utf-8"?>
<!-- Generator: Adobe Illustrator 18.1.1, SVG Export Plug-In . SVG Version: 6.00 Build 0)  -->
<svg version="1.1" id="图层_1" xmlns="http://www.w3.org/2000/svg" xmlns:xlink="http://www.w3.org/1999/xlink" x="0px" y="0px"
	 viewBox="0 0 38.4 38.6" enable-background="new 0 0 38.4 38.6" xml:space="preserve">
<g>
	<path fill="#020101" d="M0,0c12.2,0,24.4,0,36.6,0c0,0.6,0,1.1,0,1.7c0.4,0,1.3,0,1.8,0c-0.4,0.1-0.9,0.3-1.3,0.4
		c-0.4,11.6,0,23.3-0.2,35c-11.5,0-23,0-34.5,0c0,0.3,0,0.9,0,1.3c11.9,0.1,23.8-0.1,35.7,0.1c-5.1,0.3-10.2,0.1-15.4,0.1
		c-6.9,0-13.7,0-20.6,0c0-0.4,0-1.1,0-1.5c-0.7,0-1.4,0-2.1,0C0,24.7,0,12.3,0,0z M0.5,0.3c0,12.1,0,24.3,0,36.4
		c0.4,0,1.3-0.1,1.7-0.1c0-11.7,0-23.3,0-35c11.4,0,22.8,0,34.3,0c0-0.3,0-1,0-1.3c-2.4,0.1-4.8-0.3-7.2,0c-6.5,0-13,0-19.5,0
		C6.6,0,3.5,0.5,0.5,0.3z M2.3,1.9c-0.1,11.6,0,23.3-0.1,34.9c11.5,0,22.9,0,34.4,0c0.1-11.7-0.1-23.3,0.1-35
		C25.3,1.9,13.8,1.8,2.3,1.9z"/>
</g>
<path fill="#FEFDFD" d="M0.5,0.3c3.1,0.2,6.2-0.4,9.2,0c6.5,0,13,0,19.5,0c2.4-0.3,4.8,0.1,7.2,0c0,0.3,0,1,0,1.3
	c-11.4,0-22.8,0-34.3,0c0,11.7,0,23.3,0,35c-0.4,0-1.3,0.1-1.7,0.1C0.5,24.6,0.5,12.5,0.5,0.3z"/>
<g>
	<path fill="#FEFEFE" d="M2.3,1.9c11.5,0,23,0.1,34.5,0c-0.2,11.6,0,23.3-0.1,35c-11.5,0-22.9,0-34.4,0C2.3,25.1,2.2,13.5,2.3,1.9z
		 M9.1,4.2c0,0.4,0,1.1,0.1,1.5c-0.9,0-1.8,0-2.6,0.3c0.9,0.1,1.8,0.1,2.7,0.1C9.2,6.3,9.1,6.8,9,7.1c0.2,0,0.4,0,0.6,0
		c0-0.2-0.1-0.7-0.2-0.9c0.7,0,1.5,0,2.2-0.1c-0.7-0.2-1.5-0.2-2.2-0.3c0-0.4,0.1-1.1,0.1-1.5C9.4,4.2,9.2,4.2,9.1,4.2z M16.1,3.9
		c-0.1,0.4-0.2,1.2-0.2,1.6c-0.7,0.1-1.5,0.1-2.1,0.7c0.5,0,1.4,0.1,1.9,0.1c0,0.3,0,0.9,0,1.3c0.8,0.1,1-0.4,1-1.1
		c0.8-0.1,1.6-0.1,2.4-0.3c-0.6-0.7-1.6-0.5-2.3-0.6C16.5,5,16.4,4.4,16.1,3.9z M25.7,4.8c-0.9,0.6-2,1-3,1.4
		c-0.9,0.4-1.7,0.7-2.6,1c0.3,0,0.6,0,1,0c0.5-0.2,0.9-0.4,1.4-0.6l0.1-0.2c1-0.4,2-0.8,3-1.1l0-0.4c1.7,0.1,3.1,1,4.6,1.8
		c0.7,0.3,1.4,0.6,2.2,0.6c-0.8-0.4-1.6-0.7-2.4-1l0-0.2c-1.1-0.4-2.1-0.8-3.1-1.4C26.3,4.8,26,4.8,25.7,4.8z M25.6,7.1
		c0,0.3,0,1-0.1,1.4c-1.1,0-2.3,0.1-3.4,0.1c-0.2,3.3-0.2,6.6,0,10c1.8-0.1,4.1-1.2,4.4-3.1c-1.1,0.8-2.3,1.6-3.6,2.2
		c0-1.3,0-2.6,0-3.8c2.5,0,5,0.1,7.5-0.2c0.1-1.7,0.1-3.3-0.1-5c-1.2-0.1-2.5-0.1-3.7-0.1c0-0.3-0.1-1-0.1-1.4
		C26.3,7.1,25.8,7.1,25.6,7.1z M8.5,11.9c-0.4,0.5-0.9,0.9-0.9,1.6c1.5,0.3,3.1,0.2,4.7,0.2c0,1.6-0.1,3.2,0.1,4.8
		c0.2,0,0.6,0,0.8,0c0.1-1.6,0.1-3.2,0.1-4.8c1.5-0.2,3.6,0.7,4.6-0.7c-1.4-2.1-3.3-4-5.1-5.7C11.3,8.8,9.9,10.4,8.5,11.9z
		 M15.7,15.3c-0.1,0.9-0.8,2.1,0.2,2.7c0.7,0.4,1.5,0.1,2.2,0.1c-0.1-0.7,0.1-1.5-0.3-2.2C17.2,15.4,16.4,15.4,15.7,15.3z
		 M28.4,15.5c-1.2,0.3-1.4,2.1-0.4,2.7c1,0.9,2.8-0.3,2.5-1.5C30.5,15.7,29.2,15.3,28.4,15.5z M8,18c1.4,0.3,0.6-1.6,0.8-2.4
		C7.4,15.5,8,17.2,8,18z M11.8,20c-0.1,0.8-0.1,1.6-0.1,2.4c0.6,0,1.1,0,1.7-0.1c0,3.9-0.2,7.8,0.1,11.7c0.6-1.8,0.2-3.7,0.3-5.5
		c1.7,0,3.4,0.1,5.2,0c-1.7-0.3-3.4-0.1-5.1-0.1c0-1,0-2,0-3c1.7,0,3.4,0.2,5.1-0.2c-1.7-0.2-3.4-0.1-5-0.1c0-0.9,0-1.8,0-2.8
		c1.7,0,3.5,0.2,5.1-0.2c-2.3-0.2-4.6-0.1-6.8-0.1C12.1,21.4,12,20.7,11.8,20z M27.6,19.9c-0.1,0.7-0.1,1.4-0.1,2.1
		c-1.1,0-2.2,0-3.4,0c0,0.1,0,0.3,0,0.4c0.6,0,1.2,0,1.8-0.1c-0.1,3.8-0.2,7.6,0,11.4c0.7-2.7,0.2-5.6,0.3-8.4c1.5,0,2.9,0,4.4,0.1
		c0,2.5,0,5,0,7.5l-0.6-0.2l0.3,0.6c-1,0-1.9,0-2.9,0c0,0.1,0,0.3,0,0.4c1,0,1.9,0,2.9-0.1c0.2-0.2,0.5-0.7,0.6-0.9
		c-0.2-2.5,0.4-5.2-0.4-7.6c-1.4,0-2.9,0-4.3,0c0-0.9,0-1.8,0-2.7c2,0,4,0.1,6-0.1c-1.5-0.4-3-0.2-4.5-0.2
		C27.8,21.4,27.8,20.7,27.6,19.9z M9.1,22.9c-1.2-0.2-1.1,1.6-2.4,1.5c0.3,0.1,0.6,0.1,1,0.2c0.2-0.4,0.4-0.9,0.6-1.3
		c0.3,0,0.8,0,1.1-0.1c0,1.7,0.2,3.4,0,5.1c-0.1,0.8,0,1.9-1.1,2.1c0,0.9,0,1.9,0,2.8c0.8,0,1.7,0,2.5,0c0-1,0-2,0-3
		c-0.5-0.1-0.9-0.3-1.4-0.4c0.3-2.7,0.2-5.5,0-8.3C9.3,22,9.2,22.4,9.1,22.9z M21.7,21.7c0,1-0.1,2.1-0.1,3.1c-0.3,0-1,0.1-1.4,0.1
		l0,0.6c0.3,0,1,0,1.3,0c0,1.3,0,2.6,0.1,3.9l0.8,0c0-1.3,0-2.5,0.1-3.8c0.6-0.1,1.2-0.3,1.8-0.6c-0.6-0.1-1.2-0.2-1.8-0.4
		c0-1,0-2-0.1-3L21.7,21.7z M20.4,33.8c0.6-0.3,1.2-0.7,1.7-1.1c0,0.4,0,1.1-0.1,1.4c1.2-1.1,2-2.8,1.2-4.3
		C22.1,31.1,20.6,32.1,20.4,33.8z"/>
</g>
<path fill="#020101" d="M9.1,4.2c0.1,0,0.3,0,0.4,0c0,0.4-0.1,1.1-0.1,1.5c0.7,0.1,1.5,0.1,2.2,0.3c-0.7,0.1-1.5,0.1-2.2,0.1
	c0,0.2,0.1,0.7,0.2,0.9c-0.1,0-0.4,0-0.6,0c0.1-0.3,0.2-0.8,0.2-1c-0.9,0-1.8,0-2.7-0.1c0.9-0.2,1.8-0.2,2.6-0.3
	C9.2,5.3,9.1,4.6,9.1,4.2z"/>
<path fill="#807879" d="M16.1,3.9c0.3,0.5,0.5,1.1,0.6,1.7c0.8,0.1,1.7-0.1,2.3,0.6c-0.8,0.1-1.6,0.2-2.4,0.3c0,0.7-0.2,1.2-1,1.1
	c0-0.3,0-0.9,0-1.3c-0.5,0-1.4-0.1-1.9-0.1c0.6-0.6,1.4-0.6,2.1-0.7C15.9,5.1,16,4.3,16.1,3.9z"/>
<path fill="#020101" d="M25.7,4.8c0.3,0,0.7,0,1,0c1,0.6,2,1,3.1,1.4l0,0.2c0.8,0.3,1.6,0.6,2.4,1c-0.8,0-1.5-0.3-2.2-0.6
	C28.6,6,27.1,5.2,25.5,5l0,0.4c-1,0.4-2,0.7-3,1.1l-0.1,0.2c-0.5,0.2-1,0.4-1.4,0.6c-0.3,0-0.6,0-1,0c0.9-0.3,1.8-0.7,2.6-1
	C23.7,5.8,24.7,5.4,25.7,4.8z"/>
<g>
	<path fill="#8E8B8A" d="M25.6,7.1c0.2,0,0.7,0,0.9,0c0,0.3,0.1,1,0.1,1.4c1.2,0,2.5,0.1,3.7,0.1c0.2,1.7,0.2,3.3,0.1,5
		c-2.5,0.3-5,0.1-7.5,0.2c0,1.3,0,2.5,0,3.8c1.3-0.6,2.4-1.4,3.6-2.2c-0.3,2-2.6,3-4.4,3.1c-0.2-3.3-0.1-6.7,0-10
		c1.1,0,2.3-0.1,3.4-0.1C25.6,8.1,25.6,7.4,25.6,7.1z M22.9,9.4c0,1.2,0,2.4,0,3.6c2.2,0.1,4.5,0,6.7,0.1c0-1.3,0-2.5,0-3.8
		C27.3,9.3,25.1,9.3,22.9,9.4z"/>
</g>
<g>
	<path fill="#8D8988" d="M8.5,11.9c1.4-1.6,2.8-3.1,4.3-4.6c1.8,1.8,3.7,3.6,5.1,5.7c-1.1,1.3-3.1,0.5-4.6,0.7c0,1.6,0,3.2-0.1,4.8
		c-0.2,0-0.6,0-0.8,0c-0.2-1.6-0.1-3.2-0.1-4.8c-1.6,0-3.1,0.1-4.7-0.2C7.6,12.9,8.1,12.4,8.5,11.9z M8.8,13c1.1,0,2.3,0,3.4,0
		c0-0.9,0.1-1.8,0.1-2.7c1.3,0.3,0.7,1.8,0.9,2.7c1.1,0,2.3,0,3.5,0c-1.1-1.7-2.5-3.1-3.9-4.5C11.4,9.9,10.1,11.4,8.8,13z"/>
</g>
<path fill="#FEFEFE" d="M8.8,13c1.2-1.6,2.6-3.1,4-4.5c1.4,1.4,2.8,2.9,3.9,4.5c-1.2,0-2.3,0-3.5,0c-0.2-0.9,0.4-2.5-0.9-2.7
	c-0.1,0.9-0.1,1.8-0.1,2.7C11.1,13,10,13,8.8,13z"/>
<g>
	<path fill="#FEFEFE" d="M22.9,9.4c2.2,0,4.5,0,6.7,0c0,1.3,0,2.5,0,3.8c-2.2-0.1-4.5,0-6.7-0.1C22.9,11.8,22.9,10.6,22.9,9.4z
		 M23.8,10.6c0.1,0.2,0.3,0.6,0.4,0.7c1.4,0,3.4,0.7,4.4-0.7C27,10.5,25.4,10.5,23.8,10.6z"/>
</g>
<path fill="#9A9895" d="M23.8,10.6c1.6-0.1,3.2-0.1,4.8,0.1c-0.9,1.4-3,0.6-4.4,0.7C24.1,11.1,23.9,10.8,23.8,10.6z"/>
<g>
	<path fill="#9A9897" d="M15.7,15.3c0.7,0.2,1.5,0.2,2.1,0.6c0.4,0.7,0.2,1.5,0.3,2.2c-0.7,0-1.5,0.3-2.2-0.1
		C14.9,17.4,15.6,16.1,15.7,15.3z M16.3,16.3c-0.6,0.4,0,1.6,0.6,1C17.6,17,17,15.8,16.3,16.3z"/>
</g>
<g>
	<path fill="#A9A6A4" d="M28.4,15.5c0.8-0.2,2,0.2,2.1,1.2c0.4,1.3-1.5,2.4-2.5,1.5C27,17.6,27.3,15.8,28.4,15.5z M28.1,17.5
		c0.4,0,1.1-0.1,1.5-0.1c0-0.3,0-1,0-1.3C28.9,16.4,28.2,16.7,28.1,17.5z"/>
</g>
<path fill="#9C9998" d="M8,18c0-0.9-0.6-2.5,0.8-2.4C8.6,16.4,9.5,18.4,8,18z"/>
<path fill="#EAEBE7" d="M16.3,16.3c0.7-0.5,1.3,0.6,0.6,1C16.3,17.9,15.7,16.7,16.3,16.3z"/>
<path fill="#DAD5D1" d="M28.1,17.5c0.1-0.8,0.8-1.1,1.5-1.4c0,0.3,0,1,0,1.3C29.2,17.4,28.5,17.5,28.1,17.5z"/>
<path fill="#020101" d="M11.8,20c0.2,0.7,0.3,1.4,0.3,2c2.3,0,4.6-0.1,6.8,0.1c-1.7,0.4-3.4,0.2-5.1,0.2c0,0.9,0,1.8,0,2.8
	c1.7,0,3.4-0.1,5,0.1c-1.7,0.4-3.4,0.2-5.1,0.2c0,1,0,2,0,3c1.7,0,3.4-0.1,5.1,0.1c-1.7,0.2-3.4,0.1-5.2,0c-0.1,1.8,0.3,3.7-0.3,5.5
	c-0.3-3.9-0.1-7.8-0.1-11.7c-0.6,0-1.2,0-1.7,0.1C11.7,21.6,11.7,20.8,11.8,20z"/>
<path fill="#020101" d="M27.6,19.9c0.1,0.7,0.1,1.4,0.1,2.2c1.5,0,3.1-0.2,4.5,0.2c-2,0.2-4,0.1-6,0.1c0,0.9,0,1.8,0,2.7
	c1.4-0.1,2.9,0,4.3,0c0.8,2.5,0.2,5.1,0.4,7.6c-0.2,0.2-0.5,0.7-0.6,0.9c-1,0-1.9,0.1-2.9,0.1c0-0.1,0-0.3,0-0.4c1,0,1.9,0,2.9,0
	l-0.3-0.6l0.6,0.2c-0.1-2.5,0-5,0-7.5c-1.5-0.1-2.9-0.1-4.4-0.1c-0.1,2.8,0.4,5.7-0.3,8.4c-0.2-3.8-0.1-7.6,0-11.4
	c-0.6,0-1.2,0-1.8,0.1c0-0.1,0-0.3,0-0.4c1.1,0,2.2,0,3.4,0C27.5,21.3,27.6,20.6,27.6,19.9z"/>
<g>
	<path fill="#020101" d="M9.1,22.9c0.1-0.4,0.2-0.9,0.3-1.3c0.2,2.7,0.3,5.5,0,8.3c0.5,0.1,0.9,0.3,1.4,0.4c0,1,0,2,0,3
		c-0.8,0-1.7,0-2.5,0c0-0.9,0-1.9,0-2.8c1.1-0.1,1-1.3,1.1-2.1c0.1-1.7,0-3.4,0-5.1c-0.3,0-0.8,0-1.1,0.1c-0.2,0.4-0.4,0.9-0.6,1.3
		c-0.3-0.1-0.7-0.2-1-0.2C8,24.5,7.8,22.6,9.1,22.9z M8.7,30.3c0,0.9,0,1.8-0.1,2.7c0.6,0,1.3,0,1.9,0c0-0.8,0-1.5,0.1-2.3
		C10,30.2,9.4,30.2,8.7,30.3z"/>
</g>
<path fill="#878383" d="M21.7,21.7l0.7,0c0,1,0,2,0.1,3c0.6,0.1,1.2,0.2,1.8,0.4c-0.6,0.3-1.2,0.4-1.8,0.6c0,1.3,0,2.5-0.1,3.8
	l-0.8,0c0-1.3-0.1-2.6-0.1-3.9c-0.3,0-1,0-1.3,0l0-0.6c0.3,0,1-0.1,1.4-0.1C21.7,23.7,21.7,22.7,21.7,21.7z"/>
<path fill="#AAA9A7" d="M20.4,33.8c0.3-1.7,1.8-2.8,2.8-4c0.9,1.6,0,3.2-1.2,4.3c0-0.4,0-1.1,0.1-1.4C21.5,33.1,21,33.5,20.4,33.8z"
	/>
<path fill="#FFFDFE" d="M8.7,30.3c0.7-0.1,1.4-0.1,1.9,0.4c0,0.8-0.1,1.5-0.1,2.3c-0.6,0-1.3,0-1.9,0C8.7,32,8.7,31.1,8.7,30.3z"/>
</svg>
