<?xml version="1.0" encoding="utf-8"?>
<!-- Generator: Adobe Illustrator 18.1.1, SVG Export Plug-In . SVG Version: 6.00 Build 0)  -->
<svg version="1.1" id="图层_1" xmlns="http://www.w3.org/2000/svg" xmlns:xlink="http://www.w3.org/1999/xlink" x="0px" y="0px"
	 viewBox="0 0 87.2 31.6" enable-background="new 0 0 87.2 31.6" xml:space="preserve">
<g>
	<path fill="#905311" d="M84.5,0c1.5-0.3,3.1,1.1,2.6,2.7c-0.5,2.1-4,2.1-4.4,0C82.3,1.4,83.2,0.1,84.5,0z M83,1.9
		c-0.2,0.9,0.5,1.5,1,2.2c0-1.1,0-2.2,0-3.2c0.4,0,1.3,0,1.7,0.1c0,0.9,0,1.9,0,2.8c0.9-0.5,1.3-1.7,0.7-2.6C85.7-0.2,83,0.2,83,1.9
		z M84.9,1.7 M84.5,3.9c0.2,0,0.6,0,0.8,0C86.1,2.7,83.7,2.7,84.5,3.9z"/>
</g>
<path fill="#FFE5EB" d="M84.9,1.7"/>
<path fill="#DE010F" d="M0,5.3c0-0.8,0.4-2,1.4-2c2.8-0.1,5.5,0,8.3,0c0,5.7,0,11.4,0,17.1c0,0.8-0.1,1.8-0.8,2.3
	c-1.2,0.3-2.5,0.1-3.7,0.2c0-0.5,0-1.1,0-1.6c0.3-0.1,0.8-0.2,1-0.2c0.1-1.9,0-3.8,0-5.6c-0.7,0-1.4,0-2.1,0c0-0.4,0-1.3,0-1.7
	c0.7,0,1.4,0,2.1,0c0-0.8,0-1.5,0-2.3c-0.7,0-1.4,0-2.1,0c0-0.6,0-1.1,0-1.7c0.7,0,1.4,0,2.2,0c0-1.7,0-3.3,0-5c-0.9,0-1.9,0-2.8,0
	c0.1,6.1-0.1,12.1,0,18.2c-1.1,0-2.3,0-3.4,0C0,17.1,0,11.2,0,5.3z"/>
<path fill="#DC0211" d="M12.5,3.3c1.1,0,2.3-0.1,3.4,0c0.6,0.4,1,1.1,1.5,1.7c1,0,2,0,3.1,0c0.4-0.6,0.9-1.2,1.4-1.7
	c1.1-0.3,2.3-0.1,3.5-0.1c-0.4,0.6-0.9,1.2-1.3,1.8c1,0,2,0,3-0.1c0,0.6,0,1.3,0,1.9c-2,0-4,0-6.1,0C21,7.4,21,7.8,21,8.2
	c2,0,4.1,0,6.1,0c0,0.6,0,1.1,0.1,1.7c-2,0.1-4.1,0-6.1,0c0,0.4-0.1,0.8-0.1,1.2c2,0,4.1,0,6.1,0c0,0.6,0,1.2,0,1.8
	c-0.7,0.1-1.4,0.2-2.1,0.2c-3.9,0.1-7.8-0.3-11.7-0.1c-0.9,0-1.7-0.1-2.6-0.1c0-0.4,0.1-1.4,0.1-1.8c2,0,4.1,0,6.1,0
	c0-0.4-0.1-0.8-0.1-1.2c-2,0-4,0-6.1,0c0-0.4,0-1.3,0-1.7c2,0,4,0,6.1,0c0-0.3,0-0.9,0-1.2c-2,0-4,0-6.1,0c0-0.6,0-1.2,0-1.8
	c1,0,2.1,0,3.1,0C13.4,4.5,13,3.9,12.5,3.3z"/>
<path fill="#DD010E" d="M30.6,3.9c1.1-0.5,2.3-0.6,3.5-0.7c0,2.3,0,4.7,0,7c0.4,0,1.1,0,1.4,0c0,0.6,0,1.2,0.1,1.8
	c-0.5,0.1-1,0.1-1.5,0.2c-0.1,3.6,0,7.2-0.1,10.8c-1.2,0-2.3,0-3.5,0c0-3.6,0-7.2,0-10.8c-0.6,0-1.2,0-1.7-0.1c0-0.6,0-1.2,0-1.8
	c0.6-0.1,1.1-0.1,1.7-0.2C30.6,8,30.6,5.9,30.6,3.9z"/>
<path fill="#DE0210" d="M43.8,3.4c1.2-0.3,2.5-0.5,3.8-0.3c0.5,0.5,0.2,1.4,0.4,2c0.6,0,1.2,0,1.8,0c0.4-0.6,0.8-1.2,1.1-1.8
	c1.2-0.1,2.4-0.1,3.6-0.1c-0.3,0.6-0.7,1.2-1,1.9c0.6,0,1.3,0,1.9,0c0,0.6,0,1.2,0,1.8c-2.6,0-5.1,0.2-7.6,0.3
	c2.1,0.4,4.2-0.1,6.3,0.1c0.6,0.3,1,0.8,1.4,1.3c-0.1,2.4,0,4.9,0,7.3c-1.2,0-2.5,0-3.7,0c0-2.3,0-4.6,0-6.8c-1.3,0-2.5,0-3.7,0
	c0,0.3,0.1,0.8,0.1,1c1,0,2.1,0,3.1,0c0,0.6,0,1.2,0,1.8c-1.1,0-2.3,0-3.4,0.1c0.6,1.3,2.3,0.5,3.5,0.8c0,0.4-0.1,1.3-0.1,1.8
	c-1.1,0-2.1,0-3.2,0c0,0.6,0,1.2,0,1.8c2.5,0,4.9,0,7.4,0c0,0.4,0,1.3,0.1,1.8C53,18.4,50.5,18,48,18.4c-0.8,0,0.1,0.6,0.4,0.5
	c2.2,0.3,4.7-0.5,6.7,0.6c0.3,1.1,0.2,2.3,0.1,3.4c-3.9,0.4-7.9,0.1-11.9,0.2c0-0.6,0-1.2,0-1.8c2.9-0.3,5.8,0.1,8.7-0.2
	c-2.7-0.7-5.5-0.1-8.3-0.3c-0.1-0.8-0.2-1.7-0.3-2.5c-2.5,0-5,0-7.5,0c0-0.6,0-1.2,0-1.9c2.5,0.1,5,0.1,7.5,0.1c0-0.6,0-1.2,0-1.8
	c-1,0-2.1,0-3.1,0c0-0.6,0-1.2,0-1.9c1,0,2.1,0,3.1,0l0.1-0.8c-1.1,0-2.1,0-3.2,0c0-0.6,0-1.2,0-1.8c1.1,0,2.2,0,3.3,0
	c-0.1-0.2-0.2-0.7-0.2-1c-1.2-0.1-2.4,0-3.6,0c-0.1,2.3-0.2,4.5-0.1,6.8c-1.2,0-2.5,0-3.7,0.1c0-2.2,0-4.5,0-6.7
	c-0.1-0.7,0.4-1.4,1.2-1.4c2.2,0.1,4.4,0.1,6.6,0l-0.2-0.5c0-0.1-0.1-0.4-0.2-0.5C41,7,38.6,6.9,36.2,7c0-0.6,0-1.2,0-1.8
	c2.4-0.1,4.9-0.1,7.3,0C43.6,4.6,43.7,4,43.8,3.4z"/>
<path fill="#DE010E" d="M67.3,4.2c1.5-0.7,3.1-1.1,4.8-1c0,2.3,0,4.7,0,7c2.4-0.1,4.7,0.1,7.1-0.1C80.4,10,81.3,9,82,8.1
	c0.2,1.2,0.5,2.6-0.4,3.7c-0.7,0.9-2,0.9-3,0.9c-2.2,0-4.4,0-6.6,0c0,2.6,0,5.2,0,7.8c2.9,0.2,5.8,0,8.6,0c-0.2,0.9-0.3,2.5-1.6,2.4
	c-6.6-0.1-13.2,0-19.7-0.1c0-0.7,0-1.5,0-2.2c2.6-0.2,5.3,0,7.9-0.1c-0.1-2.6,0-5.2-0.1-7.8c-3.3,0-6.6,0-9.9,0c0-0.8,0-1.6,0-2.4
	c3.3,0,6.6,0,9.9,0C67.3,8.2,67.3,6.2,67.3,4.2z"/>
<path fill="#C10510" d="M36.7,7.5c2.3-0.2,4.6-0.3,6.9-0.1l0.2,0.5c-2.2,0.1-4.4,0.1-6.6,0L36.7,7.5z"/>
<path fill="#DF0210" d="M12.7,13.3c1.2,0.1,2.3,0.1,3.5,0.1c0.4,0.6,0.7,1.1,1.1,1.7c0.8,0,1.5,0,2.3,0c1,0.1,1.4-1.1,2.1-1.6
	c0.9-0.1,1.9-0.1,2.9-0.3c0,0.6-0.1,1.2-0.2,1.8c0.9,0,1.8,0,2.7,0c0,0.7-0.1,1.3-0.1,2c-5.4,0-10.8,0-16.3,0c0-0.7,0-1.3,0-2
	c1,0,1.9,0,2.9,0C13.3,14.5,13,13.9,12.7,13.3z"/>
<path fill="#DB0210" d="M12,17.7c4.2-0.3,8.5-0.1,12.7-0.1c1-0.1,1.9,0.6,2.2,1.5c0.1,1.3,0,2.6,0,3.8c-1.6,0.1-3.2,0-4.8-0.4
	c-2.3-0.2-4.6,0-6.8,0c0-0.6,0-1.3,0-1.9c2.7,0,5.4,0,8,0c-0.1-0.3-0.2-0.8-0.3-1.1c-2.8-0.1-5.7-0.1-8.5,0c0,1.1,0,2.3,0,3.4
	c-1.3,0-2.6,0-3.8,0C10.9,21.2,9.9,18.6,12,17.7z"/>
<path fill="#DD020F" d="M37.8,18.6c1.2,0,2.3,0,3.5,0c0.4,0.3,0.8,0.7,1.1,1c0.1,0.2,0.4,0.7,0.6,1c-1.3,0-2.5,0-3.8,0.1
	C38.7,20,38.2,19.3,37.8,18.6z"/>
<path fill="#D0686F" d="M42.4,19.6c0.4,0.3,0.7,0.7,1,1.2c-1.4,0.1-2.8,0.3-4.2-0.1c1.3,0,2.5-0.1,3.8-0.1
	C42.8,20.3,42.5,19.8,42.4,19.6z"/>
<g>
	<path fill="#CB031E" d="M0.3,26.6c3.2,0,6.4-0.2,9.6,0.1c-0.7,0.2-1.3,0.4-2,0.5c-0.4,0.1-1.2,0.2-1.6,0.3
		c-0.1,1.3-0.1,2.6-0.1,3.9c-0.5,0-1.4,0-1.9,0l0.2-0.2c1.4-1,1.2-2.8,1.4-4.3c-0.6,0.1-1.2,0.2-1.9,0.3c-0.6,0.1-1.2,0.2-1.8,0.3
		c0,1.3,0,2.6,0,3.9c-0.7,0-1.4,0-2,0C0.3,29.8,0.3,28.2,0.3,26.6z M0.7,26.9c0,1.4,0,2.8,0,4.2c0.2,0,0.7,0,1-0.1
		c0.1-1.1,0.2-2.2,0.1-3.3C2,26.9,1.1,27.1,0.7,26.9z"/>
</g>
<path fill="#E1020D" d="M11.8,26.6c2.8,0,5.6-0.1,8.3,0c-2.2,0.2-4.4,0.1-6.6,0.3l-0.1,0.6c-0.1,0.3-0.1,0.7-0.2,1
	c-0.1,0.8-0.2,1.5-0.3,2.3c-0.3,0-0.8-0.1-1-0.1c0-1.2,0-2.5-0.1-3.7L11.8,26.6z"/>
<path fill="#CB031E" d="M20.1,26.6l0.2,0c0,0.2-0.1,0.7-0.1,0.9c-2.3,0-4.5,0-6.8,0l0.1-0.6C15.7,26.7,17.9,26.8,20.1,26.6z"/>
<g>
	<path fill="#DB0410" d="M21.1,26.7c2.9-0.2,5.7-0.2,8.6,0c0.3,1.6,0.3,3.2,0,4.8c-0.4,0-1.2-0.1-1.6-0.1c0-0.6,0-1.2,0-1.8
		c-1.7,0-3.5-0.1-5.2,0c0,0.6-0.1,1.2-0.1,1.9c-0.4,0-1.3,0-1.7,0C21.1,29.8,21.1,28.2,21.1,26.7z M22.9,27.4c0,0.3,0,0.8,0,1.1
		c1.8,0,3.5,0,5.3,0c0-0.3,0-0.8-0.1-1.1C26.4,27.5,24.6,27.5,22.9,27.4z"/>
</g>
<path fill="#C64048" d="M30.8,26.5c0.7,0,1.3,0,2-0.1c0,1.3,0,2.6,0,3.9c2.3,0.1,4.6,0.1,6.9,0.1c0,0.2,0.1,0.7,0.1,0.9l-0.2,0
	c-2.4-0.5-4.8-0.4-7.2-0.2c0.1-1.5,0.3-3-0.2-4.4c-0.2,0.1-0.6,0.3-0.8,0.4c-0.2,1.5-0.2,3-0.3,4.4C30.4,29.9,30.8,28.2,30.8,26.5z"
	/>
<path fill="#C52029" d="M43.5,26.5c2.8,0,5.7-0.2,8.5,0.3c0.7,0.8,0.2,2,0.2,2.9c0-0.2-0.1-0.5-0.2-0.7c-0.2-0.6-0.3-1.3-0.4-1.9
	C51.4,27,51,27,50.8,27c-0.1,0.8-0.2,1.7-0.3,2.5c-1.6,0-3.2,0-4.8,0c0-0.2,0-0.7,0-1c1.5-0.2,3.3,0.3,4.7-0.3
	c0-0.2-0.1-0.6-0.1-0.7c-1.5-0.1-3.1,0-4.6-0.1c-0.6-0.2-1.1-0.3-1.6-0.5c-0.1,1.3-0.1,2.7,0.1,4c0.5-0.1,1-0.2,1.5-0.3
	c1.6-0.3,3.2-0.2,4.8-0.1c0.6,0.1,1.3,0.2,2,0.4c-0.9,0.7-2,0.6-3,0.6c-1.9,0-3.9,0-5.8,0C43.5,29.8,43.5,28.1,43.5,26.5z"/>
<g>
	<path fill="#DF030D" d="M53.3,26.7c2.9-0.1,5.8-0.2,8.6,0.1c0,1.4,0,2.8,0.1,4.2c-1.7,0.7-3.6,0.3-5.4,0.4
		c-1.1-0.1-2.3,0.2-3.3-0.3C53.1,29.6,53.3,28.1,53.3,26.7z M55.1,27.5c0,1,0,2,0,3c1.6,0,3.2,0,4.8,0c0-1,0-2,0-3
		C58.4,27.5,56.7,27.5,55.1,27.5z"/>
</g>
<path fill="#D56066" d="M63.1,26.8c2.8-0.8,5.8-0.2,8.8-0.4c-0.1,0.3-0.2,0.9-0.2,1.1c-2.3,0-4.5-0.1-6.8,0c0.1,0.2,0.2,0.7,0.3,1
	c2,0.2,4.1-0.1,6.1,0.1c0.8,0.5,0.4,1.6,0.4,2.4c-0.1-0.7-0.3-1.3-0.5-1.9c-2.1-0.4-4.2-0.2-6.3-0.2c-0.1-0.6-0.1-1.1-0.2-1.7
	c2.3,0,4.7,0.1,7-0.1c-2.6-0.8-5.4-0.4-8.2-0.3L63.1,26.8z"/>
<path fill="#DC050E" d="M72.8,29.4c-0.3-1-0.3-2.1,0.5-2.9c0.5,0.2,1,0.5,1.5,0.7c-0.1,0.5-0.1,1-0.2,1.5C74,29,73.4,29.2,72.8,29.4
	z"/>
<path fill="#C42D32" d="M73.3,26.6c2.7-0.2,5.5-0.2,8.3,0c0,0.2-0.1,0.7-0.2,0.9c-2.2-0.1-4.5,0.3-6.6-0.2
	C74.3,27,73.8,26.8,73.3,26.6z"/>
<path fill="#DF010C" d="M0.7,26.9c0.5,0.2,1.3,0,1.1,0.8c0,1.1-0.1,2.2-0.1,3.3c-0.2,0-0.7,0-1,0.1C0.7,29.7,0.7,28.3,0.7,26.9z"/>
<path fill="#DD010E" d="M4.2,27.2C4.8,27.1,5.4,27,6,26.9c-0.3,1.5,0,3.3-1.4,4.3C4.4,29.9,4.8,28.5,4.2,27.2z"/>
<path fill="#E7020D" d="M7.9,27.3c0.7-0.1,1.3-0.3,2-0.5l0.4-0.1c-0.1,1.5,0.4,3.1-0.3,4.5c-0.5,0.7-1.3-0.1-1.3-0.7
	c-0.1-0.9-0.1-1.9-0.2-2.8L7.9,27.3z"/>
<path fill="#521B22" d="M10.3,26.6c0.3,1.6,0.4,3.3,0.1,4.9c-0.6-0.1-1.2-0.1-1.8-0.2c0-1.3,0-2.5,0-3.8c0.1,0.9,0.1,1.9,0.2,2.8
	c0,0.6,0.7,1.4,1.3,0.7C10.7,29.8,10.2,28.1,10.3,26.6z"/>
<path fill="#BE090F" d="M11.6,26.5l0.3,0.5c0.1,1.2,0.1,2.5,0.1,3.7c0.3,0,0.8,0.1,1,0.1c0.1-0.8,0.2-1.5,0.3-2.3c2.3,0,4.6,0,6.8,0
	c0,0.2,0.1,0.7,0.2,0.9c-2.3,0.2-4.6-0.1-6.8,0c0,0.2,0,0.7,0,1c2.3,0.1,4.6,0,6.9,0.1c0,0.2,0,0.7,0,0.9c-2.3,0-4.5,0-6.8,0
	c-0.7,0-1.4,0.1-1.9-0.4C11.3,29.5,11.4,28,11.6,26.5z"/>
<path fill="#DF010E" d="M31.3,27c0.2-0.1,0.6-0.3,0.8-0.4c0.5,1.4,0.2,3,0.2,4.4c2.4-0.1,4.8-0.3,7.2,0.2c-2.8,0.3-5.7,0-8.5,0.2
	C31.2,30,31.1,28.5,31.3,27z"/>
<path fill="#E80211" d="M44,26.9c0.5,0.2,1.1,0.3,1.6,0.5c0,0.4,0,0.8,0,1.2c0,0.2,0,0.7,0,1c0,0.3,0,0.8,0,1.1
	c-0.5,0.1-1,0.2-1.5,0.3C43.9,29.6,44,28.2,44,26.9z"/>
<path fill="#E8030C" d="M50.8,27c0.2,0,0.6,0.1,0.9,0.1c0.1,0.6,0.3,1.3,0.4,1.9c0,0.2,0.1,0.5,0.2,0.7c0.1,0.3,0.2,1,0.3,1.3
	l-0.2,0c-0.7-0.1-1.3-0.3-2-0.4c0-0.3,0-0.8,0-1C50.5,28.7,50.6,27.8,50.8,27z"/>
<path fill="#DE030A" d="M63.5,26.8c2.7-0.1,5.5-0.5,8.2,0.3c-2.3,0.3-4.6,0.1-7,0.1c0.1,0.6,0.1,1.1,0.2,1.7c2.1,0,4.2-0.2,6.3,0.2
	c0.2,0.6,0.4,1.3,0.5,1.9c-2.8,0.8-5.8,0.1-8.7,0.3l-0.1-0.9c2.2,0.1,4.5,0.3,6.8-0.1c0-0.2,0-0.7,0-0.9c-2-0.2-4.1,0.1-6.1-0.2
	c-0.6-0.6-0.6-1.5-0.8-2.2L63.5,26.8z"/>
<path fill="#DF8C90" d="M63.2,29.5c-0.5-0.7-0.3-1.6-0.4-2.3c0.3,0.7,0.2,1.6,0.8,2.2c2,0.3,4.1-0.1,6.1,0.2c0,0.2,0,0.7,0,0.9
	c-2.2,0.4-4.5,0.1-6.8,0.1c2.2-0.4,4.5-0.1,6.8-0.3C67.8,29.1,65.2,30.3,63.2,29.5z"/>
<path fill="#C41E28" d="M74.6,28.7c1.9-0.3,4-0.2,5.9,0l-0.1,0.1c-0.4,0.2-0.8,0.4-1.2,0.6c-2.1,0.4-4.3,0.1-6.4,0
	C73.4,29.2,74,29,74.6,28.7z"/>
<path fill="#E6030F" d="M79.2,29.5c0.4-0.2,0.8-0.4,1.2-0.6l0.4,0c0.7,0.4,0.4,1.4,0.7,2.1c-0.3,0.1-0.8,0.3-1,0.4
	c-2.4,0-4.9,0.2-7.3-0.1c0-0.1,0-0.3,0.1-0.3c1.9-0.6,3.9-0.1,5.8-0.4l0.3,0C79.4,30.2,79.3,29.7,79.2,29.5z"/>
<path fill="#521B22" d="M72.7,30.5c2.1-0.1,4.3,0,6.4,0c-1.9,0.3-4-0.2-5.8,0.4c0,0.1,0,0.3-0.1,0.3c2.4,0.3,4.9,0.1,7.3,0.1l0.2,0
	c-2.7,0.2-5.4,0-8.1,0.1C72.7,31.2,72.7,30.7,72.7,30.5z"/>
</svg>
