<?xml version="1.0" encoding="utf-8"?>
<!-- Generator: Adobe Illustrator 18.1.1, SVG Export Plug-In . SVG Version: 6.00 Build 0)  -->
<svg version="1.1" id="图层_1" xmlns="http://www.w3.org/2000/svg" xmlns:xlink="http://www.w3.org/1999/xlink" x="0px" y="0px"
	 viewBox="0 0 40.6 40.2" enable-background="new 0 0 40.6 40.2" xml:space="preserve">
<g>
	<path fill="#78BF26" d="M0,0c13.5,0,27.1,0,40.6,0c0,13.4,0,26.8,0,40.1c-5.7-0.1-11.4,0-17.1,0c1.4-3,3.7-5.6,6.8-6.9
		c2.1-0.9,4.5-0.5,6.7,0c0.8-2.1,1.5-4.3,1.6-6.6c-8.5-0.8-16.8-3.5-24-8.2C9,14.9,3.6,10.2,1.5,3.8c-0.1,0-0.2,0-0.2,0
		c0.5,2.4,1.1,4.8,2.2,6.9c1.9,3.5,4.8,6.4,8,8.7c7,5.1,15.4,8.1,23.9,9.6c0,0.4,0,1.2,0.1,1.6c-2.7-0.3-5.5-0.2-7.9,1.2
		c-3.3,1.8-5.8,4.8-7.3,8.3C13.5,40.3,6.8,40,0,40.2c0-0.9,0-1.7,0-2.6c9.5,0.1,19.4-2.8,26.1-9.8c-0.9-0.3-1.7-0.7-2.6-1
		c-3.1,2.7-6.6,5.1-10.5,6.4C8.8,34.6,4.4,35,0,34.8C0,23.2,0,11.6,0,0z M10.3,5c0.4,4.9,2.5,9.9,6.2,13.3c2.9,2.4,6.6,3.3,10,4.6
		c-4.3-2.6-8.5-5.5-11.6-9.4C12.9,11,11,8.2,10.5,5C10.5,5,10.4,5,10.3,5z"/>
</g>
<path fill="#FEFEFC" d="M10.3,5c0,0,0.1,0,0.2,0c0.4,3.2,2.4,5.9,4.3,8.4c3.1,4,7.3,6.9,11.6,9.4c-3.4-1.3-7.1-2.2-10-4.6
	C12.8,14.9,10.7,10,10.3,5z"/>
</svg>
