<?xml version="1.0" encoding="utf-8"?>
<!-- Generator: Adobe Illustrator 18.1.1, SVG Export Plug-In . SVG Version: 6.00 Build 0)  -->
<svg version="1.1" id="图层_1" xmlns="http://www.w3.org/2000/svg" xmlns:xlink="http://www.w3.org/1999/xlink" x="0px" y="0px"
	 viewBox="0 0 68.4 38.8" enable-background="new 0 0 68.4 38.8" xml:space="preserve">
<g>
	<path fill="#211D1E" d="M20,0c0.7,0,1.5,0,2.2,0c0,1.1,0,2.2,0,3.4c1.6,0.1,3.2-0.3,4.7,0.2c1.4,0.6,1.1,2.2,1.1,3.4
		C28,8.7,28.2,10.4,28,12c-0.5,0.7-1.3,1.5-2.3,1.4c-2.1,0-4.2,0-6.3,0c0,0.9,0,1.7,0,2.6c3.7,0,7.4,0,11,0c0,0.4,0,1.1,0,1.5
		c-3.7-0.1-7.4,0.1-11.1,0c0,0.9,0,1.7,0,2.6c2.9,0,5.8-0.1,8.8,0c1.4-0.1,2.5,1.4,2.3,2.8c-0.1,4.1,0.2,8.4-0.9,12.4
		c-0.4,1.5-1.2,2.9-2.7,3.6c0.7-2.1,1-4.2,1.1-6.4c0.1-3.6,0.3-7.3,0.1-10.9c-2.8,0-5.6,0-8.5,0c-1.2,0-2.7-0.8-2.6-2.1
		c0-5.3-0.1-10.6,0-16c0.9,0,1.9,0,2.8,0.1C20,2.3,20,1.2,20,0z M19.4,4.9c0,0.9,0,1.8,0,2.7c2.1-0.1,4.3,0,6.4,0c0-0.9,0-1.8,0-2.7
		C23.7,4.9,21.6,4.9,19.4,4.9z M19.4,9c0,0.9,0,1.8,0,2.7c2.2-0.1,4.3,0.2,6.5,0c0-0.9,0-1.8,0-2.6C23.7,8.9,21.6,9,19.4,9z"/>
</g>
<path fill="#221E1E" d="M34.4,0.1c0.8,0,1.5,0,2.3-0.1c0.1,1.1,0.1,2.3,0,3.4c1,0,2.1,0,3.1,0c0-1.1,0-2.3,0-3.4c0.8,0,1.5,0,2.3,0
	c0,1.2,0,2.3,0,3.5c0.5,0,1,0,1.5,0c0,0.5,0,1-0.1,1.4c-1.3,0-2.7,0-4,0c0,0.9,0,1.8,0,2.7c1.3,0,2.7,0,4,0c0,0.5,0,0.9,0,1.4
	c-1.4,0-2.7,0-4.1,0c0.1,2.3,0,4.6,0.1,6.9c1.3,0,2.7,0,4,0c0,0.4,0,1.1,0,1.5c-1.4,0-2.7,0-4,0c0,4.4,0.1,8.9-0.1,13.3
	c-0.3,2.9-0.7,6.6-3.6,8.1c1.7-4.2,1.4-8.7,1.4-13.2c0-2.7,0-5.5,0-8.2c-1.5,0-2.9,0-4.4,0c0-0.4,0-1.1,0-1.4c1.4-0.1,2.9-0.1,4.3,0
	c0-2.3,0-4.6,0-6.9c-1.4,0-2.8,0-4.2,0c0-0.5,0-0.9,0-1.4c1.4,0,2.8,0,4.3,0c0-0.9,0-1.8,0-2.6c-1.4,0-2.8,0-4.3,0c0-0.5,0-1,0-1.4
	c0.4,0,1.1,0,1.5,0C34.4,2.3,34.4,1.2,34.4,0.1z"/>
<g>
	<path fill="#221E1E" d="M1.3,2.4c0-0.6,0.1-1.4,0.8-1.5c1.9-0.2,3.8-0.1,5.6,0c-0.1,9.9,0,19.9-0.1,29.8c-0.3,2.8-0.4,6.6-3.3,8.1
		c1.3-3.7,1-7.6,1.1-11.4c-0.1-3.3,0.2-6.7,0-10c-0.6,0-1.2,0.1-1.9,0.1c0.1,3.9,0,7.7,0,11.6c-0.1,2.6-0.2,5.3-1.4,7.7
		c-0.4,0.9-1.2,1.6-2.1,2c1.6-4.1,1.2-8.7,1.3-13C1.3,17.9,1.3,10.2,1.3,2.4z M3.5,7.5c0.7,0.1,1.3,0.1,1.9,0.1
		c-0.1-1.8,0-3.6,0-5.3c-0.6,0-1.3,0-1.9-0.1C3.5,4,3.6,5.7,3.5,7.5z M3.5,8.9c0,2.3,0,4.6,0,6.9c0.6,0,1.2,0.1,1.9,0.1
		c0-2.4,0.2-4.7,0-7.1C4.8,8.9,4.2,8.9,3.5,8.9z"/>
</g>
<g>
	<path fill="#221E1E" d="M10.2,0.9c1.4-0.1,2.8-0.1,4.1,0c0.8-0.1,1.4,0.8,1.3,1.6c0,6.8,0,13.5,0,20.3c0,3.8,0.1,7.6-0.6,11.3
		c-0.4,1.8-1.1,4-3,4.6c0.7-1.9,1.1-3.8,1.2-5.8c0.2-5.2,0.1-10.3,0.1-15.5c-0.6,0-1.3,0-1.9,0c-0.1,5,0.2,10.1-0.2,15.1
		c-0.3,2.4-0.8,5.1-3.2,6.3c0.8-2.8,1.1-5.6,1.1-8.5c0-9.1,0-18.3,0-27.4C9.1,2.1,9.4,1.1,10.2,0.9z M11.5,2.3c0,1.8-0.1,3.6,0,5.3
		c0.6,0,1.2,0,1.9,0c0-1.8,0.1-3.6,0-5.3C12.7,2.2,12.1,2.3,11.5,2.3z M11.4,9c0,2.3,0,4.6,0,7c0.6,0,1.3,0,1.9,0c0-2.3,0-4.7,0-7
		C12.7,8.9,12.1,8.9,11.4,9z"/>
</g>
<path fill="#211D1E" d="M45.1,0.8c2,0,4,0,5.9,0.1c1.2,0,2,1.3,1.8,2.4c0,8.7,0,17.4-0.1,26.1c-0.2,3.3-0.3,7.4-3.5,9.3
	c0.5-2.1,1.1-4.1,1.1-6.2c0.1-5.1,0-10.1,0.1-15.2c-1.8,0-3.6,0-5.4,0.1c0-0.5,0-1-0.1-1.5c1.8-0.1,3.6,0,5.4,0c0-2.3,0-4.6,0-6.9
	c-1.8,0-3.6,0-5.4,0c0-0.5-0.1-0.9-0.1-1.4c1.8,0,3.7,0,5.5,0c0-1.8,0-3.5,0-5.3c-1.8-0.1-3.6,0-5.4,0C45.2,1.8,45.1,1.3,45.1,0.8z"
	/>
<path fill="#231E1F" d="M54.4,0.8c1.8,0,3.7,0,5.5,0c1-0.1,2.2,0.9,2,2c0,9.4,0.1,18.7-0.1,28.1c-0.2,2.8-0.4,6.5-3.4,7.7
	c1.1-2.9,1.3-6.1,1.3-9.2c0-4,0-8.1,0-12.1c-1.7,0-3.5,0-5.2,0c0-0.4,0-1.1,0-1.5c1.8,0,3.5,0,5.3,0.1c0-2.3,0-4.7,0-7
	c-1.8,0-3.6,0-5.3,0c0-0.5,0-0.9,0-1.4c1.8,0,3.6,0,5.3,0c0-1.7,0-3.5,0-5.2c-1.8-0.1-3.6,0-5.4,0C54.4,1.8,54.4,1.3,54.4,0.8z"/>
<g>
	<path fill="#7E0101" d="M65.5,0.9c0.9,0,1.9,0,2.8,0c0,1,0,2-0.1,3c-0.9,0-1.8,0-2.7,0C65.5,2.9,65.5,1.9,65.5,0.9z M65.6,1.8
		c0.7,0,1.3,0,2,0C67,2,66.4,2.2,65.8,2.3c0,0.3,0,0.9,0,1.2c0.7,0,1.5,0,2.2,0c0-0.8,0-1.6,0-2.4C67.3,1.2,65.7,0.6,65.6,1.8z"/>
</g>
<g>
	<path fill="#231E1F" d="M65.3,5.7c0.9-0.5,2-0.2,3-0.2c0,0.7,0,1.3-0.1,2c-1,0.2-1.7-0.4-1.6-1.4C66.2,5.9,65.7,5.8,65.3,5.7z
		 M67.2,6c-0.4,0.4,0.1,1.3,0.6,0.9C68.2,6.6,67.7,5.7,67.2,6z"/>
</g>
<path fill="#231E1F" d="M65.6,8c0.9,0,1.7,0,2.6,0.1c0,0.6,0,1.3,0.1,1.9c-0.1,0-0.4-0.1-0.5-0.1c0-0.6-0.1-1-0.5-1.4
	c-0.1,0.4-0.3,1.2-0.4,1.6c-0.1-0.6-0.1-1.1-0.2-1.7c-0.5,0.3-0.7,0.9-0.7,1.5c-0.1,0-0.3,0-0.4,0C65.6,9.3,65.6,8.7,65.6,8z"/>
<path fill="#221E1E" d="M65.7,10.5c0.6-0.1,1-0.1,1.3,0.3c-0.2,0.1-0.5,0.2-0.7,0.2c0,0.3-0.1,0.9-0.2,1.2c0.4-0.5,0.9-0.9,1.4-1.3
	c0.3-0.2,0.6,0,0.7,0.5c-0.5,0.2-1,0.4-1.4,0.9c0.4,0,1.1,0.1,1.5,0.1c-0.5,1-2,0.3-2.9,0.6c0.2-0.2,0.5-0.5,0.6-0.7
	C65.7,11.7,65.5,11.1,65.7,10.5z"/>
<path fill="#211D1E" d="M65.6,14.9c0-0.7,0.1-1.5,1-1.5c1.4-0.6,2.3,1.8,1,2.3c0.2-0.8,0.3-2.1-0.9-1.9c-1.2,0.3-0.1,1.6,0,2.3
	c0.6,0.1,1.2,0.2,1.7,0.4c-0.4,0.1-1.2,0.4-1.6,0.5c0.5,0.4,1,0.8,1.5,1.2c-0.9-0.1-2.5,0.7-2.7-0.7l0.9,0.3c0-0.2,0.1-0.7,0.2-1
	c-0.2,0-0.7,0.1-1,0.1C65.9,16.3,65.9,15.6,65.6,14.9z"/>
<path fill="#050101" d="M65.5,18.9c0.9,0.6,1.9,0.8,3,0.9c-0.8,0.6-1.7,0.7-2.5,0.2l0.4,0.7c0.3,0,0.8-0.1,1-0.1l0,0.5
	c-0.6-0.1-1.1-0.2-1.7-0.2C66,20.2,66,19.5,65.5,18.9z"/>
<path fill="#5C5A59" d="M66.7,19"/>
<path fill="#312E2F" d="M65.8,21.9c0.7-0.2,2-0.4,2.4,0.2C67.5,22.3,66.2,22.6,65.8,21.9z"/>
<path fill="#211E1C" d="M17,22.8c0.8,0,1.5,0,2.3,0c-0.1,4,0.2,8-0.7,12c-0.4,1.6-1.2,3.3-2.9,4C17.6,33.6,16.9,28.1,17,22.8z"/>
<path fill="#201B1B" d="M20.7,22.8c0.7,0,1.5,0,2.2,0c0.1,3.6,0.2,7.3-0.4,10.9c-0.3,2-1.1,4-3,5C21.1,33.5,20.6,28.1,20.7,22.8z"/>
<path fill="#201A1C" d="M24.5,22.8c0.7,0,1.5,0.1,2.2,0.1c-0.2,4.1,0.2,8.3-0.8,12.3c-0.4,1.5-1.3,2.9-2.8,3.6
	C24.9,33.6,24.4,28.1,24.5,22.8z"/>
<path fill="#494644" d="M65.8,22.8c0.6-0.2,1.4-0.3,2-0.1c0.4,1.1,0.3,2.2,0.5,3.3c-1-0.2-2.2,0-3-0.7c1-0.2,2.7,0.3,2.7-1.3
	c-0.3,0-0.8,0.1-1.1,0.1c0-0.3,0.1-0.8,0.1-1.1l-0.6,0.3l-0.3,0.9C65.5,24,65.4,23.3,65.8,22.8z"/>
<path fill="#221E1E" d="M67.6,28.2c0.2-0.3,0.3-0.6,0.5-0.9c0.1,0.9,0.1,1.7,0.1,2.6c-0.2-0.4-0.4-0.8-0.6-1.2c-0.8,0-1.6,0-2.3-0.4
	C66.1,28.3,66.8,28.3,67.6,28.2z"/>
<path fill="#231E1F" d="M65.6,30.4c0.8-0.4,1.7,0,2.6-0.1c0,0.3-0.1,0.8-0.1,1.1c-0.2,0-0.6,0-0.8-0.1c-0.3-0.3-0.7-0.6-1.1-0.8
	c-0.1,0.4-0.2,1.1-0.2,1.5C65.6,31.6,65.6,31,65.6,30.4z"/>
<path fill="#221E1E" d="M65.5,32.3c1,0.3,1.9,0.8,2.8,1.4c-0.9,0.5-1.8,0.9-2.8,1.3c0.2-0.9,1.2-1,1.8-1.6
	C66.4,33.5,65.6,33.4,65.5,32.3z"/>
</svg>
