<?xml version="1.0" encoding="utf-8"?>
<!-- Generator: Adobe Illustrator 18.1.1, SVG Export Plug-In . SVG Version: 6.00 Build 0)  -->
<svg version="1.1" id="图层_1" xmlns="http://www.w3.org/2000/svg" xmlns:xlink="http://www.w3.org/1999/xlink" x="0px" y="0px"
	 viewBox="0 0 55.7 36.4" enable-background="new 0 0 55.7 36.4" xml:space="preserve">
<g>
	<path fill="#ED020C" d="M21.7,1.6c3.7-1.9,8.3-2.1,12.1-0.3c1.8,0.9,3.6,1.8,5.3,2.7c-0.4,0.4-0.9,0.7-1.5,0.8
		c-4.5-0.9-9.2-1-13.7-0.3c-5,1.1-10,3.3-13.5,7.1C17.3,7.2,25.9,6,33.8,7.6c3.7,0.7,7.1,2.5,10.9,2.4c1.7,0.1,3.4-0.4,5-1.2
		c0.2,0,0.5,0,0.7,0l0.2,0.6c2,1.2,4.8,2.2,5.1,4.9c0.1,6.5,0,13.1,0,19.6c0.1,1.1-0.6,2.1-1.7,2.4c-1.1,0.1-2.2,0.1-3.3,0.1
		c-16,0-32,0-48,0c-0.9,0.1-1.6-0.5-2.3-1l0.1-0.6c0.3-5.2,0.1-10.5,0.1-15.7c0-1.7,0.2-3.4-0.2-5.1l-0.1-0.5
		c0.6-1.1,1.4-2.1,2.6-2.6C9.2,7.7,15.5,4.7,21.7,1.6z M11.5,14.1c0.1,0.7-0.2,1.7,0.3,2.3c1.7,0.5,3.6,0.1,5.4,0.2
		c2.9,0.1,5.7,0.1,8.6,0.1c0-0.6,0-1.2,0-1.8c-3.7,0-7.4,0-11.1,0C14.2,13.5,12.5,14.3,11.5,14.1z M7.6,14.7
		c-0.1,0.8-0.1,1.7-0.1,2.6c1,0.2,2,0.3,3-0.1c-0.1-0.8,0.3-1.9-0.5-2.5C9.3,14.1,8.4,14.5,7.6,14.7z M31.8,16.5
		c2.2,0.3,4.5,0,6.7,0c0,1.5,0,2.9,0,4.4c-2.2,0-4.4,0-6.6,0c0,0.6,0,1.2-0.1,1.8c2.1,0,4.3,0,6.4,0c-0.6,3.9-3.2,7.2-6.6,9.1
		c0.2,0.3,0.5,0.8,0.7,1.1c3.4-1.4,6.3-3.8,8.1-7c1,1.7,2.1,3.3,3.7,4.5c1.4,1.1,3,2.3,4.9,2.2c0-1.2-1.2-1.6-1.9-2.3
		c-2.4-1.9-4-4.6-4.7-7.5c2.2,0,4.3,0,6.5,0c0-0.6,0-1.2,0-1.8c-2.2,0-4.3,0-6.5,0c0-1.4,0-2.9,0-4.3c2.2,0,4.4,0,6.6,0
		c0-0.6,0-1.2,0-1.8c-5.7-0.1-11.4,0-17.1,0C31.8,15.3,31.8,15.9,31.8,16.5z M10.5,19.1c-1,0-2,0-2.9-0.1c0,1.1,0,2.1,0,3.2
		c0.9,0,1.8,0,2.6,0l0,0.2c-0.8,0-1.6,0.1-2.3,0.1c-0.1,0.4-0.2,1.1-0.3,1.4c0,2.5-0.1,5.1,0,7.6c0.3,1.3,1.8,1.3,2.8,1.5
		c0.3-0.9,0.5-1.8,0.7-2.8c0.3,0.3,0.7,0.6,1.1,1c0.5,0.2,0.9,0.5,1.5,0.5c2.8,0.1,5.5-0.2,8.3,0.1c0.1,0.3,0.4,0.9,0.5,1.2
		c1.2-0.1,2.2-0.9,2.5-2.1c0.2-1.7,0.1-3.3,0.1-5c0.2-0.2,0.6-0.6,0.8-0.7c-0.2-0.6-0.5-1.2-0.8-1.7c0-1.4,0.1-2.8-0.1-4.2
		c-0.2-1-1.4-1.5-2.4-1.5c-3.6,0-7.2,0.1-10.8-0.1C11.4,18.1,11,18.6,10.5,19.1z"/>
</g>
<path fill="#AB1F20" d="M39.1,4c1.4,0.6,2.8,1.3,4.3,1.5c-0.3,0.2-0.6,0.4-1,0.6c-1.6-0.4-3.2-0.8-4.8-1.3C38.2,4.7,38.6,4.4,39.1,4
	z"/>
<path fill="#AB1F20" d="M48,5.6c2.3-0.2,4.5-1.4,6.8-1.6c-0.3,2.1-2.2,3.5-3.6,4.8l-0.6,0c-0.2,0-0.5,0-0.7,0c1-0.8,2-1.7,2.8-2.7
	c0.3-0.4,0.7-0.7,1-1.1c-3.3,1.3-7,1.8-10.5,1.3C44.4,5.2,46.3,6.1,48,5.6z"/>
<path fill="#FED505" d="M10.4,11.7c3.5-3.8,8.5-6.1,13.5-7.1c5.3-0.7,10.7,0.4,15.8,1.9c2.7,0.9,5.6,1.3,8.4,0.9
	c1.5-0.3,3-0.9,4.5-1.2c-0.8,1-1.8,1.9-2.8,2.7c-1.6,0.7-3.3,1.2-5,1.2c-3.8,0.1-7.3-1.7-10.9-2.4C25.9,6,17.3,7.2,10.4,11.7z"/>
<path fill="#D10610" d="M0.2,13.5L0.4,14c0.3,1.7,0.2,3.4,0.2,5.1c-0.1,5.2,0.2,10.5-0.1,15.7l-0.2,0.5c-0.2-1-0.2-2-0.2-3
	c0-5.4,0-10.7,0-16.1C0,15.3,0.1,14.4,0.2,13.5z"/>
<path fill="#FEFEFD" d="M11.5,14.1c1,0.2,2.7-0.6,3.2,0.7c3.7,0,7.4,0,11.1,0c0,0.6,0,1.2,0,1.8c-2.9,0.1-5.7,0.1-8.6-0.1
	c-1.8-0.1-3.6,0.4-5.4-0.2C11.3,15.7,11.6,14.8,11.5,14.1z"/>
<path fill="#FCFDFD" d="M7.6,14.7c0.8-0.2,1.6-0.6,2.4,0c0.8,0.6,0.5,1.6,0.5,2.5c-1,0.4-2,0.3-3,0.1C7.5,16.4,7.5,15.5,7.6,14.7z"
	/>
<path fill="#FDFEFD" d="M31.8,16.5c0-0.6,0-1.2,0-1.8c5.7,0,11.4,0,17.1,0c0,0.6,0,1.2,0,1.8c-2.2,0.1-4.4,0-6.6,0
	c0,1.4,0,2.9,0,4.3c2.2,0,4.3,0,6.5,0c0,0.6,0,1.2,0,1.8c-2.2,0-4.3,0-6.5,0c0.7,2.9,2.3,5.7,4.7,7.5c0.8,0.7,2,1.1,1.9,2.3
	c-1.9,0.1-3.5-1.2-4.9-2.2c-1.6-1.2-2.7-2.8-3.7-4.5c-1.8,3.2-4.7,5.6-8.1,7c-0.2-0.3-0.5-0.8-0.7-1.1c3.4-1.9,6.1-5.2,6.6-9.1
	c-2.1-0.1-4.3,0-6.4,0c0-0.6,0-1.2,0.1-1.8c2.2,0,4.4,0,6.6,0c0-1.5,0-2.9,0-4.4C36.3,16.4,34.1,16.8,31.8,16.5z"/>
<path fill="#D90309" d="M10.5,19.1c0.4-0.5,0.9-0.9,1.3-1.4c0,3.6,0,7.2,0,10.7c0,0.9,0.1,1.9,0.5,2.7c-0.4-0.3-0.7-0.6-1.1-1
	c-0.2,0.9-0.4,1.9-0.7,2.8c-0.1-3,0-6.1-0.1-9.1c-0.9,0-1.9,0-2.8,0c0.1-0.4,0.2-1.1,0.3-1.4c0.8,0,1.6-0.1,2.3-0.1l0-0.2
	C10.4,21.1,10.5,20.1,10.5,19.1z"/>
<g>
	<path fill="#FEFEFD" d="M11.8,17.7c3.6,0.1,7.2,0.1,10.8,0.1c1,0,2.1,0.4,2.4,1.5c0.2,1.4,0.1,2.8,0.1,4.2c0.3,0.6,0.6,1.1,0.8,1.7
		c-0.2,0.2-0.6,0.6-0.8,0.7c0,1.7,0.1,3.3-0.1,5c-0.2,1.2-1.3,2-2.5,2.1c-0.1-0.3-0.4-0.9-0.5-1.2c-2.8-0.2-5.5,0-8.3-0.1
		c-0.5,0-1-0.3-1.5-0.5c-0.3-0.9-0.5-1.8-0.5-2.7C11.8,24.9,11.8,21.3,11.8,17.7z M14.7,19.4c0,1.5,0,3,0,4.5c0.8,0,1.5,0,2.3,0
		c0-1,0-2.1,0-3.1c0.9,0,1.9,0.1,2.8,0.1c0,1,0,1.9-0.1,2.9c0.9,0,1.8,0,2.6,0c0-1.4,0-2.7-0.1-4.1C19.9,19.1,17.3,19.6,14.7,19.4z
		 M14.7,25.6c0,1.4-0.1,2.9,0.1,4.3c2.5,0.1,5.1,0.1,7.6,0c0-1.4,0-2.8,0-4.3c-0.9,0-1.7,0-2.6,0c0,1,0,1.9-0.1,2.9
		c-1,0-1.9,0.1-2.8-0.3c0-0.9,0-1.7,0-2.6C16.2,25.6,15.5,25.6,14.7,25.6z"/>
</g>
<path fill="#FDFFFB" d="M7.6,19c1,0,2,0,2.9,0.1c-0.1,1-0.2,2.1-0.3,3.1c-0.9,0-1.8,0-2.6,0C7.6,21.1,7.6,20.1,7.6,19z"/>
<path fill="#E90206" d="M14.7,19.4c2.6,0.1,5.2-0.4,7.7,0.4c0.1,1.4,0.1,2.7,0.1,4.1c-0.9,0-1.8,0-2.6,0c0-1,0-1.9,0.1-2.9
	c-1-0.1-1.9-0.1-2.8-0.1c0,1,0,2.1,0,3.1c-0.8,0-1.5,0-2.3,0C14.7,22.4,14.7,20.9,14.7,19.4z"/>
<path fill="#FEFEFE" d="M7.6,23.9c0.9,0,1.9,0,2.8,0c0.1,3,0,6.1,0.1,9.1c-1.1-0.2-2.5-0.3-2.8-1.5C7.5,28.9,7.6,26.4,7.6,23.9z"/>
<path fill="#E70209" d="M14.7,25.6c0.7,0,1.5,0,2.2,0c0,0.9,0,1.7,0,2.6c0.9,0.4,1.9,0.3,2.8,0.3c0-1,0-1.9,0.1-2.9
	c0.9,0,1.7,0,2.6,0c0,1.4,0,2.8,0,4.3c-2.5,0.1-5.1,0.1-7.6,0C14.6,28.5,14.7,27,14.7,25.6z"/>
</svg>
