<?xml version="1.0" encoding="utf-8"?>
<!-- Generator: Adobe Illustrator 18.1.1, SVG Export Plug-In . SVG Version: 6.00 Build 0)  -->
<svg version="1.1" id="图层_1" xmlns="http://www.w3.org/2000/svg" xmlns:xlink="http://www.w3.org/1999/xlink" x="0px" y="0px"
	 viewBox="0 0 105 19.1" enable-background="new 0 0 105 19.1" xml:space="preserve">
<g>
	<path fill="#080101" d="M1.5,0.3c0.6-0.4,1.3-0.4,2-0.1C5.5,0.9,7.3,2.4,9.3,3c3.7,0.1,7.3,0.1,11,0c2.3-0.6,4.1-2.3,6.3-2.9
		c1.6-0.4,3.2,1.1,3.1,2.6c0,4.5,0,9,0,13.5c0,1.4-1.1,3-2.6,2.9c-8,0-16.1,0-24.1,0c-1.6,0.1-3-1.3-2.9-2.9C0,11.9,0,7.5,0,3.1
		C0,2,0.4,0.8,1.5,0.3z M19.5,4.1C16,4,12.4,4.3,8.9,4C6.9,3.2,5.1,1.9,3,1.2C2.2,1,1.2,1.4,1.1,2.3c-0.1,1.6,0,3.3,0,4.9
		c1.4,0,2.8,0,4.2,0.1c0,0.7-0.1,1.3-0.2,2c-1.3,0-2.6,0-3.9,0c0,0.6-0.1,1.2-0.1,1.8c1.3,0.1,2.7-0.2,4,0.2c0.5,0.5,0,1.3,0.1,1.9
		c-1.3,0.1-2.7,0.1-4,0c0,1.1-0.1,2.3,0,3.4c0.2,1,1.3,1.6,2.3,1.4c7.9-0.1,15.8,0,23.7,0c2.1-0.4,1.5-3,1.5-4.6
		c-1.1-0.5-2.6-0.1-3.9-0.3c0-0.6,0-1.3-0.1-1.9c1.3-0.2,2.7-0.2,4-0.1c0-0.6-0.1-1.2-0.1-1.8c-1.3-0.1-2.8,0.4-3.9-0.3
		c0-0.6-0.3-1.4,0.3-1.8c1.2-0.1,2.5,0,3.7,0c0-1.6,0.1-3.3,0-4.9c0-0.7-0.8-1.2-1.4-1.2C24.4,1.6,22.4,4.3,19.5,4.1z"/>
</g>
<g>
	<path fill="#FCBF02" d="M19.5,4.1c2.9,0.1,4.9-2.5,7.7-3c0.7,0,1.4,0.5,1.4,1.2c0.1,1.6,0,3.2,0,4.9c-1.2,0-2.5-0.1-3.7,0
		c-0.6,0.4-0.3,1.2-0.3,1.8c1.2,0.6,2.6,0.2,3.9,0.3c0,0.6,0.1,1.2,0.1,1.8c-1.3,0-2.7-0.1-4,0.1c0,0.6,0,1.3,0.1,1.9
		c1.3,0.2,2.8-0.2,3.9,0.3c0,1.6,0.6,4.2-1.5,4.6c-7.9,0.1-15.8,0-23.7,0c-1,0.1-2.1-0.4-2.3-1.4c-0.2-1.1-0.1-2.3,0-3.4
		c1.3,0,2.7,0,4,0c0-0.6,0.4-1.4-0.1-1.9c-1.3-0.3-2.7-0.1-4-0.2c0-0.6,0.1-1.2,0.1-1.8c1.3,0,2.6,0,3.9,0c0.1-0.7,0.2-1.3,0.2-2
		C3.9,7.2,2.5,7.1,1.1,7.2c0-1.6-0.1-3.3,0-4.9C1.2,1.4,2.2,1,3,1.2c2.1,0.7,3.9,2,5.9,2.8C12.4,4.3,16,4,19.5,4.1z M8.7,10.6
		c0.3,1.1,1.5,1.3,2.4,1.6c1.4,0.5,2.8,0.4,4.2,0.7c-0.5,0.7,0.6,1.7,1.2,1.1c0.3,0.3,0.7,0.9,1.2,0.8c1-0.4,1.1-1.6,1.6-2.5
		c0.5-0.4,1-0.8,1.4-1.2c-0.2-0.1-0.7-0.2-0.9-0.3c-2.5,0.8-5.3,1.2-8,0.5C10.8,11.1,9.8,10.4,8.7,10.6z"/>
</g>
<path fill="#060100" d="M40.9,1.7c1-0.1,2,0.2,3,0.5c1.8,0.2,3.6,0,5.4,0.1c0,0.6,0,1.2,0.1,1.8c-1.7,0-3.4,0-5,0
	c-0.5-0.1-0.9,0.1-1.2,0.4c2.5,0.3,5.1,0.1,7.7,0.2c0,1.3,0.1,2.7,0,4c-0.7,0.1-1.4,0.1-2.1,0.1c-0.1-0.7-0.1-1.5-0.2-2.2
	c-1.5,0-3,0-4.5,0c0,0.3,0,0.8,0,1.1c1.4-0.2,2.8-0.5,4.2-0.5c0,0.6,0,1.2-0.2,1.7c-1.4,0.4-2.8,0.2-4.2,0.3
	c0.1,0.2,0.2,0.5,0.3,0.7c2.3,0,4.6,0,6.9,0c0,0.6,0,1.2,0,1.8c-3.2,0.1-6.4,0-9.6,0.1c0-0.5,0-1-0.1-1.5c-1,0-2,0-2.9,0
	c0-0.7,0-1.3,0-2c1,0,1.9,0,2.9,0c0-0.6,0-1.1,0-1.7c-1.2,0-2.5,0-3.7,0.1c0,3.9,0.1,7.9-0.6,11.7c-0.8,0-1.7,0-2.5,0
	c1.4-4.5,0.7-9.2,0.9-13.9c1.7,0,3.5,0,5.2,0C40.9,3.7,40.9,2.7,40.9,1.7z"/>
<path fill="#050100" d="M53.2,2.4c5,0,10,0,15,0c0,0.8,0,1.5,0,2.3c-0.9,0-1.8-0.1-2.7-0.1c-0.2,1.5-0.1,3-0.1,4.6
	c1.2,0,2.4,0,3.6,0c0,0.7,0,1.5,0,2.2c-1.2,0-2.4,0-3.6,0c0,2.4,0,4.8,0,7.2c-1.9-0.1-3.7,0-5.6,0c0-0.8,0-1.5,0-2.3
	c1.1-0.1,2.2-0.1,3.3-0.1c0-1.6,0-3.1,0-4.7c-1.6,0-3.3,0-4.9,0c-0.3,2.4-0.8,4.9-1.7,7.1c-0.8,0-1.6,0-2.3,0
	c0.8-2.3,1.4-4.7,1.8-7.1c-0.9,0-1.8,0-2.7,0c0.4-2,0.8-4,1.1-6c0.8,0,1.6,0,2.4,0c-0.2,1.2-0.4,2.4-0.6,3.6c2.3,0,4.6,0,6.9,0
	c0-1.5,0-3,0-4.5c-3.3,0-6.6,0-10,0C53.2,3.8,53.2,3.1,53.2,2.4z"/>
<path fill="#050100" d="M70.7,2.3c5.2,0,10.4,0,15.6,0c0,0.7,0,1.3,0,2c-0.3,0-0.9,0.1-1.1,0.2c-0.1,1.6,0,3.3,0,4.9
	c-0.8,0-1.5,0-2.3,0c0-1.7,0-3.4,0-5.1c-4.1,0-8.1,0-12.2,0C70.7,3.6,70.7,3,70.7,2.3z"/>
<path fill="#060101" d="M88.8,2.3c5.2,0,10.4,0,15.6,0c0,0.7,0,1.3,0,2c-0.3,0-0.8,0-1.1,0c0,1.7,0,3.4,0,5.1c-0.8,0-1.5,0-2.3,0
	c0-1.7,0-3.4,0-5.1c-4.1,0-8.2,0-12.2,0C88.8,3.6,88.8,3,88.8,2.3z"/>
<g>
	<path fill="#060100" d="M72,4.9c3.1,0.1,6.2,0,9.4,0c0,1.5,0,2.9,0.1,4.4c-3.1,0-6.3,0-9.4,0C72,7.9,72,6.4,72,4.9z M74.2,6.6
		c0,0.3,0,0.8,0,1c1.6,0.1,3.3,0.2,4.9,0c0-0.3,0-0.8,0-1.1C77.5,6.6,75.9,6.6,74.2,6.6z"/>
</g>
<g>
	<path fill="#060100" d="M90.1,5c3.1,0,6.2-0.1,9.3,0c0,1.5,0,2.9-0.1,4.4c-3.1,0-6.2,0-9.3,0C90,7.9,90,6.4,90.1,5z M92.4,6.6
		c0,0.3-0.1,0.8-0.1,1c1.6,0.2,3.3,0,4.9,0c0-0.3-0.1-0.8-0.1-1C95.5,6.6,93.9,6.6,92.4,6.6z"/>
</g>
<path fill="#050100" d="M70.2,10c5.6,0,11.2,0,16.8,0c0,0.7,0,1.4-0.1,2.2c-0.6,0-1.2,0-1.8,0c0,2.1,0,4.3,0.1,6.5
	c-1.1,0-2.2,0-3.4,0c0-0.7,0.1-1.3,0.1-2c0.2,0,0.7-0.1,1-0.2c0-1.4,0-2.9,0-4.3c-4.2,0-8.4,0-12.7,0C70.2,11.4,70.2,10.7,70.2,10z"
	/>
<path fill="#050101" d="M88.1,10c5.6,0,11.3-0.1,16.9,0c0,0.7,0,1.4,0,2.1c-0.6,0-1.1,0-1.7,0c0,2.1,0,4.3,0,6.4c-1.1,0-2.3,0-3.4,0
	c0.1-0.9-0.4-2.5,1-2.1c0-1.4,0-2.9,0-4.3c-4.3,0-8.5,0-12.8,0C88.1,11.4,88.1,10.7,88.1,10z"/>
<g>
	<path fill="#080101" d="M8.7,10.6c1.1-0.2,2.1,0.5,3.2,0.7c2.6,0.7,5.4,0.3,8-0.5c0.2,0.1,0.7,0.2,0.9,0.3c-0.5,0.4-1,0.8-1.4,1.2
		c-0.5,0.8-0.6,2-1.6,2.5c-0.6,0.1-0.9-0.4-1.2-0.8c-0.4-0.4-0.6-1-1.2-1.1c-1.4-0.3-2.9-0.2-4.2-0.7C10.1,11.9,9,11.7,8.7,10.6z
		 M16.1,12.7c0.4,0.7,1,1.3,1.8,1.3c0.2-0.6,0.4-1.2,0.6-1.8C17.7,12.4,16.9,12.6,16.1,12.7z"/>
</g>
<path fill="#FEFEFC" d="M16.1,12.7c0.8-0.1,1.6-0.3,2.4-0.4c-0.1,0.6-0.3,1.2-0.6,1.8C17.1,14,16.6,13.4,16.1,12.7z"/>
<path fill="#060100" d="M40.6,12.5c2.9,0.1,5.9,0.1,8.8,0.1c0,1.2,0,2.4,0,3.5c0.8,0,1.6,0.1,2.3,0.2c0,0.8,0,1.5,0,2.3
	c-1.6,0-3.1,0-4.7,0c0-1.2,0.1-2.5,0-3.7c-1.3-0.4-2.8-0.1-4.2-0.2c-0.4,1.4-1.1,2.8-2.2,3.8c-0.8,0-1.7,0-2.5-0.1
	c0.6-1.1,1.8-1.9,2.1-3.1C40.4,14.4,40.5,13.5,40.6,12.5z"/>
<path fill="#E3BB69" d="M15.3,12.9c0.6,0.1,0.8,0.7,1.2,1.1C15.9,14.5,14.8,13.5,15.3,12.9z"/>
<g>
	<path fill="#070101" d="M72,12.8c3.1-0.1,6.2-0.1,9.3-0.1c0.1,1.7,0.1,3.3,0,5c-3.1,0-6.2,0-9.4,0C72,16.1,72,14.4,72,12.8z
		 M74.3,14.7c0,0.3-0.1,0.9-0.1,1.2c1.6,0,3.2,0,4.8,0c0-0.3,0-0.9,0-1.2C77.5,14.7,75.9,14.6,74.3,14.7z"/>
</g>
<g>
	<path fill="#050101" d="M90.1,12.7c3.1,0,6.2,0,9.4,0c0,1.7,0,3.3,0,5c-3.1,0-6.2,0-9.4,0C90.1,16.1,90.1,14.4,90.1,12.7z
		 M92.3,14.7c0,0.3,0.1,0.9,0.2,1.2c1.6,0,3.1,0.1,4.7,0c0-0.3,0.1-0.9,0.1-1.2C95.6,14.7,93.9,14.7,92.3,14.7z"/>
</g>
</svg>
