<?xml version="1.0" encoding="utf-8"?>
<!-- Generator: Adobe Illustrator 18.1.1, SVG Export Plug-In . SVG Version: 6.00 Build 0)  -->
<svg version="1.1" id="图层_1" xmlns="http://www.w3.org/2000/svg" xmlns:xlink="http://www.w3.org/1999/xlink" x="0px" y="0px"
	 viewBox="0 0 31.3 46.4" enable-background="new 0 0 31.3 46.4" xml:space="preserve">
<path fill="#240D02" d="M21.6,1.3c2-0.5,3.9-1,5.9-1.3c0.8-0.2,1.8,0.8,1.3,1.6c-0.7,0.7-1.7,0.6-2.5,0.7c-1.2,0.2-2.3,0.7-3.5,1
	C21.8,3.3,21.6,2.2,21.6,1.3z"/>
<g>
	<path fill="#280703" d="M6.4,3.8c0.8-1,0.7-2.5,1.2-3.7c0.5,0.3,1,0.7,1.5,1.1C8.6,2,8.1,2.9,7.6,3.7c0.7-0.5,1.2-1.5,2.2-1.4
		c0.9,0.5-0.4,1-0.7,1.3C9,4.8,9,6.2,8.1,7.1C7.5,7.6,6.7,7.9,6,8.3c1-0.1,1.8-0.8,2.8-0.5c-0.5,1.6-2.7,1.3-3.9,2.2
		C5.2,8.7,5.2,7.3,5.3,6C5.2,5.9,4.8,5.8,4.7,5.8C5,5.5,5.3,5.3,5.6,5c-0.3,0-1,0.1-1.3,0.1C4.4,5.7,4.6,6.3,5,6.8
		c-0.1,0.3-0.2,0.8-0.2,1c-1.1,0.7-0.8,2.1-0.2,3c-0.6,0.3-1.2,0.1-1.7-0.3c0.5-1.3-0.4-2.5-0.3-3.8c0.6,0.3,1.2,0.8,1.9,1
		C3.9,6.8,3.3,5.9,2.8,5C3.9,4.3,5.2,4.1,6.4,3.8z M6.6,4.7C6,5.4,7.1,5.9,7.5,5.2C8.1,4.6,6.9,4,6.6,4.7z M6.4,7.1
		C7,7.6,7.9,6.6,7.5,6C6.9,5.5,6,6.5,6.4,7.1z"/>
</g>
<path fill="#220A02" d="M15.9,3.8C16.9,2.5,18,1.3,19,0c0.7,0.4,1.2,0.9,1.6,1.6c-0.9,1.7-2.4,2.9-4.2,3.7
	C16.2,4.9,15.3,4.3,15.9,3.8z"/>
<path fill="#210601" d="M3.7,2.6c0.1-0.5-0.3-1.7,0.7-1.5C5,1.4,5.5,1.8,6,2.2C5.6,3.8,3.7,3.9,2.4,4.1C2.3,3.2,2.8,2.6,3.7,2.6z"/>
<path fill="#240C01" d="M24.5,3.2c0.6-0.2,1.6-0.2,1.9,0.5c0,0.8-0.1,1.6-0.1,2.4c1-0.9,1.6-2.1,2.5-3.1c1.1-0.1,2.4,1.5,1.4,2.5
	c-1.2,1.1-3.5,0.6-4.3,2.3c1,0.1,2.8-1,3.1,0.5c0.1,1.8-3.5,0.5-2.8,2.5c1.4,0.2,2.9-0.3,4.2,0.1c1,0.4,0.7,2.1-0.4,2.1
	c-1.5-0.1-3.1-0.5-4.6-0.4c-1.3,0.1-2.6,0.7-3.9,0.9c-0.9-0.4-1.2-1.3-1.2-2.2c1.4,0.1,2.7-0.1,4.1-0.3c0-0.2,0-0.7,0-0.9
	c-0.7,0-1.3,0.1-2,0c-0.5-0.4-0.7-1-0.9-1.6c0.9-0.2,1.7-0.3,2.6-0.6c0.1-1.5-1.4,0-2.1-0.5c-1-0.4-0.8-1.6-0.8-2.4
	c1.2-0.3,1.7,1.1,2.7,1.2C24.1,5.2,23.8,4,24.5,3.2z"/>
<path fill="#270D01" d="M18.3,5.2c0.3-0.6,0.6-1.1,1.2-1.4c0.4,0.6,1.1,1.2,0.9,2c0,0.8-0.7,1.4-1.2,2c0.2,0.4,0.4,0.8,0.7,1.3
	c-0.4,1.7-0.1,3.5-0.4,5.2c-0.5,0.7-1.4,0.2-2,0c0.1-1.8,0.2-3.5,0.1-5.3c-1,0.6-1.7,1.7-2.8,1.8c-0.2-0.2-0.7-0.6-0.9-0.8
	C15.7,8.7,17.3,7.1,18.3,5.2z"/>
<path fill="#230A01" d="M8.2,7.5c0.4-0.4,1-0.9,1.6-0.7c1.8,1.1,1.3,4.3-0.8,4.7c-0.5-0.6-1.1-1.1-1.7-1.6c0.5-0.4,1.2-0.1,1.8-0.3
	C9.5,8.6,9.6,7.3,8.2,7.5z"/>
<path fill="#240C01" d="M0.9,8.9C1.4,8.5,2.3,9,2,9.6C1.6,10.1,0.6,9.5,0.9,8.9z"/>
<g>
	<path fill="#200502" d="M5.7,11.4c0.8-0.1,1.5,0.2,1.8,1c0.7,0,1.3,0,2,0.1c-0.2,1.3-2,0.4-2.4,1.4c0.5,0,1.4-0.1,1.8-0.2
		c0.2,1.4-1.6,0.8-2.1,1.7c1.2-0.3,2.8-1.1,3.7,0.2c0.7,1.2-1.8,1.8-1.5,0.3c-0.2,0.1-0.4,0.2-0.6,0.3c0.1,0.4,0.2,0.8,0.3,1.2
		c1-0.1,2.1-0.1,3.1,0c-0.5,1.2-2.2,0.4-3.3,0.7c0.6,0.2,1.2,0.3,1.8,0.5c-0.4,0.4-0.8,0.7-1.3,1c0,1.1,0.3,2.2-0.1,3.3
		c-0.9,0.4-1.5-0.4-2-1c1-0.5,0.9-2.2,0-2.7C7.1,20.2,7.2,21,7,21.9c-0.7-0.1-1.2-0.5-1.5-1.1c-0.5,0.6-1.1,0.2-1.7,0
		c1.5,0,0.7-1.1,0.9-1.8c0.8-0.4,1.2,0.9,1.6,1.4c0-0.4-0.1-1.1-0.1-1.4c0.6-0.1,1.4,0,1.6-0.7c-1.8-0.7-3.6,1.4-5.1,0l1-0.2
		c0.1-0.1,0.3-0.4,0.4-0.5c-0.6-0.3-1.7-0.2-1.7-1.1c0.7-0.2,1.4-0.4,2.1-0.5c-0.5-0.8-1-1.6-1.6-2.3c0.8-0.3,1.7-0.5,2.6-0.6
		C5.5,12.4,5.6,11.9,5.7,11.4z M4.5,14c-0.4,1,1.3,0.8,1.5,0.1C5.9,13.4,4.8,13.6,4.5,14z M4.5,15.6c0.1,0.7,1.3,0.6,1.4,0
		C5.8,14.8,4.6,14.8,4.5,15.6z M6.9,16.2c-0.4,0.5-0.3,0.8,0.3,0.9C7.6,16.6,7.5,16.3,6.9,16.2z M5,17.4c0.2,0,0.6,0.1,0.8,0.1
		C6,17,5.9,16.6,5.4,16.3C4.7,15.9,4.4,17.1,5,17.4z"/>
</g>
<path fill="#270D01" d="M20.9,19.3c0.2-0.9,0.6-1.9,1.5-2.2c1-0.1,1.8,0.9,2.4,1.5c0.2,2.7-0.4,5.3,0.1,8c1,0,2-0.1,3-0.1
	c0.3-1-0.3-3,1.3-2.9c1.2,0.4,2.6,1.7,2,3.1c-0.7,1.6-0.9,3.5-1.9,5c-0.7,0.2-1.6-0.1-2.2-0.5c-0.6-0.7,0.1-1.6,0.3-2.4
	c-2.2-0.2-4.5-0.1-6.7,0.6c-1.1,0.4-2.2,2.1-3.4,1c-1.3-1.6-1.6-3.9-0.9-5.8c0.7,0.1,1.7,0,2.2,0.7c0.4,0.7,0.4,1.6,0.7,2.4
	c0.8-0.1,1.6-0.2,2.4-0.4c0.2-2.4,0.1-4.8,0-7.2C21.5,20,21.1,19.6,20.9,19.3z"/>
<path fill="#240C01" d="M0.5,19.4c0.5-0.4,1-0.7,1.5-1.1c0.3,0.2,0.7,0.4,1,0.5C2.3,19.2,1.4,20,0.5,19.4z"/>
<path fill="#281814" d="M2.3,20.1c0.4-0.7,1-1.6,1.9-1.1c0,0.5-0.3,0.8-0.9,1c0.2,0.6,0.4,1.2,0.7,1.8C3,21.9,2.8,20.8,2.3,20.1z"/>
<g>
	<path fill="#250A02" d="M8,24.3c0.8-0.5,2-1.3,2.8-0.3c0.3,0.9-0.7,1.7-0.3,2.6C10.9,27.8,10,29,9,29.7c0.9-0.1,2.1-0.8,2.7,0
		c0,1.7-2.3,0.6-3.3,0.9c-0.1,1.1,0.7,3.1-0.8,3.4c-0.9-0.9-0.4-2.3-0.6-3.5c-0.8,0.1-1.9,1.1-2.5-0.2c0.8-0.1,1.6-0.2,2.2-0.8
		c0.2-0.5-0.1-1.2,0-1.7c-0.1,1.1-1.4,2.8-2.5,1.8c0.1,1.1,0.1,2.3-0.1,3.4c-0.4-0.2-1.2-0.1-1.3-0.7c0-0.8,0.1-1.5,0.1-2.3
		c-0.9,0.9-1.8,1.9-3,2.3c1-1.3,2.2-2.4,3.2-3.8c-1,0.1-2.1,0.2-2.5-0.9c0.9-0.4,1.9-0.7,2.8-1.1c-0.2-0.9-1.6-1.1-1.4-2
		c1.4,0.2,3.7-0.7,4.1,1.2c-0.2,0.3-0.4,0.6-0.6,0.9C5.4,26.1,5,25.4,4.8,25c-0.3,0.2-0.5,0.4-0.8,0.6c0.7,0.6,1.4,1.2,2.1,1.7
		c0-0.3,0.1-0.8,0.1-1.1c0.6-0.8-0.1-1.6-0.3-2.3c0.7,0,1.3,0,2,0.1c-0.2,0.8-0.5,1.5-0.4,2.3c0.6,0.8,1.4,1.5,1.2,2.6
		c0.5-0.8,0.5-1.8,0.5-2.7c-0.4,0.2-0.8,0.4-1.1,0.7C8.1,26,8,25.1,8,24.3z M9,24.4c-0.6,0.2-0.4,1.3,0.3,1.1
		C9.9,25.2,9.7,24.1,9,24.4z M4.3,27.9c0.3,0.1,0.8,0.2,1.1,0.2c-0.1,0.3-0.3,0.8-0.4,1c0.5-0.2,0.7-0.7,1-1.1
		C5.4,27.9,4.8,27.5,4.3,27.9z"/>
</g>
<g>
	<path fill="#7E0101" d="M17.6,33.6c1-0.3,2.1-0.2,3.1-0.2c3.1,0.1,6.2,0.1,9.3,0.1v0.1c0,1.2-0.1,2.4-0.3,3.5l0-0.7
		c-0.7,0.2-1.4,0.3-2.1,0.5l0,0.6c0-0.2-0.1-0.5-0.1-0.7c-0.2,0-0.5,0.1-0.7,0.1l0.4-0.2c-0.1-0.1-0.3-0.3-0.4-0.4l0,0
		c0-0.8-0.2-1.6-0.4-2.4c-0.3,0-0.9,0-1.2-0.1c-0.1,0.1-0.3,0.4-0.4,0.6c0-0.5-0.4-0.5-0.8-0.5C22,33.6,19.8,33.7,17.6,33.6z
		 M27.4,33.7c-0.4,0.5-0.3,1.1-0.4,1.7c0.2,0.4,0.5,0.8,0.7,1.1c0.7-0.2,1.4-0.3,2.1-0.5c0-0.7,0-1.3,0-2
		C29.1,33.7,28.2,33.5,27.4,33.7z"/>
</g>
<path fill="#C54348" d="M24.2,33.8c0.4,0,0.8,0.1,0.8,0.5c-0.1,0.2-0.4,0.7-0.6,0.9c0.4,0,0.8,0,1.3,0c0.4,0.3,0.8,0.7,1.2,1l0,0
	c-0.3,0-1,0-1.4,0c-0.1,0.2-0.2,0.7-0.2,0.9c-0.3-1-1.2-1.3-2.1-1.3c-0.5-0.1-1-0.2-1.5-0.2c0.5-0.1,1.4-0.3,1.8-0.4
	c-0.7-0.1-1.4-0.2-2.1-0.2l0-0.7c0.9,0,1.7,0.2,2.6,0.5C24,34.5,24.1,34,24.2,33.8z"/>
<path fill="#F2C8C7" d="M25.4,33.7c0.3,0,0.9,0,1.2,0.1c0.2,0.8,0.3,1.6,0.4,2.4c-0.4-0.3-0.8-0.7-1.2-1c-0.4,0-0.8,0-1.3,0
	c0.1-0.2,0.4-0.7,0.6-0.9C25.1,34.2,25.3,33.9,25.4,33.7z"/>
<g>
	<path fill="#FFFFFD" d="M27.4,33.7c0.8-0.1,1.6,0,2.4,0.3c0,0.7,0,1.3,0,2c-0.7,0.2-1.4,0.4-2.1,0.5c-0.2-0.4-0.5-0.8-0.7-1.1
		C27.2,34.8,27,34.1,27.4,33.7z M27.7,34c0,0.3-0.1,1-0.1,1.4c0.3,0.2,0.9,0.5,1.2,0.7c0.2-0.3,0.5-1,0.7-1.3c-0.3,0-1,0-1.3,0
		c0.3-0.1,0.8-0.2,1.1-0.2l0-0.6C29,34,28.1,34,27.7,34z"/>
</g>
<g>
	<path fill="#D6A9AF" d="M30.1,33.6c0.6,0.8,0.4,1.8,0.4,2.7c0,3.1,0.1,6.2,0,9.3c0,0.8-1.1,0.8-1.6,0.8c-2.4,0-4.9,0.1-7.3-0.2
		c0.2-0.1,0.7-0.3,1-0.4c0.7,0.1,1.4,0.2,2.1,0.3c0-0.5,0.1-0.9,0.1-1.4c0.1,0.2,0.3,0.6,0.4,0.7c1.5,0.1,3,0,4.5,0.1
		c0-0.2,0.1-0.6,0.1-0.8c-0.6,0.1-1.2,0.2-1.9,0.3h0c0,0-0.1,0-0.1,0l-0.3,0c-0.2-0.1-0.5-0.4-0.7-0.5c0.5-0.2,1.1-0.4,1.6-0.6
		l0.3,0c0.1,0.2,0.3,0.5,0.5,0.6c0-0.9,0.1-1.7,0-2.5c-0.6-0.3-1.2-0.5-1.8-0.8c-0.1-0.2-0.2-0.6-0.3-0.7c-0.1-0.2-0.2-0.6-0.3-0.8
		c0.7,0,1.4-0.2,2.1-0.4c0.2,0.1,0.8,0.3,1,0.4c0-0.2-0.1-0.6-0.1-0.8c0-0.6,0.1-1.2,0.1-1.7C30,35.9,30.1,34.8,30.1,33.6z
		 M27.7,40.5c0.7,0.3,1.4,0.7,2.2,1c0-0.9-0.7-1.3-1.3-1.8C28.3,39.9,28,40.2,27.7,40.5z"/>
</g>
<g>
	<path fill="#E1474C" d="M17.5,33.6c1,0.8,0.9,2.1,1,3.2c1,0.1,2.1,0.1,3-0.4c0.2,0.9-0.4,1.7-0.9,2.4c0.1,0.2,0.3,0.6,0.4,0.8
		c-0.1,0.2-0.2,0.7-0.3,1c0.8-0.2,1.7-0.5,2.5-0.8c-0.4-0.1-1.2-0.2-1.6-0.3c0-0.6,0-1.1,0-1.7c0.7,0,1.4-0.1,2.1-0.1
		c-0.1-0.6-0.2-1.2-0.3-1.7c1.3,0.4,1.1,1.8,1.1,2.8c0.6,0,1.1-0.1,1.7-0.1c0.1-0.4,0.2-1.1,0.3-1.4c0.3,0.6,0.5,1.3,0.7,1.9
		c0.6-0.7,1.2-1.4,2-2c0.2,0.5,0.4,1.1,0.6,1.6c0,0.2,0.1,0.6,0.1,0.8c-0.3-0.1-0.8-0.3-1-0.4c-0.7,0.2-1.4,0.4-2.1,0.4
		c-0.2-0.1-0.6-0.2-0.8-0.3c-0.5-0.4-1.5,0-1.2,0.7c0,0.1,0.1,0.4,0.2,0.6c0.4,0.1,0.8,0.1,1.2,0.2c-0.1,0-0.4,0.1-0.5,0.2
		c0.8,0.8,1.8,1.6,1.9,2.9c0.2,0,0.7,0.1,0.9,0.1c-0.5,0.2-1.1,0.4-1.6,0.6c0.2,0.1,0.5,0.4,0.7,0.5c-0.9,0.1-1.8-0.2-2.7-0.3
		c0,0.5-0.1,0.9-0.1,1.4c-0.7-0.1-1.4-0.2-2.1-0.3c-0.2,0.1-0.7,0.3-1,0.4l0.1-0.3c0.1-0.3,0.2-0.9,0.3-1.2c-0.3,0.1-0.7,0.2-1,0.3
		c-0.6-0.2-1.2-0.5-1.8-0.7c-0.2,0.1-0.5,0.2-0.7,0.2l0,0c-0.1-0.7-0.1-1.4-0.1-2.1c1.7-0.2,3.3-0.1,5,0c0,0.3,0,0.9-0.1,1.3
		c0.5,0.2,1,0.4,1.5,0.5c-0.4-0.4-0.9-0.9-1.3-1.3c0.3-0.2,0.8-0.6,1-0.8c0.7,0.3,1.4,0.6,2.1,0.9c-0.9-0.8-2-1.3-3.3-1
		c-0.1-0.5-0.1-1.1-0.2-1.6c-0.4,0.5-0.8,1-1.2,1.5c-0.7-0.1-1.4-0.2-2-0.3c0.2-1.1,0.3-2.3-0.3-3.4c0.3,0,0.9-0.1,1.2-0.1
		c-0.7-0.2-1.4-0.3-2.1-0.5c0.6,0.9,0.8,1.9,0.1,2.8c0.1,0.6,0.3,1.2,0.4,1.8c-0.3,0.1-1,0.2-1.3,0.2L17.5,42
		C17.1,39.2,17.5,36.4,17.5,33.6z M22.9,38.6c-0.3,0.5,0.7,1,1,0.6C24.2,38.6,23.3,38.2,22.9,38.6z M23.3,39.8 M20.5,41
		c0.1,0.5,0.4,0.6,1,0.2C21.3,40.7,21,40.6,20.5,41z M18.9,43l-0.1,0.6c0.6,0,1.3-0.1,1.9-0.1c-0.1,0.2-0.3,0.7-0.4,0.9
		c0.7,0,0.7-0.7,0.7-1.3C20.4,43,19.7,43,18.9,43z M21.7,43.5c-0.2,0.7,0,0.9,0.7,0.7C22.6,43.5,22.4,43.3,21.7,43.5z M25.2,43.5"/>
</g>
<g>
	<path fill="#BD4C4C" d="M18.5,34c0.7,0,1.3-0.1,2-0.1c0,0.4-0.1,1.2-0.1,1.6c-0.6,0.1-1.5,0.6-1.8-0.2C18.6,35.1,18.5,34.4,18.5,34
		z M19.2,34.6"/>
</g>
<path fill="#7E0101" d="M20.8,35.9c0.1-0.6,0.1-1.2,0.3-1.8c0.1,0.7,0.1,1.5,0.1,2.2c-0.7,0.1-1.5,0.3-2.2,0.2
	C19.5,36.2,20.2,36,20.8,35.9z"/>
<path fill="#BE4141" d="M27.7,34c0.4,0,1.2,0,1.7,0l0,0.6c-0.3,0.1-0.8,0.2-1.1,0.2c0.3,0,1,0,1.3,0c-0.2,0.3-0.5,1-0.7,1.3
	c-0.3-0.2-0.9-0.5-1.2-0.7C27.7,35.1,27.7,34.4,27.7,34z"/>
<path fill="#230801" d="M5,34.3c1.2-0.2,2.3,0.5,2,1.9c1-0.1,2.2-0.3,2.6,0.9c-0.8,0.5-1.8,0.5-2.8,0.5c0,0.2,0.1,0.7,0.1,0.9
	c1.6-0.1,3.5-0.7,4.7,0.8c-0.1,0.2-0.3,0.5-0.3,0.6c-1.3,0-2.6-0.6-3.9-0.5c0.5,1.2,2.4,0.5,2.5,2c-0.7,0.1-1.4,0.1-2.1,0.1
	c0,1.5,0.3,3.1-0.2,4.5c-1,0.8-1.8-0.6-2.4-1.1c0.3-0.1,0.8-0.2,1-0.3c0.1-1,0-2.1,0-3.1c-0.7,0.2-1.3,0.3-2,0.5
	c2.1,0.7,0,4-1.5,2.4c0.5-0.7,1-1.3,1.3-2.1c-0.3-0.1-0.9-0.4-1.2-0.5c0.4-1.7,3.2-0.2,3.6-2c-1.9,0.1-3.6,0.9-5.4,1.1
	c-0.1-0.3-0.2-0.9-0.2-1.2c1.4-0.4,2.8-0.3,4.2-0.9c0.1-0.2,0.2-0.5,0.3-0.7c-0.9,0-2.5,0.2-2.3-1.2c0.7-0.2,1.5-0.3,2.3-0.4
	C5.2,35.7,5.1,35,5,34.3z"/>
<path fill="#F7C0C0" d="M19.2,34.6"/>
<path fill="#E08780" d="M21.4,34.9c0.7,0.1,1.4,0.1,2.1,0.2c-0.5,0.1-1.4,0.3-1.8,0.4c0.5,0.1,1,0.2,1.5,0.2l0.2,0.1
	c0.1,0.6,0.2,1.2,0.3,1.7c-0.7,0-1.4,0-2.1,0.1c0,0.6,0,1.1,0,1.7c0.4,0.1,1.2,0.2,1.6,0.3c-0.8,0.3-1.6,0.6-2.5,0.8
	c0.1-0.2,0.2-0.7,0.3-1c-0.1-0.2-0.3-0.6-0.4-0.8c0.5-0.7,1.1-1.5,0.9-2.4C21.5,35.9,21.4,35.4,21.4,34.9z"/>
<path fill="#E1BAB6" d="M23.2,35.8c0.9,0.1,1.8,0.3,2.1,1.3c0.1-0.2,0.2-0.7,0.2-0.9c0.3,0,1,0,1.4,0c0.1,0.1,0.3,0.3,0.4,0.4
	l-0.4,0.2c0.2,0,0.5-0.1,0.7-0.1c0,0.2,0.1,0.5,0.1,0.7l0-0.6c0.7-0.2,1.4-0.3,2.1-0.5l0,0.7c-0.1,0.6-0.1,1.2-0.1,1.7
	c-0.2-0.5-0.4-1.1-0.6-1.6c-0.8,0.5-1.4,1.2-2,2c-0.2-0.7-0.4-1.3-0.7-1.9c-0.1,0.4-0.2,1.1-0.3,1.4c-0.6,0-1.1,0-1.7,0.1
	c0-1.1,0.2-2.4-1.1-2.8L23.2,35.8z"/>
<path fill="#ECEDF0" d="M18.4,37.5c0.7,0.2,1.4,0.3,2.1,0.5c-0.3,0-0.9,0.1-1.2,0.1c0.6,1.1,0.5,2.3,0.3,3.4c0.7,0.1,1.4,0.2,2,0.3
	c0.4-0.5,0.8-1,1.2-1.5C22.9,41,23,41.5,23,42c1.2-0.3,2.4,0.2,3.3,1c-0.7-0.3-1.4-0.7-2.1-0.9c-0.3,0.2-0.8,0.6-1,0.8
	c0.4,0.4,0.9,0.9,1.3,1.3c-0.5-0.2-1-0.4-1.5-0.5c0-0.3,0-0.9,0.1-1.3c-1.7-0.1-3.3-0.1-5,0c0,0.7,0.1,1.4,0.1,2.1
	c0.2,0.3,0.5,0.8,0.7,1.1c-0.3,0-1,0-1.3,0c0-1.1,0-2.2-0.1-3.2c0.3-0.1,1-0.2,1.3-0.2c-0.2-0.6-0.3-1.2-0.4-1.8
	C19.2,39.4,19,38.4,18.4,37.5z"/>
<path fill="#F2A2AA" d="M22.9,38.6c0.4-0.4,1.2,0.1,1,0.6C23.6,39.6,22.7,39.1,22.9,38.6z"/>
<path fill="#FA959A" d="M24.6,40c-0.3-0.7,0.7-1.1,1.2-0.7C25.6,39.8,25.1,40.1,24.6,40z"/>
<path fill="#DC1D14" d="M25.8,39.3c0.2,0.1,0.6,0.2,0.8,0.3c0.1,0.2,0.2,0.6,0.3,0.8l-0.2,0.1c-0.2,0.1-0.5,0.2-0.7,0.2
	c-0.4,0-0.8-0.1-1.2-0.2c0-0.1-0.1-0.4-0.2-0.6C25.1,40.1,25.6,39.8,25.8,39.3z"/>
<path fill="#FABEBF" d="M23.3,39.8"/>
<path fill="#BE4746" d="M27.7,40.5c0.3-0.3,0.6-0.6,0.9-0.8c0.6,0.5,1.3,0.9,1.3,1.8C29.2,41.1,28.4,40.8,27.7,40.5z"/>
<path fill="#F9EACA" d="M26,40.8c0.2-0.1,0.5-0.2,0.7-0.2c-1.1,1.5,1.7,1.2,2.1,2.3c-0.2,0-0.7,0-0.9,0c0.2,0.4,0.5,0.8,0.8,1.2
	l-0.3,0c-0.2,0-0.7-0.1-0.9-0.1c-0.1-1.2-1.1-2.1-1.9-2.9C25.6,40.9,25.8,40.8,26,40.8z"/>
<path fill="#7E0101" d="M26.7,40.5l0.2-0.1c0.1,0.2,0.2,0.6,0.3,0.7c0.6,0.3,1.2,0.6,1.8,0.8c0,0.8,0,1.7,0,2.5
	c-0.1-0.2-0.3-0.5-0.5-0.6c-0.3-0.4-0.5-0.8-0.8-1.2c0.2,0,0.7,0,0.9,0C28.4,41.8,25.6,42,26.7,40.5z"/>
<path fill="#F9BABA" d="M20.5,41c0.5-0.4,0.8-0.3,1,0.2C20.9,41.6,20.6,41.5,20.5,41z"/>
<path fill="#7E0101" d="M17.5,42l0.1,0.4c0.1,1.1,0.1,2.2,0.1,3.2c0.3,0,1,0,1.3,0c-0.2-0.3-0.5-0.8-0.7-1.1l0,0
	c0.8,1,2.1,1.2,3.3,1.4l-0.1,0.3c-1.3-0.5-2.7-0.4-4.1-0.3C17.5,44.6,17.5,43.3,17.5,42z"/>
<path fill="#F6AEB0" d="M18.9,43c0.7,0,1.5,0,2.2,0.1c0,0.6,0,1.2-0.7,1.3c0.1-0.2,0.3-0.7,0.4-0.9c-0.6,0-1.3,0.1-1.9,0.1L18.9,43z
	"/>
<path fill="#E99D9B" d="M21.7,43.5c0.7-0.2,0.9,0,0.7,0.7C21.7,44.4,21.5,44.2,21.7,43.5z"/>
<path fill="#FBBEC2" d="M25.2,43.5"/>
<path fill="#E6B0AF" d="M18.4,44.5c0.2-0.1,0.5-0.2,0.7-0.2c0.6,0.2,1.2,0.4,1.8,0.7c0.3-0.1,0.7-0.2,1-0.3
	c-0.1,0.3-0.2,0.9-0.3,1.2C20.4,45.7,19.2,45.5,18.4,44.5z"/>
<path fill="#F8E0E3" d="M24.7,44.7c0.9,0.1,1.8,0.4,2.7,0.3l0.3,0l0.2,0c0.6,0,1.2-0.1,1.9-0.3c0,0.2-0.1,0.6-0.1,0.8
	c-1.5-0.1-3,0-4.5-0.1C25,45.2,24.8,44.9,24.7,44.7z"/>
<path fill="#A85E5E" d="M27.6,45c0,0,0.1,0,0.1,0h0L27.6,45z"/>
</svg>
