<?xml version="1.0" encoding="utf-8"?>
<!-- Generator: Adobe Illustrator 18.1.1, SVG Export Plug-In . SVG Version: 6.00 Build 0)  -->
<svg version="1.1" id="图层_1" xmlns="http://www.w3.org/2000/svg" xmlns:xlink="http://www.w3.org/1999/xlink" x="0px" y="0px"
	 viewBox="0 0 91.2 27.9" enable-background="new 0 0 91.2 27.9" xml:space="preserve">
<g>
	<path fill="#113631" d="M85.2,0.4C88.1-1,91.9,1.7,91.1,5c-0.6,3.5-5.8,4.4-7.7,1.5C81.8,4.5,82.9,1.3,85.2,0.4z M86.1,0.9
		C83.9,1.2,82.7,4.2,84,6c1,1.7,3.3,1.7,5,1.1c1.2-1.1,1.9-3,1-4.5C89.3,1.1,87.6,0.6,86.1,0.9z"/>
</g>
<path fill="#FAA904" d="M11.2,2.7c1.1-1.1,2.3-2.5,4-2.2c1.8,0.7,3,2.4,4.2,3.8c1.2,1.5,2.7,2.7,3.9,4.2c-5.5-0.5-11.1,0.1-16.2,2.2
	c-2.5,1.1-4.9,2.6-7.2,4.2c0.6-2.3,2.7-3.7,4.2-5.3C6.5,7.2,8.9,5,11.2,2.7z"/>
<path fill="#02603E" d="M23.1,0.8c1-0.8,2.3-0.3,3.1,0.5c4,3.5,7.6,7.4,11.4,11c0.9,0.8,1.5,2.2,0.5,3.1c-3.8,3.9-7.8,7.7-11.7,11.6
	c-0.8,0.9-2.2,1.4-3.2,0.6c-1.4-1.1-2.5-2.4-3.7-3.6c-2.6-2.6-5.3-5-7.8-7.7c5.3-1.9,11.2-2.3,16.8-0.9c1.3,0.4,2.7,0.9,4.1,1
	c0.2,0.1,0.7,0.4,0.9,0.5c-1.4-1.8-4-1.6-5.7-3c1.7,0.2,3.2,0.8,4.8,1.3c0.8,0.5,1.6,1,2.4,1.4c0.4-0.2,0.8-0.4,1.2-0.7
	c-0.5,0-1.4,0.1-1.9,0.1c0.6-0.6,1.2-1.2,1.8-1.8c-0.8,0.7-1.5,0.8-2.2-0.2l1.2-0.1c-0.2-0.4-0.4-0.7-0.6-1c-1.3,0.2-2.7,1-4,0.2
	c0.9-0.3,1.8-0.6,2.7-0.9c0-0.1-0.1-0.3-0.2-0.4c-1.6,0.4-3.3,1.6-4.9,0.5c0.7-0.1,1.4-0.1,2.2-0.2c0.4-0.4,0.9-0.8,1.3-1.3
	c-1.8,0-3.3,1.5-5,1c0.9-0.5,2.5-0.3,2.9-1.6c-1.1,0.1-2,0.5-3.1,0.8c0.5-0.8,1.1-1.5,1.8-2.1c-0.4,0.2-1.2,0.7-1.5,0.9
	c-1.4-0.1-2.9-0.1-4.1-0.8c0.5-0.1,1.6-0.2,2.1-0.2c-0.5-0.1-1-0.3-1.4-0.4c-1.2-1.5-2.7-2.7-3.9-4.2C20.6,3.1,21.7,1.8,23.1,0.8z"
	/>
<g>
	<path fill="#113631" d="M85.1,1.4C86.3,1.4,88,1,88.6,2.3c0.3,0.8-0.2,1.6-0.8,2.1c0.3,0.7,1.2,1.3,1.1,2.1c-0.1,0-0.4,0.1-0.5,0.1
		c-0.7-0.8-1.2-1.8-2.2-2.3c-0.3,0.8,0.4,2.4-1,2.4C85.1,4.9,85.1,3.2,85.1,1.4z M86.1,1.9c0,0.7,0,1.3,0,2c0.9,0,1.6-0.4,1.9-1.3
		C87.4,2.4,86.7,2.1,86.1,1.9z"/>
</g>
<path fill="#AF9A97" d="M18,8.8c0.7,0.2,2.1-0.6,2.2,0.5C19.4,9.8,18.2,9.9,18,8.8z"/>
<g>
	<path fill="#113631" d="M46.3,10c1.1,0,2.1,0,3.2,0c0,0.3,0,0.8-0.1,1.1c1.3,0,2.5,0,3.8,0c0,0.7,0,1.4,0,2.1c-0.3,0-1,0-1.3,0
		c0,0.6,0,1.2,0,1.8c0.3,0,0.9,0,1.2,0c0,0.8,0,1.6,0,2.4c-1.3,0-2.5,0-3.8,0l0,0.7c1.3,0,2.5,0,3.8,0c0,0.4,0,1.3,0,1.7
		c-0.2,0.1-0.6,0.4-0.7,0.5c0,0.6,0,1.3,0,1.9c0.8,0.8,0.7,2,0.9,3c0.5-1.5,0.3-3.1,0.3-4.7c0-3.1,0-6.2,0-9.3c3,0,6,0.1,8.8-0.8
		c0,0.8,0,1.6,0,2.3c-1.9,0.1-3.7,0.3-5.6,0.5c0,0.8,0,1.6,0,2.4c1.9,0,3.8,0,5.8,0c0,0.7,0,1.4,0,2.2c-0.4,0-1.1,0-1.5,0
		c0,3.2-0.1,6.3,0,9.4c-1,0-2,0-3,0c0-3.1,0.2-6.2-0.1-9.3c-0.2-0.1-0.7-0.2-1-0.2c0.3,3.6-0.7,7.5-3.9,9.6
		c-0.7-1.3-1.8-2.2-2.6-3.4c-0.9-1.2,0.2-3.1-1-4.2c-0.2,2.5-0.1,5-0.1,7.5c-1,0-2,0-3,0c0-2.3,0.2-4.6-0.1-6.8
		c-0.3,1.2-0.3,2.5-1,3.5c-0.8,1.2-1.9,2.1-3.1,2.7c-0.2-2.3,1.4-4.3,1.3-6.6c-0.3,0-0.9,0-1.2,0c0-0.6,0-1.3,0-1.9
		c1.4,0,2.8,0,4.2,0c0-0.2,0.1-0.4,0.2-0.6c-1.4-0.1-2.9,0-4.3-0.1c0-0.8,0-1.6,0-2.3c0.4,0,1.1,0,1.5,0c-0.1-0.6-0.1-1.2-0.2-1.8
		c-0.3,0-1,0-1.3,0c0-0.7,0.1-1.4,0.1-2.1c1.3,0,2.7,0,4,0C46.3,10.8,46.3,10.3,46.3,10z M46.6,15c0.8,0,1.6,0,2.5,0
		c0-0.6,0-1.2,0.1-1.8c-0.8,0-1.7,0-2.5,0C46.6,13.8,46.6,14.4,46.6,15z"/>
</g>
<path fill="#113632" d="M74,10c1.2,0,2.5,0,3.7,0c-0.1,0.4-0.2,0.8-0.3,1.2c3,0,6,0,9.1,0c0,1.3,0,2.7,0,4c-1.1,0-2.3,0-3.4,0
	c0-0.7,0-1.3,0-2c-2.1,0-4.1,0-6.2,0c-1.4,2.1-3.1,4.1-5.3,5.5c0,2.1,0,4.3,0,6.4c1.1,0.1,2.2,0.1,3.3,0.1c0,0.6,0,1.3,0,1.9
	c-1.6,0-3.2,0-4.8-0.1c-1,0-1.9-0.9-1.9-1.9c-0.1-1.6,0-3.2-0.1-4.8c-0.6,0.2-1.2,0.4-1.8,0.7c0-0.7,0-1.4,0-2.1
	c2.8-1.1,5.2-3.2,6.6-5.9c-1,0-2.1,0-3.1,0c0,0.7,0,1.4-0.1,2.1c-1.1,0-2.3,0-3.4,0c0-1.4,0-2.7,0-4.1c2.5,0,5,0,7.5,0
	C73.9,10.8,73.9,10.4,74,10z"/>
<path fill="#29644F" d="M31.7,14.1c0.5-0.4,1.2-0.6,1.9-0.6c0.1,0.3,0,0.5-0.3,0.7c-0.1,0.1-0.4,0.3-0.5,0.4
	C32.4,14.7,31.8,14.5,31.7,14.1z"/>
<path fill="#FBA903" d="M5.3,19.7c1.9-1.4,4.1-2.6,6.3-3.4c2.5,2.7,5.2,5.1,7.8,7.7c-1.6,1.4-2.7,4.1-5.2,3.7
	c-1.1-0.1-1.7-1-2.5-1.7C9.6,23.9,7.4,21.8,5.3,19.7z"/>
<path fill="#123834" d="M83.2,16.3c1.1,0,2.1,0,3.2,0c-0.3,3.1-3.2,5.3-6.2,5.6c0.8,1,1.5,2.1,2.7,2.7c1.1,0.6,2.3,0.6,3.5,0.6
	c0,0.6,0,1.3,0,1.9c-2.7,0-5.9,0.3-7.8-2c-2-2.6-2.4-6.1-3.8-9c1.2,0,2.4,0,3.6,0.1c0.4,1.3,0.8,2.5,1.3,3.7
	C81.5,19.5,82.5,17.9,83.2,16.3z"/>
</svg>
