<?xml version="1.0" encoding="utf-8"?>
<!-- Generator: Adobe Illustrator 18.1.1, SVG Export Plug-In . SVG Version: 6.00 Build 0)  -->
<svg version="1.1" id="图层_1" xmlns="http://www.w3.org/2000/svg" xmlns:xlink="http://www.w3.org/1999/xlink" x="0px" y="0px"
	 viewBox="0 0 84.2 23.1" enable-background="new 0 0 84.2 23.1" xml:space="preserve">
<g>
	<path fill="#0618B1" d="M1,0.1c0.8,0,1.7,0,2.5,0c0,0.3,0,0.9,0,1.2c0.3,0,0.9,0,1.1,0C4.7,0.9,4.8,0.4,4.9,0c0.8,0,1.6,0,2.5,0
		c0,0.4,0,1.1,0,1.4c0.5-0.3,0.8-0.7,1-1.2c2.7,0,5.4,0,8.1,0c0.1,2-0.2,4.1-0.9,6c0.3,0,0.8,0.1,1.1,0.1c0,2.5,0,5,0,7.4
		c0,0.9-0.1,2-0.9,2.6c-1,0.8-2.4,0.3-3.6,0.3c0-0.8,0-1.5,0-2.3c0.5,0,0.9-0.1,1.4-0.1c0.9-1.6,0.8-3.8,0-5.4
		c-0.3-0.1-0.9-0.3-1.1-0.4c0.1-2,0.5-3.9,0.9-5.8c-0.3,0-0.9,0-1.3,0c-0.5,4.2-0.4,8.5-0.7,12.7c-0.2,2.1,0.1,4.5-1.3,6.4
		c-0.4,0.7-1.2,0.7-1.9,0.9c-0.1-2,0-4,0-5.9c-1.4-0.1-3.3,0.3-4-1.3c-0.3,0.4-0.6,0.8-0.9,1.2c-1,0-2.1,0-3.1,0
		c0.8-1.1,1.6-2.2,2.4-3.4c-0.6-0.8-1.5-1.5-1.6-2.6c-0.1-2.3,0-4.5,0-6.8C0.7,4,0.2,3.7,0,3.6C-0.1,2.3,0.8,1.3,1,0.1z M7.5,4
		c-0.6,2.6-0.1,5.2-0.2,7.8c-0.4,0.6-0.9,1.1-1.4,1.6c0.8,1.1,1.6,2.2,2.4,3.3c0.1-4.6,0.3-9.3,0.8-13.9C8.5,3.2,8,3.6,7.5,4z
		 M3.7,10.6c0.2,0.1,0.6,0.2,0.8,0.2C5.1,8.6,4.6,6.3,4.8,4C4.5,4,3.9,3.9,3.6,3.8C3.2,6,2.9,8.5,3.7,10.6z"/>
</g>
<g>
	<path fill="#0717B1" d="M30.3,0.1c0.9,0,1.8,0,2.7,0c0,0.2,0.1,0.6,0.1,0.8c1.3,0,2.5-0.1,3.8-0.1c0.2,2.1-1.4,3.7-2.6,5.2
		c1.1,1.1,2.2,2.2,3.2,3.4c-1.6-0.1-3.7,0.5-4.8-1.1c-0.9,1.5-2.6,1.1-4.1,1.2c0,2,0.1,4-0.1,6c-0.1,0.9-1.1,1.4-2,1.4
		c-2.1,0.1-4.1,0-6.2,0c0-4.6,0-9.1,0-13.7c0.8,0,1.6,0,2.3,0c-0.1-0.2-0.2-0.7-0.2-0.9l-0.1-0.2c-0.5-0.4-1.1-0.7-1.7-1
		C23.2,0.9,25.6,0.8,28,1c-0.5,0.3-1.1,0.7-1.6,1l0,0.3c0,0.2-0.1,0.6-0.1,0.8c0.8,0,1.6,0.1,2.4,0.1C29.3,2.3,29.8,1.2,30.3,0.1z
		 M24.5,2.4c-0.4,0.5-0.3,0.8,0.3,0.9C25.1,2.8,25,2.5,24.5,2.4z M31.7,4c-1,0.1-2,0.1-3,0.2c0,1.4,0,2.8,0,4.3
		c0.8-0.6,1.4-1.4,2-2.2c-0.2-0.3-0.7-0.9-0.9-1.2c0.8,0.1,1.7-0.2,2.3-0.6c0.4-0.5,1-1,0.9-1.8C32.2,2.8,32,3.5,31.7,4z M22.7,11.7
		c1.2-0.1,2.4-0.1,3.6,0c0,0.5-0.1,1.5-0.1,2c-1.2,0-2.4,0-3.6,0c0,0.3,0,0.8-0.1,1c1.3,0,2.6,0,3.9,0c0-1.2,0-2.5,0.1-3.7
		c0.1-1.9,0-3.8,0.1-5.7l-0.5,0c0,2,0,3.9,0,5.9c-0.4,0-1.1,0-1.4,0.1C24.5,9,24.9,7,24.4,5c-0.4,0.8-0.8,1.7-1.5,2.2
		c-0.1-0.7-0.1-1.4-0.3-2.1C22.6,7.3,23.1,9.5,22.7,11.7z"/>
</g>
<path fill="#0614B1" d="M42.2,0.3c1.2-0.5,3,0,3,1.5c0.2,1.6-2,2.7-3.2,1.7C40.9,2.8,41,0.8,42.2,0.3z"/>
<path fill="#0614B3" d="M50.1,0.1c1.1,0,2.2,0,3.3,0c0,1.8,0,3.6,0,5.4c1.2,0,2.5-0.1,3.7,0c0.2,0.8-0.3,1.7-0.8,2.3
	c-0.9,0.4-2,0.1-2.9,0.2c-0.1,2.9,0.3,5.8-0.3,8.6l-0.2,0c-0.7-0.1-1.4-0.2-2.2-0.3c-0.2-2.7,0.2-5.5-0.1-8.2l-0.6,0
	c-1.3-0.1-2.6,0-3.9,0c0-0.8,0-1.7,0-2.5c1.3,0,2.6,0,3.9,0C50.1,3.7,50.1,1.9,50.1,0.1z"/>
<path fill="#0614B2" d="M61.1,0.1c1.1,0,2.2,0,3.3,0.1c0.2,1-0.6,2.7,0.8,3c0-0.8-0.8-1.8,0-2.5c0.7-1,3-0.8,3.1,0.6
	c0.1,0.7-0.5,1.2-0.7,1.8c0.5,0,1.1,0.1,1.6,0.1C69,4,68.7,4.7,68.5,5.5c-1.3,0-2.5,0-3.8,0v0.8c1.4-0.1,2.7-0.1,4.1,0
	C68,8,66.5,9.2,65.5,10.8c-0.1,1.2-0.2,2.6,0.7,3.5c1,0.3,2,0.3,3,0.2c-0.5,0.8-0.9,1.6-1.4,2.4c-1.4-0.1-2.9,0.1-4.2-0.5
	c-0.8-0.4-0.9-1.4-1.1-2.2c-1.1-0.1-2.1-0.1-3.2-0.1c1-1.2,1.9-2.5,2.9-3.7c-0.2-1.6-0.4-3.3-0.6-4.9c-0.7,0-1.4,0-2,0
	c0-0.8,0-1.6-0.1-2.4c0.6,0,1.2,0,1.8,0C61.2,2.1,61.2,1.1,61.1,0.1z"/>
<path fill="#0717B2" d="M72.9,0.1c1,0,2,0,3,0c0.1,4.3,0,8.6,0,12.9c0,1.2,0,2.7-1,3.5c-1.2,0.7-2.6,0.4-3.9,0.5c0-0.8,0-1.7,0-2.5
	c0.6,0,1.2,0,1.8-0.1C72.9,9.6,72.8,4.9,72.9,0.1z"/>
<g>
	<path fill="#21259B" d="M79.8,0.3c1.5-0.6,3.3,0.1,4,1.6c1.1,1.8-0.4,4.4-2.5,4.5c-1.4,0-2.9-0.8-3.3-2.2
		C77.4,2.7,78.3,0.8,79.8,0.3z M80.2,1.1c-1.6,0.3-1.7,2.7-0.6,3.7c0.6,0.8,1.8,0.5,2.7,0.6c-0.6-0.7-1.2-1.3-1.7-2
		c0-0.4,0.5-0.7,0.7-1.1c-0.3,0-0.9,0-1.2,0.1c0,0.8,0.2,1.7,0.7,2.4c-0.3,0-0.8,0-1.1,0c-0.1-1-0.8-2.4,0.3-3.1
		c0.7-0.7,1.6,0,2.4,0c0,0.7,0,1.5,0,2.2c0.2,0.3,0.5,0.5,0.7,0.8c0-0.8,0.2-1.7-0.1-2.5C82.5,1.2,81.2,0.6,80.2,1.1z"/>
</g>
<path fill="#0B1491" d="M20.4,0.3c2.7,0,5.5,0,8.2,0c-0.1,0.6-0.2,1.2-0.4,1.8c-0.6,0.1-1.2,0.2-1.8,0.3l0-0.3c0.5-0.4,1-0.7,1.6-1
	c-2.4-0.2-4.8-0.2-7.2,0.1c0.6,0.3,1.1,0.7,1.7,1l0.1,0.2c-0.7,0-1.4,0-2.1,0C20.4,1.7,20.3,1,20.4,0.3z"/>
<path fill="#0415B3" d="M69.6,0.9c0.9-0.1,1.9-0.1,2.9-0.1c0,3.9,0,7.9,0,11.8c-0.9,0.4-1.9,0.7-2.8,1C69.6,9.4,69.6,5.2,69.6,0.9z"
	/>
<path fill="#9199E7" d="M24.5,2.4c0.6,0.1,0.7,0.4,0.3,0.9C24.2,3.2,24.1,2.9,24.5,2.4z"/>
<path fill="#243698" d="M3.7,10.6C2.9,8.5,3.2,6,3.6,3.8C3.8,6.1,3.7,8.4,3.7,10.6z"/>
<path fill="#2F3AA0" d="M7.3,11.8C7.3,9.2,6.8,6.6,7.5,4C7.5,6.6,7.9,9.2,7.3,11.8z"/>
<path fill="#2D3294" d="M29.5,4.4c0.8-0.2,1.7-0.1,2.5,0c-0.6,0.4-1.5,0.7-2.3,0.6C29.7,4.9,29.5,4.6,29.5,4.4z"/>
<path fill="#0512B5" d="M40.8,4.9c1.5,0,3,0,4.5,0c-0.1,3.2-0.1,6.5,0,9.7c0.6-0.1,1.2-0.3,1.8-0.4c-0.4,0.9-0.9,1.9-1.4,2.8
	c-1.3,0-2.6-0.1-3.8-0.3c-0.1-3.1,0-6.3,0-9.4c-0.3,0-1-0.1-1.3-0.1C40.6,6.4,40.7,5.7,40.8,4.9z"/>
<path fill="#08139B" d="M22.9,7.2c0.8-0.6,1.2-1.4,1.5-2.2c-0.2,2-0.1,4-0.1,6c-0.4,0-1.1,0.1-1.4,0.1C23,9.8,23,8.5,22.9,7.2z"/>
<path fill="#7981EC" d="M26.1,5.2l0.5,0c0,1.9,0.1,3.8-0.1,5.7L26.1,11C26.1,9.1,26.1,7.1,26.1,5.2z"/>
<path fill="#070E9A" d="M50.1,8l0.6,0c0.3,2.7-0.1,5.5,0.1,8.2c0.7,0.1,1.4,0.2,2.2,0.3C52,17,51,17.1,50.1,17.2
	C50,14.1,50.1,11.1,50.1,8z"/>
<path fill="#060E93" d="M13.5,8.9c0.8,1.7,0.9,3.8,0,5.4C13.4,12.6,13.4,10.8,13.5,8.9z"/>
<g>
	<path fill="#0818B1" d="M29,9.9c2.6,0,5.2-0.1,7.8,0.2c0,1.5,0.1,3.1-0.1,4.6c-0.2,1.2-1.2,2.3-2.5,2.3c-1.8,0.1-3.5,0-5.3,0
		C29,14.6,29,12.2,29,9.9z M31.8,12c0,0.9,0,1.8,0,2.8c0.7,0,1.3,0,2-0.1c0-0.9,0-1.8,0-2.7C33.1,12,32.5,12,31.8,12z"/>
</g>
<path fill="#040D9E" d="M15.4,17.9c1.5-0.6,3,0.2,4.5,0.4l-0.2-0.5c0.4,0,1.1,0,1.5,0c0,0.6,0,1.2,0,1.9c0.5,0,1.1-0.1,1.7-0.1
	c0.1,0.7,0.1,1.4,0,2.1c0.2,0.1,0.6,0.2,0.8,0.2c0-1.2,0.8-2.5,2.1-2.2c1.1,0,1.1,2.4-0.1,1.4c-0.1-0.2-0.2-0.6-0.3-0.8
	c-0.8,0.3,0,1.4,0,2c0.4-0.1,1.3-0.2,1.7-0.2c-0.8,1.2-2.7,1.4-3.2-0.2c-0.3,0.2-0.6,0.4-0.8,0.6l0.3,0.6c-0.5,0-1,0-1.5,0
	c0-1,0-2-0.1-3c-1,0.7-0.5,2-0.6,3c-0.3,0-1,0-1.3,0c0.1-1.5,0.1-2.9,0.1-4.4c-0.3-0.1-0.8-0.2-1.1-0.3c0,0.3,0,0.9,0,1.2
	c-0.7-0.6-1.5-1.7-2.6-1.2c-1.2,1-1,3.2,0.3,3.9c1,0.3,1.8-0.4,2.7-0.7c-0.7,1.2-2.2,2-3.5,1.3C13.7,22.1,13.5,18.9,15.4,17.9z"/>
<path fill="#0610A1" d="M39,18.1c0.8-0.5,1.8-0.2,2.7-0.3c0,0.5,0,1,0,1.6c-0.6-0.6-1.2-1.1-2-1.1c0,1.7,2.8,1.5,2.4,3.3
	c-0.2,1.7-2.3,1.5-3.5,1c0-0.4,0-1.3,0.1-1.8c0.5,0.9,1.9,2.4,2.5,0.7c-0.7-0.5-1.5-0.9-2.2-1.5C38.2,19.6,38.5,18.6,39,18.1z"/>
<path fill="#0411A0" d="M46.2,17.8c0.5,0,1,0,1.5-0.1c0,0.6-0.1,1.2-0.1,1.9c0.5,0.1,1.3-0.3,1.6,0.3c0.5,0.9,0.2,2,0.3,3
	c-0.3,0-0.9-0.1-1.2-0.1c0-0.9,0-1.8-0.1-2.8c-1,0.7-0.5,2-0.6,3c-0.7-0.1-1.3-0.2-2-0.3c-0.9,0.5-2.4,0.5-2.7-0.7
	c-0.6-1.4,0.9-2.8,2.3-2.4c0.1,0.4,0.3,1.1,0.5,1.4c-0.5-0.3-1-0.6-1.5-0.9c-0.1,0.7-0.1,1.4,0,2c0.7,0.1,1.4,0.1,2.2,0.1
	C46.6,20.8,46.4,19.3,46.2,17.8z"/>
<path fill="#0818B1" d="M28.3,22.9c-1.6-0.6-1.2-3.1,0.4-3.4c0.9-0.3,1.6,0.5,1.6,1.4c-0.8,1.1-1.3-0.4-1.8-0.8
	c0.1,0.7,0.2,1.5,0.4,2.2c0.5-0.2,1.1-0.4,1.6-0.6C30.1,22.5,29.3,23.5,28.3,22.9z"/>
<path fill="#0818B1" d="M30.9,21.3c-0.2-1.2,0.8-2.2,2-1.7c0.1,0.3,0.4,0.9,0.5,1.3c-0.6-0.3-1.2-0.5-1.8-0.7
	c0.5,0.6,1.6,0.7,1.7,1.6c0.4,1.6-2.8,1.8-2.6,0.1c0.6,0.3,1.3,0.7,2,0.6C32.1,22,31.5,21.7,30.9,21.3z"/>
<g>
	<path fill="#0711A5" d="M51.3,19.7c0.9-0.5,1.9,0.4,2,1.3c-0.6,0.1-1.2,0.3-1.8,0.4c0.1,0.2,0.3,0.7,0.4,0.9
		c0.4-0.1,1.2-0.4,1.6-0.5c-0.4,0.8-1.4,1.7-2.4,1.1C49.8,22.3,50,20.2,51.3,19.7z M51.8,20.4"/>
</g>
<path fill="#051298" d="M54,19.7c0.8-0.1,1.6-0.2,2.3-0.2c0.3,0.3,0.7,0.5,1,0.8c0,0.9-0.1,1.8-0.1,2.6c-2.1,0.3-0.4-2.3-1.9-3.1
	c-0.1,1-0.1,2,0,2.9c-0.5,0-0.9,0-1.3,0C54.1,21.8,54,20.8,54,19.7z"/>
<path fill="#070996" d="M57.1,19.8c0.6-0.3,1.6-0.4,1.9,0.4c0.2,0.9,0.1,1.9,0.1,2.8c-0.3-0.1-0.8-0.2-1.1-0.2
	C57.9,21.7,58.2,20.5,57.1,19.8z"/>
<path fill="#232794" d="M34.6,19.6c0.3,0.3,0.6,0.5,1,0.8l-0.8,0.3c0.2,0,0.7,0.1,0.9,0.2c-0.1-0.4-0.2-1.1-0.2-1.5
	c0.7,0.4,1.2,0.9,1.5,1.7c-0.7,0.2-1.5,0.3-2.2,0.5c0.6,0.6,1.4,0.8,2.3,0.5c-0.5,0.8-1.6,1.5-2.5,0.9
	C33.2,22.1,33.7,20.4,34.6,19.6z"/>
<path fill="#303394" d="M60.5,19.5c0.4,0.5,0.8,1,1.2,1.5c-0.2-0.6-0.4-1.1-0.5-1.7c0.4,0.3,1.3,0.8,1.7,1.1c-0.2,0.9-1.3,0.8-2.1,1
	c0.2,0.3,0.5,0.6,0.7,0.8c0.5-0.2,1-0.4,1.4-0.5c-0.3,1.1-1.6,1.9-2.6,1C59.2,21.9,59.9,20.4,60.5,19.5z"/>
<path fill="#F0FCFF" d="M51.8,20.4"/>
</svg>
