<?xml version="1.0" encoding="utf-8"?>
<!-- Generator: Adobe Illustrator 18.1.1, SVG Export Plug-In . SVG Version: 6.00 Build 0)  -->
<svg version="1.1" id="图层_1" xmlns="http://www.w3.org/2000/svg" xmlns:xlink="http://www.w3.org/1999/xlink" x="0px" y="0px"
	 viewBox="0 0 105.3 26" enable-background="new 0 0 105.3 26" xml:space="preserve">
<g>
	<path fill="#E4020B" d="M11.8,0.1c3.2-0.5,6.4,1.4,7.8,4.2c0.8,1.8,3,2.1,4.2,3.5c2.5,2.8,2.6,7.4,0,10.2c-0.9,1-2.2,1.5-3.3,2.4
		c-1.1,1.1-1.5,2.7-2.8,3.7c-1.5,1.2-3.4,2.1-5.4,1.9c-2.3-0.2-4.6-1.5-5.9-3.5c-0.7-0.9-1.1-2.1-2.2-2.6c-1.9-0.9-3.5-2.7-4.1-4.7
		c-0.5-2.3-0.3-5,1.3-6.9c1.1-1.7,3.4-2,4.4-3.8C7.2,2.2,9.3,0.5,11.8,0.1z M12.6,4.4c1.7,0,3.4,0,5,0c-1.2-1.6-3-2.4-4.9-2.6
		C12.7,2.6,12.7,3.5,12.6,4.4z M8.1,4.3c0.8,0,1.7,0.1,2.5,0.1c0.1-0.7,0.1-1.5,0.2-2.2C9.7,2.6,8.8,3.4,8.1,4.3z M12.2,6.3
		c-0.2,0.5-0.3,1-0.5,1.5c3,0.3,6,0.1,9,0.2c-0.8-0.6-1.5-1.4-2.5-1.8C16.2,6.2,14.2,6.3,12.2,6.3z M5,7.8C6.5,8.1,8.1,8,9.7,8
		c0.2-0.6,0.3-1.2,0.5-1.7c-1-0.1-2-0.2-2.9-0.1C6.5,6.6,5.7,7.2,5,7.8z M11.1,9.7l-0.1,0c0,0.6-0.1,1.2-0.2,1.8c4.3,0,8.7,0,13,0
		c-0.3-0.8-0.5-1.9-1.6-1.7c-0.6-0.4-1.3-0.6-2-0.6c-2.3,0-4.6,0-6.9,0C12.6,9.3,11.7,9.1,11.1,9.7z M2.6,9.8
		c-0.2,0.6-0.4,1.1-0.6,1.7c2.2,0,4.4,0,6.7,0c0.2-0.6,0.4-1.1,0.6-1.7C7,9.8,4.8,9.9,2.6,9.8z M1.8,13.3c0.3,2,1.3,4.1,3.3,4.8
		c1-1.5,2-3,2.6-4.8C5.7,13.3,3.8,13.3,1.8,13.3z M9.2,15.1c2.4,0,4.7,0,7.1,0c0-0.4,0-1.3,0-1.8c-2.1,0-4.3,0-6.4,0.1
		C9.7,13.9,9.4,14.5,9.2,15.1z M18.4,13.3c0,0.4,0,1.3,0,1.7c1.8,0,3.6,0,5.3,0c0-0.4,0.1-1.3,0.2-1.7
		C22.1,13.3,20.2,13.3,18.4,13.3z M6.9,19.2c0.8,2.2,2.3,4.4,4.7,4.8c1.7,0.4,4.1,0.1,4.8-1.8c0.2-1.8,0-3.6,0-5.4
		c-2.8,0-5.6,0-8.5,0C7.6,17.6,7,18.3,6.9,19.2z M18.4,16.9c0,1-0.1,2-0.1,3.1c1.1-1.2,2.8-1.7,3.8-3C20.8,16.8,19.6,16.9,18.4,16.9
		z"/>
</g>
<path fill="#010101" d="M36.9,2.7c0.7,0.1,1.4,0.2,2.1,0.4c0,0.4-0.1,1.1-0.1,1.5c1.9,0,3.8,0,5.7,0c0-0.3,0.1-1,0.1-1.3
	c0.7,0,1.4,0,2,0c0,2.1,0,4.2,0,6.3c-0.7,0-1.4,0-2.1,0c0-0.9,0-1.8,0-2.7c-2.1,0-4.3,0-6.4,0c-0.6,2.5-2,4.6-4.1,6.2
	c0,2.4-0.1,4.8,0.1,7.2c2-1.3,3.7-2.9,5.5-4.5c-0.8-0.9-1.7-1.8-2.2-2.9c0.4-0.4,0.9-0.9,1.3-1.3c0.9,0.9,1.8,1.8,2.7,2.7
	c1.1-0.9,2.2-1.9,3.4-2.7c0.5,0.5,1,0.9,1.3,1.6c-1,1.1-2.2,1.9-3.3,2.9c1.4,1.8,3,3.5,4.4,5.3c-0.5,0.4-0.9,0.9-1.4,1.2
	c-0.5,0-0.7-0.5-1-0.8c-1.2-1.4-2.5-2.8-3.8-4.2c-2.3,1.8-4.5,3.9-7,5.4c-0.8-0.4-2.2-0.8-2.1-1.9c-0.1-2.3,0-4.6,0-6.9
	c-0.6,0.1-1.3,0.1-1.9,0.2c0-0.6,0-1.3,0-1.9c1.2-0.4,2.4-0.8,3.3-1.6c1.2-0.9,1.9-2.4,2.5-3.8c-1.3-0.1-2.5-0.1-3.8,0
	c0,0.9,0,1.8,0,2.6c-0.7,0-1.4,0-2.1,0c0-2.1,0-4.2,0-6.3c0.7,0,1.3,0,2,0c0,0.3,0,1,0.1,1.3c1.4,0,2.8,0,4.2,0
	C36.5,3.9,36.7,3.3,36.9,2.7z"/>
<path fill="#010101" d="M52.4,3.4c0.6-1,1.8-0.2,2.6,0.1c-1.7,2-3.2,4.5-5.9,5.2c-0.2-0.6-0.5-1.1-0.7-1.7C50,6.1,51.3,4.8,52.4,3.4
	z"/>
<path fill="#010101" d="M59.1,3.5c0.6-0.5,1.6-1.1,2.2-0.4c1.1,1.4,2.3,2.8,3.8,3.7c-0.1,0.7-0.3,1.3-0.7,1.9
	C62.1,7.6,60.4,5.6,59.1,3.5z"/>
<path fill="#020101" d="M73.9,3.7c0-1.3,1.3-0.9,2.2-0.9c0.1,0.2,0.2,0.7,0.3,0.9c1.7,0,3.5,0.1,5.2,0c0.2-0.1,0.6-0.4,0.8-0.6
	C82.5,3,82.9,3,83,2.9c0,0.9,0,1.8,0,2.6c-2.3,0-4.6,0-6.9,0l0,0.6c2.3,0,4.5,0,6.8,0c0,0.6,0,1.2,0,1.9c-5.3,0-10.7,0-16,0
	c0-0.6,0-1.2,0-1.9c2.3,0,4.7,0,7,0l0-0.7c-2.4,0-4.8,0-7.1,0c0-0.6,0-1.3,0-1.9C69.2,3.7,71.6,3.7,73.9,3.7z"/>
<g>
	<path fill="#010000" d="M86,2.9c0.8,0.1,2.2-0.5,2.4,0.8c3.6,0,7.3,0,10.9,0c0.1-0.2,0.3-0.6,0.4-0.8c0.7,0,1.3,0,2,0
		c-0.1,1.7,0.1,3.4-0.1,5.1c-0.1,1.4-1.4,2.5-2.7,2.4c-3.5,0-7,0-10.5,0c-1.3,0-2.3-1.2-2.4-2.4C85.9,6.3,86,4.6,86,2.9z M88.2,5.8
		c0,0.8,0,1.5,0.1,2.3c0.6,0.3,1.3,0.1,1.9,0.2c3.1-0.1,6.1,0.1,9.2-0.1c0-0.8,0.1-1.6,0.1-2.5C95.7,5.7,91.9,5.8,88.2,5.8z"/>
</g>
<path fill="#737372" d="M102.6,2.9c0.4,0,1.1-0.1,1.5-0.2c0.2,0.3,0.4,0.6,0.7,1c0-0.3,0.1-0.9,0.1-1.2c0.4,0.4,0.6,0.9,0.5,1.5
	c-0.1,1.2-1.1,0.3-1.3-0.2c0.1,0.3,0.3,0.9,0.5,1.2c-1.6,0.4-0.9-1.2-1.1-2c-0.1,0.4-0.3,1.1-0.4,1.5C102.8,4,102.7,3.4,102.6,2.9z"
	/>
<path fill="#010101" d="M59.9,8.1c0.2-0.2,0.7-0.6,1-0.8c0.9,0.9,1,2.2,1.7,3.2c0.8,1,1.7,1.8,2.7,2.7c-0.2,0.6-0.4,1.3-0.6,1.9
	c-2.1-1.1-3.6-2.9-5-4.6c-1.9-0.1-3.9,0-5.8,0c-0.9,2-2.8,3.3-4.4,4.7c-0.3-0.7-0.6-1.3-0.9-2c1.8-1.4,3.5-3.2,4-5.5
	C55,8.4,57.5,8.1,59.9,8.1z"/>
<path fill="#010101" d="M67,10.2c0.4-0.9,1.5-1.3,2.4-1.2c3.9,0,7.8,0,11.7,0c1-0.1,2,0.5,2.2,1.5c0.1,0.9,0.1,1.8,0.1,2.8
	c-0.6,0-1.3,0-1.9,0c0-0.8-0.1-1.6-0.1-2.4c-4.2,0-8.3,0-12.5,0c0,0.8,0,1.6,0,2.4c-0.7,0-1.3,0-2,0C66.8,12.2,66.7,11.2,67,10.2z"
	/>
<path fill="#C8080C" d="M11.1,9.7c0.6-0.7,1.5-0.5,2.2-0.5c2.3,0,4.6,0,6.9,0c0.7,0,1.4,0.2,2,0.6C18.5,9.8,14.8,9.9,11.1,9.7z"/>
<path fill="#010000" d="M100.1,11.5c0.8,0.1,1.4-0.6,2.1-0.9c0,0.9,0,1.9,0,2.9c-3.8,0-7.6,0-11.4,0c-0.2,0.5-0.3,1.1-0.5,1.6
	c2.7,0.1,5.4,0,8.1,0.1c2,0.1,3.6,2.1,3.2,4.1c-0.1,1.7-1.6,3.3-3.3,3.3c-3.2,0.1-6.4,0-9.6,0c0-0.7,0-1.4,0-2.1c3.4,0,6.8,0,10.2,0
	c0.8-0.9,1.1-2.5-0.2-3.2c-2.9-0.3-5.8-0.1-8.8-0.1c-0.1,0.3-0.4,0.8-0.6,1.1c-0.8-0.1-1.6-0.3-2.2-1c0.6-1.2,1-2.5,1.2-3.8
	c-1,0-2.1,0-3.1,0c0-0.7,0-1.4,0-2C90.1,11.5,95.1,11.4,100.1,11.5z"/>
<path fill="#010100" d="M69.6,11.5c3.6,0,7.3,0,11,0c0,0.6,0,1.2-0.1,1.8c-3.6,0-7.2,0-10.8,0C69.7,12.7,69.6,12.1,69.6,11.5z"/>
<g>
	<path fill="#010101" d="M52.3,14.2c2.8-0.1,5.7,0,8.5,0c1.1-0.1,2.4,0.7,2.5,2c0.1,1.4,0.1,2.9,0,4.4c0,1.3-1.3,2.1-2.5,2
		c-2.6,0-5.2,0-7.8,0c-1.2,0.1-2.5-0.7-2.5-2c-0.2-1.5-0.1-3-0.1-4.4C50.5,15,51.4,14.3,52.3,14.2z M52.8,16.3c-0.3,1.3-0.4,2.7,0,4
		c2.6,0.1,5.3,0.1,7.9,0c1-0.9,0.7-2.8,0.2-3.9C58.2,16.2,55.5,16.4,52.8,16.3z"/>
</g>
<g>
	<path fill="#010101" d="M67.4,18.1c-1.2-1.5-0.1-4.3,2-4.2c3.6-0.1,7.2,0,10.9,0c2-0.2,3.5,2.2,2.5,3.9c-0.4,0.9-1.4,1-2.2,1.3
		c0.2,0.5,0.4,0.9,0.6,1.4c0.7,0,1.3,0,2,0c0,0.6,0,1.3,0,1.9c-5.4-0.1-10.8,0-16.2,0c0-0.6,0-1.3,0-1.9c0.9,0,1.8,0,2.6,0
		c0.2-0.5,0.3-1,0.5-1.5C69.1,18.9,68,19,67.4,18.1z M69.5,15.8c-0.8,0-0.7,1.4,0.1,1.4c3.5,0.1,7.1,0.1,10.7,0.1c0.9,0,1-1.6,0-1.4
		C76.7,15.8,73.1,15.8,69.5,15.8z M71.9,20.5c2.3,0,4.6,0,6.9,0c-0.5-0.5-0.6-1.7-1.6-1.5c-1.5,0-3,0-4.6,0
		C72.4,19.5,72.2,20,71.9,20.5z"/>
</g>
<path fill="#EE020B" d="M12.1,22c-1.9-0.1-1.5-2.9-0.1-3.6c0.3,0.2,0.8,0.5,1.1,0.6C13.7,20.1,13.6,22,12.1,22z"/>
</svg>
