<?xml version="1.0" encoding="utf-8"?>
<!-- Generator: Adobe Illustrator 18.1.1, SVG Export Plug-In . SVG Version: 6.00 Build 0)  -->
<svg version="1.1" id="图层_1" xmlns="http://www.w3.org/2000/svg" xmlns:xlink="http://www.w3.org/1999/xlink" x="0px" y="0px"
	 viewBox="0 0 60 37.2" enable-background="new 0 0 60 37.2" xml:space="preserve">
<g>
	<path fill="#521B22" d="M42.9,1.5c1.2-1.2,3.1-1.8,4.7-1.4c1.1,0.4,0.5,1.7,0.8,2.6c0.8,0.5,1.9,0.8,2.4,1.6
		c0.8,1.1,2.1,1.6,3.2,2.2c1.8-0.7,2.8,1.2,3.7,2.5c0.8,1.8,1.5,3.9,0.9,5.9c-1.5,0.4-1.2,2.2-1.3,3.4c0.2,1.5-1.7,2.8-0.8,4.3
		c0.9,0.8,2.1,1.1,3.1,1.8c0.1,0.4,0.2,1.2,0.3,1.7c-1-1-3.1-2-3.9-0.1c-0.6,0-1.3,0-1.9,0c0,0.1,0,0.2,0,0.3
		c1.4,0.2,2.9,0.5,4.3,0.8c-0.5,0.2-1,0.4-1.5,0.6c-0.8-0.6-1.9-0.3-2.8-0.3c-1.5,0.1-2.8-0.9-4.2-1.3c-2.2-1.5-3.7-3.9-4-6.6
		c-0.4,0.3-0.9,0.8-1.5,0.5c-0.1,0.6-0.2,1.3-0.9,1.6c-0.3-1.2-0.4-2.5-1.3-3.5c-0.7,0.3-1.3,0.7-2,1c0.1-1.8-0.8-3.4-1.2-5.2
		c-0.2,0.4-0.7,0.8-0.6,1.3c0.4,1.9-0.4,4.1-2.1,5.1c-1,0.3-1.6-0.8-2-1.6c-0.9-1.6,0.2-3.3,0.4-5c-1,0.5-2.1,1-2.8,1.8
		c-1,1.3-1.2,3-1.5,4.6c-0.6,1-1.7,1.4-2.7,2c-0.8-1.1-1.7-2.3-1.5-3.7c-0.1-2,1.6-4.1,0.5-6c-2.2,1-3.8,3-4.8,5.1
		c0.7,0.2,1.5,0.2,2.3,0.2c-0.1,1.7-1,3.2-1.5,4.8c0.8-0.2,1.6-0.4,2.4-0.4c-2.1,1.4-4.9,1-6.9,2.5c0.8,0.2,1.6,0.4,2.4,0.5
		c-1.5,0-3.1,0-4.3-0.9c1.9-1.1,4.2-1.2,6.3-1.5l-0.1-0.3C21,22,19.4,22,17.8,21.9l-0.2-0.5c0.7-1.6,3.3-1.2,3.7-3
		c-0.9-0.4-1.7-1-2.1-1.8c0.7-0.9,1.9-0.7,2.8-1c1-0.8,1.5-1.9,2.2-2.9c0-0.3-0.1-0.8-0.1-1c1.1-1.5,2.6-2.8,3.4-4.5
		c0,0.3,0,1,0,1.3c0.8,0.2,1.8,0.3,2.2,1.1c0.8,2.1-0.8,4.2-0.2,6.3c1.1-0.9,2.3-1.8,2.9-3.2c0.6-1.2,1.8-2.1,3.1-2.6
		c1,0.4,1.9,1,2.8,1.7c0.8-2.3,1.4-4.7,2.1-7.1c0.3,0,0.9,0,1.2,0C42,3.6,42.3,2.5,42.9,1.5z M48.2,11.9c0.2,2.6,1,5,1.7,7.5
		c0.6-0.8,1.1-1.9,2.1-2.4c0.8-0.3,1.6-0.4,2.5-0.5c0.4-1.3,2-3.1,0.3-4c0-0.6,0-1.3,0-1.9c0.1,0.7,0.2,1.4,0.3,2
		c0.3,0,0.9-0.1,1.3-0.2c0.1-1.7-0.8-3.3-2.2-4.3c-1.5-1.6-3.7-1.9-5.6-2.5C48.3,7.7,48.1,9.8,48.2,11.9z M44.7,15.2
		c0.2,1.4,0.1,2.9,0.2,4.3c0.3-0.3,0.6-0.5,0.9-0.8c0-1.7-0.3-3.4-0.3-5.1c0-1.8,0.2-3.5-0.2-5.3C44.5,10.5,44.1,12.9,44.7,15.2z"/>
</g>
<path fill="#521B22" d="M31.6,3.6c1-0.5,2.1-0.7,3.3-0.7C33.9,3.7,32.7,3.5,31.6,3.6z"/>
<path fill="#AFA3A4" d="M35.3,3c1.3-0.2,2.6-0.3,3.9,0C37.9,3.4,36.6,3.4,35.3,3z"/>
<path fill="#521B22" d="M0,6.2c1.6-2.3,4.6-2.1,7.1-2.6c3.1-0.6,6.1,0.9,8.5,2.7c2.1,0.7,4.4,1.9,6.6,0.4c-0.5,0.4-1.4,1.3-1.9,1.8
	c2-0.7,3.9-2,6.1-2c-1.6,1.8-4.4,1.9-5.7,4.1c-0.8,1.6-2.5,2.5-4.3,2.5c-1.8-0.9-2.7-2.8-3.6-4.4c-2.4-2.2-6.3-2.7-9.2-0.9
	C3.2,8.6,4.4,9.2,5.1,9.5c1.6,0.3,3.2,0.9,4.7,1.7c-0.5,0-1.4,0-1.9,0c0.2,1.4,1.7,0.7,2.6,1.2c1.3,0.6,2.6,0.9,3.9,1.1
	c-0.5,0.8-1.4,1.3-2.2,1.8c-0.4-1.9-2.8-1.5-4.2-2c-1.3-1.4-3.2-1.8-4.8-2.7c-1.1,0.2-2.2,0-3.1-0.8c0.1-0.1,0.4-0.4,0.6-0.5
	C0.2,8.3,0.2,7.2,0,6.2z"/>
<path fill="#C7BEBE" d="M29.2,3.8c0.4-0.3,0.9-0.3,1.4-0.1C30.8,4.5,28.6,4.7,29.2,3.8z"/>
<path fill="#521B22" d="M26.8,4.8c0.5-0.2,1-0.5,1.6-0.7c-1,1-2.4,1.3-3.7,1.6C25.3,5.3,26,5,26.8,4.8z"/>
<path fill="#521B22" d="M33.9,5c1.3-0.4,2.7-0.5,4-0.3C36.8,5.4,34.9,6.4,33.9,5z"/>
<path fill="#521B22" d="M53.5,4.5c1.8,0.1,3.3,1.3,4.3,2.7C56.4,6.2,55,5.3,53.5,4.5z"/>
<path fill="#521B22" d="M28.5,6.2C29.6,5.4,31,5.2,32.3,5C31.1,5.7,29.8,6,28.5,6.2z"/>
<path fill="#C7C2C5" d="M23.6,5.4c0.7-0.4,1,0.7,0.2,0.8C23.2,6.6,22.9,5.5,23.6,5.4z"/>
<path fill="#5C2A31" d="M18.1,24.5c7.2,0.2,14.5-0.3,21.7-0.1c2.3,0.2,4.7,0,6.8,1c-0.7,1.5-2.9,0.7-4.2,1.1
	c0.1-0.2,0.2-0.6,0.2-0.8c-7.4-0.7-14.8-0.4-22.1-0.6C19.7,24.9,18.9,24.7,18.1,24.5z"/>
<path fill="#521B22" d="M14.2,26.9c9.4-0.8,18.8-1,28.3-1l0,0.5c-2.6-0.1-5.2,0.3-7.8,0.3c-6.8,0.3-13.7-0.3-20.5,0.7
	c0.4,0.4,0.8,1.1,1.5,1c10.8,0.1,21.5-0.1,32.3,0.1c0,0.1,0,0.4,0,0.5c-5.8-0.5-11.7-0.6-17.6-0.1c-4.9,0-9.8,0.1-14.7-0.1
	c-1-0.2-2.2,0-2.9-0.9C13,27.2,13.6,26.9,14.2,26.9z"/>
<g>
	<path fill="#501620" d="M2.5,32.4c0.7-0.7,1.3-1.5,1.9-2.2c1,1,2.5,1,3.7,1.7c-0.4,0.1-1.2,0.3-1.6,0.4c0.5,0.2,0.9,0.3,1.4,0.5
		c-0.1,0.9-0.1,1.8-0.1,2.7c-0.7,0.2-2.5-0.7-2,0.7c1.6,0.6,3.1-0.7,4.5-1.4l-1-0.2c0-0.2-0.1-0.7-0.1-0.9l0.8,0.8
		c0-1.2,0-2.5,0.1-3.7h0.8c0,0.9,0,1.8,0,2.8c0.1,0,0.2,0,0.2,0c0.1-1,0.2-2.1,1.5-1.8c0-0.2,0-0.7,0.1-0.9c0.9,0.1,1.7,0.1,2.6,0.3
		c0,0.3-0.1,0.9-0.1,1.2c-0.4,0.1-0.9,0.2-1.3,0.4c0.4,0,1.2,0,1.6-0.1c0,0.4,0,1.1-0.1,1.5c-0.5,0.1-1,0.1-1.5,0.2
		c0.4,0.1,1.1,0.2,1.5,0.2c-0.4,0.3-0.9,0.6-1.3,0.9c0.4,0,1.1,0,1.5,0c0,0.1,0,0.4,0,0.6c-0.3,0-1,0-1.3-0.1c0,0.3-0.1,1-0.2,1.4
		c-0.7-0.1-1.3-0.4-1-1.3l-0.5,0.4c0-0.4,0-0.9,0.1-1.3l0.6,0.1c-0.2-0.1-0.5-0.4-0.7-0.6c0.2-0.1,0.5-0.4,0.7-0.5
		c-0.4,0-1.3,0-1.8,0c0.2,0.2,0.5,0.7,0.7,0.9l-1,0.2c0.3,0.1,1,0.4,1.4,0.5c-0.4,0.3-0.7,0.5-1.1,0.8l0,0.7
		c-0.2-0.5-0.4-0.9-0.5-1.4c-1.9,0.4-3.6,1.9-5.7,1.3c-0.4-0.9-0.7-1.8-0.3-2.7c-0.3,0-0.7,0-1,0c0,0.7,0,1.4,0,2.1
		c-0.2,0-0.7-0.1-1-0.1c0-0.9,0-1.8,0-2.7c-0.2,0-0.4,0.1-0.6,0.1C2.4,33.3,2.4,32.7,2.5,32.4z M4.6,31.2c-0.3,0.5-0.5,0.9-0.8,1.4
		c0.8,0,1.6-0.1,2.3-0.1C5.6,32,5.1,31.6,4.6,31.2z M13.7,31.2 M11.9,32.5c0.5,0.3,0.9,0.3,1.4,0C13.4,31.9,11.9,31.8,11.9,32.5z
		 M5.9,33.2c-0.4,0.6,0.6,1.2,1,0.7C7.3,33.3,6.3,32.7,5.9,33.2z M12,33.1 M14.2,33 M4.1,33.4 M10.7,34.1c-0.4,0.5-0.3,0.8,0.3,0.9
		C11.4,34.4,11.3,34.1,10.7,34.1z M5.9,34.4c-0.2,0.7,1.2,0.7,1,0C6.6,34.4,6.1,34.4,5.9,34.4z"/>
</g>
<path fill="#C399A0" d="M13.7,31.2"/>
<path fill="#4D111E" d="M18.6,35.7c-1.7-0.9-1.3-3.9,0.6-4.4c1.7-0.5,4.3-0.6,4.9,1.5c-0.3,0-0.8-0.1-1.1-0.1
	c-0.8-0.8-2.2-1.2-3.2-0.5c-1.1,0.6-1.1,2.5,0,3.1c0.8,0.5,1.8,0.3,2.7,0.3c0-0.3,0-0.9,0-1.2c-0.3,0-1,0-1.3,0
	c-0.1-0.2-0.2-0.5-0.2-0.7c0.9,0,1.9,0,2.8,0c0,0.8,0,1.6,0,2.3C22.1,36.3,20.1,36.7,18.6,35.7z"/>
<path fill="#49101E" d="M24.9,31.3c0.3,0,1-0.1,1.4-0.2c0.3,1.4-0.7,3.4,0.7,4.3l0.6-0.1c0.1,0.2,0.4,0.7,0.5,1
	c-1.1-0.1-2.6-0.3-3.1-1.5C24.9,33.7,24.9,32.5,24.9,31.3z"/>
<path fill="#511120" d="M29.7,31.2c0.5,0,1,0,1.4,0c0,1.2,0.1,2.5-0.2,3.7c-0.3,1-1.3,1.2-2.1,1.5c-0.3-0.3-0.6-0.5-0.9-0.8
	C30.5,35.8,29.4,32.8,29.7,31.2z"/>
<path fill="#4D121D" d="M31.9,31.3c0.5,0,1-0.1,1.5-0.1c-0.1,1.7-0.1,3.4-0.1,5.1c-0.5,0-0.9,0-1.4-0.1C32,34.6,32,32.9,31.9,31.3z"
	/>
<path fill="#4A1322" d="M34.4,31.2c1.4,0,2.7,0,4.1,0l0,0.7c-0.9,0-1.8,0-2.7,0c0,0.4,0,0.9,0,1.3c0.9,0,1.8,0,2.7,0
	c-0.2,1.4-1.9,0.5-2.8,0.8c0,0.7,0,1.5,0,2.2c-0.5,0-0.9,0-1.4,0C34.3,34.6,34.3,32.9,34.4,31.2z"/>
<path fill="#4B121F" d="M39.1,31.2c1.6,0,3.2,0,4.9,0c-0.6,1.3-2.4,0.5-3.5,0.7c0,0.4,0,0.9,0,1.3c1,0,2.1,0,3.1,0
	c-0.5,1.3-2.2,0.5-3.2,0.7c0,0.4,0,1.1,0,1.5c1.2,0,2.4,0.1,3.5,0.2c-0.1,0.1-0.3,0.4-0.4,0.5c-1.5,0.1-3,0-4.5,0.1
	C39.2,34.6,39.1,32.9,39.1,31.2z"/>
<path fill="#4D0F1C" d="M44.8,31.2c0.7,0,1.3,0,2,0c1,1.4,1.8,2.9,2.9,4.3c0.1-1.4,0-2.8,0-4.3c0.3,0,1,0,1.3,0c0,1.7,0,3.4,0,5.1
	c-0.7,0-1.4,0-2.1-0.1c-0.9-1.4-1.8-2.8-2.8-4.2c0,1.4,0,2.8,0,4.2c-0.3,0-1,0-1.3,0C44.8,34.6,44.8,32.9,44.8,31.2z"/>
<path fill="#4F0E1B" d="M53.3,31.4c1.6-0.4,4.3-0.6,4.8,1.4c-0.3,0-0.9,0-1.2-0.1c-1-1.6-4-0.9-3.9,1.1c-0.1,1.9,3.5,2.8,3.8,0.7
	c-0.5-0.1-1-0.2-1.5-0.2c0-0.2-0.1-0.5-0.2-0.7c0.9,0,1.8,0,2.8,0c0,0.8,0,1.6-0.1,2.5c-1.7,0.1-3.6,0.6-5.1-0.4
	C51.1,34.7,51.4,31.9,53.3,31.4z"/>
<path fill="#020101" d="M9.1,32.2"/>
<path fill="#CFB5BA" d="M12,33.1"/>
<path fill="#FEFDFD" d="M14.2,33"/>
<path fill="#E9DBE2" d="M4.1,33.4"/>
</svg>
