<?xml version="1.0" encoding="utf-8"?>
<!-- Generator: Adobe Illustrator 18.1.1, SVG Export Plug-In . SVG Version: 6.00 Build 0)  -->
<svg version="1.1" id="图层_1" xmlns="http://www.w3.org/2000/svg" xmlns:xlink="http://www.w3.org/1999/xlink" x="0px" y="0px"
	 viewBox="0 0 69.3 40.6" enable-background="new 0 0 69.3 40.6" xml:space="preserve">
<path fill="#A5A5A6" d="M28.4,1c1.9-0.8,4.1-0.8,6.1-1c2.2,0,4.5,0.1,6.5,1C37,2.1,32.5,2.2,28.4,1z"/>
<path fill="#D3D2D3" d="M21.7,9.5c0.1-3.9,2.9-7.3,6.5-8.6L28.4,1c4.1,1.3,8.5,1.1,12.6,0c3.1,0.8,5.5,3.5,6.3,6.5
	c0.6,2.4,1,4.9,0.3,7.3c0-0.6,0-1.3,0-1.9c0-0.9-0.1-1.7-0.2-2.5c-0.4,1.2-1,2.2-1.7,3.3c0-1.2,0-2.4-0.1-3.6
	c0.5-0.7,1.1-1.5,0.9-2.5c-0.3-2-1.7-3.5-3.2-4.7c-1.2-1-2.8-0.6-4.3-0.7C35,2.4,30.7,1.9,26.5,2.8c-1.7,0.4-2.6,2.1-3.3,3.5
	c-1,2-0.6,4.3-0.6,6.4C22.3,11.7,21.9,10.6,21.7,9.5z"/>
<path fill="#FBFBFB" d="M26.5,2.8c4.2-0.9,8.4-0.5,12.7-0.6c1.4,0.1,3.1-0.3,4.3,0.7c1.5,1.2,2.9,2.8,3.2,4.7
	c0.2,0.9-0.5,1.7-0.9,2.5C45.3,8,44.3,6,42.4,4.8c-3.2-2.2-7.4-1.7-11-1.5c-4.1,0.1-7.5,3.5-7.8,7.5c-0.2,1.1-0.5,2.3-0.9,3.4
	c-0.1-0.4-0.2-1-0.2-1.4c0.1-2.1-0.4-4.4,0.6-6.4C23.9,4.9,24.8,3.2,26.5,2.8z"/>
<path fill="#160302" d="M31.4,3.3c3.7-0.1,7.8-0.6,11,1.5c1.8,1.2,2.9,3.2,3.3,5.3c0.1,1.2,0.1,2.4,0.1,3.6c0,0.1-0.1,0.4-0.1,0.5
	c-0.1,0.6-0.3,1.3-0.4,1.9c-0.1-2,0.1-4.1-0.4-6.1c-0.5-1.9-2-3.5-3.6-4.6c-3.5-1.6-7.5-1.7-11.2-1C27.3,5,25,7.4,24.5,10.1
	c-0.3,1.3-0.3,2.7-0.1,4.1c0,0.4-0.1,1.3-0.1,1.7c-0.6-1.6-0.6-3.4-0.6-5.1C23.9,6.8,27.3,3.3,31.4,3.3z"/>
<path fill="#9F0203" d="M30.1,4.5c3.7-0.7,7.7-0.6,11.2,1c1.7,1.1,3.1,2.7,3.6,4.6c0.1,2.1,0.1,4.3-0.3,6.4l0,0.3
	c-0.2-2-0.3-3.9-0.8-5.8C43,12,42.5,13.2,42,14.5c-0.1-0.1-0.3-0.4-0.4-0.6c0.2-1.7,1.6-3.6,0.3-5.1c-0.2-0.1-0.7-0.2-0.9-0.3
	c-0.3,0-0.9-0.1-1.1-0.1c0.6-0.2,1.1-0.4,1.7-0.6c0-0.2,0-0.5-0.1-0.7c-1.1-0.7-2.3-1.4-3.6-1.5C34.6,5.1,30.9,4.9,28,7
	c0,0.4,0,0.7,0,1.1c0.7,0.2,1.4,0.3,2.1,0.6c0.1,0.1,0.4,0.4,0.5,0.5c-1.2-0.3-2.7-0.9-3.6,0.2c-0.7,0.6-0.1,1.6-0.1,2.3
	c-0.3,0-0.9-0.1-1.1-0.1c-0.9,4,0.4,8.4,3.7,10.9c1.8,1.4,4.1,1.2,6.2,1.5c0.3,0.1,0.9,0.2,1.2,0.2c-2.9,0.1-6.4,0.4-8.7-1.8
	c-0.6-0.5-1.2-1.1-1.7-1.8c-1.4-1.9-1.7-4.3-2.1-6.5c-0.1-1.4-0.2-2.8,0.1-4.1C25,7.4,27.3,5,30.1,4.5z"/>
<path fill="#EC0101" d="M28,7c2.9-2.1,6.6-1.9,10-1.5c1.3,0.1,2.5,0.9,3.6,1.5c0,0.2,0.1,0.5,0.1,0.7c-0.6,0.2-1.1,0.4-1.7,0.6
	c-0.7,0.2-1.2,0.8-1.7,1.4c-0.8-0.4-1.6-0.8-2.4-1.2C35,8.2,34,8.4,33.2,8.8c-0.6,0.3-1.3,0.7-1.9,1c-0.2-0.2-0.5-0.5-0.7-0.7
	c-0.1-0.1-0.4-0.4-0.5-0.5c-0.7-0.2-1.4-0.4-2.1-0.6C28,7.7,28,7.4,28,7z"/>
<path fill="#ECEDF0" d="M33.2,8.8C34,8.4,35,8.2,35.8,8.5c1.8,1.5,0.3,3.9,0.2,5.7c1.9-0.6,1.5-3,2.2-4.6c0.4-0.6,1-1.1,1.7-1.4
	c0.3,0,0.9,0.1,1.1,0.1c-0.8,0.6-2,1-2.3,2c-0.8,3.3-1.3,6.6-2,9.9c-0.2-0.1-0.6-0.3-0.8-0.4c-0.1-1.6,0.6-3.1,1.1-4.5
	c-0.3-0.1-1-0.3-1.4-0.4c-0.6,1.7-0.8,3.6-1.5,5.2c-0.8,1-2.2,0.5-3.2,0.2c-0.1-0.1-0.3-0.3-0.3-0.4c-0.6-1.8,0.2-3.6,0.6-5.3
	C31.9,12.8,32.1,10.6,33.2,8.8z"/>
<path fill="#A2151C" d="M35.8,8.5c0.8,0.4,1.6,0.8,2.4,1.2c-0.7,1.5-0.3,4-2.2,4.6C36.2,12.4,37.6,10,35.8,8.5z"/>
<path fill="#BFBEC1" d="M41.1,8.5c0.2,0.1,0.7,0.2,0.9,0.3c-1.5,1.7-1.6,4-2.2,6.1c-0.4,1.9-1.4,3.9-0.5,5.9c-0.9,0.2-1.7,0-2.5-0.4
	c0.7-3.3,1.3-6.6,2-9.9C39.1,9.4,40.2,9,41.1,8.5z"/>
<path fill="#E3E2E6" d="M26.9,9.3c1-1.1,2.5-0.5,3.6-0.2c0.2,0.2,0.5,0.5,0.7,0.7c-0.8,2.4-0.8,5.1-2.1,7.2
	c-1.1-1.5-1.5-3.4-2.2-5.1c0-0.1-0.1-0.3-0.1-0.4C26.8,10.9,26.2,9.9,26.9,9.3z"/>
<path fill="#990F0D" d="M31.3,9.9c0.6-0.3,1.3-0.7,1.9-1c-1.1,1.8-1.3,4-1.9,5.9c-0.4,1.7-1.3,3.5-0.6,5.3c-0.1-0.1-0.3-0.4-0.4-0.5
	c-0.2-0.5-0.4-1.1-0.5-1.6c-2.1-1.1-2.6-3.7-2.7-5.8c0.7,1.7,1.1,3.5,2.2,5.1C30.5,14.9,30.4,12.3,31.3,9.9z"/>
<path fill="#A1A0A2" d="M41.9,8.7c1.3,1.5-0.2,3.5-0.3,5.1c-0.5,1.8-0.8,3.6-1.3,5.4c-0.2,0.5-0.3,1.1-0.8,1.4l-0.3,0
	c-0.8-2,0.1-4,0.5-5.9C40.3,12.8,40.4,10.4,41.9,8.7z"/>
<path fill="#8A8D93" d="M21.7,9.5c0.3,1.1,0.6,2.2,0.8,3.3c0.1,0.4,0.2,1,0.2,1.4c0.1,0.6,0.2,1.3,0.4,1.9c-0.2-0.1-0.5-0.3-0.7-0.5
	c0,0.7-0.1,1.5-0.1,2.2C21.3,15.2,21.4,12.3,21.7,9.5z"/>
<path fill="#7B8283" d="M44.9,10c0.4,2,0.3,4.1,0.4,6.1c0.2-0.6,0.3-1.3,0.4-1.9c0.1,0.3,0.2,0.8,0.2,1.1c0.6-0.8,1.2-1.6,1.7-2.4
	c0,0.6,0,1.2,0,1.9c0,0.2-0.1,0.7-0.1,1c-0.4,0-0.8,0.1-1.2,0.1c-0.3,0.7-0.5,1.4-0.8,2.1c-0.1,0.3-0.3,0.9-0.4,1.2
	c-0.3-0.9-0.5-1.9-0.6-2.8C45.1,14.3,45.1,12.2,44.9,10z"/>
<path fill="#A5A6A9" d="M47.5,10.4c0.1,0.8,0.1,1.7,0.2,2.5c-0.6,0.8-1.1,1.6-1.7,2.4c-0.1-0.3-0.2-0.8-0.2-1.1
	c0-0.1,0.1-0.4,0.1-0.5C46.5,12.7,47,11.6,47.5,10.4z"/>
<path fill="#B3AEB2" d="M22.7,14.2c0.4-1.1,0.7-2.2,0.9-3.4c0,1.7,0,3.5,0.6,5.1c0-0.4,0.1-1.3,0.1-1.7c0.4,2.2,0.7,4.6,2.1,6.5
	c-0.5-0.6-1.2-0.9-1.9-1.1c-0.1-0.4-0.3-0.7-0.4-1.1c-0.3-0.8-0.6-1.6-0.9-2.4C23,15.5,22.8,14.8,22.7,14.2z"/>
<path fill="#DB0201" d="M42,14.5c0.5-1.2,0.9-2.5,1.7-3.6c0.5,1.9,0.6,3.9,0.8,5.8c-0.3,3.9-3.8,7.4-7.7,7.5
	c-0.3-0.1-0.9-0.2-1.2-0.2c1.1-0.5,2.1-1,3.1-1.7c-0.5-0.4-1-0.8-1.5-1.2c0.7-0.2,1.6,0,2.3-0.4c0.5-0.3,0.6-0.9,0.8-1.4
	c0.5-1.8,0.8-3.6,1.3-5.4C41.7,14,41.9,14.3,42,14.5z"/>
<path fill="#EB0101" d="M25.7,11.6c0.3,0,0.9,0.1,1.1,0.1c0,0.1,0.1,0.3,0.1,0.4c0.2,2.1,0.7,4.7,2.7,5.8c0.2,0.5,0.3,1.1,0.5,1.6
	c0.1,0.1,0.3,0.4,0.4,0.5c0.1,0.1,0.3,0.3,0.3,0.4c0.7,0.8,1.8,1.3,2.8,0.8c0.6-0.4,1-1.1,1.4-1.7c0.2,0.1,0.5,0.2,0.7,0.4
	c0.2,0.1,0.6,0.3,0.8,0.4c0.8,0.4,1.6,0.6,2.5,0.4l0.3,0c-0.7,0.4-1.5,0.2-2.3,0.4c0.5,0.4,1,0.8,1.5,1.2c-1,0.7-2.1,1.2-3.1,1.7
	c-2.1-0.3-4.5-0.1-6.2-1.5C26.1,20,24.8,15.5,25.7,11.6z"/>
<path fill="#901511" d="M34.2,20.2c0.7-1.7,0.9-3.5,1.5-5.2c0.3,0.1,1,0.3,1.4,0.4c-0.5,1.5-1.2,2.9-1.1,4.5
	c-0.2-0.1-0.5-0.3-0.7-0.4c-0.5,0.6-0.8,1.2-1.4,1.7c-1,0.5-2.2,0-2.8-0.8C32,20.7,33.4,21.2,34.2,20.2z"/>
<path fill="#43403D" d="M22.4,15.7c0.2,0.1,0.5,0.3,0.7,0.5c0.3,0.8,0.7,1.6,0.9,2.4c-0.4,0.3-0.8,0.6-1.2,0.8l-0.1,0.1
	c-0.1-0.5-0.3-1-0.4-1.6C22.3,17.1,22.4,16.4,22.4,15.7z"/>
<path fill="#494745" d="M46.4,16c0.4-0.1,0.8-0.1,1.2-0.1c-0.3,1.2-0.5,2.4-0.9,3.5c-0.4-0.5-0.7-0.9-1.1-1.3
	C45.9,17.3,46.1,16.6,46.4,16z"/>
<path fill="#D6C8CD" d="M44.6,16.7l0-0.3c0,1,0.3,1.9,0.6,2.8c-0.8,2-2.1,4-4.1,5c-1.2,0.5-2.4,0.6-3.6,0.9
	c-2.6,0.7-5.4,0.1-7.9-0.5c-2.4-0.7-4.2-2.7-5.1-5.1c0.7,0.3,1.4,0.6,1.9,1.1c0.5,0.6,1.1,1.2,1.7,1.8c2.3,2.1,5.8,1.9,8.7,1.8
	C40.8,24.1,44.2,20.6,44.6,16.7z"/>
<path fill="#030101" d="M45.6,18c0.4,0.4,0.7,0.9,1.1,1.3c-1.1,2.8-3,5.5-6,6.5c-3.4,1.1-7.1,1-10.6,0.4c-3.6-0.6-6.2-3.7-7.3-7
	c0.4-0.3,0.8-0.6,1.2-0.8c0.1,0.4,0.3,0.7,0.4,1.1c0.8,2.3,2.6,4.4,5.1,5.1c2.6,0.6,5.3,1.1,7.9,0.5c1.2-0.3,2.5-0.5,3.6-0.9
	c2-1,3.3-3,4.1-5C45.3,18.9,45.5,18.3,45.6,18z"/>
<g>
	<path fill="#EF0202" d="M10.6,30.6c0.6-1,1.7-1.1,2.7-0.8c0.7,1.1-0.4,2.6-1.5,2.8c-1.8,0.1-3.5,0-5.3,0.1c0,0.3,0,0.8-0.1,1.1
		c1.5,0.3,3.1-0.1,4.7,0.2c1,1.1,0.4,2.9,0.7,4.3c0.5,0.1,1,0.1,1.6,0.3c0.3,0.6,0.1,1.3,0.1,1.9c-4.5,0-9,0.3-13.5,0
		c0-0.6,0-1.3,0-1.9c0.9,0,1.8-0.1,2.7-0.2C2.9,37.6,3,36.8,3.2,36c-1-0.1-1.9-0.2-2.9-0.3c0-0.6,0.1-1.3,0.1-1.9c1.1,0,2.2,0,3.3,0
		c0-0.3,0-0.9,0-1.2c-1.2,0-2.4,0-3.6,0c0-0.7,0-1.3,0-2C3.6,30.6,7.1,30.7,10.6,30.6z M5.7,36c-0.1,0.8-0.1,1.5-0.2,2.3
		c1.2,0.2,2.4,0.2,3.6,0c0-0.8,0-1.6,0-2.4C7.9,36,6.8,36,5.7,36z"/>
</g>
<path fill="#F00303" d="M25.6,29.8c0.9-0.2,1.8,0,2.7,0c-0.3,0.7-1,1.2-1.4,1.9c0.8,0.1,1.6,0.1,2.5,0.2c0,0.7,0,1.3,0,2
	c-1.8,0-3.5,0-5.3,0c0.1,0.2,0.2,0.5,0.2,0.6c1.7,0.3,3.4,0.1,5,0.2c0,0.7,0,1.4,0,2.1c-1.8,0-3.5,0-5.3,0c0,0.2,0.1,0.6,0.2,0.8
	c1.7,0.2,3.4,0,5.1,0.2c0,0.7,0,1.3,0,2c-1.7,0-3.3,0-5,0.1c-0.7,1.3-2.3,0.8-3.3,0.1c-1.6-0.3-3.3,0.1-4.9-0.2
	c-0.3-0.6-0.1-1.4,0-2c1.8,0,3.5,0,5.3,0c-0.1-0.2-0.2-0.7-0.2-0.9c-1.7-0.1-3.4,0-5-0.1c0-0.7,0-1.4,0-2.1c1.7,0,3.4,0,5.1,0
	c0.1-0.2,0.2-0.6,0.2-0.8c-1.8-0.1-3.6,0-5.3-0.1c0-0.7,0-1.4,0-2.1c0.7,0,1.5-0.1,2.2-0.1c-0.5-0.6-0.9-1.2-1.4-1.8
	c0.9,0,1.7-0.1,2.6-0.1c1.2,0.8,2.2,2.4,3.8,2C24.2,31.4,24.8,30.5,25.6,29.8z"/>
<g>
	<path fill="#F00202" d="M46.1,29.7c0.8,0,1.7,0.1,2.5,0.1c0,0.3,0.1,0.9,0.1,1.2c1,0,2.1,0,3.1,0c0.8-1.1,2.1-1.1,3.3-0.8
		c-0.3,0.8-0.4,1.8-1.2,2.3c-0.8,0.7-1.9,0.6-2.8,0.6c1.1,2.1,2.6,3.8,4.1,5.7c-0.4,0.4-0.8,0.7-1.3,1.1c-0.7-0.6-1.4-1.3-2-2
		c-1,0-2.1,0.1-3.1,0.2c-0.2,2-2.6,3-4.3,2.3c-0.1-0.5-0.1-1.1-0.2-1.6c0.5-0.1,0.9-0.2,1.4-0.2c0-0.2,0-0.5,0-0.7
		c-0.9,0.1-1.8,0.2-2.6,0.4c-0.7,0.5-1.2,1.3-2.1,1.4c-0.7,0.3-0.8-0.8-1.2-1.2c1.5-1.5,2.6-3.4,3.5-5.3c-1,0-2.1,0-3.1,0
		c0-0.7,0-1.4-0.1-2.1c1.9,0,3.9,0,5.8,0C46,30.6,46,30.1,46.1,29.7z M48.7,33.4c0,0.9,0,1.7,0,2.6c0.5,0,1,0,1.4,0
		C49.9,35,49.4,34.1,48.7,33.4z M45.7,33.4c-0.4,0.8-0.9,1.6-1.3,2.4c0.3,0.1,1,0.3,1.3,0.4C46,35.3,46.3,34.2,45.7,33.4z"/>
</g>
<g>
	<path fill="#F20202" d="M57.3,30.1c4,0,8,0,12,0c0.1,2.4,0,4.7,0,7.1c0,0.9-0.1,2-0.9,2.6c-0.7,0.6-1.7,0.5-2.6,0.5
		c-2.8,0-5.7,0-8.5,0C57.3,36.9,57.2,33.5,57.3,30.1z M64.2,31.7c-0.1,0.9-0.1,1.8-0.1,2.8c0.9,0.1,1.9,0.1,2.8,0.1
		c0.2-0.9,0.2-1.9,0-2.8C66,31.7,65.1,31.7,64.2,31.7z M59.8,32.1c0,0.7,0,1.3,0,2c0.7,0.1,1.3,0.1,2,0.2c0.1-0.7,0.1-1.4,0.2-2.1
		C61.3,32.2,60.5,32.2,59.8,32.1z M59.6,36c0,0.8,0,1.5,0,2.3c0.8,0,1.6,0,2.5,0.1c0.1-0.8,0.4-1.7-0.1-2.3
		C61.1,35.9,60.4,36,59.6,36z M64.5,36c-0.1,0.8-0.1,1.6,0,2.4c0.8,0,1.5,0,2.3-0.1c0-0.8,0-1.5,0-2.3C66.1,36,65.3,36,64.5,36z"/>
</g>
<g>
	<path fill="#D71A1B" d="M64.2,31.7c0.9,0,1.8,0,2.8,0c0.2,0.9,0.1,1.9,0,2.8c-0.9,0-1.9,0-2.8-0.1C64.1,33.6,64.1,32.7,64.2,31.7z
		 M64.6,32.1c0,0.7,0,1.4,0,2c0.7,0,1.3,0,2,0c0-0.7,0-1.3,0-1.9C65.9,32.1,65.3,32.1,64.6,32.1z"/>
</g>
<g>
	<path fill="#832320" d="M31.7,35.1c2,0,3.9-0.1,5.9,0c0,0.7-0.1,1.5-0.2,2.2c-1.9-0.1-3.8-0.1-5.7,0C31.7,36.5,31.7,35.8,31.7,35.1
		z M31.9,35.3c0,0.4,0,1.2,0,1.6c1.8,0.1,3.6,0.1,5.4,0c0-0.4,0-1.2,0-1.6C35.4,35.2,33.7,35.2,31.9,35.3z"/>
</g>
<path fill="#F00100" d="M31.9,35.3c1.8-0.1,3.6-0.1,5.3,0c0,0.4,0,1.2,0,1.6c-1.8,0.1-3.6,0.1-5.4,0C31.9,36.5,31.9,35.7,31.9,35.3z
	"/>
<g>
	<path fill="#DF5859" d="M59.6,36c0.8,0,1.5-0.1,2.3,0c0.6,0.7,0.2,1.6,0.1,2.3c-0.8,0-1.6,0-2.5-0.1C59.6,37.5,59.6,36.8,59.6,36z
		 M59.9,36.4c0,0.6,0,1.2,0,1.7c0.6,0,1.3,0,1.9,0c0-0.6,0-1.2,0-1.8C61.2,36.3,60.5,36.3,59.9,36.4z"/>
</g>
<g>
	<path fill="#E15C5A" d="M64.5,36c0.8,0,1.6,0,2.4,0c0,0.8,0,1.5,0,2.3c-0.8,0-1.6,0-2.3,0.1C64.4,37.6,64.4,36.8,64.5,36z
		 M64.7,36.3c0,0.6,0,1.2,0,1.8c0.6,0,1.3-0.1,1.9-0.1c0-0.5,0-1.1,0-1.6C65.9,36.4,65.3,36.3,64.7,36.3z"/>
</g>
</svg>
