<?xml version="1.0" encoding="utf-8"?>
<!-- Generator: Adobe Illustrator 18.1.1, SVG Export Plug-In . SVG Version: 6.00 Build 0)  -->
<svg version="1.1" id="图层_1" xmlns="http://www.w3.org/2000/svg" xmlns:xlink="http://www.w3.org/1999/xlink" x="0px" y="0px"
	 viewBox="0 0 58.1 37.3" enable-background="new 0 0 58.1 37.3" xml:space="preserve">
<path fill="#815E47" d="M18.4,5.3c0.6-2.2,2.3-3.9,4.1-5.1c1.2,0,2.9-0.7,3.8,0.4c1.5,1.7,2.1,4.2,4,5.7c1.9,1.5,3.5,3.7,6.1,4
	C37.5,9.9,37.9,8.4,39,8c0.7-0.3,1.7-0.5,2.3,0.1c1.5,1.2,3,2.4,4.5,3.6c0.7,0.6,1.6,0.6,2.5,0.8c2.3,0.3,4.4,1.5,6.6,1.9
	c1.1,0.3,2.5,0.3,3.2,1.3c-2.5,0.4-4.8-1-7.2-1.6c-2.1-0.7-4.6-0.5-6.3-2.2c-1.4-1.3-2.9-2.4-4.4-3.5c-0.5,0.2-1.1,0.3-1.6,0.6
	c-0.8,1-1,2.4-1.9,3.3c-0.7,0.7-1.6,1-2.5,1.4c0.3-0.9,1.1-1.5,1.8-2.2c-1.6-1-3.4-1.7-4.7-3.2c-1.9-1.9-4-3.6-5.6-5.9
	c-0.6-0.9-1.7-1.3-2.8-1.4c-1.1,0.2-1.9,1.2-2.8,1.8c-0.4,1.3-0.6,2.8-1.7,3.8c-1.4,1.3-1.4,3.6-3.1,4.7c0.1,0.5,0.2,0.9,0.3,1.4
	c-0.2,0-0.7,0-0.9,0c-0.2-1-0.1-1.9,0.6-2.7c-1.5-0.7-2.9-2-3.7-3.4c-0.5,0.1-0.9,0.1-1.4,0.2c-0.2,1-0.4,2-1.2,2.7
	c-1.2,1.2-2.4,2.4-3.7,3.5c-1.6,1.1-3.5,1.7-5.3,2.2c0-0.2,0.1-0.7,0.1-1c2-1.1,4.3-1.8,6-3.4C7,10,8,9.3,8.8,8.4
	c0.4-1.5,1.2-3.7,3.2-3.2c1.4,1.1,2.2,3,4,3.4C16.3,7.2,17.5,6.4,18.4,5.3z"/>
<path fill="#7B5639" d="M25.9,3.9c0.8,0.8,1.2,1.9,2,2.7c1.3,1.6,3.1,2.5,4.3,4.2c-0.6-0.2-1.3-0.4-1.8-0.8c-1.8-1.4-3.5-3.1-5-4.8
	C25.6,4.8,25.8,4.3,25.9,3.9z"/>
<path fill="#270D01" d="M22.5,5.8c0.4-0.4,0.8-0.7,1.2-0.9c-1.5,1.1-2.4,2.7-3.2,4.3C20.6,8,21.2,7,21.6,6
	C21.8,5.9,22.3,5.8,22.5,5.8z"/>
<path fill="#7B5639" d="M10.8,7.9c0.2-0.1,0.5-0.4,0.7-0.5c0.5,1,1.2,1.9,1.7,2.9C12.3,9.6,11.5,8.7,10.8,7.9z"/>
<path fill="#7B5639" d="M39.9,9.5c0.7,0.3,1.4,0.6,1.7,1.2c-0.5-0.1-1.1-0.1-1.6-0.2C40.1,10.3,40,9.8,39.9,9.5z"/>
<path fill="#7B5639" d="M16.2,12.8c0.3-1.1,1.2-1.8,2.1-2.5C18.5,11.7,17.2,12.3,16.2,12.8z"/>
<path fill="#7B5639" d="M41.2,11.2c0.8,0.3,1.7,0.6,1.5,1.6C42,12.5,40.9,12.3,41.2,11.2z"/>
<path fill="#7B5639" d="M47.3,14.2c1.2,0.3,2.6,0.3,3.6,1.1C49.7,15.3,48.2,15.3,47.3,14.2z"/>
<g>
	<path fill="#7C583A" d="M46.2,18.2c-0.1-1-1.3-2.2-0.5-3.1c0.9,0.1,2,0.3,2.4,1.3c0.7,1.1,0.2,2.2-0.1,3.3c1.1-0.4,1.6-1.4,1.4-2.6
		c0.9,0,2.2,0.5,2.1,1.6c-0.2,1.2-1.5,1.5-2.3,2c1.7-0.2,4.1-0.9,5.1,0.9c0.5,0.5,0.5,1.3,0.4,2c-1.5,0.2-3,0.4-4.5,0.7
		c-0.4,1.6-1,3.5-2.7,4.1c1.2-0.4,2.3-0.8,3.4-1.3c0,0.9,0.3,1.9-0.4,2.7c-0.9,0.5-3.2,0-2.7,1.7c1.6,0,3-0.9,4.6-0.7
		c-0.1,1.1,1.5,2.4,0.1,3.1c-1.3,1.2-3.1-0.1-4.6,0.3c-2,0.4-4-0.2-5.9,0.5c-0.5-0.8-0.4-2,0.2-2.7c1.4-0.4,2.9-0.1,4.1-0.9
		c-0.9-0.3-2.4,0.2-2.7-1c0.1-0.3,0.3-0.9,0.4-1.2c0.6,0.1,1.3,0.2,1.9,0.2c-0.2-1.3-1.6-1.9-1.9-3.2c-0.1-0.6,0.2-1,0.4-1.5
		c-0.8,0.2-1.6-0.1-2.3-0.5c0,1,0.3,2.1-0.3,3.1c-0.5,0.3-1,0-1.5-0.1c0.2-1.6-0.6-3.1-0.7-4.7c0.3-0.8,1.1-0.2,1.7-0.1
		c0.8,0.5,1.4-0.4,2.1-0.8c1.1,0.2,2.9,0.2,2.9-1.3c-0.9,0.2-1.9,1-2.9,0.5c-0.5-0.8-0.7-1.7-0.8-2.6c0.8-0.3,1.5-0.1,2,0.6
		C45.1,18.5,45.6,18.4,46.2,18.2z M47.8,22.4c-0.5,0-0.6,0.5-0.8,0.8c1.8-0.1,3.5-0.3,5.2-1C50.8,21.9,49.3,22,47.8,22.4z
		 M45.3,22.9c-0.1,0.3-0.4,0.8-0.5,1c0.9,0.1,1.5-0.3,1.8-1.1C46.1,22.9,45.7,22.9,45.3,22.9z M45.2,25.3c0.3,0.7,0.9,1.1,1.5,1.5
		c0.6-0.7,1.1-1.5,1.5-2.3C47.2,24.7,46.2,25,45.2,25.3z"/>
</g>
<g>
	<path fill="#7B5639" d="M32.1,17.8c0.4-0.7,1.4-0.3,1.9,0.1c0.3,2,0.5,4,0.5,6.1c0.6-0.6,1.1-1.2,1.6-1.8c1.5,1.4,0.8,4.3-1.3,4.7
		c-0.2,2.9-0.1,5.8-0.2,8.7c0.1,0.8-0.6,1.2-1.1,1.7c-0.5-0.4-1.3-0.8-1.1-1.6c0.1-2.5,0.3-5,0-7.5c-1,0.8-2,1.9-3.4,2.1
		c0-0.4-0.1-1.1-0.2-1.4c-0.3,0-0.9,0.1-1.2,0.1c-0.1-0.4-0.2-0.8-0.3-1.2c-0.1,1.3-0.2,2.7-0.5,4c-0.2,0.7-0.8,1.7-1.7,1.4
		c-1.3-1-1.4-2.8-1.4-4.3c0.4,0.4,0.7,0.9,1.1,1.4c0.5-0.7,0.7-1.6,0.8-2.5c-0.2,0.1-0.7,0.3-1,0.4c-0.9-0.1-1.9-0.1-2.8-0.2
		c-0.1,1.3,0.1,2.6,0.2,4c-0.3,0.7-1.1,1-1.7,1.4c-0.4-1.3-0.5-2.6-0.8-3.9c-0.9-2.6,0.8-5.3,2.9-6.7c0.1,0.3,0.2,0.8,0.3,1.1
		c-0.2,0.1-0.5,0.3-0.7,0.5c0.4,0,1.1,0,1.4,0c-0.2-0.4-0.4-0.9-0.6-1.3c0.9-0.5,0.7-1.5,0.9-2.3c-1.1,0.7-1.9,2.2-3.3,2
		c-0.4-0.7-0.7-1.5-1.1-2.2c0.5-0.5,1.2-0.6,1.9-0.4c0.8-0.8,1.7-2.1,3-1.5c1.9,0.2,0.9,2.6,1,3.9c0.3,0,1,0,1.3,0.1
		c0.6,1.4,0.3,3.6,2.1,4.1c0-1.4-0.3-2.8-0.2-4.2c0.9,0.3,1.7,0.8,2.4,1.3c-0.1,1-0.2,2-0.3,3c0.7-0.2,1.6-0.3,1.9-1
		c0-1.7,0.1-3.5-0.6-5C31.4,19.6,31.8,18.6,32.1,17.8z M24.3,23.6c-0.2,0.6,0.1,0.8,0.7,0.6C25.1,23.6,24.9,23.4,24.3,23.6z
		 M24.3,25.7c0,0.2,0.1,0.7,0.1,0.9c0.2,0,0.6,0.1,0.8,0.1c0-0.3,0-0.8,0-1C25,25.6,24.6,25.6,24.3,25.7z M22,26.2
		c0,0.2-0.1,0.7-0.1,0.9c0.7-0.3,1.4-0.7,2-1.1C23.2,26.1,22.6,26.1,22,26.2z"/>
</g>
<g>
	<path fill="#7A5539" d="M4.6,19.9c2.2-0.8,4.9-2.3,7.1-0.8c0,1.8-0.7,3.6-1.4,5.2c-0.9,0.5-2,0-3,0c-0.4,0.3-0.8,0.8-1.3,1
		C4.3,24.4,3.7,21.6,4.6,19.9z M5.8,21.3c0.1,0.6,0.3,1.1,0.5,1.6c0.7-0.5,1.5-0.6,2.3-0.7c0.2-0.7,0.3-1.4,0.3-2.1
		C8,20.6,6.8,20.8,5.8,21.3z"/>
</g>
<path fill="#7B583E" d="M29.1,18.5c0.9,0.1,1.8,0.3,2.3,1.1c0.2,0.8,0.2,1.7-0.1,2.5c-0.2,0.5-1.1,0.7-1.4,0.2
	C29.1,21.2,29.1,19.8,29.1,18.5z"/>
<g>
	<path fill="#7A5537" d="M8.7,26.7c1.7-0.2,3.3-1.1,5-1.3c1.4-0.2,2.9,1.3,2.3,2.7c-0.5,1.2-1.1,2.5-1.7,3.7
		c-0.7,0.3-1.4-0.3-2.1-0.1c-0.4,0.3-0.7,0.7-1.1,1c-0.9,0.2-1.3-0.7-1.6-1.3C9,29.9,8.8,28.2,8.7,26.7z M10,28
		c0.2,0.6,0.4,1.2,0.8,1.8c0.9,0.2,1.8-0.4,2.6-0.7c0.2-0.7,0.1-1.4,0.1-2.1C12.4,27.4,11.2,27.7,10,28z"/>
</g>
<g>
	<path fill="#795538" d="M0.7,27.8c1.9-0.4,3.7-1.6,5.7-1.2c1.2,0.4,1,1.8,0.8,2.8c-0.3,1-0.5,2-1.2,2.9c-0.7,0-1.4-0.1-2.1-0.2
		c-0.4,0.6-0.5,1.4-1.2,1.8c-1.2-0.4-1.7-1.8-1.9-3C0.6,29.8,0.2,28.7,0.7,27.8z M1.9,28.7c0.2,0.6,0.1,1.4,0.8,1.7
		c0.6-0.1,1.3-0.2,1.9-0.5C5,29.3,5,28.5,5.1,27.8C4,28,2.9,28.3,1.9,28.7z"/>
</g>
</svg>
