<?xml version="1.0" encoding="utf-8"?>
<!-- Generator: Adobe Illustrator 18.1.1, SVG Export Plug-In . SVG Version: 6.00 Build 0)  -->
<svg version="1.1" id="图层_1" xmlns="http://www.w3.org/2000/svg" xmlns:xlink="http://www.w3.org/1999/xlink" x="0px" y="0px"
	 viewBox="0 0 102 32.5" enable-background="new 0 0 102 32.5" xml:space="preserve">
<g>
	<path fill="#79BE1C" d="M96.3,0.2c2.6-1,5.8,1.1,5.7,4c0.3,3.3-3.9,5.7-6.6,3.7C92.5,6.1,93.1,1.3,96.3,0.2z M96.7,1
		c-2.4,0.5-3.2,4-1.4,5.7c1.9,2.3,6.2,0.5,5.8-2.5C101.2,2,98.8,0.4,96.7,1z"/>
</g>
<g>
	<path fill="#89BB19" d="M96.2,1.9c1.1,0.1,3-0.5,3.4,1c0.4,0.7-0.5,1.2-0.8,1.7c0.3,0.7,0.7,1.5,0.4,2.3c-0.7-0.8-1.2-1.8-2.1-2.4
		c-0.1,0.8,0.3,2.1-0.9,2.2C96.2,5.2,96.2,3.5,96.2,1.9z M97.1,2.7c0,0.5,0,0.9,0,1.4c0.9,0,1.7-0.3,1.5-1.4
		C98.1,2.7,97.6,2.7,97.1,2.7z"/>
</g>
<path fill="#8CBD1C" d="M3.7,5.8c0.5-2,3.7-2,4.3-0.1c2.1,0.1,4.2,0.1,6.4,0.1c0.6-0.3,0.8-1,1.4-1.3c0.8-0.1,1.7-0.2,2.5,0.1
	c0.4,0.5,0.7,1,1.1,1.4c1.3,0.1,3-0.4,3.6,1.2c-0.3,0.4-0.3,1.3-1,1.4c-1.1,0.1-2.2,0-3.3,0c-0.1,0.2-0.4,0.7-0.6,0.9
	c-1.2,0.2-2.3-0.2-3.3-0.8c-2.1-0.2-4.3,0-6.4-0.1C7.4,8.6,7,9.7,6.2,9.9C5.3,9.8,4.6,9.2,4,8.7c-1.1,0-2.1,0-3.2-0.1
	C-0.3,8.3-0.3,6.4,0.8,6C1.7,5.7,2.7,5.9,3.7,5.8z"/>
<path fill="#8BBC1A" d="M32.6,5.8c0.8-2,3.8-1.9,4.7,0c2.5,0.3,5.3-0.6,7.5,0.8c1.5,0.9,1.6,3,1.2,4.5c-0.4,0.4-0.9,0.6-1.4,0.9
	c-0.6-0.3-1.5-0.6-1.4-1.5c-0.1-0.6,0.2-1.9-0.8-1.9c-5.1,0-10.2,0-15.4,0c-0.4,1.2,0,2.8-1.5,3.4c-0.7-0.4-1.8-0.7-1.9-1.6
	c-0.5-2,1.1-4.2,3.1-4.5C28.8,5.7,30.7,5.9,32.6,5.8z"/>
<g>
	<path fill="#8ABC1B" d="M73,6.1c0.1-1.9,2.1-1.9,3.5-1.6c0.5,0.4,0.7,1.1,1,1.7c2.1-0.1,4.2,0,6.4-0.1C84,5.5,84,4.8,84.6,4.5
		c0.9-0.2,1.9-0.1,2.8-0.1C87.7,5,88,5.5,88.2,6.1c3.8,0,4.3,6,1,7.2c-2.3,0.4-4.6,0-6.9,0.3c0,0.5,0,1,0,1.6
		c2.5,0.4,5.1-0.1,7.7,0.3c2.6,1,3.1,4.3,2,6.6c-1,2.6-3.8,4.3-6.5,3.8c-1.3-0.2-2-1.9-1.1-2.9c0.9-1.2,2.7-0.5,3.8-1.3
		c1.4-0.9,1.4-3.1,0.1-4c-2,0-4,0.1-5.9-0.1c0,2.4,0.1,4.8,0,7.2c-0.2,1.5-2.7,1.7-2.9,0.2c-0.3-2.4,0.1-4.8-0.1-7.2l-0.4,0.1
		c-0.9,3.2-2.7,6.1-5.5,8c-1.5,0.7-3.6-0.5-3.3-2.2c0.2-1.4,1.8-1.4,2.8-2c1.3-0.9,2.1-2.4,2.9-3.7c-1.7-0.2-3.9,0.1-4.9-1.6
		c-1.4-1.8-0.6-4.9,1.7-5.5c2.2-0.2,4.5,0,6.7-0.1c0-0.6-0.1-1.2-0.1-1.7c-2.1,0-4.3,0-6.4,0c-0.8,0-1.7,0-2.3-0.7
		c-0.1-0.5-0.2-1.1,0.1-1.6C71.3,6,72.2,6.2,73,6.1z M82.3,9c0,0.6,0.1,1.1,0.2,1.7c2,0,4,0.3,6-0.3c-0.2-0.5-0.1-1.4-0.8-1.5
		C85.9,8.7,84.1,9,82.3,9z M73.1,13.7c0.1,0.4,0.2,0.9,0.4,1.3c1.9,0.2,3.9,0.1,5.8,0.1c0-0.6,0-1.1,0.1-1.7
		C77.2,13.5,75.1,13.2,73.1,13.7z"/>
</g>
<g>
	<path fill="#89BB19" d="M50.9,6.1c2.5-0.6,5.1-0.2,7.6-0.3c2.6,0.1,5.6-0.5,7.9,1.1c2.9,2,2.8,6.9-0.1,8.9
		c-1.5,1.1-3.4,0.9-5.1,0.9c0,1.6-0.2,3.3,0.1,4.9c0.8,2.1,4,2.1,5.1,0.3c0.8-1.2-0.7-2.5-0.3-3.7c0.2-1.4,2.4-1.7,3.2-0.7
		c1.4,1.7,1.1,4.5-0.4,6.1c-2.3,2.8-7.1,3.4-9.6,0.6c-1.9-1.9-0.8-4.8-1.3-7.2c-0.7-0.3-1.7-0.3-1.9,0.6c-1.3,3.3-2.9,7.2-6.5,8.5
		c-1.8,0.6-3.2-1.7-2.1-3.1c1-0.8,2.4-0.9,3.3-1.9c1.1-1.2,2-2.6,2.4-4.1c-1.9-0.1-3.9-0.7-5-2.3C46.2,11.7,47.5,7.2,50.9,6.1z
		 M51.9,9c-2.3,1-1.7,4.8,0.8,5.1c3.2,0.1,6.5,0,9.7,0.1c1.6,0.2,3.2-1.1,3.2-2.7c0.2-1.5-1.2-2.8-2.7-2.7c-2.8,0-5.6,0.1-8.5,0
		C53.5,8.7,52.6,8.6,51.9,9z"/>
</g>
<g>
	<path fill="#8ABC19" d="M29.7,12c0.2-1.1,0.1-3.2,1.8-2.9c1.5,0,1.3,1.9,1.4,2.9c1.7,0,3.4,0,5,0c0.6-0.8,1.3-2,2.5-1.6
		c0.9,0.1,1.1,1.1,1.4,1.7c1.2,0.1,2.6-0.3,3.7,0.5c0.5,0.8-0.3,2.1-1.3,1.9c-2.4,0.1-4.8,0-7.3,0.1c-0.2,1.1-0.6,2.1-1,3
		c2.1-0.9,4.2-2.4,6.6-2.4c1.3-0.1,1.4,2,0.4,2.4c-2.4,1-4.8,2.1-7.2,3.1c0.7,1,1.6,2.2,3,2.3c1.4,0.1,3,0.1,4-1
		c1.3-1.1-0.1-3.2,1.3-4.2c0.8-0.6,1.7-0.1,2.5,0.1c0.7,1.7,0.7,3.8-0.6,5.2c-3.1,4-10.3,3.6-12.4-1.1c-1,0.1-2.1-0.1-2.7-1
		c-1,2-2.5,3.9-4.7,4.8c-1.5,0.4-2.5-1.1-2.8-2.3c1-1.5,3-1.8,4.2-3.2c1.2-1.7,1.8-3.8,2.2-5.8c-1.6-0.1-3.1,0.1-4.7-0.1
		c-0.8-0.6-1-1.7-0.2-2.3C26.3,11.8,28,12.1,29.7,12z M32.7,14.7c-0.2,1.6-1.2,3.2-0.9,4.8c1.5-1.2,1.9-3.2,2.2-5
		C33.6,14.6,33.1,14.6,32.7,14.7z"/>
</g>
<g>
	<path fill="#89BC1A" d="M2.5,10.3c2.7-1.4,6.8,0.8,6.5,4c-0.1,2.8,0.1,5.6-0.2,8.5c-0.8,3.1-5.5,3.7-7.5,1.5
		c-1-0.9-1.2-2.3-1.2-3.6c0-2.3,0-4.5,0-6.8C0.2,12.4,1.2,11,2.5,10.3z M3.8,12.9c-1,0.8-0.6,2.2-0.7,3.3c1,0,1.9,0,2.9,0
		c0-0.9,0.1-1.8,0-2.7C5.6,12.6,4.6,12.7,3.8,12.9z M3.1,19.1c0,0.9,0,1.9,0.1,2.8c0.4,0.9,1.5,0.9,2.3,0.6c0.9-0.9,0.4-2.3,0.5-3.5
		C5.1,19,4.1,19,3.1,19.1z"/>
</g>
<g>
	<path fill="#8BBD1A" d="M11.4,10.7c2.1-1.3,4.7-0.6,7-0.7c2.2-0.1,4.3,1.8,4.1,4c0,2.8,0,5.7,0,8.5c0.2,2.1-2.2,3.6-4.1,3.3
		c-1.6,0-2.4-2.3-1.2-3.3c0.6-0.4,1.4-0.5,2.1-0.8c-2.2-0.1-4.4,0-6.6-0.1c0,1.5,0.4,3.6-1.5,4c-0.6-0.4-1.5-0.7-1.5-1.6
		c-0.1-3.4,0-6.8,0-10.1C9.7,12.6,10.3,11.3,11.4,10.7z M12.9,12.9c0,0.4-0.1,1.2-0.1,1.6c2.2,0,4.5,0,6.7,0c0-0.4,0-1.2,0-1.7
		C17.3,12.7,15.1,12.7,12.9,12.9z M12.8,17.2c0,0.4,0,1.2,0,1.7c2.2,0,4.5,0,6.7,0c0-0.4,0-1.2,0-1.7C17.2,17.1,15,17.1,12.8,17.2z"
		/>
</g>
<path fill="#8AB61B" d="M13.4,27.5c1.4-0.7,1.4,1.7,1.9,2.5c0.5-0.9,0.5-3.3,2.1-2.4c0.4,1.6,0.5,3.2,0.4,4.8
	c-1.3-0.2-1-1.8-1.3-2.8c-0.2,0.8-0.5,1.6-0.7,2.4c-0.2,0-0.7,0-1,0c-0.3-0.7-0.5-1.4-0.8-2.1c-0.2,0.9-0.1,2.2-1.3,2.5
	C12.6,30.8,12.9,29.1,13.4,27.5z"/>
<path fill="#89B123" d="M18.5,27.4c0.9,0,2.2-0.5,2.8,0.5c-0.4,0.7-1.2,0.5-1.8,0.6l0,0.6c0.5,0.2,2-0.2,1.7,0.9
	c-0.6,0.1-1.2,0.2-1.7,0.3l0,0.7c0.7,0.1,1.5-0.2,1.9,0.6c-0.6,0.9-1.8,0.4-2.8,0.6C18.5,30.6,18.3,29,18.5,27.4z"/>
<path fill="#85B71B" d="M21.9,27.5l0.4-0.2c1.1,0.7,1.5,2,2.4,2.9c0.1-0.9-0.7-2.8,0.9-2.7c0.1,1.7,0,3.4-0.3,5.1
	c-1-0.8-1.6-1.9-2.4-2.9c-0.1,1,0.3,2.2-0.7,2.9C21.8,30.9,21.6,29.1,21.9,27.5z"/>
<path fill="#88B630" d="M27.4,27.6c0.8-0.6,2-0.3,2.7,0.4c0.3,1.2-1.3,0.4-2,0.4c-1.3,0.2-1.4,2.1-0.3,2.6c0.5,0.2,1.2,0.1,1.6-0.3
	c-0.3-0.2-0.9-0.5-1.2-0.7c-0.1-1.3,1.6-0.5,2.4-0.8c-0.1,0.8-0.1,1.8-0.8,2.4c-1,1.1-3,0.6-3.5-0.7C25.9,29.8,26.2,28.1,27.4,27.6z
	"/>
<path fill="#83AF2E" d="M31.1,29.1c0.2-1.7,3-2.6,3.7-0.7c-0.8,0.2-2-0.3-2.6,0.6c-0.4,0.7,0,1.5,0.5,2.1c0.7,0,1.9-0.6,2.1,0.5
	C33.1,33.3,30.2,31.2,31.1,29.1z"/>
<path fill="#83AD19" d="M35.4,27.5c1.1-0.8,1,1.1,1,1.8c0.6,0,1.1,0,1.7-0.1c0.1-0.8,0-2,1.1-1.9c0,1.6,0.1,3.3-0.1,4.9
	c-1.2,0.4-1-1.2-1.1-1.9c-0.6,0-1.2-0.1-1.7-0.1c0,0.6,0,1.1,0,1.7c-0.3,0-0.8,0.1-1.1,0.1C35.3,30.5,35.1,29,35.4,27.5z"/>
<g>
	<path fill="#8AAC25" d="M41.3,27.5c1.2-0.7,2.7,0.3,2.9,1.6c0.7,1.7-1.3,3.8-3,3C39.4,31.2,39.5,28.3,41.3,27.5z M41.8,28.4
		c-1.4,0.5-1,3.3,0.6,2.7C43.9,30.8,43.3,28,41.8,28.4z"/>
</g>
<path fill="#86B724" d="M45,27.3c1.5,0.3,2,2,2.8,3.1c0-1.1,0-2.1,0-3.2c1.3-0.3,0.8,1.2,0.9,1.9c0,1.1,0,2.1-0.1,3.2
	c-1.4-0.3-1.8-1.8-2.6-2.8c-0.2,0.8,0.5,3.2-1,2.6C44.8,30.5,44.9,28.9,45,27.3z"/>
<path fill="#8EB03C" d="M49.4,28.9c0.4-1.7,3-2.2,3.9-0.7l-0.1,0.6c-0.8-0.1-1.7-0.3-2.5-0.4c-0.5,0.9-0.5,1.8,0,2.7
	c0.7,0,1.4-0.1,2-0.5c-0.3-0.2-0.9-0.6-1.2-0.7c0.4-0.8,1.4-0.7,2.2-0.8c0.2,1.2-0.1,2.7-1.4,3.1C50.3,32.9,48.4,30.6,49.4,28.9z"/>
<path fill="#82A821" d="M54.1,27.3c0.8,0.2,1.4,0.8,1.9,1.4c0.2-0.4,0.4-0.8,0.6-1.1c0.3,0,0.9-0.1,1.2-0.1
	c-0.4,0.7-0.8,1.4-1.2,2.1c0.3,0.9,1,1.7,1.7,2.3c0.1-1.4,0.1-2.9,0-4.3c0.2,0,0.7-0.1,1-0.1c0,1.6,0.1,3.2-0.1,4.8
	c-0.7-0.5-1.5-0.4-2.3-0.3c-0.3-0.5-0.6-0.9-0.9-1.4c-0.6,0.7-1.1,1.6-2.2,1.6c0.4-0.9,0.9-1.8,1.4-2.7
	C54.7,28.9,54.3,28.1,54.1,27.3z"/>
<g>
	<path fill="#82AE25" d="M61.2,27.6c1.3-0.9,3.1,0.4,3.1,1.9c0.3,1.5-1.2,3.4-2.8,2.6C59.6,31.5,59.4,28.5,61.2,27.6z M61.7,28.5
		c-0.8,0.4-0.6,1.4-0.5,2.1c0.5,0.7,1.9,0.7,2.1-0.3C63.7,29.4,62.8,27.9,61.7,28.5z"/>
</g>
<path fill="#85AF20" d="M65,27.4c1.4,0.1,1.8,1.8,2.7,2.6c0.3-1-0.4-2.8,1.1-2.8c0,1.7,0.1,3.4,0,5c-1.4-0.1-1.8-1.7-2.7-2.5
	c-0.2,0.9,0.2,2.2-0.9,2.6C64.8,30.8,65,29.1,65,27.4z"/>
<path fill="#80AC1B" d="M70.5,27.7c1.1-0.8,2.8-0.2,2.9,1.2c-0.8-0.1-1.7-0.6-2.5-0.4c-0.7,0.6-0.6,1.9,0,2.6c0.7,0.2,1.4,0,1.9-0.5
	c-0.8-0.1-1.3-0.5-1.1-1.3c0.6,0,1.3-0.1,1.9,0c1,1.7-1.5,3.9-3.1,2.6C68.9,31,69,28.6,70.5,27.7z"/>
<g>
	<path fill="#8CB134" d="M74.4,27.3c0.9,0,1.9-0.1,2.8,0.4c1.5,1,1.2,3.7-0.5,4.3c-0.8,0.2-1.5,0.1-2.3,0.2
		C74.4,30.6,74.4,29,74.4,27.3z M75.5,28.3c-0.1,1-0.1,2,0,3c0.7-0.2,1.7-0.4,1.6-1.3C77.2,29,76.4,28.4,75.5,28.3z"/>
</g>
<path fill="#88AD31" d="M78.8,27.5c0.2-0.1,0.7-0.2,0.9-0.3c0.1,1.6,0.2,3.3,0,4.9l-0.6,0.1C78.3,30.9,78.8,29.1,78.8,27.5z"/>
</svg>
