<?xml version="1.0" encoding="utf-8"?>
<!-- Generator: Adobe Illustrator 18.1.1, SVG Export Plug-In . SVG Version: 6.00 Build 0)  -->
<svg version="1.1" id="图层_1" xmlns="http://www.w3.org/2000/svg" xmlns:xlink="http://www.w3.org/1999/xlink" x="0px" y="0px"
	 viewBox="0 0 54 45.4" enable-background="new 0 0 54 45.4" xml:space="preserve">
<g>
	<path fill="#010101" d="M15.6,0h2.7c-0.1,0.8-0.3,1.7-0.4,2.5c0.7-0.6,1.4-1.4,2.3-1.6c0.7,0,1.1,0.7,1.5,1.1
		c-0.6,1.8-1.6,3.5-2.6,5.1c-0.3,0.5-0.9,1.3-0.2,1.7c2.5,2.5,6,4.4,9.6,4.5c-0.4,1.1-1.1,2.2-2.4,2.2c-2,0.5-3.6-0.8-5.1-2
		c0.1,0.3,0.2,1,0.3,1.3c-1-0.2-2-0.4-2.9-0.5c1.4,1,4,1.4,3.7,3.7c-1.5-1.1-3.8-2.5-5.5-1.2c1.8,0.4,4.5,0.3,4.6,2.8
		c-1.5-0.6-3.5-1.4-4.7,0c1.5,0,3.1-0.5,4.3,0.7c-0.1,0.4-0.2,0.9-0.3,1.3c-0.7-0.7-1.6-1.2-2.7-1c0.4,1.6,1.1,3.1,1.3,4.7
		c0.3,1.7,0,3.5-0.3,5.2c-0.9,4.9-1.7,9.9-2.9,14.8c0.5-6.5,2.5-13,1.5-19.5c-0.3-2.5-2.7-4-3.5-6.2c1.1-0.1,2.2-0.4,2.9-1.3
		c-1,0.1-1.9,0.2-2.9,0.2c-0.3-0.3-0.5-0.7-0.8-1c0.8-0.4,1.7-0.8,2.5-1.2c-1.1,0.1-2.4,0.7-3.1-0.6c1-0.4,2-0.7,3-0.9
		c-0.5-0.7-0.9-1.6-1.2-2.4c-1.5,1.9-3.6,3.2-5.1,5.1c0.8-0.2,1.5-0.6,2.3-0.7c0.6,0.2,1,0.8,1.1,1.4C9.8,20,6.3,21.3,3,22.8
		c-0.4-0.5-0.8-1-1.2-1.6c0.8-0.4,1.5-0.7,2.3-1.1c-0.7-0.5-1.4-1.1-2-1.8c1.3-0.7,2.7-1.1,4.1-0.8c0-0.3,0.1-1,0.1-1.3
		c-1.1,0-2.3-0.3-2.3-1.7c0.6-0.7,1.5-1.1,2.4-1.5c-0.6-0.5-1.1-1.1-1.6-1.7C3.3,12.3,1.7,12.9,0,13c0.9-1.5,2.5-2.4,3.5-3.8
		C5,7,6.3,4.6,6.9,1.9C8,2.3,9,2.7,10,3.3C9.6,4.1,9.2,4.9,8.8,5.6C10,6.3,11.1,7,12.2,7.8c0.7-1.2,1.5-2.2,2.3-3.3
		C15.3,3.2,15.4,1.5,15.6,0z M16.4,6.7c1.1,0.8,1.5-1.2,1.7-2C17.4,5.3,16.7,5.9,16.4,6.7z M7.7,7.6c-0.5,0.6-1,1.2-1.4,1.7
		c0.8-0.2,1.6-0.5,2.4-0.8C8.3,8.2,8,7.9,7.7,7.6z M13.3,7.9c0.7,0.6,1,1.8-0.1,2.2c-1.1,0.9-2.5,0.3-3.7-0.1
		c-0.3,0.6-0.9,1.1-1.2,1.8c0.7,0.4,1.8,0.8,1.7,1.8c-0.5,0.6-1.1,1-1.7,1.6c0.5,0.3,1,0.5,1.6,0.8c2.1-2,3.6-4.5,5-7.1
		c0.2-0.3,0.2-0.7,0.2-1.1C14.6,7.8,14,7.9,13.3,7.9z M16.1,11.6c0.3,0,0.8,0,1,0c-0.2,0.2-0.6,0.5-0.8,0.7c1.4,0.5,2.9,0.8,4.4,1.2
		c-1.2-1.2-2.8-2-3.7-3.6C16.5,10.4,16.3,11,16.1,11.6z"/>
</g>
<path fill="#090503" d="M48.6,5.2c0.8,0,1.5,0.1,2.3,0.1c-0.2,0.1-0.6,0.4-0.8,0.6c-0.1,0.8,0.1,1.7-0.4,2.4
	c-0.1-0.8-0.1-1.7-0.1-2.5c-0.2,0-0.6,0-0.8,0C48.6,5.6,48.6,5.4,48.6,5.2z"/>
<path fill="#0A0503" d="M51.2,5.2c0.2,0.1,0.6,0.2,0.8,0.2c0.2,0.6,0.3,1.3,0.5,1.9c0.5-0.7,0.6-1.8,1.4-2.2c0.2,1,0.1,2,0.1,2.9
	l-0.4,0c0-0.4,0-1.3,0-1.7c-0.3,0.6-0.7,1.2-1,1.8C52.3,7.6,52,7,51.7,6.4c0,0.7-0.1,1.3-0.4,1.9C51.2,7.2,51.2,6.2,51.2,5.2z"/>
<path d="M36.2,12.6c0.3,0.1,0.8,0.4,1.1,0.6c0,0.7-0.1,1.3-0.1,2c0.8-0.2,1.7-0.4,2.6-0.6c0.8,1.6,1.2,3.4,1.4,5.1
	c-1.6,0.8-3.3,1.4-5,2.2c0,0.4,0,1.3,0,1.7c2.5-0.3,4.1-2.4,6.2-3.5c0.5-0.4,1.1-0.1,1.4,0.3c-0.4,1-1.7,1.4-2.4,2.2
	c-1.4,1.3-3.2,2.1-5.1,2.2c1,1.2,1.8,2.7,3.1,3.5c1.6,0.6,3.4,0.9,5,1.7c-0.2,0.8-0.4,1.6-0.7,2.5c-1.3-0.6-3.1-0.2-3.9-1.5
	c-1.2-1.4-2.3-3-3.7-4.3c0.1,2.4,0.2,4.7,0.1,7.1c-1-0.5-1.7-1.4-2.4-2.3c0.6,0,1.1-0.1,1.7-0.1c0-1.4,0.1-2.8,0.2-4.2
	c-2.1,1.7-4.3,3.3-6.5,5c-0.4,0.5-1,0.3-1.6,0.3c0.3-1.1,1.4-1.5,2.3-2.1c1.9-1.1,3.5-2.4,5.2-3.7c0.5-0.4,0.4-1.2,0.6-1.7
	c-1.5,0.3-2.9,0.9-4.2,1.5c-0.1-0.4-0.3-1.1-0.4-1.5c1.5-0.4,2.9-0.7,4.4-1.2c0.1-0.3,0.2-1,0.3-1.4c-2.1-1-3.1-3.1-3.6-5.2
	c1.2-0.6,2.4-1,3.6-1.4C35.8,14.7,36,13.6,36.2,12.6z"/>
<g>
	<path fill="#010101" d="M24.5,19.2c1-0.1,1.9,0.4,2.8,0.6c1.3,0.1,2.7-1.1,3.7,0.1c-0.8,2.4-0.7,4.9-0.4,7.3
		c-1.5,0.6-3,1.1-4.6,1.4c-1,0.1-1.4-1-1.4-1.9C24.5,24.2,24.5,21.7,24.5,19.2z M26.3,27.1c0.8-0.2,1.7-0.4,2.5-0.6
		c-0.3-1.7-0.3-3.5-0.1-5.2C26.6,22.5,26.3,24.9,26.3,27.1z"/>
</g>
<path fill="#C40326" d="M2,30.4c0.1-0.9-0.4-2.4,0.8-2.9c2.2-0.3,4.5-0.1,6.7-0.1c-0.8,1.2-2.1,1.8-3.3,2.4
	c-0.6-0.7-1.3-1.3-2.3-1.5c-0.3,0.7-0.7,1.3-1,2c0.9,0,1.8,0,2.6-0.4c0.6,0.5,1.4,0.9,1.2,1.8c0,1.9-0.5,4.4-2.4,5.3
	c0.2-1.8,1.2-3.5,0.8-5.3C5,32.2,4.8,32.6,4.7,33c-0.2,0.1-0.7,0.4-0.9,0.5C3.4,32.3,2.8,31.3,2,30.4z"/>
<path fill="#C60329" d="M7.3,30.3c1.5-0.9,3.1-1.6,4.4-2.8c0.9,0.1,2.1,0,2.5,0.9c0.2,2.7,0,5.3,0.1,8c-1.6-0.8-3-2-4.8-2.3
	c-0.1,0.6-0.2,1.7-0.3,2.3c0.3-0.3,0.9-1,1.3-1.3c1.2,0.8,2.5,1.4,3.6,2.5c0.4,0.7-0.1,1.6-0.8,1.8c-1.4,0.3-2.9,0.1-4.4-0.1
	c0.3-1.1,0.6-2.2,1-3.3c-0.4,0.4-0.9,0.7-1.3,1.1c0-1,0.1-2,0.1-3c0.4,0,1.2-0.1,1.5-0.1c-0.7-0.3-1.3-0.7-2-1
	c1.5,0.3,3.7,0,3.9-1.9c-0.8,0.4-1.5,1-2.2,1.6c-0.5-0.1-1.1-0.2-1.6-0.3c0.5-1,1.9-1.3,2.1-2.5c-1,0.5-1.9,1-2.8,1.5
	C7.4,31,7.3,30.5,7.3,30.3z"/>
<path fill="#C40222" d="M1.8,32.5c0.3,0.3,0.7,0.6,1,0.8c0.5,0.1,1,0.3,1.5,0.5c-1,1.6-2.4,3.3-1.9,5.3C1.6,37.1,2,34.7,1.8,32.5z"
	/>
<path fill="#821C2C" d="M7.4,34.7c-0.3-0.6-0.2-1.9,0.5-2.2c0.2,0.6,0.2,1.1,0.1,1.7l-0.1,0.2C7.7,34.5,7.5,34.7,7.4,34.7z"/>
<path fill="#C7052A" d="M7.4,34.7c0.1-0.1,0.3-0.2,0.4-0.2c0.4,1.6-0.5,3.1-0.1,4.7c-1.4-0.1-2.8-0.1-4.2-0.2
	c0.7-0.5,1.4-0.9,2.1-1.5C6.3,36.8,6.6,35.6,7.4,34.7z"/>
<path fill="#090503" d="M25.8,37.9c0.8-0.5,1.7-0.1,2.4,0.3c0,0.4,0,1.2,0,1.6c-0.5-0.6-0.7-1.8-1.7-1.5C24.6,38.5,25,42,27,41.8
	c0.6-0.5,1-1,1.6-1.5c-0.1,1-0.9,2.3-2,2C24.4,42.1,24,38.8,25.8,37.9z"/>
<path fill="#090503" d="M38,39.2c0.5-0.6,0.9-1.8,1.9-1.5c0.2,0.1,0.6,0.2,0.8,0.3c-0.4,0.1-1.3,0.2-1.7,0.2c0.3,0.4,0.7,0.7,1.1,1
	c-1.5,0-1.2,2.3-0.2,3c-0.7,0-1.4,0-2.1,0c0.2-0.2,0.6-0.6,0.8-0.8c0-0.6,0-1.2-0.1-1.8C38.4,39.5,38.1,39.3,38,39.2z"/>
<path fill="#020101" d="M29.3,37.7c1-0.3,1.4,0.3,1.3,1.3c0.6-0.1,1.6-0.3,1.9,0.5c0.2,0.9-0.1,2.1,0.8,2.7c-0.5,0-1.5,0-2,0
	c1.2-0.6,0.6-1.9,0.6-2.8c-1.7-0.2-2.1,2.2-0.7,2.8c-0.5,0-1.5,0-2,0c1.2-0.9,0.7-2.4,0.8-3.6C29.8,38.3,29.4,37.9,29.3,37.7z"/>
<path fill="#090503" d="M42.8,37.9c0.6,0,1.1,0,1.7,0c0.6,1.2,1.2,2.4,2,3.4c0.1-0.9,0.1-1.8,0.1-2.7c-0.3-0.2-0.7-0.4-1-0.7
	c0.8,0,1.5,0,2.3,0c-0.2,0.2-0.6,0.5-0.8,0.7c0,1.2,0,2.5,0,3.7c-0.2,0-0.6,0-0.8,0c-0.7-1-0.9-2.5-2-3.1c-0.2,1.1,0,2.1,0.4,3.1
	c-0.6,0-1.1,0-1.7,0c1.2-0.9,0.7-2.4,0.8-3.7C43.5,38.3,43.1,38,42.8,37.9z"/>
<path fill="#0B0304" d="M48.9,37.7c0.2,0.1,0.5,0.2,0.6,0.2c0.2,1.4-0.5,3.2,0.8,4.2c-0.7,0-1.3,0.1-2,0.1c0.2-0.2,0.5-0.6,0.7-0.8
	c0-0.4,0-1.1,0-1.5c-0.2-0.2-0.6-0.6-0.8-0.8c0.3,0,0.8-0.1,1-0.1C49.3,38.6,49.1,38,48.9,37.7z"/>
<g>
	<path fill="#090503" d="M34.8,42.1c-1.4-0.7-1-3.2,0.7-3.3c1.1-0.2,1.4,1.1,1.6,1.9c-0.9,0-1.8,0-2.7,0c0.4,1.4,1.7,1,2.7,0.6
		C36.6,42.1,35.7,42.6,34.8,42.1z M35,39.5c-1.2,0.7,0.6,1.2,1.2,0.7C36.6,39.5,35.5,39.1,35,39.5z"/>
</g>
<path fill="#090503" d="M51.3,41.6c-0.9-1.2,0.4-3.3,1.9-2.7c0.8,0,0.8,1,0.4,1.6c-0.2-0.3-0.6-1-0.8-1.3c-1.5,0.2-1.7,2.5-0.1,2.8
	c0.4-0.4,0.8-0.8,1.2-1.1C54.2,42.3,51.9,42.8,51.3,41.6z"/>
</svg>
