<?xml version="1.0" encoding="utf-8"?>
<!-- Generator: Adobe Illustrator 18.1.1, SVG Export Plug-In . SVG Version: 6.00 Build 0)  -->
<svg version="1.1" id="图层_1" xmlns="http://www.w3.org/2000/svg" xmlns:xlink="http://www.w3.org/1999/xlink" x="0px" y="0px"
	 viewBox="0 0 52.1 36.8" enable-background="new 0 0 52.1 36.8" xml:space="preserve">
<g>
	<path fill="#832320" d="M15.6,1c5-1.1,10.1-1.1,15.1-0.8c4.6,0.3,9.2,1.3,13.6,2.5c1.8,0.5,3.7,0.9,5.2,2.1
		c0.1,0.3,0.2,0.8,0.2,1.1c0.2-0.5,0.4-1,0.6-1.5c0,0.4,0,1.1,0,1.4c1,0.4,1.8,1.3,1.8,2.4c0,6.9,0.1,13.8,0,20.6
		c-0.5,1.2-1.8,2-1.9,3.4c-2.5,1.3-5.1,2.4-8,2.4c-4.8,0.9-9.7,2-14.6,2.1c-6.9,0.2-13.8-1.1-20.5-2.9c-1.4-0.3-2.8-0.9-4-1.8
		c-0.6-0.8-1-1.7-1.8-2.5c-0.6-0.7-1.5-1.3-1.4-2.3C0,21.8,0,16.3,0,10.8c0-1.2-0.2-2.6,0.8-3.4c1.5-1.2,2-3.6,4.1-4
		C8.5,2.7,12,1.6,15.6,1z M12.4,3.1C10.2,3.4,8,4.1,5.8,4.6C5.5,4.4,5,5,4.6,5.2C4.4,5.2,4,5.4,3.9,5.4C4,7.6,1.1,7.9,1.2,10
		c0,5.9-0.1,11.8,0.1,17.7c0.8,1.2,2.3,1.8,2.5,3.4c2.8,1.4,5.8,2.1,8.8,2.8c3.3,0.9,6.7,1.2,10.1,1.4c2.6,0.1,5.2,0.1,7.7-0.1
		l-0.2-0.1c1.5,0.1,2.9-0.2,4.4-0.4c4-0.7,8.1-1.2,11.7-3.2c-0.8,0-1.7,0.1-2.4,0.4c-5.1,1.6-10.4,2.4-15.8,2.6
		c-1.9-0.3-3.9,0.1-5.8-0.1c-2-0.1-4-0.3-6-0.5c-1.5,0-2.9-0.7-4.4-0.6c-2.4-0.9-4.9-1.5-7.3-2.6c-0.3-0.9-0.6-1.8-1.4-2.4
		c0.1,0,0.4,0,0.5,0.1c0.6,0.2,0.5,0.9,0.8,1.4c1,1.7,3.1,1.5,4.7,2.3c0.7,0.3,1.5,0.5,2.3,0.6l0,0.3c3.3,0,6.5,1.2,9.8,1
		c1.3,0.3,2.7,0.4,4.1,0.3c2.1-0.2,4.2,0.3,6.3-0.3c1.3,0.1,2.6-0.2,3.9-0.3c2.1-0.2,4.1-0.8,6.2-1.3c1.1-0.3,2.2-0.6,3.3-1
		c0.4-0.1,0.8-0.2,1.3-0.3c0.1-1.8,2-2.5,2.6-4c0.1-5.2,0.1-10.4,0-15.6l0.3,0c0,5.3,0.1,10.6-0.1,16c-0.6,1.5-3.4,2.4-2.1,4.4
		c0.9-1.2,1.8-2.5,2.9-3.6c0.5-2,0.2-4.1,0.3-6.2c-0.1-4.4,0.2-8.7-0.1-13.1c-0.9-1-2.2-1.8-2.4-3.3c-0.5-0.2-1.1-0.4-1.6-0.5
		C42,3.1,37.4,2.4,32.9,1.8c-0.6-0.2-1.3-0.4-1.9-0.2c-3.2-0.2-6.5-0.4-9.8,0.1C18.2,1.8,15.2,2.2,12.4,3.1z"/>
</g>
<g>
	<path fill="#E9C87F" d="M12.4,3.1c2.8-0.9,5.9-1.4,8.9-1.5l0.4,0.1c-0.6,0.2-1.1,0.4-1.6,0.6c1.8,0.1,3.6,0.1,5.4,0.1
		c-0.3,0.3-0.7,0.6-1,0.9c0.2,1.2,0,2.4,0.1,3.6c-0.7,1.3-0.2,2.7,0.3,4.1c0,0.2-0.1,0.5-0.2,0.7c-0.4,0.7-0.7,1.4-1.1,2.1
		c-0.4-0.2-0.9-0.3-1.3-0.5c0.2-0.5,0.4-1,0.7-1.6c-1.1,0.1-2.3,0.3-3.4,0.6c-0.6-0.7-1.3-1.2-2.2-1.3c0-0.1,0-0.2,0-0.3
		c0.8-0.4,2.1-0.4,2.2-1.4c0.2-0.6,0.2-1.3,0.3-1.9c-0.7,0.3-1.3,0.7-2,1c-0.2,0.5-0.4,1-0.6,1.5C17.1,9.2,17,8.6,17,8.1
		c0.4-0.5,0.8-0.8,1.3-1.2c-0.2-0.3-0.4-0.6-0.6-0.9c0.5-0.1,1.1-0.2,1.7-0.3c-0.1-0.8-0.1-1.6-0.2-2.4C18.8,3.2,18.4,3,18,2.9
		c0.3-0.1,1-0.2,1.3-0.3c-2.1-0.9-4.3,0.5-6.4,0.6L12.4,3.1z M19.4,10.4c0.9,0.7,1.9,1.3,3,0.7c-0.2-0.5-0.1-1.5-0.8-1.4
		C20.7,9.4,20,10,19.4,10.4z"/>
</g>
<path fill="#FACCA3" d="M21.2,1.7c3.2-0.4,6.5-0.3,9.8-0.1c-0.2,0.1-0.6,0.3-0.9,0.4c-2.8,0-5.7,0.1-8.5-0.3L21.2,1.7z"/>
<path fill="#C5957A" d="M31,1.6c0.6-0.2,1.3,0,1.9,0.2c-0.1,0.1-0.2,0.3-0.3,0.5c0.7,0,1.4,0,2.2,0.1l0,0.6c-0.9,0-1.7-0.1-2.6-0.1
	c-0.8,0-1.6-0.1-2.3-0.1l0-0.4L30.1,2C30.3,1.9,30.7,1.7,31,1.6z"/>
<path fill="#AD7847" d="M20,2.3c0.5-0.2,1.1-0.4,1.6-0.6C24.4,2.1,27.3,2,30.1,2l-0.3,0.3c-1.5,0.2-3,0.1-4.4,0.1
	C23.6,2.4,21.8,2.5,20,2.3z"/>
<g>
	<path fill="#F7E3BB" d="M32.6,2.3c0.1-0.1,0.2-0.3,0.3-0.5C37.4,2.4,42,3.1,46.2,5l0.3,0.6C44.1,5.1,42,4,39.6,3.7
		c1.5,0.5,3,1,4.5,1.5c0.1,1.9,0.4,3.7,0.7,5.5c-1.6-0.4-3.2-0.7-4.8-0.6c0.4,0.6,0.9,1.2,1.7,1.5c1.8,1.3,1.1,3.6,1.7,5.4
		c-1.6,1.1-3.8,2.3-5.7,1.3c-1-0.4-1.4-1.8-0.7-2.6c0.7-1.3,3-1.5,3.6,0.1c-1,0-2-0.1-3-0.2c-0.9,2.8,4.1,2.7,4.3,0.3
		c0.5-1.5-1.1-2.4-2.3-2.7c0.2-1.3,0.3-2.6,0.3-3.9c1.2,0,2.4,0,3.7,0c-0.1-0.3-0.2-0.8-0.3-1.1c-1.2-0.1-2.5-0.1-3.7-0.1
		c0.5-0.6,1.2-1.2,1.6-1.9c-0.2-0.1-0.5-0.4-0.6-0.5c-1.8,0-3.7,0.2-5.4,0.9c0.8,0.7,1.9,1.1,2.8,1.7c-1.5,0.2-3.1,0.2-4.6,0.2
		c-0.4-0.4-0.8-0.7-1.2-1.1c0.4-0.5,0.9-1,1.4-1.5c-0.3-0.2-0.5-0.5-0.8-0.7c-0.2-0.8-0.4-1.6-0.6-2.4c0.9,0,1.7,0.1,2.6,0.1l0-0.6
		C34,2.3,33.3,2.3,32.6,2.3z M35.5,2.8c0.8,1.4,2.7,0.7,4.1,0.9C38.4,2.8,36.8,2.9,35.5,2.8z"/>
</g>
<path fill="#BE8948" d="M12.9,3.2c2.1-0.1,4.3-1.4,6.4-0.6c-0.3,0.1-1,0.2-1.3,0.3c-2.4,0.3-4.8,1-7.2,1.5c-0.4,0-1.1,0.1-1.4,0.1
	C10.5,3.9,11.7,3.5,12.9,3.2z"/>
<path fill="#EDD297" d="M25.4,2.4c1.5,0,3,0.1,4.4-0.1l0,0.4c0,0.2,0,0.6,0,0.8C29.8,3.6,30,3.9,30.1,4c-0.6,1.2-0.5,2.5-0.4,3.8
	c-0.3,0.5-0.6,1.1-0.8,1.6c-0.4,0.4-0.3,1.4-1,1.4c-0.4-0.2-0.7-0.4-1-0.7c-0.3,1-1.3,0.8-2.1,0.9c-0.5-1.3-1-2.7-0.3-4.1
	c-0.1-1.2,0.1-2.4-0.1-3.6C24.7,3,25,2.7,25.4,2.4z"/>
<path fill="#EFCE8D" d="M5.8,4.6c2.2-0.5,4.3-1.2,6.5-1.5l0.6,0.1c-1.2,0.3-2.4,0.7-3.5,1.3c0.4,0,1.1-0.1,1.4-0.1
	C10.6,6.2,11,8,11.6,9.8c-1-0.5-2.1-0.8-3.1-1.1c0.1-0.6,0.3-1.2,0.1-1.8c-0.5-0.2-1-0.3-1.5-0.5C7.5,6.3,7.9,6.1,8.3,6
	C8.2,5.8,8,5.3,7.8,5c0.5-0.1,1-0.3,1.5-0.5c-1,0.1-2,0.3-3,0.5L5.8,4.6z"/>
<g>
	<path fill="#E3BB69" d="M10.8,4.4c2.4-0.5,4.8-1.1,7.2-1.5c0.4,0.1,0.8,0.3,1.2,0.4c0.1,0.8,0.1,1.6,0.2,2.4
		c-0.6,0.1-1.1,0.2-1.7,0.3c0.2,0.3,0.4,0.6,0.6,0.9c-0.4,0.4-0.9,0.7-1.3,1.2c0,0.6,0,1.2,0.1,1.8c0,0.2,0.1,0.6,0.1,0.8
		c0,0.1,0,0.2,0,0.3c0.4,2.4-0.8,4.8-0.1,7.2c0.3-0.7,0.7-1.3,1-2c0.6,0.5,1.1,1.4,1.9,1.3c-0.2-0.4-0.5-0.8-0.7-1.1
		c0.9-0.1,1.8-0.3,2.7-0.5c0,0.5,0,1.1-0.1,1.6c-0.9,0.2-1.9,0.4-2.8,0.6c0.5,0.2,1,0.4,1.6,0.6c-0.2,0.1-0.7,0.2-0.9,0.3
		c0.6,0.4,1.2,0.8,1.9,1.1c-0.6,0.2-1.2,0.5-1.8,0.7c-0.3,0.1-0.9,0.3-1.3,0.4c0.3,0.6,0.6,1.2,0.8,1.8c-0.4-0.5-0.8-1.1-1.1-1.7
		c-0.2,0.2-0.7,0.6-0.9,0.8c0.3,1.2,0.3,2.4,0.3,3.6c0.5-0.4,1-0.7,1.5-1.1c0.4,0.3,0.9,0.7,1.4,1c-0.5,0.3-0.9,0.5-1.4,0.8
		c-0.1,0.1-0.2,0.3-0.3,0.4c-0.1,0.6-0.1,1.3,0,1.9c0.1,0.3,0.2,0.9,0.2,1.2c0.3,0,0.9-0.1,1.2-0.2c0.5-0.1,0.9-0.1,1.4-0.2
		c0,0.9-0.8,1.1-1.6,1.2c-0.1,0-0.4,0.1-0.6,0.2c-0.2,0.5-0.3,0.9-0.5,1.4c0.7-0.2,1.5-0.4,2.2-0.6c0.2,0,0.5,0.1,0.6,0.2l-0.1,0.5
		c-0.1,0.5-0.2,1-0.3,1.5c-3.3,0.2-6.5-1-9.8-1l0-0.3c0.2-2.3,0.2-4.6,0.1-6.9c-0.2-2.4,0.4-5.3-1.5-7.2c1.1,0.1,2.2-0.1,3-0.8
		c-0.5-0.2-1-0.5-1.5-0.7c-0.3-1.2-1.3-0.9-2.2-0.5c0.3-0.2,0.7-0.5,1-0.7c-0.3-0.3-0.6-0.6-0.8-0.9c0.8-0.2,1.6-0.5,2.3-0.8
		c-1-0.2-2-0.3-3-0.6c0.6-0.3,1.1-0.7,1.7-1c-0.8-0.2-1.6-0.3-2.4-0.3c0.4-0.4,0.7-0.8,1.1-1.2c1.9,1.1,4.1,0.8,6.1,1.3
		c-0.7-1.5-2.7-1.7-4-2.5C11,8,10.6,6.2,10.8,4.4z M14.4,18c1.6-0.1,2.2-1.7,2-3.1C15.2,15.4,14.4,16.6,14.4,18z M21.1,16.3
		c-0.6,0.3-0.6,0.6-0.1,0.8C21.6,16.9,21.6,16.6,21.1,16.3z M13.5,29.4c-0.2,0.6-0.3,1.3-0.4,2c0.5,0,1,0,1.5,0
		c0.1-0.6,0.1-1.2,0.2-1.9C14.4,29.5,13.8,29.5,13.5,29.4z M16,30.2c-0.1,0.5-0.2,1.1-0.4,1.6c0.7,0.1,1.4,0.1,2.1,0.2
		c0-0.7-0.1-1.4-0.1-2C17.1,30,16.6,30.1,16,30.2z"/>
</g>
<path fill="#F2DCAB" d="M29.8,2.7c0.8,0,1.6,0,2.3,0.1c0.3,0.8,0.5,1.6,0.6,2.4c0.3,0.2,0.5,0.5,0.8,0.7c-0.5,0.4-1,0.9-1.4,1.5
	c0.4,0.4,0.8,0.7,1.2,1.1c-0.2,0.2-0.6,0.5-0.8,0.7c0.3,0.5,0.6,1,1,1.5c1.3-0.6,2.6-1,4-1.3c-1.7,1-3.4,2-5.2,2.6
	c0.1,0.4,0.2,0.9,0.3,1.3l-0.5,0c-0.8-0.3-1.6-0.8-2.4-1.3c0.6-0.2,1.2-0.4,1.7-0.6c-0.9-0.6-1.7-1.2-2.6-1.9
	c0.3-0.5,0.5-1.1,0.8-1.6c-0.1-1.3-0.2-2.6,0.4-3.8c-0.1-0.1-0.3-0.4-0.4-0.5C29.8,3.3,29.8,2.9,29.8,2.7z"/>
<path fill="#BE9579" d="M35.5,2.8c1.4,0.1,2.9,0,4.1,0.9C38.2,3.5,36.3,4.2,35.5,2.8z"/>
<path fill="#6A1417" d="M39.6,3.7C42,4,44.1,5.1,46.5,5.5C47,6.8,48,7.8,48.9,8.8c0.6,0.6,0.3,1.5,0.3,2.2c-0.1-0.6-0.2-1.2-0.3-1.8
	c-0.7-0.6-1.3-1.2-2-1.8c-0.3-0.6-0.6-1.1-0.9-1.7c-0.6-0.1-1.3-0.3-1.9-0.5C42.6,4.7,41.1,4.2,39.6,3.7z"/>
<path fill="#7C583A" d="M4.6,5.2C5,5,5.5,4.4,5.8,4.6l0.4,0.5c1-0.2,2-0.4,3-0.5C8.8,4.7,8.3,4.9,7.8,5C6.9,5.3,6,5.5,5.2,5.9
	C4.7,6.9,4.3,8,3.3,8.7c-1,0.7-0.7,2-0.8,3c0.1,5.3-0.1,10.7,0.1,16c0.3,0.2,0.8,0.5,1.1,0.6c-0.1,0-0.4,0-0.5-0.1
	c-0.3-0.2-0.7-0.5-1-0.8c0-5.4-0.1-10.9-0.1-16.3c0.1-0.9-0.2-2,0.6-2.6c1.2-1,1.8-2.5,2.6-3.7L4.6,5.2z"/>
<path fill="#D7BB7D" d="M46.2,5c0.5,0.1,1.1,0.3,1.6,0.5c0.2,1.5,1.5,2.3,2.4,3.3c0.4,4.3,0,8.7,0.1,13.1c-0.1,2.1,0.2,4.2-0.3,6.2
	c-1.1,1.1-2,2.3-2.9,3.6c-1.3-1.9,1.6-2.9,2.1-4.4c0.1-5.3,0-10.6,0.1-16l-0.3,0c0,5.2,0.1,10.4,0,15.6c-0.6,1.5-2.5,2.2-2.6,4
	C46,31,45.6,31,45.2,31.1c0-2.7-0.1-5.4,0-8.1c0.1-3.4-0.6-6.9,0.6-10.1c-0.1-0.2-0.2-0.7-0.3-0.9c1,0,2.1-0.1,3.1-0.2
	c-0.4-0.4-1-0.7-1.6-0.8C47,9.8,47,8.5,47,7.3c0.6,0.6,1.3,1.2,2,1.8c0.1,0.6,0.2,1.2,0.3,1.8c0-0.7,0.2-1.6-0.3-2.2
	c-0.9-1-1.9-1.9-2.4-3.2L46.2,5z"/>
<path fill="#F9EACA" d="M3.9,5.4C4,5.4,4.4,5.2,4.6,5.2l0.8-0.3C4.6,6.2,4,7.6,2.8,8.6C2,9.3,2.3,10.4,2.2,11.2
	c0,5.4,0,10.9,0.1,16.3c0.3,0.2,0.6,0.5,1,0.8c0.8,0.6,1.1,1.5,1.4,2.4c2.4,1.1,4.9,1.7,7.3,2.6c0.2,0.2,0.5,0.5,0.7,0.6
	c-3-0.7-6-1.4-8.8-2.8c-0.1-1.6-1.7-2.3-2.5-3.4C1.1,21.8,1.2,15.9,1.2,10C1.1,7.9,4,7.6,3.9,5.4z"/>
<path fill="#FAE8C5" d="M5.2,5.9C6,5.5,6.9,5.3,7.8,5C8,5.3,8.2,5.8,8.3,6C7.9,6.1,7.5,6.3,7.1,6.4C7,7.7,6.7,9,5.8,9.9
	c-0.6,0.7-1.7,0.9-2.2,1.7c-0.1,1,1.1,0.5,1.7,0.5c0.3,0,0.8,0,1.1,0c0.1,0.2,0.2,0.7,0.3,1c0.3,0,0.9,0,1.2,0
	c0,0.2,0.1,0.7,0.1,0.9c-0.7,0-1.3,0-2,0.1c0.4,1,1.4,1.1,2.4,1.1c0,0.7-0.1,1.4-0.1,2.1c-0.6-0.8-0.6-2.3-1.9-2.1
	c0.1,0.4,0.2,0.9,0.4,1.3c-0.5,0.3-1,0.6-1.4,0.9c0.2,0.4,0.3,0.9,0.5,1.3C5.3,21.9,4.5,25,5,28.1c0.1,0.6-0.1,1.1-0.4,1.6
	c-0.3-0.5-0.2-1.2-0.8-1.4c-0.3-0.2-0.8-0.5-1.1-0.6c-0.3-5.3-0.1-10.7-0.1-16c0.1-1-0.2-2.3,0.8-3C4.3,8,4.7,6.9,5.2,5.9z"/>
<path fill="#E2C68C" d="M44.1,5.2c0.6,0.2,1.3,0.3,1.9,0.5c0.3,0.5,0.6,1.1,0.9,1.7c0,1.3,0,2.5,0.1,3.8c-0.8-0.1-1.6-0.2-2.3-0.4
	C44.5,8.9,44.2,7,44.1,5.2z"/>
<path fill="#6A1417" d="M35.1,6.6c1.7-0.7,3.6-0.9,5.4-0.9c0.2,0.1,0.5,0.4,0.6,0.5c-0.5,0.7-1.1,1.3-1.6,1.9c1.2,0,2.5,0,3.7,0.1
	c0.1,0.3,0.2,0.8,0.3,1.1c-1.2,0-2.4,0-3.7,0c0,1.3-0.1,2.6-0.3,3.9c1.2,0.3,2.8,1.2,2.3,2.7c-0.2,2.3-5.2,2.5-4.3-0.3
	c1,0.1,2,0.2,3,0.2c-0.6-1.5-2.8-1.3-3.6-0.1c-0.7,0.8-0.3,2.2,0.7,2.6c2,0.9,4.1-0.2,5.7-1.3c0.2,0.5,0.2,0.9-0.1,1.2
	c-0.8,0.9-1.8,1.5-2.8,2.1c-1.6,0.5-3.3,0.4-4.7-0.5c-0.8-1-1.4-2.4-0.9-3.7c0.4-1.5,1.8-2.4,3.2-2.8c-0.2-0.7-0.4-1.5-0.5-2.2
	c-1.8,0.5-2.9,2.7-5,2.2c-0.1-0.4-0.2-0.9-0.3-1.3c1.9-0.6,3.6-1.6,5.2-2.6c-1.4,0.3-2.7,0.7-4,1.3c-0.3-0.5-0.7-1-1-1.5
	c0.2-0.2,0.6-0.5,0.8-0.7c1.5,0.1,3.1,0.1,4.6-0.2C37,7.7,35.9,7.3,35.1,6.6z"/>
<path fill="#6B1214" d="M7.1,6.4c0.5,0.1,1,0.3,1.5,0.5c0.2,0.6,0,1.2-0.1,1.8c1.1,0.3,2.1,0.6,3.1,1.1c1.3,0.8,3.3,0.9,4,2.5
	c-2-0.5-4.3-0.2-6.1-1.3c-0.6-0.3-1.3-0.6-1.9-0.7c-0.8,0.6-1.5,1.3-2.3,1.9c-0.6-0.1-1.8,0.5-1.7-0.5c0.5-0.8,1.6-1,2.2-1.7
	C6.7,9,7,7.7,7.1,6.4z"/>
<path fill="#7B2315" d="M17.8,8.3c0.7-0.3,1.3-0.7,2-1c-0.1,0.6-0.1,1.3-0.3,1.9c-0.2,1-1.5,1-2.2,1.4c0-0.2-0.1-0.6-0.1-0.8
	C17.4,9.3,17.6,8.8,17.8,8.3z"/>
<path fill="#812017" d="M19.4,10.4c0.6-0.5,1.3-1,2.1-0.7c0.8,0,0.6,0.9,0.8,1.4C21.2,11.8,20.2,11.1,19.4,10.4z"/>
<g>
	<path fill="#751F1D" d="M27.9,10.8c0.7,0,0.7-1,1-1.4c0.8,0.7,1.7,1.3,2.6,1.9c-0.6,0.2-1.2,0.4-1.7,0.6c0.7,0.5,1.5,0.9,2.4,1.3
		c-0.8,0.1-1.7,0.5-1.9,1.4c0.9-0.2,1.8-0.6,2.7-0.4c-0.7,0.8-1.5,1.5-2.3,2.1c0,0.2-0.1,0.5-0.2,0.7c0.5,0.2,1.1,0.4,1.6,0.5
		c-0.6,0.7-1.2,1.2-1.8,1.9c-0.3-0.9-0.5-1.7-0.7-2.6c-0.4,0.2-0.7,0.4-1,0.7c-0.9-0.2-1.6,0.2-2,1c-0.7-0.2-1.4-0.5-2.1-0.7
		c0-0.2-0.1-0.7-0.1-0.9c0.4-0.4,0.7-0.7,1.1-1.1c-0.8-0.5-1.2-1.2-1.4-2.1c1.2,0.7,2.6,0.3,4,0.6c0.6,0.6,0.9,1.5,1.4,2.2
		c0.1-0.9,0.2-1.9,0.1-2.8c-1.3,0-2.6,0.6-3.9,0.1c0-0.6,0.8-0.8,1.1-1.3c0.6,0.2,1.1,0.4,1.7,0.6c-0.1-0.5-0.3-0.9-0.4-1.4
		c-1.2,0-2.6,0.9-3.7,0c0-0.2,0.1-0.5,0.2-0.7c0.8-0.1,1.8,0.1,2.1-0.9C27.2,10.3,27.6,10.6,27.9,10.8z M27.1,15.1
		c-0.1,0.1-0.4,0.4-0.5,0.5C27,17,28.7,14.8,27.1,15.1z"/>
</g>
<path fill="#F4D5A1" d="M5.3,12.2c0.7-0.7,1.4-1.4,2.3-1.9c0.7,0.2,1.3,0.4,1.9,0.7c-0.4,0.4-0.7,0.8-1.1,1.2c-0.7,0-1.4,0.1-2,0
	C6.1,12.2,5.5,12.2,5.3,12.2z"/>
<path fill="#681811" d="M40,10.1c1.6-0.1,3.2,0.2,4.8,0.6c0.8,0.2,1.5,0.3,2.3,0.4c0.6,0.1,1.1,0.3,1.6,0.8c-1,0.1-2.1,0.2-3.1,0.2
	c-1.3-0.1-2.6-0.3-3.9-0.5C40.9,11.3,40.4,10.7,40,10.1z"/>
<path fill="#6A1513" d="M17.3,11c0.9,0.1,1.6,0.6,2.2,1.3c1.1-0.3,2.2-0.5,3.4-0.6c-0.2,0.5-0.4,1-0.7,1.6c0.4,0.2,0.8,0.3,1.3,0.5
	c-1,1.1-2.6,1-3.9,0.9c0-0.1,0-0.3,0-0.4c0.6-0.4,1.3-0.7,1.8-1.3c-0.7,0.1-1.4,0.3-2.1,0.5c-0.2,0.5-0.3,1.1-0.5,1.7
	c1.6,0.1,3.1-0.1,4.7,0.2c0.6,1.2-0.4,2.2-0.8,3.3c-0.6,0-1.2,0.1-1.8,0.1c-0.5-0.2-1-0.4-1.6-0.6c1-0.1,1.9-0.3,2.8-0.6
	c0-0.5,0-1.1,0.1-1.6c-0.9,0.2-1.8,0.3-2.7,0.5c0.2,0.4,0.5,0.7,0.7,1.1c-0.9,0.1-1.4-0.8-1.9-1.3c-0.3,0.7-0.7,1.3-1,2
	C16.5,15.8,17.7,13.4,17.3,11z"/>
<path fill="#F5E0B3" d="M32.6,13.2c2.1,0.5,3.2-1.7,5-2.2c0.1,0.7,0.3,1.5,0.5,2.2c-1.4,0.5-2.8,1.3-3.2,2.8
	c-0.5,1.3,0.1,2.6,0.9,3.7c-0.3,0-0.8,0-1.1,0c0,1,0.8,1.6,1.6,2c-0.2,0.5-0.5,1.1-0.7,1.6c0.1,0.5,0.2,1.1,0.3,1.6
	c-0.2,0.1-0.7,0.2-0.9,0.2c-0.3-0.2-0.7-0.5-1-0.7c0.4-0.7,0.8-1.3,1.3-2c-0.5,0.2-1,0.3-1.5,0.5c-0.5-0.4-1.1-0.9-1.6-1.3
	c-0.3-0.2-0.6-0.5-0.9-0.7c-0.5-0.4-0.9-0.7-1.3-1.1c0.1-0.2,0.4-0.5,0.5-0.6c0.6-0.6,1.2-1.2,1.8-1.9c-0.6-0.2-1.1-0.4-1.6-0.5
	c0-0.2,0.1-0.5,0.2-0.7c0.8-0.6,1.6-1.3,2.3-2.1c-0.9-0.2-1.8,0.2-2.7,0.4c0.2-0.9,1-1.3,1.9-1.4L32.6,13.2z"/>
<path fill="#EDCA89" d="M23.4,13.8c0.4-0.7,0.8-1.4,1.1-2.1c1,0.9,2.5,0,3.7,0c0.1,0.5,0.2,0.9,0.4,1.4c-0.6-0.2-1.1-0.4-1.7-0.6
	c-0.4,0.4-1.1,0.6-1.1,1.3c1.3,0.4,2.6-0.1,3.9-0.1c0.1,0.9,0,1.9-0.1,2.8c-0.4-0.8-0.7-1.6-1.4-2.2c-1.3-0.2-2.8,0.2-4-0.6
	c0.2,0.9,0.6,1.6,1.4,2.1c-0.4,0.4-0.7,0.7-1.1,1.1c0,0.2,0.1,0.7,0.1,0.9c0.7,0.2,1.4,0.5,2.1,0.7c-0.1,0.1-0.3,0.4-0.4,0.6
	c-0.3,0.3-0.7,0.7-1,1c-1.2-0.1-2.4,0-3.6,0.1c-0.7-0.3-1.3-0.7-1.9-1.1c0.2-0.1,0.7-0.2,0.9-0.3c0.6,0,1.2-0.1,1.8-0.1
	c0.4-1,1.4-2.1,0.8-3.3c-1.5-0.3-3.1-0.1-4.7-0.2c0.2-0.6,0.3-1.1,0.5-1.7c0.7-0.2,1.4-0.3,2.1-0.5c-0.4,0.6-1.1,0.9-1.8,1.3
	c0,0.1,0,0.3,0,0.4C20.8,14.7,22.4,14.9,23.4,13.8z"/>
<path fill="#EAD3A1" d="M41.7,11.6c1.3,0.1,2.6,0.3,3.9,0.5c0.1,0.2,0.2,0.7,0.3,0.9c-1.3,3.2-0.5,6.8-0.6,10.1
	c-0.2,2.7-0.1,5.4,0,8.1c-1.1,0.4-2.2,0.8-3.3,1c-0.2-1.6-0.3-3.1-0.2-4.7c0.2-2.3-0.1-4.6-0.3-6.8c-0.2-0.1-0.7-0.2-0.9-0.3
	c1-0.6,2.1-1.2,2.8-2.1c0.3-0.4,0.3-0.8,0.1-1.2C42.8,15.2,43.4,12.8,41.7,11.6z"/>
<path fill="#651414" d="M6.4,12.2c0.7,0,1.4,0,2,0c0.8,0,1.6,0,2.4,0.3c-0.6,0.3-1.1,0.7-1.7,1c1,0.3,2,0.5,3,0.6
	c-0.7,0.4-1.5,0.6-2.3,0.8c0.3,0.3,0.6,0.6,0.8,0.9c-0.3,0.2-0.7,0.5-1,0.7c0.9-0.4,1.8-0.7,2.2,0.5c0.5,0.2,1,0.5,1.5,0.7
	c-0.8,0.7-2,0.9-3,0.8l-0.5,0c-1.3,0-2.6,0.2-4,0.3c-0.2-0.4-0.4-0.9-0.5-1.3c0.5-0.3,0.9-0.6,1.4-0.9c-0.1-0.4-0.3-0.9-0.4-1.3
	c1.3-0.2,1.4,1.3,1.9,2.1c0-0.7,0.1-1.4,0.1-2.1c-0.9,0-1.9-0.2-2.4-1.1c0.7,0,1.3-0.1,2-0.1c0-0.2-0.1-0.7-0.1-0.9
	c-0.3,0-0.9,0-1.2,0C6.6,12.9,6.4,12.4,6.4,12.2z"/>
<path fill="#762417" d="M14.4,18c0-1.4,0.8-2.5,2-3.1C16.6,16.3,16,17.9,14.4,18z"/>
<path fill="#F7E3BB" d="M27.1,15.1c1.7-0.3-0.1,1.9-0.5,0.5C26.7,15.4,26.9,15.2,27.1,15.1z"/>
<path fill="#964B2D" d="M21.1,16.3c0.5,0.3,0.5,0.5-0.1,0.8C20.4,16.9,20.5,16.6,21.1,16.3z"/>
<path fill="#F1D49C" d="M28.6,17.4c0.3-0.2,0.7-0.5,1-0.7c0.2,0.9,0.4,1.7,0.7,2.6c-0.1,0.2-0.4,0.5-0.5,0.6
	c0.4,0.4,0.9,0.7,1.3,1.1c-2-0.4-3.9-0.9-5.9-1.1c0.3-0.3,0.7-0.7,1-1c0.1-0.1,0.3-0.4,0.4-0.6C27,17.7,27.8,17.2,28.6,17.4z"/>
<path fill="#F4DAA7" d="M5.7,18.8c1.3-0.2,2.6-0.3,4-0.3c-0.8,3.1-0.3,6.2,0.2,9.3c0.2,1.4,0,2.9-0.5,4.2c-1.6-0.8-3.7-0.6-4.7-2.3
	c0.3-0.5,0.5-1,0.4-1.6C4.5,25,5.3,21.9,5.7,18.8z"/>
<path fill="#EACC86" d="M9.7,18.5l0.5,0c1.9,1.9,1.3,4.7,1.5,7.2c0.2,2.3,0.1,4.6-0.1,6.9c-0.8-0.1-1.6-0.3-2.3-0.6
	c0.5-1.3,0.7-2.8,0.5-4.2C9.4,24.7,8.9,21.6,9.7,18.5z"/>
<g>
	<path fill="#F9EACA" d="M34.6,19.8c0.3,0,0.8,0,1.1,0c1.4,0.9,3.1,1.1,4.7,0.5c0.2,0.1,0.7,0.2,0.9,0.3c0.2,2.3,0.4,4.6,0.3,6.8
		c-0.1,1.6,0,3.2,0.2,4.7c-2,0.5-4.1,1.1-6.2,1.3c0.1-0.7,0.1-1.3,0.2-1.9l0-0.3c-0.2-0.5-0.4-1-0.7-1.5c-0.4-0.5-0.9-1.1-1.3-1.6
		c0.5-0.1,1-0.1,1.5-0.2c-0.1-0.2-0.3-0.7-0.4-0.9l0.2-0.5c0.1-0.3,0.2-0.7,0.3-1c-0.1-0.1-0.4-0.3-0.5-0.4c0.2-0.1,0.7-0.2,0.9-0.2
		c-0.1-0.6-0.2-1.1-0.3-1.6c0.2-0.6,0.4-1.1,0.7-1.6C35.4,21.4,34.6,20.8,34.6,19.8z M37.2,29c-0.6,0.5-0.4,1.4-0.2,2.1
		c0.6,0,1.2-0.3,1.7,0.2C38.4,30.5,38.2,29.4,37.2,29z"/>
</g>
<path fill="#A5834C" d="M19.8,20.8c0.6-0.2,1.2-0.5,1.8-0.7c1.2-0.1,2.4-0.2,3.6-0.1c2,0.2,4,0.7,5.9,1.1c0.3,0.2,0.6,0.5,0.9,0.7
	c-0.3-0.1-0.9-0.2-1.1-0.2c-1.3-0.3-2.6-0.6-3.9-0.9c-2.1-0.3-4.2-0.2-6.2,0.3c-0.1,0.4-0.3,0.9-0.4,1.3c0-0.4,0-1.1,0-1.4
	L19.8,20.8z"/>
<path fill="#E9C781" d="M20.8,21c2-0.5,4.2-0.6,6.2-0.3c-0.5,0.7-1.3,1.4-1.4,2.3c0,1.2,0.3,2.3,0.1,3.5c-1.7-0.3-3.6,0-5.2-0.9
	c-0.5-0.3-0.9-0.7-1.4-1c0.5-0.7,0.9-1.5,1.2-2.3C20.5,21.8,20.6,21.4,20.8,21z"/>
<path fill="#070201" d="M18.5,21.2c0.3-0.1,0.9-0.3,1.3-0.4l0.6,0.1c0,0.4,0,1.1,0,1.4c-0.3,0.8-0.7,1.6-1.2,2.3
	c-0.5,0.4-1,0.8-1.5,1.1c-0.1-1.2-0.1-2.4-0.3-3.6c0.2-0.2,0.7-0.6,0.9-0.8c0.4,0.6,0.7,1.1,1.1,1.7C19.1,22.4,18.8,21.8,18.5,21.2z
	"/>
<g>
	<path fill="#EED39A" d="M25.6,23c0.2-0.9,0.9-1.6,1.4-2.3c1.3,0.3,2.6,0.7,3.9,0.9c-0.8,1.6-0.2,3.3,0.2,4.9
		c0.2,0.1,0.7,0.3,0.9,0.4c1-0.1,2.1-0.2,3.1-0.3l-0.2,0.5c-1.5,0.1-3,0.1-4.5,0.2c0.1,1,0.2,1.9,0.5,2.9c0.1,0.5,0.1,1,0.1,1.5
		c0.6,0,1.1,0.1,1.7,0.1c-0.1,0.2-0.2,0.5-0.3,0.7c-1.5,0.4-3.1,0.6-4.6,0.9c1.3,0.1,2.6,0.2,4,0.4c-2,0.7-4.2,0.2-6.3,0.3
		c-0.1-0.6-0.1-1.3-0.2-1.9c0.3,0,1-0.1,1.3-0.2c-0.2-0.5-0.4-0.9-0.6-1.4c-0.2-0.9-0.4-1.7-0.7-2.5c0.4,0.1,0.8,0.2,1.3,0.4
		c0,0.3,0.1,0.9,0.1,1.2c0.3-0.7,0.6-1.4,0.8-2.1c-0.4-0.6-0.8-1.3-1.2-1.9c0,0.4,0,1.1,0,1.5c-0.2-0.1-0.5-0.4-0.6-0.6l-0.2-0.1
		C25.9,25.3,25.6,24.2,25.6,23z M27.8,29.9c0.3,0,1-0.1,1.3-0.1c-0.2-0.9-0.5-1.8-0.5-2.8C27.8,27.7,28.2,29,27.8,29.9z M28.3,31.1
		c0,0.3,0.1,0.9,0.1,1.2c0.5-0.2,1-0.4,1.6-0.5c-0.2-0.6-0.5-1.1-0.9-1.6C28.9,30.4,28.5,30.9,28.3,31.1z"/>
</g>
<path fill="#040101" d="M30.9,21.6c0.3,0.1,0.9,0.2,1.1,0.2c0.5,0.4,1.1,0.9,1.6,1.3c0.5-0.2,1-0.3,1.5-0.5c-0.4,0.7-0.9,1.3-1.3,2
	c0.3,0.3,0.6,0.5,1,0.7c0.1,0.1,0.4,0.3,0.5,0.4c-0.1,0.3-0.2,0.7-0.3,1c-1,0.1-2.1,0.1-3.1,0.3c-0.2-0.1-0.7-0.3-0.9-0.4
	C30.8,24.9,30.1,23.2,30.9,21.6z"/>
<path fill="#270D01" d="M19.1,26.4c0.4-0.3,0.9-0.5,1.4-0.8c1.6,0.9,3.5,0.6,5.2,0.9l0.2,0.1c-1.7,0-3.4,0-5-0.1c0,0.5,0,1,0.1,1.4
	c-0.7-0.5-1.4-0.9-2.1-1.2C18.9,26.7,19,26.5,19.1,26.4z"/>
<path fill="#270D01" d="M26.5,25.7c0.4,0.6,0.8,1.3,1.2,1.9c-0.3,0.7-0.5,1.4-0.8,2.1c0-0.3-0.1-0.9-0.1-1.2c0-0.2-0.1-0.7-0.1-0.9
	l-0.1-0.4C26.5,26.8,26.5,26.1,26.5,25.7z"/>
<g>
	<path fill="#EAC680" d="M20.8,26.5c1.7,0.1,3.3,0.1,5,0.1c0.2,0.1,0.5,0.4,0.6,0.6l0.1,0.4c0,0.2,0.1,0.7,0.1,0.9
		c-0.4-0.1-0.9-0.2-1.3-0.4c0.2,0.8,0.5,1.7,0.7,2.5c-0.5,0.1-1,0.1-1.5,0.2c0,0.2-0.1,0.7-0.1,1c0.2,0.1,0.6,0.3,0.8,0.4
		c0.1,0.6,0.1,1.3,0.2,1.9c-1.4,0.1-2.7,0-4.1-0.3c0.1-0.5,0.2-1,0.3-1.5c0.6,0,1.2,0.1,1.9,0.1c-0.1-0.6-0.1-1.2-0.2-1.8
		c-0.4,0-0.9-0.1-1.3-0.1c-0.1,0.3-0.2,1-0.3,1.3c-0.2,0-0.5-0.1-0.6-0.2c-0.5-0.2-1-0.3-1.5-0.5l0.3-0.5c0.7-0.2,1.6-0.3,1.6-1.2
		c-0.5,0.1-0.9,0.1-1.4,0.2c-0.4-0.8-0.9-1.6-1.3-2.4c0,0.3-0.1,1-0.1,1.4c-0.1-0.6-0.1-1.3,0-1.9c0.7,0.3,1.4,0.8,2.1,1.2
		C20.9,27.5,20.9,27,20.8,26.5z M20.8,29c0.5,0.5,1.2-0.3,0.9-0.8C21.2,27.6,20.4,28.5,20.8,29z"/>
</g>
<path fill="#7E5537" d="M27.8,29.9c0.3-0.9,0-2.2,0.8-2.9c0,1,0.3,1.9,0.5,2.8C28.8,29.9,28.2,29.9,27.8,29.9z"/>
<path fill="#F3DEB2" d="M30.4,27.4c1.5-0.1,3-0.1,4.5-0.2c0.1,0.2,0.3,0.7,0.4,0.9c-0.5,0-1,0.1-1.5,0.2c0.4,0.5,0.9,1,1.3,1.6
	C34.6,29.9,34,30,33.4,30c0.2,0.6,0.4,1.1,0.6,1.7c0.6-0.1,1.1-0.3,1.7-0.4l0,0.3c0,0.6-0.1,1.3-0.2,1.9c-1.3,0.2-2.6,0.4-3.9,0.3
	c-1.3-0.1-2.6-0.3-4-0.4c1.5-0.2,3.1-0.5,4.6-0.9c0.1-0.2,0.2-0.5,0.3-0.7c-0.1-0.7-0.2-1.3-0.3-2c-0.5,0.1-1,0.2-1.5,0.4
	C30.7,29.3,30.5,28.4,30.4,27.4z"/>
<path fill="#7A4E2A" d="M18.9,27.3c0.5,0.8,0.9,1.6,1.3,2.4c-0.3,0-0.9,0.1-1.2,0.2c-0.1-0.3-0.2-0.9-0.2-1.2
	C18.8,28.3,18.9,27.6,18.9,27.3z"/>
<path fill="#270D01" d="M20.8,29c-0.4-0.5,0.4-1.4,0.9-0.8C22.1,28.7,21.3,29.5,20.8,29z"/>
<path fill="#7B5639" d="M37.2,29c1,0.3,1.2,1.5,1.6,2.3c-0.5-0.5-1.2-0.2-1.7-0.2C36.8,30.5,36.6,29.6,37.2,29z"/>
<path fill="#A06635" d="M13.5,29.4c0.3,0,1,0.1,1.3,0.1c-0.1,0.6-0.1,1.2-0.2,1.9c-0.5,0-1,0-1.5,0C13.1,30.7,13.3,30.1,13.5,29.4z"
	/>
<path fill="#9F6337" d="M16,30.2c0.5-0.1,1.1-0.2,1.7-0.3c0,0.7,0.1,1.4,0.1,2c-0.7-0.1-1.4-0.1-2.1-0.2
	C15.8,31.2,15.9,30.7,16,30.2z"/>
<path fill="#7B5639" d="M30.9,30.3c0.5-0.1,1-0.2,1.5-0.4c0.1,0.7,0.2,1.3,0.3,2c-0.6-0.1-1.1-0.1-1.7-0.1
	C30.9,31.3,30.9,30.8,30.9,30.3z"/>
<path fill="#793D26" d="M33.4,30c0.6-0.1,1.1-0.1,1.7-0.2c0.2,0.5,0.5,1,0.7,1.5c-0.6,0.1-1.2,0.3-1.7,0.4
	C33.9,31.2,33.7,30.6,33.4,30z"/>
<path fill="#6A1417" d="M19.5,30.9c0.1,0,0.4-0.1,0.6-0.2l-0.3,0.5c0.5,0.2,1,0.3,1.5,0.5c-0.7,0.2-1.5,0.4-2.2,0.6
	C19.2,31.8,19.3,31.3,19.5,30.9z"/>
<path fill="#914C32" d="M22.1,30.6c0.4,0,0.9,0.1,1.3,0.1c0.1,0.6,0.1,1.2,0.2,1.8c-0.6,0-1.3-0.1-1.9-0.1l0.1-0.5
	C21.9,31.6,22,30.9,22.1,30.6z"/>
<path fill="#7B5639" d="M24.6,30.9c0.5-0.1,1-0.1,1.5-0.2c0.2,0.5,0.4,0.9,0.6,1.4c-0.3,0-1,0.1-1.3,0.2c-0.2-0.1-0.6-0.3-0.8-0.4
	C24.5,31.6,24.5,31.1,24.6,30.9z"/>
<path fill="#6A1417" d="M28.3,31.1c0.2-0.2,0.6-0.7,0.8-0.9c0.4,0.4,0.7,1,0.9,1.6c-0.5,0.2-1,0.3-1.6,0.5
	C28.4,32,28.3,31.4,28.3,31.1z"/>
<path fill="#F7E3BB" d="M43.9,31.9c0.8-0.3,1.6-0.4,2.4-0.4c-3.6,2-7.7,2.5-11.7,3.2c-1.5,0.2-2.9,0.5-4.4,0.4
	c-0.7-0.2-1.4-0.4-2.1-0.6C33.4,34.3,38.8,33.5,43.9,31.9z"/>
<path fill="#E9C87F" d="M12,33.3c1.5-0.1,2.9,0.6,4.4,0.6c2,0.3,4,0.4,6,0.5c0.1,0.2,0.3,0.7,0.5,0.9c-3.4-0.2-6.8-0.5-10.1-1.4
	C12.5,33.7,12.1,33.4,12,33.3z"/>
<path fill="#EEC28D" d="M22.3,34.4c1.9,0.2,3.9-0.1,5.8,0.1c0.7,0.2,1.4,0.4,2.1,0.6l0.2,0.1c-2.6,0.2-5.1,0.2-7.7,0.1
	C22.7,35.1,22.4,34.6,22.3,34.4z"/>
</svg>
