<?xml version="1.0" encoding="utf-8"?>
<!-- Generator: Adobe Illustrator 18.1.1, SVG Export Plug-In . SVG Version: 6.00 Build 0)  -->
<svg version="1.1" id="图层_1" xmlns="http://www.w3.org/2000/svg" xmlns:xlink="http://www.w3.org/1999/xlink" x="0px" y="0px"
	 viewBox="0 0 52.3 45.3" enable-background="new 0 0 52.3 45.3" xml:space="preserve">
<path fill="#D4B651" d="M19.1,1c2.3-0.5,4.7-1.2,7.1-0.9c1.2,0.1,2.3,0.3,3.5,0.4c-1.8-0.1-3.5,0.6-4.9,1.6c-2.2,1.5-4.8,2.3-6.9,4
	c0.4-1.6,0.9-3.3,1.3-4.9L19.1,1z"/>
<g>
	<path fill="#2362A5" d="M24.7,2.1c1.4-1,3.2-1.7,4.9-1.6c0.6,0.1,1.1,0.3,1.7,0.4c1,1.9,1.7,3.9,1.8,6.1c0.2,3.1-0.3,6.1-0.1,9.2
		c0.4-0.6,1-1.2,1.2-2c0.1-1.2-0.2-2.3-0.2-3.5c0.2,1,0.6,2.1,0.5,3.2c-0.4,1.2-1.1,2.2-1.7,3.3c-0.3-2.2-0.4-4.4-0.6-6.7
		c-0.1-1.6-1.2-3.1-2.6-3.9C29,6.3,28.3,6,27.5,5.9c-1.1,0.1-2.1,0.6-3.1,1c1.3,0.6,2.6,1.5,3.5,2.7c0.4-0.7,0.8-1.4,1.2-2.1
		c0,0.3,0.1,0.9,0.1,1.3c0.4,0,1.1,0.1,1.5,0.1c-0.5,0.1-1.1,0.2-1.6,0.4c-0.6,0.7-1.2,1.4-1.9,2.1C26.9,10.2,27,8.8,26,8.2
		c-1-0.8-2.3-0.6-3.4-0.5c1.7-1.2,3.6-2.8,5.8-2.2c1.7,0.7,2.8,2.2,4.1,3.4c0-2.1,0.1-4.5-1.4-6.2c-1.4-1.2-3.4-0.4-5,0.1
		c-0.2,0-0.6,0-0.8,0.1c-2.5,1.3-5.6,1.9-7.3,4.3l-0.1,0.2c-0.2,0.8-0.4,1.5-0.5,2.3l-0.1,0.1c0,1.2,1.4,2.1,1,3.3
		c-0.3,0.7-1,1.1-1.4,1.7c2.4,0.4,2.4-2.6,1.9-4.1c0.2,0,0.6,0,0.8,0c-0.2,2.7,0.1,5.5,1.8,7.7c2.5,3.2,7.6,2.8,10.6,0.5
		c0,1.1,0.2,2.2,1,3c0.5-0.2,1-0.4,1.4-0.6c-0.4,0.4-0.8,0.7-1.3,1c-0.8-0.7-1.2-1.8-1.5-2.8c-1.6,1-3.5,1.3-5.4,1.4
		c0.2,0.4,0.3,0.7,0.4,1.1l0,0.2c-0.8-0.8-1.8-1.4-2.9-1.7c-0.4,0.5-0.7,1-1.1,1.5c-0.2,0.2-0.7,0.7-0.9,0.9
		c0.4-0.8,0.9-1.6,1.3-2.4c-1.9-1.6-3-3.8-3.7-6.1c-0.7,0.4-1.4,0.8-2.1,1.2c0.6,1.7,1.5,3.4,1.5,5.2c-1.2-2.6-2.6-5.2-3-8.1
		c-0.3-1.9,0.8-3.7,1.5-5.4c0.2-0.4,0.4-0.8,0.5-1.2C19.9,4.4,22.5,3.6,24.7,2.1z M16.4,10.4c-0.1,1.3-0.1,2.5,0,3.8
		c0.6-0.4,1.4-0.7,1.5-1.5C17.9,11.6,17,11,16.4,10.4z"/>
</g>
<path fill="#FCE989" d="M31.3,0.8c3.8,0.5,7.1,2.9,9.9,5.4c-0.8,1.4-1.7,2.8-2.7,4.1c-0.2-0.1-0.7-0.2-0.9-0.3c-1.5-1-2.9-2.1-4.4-3
	C33,4.8,32.3,2.7,31.3,0.8z"/>
<path fill="#BE9B3E" d="M13.5,3.6c1.8-1,3.6-2,5.6-2.5c-0.3,1.7-0.9,3.3-1.3,4.9c-0.2,0.4-0.3,0.8-0.5,1.2c-2.7,1.8-5,4.2-6.5,7
	c-0.6-2.5,1.2-4.6,2.2-6.7c0.7-1.2,0.6-2.5,0.5-3.8L13.5,3.6z"/>
<path fill="#FCFEFD" d="M26.1,2.7c1.5-0.6,3.5-1.4,5-0.1c1.5,1.7,1.4,4.1,1.4,6.2c-1.3-1.2-2.4-2.7-4.1-3.4c-2.2-0.6-4.1,1-5.8,2.2
	c-0.2,0.1-0.5,0.2-0.6,0.3C22.7,5.8,24.5,4.3,26.1,2.7z"/>
<path fill="#509FD1" d="M18,7.1c1.7-2.4,4.8-3,7.3-4.3c0.2,0,0.6,0,0.8-0.1c-1.6,1.5-3.4,3.1-4.2,5.2c-0.1,0.2-0.2,0.5-0.3,0.7
	c-0.6,0.7-1.3,1.4-2,2c-0.2,0-0.6,0-0.8,0c-0.5-0.3-0.9-0.7-1.4-1c0.2-0.8,0.3-1.5,0.5-2.3c0,0.5-0.2,1.5,0.4,1.7
	C19.2,8.7,18.7,7.4,18,7.1z"/>
<path fill="#AB8335" d="M4.3,16.9c1.1-5.4,4.5-10.2,9.1-13.2c0,1.3,0.1,2.7-0.5,3.8c-1,2.1-2.9,4.2-2.2,6.7
	c-0.1,0.3-0.3,0.7-0.4,1.1c-0.4-0.1-0.7-0.2-1.1-0.4c-0.5,1.2-1,2.4-1.8,3.5c-1.4,2-2.2,4.3-3.6,6.3C3.9,22.2,3.8,19.5,4.3,16.9z"/>
<path fill="#3D92C9" d="M24.4,6.9c1-0.4,2-0.9,3.1-1C28.3,6,29,6.3,29.7,6.7c-0.1,0.5-0.3,1.5-0.4,2c0.4,0.1,1.1,0.2,1.5,0.2
	c-0.4,0-1.1-0.1-1.5-0.1c0-0.3-0.1-0.9-0.1-1.3c-0.4,0.7-0.8,1.4-1.2,2.1C27,8.4,25.8,7.5,24.4,6.9z"/>
<path fill="#EFD482" d="M38.5,10.3c1-1.3,1.9-2.6,2.7-4.1c0.6,0.5,1.1,1.1,1.7,1.7L42.8,8c-1.1,1.3-1.9,3-3.2,4.2l-0.2,0.2
	C39.1,11.7,38.8,11,38.5,10.3z"/>
<path fill="#73BFEE" d="M18,7.1c0.7,0.3,1.2,1.6,0.3,2c-0.7-0.2-0.4-1.2-0.4-1.7L18,7.1z"/>
<g>
	<path fill="#FCDABC" d="M29.7,6.7c1.4,0.8,2.4,2.2,2.6,3.9c0.2,2.2,0.3,4.5,0.6,6.7c0.6-1.1,1.3-2.1,1.7-3.3
		c0.1-1.1-0.3-2.1-0.5-3.2l0-0.3c0.6,0.1,1.2,0.3,1.8,0.4c-0.4,0.5-0.8,1-1.2,1.5c0.8-0.4,1.5-0.8,2.3-1.1c0.5,0.5,1,0.9,1.5,1.4
		c-0.7,0.8-1.4,1.5-2.1,2.3c0.2,2.3-1,4.3-1.7,6.4c-0.5,0.2-0.9,0.4-1.4,0.6c-0.8-0.8-1-1.9-1-3c-3,2.3-8.1,2.8-10.6-0.5
		c-1.7-2.2-2-5-1.8-7.7c0.7-0.6,1.4-1.3,2-2c0.1-0.2,0.2-0.5,0.3-0.7c0.2-0.1,0.5-0.2,0.6-0.3c1.1,0,2.5-0.3,3.4,0.5
		c1,0.7,1,2,1.2,3.1c0.7-0.6,1.3-1.3,1.9-2.1c0.5-0.1,1.1-0.2,1.6-0.4c-0.4-0.1-1.1-0.2-1.5-0.2C29.4,8.1,29.6,7.2,29.7,6.7z
		 M22.6,10.7c-0.4,0.3-0.7,0.6-1.1,0.9c0.6,0,1.1-0.1,1.7-0.1C23,11.2,22.8,11,22.6,10.7z M30.3,12.5c-1,1.1-0.1,2.8,1.2,3.2
		c0.1-0.5,0.1-1,0.2-1.5c-0.4-0.2-0.7-0.3-1.1-0.5c0.1-0.3,0.2-0.9,0.3-1.2c0.3-0.1,0.9-0.2,1.2-0.2C31.5,12,30.7,11.8,30.3,12.5z
		 M22.8,16.2c1,0.4,2.1,0.4,3.2,0c0-0.2-0.1-0.6-0.2-0.9C24.7,15.2,23.6,15.3,22.8,16.2z M28.4,17.2c0,0.1,0.1,0.4,0.2,0.5l0.6-0.3
		c0,0.3,0,0.8,0.1,1c0-0.2,0.1-0.6,0.2-0.8c0.2-0.1,0.6-0.2,0.8-0.3C29.6,17.2,29,17.2,28.4,17.2z"/>
</g>
<path fill="#FEFEFE" d="M33.2,6.9c1.5,0.9,3,2,4.4,3c-0.6,0.3-1.2,0.6-1.8,0.9c-0.6-0.1-1.2-0.3-1.8-0.4l0,0.3
	c0.1,1.1,0.3,2.3,0.2,3.5c-0.3,0.7-0.8,1.4-1.2,2C32.9,13.1,33.4,10,33.2,6.9z"/>
<g>
	<path fill="#FEFFFE" d="M10.7,14.3c1.5-2.9,3.8-5.2,6.5-7c-0.8,1.7-1.8,3.4-1.5,5.4c0.4,2.9,1.8,5.5,3,8.1c0.1,1.3,0,2.6,0,4
		c1-0.6,2-1.2,2.9-1.8c0.2-0.2,0.7-0.7,0.9-0.9c0.3,0.9,0.7,1.8,1,2.8c0.5,0.2,1.1,0.3,1.6,0.5c0.1,0,0.3,0.1,0.5,0.1
		c0.3-0.6,0.4-1.3,0.6-1.9c0.1-0.4,0.2-0.9,0.3-1.3l0-0.2c-0.1-0.4-0.3-0.7-0.4-1.1c1.9-0.1,3.8-0.4,5.4-1.4c0.4,1,0.7,2,1.5,2.8
		c0.5-0.3,0.9-0.6,1.3-1c1.4-1.4,2.1-3.3,2.4-5.2c0.2-1.6,1.5-2.6,2.5-3.7l0.2-0.2c0.4,0.8,0.9,1.5,1.3,2.3c0.3,0.7,0.7,1.5,1,2.2
		c0.5,2.1,0.8,4.3,0.7,6.4c-0.1,0.6-0.1,1.1-0.2,1.7c-0.2,1.2-0.5,2.3-0.9,3.5c-0.6,0.5-1.2,0.9-1.9,1.2c-1.4,0.4-2.9,0.7-4.3,0.4
		c-1.9-0.5-3.8-1.1-5.7-0.2c-0.1-0.2-0.2-0.5-0.2-0.7c-1.7,0.6-3.4,0.3-5-0.4c-3-0.6-6.6-0.5-8.9,1.8c0.5,0.5,0.7,1.1,0.8,1.8
		c-0.7-0.3-1.3-0.7-1.1-1.6c-1.2,0.3-2.5,0.6-3.4-0.4c0.2-0.6,0.4-1.3,0.6-1.9c-0.3,0.3-0.8,0.8-1.1,1c-2-2-2.3-5-2.3-7.7
		c0.1-2.2,0.5-4.3,1.3-6.3C10.4,15,10.6,14.7,10.7,14.3z M32.3,22.8c-0.2,0.5,0,0.8,0.5,0.9c-1.2,0-2.3,0.4-3,1.3
		c0.3,0.7,0.7,1.4,1,2.1c1-0.2,2-0.4,3-0.6c0.1,0.2,0.4,0.7,0.6,0.9c0.6,0.2,1.3,0.4,1.9,0.6c0.6-0.9,0.7-1.9,0.3-2.9
		c-0.3,0-0.9-0.1-1.2-0.1c0.1-0.7,0.1-1.3,0.2-2c-0.3,0-0.8-0.1-1.1-0.1c-0.2,1.1-0.5,2.2-0.7,3.3c-0.1-0.9,0.1-1.9-0.7-2.5
		C33.5,23.2,32.8,22.5,32.3,22.8z M26.9,22.7c0,1.3-0.7,2.8-0.2,4.1c0.1,0,0.3,0,0.4,0c0-0.3,0.1-0.9,0.2-1.2c0.3,0,0.9,0,1.2,0.1
		c-0.2,0.6-0.3,1.2-0.5,1.8c-0.7,0-1.4-0.1-2.1-0.4c-0.6-0.6-1.1-1.4-2-1.6c-0.1,2.5,3.2,4,5,2.5c1.2-0.9,0-2.6,0.8-3.7
		c-0.2-0.2-0.5-0.7-0.6-0.9C28.5,23.2,27.7,23,26.9,22.7z M30.6,23.2 M10.8,25.6c0.1,1.5,1.9,1.7,3,2.1c0.7,1.2-0.8,1.9-1.5,2.6
		c0.7,0,1.4,0,2-0.1c0.9-0.2,1.2-1.2,1.6-1.9c-0.3-0.8-0.4-1.6-1-2.2c-0.9-0.5-2.1-0.5-2.7-1.4c0.6-0.2,2.8-0.2,1.5-1.2
		C12.4,22.7,10.3,23.9,10.8,25.6z M21,23.6c0.9,0.8,1,2.3,0.2,3.2c-0.2-0.4-0.4-0.8-0.5-1.2c0.2-0.5,0.4-1,0.6-1.5
		c-0.7,0.6-1.5,1.1-2.4,1.5c-0.5,0.8-1.1,1.5-2.2,1.3c0-0.3-0.1-0.9-0.1-1.3c0.3,0.2,0.9,0.5,1.2,0.7c0-0.3,0-0.9,0-1.2
		c-1.1-0.9-2.8,0.6-2,1.8c0.3,1.4,2.1,1.2,3.1,0.5c0.3-0.7,0.6-1.3,0.9-2c0.2,0.6,0.4,1.2,0.6,1.8c0.9,0.1,1.7,0.2,2.6,0.4
		c0-1.3-0.2-2.6-0.5-3.9C22,23.7,21.5,23.6,21,23.6z M39.6,23.4c-0.1,1-0.2,2-0.6,2.9c-0.4-0.7-0.7-1.5-1.6-1.7
		c-0.6,1.4,0.9,2.4,0.7,3.8c-1.8,0.2-3.3-0.6-4.9-1.2c-1.1,0.1-2.1,0.7-3,1.3c3.1-0.6,6.2,1.7,9.2,0.3c0.9-1.4,1.4-3.2,1.4-4.9
		C40.4,23.8,39.8,23.5,39.6,23.4z"/>
</g>
<path fill="#DDC271" d="M39.6,12.2c1.3-1.2,2-2.9,3.2-4.2c0.4,0.4,0.7,0.9,1.1,1.3c-0.8,1.8-2.5,3.2-3,5.2
	C40.5,13.7,40.1,12.9,39.6,12.2z"/>
<path fill="#FEFFFD" d="M17.3,9.7l0.1-0.1c0.5,0.3,0.9,0.7,1.4,1c0.4,1.6,0.4,4.5-1.9,4.1c0.4-0.6,1.1-1,1.4-1.7
	C18.6,11.8,17.3,10.9,17.3,9.7z"/>
<path fill="#CDB061" d="M40.9,14.5c0.5-2,2.2-3.3,3-5.2c0.7,0.8,1,1.9,1.6,2.7c-1.5,1.3-2.3,3.3-3.6,4.7
	C41.6,15.9,41.3,15.2,40.9,14.5z"/>
<path fill="#C5B2A6" d="M35.7,10.9c0.6-0.3,1.2-0.6,1.8-0.9c0.2,0.1,0.7,0.2,0.9,0.3c0.3,0.7,0.6,1.4,0.9,2.1c-1,1-2.3,2.1-2.5,3.7
	c-0.3,1.9-1,3.8-2.4,5.2c0.7-2.1,1.9-4.1,1.7-6.4c0.7-0.8,1.4-1.5,2.1-2.3c-0.5-0.5-1-0.9-1.5-1.4c-0.8,0.4-1.5,0.8-2.3,1.1
	C34.9,11.8,35.3,11.3,35.7,10.9z"/>
<path fill="#2285C4" d="M16.4,10.4c0.6,0.7,1.5,1.3,1.5,2.3c-0.1,0.8-1,1.1-1.5,1.5C16.3,12.9,16.3,11.6,16.4,10.4z"/>
<path fill="#123834" d="M22.6,10.7c0.2,0.3,0.4,0.5,0.6,0.8c-0.6,0-1.1,0.1-1.7,0.1C21.8,11.3,22.2,11,22.6,10.7z"/>
<path fill="#010101" d="M30.3,12.5c0.4-0.6,1.2-0.5,1.8-0.3c-0.3,0.1-0.9,0.2-1.2,0.2c-0.1,0.3-0.2,0.9-0.3,1.2
	c0.4,0.2,0.7,0.3,1.1,0.5c-0.1,0.5-0.1,1-0.2,1.5C30.3,15.2,29.3,13.6,30.3,12.5z"/>
<path fill="#BC9D52" d="M41.9,16.7c1.4-1.5,2.1-3.4,3.6-4.7c0.4,0.8,0.7,1.7,1.1,2.5c-0.6,0.9-1.2,1.9-1.6,2.9
	c-0.8,2-2.2,3.7-2.5,5.8C42.7,21,42.4,18.8,41.9,16.7z"/>
<path fill="#58A9DD" d="M17.2,15.6c0.7-0.4,1.4-0.8,2.1-1.2c0.7,2.3,1.8,4.6,3.7,6.1c-0.4,0.8-0.9,1.6-1.3,2.4
	c-0.9,0.7-1.9,1.2-2.9,1.8c0-1.3,0.1-2.6,0-4C18.7,18.9,17.8,17.3,17.2,15.6z"/>
<path fill="#BA9139" d="M9.2,15c0.4,0.1,0.7,0.2,1.1,0.4c-0.8,2-1.2,4.1-1.3,6.3c-0.2,0.7-0.5,1.3-0.9,1.9c-0.7,0.5-1.5,0.8-2.1,1.3
	c0.2,1.8,1.2,3.3,1.8,5c1.1-0.1,2.1-0.1,3.2-0.3c-1.2,0.9-2.7,1.3-4.2,1.7c0-1.1,0.3-2.4-0.4-3.3c-0.8-1.1-1.7-2.1-2.6-3.2
	c1.4-2,2.2-4.3,3.6-6.3C8.2,17.4,8.7,16.2,9.2,15z"/>
<path fill="#A8883E" d="M45,17.3c0.4-1,0.9-2,1.6-2.9c0.4,1.1,0.7,2.2,0.8,3.4c-1.1,2.5-2.5,4.8-4.1,7.1c-0.2,0-0.7-0.1-1-0.1
	c0.1-0.6,0.1-1.2,0.2-1.7C42.8,21,44.3,19.3,45,17.3z"/>
<path fill="#B36768" d="M22.8,16.2c0.8-0.9,1.9-1,3-0.9c0,0.2,0.1,0.6,0.2,0.9C25,16.6,23.9,16.5,22.8,16.2z"/>
<path fill="#020101" d="M28.4,17.2c0.6,0,1.2,0.1,1.8,0.1c-0.2,0.1-0.6,0.2-0.8,0.3c0,0.2-0.1,0.6-0.2,0.8c0-0.3,0-0.8-0.1-1
	l-0.6,0.3C28.5,17.5,28.4,17.3,28.4,17.2z"/>
<path fill="#9A772E" d="M47.5,17.9c0.6,4.2,0.3,8.5-1.2,12.4c-0.1,0-0.3,0.1-0.4,0.1c-0.2,0-0.6,0-0.8,0.1c-1.2-0.5-2.4-1-3.6-1.6
	c0-0.1,0-0.4,0-0.5c0.3-1.2,0.7-2.3,0.9-3.5c0.2,0,0.7,0.1,1,0.1C44.9,22.7,46.4,20.4,47.5,17.9z"/>
<path fill="#FBDFC1" d="M22.6,22c0.4-0.5,0.7-1,1.1-1.5c1.1,0.3,2.1,0.9,2.9,1.7c-0.1,0.4-0.2,0.9-0.3,1.3c-0.8,0.2-1.2,1-1,1.8
	c-0.5-0.2-1.1-0.3-1.6-0.5C23.3,23.9,22.9,22.9,22.6,22z"/>
<path fill="#CCA442" d="M8.2,23.6C8.6,23,8.8,22.3,9,21.7c0,2.7,0.3,5.7,2.3,7.7c-0.1,0.1-0.2,0.2-0.3,0.2c-1.1,0.1-2.1,0.2-3.2,0.3
	c-0.6-1.7-1.6-3.2-1.8-5C6.7,24.4,7.5,24.1,8.2,23.6z"/>
<path fill="#4D6C8F" d="M32.3,22.8c0.5-0.3,1.2,0.4,0.8,0.9l-0.3,0C32.3,23.6,32.1,23.3,32.3,22.8z"/>
<g>
	<path fill="#0047A2" d="M26.9,22.7c0.8,0.2,1.6,0.5,2.4,0.7c0.2,0.2,0.5,0.7,0.6,0.9c-0.7,1.2,0.4,2.8-0.8,3.7
		c-1.9,1.5-5.2,0-5-2.5c0.9,0.2,1.4,1,2,1.6c0.6,0.3,1.4,0.4,2.1,0.4c0.2-0.6,0.3-1.2,0.5-1.8c-0.3,0-0.9,0-1.2-0.1
		c0,0.3-0.1,0.9-0.2,1.2c-0.1,0-0.3,0-0.4,0C26.2,25.5,26.9,24.1,26.9,22.7z M27.6,24.1c0,0.2,0,0.7,0,1c0.2-0.1,0.6-0.2,0.8-0.2
		c0-0.2,0.1-0.6,0.2-0.8C28.4,24.1,27.9,24.1,27.6,24.1z"/>
</g>
<path fill="#2A6191" d="M30.6,23.2"/>
<g>
	<path fill="#0559AA" d="M34.5,22.8c0.3,0,0.8,0.1,1.1,0.1c0,0.7-0.1,1.3-0.2,2c0.3,0,0.9,0.1,1.2,0.1c0.5,1,0.3,2-0.3,2.9
		c-0.6-0.2-1.3-0.4-1.9-0.6c-0.1-0.2-0.4-0.7-0.6-0.9c-1,0.2-2,0.4-3,0.6c-0.3-0.7-0.7-1.4-1-2.1c0.7-1,1.8-1.3,3-1.3l0.3,0
		c0.8,0.6,0.6,1.6,0.7,2.5C34,25.1,34.3,24,34.5,22.8z M31.5,24.8c-0.6,0.4,0.1,1.5,0.7,1C32.8,25.4,32.1,24.3,31.5,24.8z
		 M34.9,25.7c0.2,0.5,0.3,1,0.5,1.4c0.3-0.4,0.5-0.9,0.6-1.4C35.7,25.7,35.2,25.7,34.9,25.7z"/>
</g>
<path fill="#0557AF" d="M10.8,25.6c-0.5-1.7,1.5-2.9,2.9-2.2c1.3,1-0.9,1-1.5,1.2c0.7,0.9,1.8,0.9,2.7,1.4c0.6,0.6,0.7,1.5,1,2.2
	c-0.5,0.7-0.7,1.7-1.6,1.9c-0.7,0.1-1.4,0.1-2,0.1c0.7-0.8,2.2-1.4,1.5-2.6C12.7,27.3,11,27.1,10.8,25.6z"/>
<path fill="#0047A2" d="M21,23.6c0.5,0,1,0.1,1.5,0.1c0.3,1.3,0.4,2.6,0.5,3.9c-0.9-0.1-1.7-0.2-2.6-0.4c-0.2-0.6-0.4-1.2-0.6-1.8
	c-0.3,0.6-0.6,1.3-0.9,2c-0.9,0.6-2.8,0.9-3.1-0.5c-0.8-1.2,0.9-2.6,2-1.8c0,0.3,0,0.9,0,1.2c-0.3-0.2-0.9-0.5-1.2-0.7
	c0,0.3,0.1,0.9,0.1,1.3c1,0.2,1.7-0.4,2.2-1.3c0.9-0.4,1.6-0.9,2.4-1.5c-0.2,0.5-0.4,1-0.6,1.5c0.2,0.4,0.4,0.8,0.5,1.2
	C22,25.9,21.9,24.4,21,23.6z"/>
<path fill="#BCA9AA" d="M25.2,25.3c-0.2-0.8,0.3-1.6,1-1.8c-0.2,0.6-0.3,1.3-0.6,1.9C25.6,25.4,25.3,25.3,25.2,25.3z"/>
<path fill="#0650AE" d="M39.6,23.4c0.3,0.1,0.8,0.4,1.1,0.5c0,1.7-0.4,3.4-1.4,4.9c-3,1.5-6.1-0.9-9.2-0.3c0.9-0.6,1.9-1.3,3-1.3
	c1.6,0.6,3.2,1.4,4.9,1.2c0.2-1.3-1.3-2.4-0.7-3.8c0.9,0.1,1.2,0.9,1.6,1.7C39.4,25.4,39.5,24.4,39.6,23.4z"/>
<path fill="#FCFFFE" d="M27.6,24.1c0.3,0,0.8,0,1,0c0,0.2-0.1,0.6-0.2,0.8c-0.2,0.1-0.6,0.2-0.8,0.2C27.6,24.8,27.6,24.3,27.6,24.1z
	"/>
<path fill="#9C875A" d="M1.6,24.5c0.4-0.1,1.1-0.2,1.4-0.2c0.2,0.1,0.6,0.4,0.8,0.6c0.9,1,1.8,2,2.6,3.2L6,27.6
	c-1.1-0.8-2.2-1.4-3.3-2.2c0.5,2.2-2.1,3.7-1.2,5.8C2.2,31.8,3.1,31.9,4,32c0.3,0,0.9,0.1,1.2,0.1c-1.2,0.1-2.3,0.1-3.5,0.2
	c0.9,2.3,2.2,4.6,2.3,7.1c0.1,1.1,0,2.3,0.4,3.3c0.7,1.4,2.4,1.6,3.8,1.4c2.6-0.4,5-1.3,7.6-1.9c-0.1,0.2-0.4,0.7-0.5,1
	c-2,0.8-4.1,1.3-6.2,1.8c-1.9,0.5-4.6,0.2-5.7-1.7c-0.7-2.3-0.1-4.9-1.1-7.2c-0.6-2.3-2.6-4.3-2.2-6.7c0.1-1.2,1-2,1.8-2.8
	C1.8,25.9,1.7,25.2,1.6,24.5z"/>
<path fill="#FCFFFE" d="M31.5,24.8c0.6-0.5,1.4,0.6,0.7,1C31.6,26.3,30.8,25.3,31.5,24.8z"/>
<path fill="#0248A0" d="M2.7,25.4c1.1,0.8,2.2,1.5,3.3,2.2c0.2,0.7,0.4,1.5,0.4,2.3C6.2,31.1,4.9,31.6,4,32
	c-0.9-0.1-1.8-0.3-2.5-0.8C0.6,29.1,3.2,27.5,2.7,25.4z"/>
<path fill="#FCFFFE" d="M34.9,25.7c0.3,0,0.9,0,1.2,0c-0.1,0.5-0.3,1-0.6,1.4C35.2,26.7,35.1,26.2,34.9,25.7z"/>
<path fill="#86867F" d="M6,27.6L6.4,28c0.7,1,0.3,2.2,0.4,3.3c1.5-0.4,3-0.8,4.2-1.7c0.1-0.1,0.2-0.2,0.3-0.2c0.3-0.3,0.8-0.8,1.1-1
	c-0.2,0.6-0.5,1.3-0.6,1.9c-2.2,0.6-4.3,1.6-6.6,1.9c-0.3,0-0.9-0.1-1.2-0.1c0.9-0.5,2.2-0.9,2.4-2.1C6.4,29.1,6.2,28.4,6,27.6z"/>
<g>
	<path fill="#0148A3" d="M15.5,30.4c2.3-2.3,5.9-2.4,8.9-1.8c-1.6-0.2-3.3,0-4.9,0.2c0,0.4,0,0.8-0.1,1.2c0.4,0.2,0.9,0.4,1.3,0.6
		c-0.8,0-1.5,0.1-2.3,0.1c-0.3-0.2-0.8-0.6-1.1-0.8c-0.4,0.9-0.6,1.9-0.3,2.8c-0.1,1.3-0.1,2.5-0.1,3.8c1.4,0.2,2.8,0.4,4.2,0.5
		c0.2-0.8,0.3-1.7,0.6-2.5c0.1,0.3,0.4,1,0.5,1.3c0.7-0.1,1.4-0.3,2.1-0.4c0.3,0.4,0.7,0.8,1.1,1c-0.4,0-1.1,0.1-1.4,0.2
		c0,0.2,0,0.7,0.1,1c2.1-0.5,4.2-0.3,6.3-0.1c0.2-0.9-0.8-0.9-1.3-1.3c0-0.2-0.1-0.5-0.2-0.6c0.6-0.1,1.2-0.2,1.7-0.3
		c-0.1-0.2-0.4-0.7-0.6-1c-1,0-2.1,0.1-3.1,0.2c0.2,0.2,0.6,0.7,0.9,1c-0.3,0.2-0.5,0.5-0.8,0.7c-0.4-0.3-0.9-0.6-1.3-0.9
		c0.4-0.1,1.2-0.2,1.6-0.3c-1-0.8-2.3-0.7-3.5-0.7c-0.1-0.1-0.2-0.3-0.2-0.4c1.3,0.1,2.9,0.4,3.9-0.7c-0.7,0-1.4-0.1-2.1-0.1
		c0.1-0.2,0.3-0.5,0.3-0.7c-0.2-0.4-0.4-0.9-0.6-1.3c0.4,0.2,0.8,0.5,1.2,0.7c0,0.3-0.1,0.8-0.1,1.1c0.3-0.1,0.8-0.2,1.1-0.3
		c1.1,0.7,2.2,0.4,3.3-0.2c0.1,0.2,0.3,0.6,0.3,0.8c0.4-0.4,0.9-0.8,1.3-1.2c0,0.3,0.1,0.8,0.1,1c1,0,2,0.3,2.9,0.7
		c-0.3,0.1-1,0.2-1.3,0.2c-0.1,0.3-0.2,0.8-0.3,1c0.4,0,1.1,0.1,1.5,0.1c-0.1,1.2-1,1.5-2.1,1.4c0,0.3-0.1,0.7-0.2,1
		c0,0.1-0.1,0.3-0.1,0.4c-0.5,0.3-1.1,0.6-1.6,0.9c-3.3,0.2-6.5,0.1-9.8-0.2c-2.2-0.2-4.2-1.1-6.3-1.5c1.4,1.3,3.3,1.8,5.1,2.3
		c3.7,1,7.5,0.8,11.3,0.5c-0.8,0.2-1.6,0.4-2.4,0.6c-4.5-0.3-9,0.7-13.4,1.7c-2.6,0.5-5,1.5-7.6,1.9c-1.4,0.2-3.1,0-3.8-1.4
		c-0.4-1.1-0.3-2.2-0.4-3.3c-0.1-2.5-1.4-4.8-2.3-7.1c1.2,0,2.3-0.1,3.5-0.2c2.3-0.3,4.4-1.3,6.6-1.9c0.9,1,2.3,0.7,3.4,0.4
		c-0.1,0.8,0.5,1.3,1.1,1.6C16.2,31.5,16,30.9,15.5,30.4z M15.1,32.7c0,0.3,0,0.8-0.1,1c0.3,0,0.9,0,1.2,0c0-0.3,0-0.9,0-1.2
		C16,32.6,15.4,32.7,15.1,32.7z M27.6,33.5c0.2,0.7,1.2,0.4,1.7,0.5c0.2,0.1,1.6-0.1,0.9-0.5C29.3,33.5,28.4,33.2,27.6,33.5z
		 M14.4,35.8c-0.3,0.6,0.6,1.1,1.1,0.8c0.8-0.3,0.6-1.3,0.8-2C15.7,34.9,14.8,35,14.4,35.8z"/>
</g>
<path fill="#DDE2C1" d="M39.6,29.6c0.7-0.3,1.3-0.7,1.9-1.2c0,0.1,0,0.4,0,0.5c1.2,0.5,2.4,1.1,3.6,1.6c0.7,0.3,1.4,0.6,2,0.8
	c1.2,0.3,2.4,0.5,3.6,0.6c-0.1,0.2-0.2,0.6-0.2,0.8c-1.4-0.1-2.8-0.3-4.2-0.5C44.1,31.3,41.8,30.5,39.6,29.6z"/>
<path fill="#037BCF" d="M19.5,28.8c1.6-0.3,3.3-0.5,4.9-0.2c1.6,0.7,3.3,1,5,0.4c0.1,0.2,0.2,0.5,0.2,0.7c0.1,0.4,0.3,0.7,0.4,1.1
	c-1,0-2,0.2-2.8,0.7c-0.3-0.3-0.6-0.7-0.9-1c-0.7,0.2-1.5,0.4-2.2,0.6c0.2,0.7,0.4,1.4,0.6,2.1c-0.3,0.1-0.9,0.3-1.2,0.4l0.3,0.4
	c0.1,0.1,0.2,0.3,0.2,0.4c0.1,0.3,0.4,0.8,0.5,1.1c-0.7,0.1-1.4,0.2-2.1,0.4c-0.1-0.3-0.4-1-0.5-1.3c0.1-0.1,0.3-0.3,0.4-0.4
	c-1.2-0.7-0.8-2-0.5-3.1c-0.2-0.1-0.6-0.3-0.9-0.4c-0.4-0.2-0.9-0.4-1.3-0.6C19.5,29.6,19.5,29.2,19.5,28.8z"/>
<path fill="#016ECB" d="M29.6,29.8c1.9-0.9,3.8-0.4,5.7,0.2c-0.3,0.4-0.6,0.8-0.9,1.2c-0.7,0.3-1.4,0.6-2.1,1
	c-0.4,0.4-0.9,0.8-1.3,1.2c-0.1-0.2-0.3-0.6-0.3-0.8c-0.2-0.6-0.5-1.1-0.7-1.7C29.9,30.5,29.7,30.1,29.6,29.8z"/>
<path fill="#E5E5B0" d="M46.3,30.3c1.4-0.3,2.6-1.4,4.1-1.3c1.3-0.1,2.4,1.4,1.7,2.6c-0.9,2.1-2.2,4.2-2.6,6.5c-0.5,1.8,0,3.9-1,5.5
	c-1.3,1.6-3.7,2-5.5,1.3c-4.1-1.2-8.2-2.3-12.3-3.3c0.3-0.1,1-0.4,1.3-0.5c4,0.6,7.9,2,11.9,3c1.5,0.4,3.8,0.2,4.2-1.7
	c0.3-2.6,0.5-5.2,1.6-7.6c0.3-0.7,0.6-1.5,0.8-2.2c0.1-0.2,0.2-0.6,0.2-0.8c0.2-0.6,0.3-1.2,0.4-1.7c-1.4-0.1-2.9,0.3-4,1.2
	c-0.7-0.2-1.4-0.5-2-0.8c0.2,0,0.6,0,0.8-0.1C46,30.4,46.2,30.3,46.3,30.3z"/>
<g>
	<path fill="#0047A2" d="M35.3,30c1.5,0.3,2.9,0,4.3-0.4c2.2,0.9,4.4,1.7,6.7,2.5c1.1,0.4,2.2,0.7,3.4,1c0,0.6,0,1.2,0,1.8
		c-1.1,2.4-1.3,5-1.6,7.6c-0.4,1.8-2.7,2.1-4.2,1.7c-4-0.9-7.8-2.3-11.9-3c-1-0.2-1.9-0.4-2.9-0.5c0.8-0.2,1.6-0.4,2.4-0.6
		c2.7-0.4,5.5-1.1,8-2.3c-0.3-0.1-0.8-0.4-1.1-0.5l0.6-0.7c-0.9,0-1.9,0-2.8,0c0.2-1,0.9-1.7,1.8-2.3c-0.4-0.1-1.3-0.3-1.8-0.4
		c0.9-0.2,1.8-0.4,2.7-0.7c0.2-0.4,0.3-1,0-1.4c-0.8-0.2-1.6-0.3-2.4-0.4c-0.2-0.2-0.5-0.6-0.7-0.8c-0.5,0.2-0.9,0.5-1.4,0.7
		C34.7,30.7,35,30.3,35.3,30z M37,35.5c0.3,0.6,1.5,0.7,1.7,0C38.4,34.9,37.2,34.9,37,35.5z"/>
</g>
<path fill="#084883" d="M47.1,31.2c1.2-0.9,2.6-1.2,4-1.2c-0.1,0.6-0.3,1.2-0.4,1.7C49.5,31.7,48.3,31.6,47.1,31.2z"/>
<g>
	<path fill="#FDFDFF" d="M17.2,32.9c-0.3-1-0.2-1.9,0.3-2.8c0.3,0.2,0.8,0.6,1.1,0.8c0.8,0,1.5-0.1,2.3-0.1c0.2,0.1,0.6,0.3,0.9,0.4
		c-0.2,1.1-0.7,2.4,0.5,3.1c-0.1,0.1-0.3,0.3-0.4,0.4c-0.2,0.8-0.4,1.7-0.6,2.5c-1.4-0.1-2.8-0.2-4.2-0.5
		C17,35.4,17.1,34.1,17.2,32.9z M18.6,31.8c-0.1,0.4-0.4,0.8-0.5,1.2c0.5,0.5,1.1,1,1.6,1.5c-0.3-0.5-0.9-0.9-1-1.6l0.1-0.2
		c0.7,0.1,1.2-0.3,1.8-0.7C20,32,19.3,31.9,18.6,31.8z M20.1,33.1 M18.5,34.8c-0.6,0.4,0.1,1.5,0.7,1C19.9,35.5,19.1,34.4,18.5,34.8
		z M19.9,34.9c-0.4,0.5-0.2,0.8,0.3,0.9C20.5,35.2,20.4,34.9,19.9,34.9z"/>
</g>
<g>
	<path fill="#FCFFFE" d="M24,31.1c0.7-0.2,1.5-0.4,2.2-0.6c0.3,0.3,0.6,0.7,0.9,1C28,31,29,30.8,30,30.9c0.2,0.6,0.5,1.1,0.7,1.7
		c-1.1,0.6-2.2,0.9-3.3,0.2c-0.3,0.1-0.8,0.2-1.1,0.3c0-0.3,0.1-0.8,0.1-1.1c-0.4-0.2-0.8-0.5-1.2-0.7c0.2,0.4,0.4,0.9,0.6,1.3
		c-0.1,0.2-0.3,0.5-0.3,0.7c0.7,0,1.4,0,2.1,0.1c-1,1.2-2.6,0.9-3.9,0.7l-0.3-0.4c0.3-0.1,0.9-0.3,1.2-0.4
		C24.4,32.5,24.2,31.8,24,31.1z M28.5,31.7c-0.3,0.7-0.1,0.9,0.6,0.7C29.4,31.7,29.2,31.5,28.5,31.7z"/>
</g>
<g>
	<path fill="#FAFEFF" d="M35.8,30.4c0.2,0.2,0.5,0.6,0.7,0.8c0.8,0.1,1.6,0.2,2.4,0.4c0.3,0.4,0.3,0.9,0,1.4
		c-0.9,0.3-1.8,0.5-2.7,0.7c0.4,0.1,1.3,0.3,1.8,0.4c-0.8,0.5-1.5,1.2-1.8,2.3c0.9,0,1.9,0,2.8,0l-0.6,0.7c0.3,0.1,0.8,0.4,1.1,0.5
		c-2.5,1.3-5.2,1.9-8,2.3c-3.8,0.3-7.6,0.5-11.3-0.5c-1.8-0.5-3.7-1-5.1-2.3c2.1,0.4,4.1,1.4,6.3,1.5c3.3,0.3,6.5,0.3,9.8,0.2
		c2.5-0.1,5-0.7,7.4-1.3c-1.9-0.5-3.8,0.1-5.7,0c0-0.2,0.1-0.7,0.2-1c1.1,0.1,1.9-0.2,2.1-1.4c-0.4,0-1.1-0.1-1.5-0.1
		c0.1-0.3,0.2-0.8,0.3-1c0.3-0.1,1-0.2,1.3-0.2c-0.9-0.4-1.9-0.7-2.9-0.7c0-0.3-0.1-0.8-0.1-1c0.7-0.4,1.4-0.7,2.1-1
		C34.9,30.9,35.3,30.7,35.8,30.4z M33.4,32.3c1.6,0.5,3.2,0.3,4.8,0.1C36.6,32.2,35,32.2,33.4,32.3z"/>
</g>
<path fill="#123834" d="M18.6,31.8c0.7,0.1,1.4,0.1,2.1,0.2c-0.5,0.4-1.1,0.8-1.8,0.7L18.8,33c0.1,0.7,0.6,1.1,1,1.6
	c-0.5-0.5-1.1-1-1.6-1.5C18.2,32.6,18.5,32.2,18.6,31.8z"/>
<path fill="#80A9C6" d="M28.5,31.7c0.7-0.3,0.9,0,0.6,0.7C28.5,32.7,28.2,32.4,28.5,31.7z"/>
<path fill="#123834" d="M33.4,32.3c1.6-0.1,3.2-0.2,4.8,0.1C36.6,32.7,34.9,32.8,33.4,32.3z"/>
<path fill="#2E5A82" d="M46.3,32.1c1.4,0.2,2.8,0.4,4.2,0.5c-0.2,0.8-0.5,1.5-0.8,2.2c0-0.6,0-1.2,0-1.8
	C48.5,32.8,47.4,32.5,46.3,32.1z"/>
<path fill="#FCFFFE" d="M15.1,32.7c0.3,0,0.8-0.1,1.1-0.1c0,0.3,0,0.9,0,1.2c-0.3,0-0.9,0-1.2,0C15.1,33.5,15.1,32.9,15.1,32.7z"/>
<path fill="#113632" d="M20.1,33.1"/>
<path fill="#EEFDFF" d="M27.6,33.5c0.8-0.3,1.7,0.1,2.6,0c0.8,0.3-0.6,0.6-0.9,0.5C28.8,33.8,27.8,34.1,27.6,33.5z"/>
<path fill="#FCFFFE" d="M14.4,35.8c0.3-0.8,1.3-0.9,2-1.2c-0.2,0.7,0,1.7-0.8,2C15,36.9,14.1,36.4,14.4,35.8z"/>
<path fill="#5884AD" d="M18.5,34.8c0.6-0.5,1.3,0.6,0.7,1C18.6,36.4,17.9,35.3,18.5,34.8z"/>
<path fill="#4B6E95" d="M19.9,34.9c0.6,0.1,0.7,0.4,0.3,0.9C19.6,35.7,19.5,35.4,19.9,34.9z"/>
<path fill="#FDFDFF" d="M23.9,34.4c1.2,0,2.5-0.1,3.5,0.7c-0.4,0.1-1.2,0.2-1.6,0.3c0.4,0.3,0.9,0.6,1.3,0.9
	c0.3-0.2,0.5-0.5,0.8-0.7c-0.2-0.2-0.7-0.7-0.9-1c1-0.1,2.1-0.1,3.1-0.2c0.1,0.2,0.4,0.7,0.6,1c-0.6,0.1-1.2,0.2-1.7,0.3
	c0,0.2,0.1,0.5,0.2,0.6c0.5,0.3,1.5,0.4,1.3,1.3c-2.1-0.2-4.2-0.5-6.3,0.1c0-0.2,0-0.7-0.1-1c0.4,0,1.1-0.1,1.4-0.2
	c-0.4-0.3-0.8-0.6-1.1-1C24.3,35.3,24,34.7,23.9,34.4z"/>
<path fill="#D8EBF6" d="M37,35.5c0.2-0.6,1.5-0.6,1.7,0C38.4,36.2,37.2,36,37,35.5z"/>
<path fill="#114C8C" d="M33,37.6c1.9,0.1,3.8-0.5,5.7,0c-2.4,0.6-4.9,1.2-7.4,1.3c0.6-0.3,1.1-0.6,1.6-0.9
	C32.9,37.9,32.9,37.7,33,37.6z"/>
<path fill="#B0A077" d="M15.7,42.3c4.4-1,8.9-2,13.4-1.7c1,0.2,1.9,0.3,2.9,0.5c-0.3,0.1-1,0.4-1.3,0.5c-2.1,0.1-4.1-0.2-6.2,0
	c-3.2,0.1-6.2,1-9.3,1.7C15.3,43,15.6,42.5,15.7,42.3z"/>
</svg>
