<?xml version="1.0" encoding="utf-8"?>
<!-- Generator: Adobe Illustrator 18.1.1, SVG Export Plug-In . SVG Version: 6.00 Build 0)  -->
<svg version="1.1" id="图层_1" xmlns="http://www.w3.org/2000/svg" xmlns:xlink="http://www.w3.org/1999/xlink" x="0px" y="0px"
	 viewBox="0 0 63.5 60.5" enable-background="new 0 0 63.5 60.5" xml:space="preserve">
<path fill="#925511" d="M11.7,7.6c4.4-3.8,9.9-6.4,15.7-7.3c5.8-0.9,11.9,0,17.2,2.5c5.9,2.7,10.7,7.3,13.9,12.9
	c-0.6-0.2-1.3-0.3-1.9-0.4c-0.1,0.3-0.2,1-0.3,1.4C52.5,10,46,5,38.6,3.2c-9.1-2.5-19.2,0.4-26.1,6.7c0.2-0.5,0.4-1,0.5-1.5
	C12.6,8.1,12.1,7.9,11.7,7.6z"/>
<path fill="#90560F" d="M30,8.6c0.9-0.2,1.7-0.8,2.6-1c1.2,0,1.9,1.2,2.5,2.1c-1.4,1-3.1,1.5-4.7,1.9c-0.9-1.1-1.9-2.2-2.9-3.2
	C28.3,8.5,29.1,8.6,30,8.6z"/>
<path fill="#B26A12" d="M5.3,15.6c1.7-3,3.9-5.7,6.4-8c0.5,0.3,0.9,0.5,1.4,0.8c-0.2,0.5-0.3,1-0.5,1.5c-1.8,2.1-3.7,4.1-5,6.6
	l-0.1,0C6.7,16.2,6,15.9,5.3,15.6z"/>
<path fill="#965711" d="M26.9,15.1c2.5-0.7,4.1-2.9,6.5-3.7c1-0.2,1.6,0.8,2.2,1.5c-0.8,0.7-1.7,1.3-2.6,1.9
	c0.3,0.4,0.7,0.9,1.1,1.3c-1.2,1.5-2.6,3.3-2.2,5.4c0.7,1.3,2.5,0.9,3.7,0.9c3,0.1,4.6-3.3,4.9-5.9c0.3,0,0.8,0.2,1,0.2
	c0.4,1.7,0.5,3.4,1.2,5c0.4,1.2-0.7,2.3-1.9,2.5c-2.7,0.5-5.5,0.7-8.2,0.7c-1.4-0.1-3.1-0.7-3.5-2.3c-0.5-1.9,0.9-3.6,1.6-5.2
	c-1.2,1-2.4,2.1-3.5,3.2c-1,1-1.5,2.2-2.4,3.3c-1.1,0.7-3.1-0.7-2.3-2c1.7-1.8,3.8-3.3,5.8-4.8c-1.2,0-2.6,0.1-3.6-0.7
	c-0.9-0.5-0.3-1.5-0.3-2.3C25.1,14.7,25.9,15.5,26.9,15.1z"/>
<path fill="#B06110" d="M56.5,15.3c0.6,0.1,1.3,0.3,1.9,0.4c0.8,1.7,1.6,3.3,2.2,5.1c-0.7,0.4-1.4,0.7-2.1,1.1
	c-0.6-1.8-1.4-3.6-2.4-5.2C56.3,16.3,56.4,15.7,56.5,15.3z"/>
<path fill="#9A560D" d="M5.3,15.6c0.7,0.3,1.4,0.6,2.1,0.8C5.5,20,4.3,23.9,3.8,27.9c-0.7,0-1.5,0-2.2,0C2,23.6,3.3,19.4,5.3,15.6z"
	/>
<path fill="#8B500D" d="M58.6,21.9c0.7-0.4,1.4-0.7,2.1-1.1c0.6,2.3,1.2,4.6,1.3,7.1c-0.7,0-1.5,0-2.2-0.1
	C59.4,25.8,59.2,23.8,58.6,21.9z"/>
<path fill="#9F5F15" d="M13.4,27.6c0.7-0.5,1.4-1,2.3-1.1c-0.1,1.3-0.4,2.6-0.6,3.9c1.4-0.7,1.8-2.2,2.1-3.5c0.3-0.1,0.8-0.3,1-0.4
	c-0.3,1.9-0.4,4-1.4,5.7c-0.8,0.8-2,0.4-2-0.8c0.3,0.1,0.9,0.4,1.2,0.5c0.2-0.7,0.5-1.3,0.7-2c-0.8,0.6-1.6,1.1-2.6,1.2
	c0.2-1.2,0.4-2.4,0.6-3.5C14.3,27.6,13.7,27.6,13.4,27.6z"/>
<path fill="#A4641B" d="M37.2,26.7c0.2,0,0.7,0,0.9,0c-0.2,0.8-0.4,1.6-0.5,2.3c0.6-0.3,1.2-0.6,1.8-0.9c0,1-0.1,2-0.2,2.9
	c-1.4,0.7-0.9-1.4-1-2.1c-0.9,0.6-1,2.4-2.2,2.2C36,29.6,36.9,28.2,37.2,26.7z"/>
<path fill="#9B5D16" d="M20,28.5c0.3-0.1,0.8-0.3,1.1-0.3C21,29.1,20.8,30,20.8,31c0.9-0.8,1-2.4,2.2-2.8c-0.1,0.9-0.1,1.8-0.3,2.7
	c-0.4,0.6-1,0.2-1.5,0.2c-0.6,0-1.1,0.1-1.7,0.1C19.6,30.2,19.8,29.4,20,28.5z"/>
<path fill="#A1621A" d="M26.3,28.5c0.8-0.1,1.5-0.1,2.3-0.1c-0.1,0.9-0.2,1.7-0.3,2.6c-0.5,0.1-0.9,0.3-1.4,0.4
	c0.2-0.9,0.5-1.9,0.7-2.8c-1.1,0.5-1.5,1.5-1.8,2.6c-0.3,0-0.9,0-1.2,0C25,30.2,25.2,29,26.3,28.5z"/>
<path fill="#905311" d="M30.6,28.6c0.5-0.1,1-0.3,1.5-0.4c-0.1,1.2-0.3,2.6-1.6,3c0.1-0.6,0.2-1.2,0.3-1.8
	C30.7,29.2,30.6,28.8,30.6,28.6z"/>
<path fill="#995422" d="M32.8,28.4c0.4-0.1,0.9-0.1,1.3-0.1c-0.3,1.1,0.1,2.9-1.5,3C32.6,30.4,32.7,29.4,32.8,28.4z"/>
<path fill="#925511" d="M43.6,28.2c0.3,0.1,1,0.3,1.3,0.4c-0.1,1.4-0.9,2.7-2.4,2.8c-1.8-0.7-0.5-2.9,1-3.1
	c-0.3,0.8-0.6,1.7-0.9,2.5C43.8,30.5,43.6,29.2,43.6,28.2z"/>
<path fill="#92530F" d="M48.7,28.1c0.6,0.3,1.7,0.5,1.1,1.4c-0.3,1.5-2,2-3.3,1.5c-0.2-1.3,0.6-2.4,1.9-2.8
	c-0.4,0.9-0.7,1.7-0.7,2.7C48.8,30.3,48.8,29.2,48.7,28.1z"/>
<path fill="#985214" d="M0,29.2c1.8,0,3.6,0,5.4,0c0,0.7,0,1.3,0,2c-1.8,0.2-3.6,0.1-5.4,0.1C0,30.6,0,29.9,0,29.2z"/>
<path fill="#874B11" d="M58.2,29.2c1.8,0,3.6,0,5.4,0c-0.1,0.7,0.2,1.6-0.3,2.1c-1.7,0.2-3.4,0-5.1,0C58.2,30.5,58.2,29.9,58.2,29.2
	z"/>
<path fill="#995911" d="M1.7,32.6c0.8,0,1.5,0,2.3,0c0.1,1.1,0.3,2.1,0.4,3.2c-0.7,0.2-1.4,0.4-2.2,0.5C2,35.1,1.8,33.9,1.7,32.6z"
	/>
<path fill="#92530F" d="M59.6,32.6c0.8,0,1.5,0,2.3,0c-0.2,5.2-2.3,10.2-5,14.6c-0.6-0.4-1.2-0.9-1.9-1.3
	C57.7,42,59.3,37.4,59.6,32.6z"/>
<g>
	<path fill="#905311" d="M34.2,33.9c0.7-0.5,1.5-0.8,2.2-1.2c0.7,0.5,1.8,0.9,1.4,1.9c-0.5,3-0.2,6-0.2,9c0.6-0.3,1.2-0.6,1.7-0.9
		c1.1,0.2,2,0.8,2.7,1.7c-1.4,0.3-2.9,0.5-4.3,0.7c0,1.8,0.1,3.7,0,5.5c-0.1,1-0.8,2.1-1.8,2.2c-0.7-2.4-0.4-4.9-0.5-7.3
		c-1.1,0.4-2.3,0.8-3.4,1.2c-0.2-0.2-0.5-0.6-0.7-0.8c-0.1,1.5,0.3,3.4-0.9,4.6c-1.4-0.5-2.4-1.6-2.9-3c0.7,0.3,1.3,0.7,2,1.1
		c0.1-2.9-0.1-5.8-0.1-8.7c-0.7,0.2-1.4,0.4-2.1,0.7c0.2,0.3,0.5,0.6,0.7,1c-0.1,0.1-0.4,0.3-0.5,0.5c0.5-0.2,1.8-1,1.8,0.1
		c-0.5,0.7-1.3,1.2-2,1.7c0.5,0.3,2.3,0,1.6,1c-1.6,0.7-3.2,1.2-4.7,2c-0.3,0.9-0.2,2.5-1.5,2.5c-0.7-0.3-0.9-1.1-1.2-1.7
		c1.4-1.4,1.6-3.6,2.1-5.4c-0.3,0-0.8-0.1-1-0.1c1.3-2.6,4.3-3.4,6.7-4.6c-0.6-1-1.9-0.7-2.7-0.2c-1.1,0.8-2.2,1.7-3.3,2.4
		c-0.6-0.5-1.1-1-1.7-1.5c1.4-0.7,2.8-1.7,3.7-3c0.4-0.5,0.8-1.4,1.6-1.3c1.2,0,1.6,1.2,2.3,1.8c0.7,0.5,1.5,0.9,2.3,1.4
		c-0.4,0.5-0.8,0.9-1.1,1.4c0.9,0.8,1,1.9,0.9,3.1c1.3-0.8,2.8-1.1,4.2-1.6c-1.2-0.3-3.3,0.1-3.7-1.5c0.8-0.7,2.3,0,3.4-0.2
		c0-0.8,0.1-1.5,0.1-2.3c-0.3,0.1-0.9,0.2-1.2,0.3C34.3,35.6,34.2,34.7,34.2,33.9z M25,43.1c0.9-0.4,1.5-1.1,1.6-2.1
		C25.5,41,25.1,42.1,25,43.1z M31.1,43c0.1,0.6,0.1,1.2,0.4,1.8c1.3,0.3,2.6-0.5,3.9-0.9c0-0.8,0-1.5,0-2.3
		C34,42.2,32.7,43.1,31.1,43z M24.4,43.8c-0.1,0.6-0.3,1.2-0.4,1.8c0.8-0.4,1.5-0.9,2.2-1.5C25.6,44,25,43.9,24.4,43.8z"/>
</g>
<path fill="#976938" d="M45.1,33.8c0.9-0.2,1.8-0.8,2.7-0.5C48.2,34.8,45.6,35,45.1,33.8z"/>
<path fill="#905311" d="M45.2,35.4c1.3,0.3,2.3-0.7,3.5-1c0,0.2,0.1,0.7,0.2,0.9c0.3,0.1,0.7,0.2,1,0.4c-2,0.2-4,0.2-5.9,0.6
	c0-0.6,0-1.2,0-1.8c0.4,0.1,1.2,0.3,1.6,0.4L45.2,35.4z"/>
<path fill="#AF6510" d="M2.2,36.4c0.7-0.2,1.4-0.4,2.2-0.5c0.9,3.6,2.2,7.2,4.4,10.3l0,0.1C8.6,47.1,8.4,48,8,48.8
	C5,45.2,3.2,40.8,2.2,36.4z"/>
<g>
	<path fill="#9F5E12" d="M43.9,37.2c1.9-0.2,3.7-0.4,5.6-0.4c0.9,1.3,1.4,3.2,0.5,4.7c-1.6,1.5-4.1,0.6-6,0.4
		C43.7,40.3,43.6,38.7,43.9,37.2z M44.5,37.8c0,0.9,0.1,1.8,0.3,2.7c0.2-0.7,0.3-1.5,0.5-2.2c1,0,2.1,0,3.1,0.1c-0.3,1-0.6,2-1,2.9
		c0.5,0,1,0.1,1.5,0.1c0-1.3,0-2.6-0.1-4C47.3,37.4,45.9,37.6,44.5,37.8z M44.6,41.1c0.5,0.1,1.1,0.3,1.6,0.5c0.4-0.9,0.7-1.7,1-2.7
		C45.8,39.1,46,41,44.6,41.1z"/>
</g>
<path fill="#A15B10" d="M8,48.8c0.4-0.8,0.7-1.7,0.8-2.6c3.8,5.3,9.3,9.1,15.4,11.1c-0.8,0-1.7,0-2.5,0.1c-0.1,0.3-0.3,1-0.4,1.3
	C16,56.6,11.3,53.3,8,48.8z"/>
<path fill="#9D5C12" d="M48.4,52.7c2.6-1.8,4.8-4.2,6.6-6.8c0.6,0.4,1.2,0.9,1.9,1.3C52.6,53.4,46.1,58,38.8,59.7
	c0.5-0.6,1-1.1,1.5-1.7c-0.6-0.2-1.1-0.3-1.7-0.5C42.1,56.3,45.5,55,48.4,52.7z"/>
<path fill="#AE6513" d="M21.7,57.4c0.8,0,1.7-0.1,2.5-0.1c4.7,1.2,9.7,1.2,14.4,0.2c0.6,0.1,1.1,0.3,1.7,0.5c-0.5,0.6-1,1.1-1.5,1.7
	l-0.1,0.1c-5.8,1.2-11.9,0.9-17.5-1.1C21.3,58.4,21.5,57.7,21.7,57.4z"/>
</svg>
