<?xml version="1.0" encoding="utf-8"?>
<!-- Generator: Adobe Illustrator 18.1.1, SVG Export Plug-In . SVG Version: 6.00 Build 0)  -->
<svg version="1.1" id="图层_1" xmlns="http://www.w3.org/2000/svg" xmlns:xlink="http://www.w3.org/1999/xlink" x="0px" y="0px"
	 viewBox="0 0 86.2 29.5" enable-background="new 0 0 86.2 29.5" xml:space="preserve">
<g>
	<path fill="#CB031E" d="M78.9,0.5c1.8-0.2,3.5-0.5,5.3-0.5c1.2,0,2.3,1.2,2,2.5c-0.7,7.1-1.5,14.1-2.2,21.2
		c-0.1,1.6-1.7,2.8-3.2,2.6c-8.1-0.5-16.3-0.9-24.4-1.6c-0.9,1.4-2,2.7-2.5,4.3c-0.1,0.1-0.4,0.3-0.6,0.4c0.2-1.6-0.4-3-0.8-4.5
		c0.9,0.4,1.1,1.4,1.5,2.2c0.4-0.6,0.8-1.2,1.3-1.6c0-0.4,0-0.7,0-1.1c-0.9,0.4-1.8,0.2-2.7,0.2c-2.7-0.2-5.5-0.3-8.2-0.6
		c-4.5-0.4-8.9,0.1-13.4,0.2c-9.6,0.3-19.3,0.9-28.9,1.1c-1.2,0.2-2.3-0.9-2.1-2.1c0.7-6.6,1.7-13.1,2.4-19.7c0.1-1,0.7-2.1,1.8-2.2
		c1.3-0.1,2.6,0.1,3.9,0.2c8.6,0.9,17.3,1.5,25.9,2.4c3.7,0.2,7.4,1,11.1,0.5C56.5,3.1,67.7,1.8,78.9,0.5z M66.2,4.7
		c-0.1,0.8-0.1,1.6-0.2,2.4c3.8-0.2,7.7-0.5,11.5-0.7c-1.8,1.3-4,2.1-5.7,3.5c-0.1,0.6-0.2,1.3-0.2,1.9c-2.4,0.2-4.9,0.3-7.3,0.3
		c-0.1,0.9-0.2,1.7-0.3,2.6c2.4,0,4.9-0.1,7.3-0.2c-0.3,2.1-0.4,4.2-0.9,6.2c-0.4,0.9-1.3,1.5-1.7,2.5c1.9-0.2,5,1.1,5.9-1.3
		c0.6-2.5,0.5-5,1-7.5c2.4,0,4.8-0.1,7.2-0.2c0.1-0.9,0.2-1.8,0.3-2.7c-2.5,0-5,0.2-7.4,0.1c2.1-1.9,5-2.8,7.2-4.6
		c0.6-1.2,0.4-2.7,0.6-4C77.8,3.7,72,4.1,66.2,4.7z M52.9,5.4c-0.3,4.7-1,9.3-1.7,14c-0.1,1.4-1.1,2.3-2.1,3.2
		c1.8,0.1,3.6,0.1,5.4,0.1c0.4-0.8,0.8-1.6,0.9-2.5c0.4-3,0.8-6,1.2-9c0.2-0.1,0.5-0.2,0.7-0.2c0.6,2.9,0.2,6,1.2,8.8
		c1.4,0,2.9-0.1,4.3-0.1c-0.3-3.9-0.6-7.8-0.7-11.6c-1.4-0.8-3.1-0.2-4.6-0.1c-0.1-0.3-0.3-0.9-0.4-1.2c0.1-0.5,0.1-1,0.2-1.5
		C55.9,5.2,54.4,5.3,52.9,5.4z M7.4,5.3C7.4,5.7,7.5,6.6,7.5,7c-0.9,0-1.9,0-2.8,0c-0.3,2.8-0.8,5.7-1.2,8.5c2.2,0,4.4,0,6.6,0
		c0,0.2-0.1,0.7-0.2,0.9c-2.4,0.1-4.8,0-7.2,0c-0.1,0.8-0.2,1.5-0.2,2.3l0,0.5c2.1,0.1,4.2,0.2,6.3,0.2C9,20.2,9.2,21,9.4,21.9
		c0,0.1,0,0.3-0.1,0.3c1.4,0.1,2.9,0.2,4.3,0.1c0.2-1.2,0.3-2.4,0.4-3.6c2.4,0,4.9,0,7.3,0c0-0.7,0.1-1.5,0.1-2.2
		c-2.4,0-4.8,0-7.2,0c0-0.2,0-0.7,0-1c2.2,0,4.5,0,6.7,0c0.3-2.7,0.6-5.3,1-8c-0.9,0-1.7-0.1-2.6-0.1c0.3-0.6,0.7-1.2,1-1.8
		c-1.6-0.1-3.2-0.1-4.9-0.2c-0.1,0.6-0.1,1.1-0.2,1.7c-1.3,0-2.5,0-3.8-0.1c0.1-0.6,0.1-1.2,0.2-1.7C10.4,5.3,8.9,5.3,7.4,5.3z
		 M28.9,7.8c-1.4,0-2.8,0-4.2,0c0,0.7-0.1,1.4-0.1,2.2c0.8,0,1.6,0.1,2.5,0.1c-1.2,1.6-2.4,3.3-2.4,5.5c2.4,0,4.7,0,7.1,0.1
		c0,0.3,0,0.8,0,1c-2.9,0.1-5.7,0-8.6,0c-0.1,0.7-0.2,1.5-0.2,2.2c2.8,0,5.6,0,8.4,0c-0.1,1-0.2,2-0.3,3c1.4,0,2.9,0,4.3,0
		c0.1-1,0.2-1.9,0.3-2.9c2-0.2,4,0,6.1,0c0.1-0.7,0.2-1.4,0.2-2.2c-2-0.1-4,0.1-6-0.2c0.1-0.3,0.2-0.7,0.3-1c1.5,0,3.1,0,4.6,0
		c0-0.7,0-1.5,0.1-2.2c-1.5,0-2.9,0-4.4,0c0.1-0.9,0.3-1.7,0.4-2.6c1.8,0,3.8,0.3,5.5-0.4c0.1-0.8,0.1-1.5,0.2-2.3
		c-3,0-6.1,0-9.1-0.2c0.3-0.5,0.7-1,1-1.5c-1.8-0.1-3.6-0.1-5.4-0.2C29.1,6.8,29,7.3,28.9,7.8z M47.4,8.9c-0.5,3.7-2.4,7-3.3,10.6
		c1.4,0,2.8,0.1,4.1,0.1c1.3-3.6,2.6-7.2,3.6-10.8C50.4,8.7,48.9,8.8,47.4,8.9z"/>
</g>
<path fill="#FEFEFE" d="M66.2,4.7C72,4.1,77.8,3.7,83.5,3.1c-0.2,1.3-0.1,2.8-0.6,4c-2.2,1.8-5.1,2.7-7.2,4.6c2.5,0,4.9-0.1,7.4-0.1
	c-0.1,0.9-0.2,1.8-0.3,2.7c-2.4,0.1-4.8,0.2-7.2,0.2c-0.5,2.5-0.4,5.1-1,7.5c-0.9,2.4-4,1.1-5.9,1.3c0.4-0.9,1.2-1.6,1.7-2.5
	c0.5-2,0.6-4.2,0.9-6.2c-2.4,0.2-4.9,0.2-7.3,0.2c0.1-0.9,0.2-1.7,0.3-2.6c2.4-0.1,4.9-0.2,7.3-0.3c0.1-0.6,0.1-1.3,0.2-1.9
	c1.8-1.4,3.9-2.2,5.7-3.5C73.7,6.6,69.9,7,66.1,7.1C66.1,6.3,66.1,5.5,66.2,4.7z"/>
<path fill="#FEFFFE" d="M52.9,5.4c1.5-0.1,3-0.1,4.5-0.2c-0.1,0.5-0.1,1-0.2,1.5c-0.2,1.5-0.4,3-0.6,4.4c-0.4,3-0.8,6-1.2,9
	c-0.1,0.9-0.4,1.8-0.9,2.5c-1.8,0-3.6,0-5.4-0.1c0.9-0.9,2-1.8,2.1-3.2C51.8,14.7,52.6,10,52.9,5.4z"/>
<g>
	<path fill="#FEFEFE" d="M7.4,5.3c1.5,0,3.1,0.1,4.6,0.1c-0.1,0.6-0.1,1.2-0.2,1.7c1.3,0,2.5,0.1,3.8,0.1c0.1-0.6,0.1-1.1,0.2-1.7
		c1.6,0.1,3.2,0.1,4.9,0.2c-0.3,0.6-0.7,1.2-1,1.8c0.9,0,1.7,0.1,2.6,0.1c-0.4,2.6-0.7,5.3-1,8c-2.2,0-4.5,0-6.7,0c0,0.2,0,0.7,0,1
		c2.4,0,4.8,0,7.2,0c0,0.7-0.1,1.5-0.1,2.2c-2.4,0-4.9,0-7.3,0c-0.1,1.2-0.3,2.4-0.4,3.6c-1.4,0-2.9,0-4.3-0.1c0-0.1,0-0.3,0.1-0.3
		c0.2-1,0.3-2.1,0.4-3.1c-2.4,0-4.8,0-7.2,0c0.1-0.8,0.1-1.5,0.2-2.3c2.4,0,4.8,0.1,7.2,0c0-0.2,0.1-0.7,0.2-0.9c-2.2,0-4.4,0-6.6,0
		c0.3-2.9,0.8-5.7,1.2-8.5c0.9,0,1.9,0,2.8,0C7.5,6.6,7.4,5.7,7.4,5.3z M7.9,10.4c0.9,0,1.8,0,2.7,0.1c0.1-0.3,0.2-0.6,0.4-0.9
		C9.9,9.4,8,8.7,7.9,10.4z M15.2,9.5c0,0.3,0,0.8,0,1c0.9,0,1.8,0,2.7,0c0-0.2,0.1-0.7,0.1-1C17,9.5,16.1,9.5,15.2,9.5z M7.5,12.8
		c0.5,1.1,2,0.4,2.9,0.6c0-0.4,0-0.7,0-1.1C9.5,12.5,8.2,11.9,7.5,12.8z M14.8,12.5c0,0.2,0,0.7,0,1c0.9,0,1.8,0,2.8,0
		c0-0.2,0.1-0.7,0.1-1C16.7,12.5,15.7,12.5,14.8,12.5z"/>
</g>
<path fill="#FEFEFE" d="M28.9,7.8c0.1-0.5,0.2-1,0.2-1.6c1.8,0.1,3.6,0.1,5.4,0.2c-0.3,0.5-0.7,1-1,1.5c3,0.2,6.1,0.2,9.1,0.2
	c-0.1,0.8-0.1,1.5-0.2,2.3c-3.5-0.2-7-0.3-10.6-0.4c-0.7,1.1-1.4,2.1-2.1,3.2c0.8,0,1.6,0,2.3,0.1c0.1-0.9,0.2-1.8,0.3-2.6
	c1.5,0,3,0.1,4.6,0.1c-0.1,0.9-0.2,1.7-0.4,2.6c1.5,0,2.9,0,4.4,0c0,0.7,0,1.5-0.1,2.2c-1.5,0-3.1,0-4.6,0c-0.1,0.3-0.2,0.7-0.3,1
	c2,0.2,4,0.1,6,0.2c-0.1,0.7-0.2,1.4-0.2,2.2c-2,0-4-0.2-6.1,0c-0.1,1-0.2,1.9-0.3,2.9c-1.4,0-2.9,0-4.3,0c0.1-1,0.2-2,0.3-3
	c-2.8,0-5.6,0-8.4,0c0.1-0.7,0.2-1.5,0.2-2.2c2.9,0,5.7,0.1,8.6,0c0-0.3,0-0.8,0-1c-2.4,0-4.7,0-7.1-0.1c0-2.1,1.2-3.8,2.4-5.5
	c-0.8,0-1.7-0.1-2.5-0.1c0-0.7,0.1-1.4,0.1-2.2C26.1,7.8,27.5,7.8,28.9,7.8z"/>
<path fill="#A70A26" d="M56.6,11.1c0.2-1.5,0.4-3,0.6-4.4c0.1,0.3,0.3,0.9,0.4,1.2c1.5-0.1,3.2-0.7,4.6,0.1c-1.5,0.2-3,0.2-4.5,0.3
	c0.3,3.8,0.6,7.6,0.8,11.4c-1-2.8-0.6-5.9-1.2-8.8C57.1,10.9,56.7,11,56.6,11.1z"/>
<path fill="#FEFFFE" d="M57.7,8.2c1.5-0.1,3-0.1,4.5-0.3c0.1,3.9,0.3,7.8,0.7,11.6c-1.4,0-2.9,0-4.3,0.1C58.3,15.8,58,12,57.7,8.2z"
	/>
<path fill="#A71D26" d="M7.9,10.4C8,8.7,9.9,9.4,11,9.5c-0.1,0.3-0.3,0.6-0.4,0.9C9.7,10.4,8.8,10.4,7.9,10.4z"/>
<path fill="#FEFEFE" d="M47.4,8.9c1.5-0.1,3-0.1,4.5-0.1c-1.1,3.6-2.3,7.2-3.6,10.8c-1.4,0-2.8,0-4.1-0.1
	C45,15.9,46.8,12.6,47.4,8.9z"/>
<path fill="#B00822" d="M15.2,9.5c0.9,0,1.8,0,2.7,0c0,0.2-0.1,0.7-0.1,1c-0.9,0-1.8,0-2.7,0C15.2,10.2,15.2,9.7,15.2,9.5z"/>
<path fill="#C30318" d="M29.7,13.3c0.7-1.1,1.4-2.2,2.1-3.2c3.5,0.1,7,0.2,10.6,0.4c-1.8,0.6-3.7,0.3-5.5,0.4c-1.5,0-3-0.1-4.6-0.1
	c-0.1,0.9-0.2,1.8-0.3,2.6C31.3,13.4,30.5,13.3,29.7,13.3z"/>
<path fill="#B31127" d="M7.5,12.8c0.7-0.9,2-0.3,2.9-0.5c0,0.4,0,0.7,0,1.1C9.5,13.2,8,14,7.5,12.8z"/>
<path fill="#AD0712" d="M14.8,12.5c0.9,0,1.9,0,2.9,0c0,0.2-0.1,0.7-0.1,1c-0.9,0-1.8,0-2.8,0C14.8,13.2,14.8,12.7,14.8,12.5z"/>
<path fill="#B0081E" d="M2.6,18.7c2.4,0,4.8,0,7.2,0c-0.1,1-0.3,2.1-0.4,3.1C9.2,21,9,20.2,8.9,19.3c-2.1,0-4.2,0-6.3-0.2L2.6,18.7z
	"/>
<g>
	<path fill="#B62A36" d="M31.1,25.2c1,0,2,0.1,2.9,0.3c-0.1,0.6-0.3,1.2-0.6,1.8c0.1,0.2,0.4,0.5,0.5,0.7c-0.5,1.5-2.2,1.3-3.5,1.3
		C30.7,27.9,30.9,26.6,31.1,25.2z M32,25.8c0,0.4,0.1,1.1,0.1,1.5c0.3-0.4,0.7-0.8,1.1-1.1C32.8,26,32.2,25.9,32,25.8z M31.5,27.4
		c0,0.4,0,1.2,0,1.5c0.4-0.2,0.9-0.4,1.3-0.7C32.9,27.5,32.1,27.5,31.5,27.4z"/>
</g>
<path fill="#CB031E" d="M34.4,29.4c0.4-1.5,0.1-3.3,1.4-4.4c0,1.4-0.1,2.7-0.5,4.1C35.1,29.1,34.6,29.3,34.4,29.4z"/>
<path fill="#B5333E" d="M37.2,25.4c0.2-0.1,0.6-0.2,0.9-0.3c-0.1,0.5-0.1,1-0.2,1.5c0.8-0.6,1.5-1.3,2.5-1.5c-0.5,0.7-1,1.3-1.5,1.9
	c0.3,0.8,0.7,1.6,1,2.4c-1.2,0-1.5-1.2-2.1-2c-0.3,0.8-0.3,1.9-1.4,2C36.6,28.1,36.8,26.7,37.2,25.4z"/>
<path fill="#AC202D" d="M41.2,25.2c0.8,0,1.6,0.1,2.5,0.1l0,0.7c-0.6,0-1.2,0-1.7,0c0,0.2,0,0.7,0,1c0.4,0,1.2,0.1,1.7,0.1
	c-0.6,0.4-1.4,0.6-2.1,0.7c0,0.2,0,0.7,0.1,0.9c0.6,0,1.2,0.1,1.8,0.1c-0.7,0.9-1.9,0.4-2.8,0.6C40.6,27.9,40.9,26.5,41.2,25.2z"/>
<g>
	<path fill="#B72B36" d="M43.9,29.3c0.3-1.4,0.5-2.8,0.8-4.2c0.8,0,1.5,0,2.3,0.2c0.5,0.6,0.2,1.3,0.1,1.9c0.1,0.3,0.2,0.9,0.3,1.2
		C46.4,29.4,45.1,29.3,43.9,29.3z M45.5,25.8c0,0.3,0,1,0,1.4c0.3-0.2,0.7-0.4,1-0.7C46.5,25.9,45.8,25.9,45.5,25.8z M45,27.6
		c0,0.3,0,0.9,0.1,1.3c0.7-0.1,1.2-0.5,1.2-1.2C45.9,27.6,45.3,27.6,45,27.6z"/>
</g>
<g>
	<path fill="#B5303A" d="M49.3,25.4c1-0.7,2.6-0.1,2.6,1.2c0.3,1.6-1.5,3.3-3.1,2.5C47.5,28.2,48.2,26.2,49.3,25.4z M49.6,25.9
		c-0.3,0.9-0.8,1.9-0.2,2.8c1.5,0.1,1.5-1.7,1.4-2.7C50.5,25.9,49.9,25.9,49.6,25.9z"/>
</g>
<path fill="#FFFFFF" d="M32,25.8c0.3,0.1,0.9,0.3,1.2,0.3c-0.4,0.4-0.7,0.8-1.1,1.1C32,26.9,32,26.1,32,25.8z"/>
<path fill="#FEFDFD" d="M45.5,25.8c0.3,0.2,1,0.1,1,0.7c-0.3,0.2-0.6,0.5-1,0.7C45.5,26.8,45.5,26.1,45.5,25.8z"/>
<path fill="#F9FCFE" d="M49.6,25.9c0.3,0,0.9,0.1,1.2,0.1c0.1,1,0.1,2.9-1.4,2.7C48.8,27.8,49.4,26.8,49.6,25.9z"/>
<path fill="#F6BFC4" d="M31.5,27.4c0.6,0.1,1.4,0.1,1.3,0.9c-0.4,0.2-0.9,0.4-1.3,0.7C31.5,28.6,31.5,27.8,31.5,27.4z"/>
<path fill="#FEFDFD" d="M45,27.6c0.3,0,1,0.1,1.3,0.1c-0.1,0.7-0.5,1.1-1.2,1.2C45,28.5,45,27.9,45,27.6z"/>
</svg>
