<?xml version="1.0" encoding="utf-8"?>
<!-- Generator: Adobe Illustrator 18.1.1, SVG Export Plug-In . SVG Version: 6.00 Build 0)  -->
<svg version="1.1" id="图层_1" xmlns="http://www.w3.org/2000/svg" xmlns:xlink="http://www.w3.org/1999/xlink" x="0px" y="0px"
	 viewBox="0 0 73.1 36.4" enable-background="new 0 0 73.1 36.4" xml:space="preserve">
<path fill="#F56202" d="M26.2,2.9C25.8,1,28-0.6,29.7,0.2c1.7,0.9,1.1,3.1,1.2,4.6C29.1,5.4,26.4,5.1,26.2,2.9z"/>
<path fill="#F66403" d="M33.1,0.7c1.2-1.3,3.6-0.7,4.1,1c0.4,1.3-0.4,2.7-1.6,3.1c-1,0.4-2.1,0.1-3.1,0C32.6,3.5,32.1,1.9,33.1,0.7z
	"/>
<path fill="#F86502" d="M0.5,3.1c1.5,0,3.1,0,4.6,0c3.4,5.2,6.6,10.5,10.2,15.5c0.4-5.2-0.2-10.4,0.2-15.5c1.2,0,2.5,0,3.7,0
	c-0.1,7.3,0.1,14.6-0.1,22c-1.3,0-2.6,0-3.9,0C11.5,19.9,8.3,14.4,4.5,9.3c-0.2,5.2,0,10.5-0.1,15.7c-1.3,0-2.6,0-3.9,0
	C0.5,17.7,0.5,10.4,0.5,3.1z"/>
<path fill="#FA6501" d="M44,3.1c1.3,0,2.6,0,3.9,0c-0.1,5.2,0,10.5,0,15.8c0,0.8-0.1,2.1,1,2.3c1.7,0.3,3.5,0.1,5.2,0.1
	c0,1.3,0,2.5,0,3.8c-2.3-0.1-4.7,0.2-7-0.2c-1.8-0.3-3.1-2-3-3.8C44,15,44.1,9,44,3.1z"/>
<path fill="#F96501" d="M25.2,7c1.6-1.1,3.7-0.8,5.6-0.9c0.3,1.2,0.3,2.5,0.1,3.7c-1,0-2.1,0.1-3.1,0.2c-0.9,1.5-0.5,3.3-0.6,4.9
	c0.1,1.8-0.2,3.6,0.1,5.3c0.7,1.4,2.4,0.9,3.6,1c1.6-0.1,3.5,0.4,4.9-0.6c0.1-0.1,0.4-0.3,0.5-0.4c0.3-3.1,0.3-6.1,0.1-9.2
	c-0.1-0.1-0.4-0.4-0.6-0.5c-0.9-0.9-2.3-0.8-3.4-0.8c0-1.2,0-2.4,0-3.7c1.6,0,3.2-0.2,4.7,0.4c1.4,0.6,2.6,2,2.5,3.6
	c0,3.6,0,7.2,0,10.8c0.1,2.2-1.9,4-4,4c-2.6,0.1-5.2,0-7.8,0c-2,0-4.2-1.4-4.4-3.6c-0.2-3.5,0-6.9-0.1-10.4
	C23.3,9.6,23.8,7.9,25.2,7z"/>
<g>
	<path fill="#F86501" d="M58.3,6.3c3-0.2,5.9,0,8.9-0.1c1.6,0,3.6,0,4.8,1.4c1.1,1,1.1,2.6,1.1,3.9c0,3.2,0,6.3,0,9.5
		c0,1.8-1.4,3.6-3.2,3.9c-2,0.3-4,0.1-6.1,0.1c-1.7,0-3.5,0.3-5-0.7c-1.5-0.8-2.1-2.6-2-4.2c0-1.7-0.2-3.4,0.4-5
		c0.5-1.5,2-2.6,3.6-2.6c2.8-0.1,5.7,0,8.5,0c0-0.7-0.1-1.5-0.1-2.2c-1.5-0.6-3.1-0.5-4.6-0.4c-2.1,0-4.1,0-6.2,0
		C58.3,8.7,58.3,7.5,58.3,6.3z M60.5,18c0,1.1-0.3,3,1.2,3.2c2.3,0.1,4.6,0.2,6.9-0.1c1.5-1.2,0.7-3.4,0.9-5c-2.5,0-5,0-7.5,0
		C61,16.1,60.3,17.1,60.5,18z"/>
</g>
<path fill="#DF6C19" d="M35.9,10.6c0.1,0.1,0.4,0.4,0.6,0.5c0.2,3.1,0.2,6.1-0.1,9.2c-0.1,0.1-0.4,0.3-0.5,0.4
	C36.1,17.4,36,14,35.9,10.6z"/>
<g>
	<path fill="#73B7B9" d="M5.6,35.1c-0.2-0.3-0.4-0.7-0.5-1c0.5-0.1,1.1-0.2,1.6-0.3C7,32.9,6.1,32.5,5.6,32c0.3-0.5,0.6-1.1,1-1.6
		c-1.7,0-3.5,0.1-5.2-0.4c0.1,0.2,0.4,0.6,0.6,0.8c-0.6-0.1-1.2-0.2-1.8-0.3c0.4,0.4,0.8,0.9,1.2,1.3c-0.3,0.4-0.7,0.8-1,1.2
		c0.5,0.3,1.1,0.7,1.6,1c-0.7,0.5-1.4,1-2,1.6c0.9-0.2,2-0.7,2.5,0.4c1.6,0.1,3.1,0.1,4.7,0C6.9,35.4,6.2,35.4,5.6,35.1z M5.7,33.4
		c-0.4,0.5-1.5-0.1-1-0.7C5.1,32.3,6.2,32.8,5.7,33.4z M2.7,35.5c0.3-0.7,0.3-1.3,0-1.8c0.2-0.2,0.6-0.5,0.8-0.6
		c-0.6-0.6-1.3-0.5-2-0.1c0.3-0.2,0.6-0.5,1-0.7c0.1-0.3,0.2-0.9,0.2-1.1c1,0,1.9,0,2.9,0c-0.6,0.5-1.3,1.1-1.9,1.6
		c0.5,0.9,1,1.9,1.5,2.8C4.2,35.5,3.4,35.5,2.7,35.5z"/>
	<path fill="#73B7B9" d="M17.1,30.2c-0.2,0-0.5,0-0.6-0.1c0,0.3,0.1,1,0.1,1.3c-0.8,0-1.5,0.1-2.3,0.2c-0.1-0.3-0.4-0.8-0.5-1
		c-0.6,0-1.2,0-1.9,0c-0.2,1.6-0.2,3.2-0.2,4.7c0.7-0.1,1.4-0.2,2.1-0.4c0.1-1,0.2-2.1,0.3-3.1c0.8,0.1,1.6,0.2,2.4,0.4
		c-0.1,0.2-0.4,0.5-0.5,0.7c-0.6,0.2-1.1,0.3-1.7,0.4c0.6,0.2,1.2,0.4,1.8,0.7c0.1,0.3,0.3,1,0.4,1.4c-0.5,0.3-0.9,0.6-1.4,0.9
		c0.6-0.2,1.7,0.3,1.9-0.6c0.2-1.2,0.1-2.4,0.1-3.5c0.2-0.1,0.6-0.2,0.8-0.2C17.6,31.4,17.3,30.8,17.1,30.2z M13.5,34.6
		c-0.3,0-0.8,0.1-1.1,0.1c0-1.2,0-2.4-0.1-3.6c0.3,0,0.9,0,1.2,0C13.6,32.3,13.5,33.5,13.5,34.6z"/>
	<path fill="#73B7B9" d="M24.2,31.6c0.7-0.1,0.3-1,0-1.2c-0.2,0-0.6-0.1-0.8-0.1C23,30.8,23.6,31.6,24.2,31.6z"/>
	<path fill="#73B7B9" d="M26.3,32.4c-0.1-0.8-0.1-1.6-0.1-2.4l-0.7,0c0,0.7,0,1.4,0,2.1c-0.8,0-1.7,0.1-2.5,0.1c0,1.3,0,2.7-0.1,4
		l0.7,0c0-1.2,0-2.3,0-3.5c1.4-0.1,2.7-0.1,4.1,0c0,0.9,0,1.8,0,2.7c-0.4,0.2-0.9,0.4-1.3,0.6c0.6,0.1,1.3,0.1,2,0.2
		c0.1-1.4,0.1-2.7,0.1-4.1c-0.3,0-0.9-0.1-1.2-0.1c0.4-0.6,0.8-1.1,1.2-1.7C27.1,30,27.2,31.8,26.3,32.4z"/>
	<path fill="#73B7B9" d="M34.6,32.1c0-0.3-0.1-0.8-0.1-1.1c1.6,0.1,3.3,0.1,4.9,0.1c0,0.2-0.1,0.7-0.2,1c-1.3-0.1-2.7-0.2-4,0.2
		c1.3,0.1,2.6,0.2,3.9,0.2c0.2-0.6,0.4-1.2,0.6-1.8c-1.1-0.2-2.5,0.4-3.2-0.7c-0.1,0.2-0.3,0.5-0.4,0.7c-0.8-0.1-1.5-0.1-2.2-0.2
		c0,0.5,0,1,0,1.5C34.2,32.1,34.5,32.1,34.6,32.1z"/>
	<path fill="#73B7B9" d="M48.7,32.2c-0.3,0-0.9-0.1-1.2-0.1c0-0.2,0-0.6,0-0.8c0.4-0.1,0.9-0.2,1.3-0.4c-1.2-0.6-2.6-0.7-3.9-0.5
		c0,0.8-0.1,1.6-0.2,2.3C46,32.6,47.8,33.4,48.7,32.2z"/>
	<path fill="#73B7B9" d="M60.7,32.3c-0.4,0.4-0.5,1.3-1.3,1.2c-0.4-0.5-1.2-0.9-1.2-1.6c1.2,0,2.4,0.1,3.6,0.1
		c0-0.5-0.1-1.1-0.1-1.6c-2,0-4-0.2-5.9,0.4c1.9,0,3.7-0.1,5.6-0.1l0,0.9c-1.9,0-3.8-0.1-5.7,0.1c0.5,0.5,1.8,0,1.9,0.7
		c0,0.1-0.1,0.3-0.1,0.4l-1,0.2l0.2,0.4c0.4-0.2,1.3-0.5,1.7-0.7c0.2,0.6,0.4,1.2,0.6,1.8c-0.2,0-0.6,0.1-0.8,0.1
		c-0.8,0.3-0.6-1.3,0.1-1.2l-0.6-0.2c-0.6,0.4-1.3,0.7-1.9,1.1c0.4,0,1.2-0.1,1.6-0.2c-0.1,0.2-0.2,0.7-0.2,0.9
		c-0.6,0.3-1.1,0.6-1.6,0.9c0.6-0.1,1.2-0.3,1.8-0.6c0.3-0.1,0.9-0.3,1.3-0.4c-0.1,0.3-0.2,0.8-0.2,1.1c0.3,0.1,0.6,0.2,0.9,0.3
		c0-0.7,0-1.5,0-2.2c0.2,0,0.7-0.1,0.9-0.1c0.5,0.8,1.1,1.5,1.9,2c-0.4-0.8-1-1.5-1.6-2.1C60.5,33.6,60.6,32.7,60.7,32.3z"/>
	<path fill="#73B7B9" d="M49,30.1c-0.1,1.5-0.1,3.1,0,4.6C49.9,33.5,50.2,31.2,49,30.1z"/>
	<path fill="#73B7B9" d="M50.2,35.4c-0.6,0.2-1.2,0.4-1.8,0.6c0.8,0.1,1.6,0.2,2.4,0.3c0-2,0-4,0.1-6l-0.7,0
		C50.2,32,50.2,33.7,50.2,35.4z"/>
	<path fill="#73B7B9" d="M26.7,33c-0.7,0-1.4,0-2.1,0c0,0.8,0,1.6,0,2.5c0.6-0.1,1.3-0.2,1.9-0.3C27.5,34.8,26.8,33.7,26.7,33z
		 M26.1,34.7c-0.7,0.5-1.3-0.6-0.7-1C26.1,33.1,26.7,34.2,26.1,34.7z"/>
	<path fill="#73B7B9" d="M37,34.5c0.9-0.1,1.8-0.2,2.7-0.3c-0.9-1.1-2.4-1.1-3.7-1.4c0.1,0.5,0.3,0.9,0.4,1.4
		c-0.4,0.2-0.8,0.3-1.1,0.5c0-0.7,0-1.3,0-2c-0.8,1.1-1.1,2.5-1.9,3.6c0.9-0.4,1.9-0.8,2.8-1.2c0.2,2,2.6,0.9,3.9,1.1
		C39.5,34.8,37.3,36.2,37,34.5z"/>
	<path fill="#73B7B9" d="M45.1,33.1c0,1.1,0,2.2,0.1,3.3c1-0.5,0.5-1.8,0.6-2.8c0.9,0,1.7,0.1,2.6,0.1l0-0.7
		C47.3,33.1,46.2,33.1,45.1,33.1z"/>
	<path fill="#73B7B9" d="M46.6,34.1c-0.4,0.3-0.4,1.4,0.3,1.4C47.2,35.1,47.2,34.1,46.6,34.1z"/>
	<path fill="#73B7B9" d="M47.9,34.2c-0.4,0.5-0.3,0.8,0.3,0.9C48.5,34.5,48.4,34.2,47.9,34.2z"/>
	<path fill="#73B7B9" d="M71.3,33.9c0.6-0.1,1.2-0.3,1.8-0.5c-0.1-0.4-0.2-0.9-0.2-1.3c0-0.6,0-1.1,0-1.7c-1.7,0-3.4,0-5.1-0.2
		c-0.1,0.2-0.3,0.6-0.5,0.8c0.5,1.8,0,3.6-0.1,5.3c1.2-0.4,0.9-2,1.2-3c0.5,0.2,1.1,0.4,1.7,0.6c-0.3,0-0.9,0-1.2,0
		c0,0.8,0,1.6,0,2.3c1.2-0.1,2.5-0.2,3.7-0.1c0-0.8-0.1-1.5-0.1-2.2C72.1,33.9,71.6,33.9,71.3,33.9z M69.5,35.5
		c0-0.3-0.1-0.8-0.1-1.1c0.7,0,1.5,0,2.2,0.1c0,0.3,0,0.8,0,1C71,35.5,70.2,35.5,69.5,35.5z"/>
</g>
</svg>
