<?xml version="1.0" encoding="utf-8"?>
<!-- Generator: Adobe Illustrator 18.1.1, SVG Export Plug-In . SVG Version: 6.00 Build 0)  -->
<svg version="1.1" id="图层_1" xmlns="http://www.w3.org/2000/svg" xmlns:xlink="http://www.w3.org/1999/xlink" x="0px" y="0px"
	 viewBox="0 0 52.3 44.7" enable-background="new 0 0 52.3 44.7" xml:space="preserve">
<g>
	<path fill="#D99C7E" d="M4.3,0h43.6c2.4,1,4.5,3.2,4.4,5.9c-0.1,8.2-0.1,16.4-0.1,24.6c0.2,3.2-2.6,6.1-5.8,6.2
		c-3.3,0.1-6.6,0-9.8,0c-0.8,1.6-1.5,3.3-2.7,4.6c-3.4,3.8-9.6,4.5-13.8,1.6c-2.2-1.4-3.4-3.8-4.5-6.1c-3.4,0-6.8,0.2-10.1-0.1
		c-3-0.3-5.6-3-5.5-6.1c0-8.2,0-16.4,0-24.6C-0.1,3.2,1.9,0.9,4.3,0z M1.3,3.6C0.5,5,0.7,6.6,0.7,8.1c0,7.5,0,15,0,22.5
		c0,2.9,2.6,5.4,5.4,5.5c3.4,0.1,6.8-0.1,10.2,0.1c0.7,2.4,2,4.6,4.1,6c3.3,2.5,8.1,2.5,11.4,0c2.1-1.4,3.2-3.7,4.2-5.9
		c3.7-0.6,7.6,0.1,11.3-0.3c1.6-0.4,2.9-1.6,3.7-3c0.7-1.1,0.5-2.4,0.5-3.7c0-7.6-0.1-15.3,0-22.9c0.2-3-2.5-5.7-5.5-5.9
		c-13.2,0-26.4,0-39.5,0C4.4,0.4,2.2,1.7,1.3,3.6z"/>
</g>
<g>
	<path fill="#FEFEFD" d="M1.3,3.6c1-1.9,3.1-3.2,5.3-3.1c13.2,0,26.4,0,39.5,0c2.9,0.1,5.7,2.8,5.5,5.9c-0.1,7.6,0,15.3,0,22.9
		c-0.1,1.2,0.2,2.6-0.5,3.7c-0.8,1.4-2.1,2.6-3.7,3c-3.7,0.4-7.6-0.3-11.3,0.3c-1,2.2-2.1,4.5-4.2,5.9c-3.3,2.5-8.1,2.4-11.4,0
		c-2.1-1.4-3.4-3.7-4.1-6c-3.4-0.1-6.8,0-10.2-0.1c-2.9,0-5.5-2.6-5.4-5.5c0-7.5,0-15,0-22.5C0.7,6.6,0.5,5,1.3,3.6z M4.6,1.5
		C3.3,2.3,1.9,3.3,1.7,4.9c-0.4,1.9-0.2,3.8-0.3,5.7c0,6.1,0,12.2,0,18.2c0,0.9,0.1,1.8,0.2,2.8l0,0.3c0.6,1.2,1.4,2.4,2.7,2.9
		c0.6,0.3,1.2,0.6,1.9,0.6c3.7,0,7.3,0,10.9,0c0.7,3.5,3.3,6.7,6.8,7.6c1.9,0.5,4,0.4,5.8-0.4c2.6-1.1,4.6-3.6,5.3-6.3
		c0.1-0.2,0.3-0.6,0.4-0.8c2.7,0,5.4,0,8.1,0c1.5,0,3.1,0.2,4.6-0.5c1-0.5,1.7-1.4,2.3-2.2c0.7-1.7,0.5-3.7,0.5-5.5
		c0-6.8,0-13.6,0-20.4c0-1-0.2-2-0.5-2.9c-0.7-0.8-1.4-1.5-2.2-2.1l-0.3,0C46.4,1,44.7,1.2,43,1.2c-12,0-24,0-36.1,0
		C6.2,1.2,5.4,1.4,4.6,1.5z"/>
</g>
<path fill="#C7463A" d="M4.6,1.5C5.4,1.4,6.2,1.2,7,1.2c12,0,24,0,36.1,0c1.6,0,3.3-0.2,4.8,0.5c-10.7-0.2-21.3,0-32-0.1
	C12.1,1.6,8.4,1.8,4.6,1.5z"/>
<g>
	<path fill="#E32718" d="M1.7,4.9c0.3-1.6,1.6-2.6,2.9-3.3c3.8,0.3,7.5,0,11.3,0.1c10.7,0.1,21.3-0.1,32,0.1l0.3,0
		c0.8,0.7,1.5,1.4,2.2,2.1c-0.4,6.2,0,12.4-0.2,18.6c0.1,3.4-0.2,6.8,0.1,10.2c-0.6,0.9-1.3,1.7-2.3,2.2c-4.3,0-8.6-0.1-12.9,0.1
		c-0.1,0.3-0.2,0.9-0.2,1.2c-0.7,2.7-2.7,5.2-5.3,6.3c-1.9,0.3-3.8,0.5-5.8,0.4c-3.6-0.8-6.1-4-6.8-7.6l-0.1-0.4
		c-4.2-0.2-8.5-0.1-12.7-0.2c-1.3-0.4-2.1-1.7-2.7-2.9l0-0.3C2,25.7,1.7,19.9,1.9,14C1.9,11,2,7.9,1.7,4.9z M34.1,5
		C34,6.5,34,8,34,9.4c-6.2,0-12.4,0.1-18.6,0.1l0.3-0.7c2.6-0.3,5.2,0,7.8-0.2c0.4-0.5,0.8-1,1.2-1.5c-2.6-0.2-5.2-0.1-7.8-0.1
		c0-0.2,0.1-0.6,0.2-0.8c2.3-0.1,4.6,0,6.9-0.1c0.3-0.6,0.6-1.2,0.9-1.8c-2.1-0.1-4.2,0-6.3,0c-0.3-1.5-1.8-0.6-2.7-0.5
		C14,5.3,10.9,3,9.3,5c-0.8,0.8-0.1,1.8,0.8,1.9c-0.3,0.3-0.7,1-1,1.4c0.1,0.5,0.2,1,0.4,1.4c-0.1,0.3-0.4,0.8-0.6,1
		c-0.3,0.6-0.5,1.2-0.8,1.7c-0.3,0.5-0.6,1-0.9,1.5c0.7,0,1.4,0,2.1,0.1c0,1.9,0,3.7-0.1,5.6c0.6,0.2,1.2,0.4,1.8,0.3
		c3.7,0,7.4,0,11.1,0c0.8,0,1.7-0.4,1.8-1.3c0.1-1.5,0-3,0-4.5c0.6-0.2,1.2-0.3,1.9-0.5c-0.6-0.8-1.2-1.5-1.7-2.3
		c2.4,0,4.8-0.1,7.2,0c-1.1,2.3-2.2,4.5-3.3,6.8c-1.3,2.3-0.7,5-0.7,7.5c2.3-4.7,4.6-9.5,7-14.3c0.8,0,1.7,0,2.5,0
		c0.1,2.3,0,4.6,0,6.9c0,0.6,0.2,1.5,1,1.6c1.4,0.1,2.8,0.1,4.2,0c0.8-0.4,1.1-1.4,1.6-2.1c-1.3,0-2.6,0-3.9,0c0-2.1-0.1-4.2,0-6.3
		c0.9,0,1.9,0,2.8-0.1c0.3-0.6,0.6-1.3,0.9-1.9c-0.5-0.4-1-0.5-1.6-0.7c0-0.4,0-0.7,0.1-1.1c0.2-1,0.1-2.3-1-2.7
		c-1.2-0.7-2.7,0-3.2,1.2c-0.1-0.8-0.5-1.5-1-2.1c0-0.3,0-0.8,0-1.1C35.7,3.1,34.3,3.7,34.1,5z M44.1,3.2c-1.3,0.9-1.1,3.2,0.5,3.6
		c1.7,0.9,3.7-1.5,2.6-3C46.6,2.8,45.1,3,44.1,3.2z M30,4.8c-1.2,0.5-1.6,2.1-0.8,3.1c0.8,1.2,2.7,1.3,3.4,0C34,6.3,31.8,3.7,30,4.8
		z M3.8,22.4c6,0.4,12,0,18,0.2c1.5,0,3,0.2,4.4-0.4c-0.9-0.6-2.1-0.5-3.1-0.5c-5.9,0.1-11.9-0.1-17.8,0.1
		C4.6,21.5,4.1,21.9,3.8,22.4z M30.6,22.3c5.6,0.4,11.2,0.1,16.7,0.2c0.5,0,2,0,1.3-0.9c-4.8-0.3-9.7,0-14.5-0.1
		C32.9,21.6,31.5,21.3,30.6,22.3z M4.4,28.4c0,1.3-0.2,3.7,1.8,3.4c1.3,0,1.1-1.5,1.2-2.3c-0.2,0-0.7-0.1-1-0.1
		c-0.2,0.5-0.4,0.9-0.6,1.4c-0.2-1.3-0.2-2.7,0-4c0.2,0.5,0.4,1.1,0.6,1.6c0.3,0,0.8,0,1.1,0c-0.1-0.9,0-2.3-1.2-2.4
		C4.7,25.6,4.2,27.3,4.4,28.4z M8,26c0,1.9,0,3.8,0,5.8c0.7,0,1.3,0,2,0c0.3,0,0.8,0,1,0l0-0.3c0.3,0.1,0.9,0.2,1.2,0.3
		c0.7,0.1,2.1,0.3,2.2-0.7c0.2-1.6,0.1-3.3,0.1-4.9c-0.3,0-0.9,0-1.2,0c-0.1,1.7,0,3.4-0.2,5.1c-0.4-1.6-0.1-3.3-0.1-5
		c-0.4,0-0.8-0.1-1.3-0.1l0,0.3l-0.9,0l0-0.5C9.9,25.9,9,26,8,26z M15.3,26c0,1.9-0.1,3.8,0,5.7c1.2,0.6,1.1-0.8,1.2-1.5
		c0.3,0.8,0.5,1.9,1.6,1.7c0-1.9,0-3.8,0-5.7c-0.4,0-0.8,0-1.1-0.1c0,0.6-0.1,1.1-0.1,1.7C16.6,27,16.4,25.8,15.3,26z M34,26.9
		c-0.1,1.4-0.1,2.8,0.1,4.2c0.2,0.8,1.1,0.7,1.8,0.7c0.4-0.2,1.1-0.2,1.1-0.7c0.9,1.4,2.8,0.2,4.1,0.6l0.4,0c1,0.3,3.2,0.4,2.8-1.2
		c0.1,0.3,0.3,1,0.4,1.3c0.2,0,0.6-0.1,0.8-0.1c0.2,0,0.6,0.1,0.8,0.2c0.7-0.1,1.4-0.2,2.1-0.3c0.3-1.6,0.2-3.2,0.1-4.9
		c-0.6-0.8-2.1-1.1-2.6,0c-0.1-0.1-0.4-0.4-0.5-0.5c-0.2,0-0.7-0.1-0.9-0.2c-0.1,0.6-0.2,1.1-0.2,1.7c-0.2-0.9-0.4-1.7-1.5-1.8
		l0,0.4c-0.3,0.4-0.5,0.9-0.7,1.4C42,27.1,42,26.5,41.9,26c-2-0.1-4-0.1-6,0C35.2,25.8,34.1,26,34,26.9z M19.2,33.6
		c-0.4,3.9,2.8,7.9,6.9,7.8c2.8,0.1,5.3-1.6,6.5-4c-0.6-0.3-1.2-0.7-1.7-1c-1.2,1.1-2.6,2.4-4.3,2.5c-2.9,0.4-5.6-2.4-5-5.3
		c0.2-3.3,4.7-5.5,7.3-3.2c0.1-0.2,0.4-0.6,0.6-0.8c0.5-0.1,1.4,0.5,1.6-0.3c-0.9-1.2-2.6-1.9-4-2.2C23.1,26.5,19.4,29.8,19.2,33.6z
		 M23.8,32.1c0.5,0.4,1,0.9,1.6,1.3c-0.6,0.3-1.1,0.7-1.5,1.2c0.4,0,1.1,0,1.4,0c-0.1,0.7-0.8,1-1.4,1.3c0.7,0.4,1.3,0.8,1.9,1.3
		c0.1-0.2,0.2-0.5,0.2-0.6c0.7-0.4,1.5-0.7,2.3-1c1.3-0.5,2.7-0.8,3.8-1.7c-0.8-0.2-1.6-0.3-2.3-0.5c0.5-0.6,1.6-1,1.2-1.9
		c-1.1,0.1-2.2,0.4-3.3,0.5c-0.6,0-1.2,0.1-1.8,0.3C25.3,32.1,24.5,31.9,23.8,32.1z"/>
</g>
<g>
	<path fill="#FDFEFD" d="M34.1,5c0.2-1.4,1.6-1.9,2.8-2.1c0,0.3,0,0.8,0,1.1c0,1.8,0,3.6,0,5.4c2.2,0,4.5,0.1,6.7-0.1
		c-0.3,0.6-0.6,1.3-0.9,1.9c-0.9,0-1.9,0.1-2.8,0.1c-0.1,2.1,0,4.2,0,6.3c1.3,0,2.6,0,3.9,0c-0.5,0.7-0.8,1.7-1.6,2.1
		c-1.4,0.2-2.8,0.2-4.2,0c-0.8,0-1-0.9-1-1.6c-0.1-2.3,0.1-4.6,0-6.9c-0.8,0-1.7,0-2.5,0c-2.4,4.7-4.6,9.5-7,14.3
		c0-2.5-0.6-5.2,0.7-7.5c1.1-2.3,2.2-4.5,3.3-6.8c-2.4-0.1-4.8,0-7.2,0c0.5,0.8,1.1,1.6,1.7,2.3c-0.6,0.2-1.3,0.3-1.9,0.5
		c0,1.5,0.1,3,0,4.5c-0.1,0.9-1,1.3-1.8,1.3c-3.7,0-7.4,0-11.1,0c-0.6,0-1.2-0.2-1.8-0.3c0-1.9,0-3.7,0.1-5.6c-0.7,0-1.4,0-2.1-0.1
		c0.3-0.5,0.6-1,0.9-1.5c0.9-0.2,1.9-0.3,2.8-0.4c0-0.2-0.1-0.5-0.1-0.7c-0.7,0-1.4,0-2-0.2L9,10.8c0.1-0.3,0.4-0.8,0.6-1
		c1.2-0.3,2.6,0.1,3.4-1c-1.2-0.1-2.4-0.1-3.7-0.1L9.2,8.3c0.3-0.3,0.7-1,1-1.4c1.2,0,2.4,0,3.6,0C13.8,6.7,14,6.3,14,6.1
		c-1.7,0-3.3,0-5,0C9.1,5.8,9.3,5.3,9.3,5c1.6-2,4.7,0.3,6.5-1.4c1,0,2.5-0.9,2.7,0.5c2.1,0,4.2-0.1,6.3,0c-0.3,0.6-0.6,1.2-0.9,1.8
		c-2.3,0.1-4.6,0-6.9,0.1C17,6.4,17,6.8,16.9,7c2.6,0,5.2-0.1,7.8,0.1c-0.4,0.5-0.8,1-1.2,1.5c-2.6,0.1-5.2-0.2-7.8,0.2l-0.3,0.7
		c6.2,0,12.4,0,18.6-0.1C34,8,34,6.5,34.1,5z M13.9,12.4c2.1,0,4.3,0.1,6.4,0c0.1-0.2,0.2-0.7,0.2-1c-2,0-4-0.1-5.9,0
		C14.4,11.7,14,12.1,13.9,12.4z M12.7,14.6c-0.1,0.2-0.2,0.5-0.3,0.7c2.9,0.1,5.9,0.1,8.8,0c-0.1-0.2-0.2-0.6-0.3-0.9
		C18.2,14.4,15.4,14.2,12.7,14.6z M12.6,17c0,0.3,0,0.8,0,1.1c2.8-0.1,5.6,0.1,8.4-0.1c0.1-0.3,0.2-0.8,0.2-1.1
		C18.4,17,15.5,16.9,12.6,17z"/>
</g>
<g>
	<path fill="#FDFEFC" d="M44.1,3.2c0.9-0.2,2.5-0.4,3.1,0.6c1.1,1.5-0.8,3.9-2.6,3C43,6.4,42.9,4.2,44.1,3.2z M45.2,3.3
		c0.5,0.6,1.2,1.1,1,1.9c-0.2,0.8-1.1,0.5-1.7,0.7c0-0.9,0-1.7,0.1-2.6c-0.8,0.7-0.9,1.6-0.8,2.6c0.3,0.2,0.8,0.7,1,0.9
		c0.8,0,1.7,0,2-0.8C47.7,4.6,46.5,3.2,45.2,3.3z M45.2,4.7"/>
</g>
<path fill="#AD2727" d="M45.2,3.3c1.3-0.1,2.5,1.4,1.6,2.6c-0.4,0.8-1.3,0.9-2,0.8c-0.3-0.2-0.8-0.7-1-0.9c0-1,0.1-1.9,0.8-2.6
	c0,0.9,0,1.7-0.1,2.6c0.6-0.1,1.4,0.1,1.7-0.7C46.3,4.3,45.6,3.8,45.2,3.3z"/>
<path fill="#D62418" d="M36.9,4c0.5,0.6,1,1.3,1,2.1c0.1,1.1,0.5,2.5,1.8,2.6c1,0.3,1.8-0.5,2.4-1.1c0,0.4,0,0.7-0.1,1.1
	c0.6,0.2,1.1,0.3,1.6,0.7c-2.2,0.1-4.5,0-6.7,0.1C36.9,7.6,36.9,5.8,36.9,4z"/>
<path fill="#C42F24" d="M50.4,3.9c0.3,0.9,0.5,1.9,0.5,2.9c0,6.8,0,13.6,0,20.4c0,1.8,0.2,3.8-0.5,5.5c-0.3-3.4-0.1-6.8-0.1-10.2
	C50.4,16.3,50,10.1,50.4,3.9z"/>
<path fill="#FDFEFD" d="M30,4.8c1.8-1.2,4,1.5,2.6,3.1c-0.7,1.3-2.7,1.2-3.4,0C28.4,6.9,28.8,5.3,30,4.8z"/>
<path fill="#FEFDFC" d="M38,6.1c0.5-1.2,2-2,3.2-1.2c1.1,0.4,1.1,1.7,1,2.7c-0.6,0.6-1.4,1.4-2.4,1.1C38.4,8.6,38,7.2,38,6.1z"/>
<path fill="#972721" d="M45.2,4.7"/>
<path fill="#D05546" d="M1.4,10.6c0-1.9-0.2-3.8,0.3-5.7C2,7.9,1.9,11,1.9,14C1.7,19.9,2,25.7,1.6,31.6c-0.2-0.9-0.3-1.8-0.2-2.8
	C1.4,22.8,1.4,16.7,1.4,10.6z"/>
<path fill="#C53E36" d="M10.2,6.9C9.3,6.8,8.6,5.8,9.3,5C9.3,5.3,9.1,5.8,9.1,6.1c1.7,0,3.3,0,5,0c-0.1,0.2-0.2,0.6-0.3,0.8
	C12.6,6.9,11.4,7,10.2,6.9z"/>
<path fill="#C82E2B" d="M9.6,9.7c-0.1-0.5-0.3-1-0.4-1.4l0.2,0.3c1.2,0,2.4,0,3.7,0.1C12.2,9.8,10.7,9.5,9.6,9.7z"/>
<path fill="#B62F2D" d="M8.2,12.5c0.3-0.6,0.5-1.2,0.8-1.7l-0.1,0.5c0.7,0.2,1.4,0.1,2,0.2c0,0.2,0.1,0.5,0.1,0.7
	C10.1,12.2,9.1,12.3,8.2,12.5z"/>
<path fill="#B8362C" d="M13.9,12.4c0.2-0.2,0.5-0.7,0.7-0.9c2-0.1,4,0,5.9,0c-0.1,0.2-0.2,0.7-0.2,1C18.1,12.4,16,12.4,13.9,12.4z"
	/>
<path fill="#BF4C3F" d="M12.7,14.6c2.7-0.3,5.5-0.2,8.2-0.1c0.1,0.2,0.2,0.6,0.3,0.9c-2.9,0-5.9,0.1-8.8,0
	C12.5,15.1,12.6,14.7,12.7,14.6z"/>
<path fill="#D23A2F" d="M12.6,17c2.9-0.1,5.8,0,8.6-0.1c-0.1,0.3-0.2,0.8-0.2,1.1c-2.8,0.2-5.6,0-8.4,0.1
	C12.6,17.8,12.6,17.2,12.6,17z"/>
<path fill="#FD9323" d="M3.8,22.4c0.3-0.5,0.8-0.8,1.4-0.7c5.9-0.1,11.9,0,17.8-0.1c1.1,0,2.2-0.1,3.1,0.5c-1.4,0.7-2.9,0.4-4.4,0.4
	C15.8,22.4,9.8,22.8,3.8,22.4z"/>
<path fill="#FC9627" d="M30.6,22.3c0.9-1,2.3-0.7,3.5-0.7c4.8,0.1,9.7-0.2,14.5,0.1c0.7,0.9-0.8,0.9-1.3,0.9
	C41.7,22.4,36.1,22.8,30.6,22.3z"/>
<path fill="#FFFCF6" d="M4.4,28.4c-0.1-1.1,0.3-2.8,1.8-2.5c1.3,0.1,1.1,1.5,1.2,2.4c-0.3,0-0.8,0-1.1,0c-0.2-0.5-0.4-1.1-0.6-1.6
	c-0.1,1.3-0.2,2.7,0,4c0.2-0.5,0.4-0.9,0.6-1.4c0.3,0,0.8,0.1,1,0.1c-0.1,0.9,0,2.3-1.2,2.3C4.2,32.1,4.3,29.7,4.4,28.4z"/>
<path fill="#D68984" d="M8,26c1,0,1.9-0.1,2.9-0.2c-1,0.5-1,1.7-1.4,2.6c-0.2-0.7-0.2-1.5-0.4-2.2c-0.2,0-0.5,0.1-0.7,0.2
	c-0.2,1.8-0.2,3.5-0.1,5.3c1.4,0.1,0.5-2,1.5-2.6c0.1,0.9,0.1,1.8,0.2,2.7c-0.7,0-1.3,0-2,0C8,29.8,8,27.9,8,26z"/>
<path fill="#FFFCF9" d="M11.8,26c0.4,0,0.8,0.1,1.3,0.1c0,1.7-0.3,3.3,0.1,5c0.2-1.7,0.1-3.4,0.2-5.1c0.3,0,0.9,0,1.2,0
	c0,1.6,0.1,3.3-0.1,4.9c-0.1,1-1.5,0.8-2.2,0.7c-0.8-1.7-0.3-3.6-0.4-5.4L11.8,26z"/>
<path fill="#FEFDFC" d="M15.3,26c1.1-0.2,1.2,1,1.6,1.7c0-0.6,0.1-1.1,0.1-1.7c0.4,0,0.7,0,1.1,0.1c0,1.9,0,3.8,0,5.7
	c-1.1,0.1-1.3-1-1.6-1.7c-0.1,0.7,0,2.1-1.2,1.5C15.3,29.8,15.3,27.9,15.3,26z"/>
<g>
	<path fill="#FFFBFA" d="M34,26.9c0.1-0.9,1.2-1.1,2-0.9c0.5,0.6,0.6,1.4,0.6,2.2c-1,0.6-1.1-0.7-1.5-1.2c0,0.6,0.1,1.1,0.1,1.7
		c0.3,0,1,0,1.4,0.1c0,0.9,0,1.8-0.1,2.6c-0.2,0.1-0.5,0.3-0.6,0.4c-0.6,0-1.6,0.1-1.8-0.7C33.8,29.7,33.9,28.3,34,26.9z M35.1,29.8
		c-0.4,0.5-0.3,0.8,0.3,1C35.7,30.2,35.7,29.9,35.1,29.8z"/>
</g>
<path fill="#972721" d="M36,26c2-0.1,4-0.1,6,0c-0.4,0-1.2,0.1-1.6,0.1c-0.1,1.7-0.2,3.4-0.5,5.1c-0.2-1.7-0.1-3.5-0.4-5.2
	c-0.2,0.1-0.5,0.3-0.7,0.4c-0.8,1.4-0.2,3.2-0.6,4.7c-0.2-1.7-0.1-3.3-0.1-5c-0.3,0-0.9,0-1.3,0c0,1.7,0,3.3,0,5
	c0,0.6-0.7,0.5-1.1,0.7c0.2-0.1,0.5-0.3,0.6-0.4c0-0.9,0-1.8,0.1-2.6c-0.3,0-1,0-1.4-0.1c0-0.6-0.1-1.2-0.1-1.7
	c0.5,0.5,0.6,1.8,1.5,1.2C36.6,27.4,36.4,26.6,36,26z"/>
<path fill="#FBFEFE" d="M44.5,26c0.2,0,0.7,0.1,0.9,0.2c0,1.8,0,3.7,0,5.5c-0.2,0-0.6,0.1-0.8,0.1c-0.1-0.3-0.3-1-0.4-1.3
	c-0.1-0.3-0.2-0.7-0.3-1c-0.2,0.7-0.4,1.5-0.6,2.2c-0.3-1.9-0.4-3.9-0.5-5.9c1.1,0.1,1.3,1,1.5,1.8C44.3,27.1,44.4,26.5,44.5,26z"/>
<g>
	<path fill="#FEFDFD" d="M45.9,26.7c0.4-1.1,2-0.8,2.6,0c-0.1,0.6-0.3,1.2-0.6,1.8c-0.3-0.5-0.6-1.1-0.9-1.6c0,0.6,0,1.2,0,1.8
		c0.3,0,1,0,1.4,0c0,1,0,1.9,0,2.9c-0.7,0.1-1.4,0.2-2.1,0.3C45.6,30.2,45.7,28.4,45.9,26.7z M47,29.5c-0.3,0.3-0.4,1.4,0.2,1.3
		C47.5,30.5,47.6,29.5,47,29.5z"/>
</g>
<path fill="#FFFBFA" d="M8.4,26.3c0.2,0,0.5-0.1,0.7-0.2c0.3,0.7,0.3,1.5,0.4,2.2c0.4-0.9,0.5-2,1.4-2.6l0,0.5
	C11,28,11,29.7,11,31.4l0,0.3c-0.3,0-0.8,0-1,0c0-0.9-0.1-1.8-0.2-2.7c-1,0.7-0.1,2.8-1.5,2.6C8.2,29.9,8.1,28.1,8.4,26.3z"/>
<path fill="#B33229" d="M10.9,26.3l0.9,0c0.1,1.8-0.4,3.7,0.4,5.4c-0.3-0.1-0.9-0.2-1.2-0.3C11,29.7,11,28,10.9,26.3z"/>
<g>
	<path fill="#FDFEFD" d="M36.9,26c0.3,0,0.9,0,1.3,0c0,1.7-0.1,3.4,0.1,5c0.4-1.5-0.2-3.3,0.6-4.7c0.2-0.1,0.5-0.3,0.7-0.4
		c0.3,1.7,0.1,3.5,0.4,5.2c0.3-1.7,0.3-3.4,0.5-5.1c0.4,0,1.2-0.1,1.6-0.1c0.1,0.5,0.1,1.1,0.2,1.6c0.1,1.1,0.2,2.1,0.3,3.2
		c0,0.1-0.1,0.4-0.1,0.6c-0.2-0.1-0.7-0.3-1-0.4L41,30.9c0,0.2,0,0.6,0,0.8c-1.3-0.4-3.2,0.8-4.1-0.6C36.9,29.4,36.9,27.7,36.9,26z
		 M41,28.7c-0.4,0.5-0.3,0.8,0.3,0.9C41.7,29.1,41.6,28.7,41,28.7z"/>
</g>
<path fill="#B35751" d="M42.1,27.6c0.1-0.5,0.4-1,0.7-1.4c0,1.5-0.1,3.1-0.4,4.6C42.3,29.8,42.2,28.7,42.1,27.6z"/>
<path fill="#E3BAB4" d="M42.8,26.2l0-0.4c0.1,2,0.2,3.9,0.5,5.9c0.2-0.7,0.4-1.5,0.6-2.2c0.1,0.3,0.2,0.7,0.3,1
	c0.4,1.7-1.7,1.5-2.8,1.2c0-0.2,0-0.5,0-0.7c0.2,0.1,0.7,0.3,1,0.4c0-0.1,0.1-0.4,0.1-0.6C42.7,29.3,42.7,27.8,42.8,26.2z"/>
<path fill="#972721" d="M45.4,26.2c0.1,0.1,0.4,0.4,0.5,0.5c-0.2,1.7-0.3,3.5,0.3,5.1c-0.2,0-0.6-0.1-0.8-0.2
	C45.4,29.8,45.4,28,45.4,26.2z"/>
<path fill="#A91E1F" d="M48.4,26.7c0.1,1.6,0.2,3.2-0.1,4.9c0-1,0-1.9,0-2.9c-0.3,0-1,0-1.4,0c0-0.6,0-1.2,0-1.8
	c0.3,0.5,0.6,1.1,0.9,1.6C48.1,28,48.3,27.4,48.4,26.7z"/>
<path fill="#F87414" d="M19.2,33.6c0.3-3.7,3.9-7.1,7.7-6.5c1.5,0.3,3.1,0.9,4,2.2c-0.2,0.7-1.1,0.2-1.6,0.3
	c-0.1,0.2-0.4,0.6-0.6,0.8c-2.6-2.2-7.1-0.1-7.3,3.2c-0.5,2.9,2.2,5.7,5,5.3c1.8-0.1,3.1-1.4,4.3-2.5c0.6,0.3,1.2,0.7,1.7,1
	c-1.2,2.4-3.7,4.2-6.5,4C22,41.5,18.8,37.4,19.2,33.6z"/>
<path fill="#C8ACA8" d="M41,28.7c0.6,0.1,0.7,0.4,0.3,0.9C40.7,29.5,40.6,29.2,41,28.7z"/>
<path fill="#AC7E7E" d="M47,29.5c0.6,0,0.6,1,0.2,1.3C46.6,30.9,46.6,29.8,47,29.5z"/>
<path fill="#AA7F7D" d="M35.1,29.8c0.6,0.1,0.6,0.4,0.3,1C34.8,30.7,34.7,30.3,35.1,29.8z"/>
<path fill="#A14A41" d="M41,30.9l0.3,0.1c0,0.2,0,0.5,0,0.7l-0.4,0C41,31.5,41,31.1,41,30.9z"/>
<path fill="#FBFEFE" d="M23.8,32.1c0.7-0.2,1.5,0,2.2,0.2c-0.1,1.4-0.3,2.9,0.1,4.3c-0.1,0.2-0.2,0.5-0.2,0.6
	c-0.6-0.5-1.2-1-1.9-1.3c0.6-0.3,1.2-0.6,1.4-1.3c-0.4,0-1.1,0-1.4,0c0.4-0.5,0.9-0.9,1.5-1.2C24.8,33,24.3,32.5,23.8,32.1z"/>
<path fill="#B38A21" d="M27.7,32.1c1.1-0.1,2.2-0.4,3.3-0.5c0.4,0.9-0.8,1.3-1.2,1.9c0.8,0.2,1.6,0.3,2.3,0.5
	c-1.1,0.9-2.5,1.2-3.8,1.7c0.4-0.8,1-1.6,0.8-2.6C28.7,32.7,28.2,32.4,27.7,32.1z"/>
<path fill="#6CAB20" d="M26,32.3c0.6-0.2,1.2-0.3,1.8-0.3c0.5,0.3,1,0.6,1.4,1c0.2,1-0.4,1.8-0.8,2.6c-0.8,0.3-1.5,0.6-2.3,1
	C25.7,35.3,25.8,33.8,26,32.3z"/>
<path fill="#C43C30" d="M4.3,34.7c4.2,0.1,8.4,0,12.7,0.2l0.1,0.4c-3.7-0.1-7.3,0-10.9,0C5.4,35.3,4.8,35,4.3,34.7z"/>
<path fill="#C74138" d="M35.1,34.9c4.3-0.1,8.6,0,12.9-0.1c-1.4,0.6-3,0.4-4.6,0.5c-2.7,0-5.4,0-8.1,0c-0.1,0.2-0.3,0.6-0.4,0.8
	C35,35.8,35.1,35.2,35.1,34.9z"/>
<path fill="#972721" d="M23.9,42.9c1.9,0,3.9-0.1,5.8-0.4C27.8,43.3,25.8,43.4,23.9,42.9z"/>
</svg>
