<?xml version="1.0" encoding="utf-8"?>
<!-- Generator: Adobe Illustrator 18.1.1, SVG Export Plug-In . SVG Version: 6.00 Build 0)  -->
<svg version="1.1" id="图层_1" xmlns="http://www.w3.org/2000/svg" xmlns:xlink="http://www.w3.org/1999/xlink" x="0px" y="0px"
	 viewBox="0 0 75.7 34.1" enable-background="new 0 0 75.7 34.1" xml:space="preserve">
<g>
	<path fill="#C6171E" d="M0,0c25.3,0,50.5,0,75.7,0c-0.1,11.3,0,22.7-0.1,34c-25.2,0.1-50.4,0-75.7,0C0,22.7,0.1,11.4,0,0z M0.5,0.5
		c0.2,11-0.1,22,0.1,33c3.2,0.1,6.5,0,9.7,0.1c21.6,0,43.2,0,64.8,0c0-11,0.1-22-0.1-33c-2.2-0.3-4.4-0.1-6.6-0.1
		C45.8,0.5,23.2,0.5,0.5,0.5z"/>
</g>
<g>
	<path fill="#F0030C" d="M0.5,0.5c22.6,0,45.3,0,67.9,0c2.2,0,4.4-0.1,6.6,0.1c0.1,11,0.1,22,0.1,33c-21.6,0-43.2,0-64.8,0
		c-3.2-0.1-6.5,0-9.7-0.1C0.4,22.5,0.7,11.5,0.5,0.5z M67.1,5.7c0.4,1,1.4,0.7,2.2,0.4c-0.1-0.5-0.1-1.1-0.1-1.6
		C68.3,3.9,66.6,4.5,67.1,5.7z M14.3,4.9c-0.6,0.8-1,1.8-1.5,2.7c-0.6,0-1.2,0-1.7-0.1C10.8,6.4,9.6,6.2,8.6,6
		C8.1,7.4,7.5,8.7,6.7,9.9c0.8,0.4,1.7,0.8,2.6,1.2c-0.1,0.4-0.3,1.1-0.4,1.4c-0.8,0.6-1.7,1.1-2.5,1.6c0.2,0.3,0.7,0.8,1,1
		C8.2,15,9,14.7,9.8,14.4c0,0.9,0,1.8,0,2.7c-0.7,0.3-1.5,0.7-2.1,1.3C8,18.9,8.3,19.4,8.7,20c2.3-0.3,4.3-1.5,6.4-2.4l0.1,0.3
		c0.3-0.5,0.6-1,0.8-1.4c1.2,1.3,2.3,2.9,4,3.6c0.9-0.7,1.5-1.7,2.1-2.6c-1.4-0.6-2.7-1.5-3.9-2.5c0.9-0.5,1.8-1.1,2.6-1.8
		c-0.2-0.7-0.4-1.4-0.6-2.1c0.6-1.1,1.2-2.1,1.9-3.2c-0.8-0.6-1.5-1.2-2.4-1.5c-0.3,0.3-0.6,0.6-0.9,0.9c-0.9,0-1.8,0.1-2.6,0
		c0.3-0.6,0.7-1.2,1.1-1.8C16.2,5.4,15.3,5,14.3,4.9z M28.4,4.9c0,1,0,2,0,3c-1.2,0-2.5,0-3.7,0c-0.7,0.1-0.8,0.4-0.3,1
		c1.4,0.1,2.7,0,4.1,0.1c0,1,0,1.9,0,2.9c-1.6,0-3.2,0-4.7,0c0,0.3-0.1,0.9-0.1,1.2c1.5-0.1,3.1-0.1,4.6,0c-0.4,1.6-1.3,3.1-2.4,4.4
		c-0.8,0.9-1.8,1.5-2.4,2.5c0.3,0,0.9-0.1,1.3-0.1c2.5-1,5-2.6,6.1-5.2c1.2,2.2,2.8,4.3,5,5.5c0.6-0.9,1.1-1.7,1.6-2.6
		C35.3,16.5,33.3,15,32,13c1.8-0.2,3.7,0.1,5.5-0.3c-0.5-0.7-1-1.3-1.6-1.9c-0.6,0.7-1.5,1.2-2.5,1.1c-0.4-0.3-0.9-0.6-1.3-0.9
		c0-0.5-0.1-1-0.1-1.4c1.5,0,3.1-0.1,4.6-0.1l0.1-0.5c-0.3-0.7-0.7-1.3-1.2-1.8c-1.2,0.7-2.7,1-4,0.6c-0.1-0.9-0.1-1.7-0.1-2.6
		C30.4,5,29.4,5,28.4,4.9z M44.7,4.9c0,4.1,0,8.3,0,12.4c-0.7,0-1.4,0-2.1-0.1c-0.1-2.8,0.2-5.6-0.2-8.4c-0.9-0.1-1.8-0.1-2.6-0.2
		c0.1,3.8,0,7.6,0.1,11.4c1-0.1,1.9-0.3,2.8-0.6c0-0.3,0.1-0.7,0.1-1c2.2,0,4.3-0.1,6.5,0c0,0.5,0.1,1.1,0.1,1.6
		c0.9-0.1,1.8-0.3,2.7-0.5c0-3.5,0-7.1,0-10.6c-0.9-0.4-1.8-0.5-2.7-0.7c-0.1,3,0,5.9,0,8.9c-0.7,0-1.4,0-2,0c0-4,0-8,0.1-11.9
		C46.6,5.2,45.7,5,44.7,4.9z M59,7.3c-1.3,0.1-2.3-0.9-3.6-1c0.1,2.5-0.2,5.1,0.2,7.6c-0.4,0.2-0.8,0.4-1.2,0.6
		c0.3,1.4,1.8,0.7,2.8,0.9c-0.4,1-1,1.9-1.7,2.8c-0.4,0.5-1.1,1-0.8,1.8c1-0.4,2-0.8,2.7-1.6c0.7,0.3,1.5,0.6,2.2,0.9
		c0.1,0.3,0.2,0.8,0.3,1c1-0.2,1.9-0.3,2.9-0.5c0-1,0.1-2,0.1-3c1.2,1.3,2.5,2.7,4.2,3.3c0.5-0.6,1-1.2,1.4-1.8
		c-1-0.5-2.5-0.6-2.9-1.6c0.5-0.7,1.5-0.9,2.2-1.3c-0.1-0.8-1-1.6-1.8-0.8c-0.5-0.1-0.9-0.3-1.2-0.6c0.9,0.2,1.6-0.6,2.4-1
		c-0.1-1.8,0-3.5,0.2-5.3c-0.6-0.5-1.3-1-1.9-1.5c-0.3,0.4-0.6,0.8-0.9,1.2c-1.2,0-2.4,0-3.6,0c0.4-0.5,0.8-1.1,1.2-1.6
		c-0.8-0.2-1.7-0.5-2.5-0.7C59.5,5.7,59.2,6.5,59,7.3z M7.3,22.8c-0.6,2.2-0.1,4.6-0.2,6.9c0.5,0,0.9,0,1.4,0
		c0.4-0.5,0.7-0.9,1.2-1.3l0.2,0.7c0.2,0.7,1,0.6,1.6,0.7c0.2-1.6-0.4-3.5,0.6-4.8c0.3,1.3-0.3,2.9,0.6,4.1c1.2,0.9,3.5,0.9,3.8-0.9
		c0.4,0.6,0.8,1.2,1.2,1.8c0.4-0.1,0.9-0.2,1.4-0.3c-0.1-1.3-0.1-2.6,0-4c0.6,1.2,1.2,2.5,1.7,3.8c0.3,0,0.8,0,1.1,0.1
		c0-2.2,0-4.4,0-6.7c-0.4,0-0.7,0-1,0c-0.3,0.3-0.5,0.5-0.8,0.8c-0.1-0.6-0.2-1.3-1-1.2c-1.3-0.4-1.8,1.1-2.4,1.9
		c0-1.6-2-1.8-3.3-1.5c-0.6,0.6-1,1.2-1.4,1.9c-0.1-0.7-0.3-1.4-0.4-2.1c-0.4,0-0.8,0-1.2,0c-0.3,0.6-0.6,1.3-1,1.8
		C9,24.1,8.8,23.5,8.6,23C8.2,22.9,7.7,22.9,7.3,22.8z M23.1,24.3c0,1.8-0.5,3.9,0.7,5.4c1.2,0.4,3.8,0.9,3.6-1.1
		c0-1,0.3-2.5-0.6-3.2c-0.1-0.7,0.1-1.6-0.6-2C25.2,22.4,23.1,22.8,23.1,24.3z M27.8,22.8c0,2.3,0,4.7,0,7c0.6,0,1.2,0.1,1.7-0.1
		c0.1-0.8,0.1-1.6,0.1-2.4c0.5-0.1,1.1-0.2,1.6-0.2c0-0.5,0.1-1,0.1-1.5c-0.7-0.1-1.4-0.3-2.1-0.7c0.7-0.3,1.4-0.6,2.1-0.9
		c0-0.3,0-0.8,0-1.1C30.3,22.8,29.1,22.7,27.8,22.8z M32.4,22.8c-0.1,2-0.3,4,0.2,5.9c0.8,1.5,3.7,1.3,3.8-0.5
		c0-1.7,0.2-3.5-0.1-5.2c-0.3,0-0.8-0.1-1.1-0.1c-0.5,0-0.9-0.1-1.4-0.1C33.4,22.8,32.9,22.8,32.4,22.8z M40.6,24.3
		c-0.1,1.7,1.9,2.2,2.7,3.4c0,0.7-0.3,1.2-1.1,1.3c-0.1-0.3-0.4-1-0.6-1.3c-0.3,0-0.8,0.1-1.1,0.1c0.1,1.1,1,2.1,2.1,1.9
		c1.3,0,2.6-1.7,1.6-2.7c-0.8-1.2-3-1.7-2.1-3.5c0.6,0.3,1.1,0.7,1.6,1.1c0.3,0,0.8-0.1,1.1-0.1c-0.3-0.5-0.6-0.9-1-1.3
		C42.6,22.4,40.6,22.9,40.6,24.3z M45.3,22.8c-0.1,2.3-0.1,4.7,0,7c0.6,0,1.2,0.1,1.7-0.2c0.1-0.7,0.1-1.5,0.2-2.2
		c0.6-0.3,1.2-0.5,1.8-0.9c0.1-0.2,0.4-0.5,0.5-0.7c0.2-0.1,0.6-0.3,0.8-0.4c0.1,1.4,0.1,2.8,0.1,4.2c0.6,0,1.2,0.1,1.8,0.1
		c0.1-0.9,0.2-1.7,0.3-2.6c0.5,0.7,0.8,1.6,1,2.5c0.5,0,1.1,0,1.6,0c-0.4-1-0.8-2-1.2-2.9c0.8-1,1.1-2.4,0.4-3.5
		c-1.2-0.3-2.3-0.3-3.5-0.3l0,0.1c-0.2,0.4-0.4,0.9-0.5,1.3c-0.1-0.1-0.4-0.2-0.6-0.2c-0.1-0.2-0.4-0.6-0.5-0.8
		C48,22.3,46.5,22.9,45.3,22.8z M55.6,24.3c0.1,1.9-0.3,3.9,0.4,5.7c1.3-0.1,2.7-0.2,4-0.2c0.1-0.3,0.2-0.7,0.3-1
		c0.2-0.1,0.7-0.2,0.9-0.2c0.1,0.3,0.4,0.8,0.5,1.1l-0.4,0.1c0.9,0.3,1.7-0.1,2.4-0.6c1,0.6,2.3,1.2,3.3,0.4
		c0.2-0.1,0.7-0.3,0.9-0.5c0.6-1.5,0.6-3.4,0-4.9c-0.1-0.2-0.4-0.7-0.5-1c-0.8-0.3-1.8-0.8-2.5-0.1c-0.7,0-1.4,0-2.1-0.1
		c-0.3,0-0.8-0.1-1.1-0.2c-0.2,0.5-0.3,0.9-0.4,1.4c-0.4-0.3-0.7-0.6-1.1-0.9l-0.2-0.6c-0.9-0.5-1.7-0.1-1.8,1
		c-0.4-0.4-0.7-1.4-1.5-1.2C55.5,22.3,55.6,23.6,55.6,24.3z"/>
</g>
<path fill="#EAA4A6" d="M67.1,5.7c-0.5-1.3,1.2-1.9,2.1-1.2c0,0.5,0.1,1.1,0.1,1.6C68.5,6.4,67.5,6.7,67.1,5.7z"/>
<path fill="#FDFEFD" d="M14.3,4.9c1,0.1,1.9,0.5,2.9,0.8c-0.3,0.6-0.7,1.2-1.1,1.8c0.9,0,1.8,0,2.6,0c0.3-0.3,0.6-0.6,0.9-0.9
	c0.9,0.3,1.7,0.9,2.4,1.5c-0.7,1-1.3,2.1-1.9,3.2c-0.8-0.2-1.5-0.4-2.3-0.6c0.3-0.5,0.5-1.1,0.8-1.6c-1-0.1-1.9-0.2-2.9-0.2
	c-0.6,0.3-0.9,1.1-1.1,1.7c0.4,1.3,1.4,2.3,2.1,3.4c0.7-0.6,1.4-1.2,2.1-1.7c0.7,0.3,1.3,0.7,1.9,1.1c-0.8,0.7-1.7,1.3-2.6,1.8
	c1.2,1,2.5,1.8,3.9,2.5c-0.6,0.9-1.2,1.9-2.1,2.6c-1.7-0.7-2.8-2.3-4-3.6c-1.3-1.5-2-3.2-2.7-5c-0.4,0.4-0.9,0.8-1.2,1.4
	c-0.1,1.3,0,2.6,0,4c0.8-0.3,1.5-0.6,2.3-0.8c0.2,0.5,0.4,1,0.6,1.5C13,18.5,11,19.7,8.7,20c-0.4-0.5-0.7-1.1-1.1-1.7
	C8.3,17.8,9,17.4,9.7,17c0-0.9,0-1.8,0-2.7C9,14.7,8.2,15,7.4,15.1c-0.2-0.3-0.7-0.8-1-1c0.8-0.5,1.7-1,2.5-1.6
	c1.4-1,2.5-2.4,3.5-3.8c-0.6,0-1.3,0-1.9,0.1c-0.4,0.6-0.7,1.3-1,1.9c0,0.1-0.1,0.2-0.2,0.3c-0.9-0.4-1.7-0.8-2.6-1.2
	C7.5,8.7,8.1,7.4,8.6,6c1,0.1,2.2,0.3,2.5,1.5c0.6,0,1.2,0.1,1.7,0.1C13.3,6.7,13.7,5.8,14.3,4.9z"/>
<path fill="#FEFDFD" d="M28.4,4.9c1,0.1,2,0.2,3,0.2c0,0.9,0,1.7,0.1,2.6c1.4,0.4,2.8,0.1,4-0.6c0.5,0.5,0.9,1.1,1.2,1.8
	c-1.8,0-3.5,0-5.3,0c0,1,0,2,0,2.9c0.6,0,1.3,0,1.9,0c1,0.2,1.9-0.4,2.5-1.1c0.6,0.6,1.1,1.3,1.6,1.9c-1.8,0.4-3.7,0.2-5.5,0.3
	c1.3,2,3.3,3.5,5.5,4.5c-0.5,0.9-1.1,1.7-1.6,2.6c-2.2-1.2-3.9-3.3-5-5.5c-1,2.6-3.5,4.2-6.1,5.2c-0.3,0-0.9,0.1-1.3,0.1
	c0.6-1,1.6-1.7,2.4-2.5c1.1-1.2,2-2.7,2.4-4.4c-1.5,0-3.1,0-4.6,0c0-0.3,0.1-0.9,0.1-1.2c1.6,0,3.2,0,4.7,0c0-1,0-1.9,0-2.9
	c-1.4,0-2.7,0-4.1-0.1c-0.5-0.6-0.4-0.9,0.3-1c1.2-0.1,2.5,0,3.7,0C28.5,6.9,28.5,5.9,28.4,4.9z"/>
<path fill="#FEFEFE" d="M44.7,4.9c0.9,0.1,1.8,0.3,2.8,0.4c-0.1,4,0,8-0.1,11.9c0.7,0,1.3,0,2,0c0-3-0.1-5.9,0-8.9
	c0.9,0.2,1.8,0.3,2.7,0.7c0,3.5,0,7.1,0,10.6c-0.9,0.2-1.8,0.3-2.7,0.5c0-0.5-0.1-1.1-0.1-1.6c-2.2-0.1-4.3,0-6.5,0
	c0,0.3-0.1,0.7-0.1,1c-0.9,0.3-1.9,0.4-2.8,0.6c-0.1-3.8,0.1-7.6-0.1-11.4c0.9,0,1.7,0.1,2.6,0.2c0.3,2.8,0.1,5.6,0.2,8.4
	c0.7,0,1.4,0,2.1,0.1C44.8,13.2,44.8,9,44.7,4.9z"/>
<g>
	<path fill="#FDFEFD" d="M59,7.3c0.2-0.8,0.5-1.6,0.8-2.3c0.8,0.2,1.7,0.4,2.5,0.7c-0.4,0.5-0.8,1.1-1.2,1.6c1.2,0,2.4,0,3.6,0
		c0.3-0.4,0.6-0.8,0.9-1.2c0.6,0.5,1.2,1,1.9,1.5c-0.2,1.7-0.3,3.5-0.2,5.3c-0.8,0.4-1.5,1.2-2.4,1l-0.2-0.4l-0.2-0.5
		c-2.9,0.3-6.1-0.5-8.8,1c-0.4-2.5-0.1-5.1-0.2-7.6C56.7,6.4,57.7,7.4,59,7.3z M58,8.6c-0.1,0.2-0.2,0.7-0.3,0.9
		c2.3,0,4.7,0.1,7-0.1c-0.1-0.2-0.3-0.6-0.5-0.8C62.2,8.5,60.1,8.5,58,8.6z M57.9,10.8c-0.1,0.2-0.2,0.7-0.2,0.9c2.3,0,4.6,0,6.9,0
		c0-0.2-0.1-0.7-0.2-1C62.2,10.7,60.1,10.6,57.9,10.8z"/>
</g>
<path fill="#DB040B" d="M10.5,8.8c0.6-0.1,1.3-0.1,1.9-0.1c-1,1.4-2.1,2.8-3.5,3.8c0.1-0.4,0.3-1.1,0.4-1.4c0-0.1,0.1-0.2,0.2-0.3
	C9.8,10.1,10.1,9.4,10.5,8.8z"/>
<path fill="#E7030B" d="M14.7,10.4c0.2-0.6,0.5-1.4,1.1-1.7c1,0,1.9,0.1,2.9,0.2c-0.3,0.5-0.5,1.1-0.8,1.6c0.8,0.2,1.5,0.4,2.3,0.6
	c0.2,0.7,0.4,1.4,0.6,2.1c-0.6-0.4-1.3-0.8-1.9-1.1c-0.8,0.5-1.4,1.1-2.1,1.7C16.1,12.7,15.1,11.7,14.7,10.4z"/>
<path fill="#C5292E" d="M58,8.6c2.1-0.1,4.2-0.1,6.3,0c0.1,0.2,0.3,0.6,0.5,0.8c-2.3,0.2-4.7,0.1-7,0.1C57.8,9.3,57.9,8.8,58,8.6z"
	/>
<path fill="#D00B11" d="M31.5,8.9c1.8,0,3.5,0,5.3,0l-0.1,0.5c-1.5,0-3.1,0.1-4.6,0.1c0,0.5,0.1,0.9,0.1,1.4
	c0.4,0.3,0.9,0.6,1.3,0.9c-0.6,0-1.3,0-1.9,0C31.5,10.9,31.5,9.9,31.5,8.9z"/>
<path fill="#CF2C32" d="M57.9,10.8c2.1-0.3,4.3-0.1,6.5,0c0,0.2,0.1,0.7,0.2,1c-2.3,0-4.6,0-6.9,0C57.8,11.5,57.9,11.1,57.9,10.8z"
	/>
<path fill="#E6020B" d="M12.2,12.8c0.3-0.5,0.8-0.9,1.2-1.4c0.7,1.8,1.4,3.5,2.7,5c-0.3,0.5-0.6,0.9-0.8,1.4l-0.1-0.3
	c-0.2-0.5-0.4-1-0.6-1.5c-0.8,0.2-1.5,0.5-2.3,0.8C12.1,15.5,12,14.2,12.2,12.8z"/>
<path fill="#E5040C" d="M55.6,13.9c2.7-1.5,5.9-0.7,8.8-1l0.2,0.5c-0.7,0-1.4,0.1-2.1,0.1c-0.6-0.1-1.3-0.1-1.9-0.1
	c0,1.6,0,3.1-0.1,4.7c-0.8,0-1.6,0-2.5,0c0.7-1,1.4-2.1,2-3.2c-0.4-0.3-0.8-0.6-1.3-0.9c-1.4,0.3-2.9,0.6-4.3,0.5
	C54.7,14.3,55.1,14.1,55.6,13.9z"/>
<path fill="#FDFDFD" d="M60.5,13.4c0.6,0,1.3,0.1,1.9,0.1c0.1,0.2,0.4,0.5,0.5,0.7c-0.3,1,0.7,2.2,1.6,1.4c0.5-0.4,0.9-0.8,1.4-1.1
	c0.7-0.7,1.6,0,1.8,0.8c-0.7,0.4-1.7,0.6-2.2,1.3c0.5,1,2,1.1,2.9,1.6c-0.5,0.6-1,1.2-1.4,1.8c-1.7-0.7-2.9-2.1-4.2-3.3
	c0,1,0,2-0.1,3c-1,0.2-1.9,0.4-2.9,0.5c-0.1-0.3-0.2-0.8-0.3-1c-0.8-0.3-1.5-0.6-2.2-0.9c-0.7,0.8-1.7,1.2-2.7,1.6
	c-0.3-0.7,0.4-1.2,0.8-1.8c0.7-0.8,1.3-1.8,1.7-2.8c-1-0.2-2.5,0.5-2.8-0.9c1.5,0.1,2.9-0.3,4.3-0.5c0.4,0.3,0.9,0.6,1.3,0.9
	c-0.6,1.1-1.3,2.2-2,3.2c0.8,0,1.6,0,2.5,0C60.5,16.5,60.5,14.9,60.5,13.4z"/>
<path fill="#F70303" d="M62.4,13.5c0.7,0,1.4-0.1,2.1-0.1l0.2,0.4c0.3,0.3,0.7,0.5,1.2,0.6c-0.5,0.4-1,0.7-1.4,1.1
	c-0.5-0.5-1.1-1-1.6-1.4C62.8,14,62.6,13.7,62.4,13.5z"/>
<path fill="#DF8E8D" d="M62.9,14.2c0.5,0.5,1.1,0.9,1.6,1.4C63.6,16.3,62.6,15.2,62.9,14.2z"/>
<path fill="#FEFEFC" d="M7.3,22.8c0.4,0.1,0.9,0.1,1.3,0.1c0.2,0.5,0.4,1.1,0.6,1.6c0.3,0.7,0.6,1.3,0.9,2c0-1.2,0.1-2.4,0.1-3.6
	c0.3,0,0.8,0,1.1,0c0,2.2,0,4.5,0,6.7c-0.5-0.2-0.9-0.4-1.4-0.5l-0.2-0.7c-0.3-1-0.8-1.9-1.2-2.9c-0.1,1.2,0.3,2.6-0.3,3.8
	c-0.2,0.1-0.5,0.2-0.6,0.2C7.2,27.3,7.5,25.1,7.3,22.8z"/>
<path fill="#AD2727" d="M10.2,22.8c0.4,0,0.8,0,1.2,0c0.1,0.7,0.2,1.4,0.4,2.1c0.4-0.7,0.8-1.3,1.4-1.9c-1.1,1.9-0.5,4.1-0.5,6.2
	c-0.8-1.2-0.3-2.8-0.6-4.1c-1,1.4-0.4,3.3-0.6,4.8c-0.6-0.1-1.4,0.1-1.6-0.7c0.5,0.2,0.9,0.4,1.4,0.5c0-2.2,0-4.5,0-6.7
	c-0.3,0-0.8,0-1.1,0c0,1.2,0,2.4-0.1,3.6c-0.3-0.7-0.6-1.3-0.9-2C9.6,24,9.9,23.4,10.2,22.8z"/>
<path fill="#D6050A" d="M16.4,24.4c0.7-0.8,1.1-2.2,2.4-1.9c0.8-0.1,0.9,0.6,1,1.2c0.3-0.3,0.5-0.5,0.8-0.8c0,1.2,0,2.5-0.1,3.7
	c-0.9-1.3-0.7-3.8-2.7-3.8c-0.1,2.2,0,4.5,0,6.7c0.3,0,0.9,0.1,1.2,0.1c-0.5,0.1-0.9,0.2-1.4,0.3c-0.4-0.6-0.8-1.2-1.2-1.8
	C16.5,27,16.5,25.7,16.4,24.4z"/>
<path fill="#FFFDFC" d="M20.6,23c0.3,0,0.7,0,1,0c0,2.2,0,4.4,0,6.7c-0.3,0-0.8,0-1.1-0.1c-0.5-1.3-1.1-2.6-1.7-3.8
	c-0.1,1.3,0,2.6,0,4c-0.3,0-0.9-0.1-1.2-0.1c0-2.2,0-4.5,0-6.7c2,0.1,1.8,2.6,2.7,3.8C20.6,25.4,20.6,24.2,20.6,23z"/>
<path fill="#FFF7FB" d="M23.1,24.3c0-1.5,2.2-1.9,3.2-1c0.7,0.4,0.4,1.3,0.6,2c-0.3-0.1-0.9-0.3-1.2-0.4c0-0.3-0.1-0.8-0.1-1
	c-0.3,0-0.9-0.1-1.2-0.1c-0.1,1.6-0.1,3.3,0,4.9c0.4,0,1.1-0.1,1.5-0.1c-0.1-0.7-0.1-1.5-0.8-1.9c0-0.1-0.1-0.4-0.1-0.5
	c0.7,0,1.3,0,2,0c0,1.1,0,2.2-0.1,3.3c-1,0.1-2,0.1-3,0.2C22.5,28.2,23,26.1,23.1,24.3z"/>
<path fill="#AC1F22" d="M27.8,22.8c1.2,0,2.4,0,3.7,0.1c-1.1,0.1-2.2,0.1-3.3,0.1c0,2.2-0.3,4.5,0.2,6.6c0.2-0.1,0.5-0.2,0.6-0.3
	c0.6-0.7,0.3-1.7,0.4-2.6c0.5-0.2,2.1,0.3,1.7-0.7c-0.5-0.3-1.1-0.4-1.7-0.5c0-0.5,0-1.1,0-1.6c0.7,0,1.5,0,2.3,0
	c-0.7,0.3-1.4,0.6-2.1,0.9c0.6,0.3,1.3,0.6,2.1,0.7c0,0.5-0.1,1-0.1,1.5c-0.5,0.1-1.1,0.2-1.6,0.2c-0.1,0.8-0.1,1.6-0.1,2.4
	c-0.6,0.2-1.2,0.1-1.7,0.1C27.9,27.4,27.9,25.1,27.8,22.8z"/>
<path fill="#DE6E74" d="M32.4,22.8c0.5,0,1,0,1.5,0c0,2,0.1,4-0.1,6c-0.3-2-0.2-4-0.3-6c-0.2,0.1-0.6,0.4-0.8,0.5
	c-0.2,1.8-0.1,3.6-0.1,5.4C32.1,26.8,32.3,24.7,32.4,22.8z"/>
<path fill="#E4030F" d="M33.9,22.8c0.4,0,0.9,0.1,1.4,0.1c0,2,0,3.9-0.1,5.9c-0.5,0-0.9,0-1.3,0C34,26.8,34,24.8,33.9,22.8z"/>
<path fill="#FFFAFA" d="M40.6,24.3c0.1-1.4,2.1-1.9,3.1-1.1c0.4,0.4,0.7,0.9,1,1.3c-0.3,0-0.8,0.1-1.1,0.1c-0.5-0.5-1-0.9-1.6-1.1
	c-0.8,1.8,1.4,2.3,2.1,3.5c1,1.1-0.3,2.8-1.6,2.7c-1.2,0.2-2.1-0.8-2.1-1.9c0.3,0,0.8-0.1,1.1-0.1c0.1,0.3,0.4,1,0.6,1.3
	c0.8-0.1,1.2-0.6,1.1-1.3C42.4,26.5,40.4,26,40.6,24.3z"/>
<path fill="#AC1F22" d="M45.3,22.8c1.2,0.1,2.8-0.5,3.8,0.4c-1.1-0.3-2.3-0.4-3.5-0.1c-0.1,2.2-0.2,4.4,0.1,6.5
	c0.2-0.1,0.5-0.2,0.6-0.3c0.6-0.6,0.3-1.5,0.4-2.3c0.7-0.1,1.5-0.3,2.2-0.4c-0.6,0.3-1.2,0.6-1.8,0.9c-0.1,0.7-0.1,1.5-0.2,2.2
	c-0.5,0.2-1.2,0.1-1.7,0.2C45.2,27.4,45.2,25.1,45.3,22.8z"/>
<g>
	<path fill="#FFFBFA" d="M50.7,22.9c1.2,0,2.4,0,3.5,0.3c0.8,1.1,0.4,2.5-0.4,3.5c0.4,1,0.8,2,1.2,2.9c-2.1,0.3-1.4-2.4-2.8-3.1
		c-0.6,0.8-0.2,1.9-0.8,2.7c-0.1,0.1-0.4,0.2-0.6,0.3C50.6,27.4,50.8,25.2,50.7,22.9L50.7,22.9z M51.9,23.9c0,0.7,0.1,1.3,0.2,2
		c0.4-0.1,0.9-0.1,1.4-0.2c0-0.6,0-1.1,0.1-1.6C52.9,24,52.4,24,51.9,23.9z"/>
</g>
<g>
	<path fill="#DD0509" d="M55.6,24.3c0-0.7-0.1-2,1-1.8c0.8-0.2,1,0.8,1.5,1.2c0.1-1,0.9-1.5,1.8-1c-0.4,0.2-0.8,0.4-1.2,0.6
		c-0.1,2.1,0,4.1-0.1,6.2c0.3,0,0.9,0,1.2,0.1c0-1.4,0-2.7,0-4.1c0.4,1,0.9,2.1,1.3,3.1c-0.2,0.1-0.7,0.2-0.9,0.2
		c-0.1,0.3-0.2,0.7-0.3,1c-1.3,0.1-2.7,0.1-4,0.2C55.3,28.2,55.6,26.2,55.6,24.3z M56,23c0,2.2-0.1,4.4,0,6.6c0.3,0,0.9,0,1.2,0
		c0-2.2,0-4.4,0-6.6C56.9,23,56.3,23,56,23z"/>
</g>
<path fill="#AB1F20" d="M7.1,29.7c0.1-2.3-0.3-4.7,0.2-6.9c0.3,2.2-0.1,4.5,0.2,6.7c0.2-0.1,0.5-0.2,0.6-0.2
	c0.6-1.1,0.2-2.5,0.3-3.8c0.5,0.9,0.9,1.9,1.2,2.9c-0.5,0.4-0.8,0.8-1.2,1.3C8,29.8,7.5,29.8,7.1,29.7z"/>
<g>
	<path fill="#FFFAFA" d="M13.1,22.9c1.2-0.3,3.2-0.1,3.3,1.5c0.1,1.3,0.1,2.5,0,3.8c-0.3,1.7-2.6,1.8-3.8,0.9
		C12.6,27,12,24.8,13.1,22.9z M13.7,24.1c-0.6,1.5-0.3,3.1-0.2,4.7c0.6,0,1.2,0,1.8,0c0.2-1.5,0.2-3.1-0.1-4.6l0-0.5
		C14.6,23.8,14.1,23.9,13.7,24.1z"/>
</g>
<path fill="#FEFDFD" d="M28.2,23c1.1,0,2.2,0,3.3-0.1c0,0.3,0,0.8,0,1.1c-0.8,0-1.5,0-2.3,0c0,0.5,0,1.1,0,1.6
	c0.6,0.1,1.2,0.1,1.7,0.5c0.4,1-1.2,0.4-1.7,0.7c-0.1,0.9,0.2,1.8-0.4,2.6c-0.2,0.1-0.5,0.2-0.6,0.3C27.9,27.4,28.1,25.2,28.2,23z"
	/>
<path fill="#FFFCFB" d="M32.8,23.3c0.2-0.1,0.6-0.4,0.8-0.5c0.1,2,0,4,0.3,6c0.4,0,0.9,0,1.3,0c0.1-1.9,0.1-3.9,0.1-5.9
	c0.3,0,0.8,0.1,1.1,0.1c0.3,1.7,0.1,3.5,0.1,5.2c-0.1,1.8-3.1,2-3.8,0.5C32.7,26.9,32.5,25.1,32.8,23.3z"/>
<g>
	<path fill="#FFFFFF" d="M45.6,23.1c1.1-0.3,2.3-0.1,3.5,0.1c0.1,0.2,0.4,0.6,0.5,0.8c0,0.6,0,1.3-0.1,1.9c-0.1,0.2-0.4,0.5-0.5,0.7
		c-0.7,0.2-1.5,0.3-2.2,0.4c-0.1,0.8,0.2,1.7-0.4,2.3c-0.2,0.1-0.5,0.2-0.6,0.3C45.4,27.5,45.5,25.3,45.6,23.1z M46.7,24
		c0,0.7,0,1.3,0,2c0.5-0.1,1.1-0.1,1.6-0.2c0-0.6,0.4-1.4-0.2-1.8C47.6,24,47.1,24,46.7,24z"/>
</g>
<path fill="#AD2727" d="M50.2,24.3c0.2-0.4,0.4-0.9,0.5-1.3c0.1,2.2-0.1,4.4,0.1,6.6c0.1-0.1,0.4-0.2,0.6-0.3
	c0.6-0.8,0.2-1.9,0.8-2.7c1.4,0.7,0.8,3.4,2.8,3.1c-0.5,0-1.1,0-1.6,0c-0.2-0.9-0.5-1.8-1-2.5c-0.2,0.9-0.3,1.7-0.3,2.6
	c-0.6,0-1.2-0.1-1.8-0.1c0-1.4,0-2.8-0.1-4.2c-0.2,0.1-0.6,0.3-0.8,0.4c0.1-0.6,0.1-1.2,0.1-1.9C49.7,24.1,50,24.2,50.2,24.3z"/>
<path fill="#FEF9F9" d="M56,23c0.3,0,0.9,0,1.2,0c0,2.2,0,4.4,0,6.6c-0.3,0-0.9,0-1.2,0C55.9,27.4,56,25.2,56,23z"/>
<path fill="#FEFDFE" d="M58.7,23.3c0.4-0.2,0.8-0.5,1.2-0.6l0.2,0.6c0.3,1.2,0.8,2.3,1.4,3.4c0.1-1.3,0.1-2.6,0.1-3.8
	c0.3,0.1,0.8,0.1,1.1,0.2c0,2.2,0,4.3,0,6.5c-0.3,0-0.8,0.1-1.1,0.2c-0.1-0.3-0.4-0.8-0.5-1.1c-0.4-1-0.9-2.1-1.3-3.1
	c0,1.4,0,2.7,0,4.1c-0.3,0-0.9,0-1.2-0.1C58.7,27.5,58.5,25.4,58.7,23.3z"/>
<path fill="#AC1F22" d="M61.2,24.3c0.1-0.5,0.3-0.9,0.4-1.4c0,1.3,0,2.6-0.1,3.8c-0.6-1.1-1.1-2.2-1.4-3.4
	C60.4,23.6,60.8,23.9,61.2,24.3z"/>
<path fill="#DD090A" d="M62.7,23c0.7,0.1,1.4,0.1,2.1,0.1c-0.2,0.2-0.6,0.5-0.8,0.6c0,1.7-0.2,3.5,0.2,5.2c0.6,0.9,1.8,0.7,2.7,0.7
	c-1.1,0.8-2.4,0.3-3.3-0.4c-0.7,0.5-1.5,0.8-2.4,0.6l0.4-0.1c0.3,0,0.8-0.1,1.1-0.2C62.7,27.4,62.6,25.2,62.7,23z"/>
<path fill="#FBFEFE" d="M64.8,23.1c0.7-0.6,1.7-0.1,2.5,0.1c0.1,0.2,0.4,0.7,0.5,1c0,0.6-0.4,1-1.1,1.1c-0.1-0.8-0.6-2.2-1.5-1.2
	c-0.3,1.5-0.1,3.1,0,4.7c0.4,0,0.9,0,1.3,0c0-0.8,0.2-1.7-0.8-1.9l0-0.7c0.7,0,1.3,0,2,0c0,1,0,2,0,2.9c-0.2,0.1-0.7,0.3-0.9,0.5
	c-1,0.1-2.1,0.3-2.7-0.7c-0.4-1.7-0.1-3.5-0.2-5.2C64.2,23.6,64.6,23.3,64.8,23.1z"/>
<path fill="#ED0310" d="M13.7,24.1c0.4-0.2,0.9-0.4,1.4-0.4l0,0.5c0,1.5,0,2.9-0.1,4.4c-0.3,0-0.9,0-1.2,0
	C13.8,27.1,13.7,25.6,13.7,24.1z"/>
<path fill="#E90711" d="M24.2,23.8c0.3,0,0.9,0.1,1.2,0.1c0,0.3,0.1,0.8,0.1,1c0.3,0.1,0.9,0.3,1.2,0.4c0.9,0.7,0.6,2.2,0.6,3.2
	c0.1,2-2.4,1.5-3.6,1.1c1,0,2-0.1,3-0.2c0-1.1,0.1-2.2,0.1-3.3c-0.7,0-1.3,0-2,0c0,0.1,0.1,0.4,0.1,0.5c0.7,0.4,0.7,1.2,0.8,1.9
	c-0.4,0-1.1,0.1-1.5,0.1C24.1,27.1,24.1,25.4,24.2,23.8z"/>
<path fill="#D60511" d="M46.7,24c0.5,0,0.9,0,1.4,0c0.6,0.4,0.2,1.2,0.2,1.8c-0.5,0.1-1.1,0.1-1.6,0.2C46.7,25.3,46.7,24.6,46.7,24z
	"/>
<path fill="#E90A10" d="M51.9,23.9c0.5,0.1,1,0.1,1.6,0.2c0,0.5,0,1.1-0.1,1.6c-0.5,0.1-0.9,0.1-1.4,0.2
	C51.9,25.3,51.9,24.6,51.9,23.9z"/>
<path fill="#DD0610" d="M65.2,24.1c0.9-1,1.4,0.5,1.5,1.2c0.7-0.1,1.1-0.4,1.1-1.1c0.6,1.5,0.6,3.4,0,4.9c0-1,0-2,0-2.9
	c-0.7,0-1.3,0-2,0l0,0.7c1,0.2,0.8,1.1,0.8,1.9c-0.5,0-0.9,0-1.3,0C65.1,27.2,65,25.6,65.2,24.1z"/>
<path fill="#E7A5A7" d="M13.5,28.9c-0.1-1.6-0.4-3.2,0.2-4.7c0.1,1.5,0.1,3,0.1,4.4c0.3,0,0.9,0,1.2,0c0.1-1.5,0.1-2.9,0.1-4.4
	c0.3,1.5,0.3,3.1,0.1,4.6C14.7,28.9,14.1,28.9,13.5,28.9z"/>
</svg>
