<?xml version="1.0" encoding="utf-8"?>
<!-- Generator: Adobe Illustrator 18.1.1, SVG Export Plug-In . SVG Version: 6.00 Build 0)  -->
<svg version="1.1" id="图层_1" xmlns="http://www.w3.org/2000/svg" xmlns:xlink="http://www.w3.org/1999/xlink" x="0px" y="0px"
	 viewBox="0 0 171.5 126.5" enable-background="new 0 0 171.5 126.5" xml:space="preserve">
<path fill="#ED161B" d="M28.4,1.3c4-0.8,8.4-2.3,12.4-0.4c1.7,0.7,2.1,2.9,1.4,4.4c-1.4,3.1-4.1,5.3-6.8,7.2
	c-5.1,3.5-10.9,6.2-17,7.5c-2.7,0.2-5.4,0.1-8-0.4c-0.9-0.7-1.8-1.4-2.6-2.1c-0.8,0.6-1.6,1.3-2.4,1.9c2.2-2.5,3.4-5.8,5.8-8.1
	C14,8.7,17,6.2,20.7,5.3l-1.3,1.3c-1.6,1.3-3.5,2.5-4.1,4.5c1,0.9,2.3,1.2,3.6,0.8c5.1-0.7,10.5-2.9,13.6-7.2
	C34.1,2.2,30,2.1,28.4,1.3z"/>
<path fill="#FADBCE" d="M44.4,1.4c2-0.2,5.2-1.9,6.5,0.3c0.5,1.1,1,2.3,1.4,3.4c-2.5-0.3-5.1-0.4-7.6-0.9
	C44.5,3.3,44.4,2.3,44.4,1.4z"/>
<path fill="#FAC3B4" d="M23.3,4.1c1.2-1.7,3.3-2.1,5.1-2.8c1.6,0.7,5.7,0.9,4.1,3.5C29.4,9.1,24,11.2,18.9,12c3.9-3.6,8.8-5.8,13-9
	C29,2.7,26.1,3.4,23.3,4.1z"/>
<path fill="#EE161C" d="M50.9,1.7c3.9,1.3,8.7,2.8,10.2,7.1c-0.1,2.1-0.5,4.1-1.2,6c-3.5,6.2-9.2,10.8-15.1,14.6
	c-6.9,4.2-14.3,7.5-22.2,9.3c-3.8,0.7-7.6,1.4-11.4,1.3c-2.1-0.2-4.1-0.7-6.2-1.1c-1.1-0.8-2.2-1.6-3.4-2.4
	c-0.2,0.1-0.6,0.4-0.7,0.5C0.3,32.2,0.7,27,3.8,23c-0.4,1.7-0.2,3.4,0.6,4.9c2.4,0.9,5.7,3.6,7.5,0.6c-0.2,0.4-0.5,1.3-0.7,1.8
	c2.9-0.1,5.8-0.4,8.6-1c4.1-0.9,8.2-2.2,12-3.9c2.1-1,4.2-2.1,6.2-3.3c1.7-1,3.3-2.1,4.9-3.2c2.7-2,5.3-4.3,7.3-7.1
	c1.2-1.9,2.7-4.2,2.1-6.6C51.8,3.9,51.4,2.8,50.9,1.7z"/>
<path fill="#FDCBB9" d="M61.1,8.8c2.7,0.6,5.4,1.9,7,4.2c0.2,1.6,0.2,3.2,0.3,4.7c-2.9-1-5.7-1.9-8.5-3
	C60.6,12.9,61.1,10.9,61.1,8.8z"/>
<path fill="#FCDCD2" d="M38.2,13.9c3.6-2.3,7.8-3.2,11.9-2.2c-2,2.8-4.6,5-7.3,7.1C41.6,16.9,40.4,14.8,38.2,13.9z"/>
<path fill="#EE151B" d="M68.2,13.1c3.7,3.9,7.4,9.3,5.2,14.9c-1,2.5-2.3,4.9-3.9,7.1c-9.2,11.3-22.7,18.2-36.3,22.8
	c-3.3,0.7-6.5,1.2-9.9,1.5c-3.3,0.2-6.6,0.1-9.9,0.2c0.6,2.5,0.7,5.3,2.4,7.4c1.6,1.1,3.7,1,5.6,1.2c2.9,0,5.8,0.1,8.6-0.6
	c0.6-0.8,1-1.7,1.5-2.5c-0.1,0.7-0.4,2-0.6,2.7c5.1-1,10.4-2.2,15-4.8c2.7-1.1,5.4-2.1,7.9-3.5c1.8-0.9,3.5-1.9,5.2-3
	c2-1.3,3.9-2.8,5.6-4.3c3.8-3.2,7.3-6.7,9.9-10.9c1.8-3,2.6-6.4,2.2-9.9c2.8,7.2,0.9,15.6-4.1,21.3c-2.1,2.5-4.4,4.8-6.9,6.9
	C61.6,63,57,65.8,52,68.1c-2.7,1.2-5.4,2.4-8.1,3.3c-3.4,0.8-6.9,1.6-10.4,2.3c-3.1,0.2-6.2,0.2-9.3,0.3C18,72.6,12.8,68.7,8.9,63.8
	c-1.5-1.9-2.1-4.2-2.5-6.6C0.6,52.7-0.1,44.5,0,37.7c0.3,3.2,0.8,6.5,2.5,9.3c1.5,1,3,1.9,4.7,2.6c2.9,0.6,5.8,0.8,8.7,0.8
	c4.7,0,9.3-1.1,13.8-2.5c3.6-1.1,7.2-2.2,10.6-3.8c1.7-0.7,3.3-1.5,4.9-2.4c1.4-0.8,2.8-1.6,4.2-2.5c2.5-1.6,4.9-3.2,7.2-5
	c2-1.6,3.9-3.3,5.5-5.2c2.8-3.2,5.5-6.9,6.3-11.2C68.4,16.2,68.3,14.6,68.2,13.1z"/>
<path fill="#FCC5B2" d="M33.3,17.1c1.6-1.1,3.2-2.2,4.9-3.2c2.2,0.9,3.4,3,4.7,4.9C41.3,19.9,39.6,21,38,22c-0.4-0.3-1.2-0.8-1.6-1
	C35.3,19.6,34.3,18.4,33.3,17.1z"/>
<path fill="#FDAF99" d="M27.7,21.2c1.8-1.5,3.7-2.9,5.6-4.2c1,1.3,2,2.6,3,3.9c0.4,0.3,1.2,0.8,1.6,1c-2,1.2-4.1,2.3-6.2,3.3
	C30.7,23.7,29.5,22.1,27.7,21.2z"/>
<path fill="#F77A5D" d="M10.5,19.7c2.6,0.6,5.3,0.6,8,0.4c-2.2,2.8-4.3,5.5-6.6,8.3c-1.8,3-5.2,0.3-7.5-0.6
	C6.4,25.1,8.4,22.4,10.5,19.7z"/>
<path fill="#FB997E" d="M19.8,29.2c2.1-3.2,5-5.6,7.9-7.9c1.8,0.8,2.9,2.4,4.1,4C28,27,23.9,28.3,19.8,29.2z"/>
<path fill="#FDE6DB" d="M50.3,30c3.7-1.9,8-2.9,11.9-1c-1.7,1.9-3.6,3.6-5.5,5.2C54.9,32.2,52.9,30.6,50.3,30z"/>
<path fill="#FEC4AF" d="M69.4,35c1.6-2.2,2.9-4.6,3.9-7.1c1.2,1,2.7,1.9,3.5,3.3c0.4,3.4-0.5,6.9-2.2,9.9
	C73.3,38.7,71.5,36.7,69.4,35z"/>
<path fill="#FCCABA" d="M44.9,33.2c1.8-1.1,3.6-2.2,5.4-3.2c2.6,0.6,4.6,2.2,6.3,4.2c-2.3,1.8-4.7,3.5-7.2,5
	C48,37.1,46.5,35.1,44.9,33.2z"/>
<path fill="#FEB297" d="M41.1,36c1.2-1,2.5-1.9,3.8-2.7c1.7,1.9,3.1,3.9,4.5,6c-1.4,0.8-2.8,1.7-4.2,2.5C43.6,39.9,42.3,38,41.1,36z
	"/>
<path fill="#F04F39" d="M1.6,36.5c1.2,0.7,2.3,1.6,3.4,2.4c-0.9,2.7-1.7,5.3-2.5,8c-1.7-2.8-2.3-6.1-2.5-9.3L0.9,37
	C1.1,36.9,1.5,36.7,1.6,36.5z"/>
<path fill="#FD9D83" d="M37,39.4c1.3-1.2,2.7-2.3,4.1-3.4c1.2,2,2.5,3.9,4.1,5.7c-1.6,0.9-3.2,1.7-4.9,2.4
	C39.2,42.5,38.1,41,37,39.4z"/>
<path fill="#F36545" d="M11.2,40.1c3.8,0,7.7-0.6,11.4-1.3c-1.6,2.3-3.2,4.5-4.6,7c-0.9-0.6-1.8-1.1-2.8-1.6c-2,0.4-4.1,0.6-6.1,0.7
	C9.8,43.2,10.5,41.6,11.2,40.1z"/>
<path fill="#FD886B" d="M29.7,47.9c1.9-3.3,4.5-6,7.3-8.5c1.1,1.6,2.2,3.1,3.3,4.7C36.9,45.6,33.3,46.8,29.7,47.9z"/>
<path fill="#F25235" d="M9.1,44.7c2.1-0.1,4.1-0.4,6.1-0.7c0.9,0.5,1.8,1.1,2.8,1.6c-0.8,1.5-1.5,3.1-2.1,4.7
	c-2.9,0-5.8-0.3-8.7-0.8C7.9,47.9,8.5,46.3,9.1,44.7z"/>
<path fill="#FCD0BE" d="M55.7,53.2c2.7-1.6,5.9-2.3,9-1.2c-1.8,1.5-3.7,3-5.6,4.3C57.9,55.3,56.8,54.3,55.7,53.2z"/>
<path fill="#FD9D88" d="M65.8,59.5c2.5-2.1,4.8-4.4,6.9-6.9c-0.3,2.5,0.8,5.7-1,7.6c-1.6,1.1-3.3,2.2-4.8,3.5
	C66.5,62.3,66.2,60.9,65.8,59.5z"/>
<path fill="#FCA68B" d="M50.4,57.1c1.7-1.4,3.5-2.7,5.3-3.9c1.1,1,2.2,2.1,3.3,3.1c-1.7,1.1-3.5,2.1-5.2,3
	C52.6,58.6,51.5,57.8,50.4,57.1z"/>
<path fill="#F68468" d="M45.9,62.8c1.2-2.1,2.7-4.1,4.5-5.7c1.1,0.7,2.3,1.5,3.4,2.3C51.2,60.7,48.5,61.7,45.9,62.8z"/>
<path fill="#F45938" d="M23.3,59.3c3.3-0.3,6.6-0.8,9.9-1.5c-0.4,1.7-0.8,3.3-1.3,5c-2.9-0.1-5.7-0.5-8.3-1.7
	C23.5,60.7,23.4,59.8,23.3,59.3z"/>
<path fill="#EF4629" d="M13.4,59.5c3.3-0.1,6.6,0,9.9-0.2c0.1,0.5,0.2,1.4,0.3,1.8c2.6,1.1,5.5,1.6,8.3,1.7
	c-0.1,0.5-0.4,1.5-0.5,2.1c-0.4,0.9-0.9,1.7-1.5,2.5c-2.8,0.8-5.7,0.6-8.6,0.6c0.3-2.8,0.7-5.6,1.1-8.3
	C19.5,59.8,16.4,59.8,13.4,59.5z"/>
<path fill="#EA2B23" d="M66.9,63.7c1.5-1.3,3.2-2.4,4.8-3.5c-9,13.9-27.5,21.3-43.5,16.4c-1.6-0.4-3-1.3-4-2.7
	c3.1-0.1,6.2-0.1,9.3-0.3c4.1,3.2,9.6,2.9,14.3,1.3c3.4-1.1,6.8-2.5,9.9-4.4C61.1,68.7,64.2,66.4,66.9,63.7z"/>
<path fill="#F13A2C" d="M43.9,71.3c2.8-0.9,5.5-2.1,8.1-3.3c1.6,1.5,3.4,2.7,5.7,2.4c-3.1,1.9-6.4,3.3-9.9,4.4
	C46.5,73.7,45.2,72.5,43.9,71.3z"/>
<path fill="#D9141E" d="M51.7,103.3c0.6,0,1.7,0,2.3,0c-0.2,7.5,0.2,14.9-0.1,22.4c-1.2,1.8-2.4-0.9-2.4-2.2l-0.4,1.4
	c-0.4-0.5-0.8-0.9-1.2-1.4c2.2-3,2.4-7.5,0.2-10.6c-0.9-1.5-3.4-2.1-4.4-0.4c-1.9,2.9-1.7,6.7-0.8,9.9c0.6,2.4,3.5,2.2,5.2,3.6
	c-1.7,0-3.9,1-5.4-0.2c-2.9-1.8-3.1-5.7-2.9-8.7c0.1-3,1.8-6.9,5.3-7c1.9-0.2,3.3,1.2,4.8,2.1C51.6,109.2,51.7,106.2,51.7,103.3z"/>
<g>
	<path fill="#010101" d="M169.3,103.3c0.5,0,1.7,0,2.2,0c0,7.6,0,15.3,0,22.9c-1.5,0-2.5-0.7-2.3-2.3c-1.5,1.6-3.4,3.1-5.7,2.3
		c-3.4-0.7-4.1-4.7-4.2-7.7c0-3.2,0.8-7.3,4.2-8.4c2.3-0.7,4.3,0.9,5.9,2.3C169.3,109.4,169.3,106.4,169.3,103.3z M163.9,111.8
		c-2,1.3-1.9,3.9-2,6c0.1,2-0.2,4.4,1.2,6c1,1.5,3.5,1.2,4.4-0.3c1.9-2.8,2.2-6.6,0.8-9.7C167.6,112.2,165.7,110.8,163.9,111.8z"/>
</g>
<path fill="#010001" d="M35.2,103.1c0.6,0.1,1.7,0.3,2.3,0.4c0.1,7.5,0,15,0,22.6c-0.5,0-1.6,0-2.2,0c0-0.6,0.1-1.9,0.2-2.5
	c-1.4,1.6-3.1,3.4-5.5,2.8c-3.3-0.4-4.6-3.9-4.7-6.8c-0.2-3.3,0.4-7.6,3.8-9c1.8-0.9,3.7,0.2,5.3,0.8c-0.4,0.5-0.8,0.9-1.1,1.4
	c-1.3-1.8-3.9-1.1-4.6,0.7c-1.1,2.7-0.9,5.7-0.5,8.6c0.3,1.8,2.2,3.8,4.1,2.7c3.5-2.2,3.4-7.2,2.2-10.6
	C36.2,110.7,34.6,106.7,35.2,103.1z"/>
<path fill="#E01B21" d="M77.1,110c0-2-0.2-4.4,2.2-5.1c0.1,1.8,0.2,3.6,0.4,5.3c1.5,0,3,0,4.4,0.1c-0.5,2.3-3,1.3-4.6,1.6
	c0.3,4.1-0.8,8.6,0.8,12.5c1.4,0.3,2.8,0.4,4.2,0.5c-1.7,2-5.4,1.8-6.9-0.4c-1.2-4.1-0.2-8.4-0.5-12.5c-1.2-0.2-2.3-0.3-3.5-0.5
	C74.6,110.4,75.9,110.2,77.1,110z"/>
<path fill="#010101" d="M2.6,114c1.3-1.8,2.8-3.4,4.8-4.3c0.2,0.9,0.5,1.9,0.7,2.8c-1.7,0.4-3.8,0.5-4.6,2.3
	C2,118.3,3,122.3,2.7,126c-0.6,0-1.8,0.1-2.3,0.1c0.1-5.2-0.1-10.3,0.1-15.5c0.5,0,1.6,0,2.1,0C2.6,111.4,2.6,113.1,2.6,114z"/>
<g>
	<path fill="#030102" d="M11.1,113.7c1.2-4.1,7.5-5.2,10-1.8c0.9,1.3,1,2.9,1.3,4.4c-3.2,0-6.4,0-9.6,0c0.4,2.6,0.6,5.7,2.9,7.4
		c1.9,1.5,4.3,0.8,6.5,0.7c-1.1,2.7-4.8,1.8-6.9,1.2C10.3,124.2,9.5,117.9,11.1,113.7z M12.7,114.8c2.5,0,4.9,0,7.4,0
		c-0.3-2-1.7-4.2-4.1-3.6C14.1,111.4,13.4,113.4,12.7,114.8z"/>
</g>
<g>
	<path fill="#E31B22" d="M62.8,110.1c2.4-0.4,5.4-0.2,7,1.9c2.4,3.1,2.5,7.5,1.1,10.9c-2.1,4.9-10.5,4.6-12-0.6
		C57.5,118.2,58.1,111.9,62.8,110.1z M62.6,112.1c-1.6,1.7-1.6,4.3-1.6,6.5c0.1,1.9,0.1,4.2,1.7,5.5c1.5,1.5,4.4,1.1,5.4-0.9
		c1.5-3,1.3-6.7,0.3-9.8C67.6,111.3,64.3,110.6,62.6,112.1z"/>
</g>
<path d="M151.4,113.9c1.5-1.6,3.1-3.2,5.2-4.1c0.1,0.9,0.2,1.9,0.4,2.8c-2.2,0.2-4.6,1.2-5.1,3.6c-0.3,3.2-0.1,6.4-0.1,9.7
	c-0.6,0.1-1.8,0.2-2.3,0.3c0-5.1,0-10.3,0-15.4c0.6-0.1,1.7-0.3,2.3-0.4C151.6,111.3,151.5,113,151.4,113.9z"/>
<g>
	<path fill="#020202" d="M94.9,114.1c1.1-4.7,9-5.9,10.8-1.2c0.6,4.4,0.2,8.9,0.2,13.4c-1.5-0.1-2.2-0.8-2.2-2.2
		c-2.3,3.7-9.6,2.6-8.9-2.3c0.7-4.2,5.8-4,9-4.6c0-2.2,0.1-6-3-5.9c-2-0.4-2.7,1.6-3.6,2.9C96.6,114.2,95.5,114.2,94.9,114.1z
		 M97.1,121.8c-0.1,1.9,1.8,3.6,3.6,2.9c2.6-0.7,3.2-3.7,3.1-6C101.4,119,98.1,119,97.1,121.8z"/>
</g>
<path fill="#010101" d="M110.1,110.4c0.6,0,1.8,0.1,2.4,0.2c0.9,4.2,1.9,8.4,3.1,12.5c1.1-3.9,2.2-7.8,3.2-11.7
	c0.1-1.2,2.3-1.7,2.5-0.2c1.3,3.9,2.2,8,3.6,11.9c0.9-4.1,1.8-8.3,2.7-12.4c0.6,0,1.7,0,2.3,0c-1.3,5.2-2.7,10.3-4,15.5
	c-0.5,0-1.6-0.2-2.2-0.2c-1.3-4.1-2.5-8.3-3.6-12.5c-1.5,4.1-2.3,8.5-3.7,12.7c-0.5,0-1.5-0.1-2.1-0.1
	C112.8,120.8,111.4,115.6,110.1,110.4z"/>
<g>
	<path fill="#010101" d="M133.1,114.2c0.5-5,8.8-5.9,10.5-1.3c0.8,4.3,0.2,8.8,0.1,13.1c-1.5,0.6-2-0.5-2.2-1.8
		c-1.8,1.8-4.7,2.9-7.1,1.4c-2.2-1.2-2.3-4.7-0.4-6.2c2.1-1.8,5.1-1.5,7.7-1.9c-0.1-2.2,0.3-5.8-2.7-6.2c-2-0.6-3.2,1.5-3.8,3.1
		C134.7,114.3,133.7,114.2,133.1,114.2z M135.2,121.8c-0.4,2.5,2.7,4,4.4,2.3c1.9-1.1,1.8-3.5,2.2-5.4
		C139.5,119,135.6,118.8,135.2,121.8z"/>
</g>
</svg>
