<?xml version="1.0" encoding="utf-8"?>
<!-- Generator: Adobe Illustrator 18.1.1, SVG Export Plug-In . SVG Version: 6.00 Build 0)  -->
<svg version="1.1" id="图层_1" xmlns="http://www.w3.org/2000/svg" xmlns:xlink="http://www.w3.org/1999/xlink" x="0px" y="0px"
	 viewBox="0 0 108.9 128.1" enable-background="new 0 0 108.9 128.1" xml:space="preserve">
<path fill="#F75926" d="M85.6,37.1c2.7-3.9,8.1-4.6,12.4-3.1c5.7,1.9,9.5,7.8,9.6,13.7c0.4,4.3-1.4,8.3-3.1,12.1
	c-5.4-1.6-11.6-0.4-16.5-3.7C82.2,51.8,81.8,42.8,85.6,37.1z"/>
<g>
	<path d="M108.8,52.5c0.3,12.6,0,25.1-0.1,37.7c-0.1,8.3-0.4,17-4.1,24.7c-3.1,6.6-9.3,11.7-16.5,12.9c-8.2,1.3-17.7-0.2-23.6-6.5
		c-5.5-6-6.5-14.7-5.9-22.5c0.5-6.8,3.8-13.5,9.5-17.2c6.5-4.5,14.5-5.5,21.7-8.3c5.6-2,11.3-4.9,14.8-9.9
		C106.9,60.1,107.7,56.2,108.8,52.5z M80.9,83.1c0,12.3-0.1,24.6,0,36.9c2.3-0.1,5,0.2,6.9-1.4c2.3-2,1.9-5.4,2-8.1
		c-0.3-7.8,0.4-15.7-0.4-23.6C88.7,83,84.1,83,80.9,83.1z"/>
</g>
<g>
	<path d="M79.4,17.2c-1.8-0.5-3.7-0.6-5.6-0.4c0.1,2.8,0.1,5.6,0,8.5c1.7,0,3.3,0,5,0c0-0.3,0-1,0-1.4c-1.1,0-2.2,0-3.4,0
		c0-0.6-0.1-1.8-0.1-2.4c1.3-0.1,2.9,0.4,3.5-1.2c-0.9,0-2.7-0.1-3.6-0.1C74.9,17.4,77.9,18.4,79.4,17.2z"/>
	<path d="M81.7,18.5c0.9-0.5,2-0.7,3.1-0.4c0-0.4,0-1.1-0.1-1.5c-1.6,0.1-4,0.1-4.6,1.9c-0.7,2.5,2.4,3,3.8,4.2
		c0.5,2.3-3,0.9-4.1,1.6c1.7,2.2,6.3,1.4,5.9-1.8C85.5,20.3,82.1,20.6,81.7,18.5z"/>
	<path d="M87.2,17.1c0,2.8,0,5.5-0.1,8.3c0.4,0,1.2,0,1.6,0c0.1-2.9,0.1-5.8,0-8.6C88.3,16.8,87.5,17,87.2,17.1z"/>
	<path d="M97.6,17.9l-0.8-1.1c-3.9-2-8.5,2.6-6.1,6.4c1.2,2.7,4.3,2.1,6.7,1.9c0-1.6,0-3.2,0-4.8c-1.3,0.1-2.6,0.3-4,0.5
		c1.6,0.7,2.9,1.7,2.4,3.7c-2.4,0-4.7-2-3.8-4.5C92.5,17.3,95.7,18,97.6,17.9z"/>
	<path d="M106,17.2c-0.4-0.2-1.1-0.5-1.4-0.7c-0.1,2,0,4.1-0.1,6.1c-1.6-2.2-2.2-5.5-5.1-6.3c-0.1,3,0,6,0,9.1l1.4-0.1
		c-0.1-2-0.1-4.1-0.1-6.1c1.7,2.1,2.2,5.9,5.2,6.4C105.9,22.8,106.2,20,106,17.2z"/>
	<path d="M6.4,9.5C7,8.8,7.1,7.9,6.8,6.9c1,1,2,2,3.1,2.9C9.8,9.2,9.5,8.1,9.4,7.6C9,7.3,8.3,6.7,8,6.4c0.4,0,1.3,0.2,1.8,0.2
		c-0.9-2.2,1.1-4.2,0.1-6.5C8.1,1.3,6.3,0.8,4.6,0c0,0.9,0,1.8,0,2.7c1.4-0.2,2.8-0.6,4-1.3C8.7,2,8.9,3,9,3.5c-1.6,0-3.2,0-4.7-0.6
		c0.3,2.1,1.2,4.5-1,5.9C4,8.5,4.8,8.3,5.5,8C5.8,8.4,6.2,9.1,6.4,9.5z M7.8,5.4c-1,0.7-1.6,0.4-1.7-0.7C7.1,4,7.7,4.3,7.8,5.4z"/>
	<path d="M22.8,7.3c0,1.8,0.1,3.7,0.2,5.5c0.7,0,1.5,0.1,2.2,0.2c0.5-4.3,0.2-8.5,0.3-12.8c-0.8-0.1-1.6-0.1-2.4-0.2
		c0,1.7-0.1,3.5-0.1,5.2c-1.7,0-3.4,0-5.2,0c0-1.7,0-3.4-0.1-5.1c-0.6,0-1.8-0.1-2.5-0.1c0,2.4,0,4.8,0,7.3
		C17.8,7.5,20.3,7.3,22.8,7.3z"/>
	<path d="M31.4,7c1.6,1.9,3.1,3.9,4.5,6c0.8,0,2.5,0,3.3,0c-1.8-2.3-3.6-4.6-5.5-6.8c1.8-2,3.5-4.1,5.2-6.1c-1,0.1-2.1,0.1-3.1,0.3
		c-1.6,1.7-3,3.6-4.6,5.3c-0.1-1.8-0.1-3.7-0.3-5.5c-0.5,0-1.6,0-2.1,0c0,4.3,0,8.5,0,12.8c0.8,0,1.6,0,2.5-0.1
		C31.3,10.9,31.3,8.9,31.4,7z"/>
	<path d="M59,2.6c0.6,1.8,1.2,3.5,1.7,5.3c-1.4,0.4-3.9-0.7-3.5,2c1.3,0.1,2.8-0.1,4.1,0.3c0.4,0.9,0.8,1.8,1.2,2.7c1,0,2,0.1,3,0.2
		c-1.6-4-3-8.1-4.7-12.1c-0.4-1.4-2.1-0.6-3.1-0.9c-1.8,4.3-3.3,8.7-5.2,13c0.7,0,2.2-0.1,3-0.2C56.7,9.5,57.7,6,59,2.6z"/>
	<path d="M3.2,7.1C2.9,5,3.1,2.8,3.2,0.7c-0.6,0-1.9,0-2.5-0.1c0.7,0.9,1.3,1.9,2,2.8l-2-0.3c0.5,0.7,1,1.5,1.4,2.3
		C1.6,6.3,1.1,7.1,0.6,8C1.4,7.7,2.3,7.4,3.2,7.1z"/>
	<path d="M48.9,11.8c3.1-1.9,3.5-6.5,1.6-9.4c-2.4-2.9-6.5-2.1-9.7-2.2c0,4.2,0,8.5,0,12.7C43.4,12.8,46.5,13.5,48.9,11.8z M47,2.6
		c2.3,1.5,2.7,5.2,0.8,7.3c-1.2,1-2.9,1.2-4.3,1.8c-0.2-3.2-0.2-6.5-0.3-9.7C44.4,2.1,45.8,2,47,2.6z"/>
	<path d="M17.8,8c-0.6,0.1-1.8,0.2-2.4,0.3c0,1.5-0.1,3.1-0.1,4.7c0.7,0,2-0.1,2.7-0.1C17.9,11.3,17.9,9.6,17.8,8z"/>
	<path d="M5,22.6c0.6,0,1.8-0.1,2.4-0.1c0-0.8,0.1-2.3,0.1-3.1c0.8,1.1,1.6,2.3,2.8,3.1c-0.5-2.2-1.3-4.4-0.1-6.5
		c-1,0.4-1.9,0.7-2.9,1.1c-0.1-2,1.9-1.6,3.2-1.9c-0.2-0.5-0.7-1.5-0.9-2c-1,0.2-2.6,2.1-2.3-0.5c-1.4,2.5-4.1,1-6.3,0.7
		c0.7,2.1,0.2,4.4,0.8,6.6c-0.6,0.7-1.2,1.3-1.7,2c2.1-0.4,4.2-0.9,6.4-1.2C6,21.1,5.4,22.1,5,22.6z M3.4,20.4
		c-0.1-1.9-0.2-3.8-0.3-5.6c1.2,0.3,2.3,0.6,3.5,0.9c-0.8,0.7-1.5,1.4-2.3,2c0.5,0.3,1.6,0.8,2.1,1C5.4,19.3,4.4,19.9,3.4,20.4z"/>
	<path d="M22.4,24.9c0-1.5,0-2.9,0.1-4.4c-1.1,0-2.2,0-3.4,0.1c0,0.3,0,0.9,0,1.2l1.4,0.3c0.1,0.7,0.3,2.1,0.4,2.8
		c-2.2-0.4-4.9-1.9-4.2-4.6c0.3-3.1,3.8-2.2,5.9-2.3c-2.6-3.4-9-0.2-7.7,4C15.4,25.4,19.7,25.7,22.4,24.9z"/>
	<path d="M24.4,25.2c1.6,0,3.2,0.1,4.8,0.1c0-0.3,0-1,0-1.3c-1,0-2.1,0-3.1,0c0-2.5,0-5-0.1-7.5c-0.4,0.2-1.2,0.6-1.6,0.8
		C24.3,19.9,24.5,22.5,24.4,25.2z"/>
	<path d="M38,20.9c0.3-3-3.4-5.3-5.9-3.8c-3,1.5-3.1,6.3-0.1,7.8C34.7,26.7,38.3,23.9,38,20.9z M34.4,24.7c-1.3-0.9-3-2-2.7-3.9
		c-0.3-1.7,2.1-4.2,3.6-2.5C37.2,20.2,36.1,23.1,34.4,24.7z"/>
	<path d="M45.3,24.4c0.7-1.3,0-2.6-0.8-3.7c0.5-1,1.1-2,0.5-3.1c-1.5-1.2-3.5-0.8-5.3-0.8c0.1,2.8,0,5.7,0,8.5
		C41.5,25.3,43.7,25.6,45.3,24.4z M41.4,17.7c0.7,0.4,2.6,0.4,2.3,1.6c-0.5,0.4-1.6,1.3-2.1,1.8c1.4,0.1,2.2,0.8,2.5,2
		c-0.5,1-1.7,1.6-2.7,0.9C41.3,21.8,41.4,19.8,41.4,17.7z"/>
	<path d="M51.5,16.8c-0.5,0-1.5,0.1-2,0.1c-1.1,2.8-2.4,5.6-3.3,8.6c1.7,0,2.2-1.5,2.8-2.8c2.4-0.1,3.6,2.1,5.6,2.9
		C53.7,22.7,52.4,19.8,51.5,16.8z M48.9,22.5c0.5-1.4,0.9-2.8,1.4-4.2c0.4,1.2,0.9,2.3,1.3,3.5C50.9,22,49.6,22.4,48.9,22.5z"/>
	<path d="M57.4,23.9c0.1-2.3,0-4.6,0.1-6.9c-0.4,0-1.3-0.1-1.7-0.1c0,2.8,0,5.7,0,8.5c1.8-0.1,3.7-0.1,5.5-0.4
		C60.3,23.8,58.8,24,57.4,23.9z"/>
	<path d="M65.1,16.9c0,2.8,0,5.6,0,8.4c2-0.2,4.4,0.6,6-0.9c1.7-1.6,1.6-4.5,0.3-6.3C69.8,16.4,67.2,16.7,65.1,16.9z M66.9,24.6
		c-0.1-2.2,0-4.5,0-6.7c1.7,0.2,4,0.8,3.7,3C71,23.2,68.7,24.2,66.9,24.6z"/>
	<path d="M4.9,30.2c1.6-0.4,1.6-2.1,2.1-3.3c1,1.3,1.8,3,3.7,3.4c-0.9-1.3-1.7-2.7-2.8-3.9C5.6,25.7,5.6,28.8,4.9,30.2z"/>
	<path d="M1.2,29.4c-0.1,1.6-0.2,3.1-0.1,4.7c-1,1.9,2.8,1.3,3.6,0.8l0.8,0.8c0,0.1,0.1,0.3,0.1,0.4c0.6-0.6,1.2-1.1,1.8-1.7
		c1.2,0.6,2.4,1.1,3.7,1.6c-0.8-0.9-1.7-1.6-2.5-2.5c0.3-0.7,0.8-2.2,1.1-3c-1.5,0-3.1,0-4.6-0.1c0.5,1.1,1.1,2.3,1.6,3.4
		c-0.5,0.5-0.9,1-1.4,1.5c-0.1-1.1-0.5-2.2-1.1-3l0.5-0.5l-0.2-0.8l-0.7-0.3c0.5-0.8,0.6-1.6,0.3-2.5c-0.2-0.3-0.6-1-0.9-1.4
		c-0.6-1.5-2.4-0.3-1.6,0.9c-0.4-0.1-1.2-0.2-1.7-0.2C0.4,28.1,0.8,28.7,1.2,29.4z"/>
	<path d="M18.7,31c0.5,1.1,0.9,2.2,1,3.4c-0.6,0.1-1.7,0.4-2.2,0.6l0.1,0.7c0.8,0,2.3,0,3,0c0.1,0.5,0.4,1.4,0.5,1.9
		c0.4,0.1,1.3,0.2,1.8,0.3c-1-2.9-2-5.8-3.3-8.6c-0.4,0-1.1,0-1.5,0c-1.5,2.7-2.5,5.7-3.6,8.6C17.8,37.5,17.3,33.2,18.7,31z"/>
	<path d="M31.6,35.9c-0.6-2.2-1.1-4.4-1.6-6.6c-0.5,0-1.6,0-2.1,0c-0.5,2.1-1,4.2-1.5,6.3c-0.7-2-1.1-4.2-1.5-6.3
		c-0.4,0-1.3-0.1-1.8-0.1c0.8,2.7,1.5,5.5,2.1,8.3c0.4,0.1,1.1,0.3,1.4,0.4c0.8-2.2,1.5-4.4,2.4-6.5c1.2,1.9,0,6.5,3.2,6.4
		c1.2-2.9,1.7-6,2.3-9C31.6,29.7,32.6,33.6,31.6,35.9z"/>
	<path d="M49.5,30.9c-0.6-2.5-3.8-1.5-5.6-1.8c0,2.8,0,5.5,0,8.3c0.4,0.1,1.2,0.3,1.6,0.4c0.2-1.3-0.2-2.8,0.4-3.9
		c2.1,0.5,1.5,4.6,4.4,3.8c-0.6-1.3-1.4-2.5-1.9-3.8C48.8,32.9,50,32.1,49.5,30.9z M45.9,32.9c-0.1-0.7-0.3-2.1-0.4-2.8
		c0.6,0.2,1.9,0.7,2.5,0.9C48,32.1,47.1,33.5,45.9,32.9z"/>
	<path d="M57.8,36.4c1.2-1.6,1.2-4,0.1-5.7c-1.6-2-4.4-1.5-6.7-1.5c0,2.8,0.1,5.7,0.3,8.5C53.7,37.5,56.2,38.1,57.8,36.4z
		 M53.2,30.3c1.6,0.3,4,0.6,3.7,2.8c0.5,2.4-1.8,3.4-3.7,3.8C53.2,34.7,53.2,32.5,53.2,30.3z"/>
	<path d="M65.4,30.2c-1.6-1.7-5.5-1.3-5.5,1.4c-0.2,2.5,3.8,2.2,3.6,4.5c-1.3,0.6-2.8,0.3-4.2,0.6c1.6,2,5.6,1.5,6.2-1.1
		c0-2.3-2.7-2.8-4.2-4C62,29.9,64.1,30.7,65.4,30.2z"/>
	<path d="M40,35.4c0.6,1.3,1.3,2.6,3,2.5c-1-2.9-2.2-5.8-3.2-8.7c-0.5,0-1.5,0-2,0c-1.1,2.9-2.2,5.8-3.1,8.8
		c2.9-0.3,2.5-3.8,3.5-5.7c0.4,0.2,1.1,0.6,1.4,0.9c-0.4,0.6-1.3,1.9-1.7,2.6L40,35.4z"/>
	<path d="M7.8,38.5c-0.2,1.3-0.2,2.7-0.3,4c-1.5,0.3-3,0.5-4.6,0.7c0.7-0.9,1.6-1.6,2.7-1.9c-1-0.6-2-1.1-3-1.7
		c-0.7,0.7-1.4,1.4-2.1,2.1c0.6,0,1.9,0.1,2.5,0.1c-0.7,0.6-1.4,1.1-2.2,1.7c1.1,0.3,2.3,0.5,3.5,0.8C5.1,43.4,6.1,43,7.3,43
		c0.1,2.2,0.2,4.4,0.5,6.5c1.1-1.8,0.7-4,0.7-6c0.7-0.1,2.1-0.2,2.8-0.2c-0.9-0.4-1.7-0.7-2.7-0.8C8.5,41.1,8.5,39.7,7.8,38.5z"/>
	<path d="M26.8,59c-3.1-0.1-6.2,0-9.2,0c3-2.9,6.6-5.5,8.3-9.5c1.2-2.5,0.2-5.9-2.4-7c-2.4-1-5.2-0.6-7.6,0.3
		c-1.2,0.3-0.7,1.3-0.3,2.1c2.1-0.4,4.5-1.4,6.5-0.2c1.6,0.9,1.8,3.1,1,4.6c-1.9,3.9-5.6,6.3-8.4,9.3c-0.1,0.7-0.2,2-0.2,2.7
		c4,0,8,0.1,11.9,0.1C26.5,60.5,26.7,59.5,26.8,59z"/>
	<path d="M39.2,59.3c2.7-3.9,2.6-9.2,1.2-13.6c-1-3.3-5.2-5.2-8.2-3.3c-2.1,1.3-3,3.8-3.4,6.2c-0.7,3.3-0.3,6.8,1.2,9.8
		C31.7,61.7,37,62.4,39.2,59.3z M33.3,58.6c-2.1-2.2-2-5.5-1.9-8.4c0.2-2.2,0.4-4.9,2.5-6.1c1.5-0.7,3.6,0.4,3.9,2.1
		c1.2,3.6,1.3,7.7-0.3,11.2C36.8,59,34.7,59.6,33.3,58.6z"/>
	<path d="M49.6,41.6c-2.9,0.3-4.9,2.4-6.9,4.3c0.3,0.5,1,1.4,1.3,1.9c1-0.9,2-1.8,3-2.6c0.1,5.3,0,10.5,0,15.8c0.7,0,2,0,2.7,0
		C49.6,54.5,49.8,48,49.6,41.6z"/>
	<path d="M62.7,51c1.6-1.5,3.5-3.3,2.9-5.7c-1.6-5.2-11-4.7-11.9,0.8c-0.1,2.1,1.4,3.6,3,4.8c-1.9,1.4-3.9,3.4-3.4,5.9
		c1.2,5.9,11.9,6.2,12.8-0.1C66.8,54.2,64.8,52.1,62.7,51z M56.4,46.3c0.6-3.1,6.1-3.3,6.7-0.1c0.2,1.7-1.4,2.8-2.5,3.9
		C59,49.1,56.5,48.5,56.4,46.3z M63.5,56.7c-0.8,3.7-7.5,3.1-7.4-0.7c-0.2-1.9,1.7-3,3.1-3.7C61.4,52.2,63.9,54.2,63.5,56.7z"/>
	<path d="M1.2,43.7c0.1,1.7,0.1,3.4,0.2,5.2C3.3,47.9,2.6,44.9,1.2,43.7z"/>
	<path d="M4.8,48.1c1-0.9-0.1-3.2-1.4-2.2C2.5,46.8,3.7,48.8,4.8,48.1z"/>
	<path d="M5.1,56.2c-0.6,2.4-2.3,4-4.3,5.4c2,1.3,3.7-1.7,4.8-3.2c1.3,1.5,2.3,3.9,4.7,3.5c-1.7-1.8-3.5-3.5-4.8-5.6
		c1.6-0.1,3.3-0.2,4.9-0.3c-0.9-1.4-2.7-0.9-4-1c-0.2-1.2-0.1-2.5-1-3.5c-0.2,1.1-0.3,2.3-0.4,3.5c-1.5,0.2-3.2-0.1-4.4,1.1
		C2.2,56.1,3.6,56.2,5.1,56.2z"/>
	<path d="M8.9,71.9c0.4-0.6,0.7-1.3,1.1-1.9c-0.3-0.5-1-1.4-1.4-1.8c0.7-0.8,1.3-1.6,1.9-2.4c-1.3,0.3-2.6,0.3-3.9,0.1
		C6.2,66,5.4,66.4,5,66.6c-0.5-0.3-1.5-0.9-1.9-1.2c0.1,0.6,0.2,1.7,0.3,2.2c-0.9-0.5-1.8-0.9-2.7-1.3c0.2,1.8,1.7,2.1,3.2,2.2
		c-0.9,0.1-1.8,0.2-2.7,0.3c0,0.8-0.1,2.4-0.1,3.1c1-1.2,2.2-1.9,3.7-2c-0.1-0.8-0.4-2.5-0.5-3.3c1.6,0.3,1.2,1.6,1.1,2.8
		c0.8-0.8,1.7-1.5,2.5-2.3c0.1,1.8,0.3,3.5,0.7,5.3c-2.4,0.6-2.2-1.5-1.4-3l-1.6,0c-0.1,1.4,1.1,4.2-1.6,2.9c0.2-0.5,0.6-1.5,0.8-2
		l-1.4,0.1c0.1,0.5,0.4,1.5,0.5,1.9c-0.7,0-2.1,0-2.8,0l0.2,1c1,0,2.9-0.1,3.9-0.2c-1.5,1.1-3.3,1.6-5,2.3c2.3,0.7,4.3-0.9,6.2-2
		c1.2,0.8,2.5,1.6,3.8,2.4c0.1-0.3,0.4-1,0.5-1.3c-1.3-0.2-2.5-0.7-3.6-1.3c0.9-0.1,2.8-0.4,3.8-0.5C10.4,72.5,9.4,72.1,8.9,71.9z"
		/>
	<path d="M19.9,68.5c-1.5-0.7-4.1-1.2-4.8,0.8c-1.1,2.7,5.2,2.8,2.8,5.2c-1.2,0.3-2.3-0.3-3.5-0.4c1.1,1.2,3.1,1.4,4.6,0.8
		c1.7-2.6-1.6-4-3.3-5.2C16.1,67.6,18.6,68.9,19.9,68.5z"/>
	<path d="M40.2,71.6c1.1,0,2.4,0.5,3.4-0.4c-0.9,0-2.8,0-3.8-0.1c0.2-0.6,0.5-1.9,0.7-2.5c0.9,0.1,1.8,0.3,2.8,0.5
		c0-0.2,0-0.7,0.1-0.9c-1.7,0-3.4,0-5.1,0.5c-1.6-0.6-3.6-1.5-5.1-0.2c-2.3,1.3-2.4,5.1-0.1,6.4c1.7,0.6,3.7,0.3,5.1-0.7
		c-1.6,0.2-3.2,0.4-4.9,0.4c-0.4-1.5-1.5-3.2-0.5-4.7c1.2-2.7,4.2-0.7,6.3-0.7c0,2.1,0,4.1-0.3,6.2c1.8-0.3,4,0.2,5.5-1.1
		c-1.4,0.1-2.8,0.3-4.1,0.5C40.3,74.1,40.2,72.4,40.2,71.6z"/>
	<path d="M22.2,68c-0.4,0-1.2,0-1.6,0c0.1,2.5,0.1,5.1,0,7.6c0.4,0,1.3-0.1,1.8-0.2C22.1,72.9,22.1,70.4,22.2,68z"/>
	<path d="M29.3,73.2c-1.7-1.8-3.3-3.8-5.1-5.5c0,2.6,0.1,5.1-0.1,7.7c0.3,0,0.8,0.1,1.1,0.2c-0.1-1.8-0.1-3.6-0.1-5.3
		c1.6,1.8,3,3.7,4.6,5.4c0.2-2.6,0.3-5.1,0.6-7.7c-0.4,0-1.1,0-1.5,0C29.1,69.7,29.2,71.5,29.3,73.2z"/>
	<path d="M46.7,68.7c1.9,1.8,1.1,4.4,1,6.7c0.4,0,1.2,0,1.6,0.1C49,73.1,49,70.7,49,68.4C48.4,68.4,47.3,68.6,46.7,68.7z"/>
	<path d="M51.3,69.8c-0.9,2.2,1.8,3.1,3.5,2.7c-0.9,1-1.8,2-2.6,3.1c1.6-1,3.3-2.3,3.6-4.3c-0.2-1.1-0.7-2.1-1-3.2
		C53.5,68.5,51.6,68.2,51.3,69.8z M53.9,71.8c-1.5,0.3-2.2-2.3-0.8-2.8C54.5,68.8,55.2,71.2,53.9,71.8z"/>
	<path d="M56,69.3c1.5,0.1,3,0.1,4.5,0.2c0-0.4-0.1-1.1-0.1-1.5C58.8,68.3,56.9,67.7,56,69.3z"/>
	<path d="M61.7,71.1c0.6-1.4,1.7-2.1,3.4-2c0-0.2,0.1-0.6,0.1-0.9c-0.9,0.1-1.8,0.2-2.6,0.4c-1.9,1.6-1,4.2-0.7,6.3
		c1.8,1.2,4.3-0.5,3.6-2.6C65.1,70.4,63,71.2,61.7,71.1z M64.1,74.3c-0.4,0-1.2,0-1.6,0c-0.8-0.8-0.2-2.7,1.1-2.3
		C64.5,72.5,64.6,73.3,64.1,74.3z"/>
	<path d="M59.8,70.3c-1.4,1.6-2.4,3.6-2.9,5.6C58.6,74.6,59.2,72.3,59.8,70.3z"/>
</g>
</svg>
