<?xml version="1.0" encoding="utf-8"?>
<!-- Generator: Adobe Illustrator 18.1.1, SVG Export Plug-In . SVG Version: 6.00 Build 0)  -->
<svg version="1.1" id="图层_1" xmlns="http://www.w3.org/2000/svg" xmlns:xlink="http://www.w3.org/1999/xlink" x="0px" y="0px"
	 viewBox="0 0 161 46.9" enable-background="new 0 0 161 46.9" xml:space="preserve">
<g>
	<path d="M8.6,0.1c6.2,0.2,12.5-0.4,18.5,0.3c5.6,15.3,11.1,30.7,16.5,46.1c-3.6,0-7.2,0-10.7,0c-1-3.1-2-6.3-3.1-9.4
		c-5.5,0-11.1,0-16.6,0c-1.1,3.1-2,6.3-3.1,9.4c-3.4,0-6.8,0-10.1,0c4.5-13,8.6-26.1,13.1-39.1c-1.4,0-2.9,0-4.3,0
		C8.7,4.9,8.6,2.5,8.6,0.1z M15.2,30.1c4.1-0.1,8.2,0,12.2,0c-2-6.6-4.2-13-6.3-19.5C19.1,17.1,17.2,23.6,15.2,30.1z"/>
</g>
<g>
	<path d="M59.3,0.4c7.6,0.1,15.2,0,22.8,0c5,0.2,10.5,1.1,14.2,4.8c3.8,3.9,4,9.9,3.2,15c-0.8,4.6-4.2,8.4-8.5,10.1
		c-5.3,2-11.2,1.5-16.8,1.6c-0.1,5,0.2,9.9-0.1,14.9c-3.4,0.1-6.8,0-10.2,0c0-13,0-26,0-39.1c-1.5,0-2.9,0-4.4-0.1
		C59.2,5.3,59.4,2.8,59.3,0.4z M74.2,7.8c0,5.7,0,11.3,0,17c4.2,0,8.9,0.6,12.4-1.9C90,19.6,90.2,13.4,87,10
		C83.5,7,78.4,7.9,74.2,7.8z"/>
</g>
<g>
	<path d="M117.4,0.4c8-0.1,16.1-0.5,24.1,0c6,0.4,12.4,2.4,15.9,7.6c4,5.8,3.7,13.3,3.4,20.1c-0.4,6.5-3.9,13-10,15.8
		c-8.9,4.2-19.1,2.2-28.6,2.7c0-13.1,0.1-26.1,0-39.2c-1.5-0.3-3.1-0.2-4.7-0.3C117.4,4.9,117.4,2.6,117.4,0.4z M132.4,7.3
		c0,10.7,0.1,21.3,0,32c4.6-0.1,9.8,0.5,13.6-2.6c4-3.6,4.2-9.5,4.1-14.4c-0.2-4.4-0.5-9.5-4.3-12.4C142,7,137,7.3,132.4,7.3z"/>
</g>
</svg>
