<?xml version="1.0" encoding="utf-8"?>
<!-- Generator: Adobe Illustrator 18.1.1, SVG Export Plug-In . SVG Version: 6.00 Build 0)  -->
<svg version="1.1" id="图层_1" xmlns="http://www.w3.org/2000/svg" xmlns:xlink="http://www.w3.org/1999/xlink" x="0px" y="0px"
	 viewBox="0 0 265.6 47.1" enable-background="new 0 0 265.6 47.1" xml:space="preserve">
<path fill="#140F0B" d="M0,0.1c2.6,0,5.1,0,7.7,0c-0.1,6,0,12-0.1,18c7.3,0.1,14.6,0,21.9,0c0-6,0-12-0.1-18c2.6,0,5.3,0,7.9,0
	c0,15.3,0,30.6-0.1,45.9c-2.6,0-5.2,0-7.7,0c-0.1-6.8-0.1-13.7,0-20.5c-7.3,0.1-14.6,0-21.9,0.2c0,6.7,0,13.4,0,20.1
	c-2.5,0-5,0-7.5,0C0,30.6,0.4,15.4,0,0.1z"/>
<path fill="#0689D1" d="M72.8,0.6c2.6-1.7,6.3,0.9,5.6,3.9c-0.7,3-5.3,3.7-7,1.2C70.7,4,70.9,1.4,72.8,0.6z"/>
<g>
	<path fill="#120E0A" d="M85.1,26.4c0.1-8.8-0.1-17.5,0-26.3c2.5,0,4.9,0,7.4,0.1c-0.1,4.6-0.1,9.2-0.1,13.7
		c3.3-2.1,7.1-3.6,11.1-3.5c8.3-0.2,16.4,5.9,18.2,14.1c1,4.7,0.5,9.9-2.3,13.9c-3.4,5.7-10.1,9.1-16.7,8.7
		c-7.3-0.3-14.2-5.1-16.7-12C85,32.3,85,29.3,85.1,26.4z M100.5,18.4c-4.5,1.3-8.2,5.6-8.1,10.5c0,4.7,3.5,9,8,10.2
		c6.6,2.2,14.2-3.4,14.3-10.3C114.8,21.9,107.1,16.1,100.5,18.4z"/>
</g>
<g>
	<path fill="#120E0A" d="M257.8,0.1c2.6,0,5.2,0,7.8,0c-0.1,8.8,0,17.5,0,26.3c0,3.3-0.1,6.7-1.6,9.7c-2.7,6.1-8.9,10.2-15.5,10.9
		c-5.3,0.6-10.7-1.5-14.7-5.1c-5-4.7-7.2-12.3-4.9-18.8c2.4-7.8,10.6-13.4,18.8-12.8c3.6,0,7,1.6,10,3.5
		C257.8,9.3,257.8,4.7,257.8,0.1z M243.8,18.3c-5.1,1.5-8.9,6.9-7.9,12.2c0.9,5.7,7.1,10,12.8,8.8c5.6-0.8,10-6.5,8.9-12.1
		C256.8,20.9,249.8,16.3,243.8,18.3z"/>
</g>
<path fill="#79A120" d="M59,6.3c2.7-1.9,7,1.5,5.4,4.5c-0.9,2.9-5.8,3.3-7,0.5C56.3,9.7,57.2,7.2,59,6.3z"/>
<path fill="#110D09" d="M135.7,11.3c4.2-1.9,9.1-1.8,13.5-0.7c-0.8,2.5-1.7,4.9-2.6,7.4c-2.6-0.4-5.5-0.9-7.9,0.5
	c-3.3,1.6-5.7,5.1-5.5,8.7c0.1,6.2-0.1,12.5,0,18.7c-2.5,0-5.1,0-7.6,0c0-6.5,0-13,0-19.5C125.6,19.9,129.9,14,135.7,11.3z"/>
<path fill="#130F0B" d="M147.4,28.9c-0.2-9.1,7.3-17.8,16.4-18.5c8.3-1.1,16.9,4.1,19.7,12c1.5,3.9,1,8.1,1.1,12.2
	c0,3.9,0,7.7,0.1,11.6c-2.5,0.1-5,0.1-7.5,0c0-5.8,0-11.5,0-17.3c0.2-6.6-6.8-12.3-13.2-10.8c-4.9,1-9.1,5.6-8.8,10.7
	c-0.3,6.2,5.9,11.7,12,10.6c2.6-0.3,4.9-1.6,7.1-3c-0.1,2.9,0,5.9,0,8.8c-3.3,1.1-6.8,2.3-10.4,1.8C154.9,46.2,147.2,38,147.4,28.9z
	"/>
<path fill="#130F0B" d="M195.7,13.3c7.4-5.9,19.6-4.2,25,3.7c1.7,2.5,2.8,5.5,2.9,8.6c0.1,6.8-0.1,13.7,0.1,20.5c-2.5,0-4.9,0-7.4,0
	c-0.1-6.3,0-12.6,0-18.9c0.1-5-4.2-9.6-9.2-9.8c-5.1-0.3-10.3,3.8-10.4,9.1c-0.1,6.6,0,13.1,0,19.7c-2.6,0-5.2,0-7.8,0
	c0-6.5-0.1-13.1,0-19.6C189,21.3,191.5,16.3,195.7,13.3z"/>
<path fill="#F49710" d="M43.6,13.7c1.6-1,3.3-2.9,5.4-1.9c2.2,0.7,3.5,3.7,2.2,5.7c-1.3,3.1-6.1,2.6-7.3-0.3
	C43.6,16,43.6,14.8,43.6,13.7z"/>
<path fill="#018AD6" d="M70.9,11.9c2.4,0,4.9,0,7.3,0c0.5,11.1,0.2,22.3,0.2,33.5c-2.5,0.2-5.1,0.2-7.6,0.1
	C70.8,34.4,70.7,23.1,70.9,11.9z"/>
<path fill="#7AA41B" d="M57.2,18.6c2.3,0,4.7,0,7,0c0.6,4.2,0.2,8.5,0.3,12.7c-0.1,4.8,0.2,9.6-0.3,14.3c-2.4,0-4.8,0.1-7.2,0
	C56.9,36.7,56.8,27.6,57.2,18.6z"/>
<path fill="#F79A0B" d="M43.7,24.4c2.5-0.2,5.1-0.2,7.6-0.1c0.6,7.1,0.6,14.3,0,21.3c-2.5,0-5,0.1-7.5,0
	C43.5,38.5,43.5,31.5,43.7,24.4z"/>
</svg>
