<?xml version="1.0" encoding="utf-8"?>
<!-- Generator: Adobe Illustrator 18.1.1, SVG Export Plug-In . SVG Version: 6.00 Build 0)  -->
<svg version="1.1" id="图层_1" xmlns="http://www.w3.org/2000/svg" xmlns:xlink="http://www.w3.org/1999/xlink" x="0px" y="0px"
	 viewBox="0 0 189.4 92" enable-background="new 0 0 189.4 92" xml:space="preserve">
<g>
	<path fill="#DC484D" d="M0,0.1C30.8-0.1,61.7,0,92.5,0.1c0.1,30.6,0.1,61.3,0,91.9c-30.8,0-61.6,0.1-92.4,0C0,61.3,0,30.7,0,0.1z
		 M1.4,1.2C0.8,2.7,1,4.3,1,5.9c0.1,28.3-0.1,56.7,0.1,85c30.1,0.2,60.1,0.2,90.2,0c0.1-29.7,0.2-59.4,0-89.2
		c-2.8-0.5-5.6-1.1-8.4-1.1C57.3,0.9,31.8,0.6,6.2,0.8C4.6,0.8,2.9,0.9,1.4,1.2z"/>
</g>
<g>
	<path fill="#ED1822" d="M97.2,1.8c-0.5-1.8,1.5-1.7,2.7-1.7c29.8,0,59.7,0,89.5,0c0,30.6,0.1,61.3,0,91.9c-24.1-0.1-48.2,0-72.3,0
		c-6.6-0.2-13.2,0.3-19.8-0.2C97.2,61.7,97.2,31.7,97.2,1.8z M122.6,19.4c0.2,4.7-0.8,9.5,0.3,14.1c2.7,0.8,5.6,0.4,8.4,0.5
		c0.4-1.1,0.4-2.3,0.5-3.4c-1.7-0.2-3.3-0.4-4.9-0.5c0-0.4,0-1.3,0-1.7c1.4-0.2,2.7-0.4,4.1-0.7c0-0.7,0-2-0.1-2.6
		c-1.3-0.3-2.6-0.6-3.9-0.9c0-0.4-0.1-1.2-0.2-1.7c1.4,0,2.9,0,4.3,0c0.6-1.1,0.5-2.4,0.6-3.5C128.8,18.6,125.7,18.5,122.6,19.4z
		 M133.5,23c-0.5,3.9,4.5,4.2,6.5,6.5c-1.5,2.4-4.2,1.8-6.5,1.2c0.1,0.8,0.3,1.6,0.4,2.4c2.4,0.7,5.6,0.9,7.4-1.3
		c1.1-1.1,1-3,0.5-4.4c-1.4-1.8-3.7-2.3-5.5-3.6c-0.7-3.1,3.6-2,5.3-2c-0.2-0.8-0.5-1.6-0.8-2.3C138.1,18.9,133.6,19.4,133.5,23z
		 M109.9,19.6c0,4.6-0.1,9.2,0,13.7c2.7-0.1,5.7,0.3,8.2-1.1c4.2-2.4,4.3-9.5-0.1-11.7C115.4,19.3,112.6,19.6,109.9,19.6z
		 M144.4,19.8c0,4.5,0.1,8.9,0,13.4c0.9,0.1,1.8,0.1,2.7,0.2c-0.2-4.3,0.5-8.6,0.1-12.8C147.2,18.9,145.3,19.8,144.4,19.8z
		 M151.8,21.1c-3.3,2.9-3,8.8,0.7,11.2c2.5,1.8,5.6,1,8.4,0.6c0.2-2.4,0.2-4.9,0.2-7.4c-1.9,0-3.7,0-5.5,0.1c0,0.5,0.1,1.5,0.1,2
		c0.7,0,2,0.1,2.7,0.1c0,1.2-0.1,2.4-0.1,3.6c-1.8-0.4-4.2-0.2-5.2-2.1c-1-2-1-5.1,1-6.5c1.9-1.5,4.4-0.6,6.6-0.6
		c0-0.5,0-1.6-0.1-2.1C157.7,19.2,154.3,19.1,151.8,21.1z M164,19.7c-0.1,4.4-0.2,8.9,0,13.3c0.6,0.1,1.8,0.3,2.3,0.4
		c0.1-3.3,0-6.6,0.1-9.9c2,3.1,3.4,6.5,5.1,9.7c1.1,0,2.3,0,3.4,0c0.1-4.5,0.4-9-0.2-13.5c-0.5-0.1-1.5-0.2-2-0.3
		c-0.3,3.3-0.1,6.7-0.1,10.1c-2-3.3-3.5-6.9-5.6-10.1C166.3,19.5,164.8,19.6,164,19.7z M113.1,40.2c-1.7,4.1-3,8.4-4.7,12.6
		c0.6,0.1,1.8,0.4,2.4,0.5c1-1,2-2,3.1-2.8c1.5-0.1,2.9,0.5,4.3,0.8c0.1,0.4,0.3,1.2,0.4,1.6c1,0.1,2.1,0.1,3.2,0.2
		c-2.1-4.5-3.2-9.4-5.4-13.9C115.2,39.2,113.4,38.7,113.1,40.2z M121.3,39.1c1.1,4.7,2.5,9.2,3.4,13.9c1.1,0,2.3,0,3.4,0
		c0.8-3.6,1.5-7.2,2.6-10.7c0.9,3.5,1.6,7.1,2.6,10.6c1.1,0,2.2,0,3.2,0c1.2-4.7,2.5-9.3,3.6-14c-0.7,0.1-2,0.3-2.7,0.4
		c-1,3.3-1.3,6.7-2.5,9.9c-1-3.3-1.6-6.6-2.3-10c-1.2-0.1-2.3-0.2-3.5-0.2c-0.8,3.7-1.5,7.3-2.5,10.9c-0.8-3.5-1.7-7.1-2.4-10.7
		C123.5,39.3,122,39.2,121.3,39.1z M144.7,39.1c-1.6,4.7-3.6,9.2-4.9,13.9c0.9-0.1,1.8-0.1,2.8-0.2c0.3-1,0.6-1.9,0.9-2.8
		c1.8-0.1,3.6-0.5,5.4,0c0.5,0.9,0.9,1.9,1.4,2.9c0.9,0,1.8-0.1,2.7-0.2c0.5,0.1,1.4,0.2,1.9,0.2c0.7,0,2,0,2.7,0c0-1.8,0-3.6,0-5.3
		c0.3-0.2,0.9-0.6,1.2-0.9c2,1.4,2.6,3.9,3.4,6.1c1,0,1.9-0.1,2.9-0.1c-0.8-2.3-1.7-4.5-2.9-6.6c1.6-1.2,2.8-3.5,1.5-5.4
		c-2.2-2.5-6-1.4-8.9-1.7c-1.8,3.5-0.6,7.6-1,11.3c-0.7-0.4-1.5-0.9-2.2-1.3c-1.1-3-2.1-6.1-3.3-9.1
		C147.7,38.7,145.8,39.4,144.7,39.1z M167.1,53c2.8-0.1,5.8,0.4,8.4-1c4.3-2.3,4.3-9.5,0.1-11.9c-2.5-1.2-5.4-1.1-8.1-1
		C166.6,43.7,167.4,48.4,167.1,53z"/>
</g>
<g>
	<path fill="#ED1821" d="M1.4,1.2c1.6-0.3,3.2-0.4,4.9-0.4c25.5-0.2,51.1,0.1,76.6-0.1c2.8,0,5.6,0.5,8.4,1.1
		c0.2,29.7,0.2,59.4,0,89.2c-30.1,0.1-60.1,0.2-90.2,0c-0.3-28.3,0-56.7-0.1-85C1,4.3,0.8,2.7,1.4,1.2z M23.5,19.2
		c-6,2.2-6.7,11.5-1.1,14.5c5.2,3.8,13.3-1.1,12.7-7.4C35,20.8,28.6,16.6,23.5,19.2z M39,19.5c0,17.7,0,35.4,0,53.1
		c4.9,0,9.7,0,14.6,0c0.1-17.7,0-35.4,0-53.1C48.8,19.5,43.9,19.4,39,19.5z M58.5,19.4c0,4.9,0,9.7,0,14.6c4.8,0,9.6-0.1,14.3,0
		c0.1-4.9,0-9.7,0-14.6C68.1,19.4,63.3,19.4,58.5,19.4z M19.5,38.8c0,11.3,0,22.5,0,33.8c4.9,0,9.8,0,14.7,0
		c0.1-11.2,0-22.5,0.1-33.7C29.4,38.7,24.4,38.8,19.5,38.8z M58.5,38.8c0,4.9,0,9.7,0,14.6c4.8,0.1,9.6,0.1,14.4,0
		c0-4.9,0-9.7,0-14.6C68.1,38.9,63.3,38.8,58.5,38.8z"/>
</g>
<path fill="#FEFEFD" d="M23.5,19.2c5.1-2.5,11.5,1.6,11.6,7.2c0.6,6.3-7.5,11.2-12.7,7.4C16.8,30.7,17.5,21.3,23.5,19.2z"/>
<path fill="#CA0506" d="M122.6,19.4c3-0.9,6.2-0.8,9.3-0.5c-0.1,1.2,0,2.5-0.6,3.5c-1.4,0-2.9,0-4.3,0c0,0.4,0.1,1.2,0.2,1.7
	c1.3,0.3,2.6,0.6,3.9,0.9c-1.6,0.1-3.2,0.1-4.8,0.2c0-1.1,0-2.1,0.1-3.2c1.5-0.2,3.2,0.3,4.5-0.8c0.2-0.3,0.6-1,0.8-1.3
	c-2.7-0.7-5.4-0.4-8.1-0.4c0,4.6,0,9.2,0,13.8c2.4-0.2,5.2,0.8,7.4-0.6c0.2-0.3,0.6-1,0.8-1.3c-1.8-0.4-3.6-0.5-5.4-0.6
	c0-1.1,0.1-2.2,0.1-3.3c1.6,0.1,3.2,0.1,4.7,0.2c-1.4,0.2-2.7,0.5-4.1,0.7c0,0.4,0,1.3,0,1.7c1.6,0.2,3.3,0.4,4.9,0.5
	c-0.1,1.1-0.1,2.3-0.5,3.4c-2.8-0.1-5.7,0.3-8.4-0.5C121.9,28.9,122.9,24.1,122.6,19.4z"/>
<path fill="#FFFBFB" d="M133.5,23c0.2-3.6,4.7-4.1,7.4-3.5c0.3,0.8,0.5,1.6,0.8,2.3c-1.8,0-6-1.1-5.3,2c1.8,1.3,4.1,1.8,5.5,3.6
	c0.5,1.4,0.6,3.2-0.5,4.4c-1.7,2.2-5,2-7.4,1.3c-0.2-0.8-0.3-1.6-0.4-2.4c2.3,0.6,4.9,1.2,6.5-1.2C137.9,27.2,133,26.9,133.5,23z"/>
<path fill="#FEFEFE" d="M39,19.5c4.9-0.1,9.8,0,14.6,0c0,17.7,0.1,35.4,0,53.1c-4.9,0-9.8,0-14.6,0C39,54.8,39,37.2,39,19.5z"/>
<path fill="#FEFEFD" d="M58.5,19.4c4.8,0,9.6,0,14.4,0c0,4.9,0,9.7,0,14.6c-4.8-0.1-9.6-0.1-14.3,0C58.5,29.2,58.5,24.3,58.5,19.4z"
	/>
<g>
	<path fill="#FFFCFB" d="M109.9,19.6c2.7,0,5.6-0.2,8.1,0.9c4.3,2.2,4.3,9.4,0.1,11.7c-2.5,1.4-5.5,1-8.2,1.1
		C109.8,28.7,109.8,24.1,109.9,19.6z M112.5,21.5c-0.1,3.2,0,6.5,0,9.7c1.6-0.4,3.5-0.1,4.7-1.5c1.5-1.9,1.5-5-0.2-6.8
		C115.9,21.8,114,21.9,112.5,21.5z"/>
</g>
<path fill="#FFFDFB" d="M123.4,19.5c2.7,0,5.5-0.3,8.1,0.4c-0.2,0.3-0.6,1-0.8,1.3c-1.3,1-3,0.6-4.5,0.8c0,1.1,0,2.1-0.1,3.2
	c1.6-0.1,3.2-0.1,4.8-0.2c0,0.7,0,2,0.1,2.6c-1.6-0.1-3.2-0.1-4.7-0.2c0,1.1-0.1,2.2-0.1,3.3c1.8,0.1,3.6,0.2,5.4,0.6
	c-0.2,0.3-0.6,1-0.8,1.3c-2.2,1.4-5,0.5-7.4,0.6C123.4,28.7,123.4,24.1,123.4,19.5z"/>
<path fill="#FEFCFC" d="M144.4,19.8c0.9,0,2.9-0.9,2.7,0.7c0.4,4.3-0.2,8.5-0.1,12.8c-0.9-0.1-1.8-0.1-2.7-0.2
	C144.5,28.7,144.4,24.3,144.4,19.8z"/>
<path fill="#FEFDFC" d="M151.8,21.1c2.5-2,5.9-1.9,8.9-1.1c0,0.5,0,1.6,0.1,2.1c-2.2,0-4.8-0.9-6.6,0.6c-2,1.5-2,4.5-1,6.5
	c1,1.9,3.4,1.7,5.2,2.1c0-1.2,0.1-2.4,0.1-3.6c-0.7,0-2-0.1-2.7-0.1c0-0.5-0.1-1.5-0.1-2c1.8,0,3.7-0.1,5.5-0.1c0,2.5,0,4.9-0.2,7.4
	c-2.8,0.4-5.9,1.2-8.4-0.6C148.9,29.9,148.6,24,151.8,21.1z"/>
<path fill="#FBFEFE" d="M164,19.7c0.8-0.1,2.3-0.2,3.1-0.3c2.1,3.2,3.6,6.8,5.6,10.1c0-3.4-0.2-6.7,0.1-10.1c0.5,0.1,1.5,0.2,2,0.3
	c0.6,4.5,0.2,9,0.2,13.5c-1.1,0-2.3,0-3.4,0c-1.7-3.2-3.1-6.6-5.1-9.7c-0.2,3.3,0,6.6-0.1,9.9c-0.6-0.1-1.8-0.3-2.3-0.4
	C163.8,28.6,163.9,24.1,164,19.7z"/>
<path fill="#EE111C" d="M112.5,21.5c1.5,0.4,3.3,0.3,4.6,1.4c1.7,1.8,1.7,4.9,0.2,6.8c-1.2,1.3-3.1,1.1-4.7,1.5
	C112.5,28,112.4,24.8,112.5,21.5z"/>
<path fill="#FEFEFE" d="M19.5,38.8c4.9,0.1,9.8-0.1,14.7,0.1c-0.1,11.2,0.1,22.5-0.1,33.7c-4.9,0-9.8-0.1-14.7,0
	C19.5,61.3,19.6,50,19.5,38.8z"/>
<path fill="#FEFEFE" d="M58.5,38.8c4.8,0,9.6,0.1,14.4,0c0,4.9,0,9.7,0,14.6c-4.8,0.1-9.6,0.1-14.4,0C58.5,48.5,58.5,43.6,58.5,38.8
	z"/>
<g>
	<path fill="#FFFDFE" d="M113.1,40.2c0.4-1.5,2.2-1,3.3-1.1c2.2,4.5,3.3,9.4,5.4,13.9c-1.1,0-2.1-0.1-3.2-0.2
		c-0.1-0.4-0.3-1.2-0.4-1.6c-0.1-0.4-0.3-1-0.4-1.4c-1.8-0.1-3.7-0.1-5.5-0.2c-0.5,1.2-0.9,2.4-1.4,3.6c-0.6-0.1-1.8-0.4-2.4-0.5
		C110.1,48.6,111.3,44.3,113.1,40.2z M113,47.7c1.3,0,2.6,0,3.8,0c-0.6-2-1.2-4-1.9-6C114.2,43.6,113.6,45.7,113,47.7z"/>
</g>
<path fill="#FFFBFC" d="M121.3,39.1c0.7,0.1,2.2,0.2,2.9,0.3c0.8,3.6,1.6,7.1,2.4,10.7c1-3.6,1.7-7.3,2.5-10.9
	c1.1,0.1,2.3,0.2,3.5,0.2c0.7,3.3,1.4,6.7,2.3,10c1.2-3.2,1.5-6.6,2.5-9.9c0.7-0.1,2-0.3,2.7-0.4c-1.1,4.7-2.3,9.3-3.6,14
	c-1.1,0-2.2,0-3.2,0c-1-3.5-1.7-7.1-2.6-10.6c-1.1,3.5-1.7,7.1-2.6,10.7c-1.1,0-2.3,0-3.4,0C123.8,48.3,122.4,43.7,121.3,39.1z"/>
<g>
	<path fill="#FEFDFD" d="M144.7,39.1c1.1,0.2,3-0.5,3.5,1c1.2,3,2.2,6,3.3,9.1c0.4,1.2,0.9,2.5,1.4,3.7c-0.9,0.1-1.8,0.1-2.7,0.2
		c-0.4-1-0.8-2-1.4-2.9c-1.8-0.5-3.6-0.2-5.4,0c-0.3,0.9-0.6,1.9-0.9,2.8c-0.9,0.1-1.8,0.1-2.8,0.2
		C141.1,48.3,143.1,43.8,144.7,39.1z M146.1,41.7c-0.7,2-1.3,4-1.8,6c1.2,0,2.5,0,3.7,0.1C147.5,45.7,146.9,43.6,146.1,41.7z"/>
</g>
<path fill="#D5212A" d="M153.7,50.5c0.3-3.7-0.8-7.9,1-11.3c0.3,4.6,0.1,9.3,0.2,14c-0.5-0.1-1.4-0.2-1.9-0.2
	c-0.5-1.2-0.9-2.4-1.4-3.7C152.2,49.6,153,50,153.7,50.5z"/>
<g>
	<path fill="#FEFDFC" d="M154.7,39.1c2.9,0.3,6.7-0.8,8.9,1.7c1.2,1.9,0.1,4.2-1.5,5.4c1.2,2.1,2.1,4.4,2.9,6.6c-1,0-2,0.1-2.9,0.1
		c-0.8-2.2-1.3-4.7-3.4-6.1c-0.3,0.2-0.9,0.6-1.2,0.9c0,1.8,0,3.6,0,5.3c-0.7,0-2,0-2.7,0C154.8,48.4,155,43.8,154.7,39.1z
		 M157.4,41.3c0,1.3,0,2.6,0.2,4c1.4,0.2,3.4-0.2,3.8-1.9C161.1,41.3,159,41.3,157.4,41.3z"/>
</g>
<g>
	<path fill="#FEFCFC" d="M167.1,53c0.3-4.6-0.5-9.3,0.4-13.8c2.7-0.1,5.6-0.2,8.1,1c4.2,2.3,4.2,9.6-0.1,11.9
		C172.9,53.4,169.9,52.9,167.1,53z M169.9,41.6c-0.2,3,0,6.1-0.2,9.1c1.8,0.2,3.9,0,5.2-1.5c1.5-2,1.3-5.3-0.7-6.8
		C173,41.6,171.4,41.1,169.9,41.6z"/>
</g>
<path fill="#EB151C" d="M157.4,41.3c1.6,0.1,3.7,0.1,4,2.1c-0.3,1.6-2.3,2.1-3.8,1.9C157.5,43.9,157.4,42.6,157.4,41.3z"/>
<path fill="#EC141F" d="M169.9,41.6c1.5-0.4,3.1,0,4.4,0.7c2,1.5,2.2,4.8,0.7,6.8c-1.3,1.5-3.4,1.7-5.2,1.5
	C169.9,47.6,169.7,44.6,169.9,41.6z"/>
<path fill="#CE2329" d="M113,47.7c0.5-2,1.2-4,1.9-6c0.7,2,1.3,4,1.9,6C115.6,47.7,114.3,47.7,113,47.7z"/>
<path fill="#DA1326" d="M146.1,41.7c0.8,2,1.4,4,1.9,6c-1.2,0-2.5,0-3.7-0.1C144.8,45.6,145.4,43.6,146.1,41.7z"/>
<path fill="#CD3F44" d="M112.1,49.7c1.8,0,3.7,0,5.5,0.2c0.1,0.4,0.3,1,0.4,1.4c-1.4-0.3-2.8-0.9-4.3-0.8c-1.1,0.8-2.1,1.8-3.1,2.8
	C111.2,52.1,111.7,50.9,112.1,49.7z"/>
</svg>
