<?xml version="1.0" encoding="utf-8"?>
<!-- Generator: Adobe Illustrator 18.1.1, SVG Export Plug-In . SVG Version: 6.00 Build 0)  -->
<svg version="1.1" id="图层_1" xmlns="http://www.w3.org/2000/svg" xmlns:xlink="http://www.w3.org/1999/xlink" x="0px" y="0px"
	 viewBox="0 0 161.8 94.9" enable-background="new 0 0 161.8 94.9" xml:space="preserve">
<g>
	<path fill="#F3E19E" d="M0.1,0.4c5.8-0.5,11.7,0,17.5-0.4c-0.1,2.7-0.9,5.3-1,8c0.9,1.8,1.7,3.7,1.6,5.8c-0.9-0.1-1.8-0.3-2.8-0.4
		c0,0.5,0.1,1.6,0.1,2.1c1-0.2,2-0.4,3.1-0.6c-0.4,0.5-0.7,1.1-1.1,1.6c1.2,1.8,1.9,4,2.2,6.1c0.7-0.1,1.3-0.2,2-0.3
		c0.4,1,0.8,2,1.3,3c1.1,0.1,2.3,0.3,3.5,0.4c0.5,0.8,1.1,1.5,1.6,2.3c1.1-1.5,2.1-3,3.1-4.6c0.9,1.2,1.7,2.5,2.6,3.7
		c1-0.4,2.1-0.8,3.1-1.2c1.9,1.3,4.1,2.2,6.4,1.1c0.9,0,1.8-0.1,2.7-0.2c4.2-1.5,8.7-1.2,13.1-1.9c1.1,0.9,2.3,1.7,3.5,2.5
		c-0.1-0.8-0.3-1.7-0.4-2.5c1.5,0.1,3,0.2,4.6,0.3c0.3,0.6,0.6,1.1,0.9,1.7c2.2-0.3,4.4-0.2,6.5,0.3c0-0.1,0.1-0.3,0.2-0.4
		c1.5,0.4,3,0.9,4.5,1.3c-0.1-0.4-0.2-1.3-0.2-1.8c0.9,0,1.9,0.1,2.8,0.1c-0.4,0.4-1.3,1-1.7,1.4c3.2-0.3,6.3-0.3,9.5,0.2l0.1,0.8
		c-1.3,0-2.7,0-4,0.1c-0.3,3-0.6,6.1-1.1,9.1c-0.3-1.4-0.4-2.8-0.5-4.2c0.2-1.8,0.4-3.6,0.7-5.5c-4.5-0.1-9.1,0-13.6,0l0.1,0.5
		c0.1,0.7,0.2,2.1,0.3,2.8c0.5,0,1.6,0,2.2,0c-0.1,3.9,0,7.8,0,11.7c1,0.2,2,0.5,3.1,0.8c0.1,0.5,0.4,1.5,0.5,2
		c-2.4,0-4.8,0-7.2-0.1c-0.3,2-0.5,4-0.7,5.9c-0.9-0.4-1.8-0.8-2.7-1.2c0.3-1.6,0.5-3.1,0.8-4.7c-1.7,0-3.3,0-5,0
		c-0.6,4.3-0.9,8.7-1.5,13c-0.6-4.3-0.5-8.7-1.2-13c-1.7,0-3.5,0-5.2,0c-0.6,4.3-0.8,8.6-1.4,12.9c-0.7-4.3-0.8-8.6-1.1-13
		c-1.6,0-3.3,0-4.9,0c0.8,6.5,1.2,13,2.2,19.4c2.1,0,4.3,0,6.4-0.1c0,0.2-0.1,0.6-0.1,0.8c-2.9,0.2-5.8,1-8.7,0.7
		c-1.3-0.4-2.4,0.4-3.4,1.2c-0.4,0.1-0.9,0.3-1.3,0.4c0.5-0.4,1.5-1.2,2-1.6c-0.5,0-1.4-0.1-1.9-0.2c0-0.3,0.1-0.9,0.1-1.2
		c1.6,0,3.2,0,4.8,0c-1.3-6.4-2.1-12.9-3.1-19.4c-3.7,0.2-7.4-0.2-11.1-1c0.4,1.6,2.6,0.9,3.8,1.2c-0.2,1.6-0.5,3.2-0.7,4.8
		c-0.3-0.2-0.9-0.6-1.1-0.8c1.7,1.9,0.4,4.5,0.4,6.7c-1.7,0.3-3.4,0.7-5,1.3c-0.2,0.1-0.6,0.4-0.7,0.5c1.8-0.4,3.7-0.7,5.5-1.1
		c-0.4,2.2-0.8,4.4-0.9,6.6c-2-0.1-4.1-0.2-6.1-0.2c2-0.3,4.5-0.1,5.6-2.1c-5.5,0.1-11,0.7-16.5,0.7c-2.6-1.7,1.4-2.3,2.6-3.2
		c-2.6-0.6-5.3-0.5-7.9,0.3c-2.5-0.7-5.1-0.6-7.6-0.1c-0.9,0.9-1.8,1.8-2.7,2.8c-0.2,0.3-0.6,0.8-0.8,1C0.1,42.7,0.3,21.5,0.1,0.4z
		 M33.1,32.8c0,3-0.5,6.1,0.5,8.9c1,2.3,3.8,2.5,5.7,1.2c0.8,0.4,1.7,0.5,2.6,0.5c0.1-2.5,0-5.1,0-7.6c-1.5,0-2.9,0.1-4.4,0.1
		c0.3,1.9,2.1,4.8-0.5,5.9c-0.3-3.4-0.4-6.8-0.1-10.1c0.3-0.2,0.8-0.7,1-0.9c0.2,1.2,0.3,2.4,0.5,3.5c1.2,0,2.4,0,3.6,0
		c-0.1-1.1-0.2-2.2-0.4-3.3C39.9,27.3,32.7,28.3,33.1,32.8z M43.8,29c-0.1,4.9-0.1,9.7-0.1,14.6c1.2,0,2.5,0,3.8,0
		c0-2.3,0-4.6,0-6.9c2.5,1.3,1.1,4.7,1.5,6.9c1,0,2.1-0.1,3.1-0.2c0.2-2,0.1-4,0.2-5.9c-0.4-0.3-1.2-0.9-1.5-1.2
		c2-1.7,2.4-5.7-0.3-6.9C48.2,28.8,46,29.1,43.8,29z M54,29.2c-0.1,4.8,0,9.6-0.2,14.4c2.2,0,4.5,0,6.7,0c0-0.7-0.1-2.2-0.1-2.9
		c-0.7,0-2,0.1-2.6,0.1c0-1.1,0-2.2,0-3.3c0.6,0,1.7,0,2.2,0c0.1-0.6,0.4-1.9,0.5-2.6c-1-0.1-2-0.3-3-0.4c0.1-1,0.3-2,0.5-2.9
		c0.6,0,1.8,0.2,2.4,0.2c0-0.7-0.2-2.2-0.2-2.9C58.1,29,56,29.1,54,29.2z M63,29c-0.7,4.9-1.6,9.7-1.8,14.6c0.9,0,2.7,0,3.6,0
		c0-0.6,0-1.9,0-2.5c0.4,0,1.3-0.1,1.7-0.2c0.1,0.6,0.2,1.9,0.3,2.5c1.3,0,2.5,0.1,3.8,0.1c-0.5-4.9-1.7-9.7-2.1-14.7
		C66.7,29,64.9,29,63,29z M9.9,38.1c0.7,0.2,2,0.5,2.6,0.7c0.5,1.6-0.8,4.6,1.7,4.9c0.1-1.6,0.2-3.2,0.2-4.8c0.8-0.3,2.3-1,3.1-1.3
		c0,1.9,0,3.8,0,5.7c0.4,0.1,1.2,0.2,1.6,0.3c0-0.7,0.1-2,0.2-2.6c0.5,0,1.6,0.1,2.1,0.1c0.2,1.2,0.4,2.5,1.8,2.7
		c0.2-2.1,0.4-4.3,0.3-6.4c-1.6-0.4-2.3,0.3-2,2.2c-0.5,0-1.6,0-2.2,0c-0.1-0.6-0.2-1.7-0.2-2.3C16.2,37.9,12.6,36.2,9.9,38.1z
		 M25.2,37.1c-0.1,2.1-0.2,4.1-0.1,6.2c1.8,0,3.6,0,5.5-0.1c-0.2-0.2-0.6-0.7-0.8-0.9c-1.3-0.2-2.6-0.3-3.6-1.3
		c1.3-0.1,2.7-0.3,4-0.5c-1-1.1-2.6-1.1-3.9-1.6c1.6-0.4,3.2-0.7,4.7-1.4C29.1,37.2,27.1,37.2,25.2,37.1z M11.8,46
		c-0.4,1.2,2.5,1.8,2.7,0.6C14.1,45.6,12.6,45.3,11.8,46z M11.3,49.4c0.1,0.7,0.3,1.4,0.5,2.1c-0.6-0.1-1.3-0.3-1.9-0.4
		c-0.3,0.3-0.9,0.8-1.2,1c-0.8,0.3-1.6,0.6-2.4,0.9c1.3-0.1,2.6-0.2,3.8-0.3c0.9,1,2.2,0.9,3.4,0.7c-0.1-1.3-0.1-2.7-0.1-4
		C12.7,49.5,12,49.5,11.3,49.4z M26,52.1c-0.4,1.3,2.6,2.1,2.8,0.7C28.2,51.9,26.8,51.5,26,52.1z M32.1,51.9c-0.7,1,0.3,2.4,1.4,2.6
		C35.1,53.9,33.6,50.7,32.1,51.9z M18.3,53.3c0.7,0.8,1.3,1.7,2,2.5c0.6,0,1.8-0.1,2.4-0.2c0.8-0.8,1.7-1.7,2.5-2.5
		c-1.6-0.7-2.5,0.4-2.9,1.8c-0.3,0-0.9-0.1-1.2-0.2c0.2-0.7,0.4-1.3,0.6-2C20.6,52.9,19.4,53.1,18.3,53.3z M15.5,58
		c2,0.1,4.3,0.2,5.8-1.5C19.3,56.4,17,56.2,15.5,58z M22.3,56.6c0.2,1.1,0.7,1.3,1.7,0.5C23.8,56,23.2,55.9,22.3,56.6z M24.7,59.6
		c1,0.7,3,0.5,3.7-0.7C27.8,57.6,24.8,58.3,24.7,59.6z M21.1,59c-2.2,1.1,1,2.5,1.9,1C23.9,58.9,21.8,58.5,21.1,59z"/>
</g>
<path fill="#F0D387" d="M17.6,0c5.3,0,10.6-0.1,15.9,0.1c1.2,1.7,2.6,3.3,3.5,5.2C37,6.7,36.5,8,36.2,9.4c0.5,0.7,0.9,1.4,1.4,2.1
	c-0.9-0.1-1.8-0.3-2.7-0.4c1.6,1.5,3.3,3,5.1,4.4c0.2,0.6,0.4,1.1,0.6,1.7c0.5-0.4,1-0.9,1.6-1.3c0.5,0.2,1.4,0.7,1.8,0.9
	c0.2-0.3,0.5-1,0.7-1.4c1.8,1.1,3.6,2.1,5.4,3c-0.1-0.4-0.3-1.3-0.4-1.8c2.2-0.3,4.5-0.6,6.7-0.9c-0.3,1.2-0.6,2.5-0.9,3.7
	c0.3-0.1,0.9-0.2,1.2-0.3c0,0.6,0.1,1.7,0.2,2.2c4-0.8,8.2-1,12.3-1c-0.5,0.3-1.4,0.9-1.9,1.2c0.4,0.3,1.3,1,1.7,1.4
	c-1.4-0.1-2.7-0.2-4.1-0.3c-1.3,0.4-2.6,0.7-3.9,1c0.2-0.8,0.4-1.7,0.5-2.5c-1.1,0.6-2.2,1.3-3.3,1.9c-4.1,1.5-8.5-1.5-12.4,0.5
	c0.4,0.4,1.2,1.2,1.6,1.6C47,25.8,46.5,26.4,46,27c-0.9,0.1-1.8,0.1-2.7,0.2c-2.3,1.1-4.5,0.2-6.4-1.1c-1,0.4-2.1,0.8-3.1,1.2
	c-0.9-1.2-1.8-2.5-2.6-3.7c-1,1.5-2,3.1-3.1,4.6c-0.5-0.8-1.1-1.5-1.6-2.3c-1.2-0.1-2.3-0.3-3.5-0.4c-0.4-1-0.9-2-1.3-3
	c-0.7,0.1-1.4,0.2-2,0.3c-0.4-2.2-1-4.3-2.2-6.1c0.4-0.5,0.7-1.1,1.1-1.6c-1,0.2-2.1,0.4-3.1,0.6c0-0.5-0.1-1.6-0.1-2.1
	c0.9,0.1,1.8,0.3,2.8,0.4c0.1-2.1-0.7-4-1.6-5.8C16.7,5.4,17.5,2.7,17.6,0z"/>
<path fill="#E6BB63" d="M33.5,0.1c22.2-0.1,44.3,0,66.5,0c3.1,0,6.3-0.3,9.5,0.3c1,0.2,2,0.5,3.1,0.8c0.2,0.2,0.7,0.7,1,0.9
	c1.1,0.2,2.3,0.5,3.4,0.7c-0.1,1.4-0.2,2.7-0.3,4.1c-0.5-1-1-2-1.5-3c-1.9,1.4-3.7,2.9-5.8,3.8c-1.7,0.4-3.4,0.2-5.1,0.2
	c0,0.4-0.1,1.1-0.2,1.4c1.3,0.3,2.7,0.6,4,0.9c-0.9,1.1-1.7,2.2-2.6,3.3c-2-0.5-4-0.9-6-1.2c-2.2,1-4.5,1.7-6.8,1.9
	c1.6-1.3,3.2-2.5,4.9-3.8c-1-0.4-2-0.9-3-1.3c0,0.7,0.1,1.4,0.1,2.1c-1.9,0.9-3.7,1.8-5.6,2.8c0-0.4,0-1.2,0-1.7
	c-0.5,0.3-1,0.7-1.5,1c-1.7-1.1-3.5-0.4-5.1,0.6c0-0.4,0.1-1.1,0.2-1.5c-0.6,0-1.8,0.1-2.4,0.1c0.5,1.8,0.9,3.7,1.4,5.5
	c-0.4,0.1-1,0.4-1.4,0.6c-0.7-0.3-1.3-0.6-2-1c-0.4,0.8-0.7,1.6-1.1,2.4c-0.5-0.8-0.9-1.6-1.3-2.4c1-0.7,2.2-1.1,3.3-1.5
	c0.4-2.1,0.8-4.1,0.5-6.2c-1.1,0.9-2.9,1.8-1.5,3.3c-0.7,0.9-1.3,1.8-1.9,2.6c-0.2-1.1-0.4-2.2-0.6-3.3c-0.4,0-1.2,0-1.6,0
	c0.1,0.8,0.2,1.5,0.4,2.3c-0.9-0.6-1.9-1.3-2.8-1.9c0.3-0.3,0.9-0.8,1.2-1c-1.7,0.1-3.4,0.2-5.1,0.3c-0.5,0.5-1,1.1-1.5,1.6
	c-0.5-0.5-0.9-1-1.4-1.4c-0.7,1.1-1.3,2.2-1.9,3.3c-0.3-1.1-0.6-2.1-0.8-3.2c-0.2,1-0.5,2.1-0.7,3.1c-1.3-0.7-2.5-1.5-3.7-2.2
	c-0.4,0.8-0.9,1.6-1.3,2.5c-2.2,0.3-4.5,0.6-6.7,0.9c0.1,0.4,0.3,1.3,0.4,1.8c-1.8-1-3.7-2-5.4-3c-0.2,0.3-0.5,1-0.7,1.4
	c-0.5-0.2-1.4-0.7-1.8-0.9c-0.5,0.4-1.1,0.9-1.6,1.3c-0.2-0.6-0.4-1.1-0.6-1.7c-1.8-1.4-3.4-2.9-5.1-4.4c0.9,0.1,1.8,0.3,2.7,0.4
	c-0.5-0.7-1-1.4-1.4-2.1C36.5,8,37,6.7,37,5.3C36.1,3.4,34.7,1.8,33.5,0.1z"/>
<path fill="#D8AB50" d="M109.5,0.4c11.5-0.7,23.1-0.1,34.6-0.3c5.7,0,11.4-0.1,17.1,0.1c0,6.1,0.3,12.2-0.5,18.2
	c-1.4-0.3-2.9-0.6-4.3-1c0.5,0.5,0.9,1,1.4,1.5c-3.4,0.6-7.2,0.2-10.3,2.1c-0.4-0.3-0.8-0.6-1.2-1c-0.5,0.2-1.5,0.5-2,0.7
	c-0.1-0.3-0.2-0.8-0.3-1.1c-1-0.4-2-0.7-3-1.1c0-2.2-0.1-4.5-0.1-6.7c-1.1,0.3-2.1,0.7-3.1,1c-1.3-0.9-2.8-1.1-4,0.2
	c-1-0.5-2-1-3-1.5c-0.3-0.2-1-0.5-1.3-0.7c1-0.7,2-1.4,3-2.1c-0.4-0.6-0.7-1.2-1.1-1.8c0.9-0.6,1.8-1.2,2.7-1.7c0,1,0.1,2,0.1,3
	c0.7-0.3,1.4-0.5,2.1-0.8c-0.5-1.8-0.9-3.6-1.3-5.3c1.3,0.7,2.5,1.4,3.8,2c-0.9-1.3-1.7-3.1-3.6-3c-7.5-0.2-15,0.3-22.5-0.1
	C111.5,0.9,110.5,0.6,109.5,0.4z"/>
<path fill="#C1933F" d="M161.2,0.2l0.5,0.3c-0.1,19.4,0.4,38.8-0.1,58.3c-0.5-2.3-0.6-4.7-0.6-7.1c-1.5,0.2-3.1,0.4-4.5-0.2
	c-0.6,0.4-1.1,0.8-1.7,1.2c0.1-0.5,0.2-1.4,0.3-1.8c-2,0.5-4,1-5.9,1.4c0.1-0.7,0.2-1.3,0.2-2c-0.5-0.9-1-1.8-1.5-2.7
	c0.5,0.2,1.5,0.5,2,0.6c-1.3-1.4-2.5-2.8-3.7-4.3c0.8-0.9,1.6-1.8,2.4-2.7c-0.3-2.4-0.5-4.8-0.7-7.2c-0.4,0-1.1,0-1.5,0
	c0.9-0.9,1.7-1.8,2.6-2.7c-0.4-0.1-1.2-0.2-1.6-0.3c0.4-0.7,0.7-1.4,1.1-2c0.3,0.4,1,1.1,1.4,1.4c0.1-1.2,0.2-2.5,0.3-3.7
	c1.5-0.3,3.2-0.4,4.3-1.6c-0.9-0.1-1.7-0.2-2.5-0.3c-2.1-0.8-4.1,0.3-6.1,1c-0.6-1.6-1.2-3.3-1.6-5c0.5-0.2,1.5-0.5,2-0.7
	c0.4,0.3,0.8,0.6,1.2,1c3.1-1.9,6.8-1.6,10.3-2.1c-0.5-0.5-0.9-1-1.4-1.5c1.4,0.3,2.8,0.6,4.3,1C161.5,12.3,161.2,6.2,161.2,0.2z"/>
<path fill="#E1B45B" d="M112.6,1.1c7.5,0.4,15-0.1,22.5,0.1c1.9-0.2,2.7,1.7,3.6,3c-1.3-0.7-2.6-1.4-3.8-2c0.4,1.8,0.9,3.6,1.3,5.3
	c-0.7,0.3-1.4,0.5-2.1,0.8c0-1-0.1-2-0.1-3c-0.9,0.6-1.8,1.2-2.7,1.7c0.4,0.6,0.7,1.2,1.1,1.8c-1,0.7-2,1.4-3,2.1
	c0.3,0.2,1,0.5,1.3,0.7c0,1,0,2.1,0,3.1c1.8,0.3,3.7,0.6,5.5,1.1c-1.9,0.1-3.8,0.1-5.7,0.1c0,1-0.1,2.1-0.1,3.1
	c-1.4,0.3-2.8,0.5-4.2,0.8c0.9,3.4,0.2,6.7-1.3,9.8c-0.6-1.1-1.1-2.3-1.6-3.4c-1.1-0.1-2.2-0.2-3.2-0.4c0.9-1.2,1.8-2.4,2.8-3.6
	c-0.8-0.1-1.7-0.3-2.5-0.4c0.7-1.4,1.4-2.7,2-4.1c0.6,0.1,1.2,0.2,1.7,0.3c-0.5-2.5-1.2-5-3.4-6.5c0,1.1,0,2.1,0.1,3.2
	c-1.7-1.1-2.8-2.7-3.6-4.5c-2.8-1-5.9-1.5-8.5,0.3c0.9,0.3,1.9,0.6,2.8,0.8c0.2,1.1,0.4,2.3,0.7,3.4c-0.8,0.3-1.6,0.6-2.4,0.9
	c-0.4-1.9-0.9-3.7-1.7-5.5c-1.3-0.4-2.7-0.6-4-0.9c0-0.4,0.1-1.1,0.2-1.4c1.7,0,3.4,0.2,5.1-0.2c2.2-0.9,3.9-2.4,5.8-3.8
	c0.5,1,1,2,1.5,3c0.1-1.4,0.2-2.7,0.3-4.1c-1.2-0.2-2.3-0.5-3.4-0.7C113.3,1.8,112.8,1.4,112.6,1.1z"/>
<g>
	<path fill="#E9C06A" d="M94.5,9.1c1,0.4,2,0.9,3,1.3c-1.6,1.2-3.3,2.5-4.9,3.8c2.4-0.3,4.7-0.9,6.8-1.9c2,0.3,4,0.7,6,1.2
		c0.8-1.1,1.7-2.2,2.6-3.3c0.8,1.7,1.3,3.6,1.7,5.5c0.8-0.3,1.6-0.6,2.4-0.9c-0.2-1.1-0.5-2.3-0.7-3.4c-0.9-0.3-1.9-0.6-2.8-0.8
		c2.6-1.8,5.7-1.3,8.5-0.3c0.8,1.8,1.9,3.4,3.6,4.5c0-1.1,0-2.1-0.1-3.2c2.2,1.5,2.9,4.1,3.4,6.5c-0.6-0.1-1.2-0.2-1.7-0.3
		c-0.7,1.4-1.4,2.7-2,4.1c0.8,0.1,1.7,0.3,2.5,0.4c-0.9,1.2-1.8,2.4-2.8,3.6c1.1,0.1,2.1,0.2,3.2,0.4c0.5,1.1,1.1,2.2,1.6,3.4
		c1.1,2.8,1.3,5.7-0.3,8.4c-1.1,0.1-2.2,0.2-3.4,0.2c-0.9,0.7-1.8,1.5-2.7,2.2c-0.6,0.2-1.7,0.5-2.3,0.6c-0.1-4,0-7.9,0-11.9
		c-1.2,0-2.4-0.1-3.6-0.1c0,4.9,0,9.7,0,14.6c2,0,3.9,0,5.9,0.1c-0.6,0.8-1.2,1.7-1.8,2.5c-2.4-0.1-4.9-0.5-7.1,0.4
		c-2.5,1.4-2.4,4.7-1.7,7.1c1.2,2.7,4.4,3.6,6.2,5.8c0.9,1.4-0.4,2.8-1,4.1c-0.4-1.5-0.8-3.1-1.1-4.7c-1.6,0-3.2-0.1-4.8-0.1
		c0.3,2,0.8,3.9,1.4,5.9c-1-0.3-2-0.5-3.1-0.7c0.5-4.7,0.4-9.4,0.1-14c0-1.5-0.9-2.9-2.4-3.3c-3-0.6-6.1-0.3-9.1-0.4
		c0,6.3,0,12.7-0.1,19c3.4-0.2,7.1,0.6,10.4-0.7c1,0.5,2,1,3,1.4c-5.1,1.3-10.5,0.1-15.6,1.5c-3.4,0.9-7,0.8-10.5,0.6
		c0.5-0.7,1.1-1.4,1.6-2c-2.1,0.4-4.2,1-6.3,1c-1.8-0.5-3.4-1.7-5-2.6c0.2-1,0.4-2,0.7-3c2,0.3,2.1,2.3,2.4,4c1.6,0,3.2,0,4.8,0
		c-1.1-6.4-1.9-12.8-3-19.2c-0.1-0.5-0.4-1.5-0.5-2c-1-0.3-2.1-0.5-3.1-0.8c1.3-0.1,2.5-0.1,3.8-0.2c-0.1-3.7-0.1-7.3-0.1-11
		c1.8-0.3,2.5-1.7,2.7-3.3c-3-0.1-6-0.1-8.9-0.1l-0.1-0.5c4.5,0,9.1-0.1,13.6,0c-0.3,1.8-0.5,3.6-0.7,5.5c-0.1-1.7-0.3-3.3-0.4-5
		c-1.1,0-2.3,0.1-3.4,0.1c0.4,4.7,1,9.4,1.3,14.2c1.6,0.1,3.2,0.2,4.8,0.2c0.4-2.4,0.8-4.8,1.5-7.1c0.4,2.3,0.7,4.6,1,6.9
		c1.6,0,3.2,0,4.8,0c0.3-4.9,1.8-9.7,1.2-14.6c0.1-1.2-2.2-1.4-2.3-0.2c-1.6,3.2-1.3,6.8-2,10.2c-0.4-3.3-0.6-6.5-0.9-9.8L89,28.2
		c-3.1-0.5-6.3-0.5-9.5-0.2c0.4-0.4,1.3-1,1.7-1.4c-0.9,0-1.9-0.1-2.8-0.1c0.1,0.4,0.2,1.3,0.2,1.8c-1.5-0.4-3-0.9-4.5-1.3
		c0,0.1-0.1,0.3-0.2,0.4c-2.1-0.5-4.3-0.6-6.5-0.3c-0.3-0.6-0.6-1.1-0.9-1.7c-1.5-0.1-3-0.2-4.6-0.3c0.1,0.8,0.3,1.7,0.4,2.5
		c-1.2-0.8-2.4-1.6-3.5-2.5c-0.2-0.5-0.5-1.5-0.6-2c1.1-0.6,2.2-1.2,3.3-1.9c-0.2,0.8-0.4,1.7-0.5,2.5c1.3-0.3,2.6-0.7,3.9-1
		c1.4,0.1,2.7,0.2,4.1,0.3c-0.4-0.3-1.3-1-1.7-1.4c0.5-0.3,1.4-0.9,1.9-1.2c-4.1-0.1-8.2,0.2-12.3,1c0-0.6-0.1-1.7-0.2-2.2
		c-0.3,0.1-0.9,0.2-1.2,0.3c0.3-1.2,0.6-2.5,0.9-3.7c0.4-0.8,0.8-1.6,1.3-2.5c1.2,0.7,2.5,1.5,3.7,2.2c0.2-1,0.4-2.1,0.7-3.1
		c0.3,1.1,0.6,2.1,0.8,3.2c0.6-1.1,1.3-2.2,1.9-3.3c0.5,0.5,0.9,1,1.4,1.4c0.5-0.5,1-1.1,1.5-1.6c1.7-0.1,3.4-0.2,5.1-0.3
		c-0.3,0.3-0.9,0.8-1.2,1c0.9,0.6,1.9,1.3,2.8,1.9c-0.1-0.8-0.2-1.5-0.4-2.3c0.4,0,1.2,0,1.6,0c0.2,1.1,0.4,2.2,0.6,3.3
		c0.6-0.9,1.3-1.8,1.9-2.6c-1.4-1.6,0.3-2.5,1.5-3.3c0.2,2.1-0.1,4.2-0.5,6.2c-1.1,0.5-2.4,0.8-3.3,1.5c0.4,0.8,0.8,1.6,1.3,2.4
		c0.3-0.8,0.7-1.6,1.1-2.4c0.7,0.3,1.3,0.6,2,1c0.4-0.1,1-0.4,1.4-0.6c-0.5-1.8-1-3.7-1.4-5.5c0.6,0,1.8-0.1,2.4-0.1
		c0,0.4-0.1,1.1-0.2,1.5c1.6-1,3.4-1.7,5.1-0.6c0.5-0.3,1-0.7,1.5-1c0,0.4,0,1.2,0,1.7c1.9-0.9,3.7-1.9,5.6-2.8
		C94.6,10.5,94.6,9.8,94.5,9.1z M97,29c-0.8,4.8-1.5,9.7-2.1,14.6c1.2-0.1,2.5-0.1,3.7-0.2c0-0.6,0.1-1.8,0.2-2.4
		c0.5,0,1.5-0.2,2-0.2c0.1,0.6,0.2,1.9,0.3,2.5c1.2,0,2.4,0.1,3.6,0.1c-0.6-4.8-1.4-9.7-2.2-14.5C100.5,29.1,98.8,29,97,29z
		 M105.6,29c-0.1,4.8-0.1,9.7,0,14.5c2,0,3.9,0,5.9,0c0-0.7,0.1-2.1,0.1-2.8c-0.6,0-1.8,0.1-2.4,0.1c0-3.9,0-7.8,0-11.8
		C108,29,106.8,29,105.6,29z M80.6,46.4c0.1,6.3,0,12.7,0.1,19c1.7,0,3.3,0.1,5,0.1c0-3.1-0.2-6.1,0-9.2c2.7,2.1,1,6.1,1.5,9
		c1.6,0,3.2,0,4.8,0c-0.4-3.3,1.1-7.9-2.3-10c3.2-1.3,2.7-5.8,0.8-8C87.5,45.8,83.9,46.6,80.6,46.4z"/>
</g>
<path fill="#020101" d="M130.7,11.6c1,0.5,2,1,3,1.5c1.2-1.3,2.6-1.1,4-0.2c1-0.3,2.1-0.7,3.1-1c0,2.2,0.1,4.5,0.1,6.7
	c1,0.3,2,0.7,3,1.1c0.1,0.3,0.2,0.8,0.3,1.1c0.4,1.7,0.9,3.4,1.6,5c1,2.6,0.3,5.3-0.3,7.9c-0.7,2.6-0.8,5.3-1.3,8
	c-1-4,0.3-8.1,0.6-12.1c-0.4-2.5-1.6-4.9-2.6-7.2c-0.6-1.5-2.5-1.4-3.7-2l-0.5-0.2c-0.9-1-1.7-2.1-2.5-3.1c-0.6,1-1.1,2-1.7,3
	c-1.6,0.4-3.2,0.8-4.8,1.3c-0.1,4.3-3.8,7.6-3.1,12c0,2.7-0.2,5.4,0,8.1c0.7-0.1,2.2-0.2,2.9-0.2c-0.7,0.1-2,0.4-2.6,0.6
	c0.8,1,1.9,1.6,3.3,1.7c2.6,2.3,6,4.1,7.5,7.3c0.8,3.7-2.8,6-4.8,8.5c-1.9,2-2.2,4.8-2.6,7.4c-0.3-1.7-0.5-3.5-0.5-5.2
	c0.9-3.4,3.3-6,4.6-9.1c1.1-3.2-1.7-6-4.1-7.6c-0.7-0.8-2.3,0.7-0.7,1.5c0.6,1.8,1.1,3.7,1.4,5.6c-0.2-0.6-0.7-1.8-1-2.4
	c-0.3,0.5-0.7,1-1,1.5c0.7,2.9,0.8,5.9,0,8.8c-0.8,2.7-0.6,5.5,0.7,8c-2.3-0.2-4.6-0.3-6.8-0.2c0.9-3.3,2.4-6.4,4-9.4
	c1.9-3.3,1.4-7.2,0.2-10.7c0.2,0.4,0.6,1.2,0.8,1.6c0.5,0.1,1.5,0.2,2,0.3c-2.5-3.3-5.9-6.9-4.6-11.4c1.6-2.6,1.4-5.6,0.3-8.4
	c1.5-3.1,2.2-6.4,1.3-9.8c1.4-0.3,2.8-0.5,4.2-0.8c0-1,0.1-2.1,0.1-3.1c1.9,0,3.8,0,5.7-0.1c-1.8-0.5-3.7-0.8-5.5-1.1
	C130.7,13.7,130.7,12.6,130.7,11.6z"/>
<g>
	<path fill="#DFB15A" d="M135.6,17.1c0.8,1,1.6,2.1,2.5,3.1l0.5,0.2c-0.6,1.5-1.1,3-1.8,4.4c0.1-1.3,0.2-2.6,0.3-3.9
		c-0.6,0-1.9,0.1-2.5,0.1c-0.5,2-0.6,4.3-2.2,5.9c-1.6,1.7-3.2,3.3-4.4,5.2c2-1.4,4.1-2.9,6.2-4.2c0,0.7,0.1,2.2,0.2,2.9
		c-0.7,0-1.4,0-2,0.1l-0.1,0.1c-2,2.1-4.6,4.3-4.4,7.5c1.6,4.1,6.4,5.3,10.2,6c-0.9,0.4-1.9,0.7-2.8,1c3.7,1.3,7.6,3.7,8.8,7.7
		c1.4,5.3-4.1,9.2-3.5,14.6c-3.7-0.2-7.3-0.9-10.9-0.5l-0.1-0.6c0.3-2.6,0.6-5.4,2.6-7.4c2-2.5,5.6-4.8,4.8-8.5
		c-1.5-3.2-5-5-7.5-7.3c-1.3-0.1-2.4-0.6-3.3-1.7c0.7-0.1,2-0.4,2.6-0.6c-0.7,0.1-2.2,0.2-2.9,0.2c-0.1-2.7,0-5.4,0-8.1
		c-0.7-4.4,3-7.7,3.1-12c1.6-0.5,3.2-1,4.8-1.3C134.4,19.1,135,18.1,135.6,17.1z M137.3,48.2c1.5,2.4,4.6,4.4,4,7.6
		c-0.2,4-4.7,7.2-2.6,11.4c0.7-3.7,2.7-6.8,4-10.2C144.2,53,140.5,49.8,137.3,48.2z M138.7,51.6c-0.2,1.4-0.5,2.7-1.2,3.9
		c-0.5,0.5-1,1-1.5,1.6c1.3,0,2.6,0,4-0.1c-0.6-0.5-1.1-1.1-1.6-1.6c0.4-0.3,1.1-0.8,1.4-1.1C139.4,53.4,139,52.5,138.7,51.6z
		 M133.9,59.3c1.8,0.4,4.4,1.1,5.6-0.9C137.6,58.5,135.7,58.8,133.9,59.3z M132.2,61.6c0.9,1,4.3,1.1,5-0.1
		C135.7,60.8,133.7,61,132.2,61.6z M130.7,64.3c1.8,0.9,3.9,0.6,5.8,0.7c0-0.2,0.1-0.7,0.1-0.9C134.7,64,132.7,64,130.7,64.3z"/>
</g>
<g>
	<path fill="#D8A74E" d="M138.6,20.4c1.3,0.5,3.1,0.4,3.7,2c1,2.3,2.2,4.7,2.6,7.2c-0.3,4-1.6,8.1-0.6,12.1c0.5-2.7,0.6-5.4,1.3-8
		c0.6-2.6,1.3-5.3,0.3-7.9c1.9-0.7,4-1.7,6.1-1c0.8,0.1,1.7,0.2,2.5,0.3c-1.2,1.2-2.8,1.4-4.3,1.6c-0.1,1.2-0.2,2.5-0.3,3.7
		c-0.3-0.4-1-1.1-1.4-1.4c-0.4,0.7-0.8,1.4-1.1,2c0.4,0.1,1.2,0.2,1.6,0.3c-0.9,0.9-1.8,1.8-2.6,2.7c0.4,0,1.2,0,1.5,0
		c0.2,2.4,0.4,4.8,0.7,7.2c-0.8,0.9-1.6,1.8-2.4,2.7c1.2,1.4,2.5,2.9,3.7,4.3c-0.5-0.2-1.5-0.5-2-0.6c0.5,0.9,1,1.8,1.5,2.7
		c-0.1,0.7-0.2,1.3-0.2,2c2-0.5,3.9-1,5.9-1.4c-0.1,0.4-0.2,1.4-0.3,1.8c0.5-0.4,1.1-0.8,1.7-1.2c1.4,0.6,3,0.4,4.5,0.2
		c0,2.4,0.1,4.7,0.6,7.1l0,0.1c-1.1,7.5-0.2,15.1-0.6,22.6c-3.4-0.6-6.8-1.3-10.2-1.1c-1.7-0.1-3.5-0.2-5.2-0.3
		c-1.4-0.9-2.9-1.7-4.2-2.7c-0.1-0.3-0.3-0.7-0.4-1c1.1-0.7,2.2-1.5,3.3-2.3c0.5,0.6,1.1,1.3,1.6,1.9c0.6-0.7,1.1-1.3,1.7-2
		c1,0.5,1.9,1,2.9,1.5c0.5,1.4,1.1,2.8,1.8,4.1c-0.1-3.5-0.6-7-1.2-10.5l-0.3-0.2c-0.3-0.2-1-0.7-1.3-1c-1.8-3.5-2.2-7.5-2.2-11.3
		c0.2-5-3.8-9.7-8.8-10.5c0-0.3,0-0.9-0.1-1.2c1.1,0.3,2.2,0.6,3.4,1c-3.2-2.1-6.8-3.4-10-5.4c-2.8-2.6-0.9-6.6,0.6-9.3l0.1-0.1
		c0.7,0,1.3,0,2-0.1c0-0.7-0.1-2.2-0.2-2.9c1-0.9,2-1.9,2.6-3.1C137.5,23.4,138,21.9,138.6,20.4z M138.4,25c0.7,2.5,2.5,4.2,4.8,5.3
		C142.3,28,140.2,26.6,138.4,25z M142.1,44.5c1.4,2.4,3.4,4.4,5.3,6.4c-0.5-3.2-2-6.1-3.6-8.8c-1.5-2.4-0.8-5.3-0.7-7.9
		C141.5,37.4,140.3,41.3,142.1,44.5z M144.3,75.4 M142.8,76.9c0.1,1.1,0.6,1.4,1.6,0.6C144.4,76.4,143.8,76.2,142.8,76.9z"/>
</g>
<path fill="#010100" d="M134.7,21c0.6,0,1.9-0.1,2.5-0.1c-0.1,1.3-0.2,2.6-0.3,3.9c-0.6,1.3-1.6,2.3-2.6,3.1
	c-2.1,1.3-4.1,2.8-6.2,4.2c1.2-1.9,2.9-3.5,4.4-5.2C134,25.4,134.1,23,134.7,21z"/>
<path fill="#E0B962" d="M46,23.6c3.9-2,8.3,1,12.4-0.5c0.2,0.5,0.5,1.5,0.6,2c-4.4,0.7-8.8,0.4-13.1,1.9c0.5-0.6,1.1-1.2,1.6-1.7
	C47.1,24.8,46.4,24,46,23.6z"/>
<path fill="#0B0606" d="M138.4,25c1.8,1.6,3.9,3,4.8,5.3C141,29.2,139.1,27.5,138.4,25z"/>
<path fill="#F7D99A" d="M91.9,28.6c0.2-1.2,2.5-1,2.3,0.2C93.7,28.8,92.5,28.7,91.9,28.6z"/>
<path fill="#020101" d="M33.1,32.8c-0.5-4.5,6.8-5.5,8.5-1.8c0.3,1.1,0.3,2.2,0.4,3.3c-1.2,0-2.4,0-3.6,0c-0.2-1.2-0.3-2.4-0.5-3.5
	c-0.3,0.2-0.8,0.7-1,0.9c-0.3,3.3-0.2,6.7,0.1,10.1c2.6-1,0.8-4,0.5-5.9c1.5,0,2.9,0,4.4-0.1c0,2.5,0.1,5.1,0,7.6
	c-0.9,0.1-1.8-0.1-2.6-0.5c-1.9,1.2-4.8,1.1-5.7-1.2C32.7,38.9,33.2,35.8,33.1,32.8z"/>
<g>
	<path fill="#010101" d="M43.8,29c2.2,0.1,4.5-0.2,6.6,0.4c2.7,1.2,2.3,5.2,0.3,6.9c0.4,0.3,1.2,0.9,1.5,1.2c0,2,0,4-0.2,5.9
		c-1,0.1-2.1,0.1-3.1,0.2c-0.4-2.3,1-5.6-1.5-6.9c-0.1,2.3,0,4.6,0,6.9c-1.3,0-2.5,0-3.8,0C43.6,38.7,43.7,33.9,43.8,29z M47.4,31.4
		c0.1,1.3,0.1,2.6,0.3,3.8c0.9-0.9,1.2-2.1,1.4-3.3C48.6,31.8,47.8,31.6,47.4,31.4z"/>
</g>
<path fill="#010101" d="M54,29.2c2.1-0.1,4.1-0.1,6.2-0.2c0,0.7,0.2,2.2,0.2,2.9c-0.6-0.1-1.8-0.2-2.4-0.2c-0.2,1-0.3,1.9-0.5,2.9
	c1,0.1,2,0.2,3,0.4c-0.1,0.6-0.4,1.9-0.5,2.6c-0.6,0-1.7,0-2.2,0c0,1.1,0,2.2,0,3.3c0.7,0,2-0.1,2.6-0.1c0,0.7,0.1,2.2,0.1,2.9
	c-2.2,0-4.5,0-6.7,0C54,38.8,53.9,34,54,29.2z"/>
<g>
	<path fill="#010101" d="M63,29c1.8,0,3.7,0,5.5,0c0.4,4.9,1.6,9.8,2.1,14.7c-1.3-0.1-2.6-0.1-3.8-0.1c-0.1-0.6-0.2-1.9-0.3-2.5
		c-0.4,0-1.3,0.1-1.7,0.2c0,0.6,0,1.9,0,2.5c-0.9,0-2.7,0-3.6,0C61.4,38.7,62.4,33.9,63,29z M65.5,32.4c-0.3,2-0.4,4-0.4,6.1
		c0.4,0,1.1,0,1.4,0C66.3,36.4,66.4,34.3,65.5,32.4z"/>
</g>
<path fill="#020101" d="M85.1,29.1c1.3,0,2.6,0,4-0.1c0.3,3.3,0.4,6.6,0.9,9.8c0.7-3.4,0.4-7,2-10.2c0.6,0,1.8,0.1,2.3,0.2
	c0.6,4.9-0.9,9.7-1.2,14.6c-1.6,0-3.2,0-4.8,0c-0.3-2.3-0.6-4.6-1-6.9c-0.7,2.3-1.2,4.7-1.5,7.1c-1.6-0.1-3.2-0.2-4.8-0.2
	c-0.3-4.7-0.9-9.4-1.3-14.2c1.1,0,2.3-0.1,3.4-0.1c0.1,1.7,0.2,3.3,0.4,5c0.1,1.4,0.2,2.8,0.5,4.2C84.5,35.2,84.8,32.1,85.1,29.1z"
	/>
<g>
	<path fill="#020101" d="M97,29c1.8,0,3.6,0,5.3,0c0.8,4.8,1.6,9.6,2.2,14.5c-1.2,0-2.4-0.1-3.6-0.1c-0.1-0.6-0.2-1.9-0.3-2.5
		c-0.5,0-1.5,0.2-2,0.2c0,0.6-0.1,1.8-0.2,2.4c-1.3,0.1-2.5,0.1-3.7,0.2C95.5,38.8,96.2,33.9,97,29z M98.9,38.4c0.4,0,1.2,0,1.6,0.1
		c-0.2-2-0.3-4.1-0.7-6.1C99.3,34.3,99.1,36.4,98.9,38.4z"/>
</g>
<path fill="#020100" d="M112.7,29c1.2,0,2.4,0.1,3.6,0.1c-0.1,4-0.1,7.9,0,11.9c0.6-0.1,1.7-0.4,2.3-0.6c0,1.1,0,2.2,0,3.3
	c-2,0-3.9-0.1-5.9-0.1C112.7,38.7,112.7,33.8,112.7,29z"/>
<path fill="#020000" d="M70.6,29c3,0,5.9,0,8.9,0.1c-0.3,1.6-1,3-2.7,3.3c0,3.7,0,7.3,0.1,11c-1.3,0.1-2.6,0.2-3.8,0.2
	c0-3.9,0-7.8,0-11.7c-0.5,0-1.6,0-2.2,0C70.8,31.1,70.7,29.7,70.6,29z"/>
<path fill="#020001" d="M105.6,29c1.2,0,2.4,0,3.5,0.1c0,3.9,0,7.8,0,11.8c0.6,0,1.8-0.1,2.4-0.1c0,0.7-0.1,2.1-0.1,2.8
	c-2,0-3.9,0-5.9,0C105.5,38.7,105.6,33.8,105.6,29z"/>
<path fill="#FEFFFD" d="M47.4,31.4c0.4,0.1,1.2,0.4,1.6,0.5c-0.1,1.2-0.5,2.4-1.4,3.3C47.5,34,47.5,32.7,47.4,31.4z"/>
<path fill="#010101" d="M127.9,38.4c-0.2-3.2,2.4-5.4,4.4-7.5c-1.5,2.8-3.3,6.7-0.6,9.3c3.2,2.1,6.9,3.3,10,5.4
	c-1.1-0.3-2.3-0.6-3.4-1c0,0.3,0,0.9,0.1,1.2c5,0.8,9,5.4,8.8,10.5c0,3.9,0.4,7.8,2.2,11.3c-2.9-0.4-5.9-0.2-8.8,0
	c-0.6-5.3,4.9-9.2,3.5-14.6c-1.2-4-5.1-6.3-8.8-7.7c0.9-0.3,1.9-0.7,2.8-1C134.3,43.7,129.5,42.5,127.9,38.4z"/>
<path fill="#F3E19E" d="M65.5,32.4c0.8,1.9,0.8,4,1,6.1c-0.4,0-1.1,0-1.4,0C65.2,36.5,65.2,34.4,65.5,32.4z"/>
<path fill="#F0D387" d="M98.9,38.4c0.2-2,0.4-4.1,1-6c0.4,2,0.5,4.1,0.7,6.1C100.1,38.5,99.3,38.4,98.9,38.4z"/>
<path fill="#060203" d="M142.1,44.5c-1.8-3.2-0.6-7.1,0.9-10.2c0,2.6-0.8,5.5,0.7,7.9c1.6,2.7,3.1,5.6,3.6,8.8
	C145.5,48.9,143.5,46.9,142.1,44.5z"/>
<path fill="#040200" d="M9.9,38.1c2.6-1.9,6.2-0.2,9.3-0.9c0.1,0.6,0.2,1.7,0.2,2.3c0.5,0,1.6,0,2.2,0c-0.3-1.9,0.4-2.6,2-2.2
	c0,2.1-0.1,4.3-0.3,6.4c-1.4-0.2-1.7-1.5-1.8-2.7c-0.5,0-1.6-0.1-2.1-0.1c0,0.7-0.1,2-0.2,2.6c-0.4-0.1-1.2-0.2-1.6-0.3
	c0-1.9,0-3.8,0-5.7c-0.8,0.3-2.3,1-3.1,1.3c-0.1,1.6-0.1,3.2-0.2,4.8c-2.5-0.3-1.1-3.3-1.7-4.9C11.9,38.6,10.6,38.2,9.9,38.1z"/>
<path fill="#080403" d="M25.2,37.1c1.9,0,3.8,0.1,5.7,0.5c-1.5,0.7-3.1,1-4.7,1.4c1.3,0.4,2.9,0.5,3.9,1.6c-1.3,0.2-2.7,0.3-4,0.5
	c0.9,1,2.3,1.1,3.6,1.3c0.2,0.2,0.6,0.7,0.8,0.9c-1.8,0.1-3.6,0.1-5.5,0.1C25.1,41.3,25.1,39.2,25.2,37.1z"/>
<path fill="#E0B158" d="M121.2,38.2c1.1-0.1,2.2-0.1,3.4-0.2c-1.2,4.6,2.1,8.1,4.6,11.4c-0.5-0.1-1.5-0.2-2-0.3
	c-0.2-0.4-0.6-1.2-0.8-1.6c1.2,3.4,1.7,7.3-0.2,10.7c-1.7,3-3.2,6.1-4,9.4l-0.6,1.2c-0.1,0.2-0.3,0.6-0.4,0.8
	c-0.4,2.6-0.6,5.3-0.9,7.9c-1.6-1.7-3.1-3.4-4.6-5.1c1.9,0.1,3.7-0.4,4.1-2.5c-1-0.1-2-0.2-2.9-0.4c0,0.6-0.1,1.7-0.1,2.2
	c-0.7-1.2-1.4-2.4-2-3.6c0.8-0.3,1.6-0.5,2.5-0.8c-2.2-0.1-4.4-0.1-6.6-0.2c0.2-0.4,0.7-1.1,0.9-1.5c2.1,0.5,4.6,0.3,6.4-1.1
	c1.5-1.4,1.3-3.7,1.1-5.6c-0.4-3.8-4.7-4.8-6.8-7.3c-0.5-1.3,0.7-2.3,1.4-3.3c0.2,1.2,0.5,2.5,0.7,3.7c1.5,0,3-0.1,4.5-0.1
	c-0.1-2.1-0.7-4.1-2-5.8c0.6-0.8,1.2-1.6,1.8-2.5c0-1.1,0-2.2,0-3.3C119.5,39.7,120.4,38.9,121.2,38.2z"/>
<path fill="#E3B757" d="M128.9,46.2c-1.6-0.8,0-2.3,0.7-1.5c2.4,1.7,5.1,4.4,4.1,7.6c-1.3,3.2-3.7,5.8-4.6,9.1
	c-0.2-0.4-0.5-1.3-0.7-1.8c0.8-2.9,0.7-5.9,0-8.8c0.3-0.5,0.6-1,1-1.5c0.2,0.6,0.7,1.8,1,2.4C130,50,129.5,48.1,128.9,46.2z"/>
<g>
	<path fill="#010101" d="M36.2,46.5c-1.2-0.4-3.4,0.4-3.8-1.2c3.6,0.8,7.3,1.2,11.1,1c1.1,6.5,1.8,13,3.1,19.4c-1.6,0-3.2,0-4.8,0
		c-0.3-1.3-0.6-2.6-0.8-3.9c-2.2,0-2.2,2.2-2.6,3.8c-0.7,0-2,0-2.7,0c-0.4,0-1.3,0-1.7,0c-0.1-0.3-0.2-0.8-0.3-1
		c0.1-2.2,0.5-4.4,0.9-6.6c-1.8,0.5-3.7,0.7-5.5,1.1c0.2-0.1,0.6-0.4,0.7-0.5c1.6-0.5,3.3-1,5-1.3c0-2.2,1.3-4.8-0.4-6.7
		c0.3,0.2,0.9,0.6,1.1,0.8C35.8,49.7,36,48.1,36.2,46.5z M39.5,51.8c-0.1,2.3-0.4,4.7-0.5,7c0.5,0,1.4-0.1,1.9-0.1
		c-0.3-2.3-0.5-4.7-0.6-7C40.1,51.8,39.7,51.8,39.5,51.8z"/>
</g>
<path fill="#DDC581" d="M11.8,46c0.8-0.7,2.3-0.4,2.7,0.6C14.3,47.8,11.5,47.2,11.8,46z"/>
<g>
	<path fill="#010101" d="M61.8,46.2c1.7,0,3.3,0,5,0c-0.3,1.6-0.5,3.1-0.8,4.7c0.9,0.4,1.8,0.8,2.7,1.2c0.2-2,0.5-4,0.7-5.9
		c2.4,0.1,4.8,0.1,7.2,0.1c1.1,6.4,1.9,12.8,3,19.2c-1.6,0-3.2,0-4.8,0c-0.3-1.7-0.4-3.6-2.4-4c-0.2,1-0.5,2-0.7,3
		c-0.1,0.3-0.2,0.8-0.3,1.1c-1.6,0-3.2-0.1-4.7-0.1c0.5-4.4,1.1-8.8,2.1-13.1c-1-0.2-2-0.3-2.9-0.5c-0.4,4.5-0.9,9-1.5,13.4
		c-2.1,0.1-4.2,0.1-6.3,0.1c-0.1-0.6-0.3-1.8-0.4-2.4c-0.4-2.6-0.6-5.2-1-7.8c-0.5,2.6-0.9,5.2-1.3,7.8c-0.1,0.6-0.3,1.8-0.4,2.4
		c-2.1,0-4.3,0.1-6.4,0.1c-1-6.4-1.4-12.9-2.2-19.4c1.6,0,3.3,0,4.9,0c0.4,4.3,0.4,8.7,1.1,13c0.6-4.3,0.9-8.6,1.4-12.9
		c1.7,0,3.5,0,5.2,0c0.7,4.3,0.7,8.7,1.2,13C60.9,54.9,61.2,50.5,61.8,46.2z M72.9,51.1c-0.3,2.5-0.5,5-0.8,7.5
		c0.5,0.1,1.5,0.2,1.9,0.3c-0.2-2.6-0.3-5.1-0.4-7.7C73.4,51.1,73,51.1,72.9,51.1z"/>
</g>
<path fill="#010101" d="M109.7,46.5c2.2-0.9,4.7-0.4,7.1-0.4c1.3,1.7,2,3.7,2,5.8c-1.5,0-3,0.1-4.5,0.1c-0.2-1.2-0.5-2.5-0.7-3.7
	c-0.7,0.9-1.9,1.9-1.4,3.3c2.1,2.5,6.4,3.5,6.8,7.3c0.2,1.9,0.4,4.1-1.1,5.6c-1.8,1.4-4.2,1.6-6.4,1.1c-1-0.3-1.9-0.6-2.9-0.9
	c-0.6-1.9-1-3.9-1.4-5.9c1.6,0,3.2,0,4.8,0.1c0.3,1.6,0.7,3.1,1.1,4.7c0.6-1.3,1.9-2.7,1-4.1c-1.8-2.2-5-3.1-6.2-5.8
	C107.2,51.3,107.2,47.9,109.7,46.5z"/>
<g>
	<path fill="#010101" d="M80.6,46.4c3.3,0.2,6.9-0.6,10,0.8c1.9,2.2,2.4,6.8-0.8,8c3.4,2.1,1.9,6.7,2.3,10c-1.6,0-3.2,0-4.8,0
		c-0.5-2.9,1.2-6.9-1.5-9c-0.2,3.1-0.1,6.1,0,9.2c-1.7,0-3.3-0.1-5-0.1C80.7,59.1,80.7,52.7,80.6,46.4z M85.8,49
		c-0.1,1.8-0.2,3.5-0.1,5.3C87.9,53.3,87.8,50.1,85.8,49z"/>
</g>
<g>
	<path fill="#010101" d="M94.2,46.3c3,0.1,6.1-0.2,9.1,0.4c1.5,0.4,2.4,1.8,2.4,3.3c0.3,4.7,0.4,9.4-0.1,14
		c-0.3,0.2-0.8,0.5-1.1,0.6c-3.3,1.3-7,0.5-10.4,0.7C94.2,59,94.1,52.6,94.2,46.3z M99.2,48.7c-0.3,4.6-0.2,9.3-0.1,13.9
		c0.4-0.2,1.1-0.7,1.5-0.9c0.5-3.9,0.4-7.8,0.1-11.7C100.4,49.8,99.6,49.1,99.2,48.7z"/>
</g>
<path fill="#080403" d="M137.3,48.2c3.1,1.6,6.9,4.8,5.4,8.8c-1.3,3.4-3.4,6.5-4,10.2c-2.2-4.2,2.3-7.3,2.6-11.4
	C141.9,52.5,138.8,50.6,137.3,48.2z"/>
<path fill="#E6CE89" d="M11.3,49.4c0.7,0,1.4,0,2.2,0c0,1.4,0.1,2.7,0.1,4c-1.2,0.1-2.5,0.3-3.4-0.7c-1.3,0.1-2.6,0.2-3.8,0.3
	c0.8-0.3,1.6-0.6,2.4-0.9c0.3-0.3,0.9-0.8,1.2-1c0.6,0.1,1.2,0.3,1.9,0.4C11.5,50.8,11.4,50.1,11.3,49.4z"/>
<path fill="#F3E19E" d="M85.8,49c1.9,1.1,2.1,4.3-0.1,5.3C85.7,52.5,85.7,50.8,85.8,49z"/>
<path fill="#D9BA70" d="M99.2,48.7c0.4,0.4,1.2,1.1,1.5,1.4c0.3,3.9,0.4,7.8-0.1,11.7c-0.4,0.2-1.1,0.7-1.5,0.9
	C99,58,98.9,53.4,99.2,48.7z"/>
<path fill="#E5CE7F" d="M72.9,51.1c0.2,0,0.5,0,0.7,0c0.1,2.6,0.3,5.2,0.4,7.7c-0.5-0.1-1.5-0.2-1.9-0.3
	C72.3,56.1,72.6,53.6,72.9,51.1z"/>
<path fill="#D5C076" d="M26,52.1c0.8-0.6,2.2-0.1,2.8,0.7C28.6,54.1,25.6,53.4,26,52.1z"/>
<path fill="#D8BE70" d="M32.1,51.9c1.4-1.2,3,2.1,1.4,2.6C32.5,54.3,31.4,52.9,32.1,51.9z"/>
<path fill="#F3E19E" d="M39.5,51.8c0.2,0,0.6-0.1,0.8-0.1c0.1,2.3,0.4,4.7,0.6,7c-0.5,0-1.4,0.1-1.9,0.1
	C39.2,56.5,39.4,54.1,39.5,51.8z"/>
<path fill="#080403" d="M138.7,51.6c0.3,0.9,0.7,1.8,1,2.7c-0.4,0.3-1.1,0.8-1.4,1.1c0.5,0.5,1.1,1.1,1.6,1.6c-1.3,0-2.7,0-4,0.1
	c0.5-0.5,1-1.1,1.5-1.6C138.2,54.3,138.5,53,138.7,51.6z"/>
<path fill="#DDC37E" d="M18.3,53.3c1.1-0.2,2.3-0.4,3.5-0.6c-0.2,0.7-0.4,1.3-0.6,2c0.3,0,0.9,0.1,1.2,0.2c0.4-1.4,1.3-2.5,2.9-1.8
	c-0.8,0.9-1.7,1.7-2.5,2.5c-0.6,0-1.8,0.1-2.4,0.2C19.6,54.9,18.9,54.1,18.3,53.3z"/>
<path fill="#ECC278" d="M65.9,51.9c1,0.2,1.9,0.3,2.9,0.5c-1,4.3-1.6,8.7-2.1,13.1c1.6,0,3.1,0.1,4.7,0.1c-0.1,0.3-0.2,0.9-0.3,1.3
	c-2.8-0.2-5.7-0.4-8.5,0.2c-2.1,0-3.9,0.7-4.9,2.6c-0.2,0-0.5,0.1-0.7,0.2c0.2-0.6,0.3-1.2,0.5-1.8c-0.6-0.5-1.1-1.1-1.7-1.6
	c0.8,0.2,1.7,0.4,2.6,0.7c-0.1-0.4-0.2-1.3-0.3-1.7c2.1,0,4.2,0,6.3-0.1C64.9,60.9,65.5,56.4,65.9,51.9z"/>
<path fill="#F1D88D" d="M56.7,55.3c0.4,2.6,0.6,5.2,1,7.8c-0.6,0-1.7,0-2.3,0C55.8,60.5,56.2,57.9,56.7,55.3z"/>
<path fill="#D9BE77" d="M15.5,58c1.4-1.8,3.8-1.6,5.8-1.5C19.8,58.2,17.6,58.1,15.5,58z"/>
<path fill="#CAB96E" d="M22.3,56.6c0.9-0.8,1.5-0.6,1.7,0.5C23,57.9,22.5,57.7,22.3,56.6z"/>
<path fill="#D1B66B" d="M24.7,59.6c0.1-1.3,3.1-2,3.7-0.7C27.7,60.1,25.7,60.3,24.7,59.6z"/>
<path fill="#080403" d="M133.9,59.3c1.8-0.5,3.7-0.7,5.6-0.9C138.3,60.4,135.7,59.6,133.9,59.3z"/>
<g>
	<path fill="#DDBA6E" d="M3.8,60c2.5-0.5,5.1-0.6,7.6,0.1c2.6-0.8,5.2-0.9,7.9-0.3c-1.2,0.9-5.2,1.5-2.6,3.2c0.1,0.3,0.2,1,0.3,1.3
		c-0.6,1-1.2,2.1-1.9,3c-0.2,0.2-0.5,0.5-0.7,0.7c-2.5-1.5-5.3-1.3-8-0.1c0.1,0.4,0.3,1.3,0.4,1.8c-0.3,0.1-1,0.2-1.3,0.3
		c-1.9,0.2-3.7,0-5.6,0c0.2-0.5,0.7-1.4,0.9-1.9c-0.4-1.4-0.9-2.7-0.7-4.2c0.2-0.3,0.6-0.8,0.8-1C1.9,61.8,2.9,60.9,3.8,60z
		 M4.1,61.3c2.2,0.4,4.4,0.6,6.6,0.6C9,60.3,6,59.7,4.1,61.3z"/>
</g>
<path fill="#D2B56B" d="M21.1,59c0.7-0.5,2.7-0.1,1.9,1C22.1,61.5,18.9,60.1,21.1,59z"/>
<path fill="#D3A248" d="M161,81.4c0.3-7.5-0.6-15.1,0.6-22.6c0.5,12,0.1,24.1,0.3,36.1c-1.8,0-3.6,0.2-5.3-0.2
	c-2.4-0.7-4.6-1.9-6.9-2.8c-1.5-0.7-2.9,0.4-4.3,0.9c-3.2-1.4-6.5,1.1-9.6-0.4c1.5-0.3,3-0.5,4.6-0.7c-3.8-2.7-8.1-4.3-12.3-6.1
	c-2.7-3.3-7.2-2.3-10.8-3.6c8.9-0.5,17.9-1,26.8-0.7c1.8,0,3.6,0,5.3-0.2l1.4-0.6C154.2,80.1,157.6,80.8,161,81.4z"/>
<path fill="#A78868" d="M129.1,67.8c-1.3-2.5-1.5-5.3-0.7-8c0.2,0.4,0.5,1.3,0.7,1.8c0,1.8,0.2,3.5,0.5,5.2l0.1,0.6
	c3.7-0.4,7.3,0.3,10.9,0.5c2.9-0.1,5.9-0.4,8.8,0c0.3,0.2,1,0.7,1.3,1c-9.7-0.2-19.4,0.1-29.1-0.1l0.6-1.2
	C124.5,67.5,126.8,67.6,129.1,67.8z"/>
<path fill="#F7DE99" d="M4.1,61.3c1.9-1.6,4.8-1.1,6.6,0.6C8.5,61.9,6.3,61.7,4.1,61.3z"/>
<g>
	<path fill="#D4AA57" d="M38.3,65.5c0.4-1.6,0.4-3.8,2.6-3.8c0.3,1.3,0.6,2.6,0.8,3.9c0,0.3-0.1,0.9-0.1,1.2c0.5,0,1.4,0.1,1.9,0.2
		c-0.5,0.4-1.5,1.2-2,1.6c0.4-0.1,0.8-0.3,1.3-0.4c1-0.8,2-1.5,3.4-1.2c2.9,0.3,5.8-0.5,8.7-0.7c0-0.2,0.1-0.6,0.1-0.8
		c0.1-0.6,0.3-1.8,0.4-2.4c0.6,0,1.7,0,2.3,0c0.1,0.6,0.3,1.8,0.4,2.4c0.1,0.4,0.2,1.3,0.3,1.7c-0.9-0.2-1.7-0.4-2.6-0.7
		c0.6,0.5,1.1,1.1,1.7,1.6c-0.2,0.6-0.4,1.2-0.5,1.8c-5.2,0.9-10.5,0.3-15.6,1.6c-2.5-0.5-4.4-2.5-6.7-3.6c1,1.3,2.2,2.6,3.3,3.9
		c-0.5,0.2-1.4,0.6-1.9,0.8c-0.2-0.7-0.4-1.5-0.6-2.2c-0.7,0.7-1.4,1.3-2.2,2c-2.1-2.4-5.3-1.8-8.1-1.3c-2.9-1.1-6-0.3-8.9,0.2
		c-0.3,0.7-0.6,1.3-0.8,2c0.3,0,0.8-0.1,1.1-0.2c0.8,0.9,1.6,1.8,2.4,2.7c-4.4,0.8-8.8,3.1-13.4,1.5c-1.1,0.7-2.1,1.5-3.1,2.3
		c0.1-0.6,0.2-1.7,0.3-2.3c-0.8,1-1.6,1.9-2.4,2.9c-0.2-2.7-0.4-5.5,0.4-8.1c-0.1-0.5-0.4-1.4-0.5-1.9c1.8,0.4,3.6,0.2,5.3-0.4
		c0.3-0.1,1-0.2,1.3-0.3c-0.1-0.4-0.3-1.3-0.4-1.8c2.6-1.2,5.4-1.3,8,0.1c0.2-0.2,0.5-0.5,0.7-0.7c2.5-0.7,4.9-1.5,7.5-1.6
		c2.6,0.3,5.1,1.2,7.7,1.8c-3-2.7-7.2-4.5-11.1-2.5c-0.8-0.3-1.5-0.5-2.2-0.8c-0.1-0.3-0.2-1-0.3-1.3c5.5,0,11-0.7,16.5-0.7
		c-1.2,2.1-3.6,1.8-5.6,2.1c2,0,4.1,0,6.1,0.2c0.1,0.3,0.2,0.8,0.3,1c-1.3,0.6-2.5,1.2-3.7,1.9c2.5,0,4.9-0.2,7.3-0.5
		c-0.7-0.5-1.3-0.9-2-1.4C36.3,65.5,37.7,65.5,38.3,65.5z M19.8,67.2c0.1,1.1,0.7,1.3,1.7,0.6C21.3,66.6,20.8,66.4,19.8,67.2z
		 M23,67.3c0.2,1.1,0.7,1.3,1.7,0.6C24.5,66.7,24,66.5,23,67.3z M5.4,71.8c1.2,0.7,2.6,0.8,3.8,0.1c1.5-0.1,2.9-0.2,4.4-0.4
		C11.7,68,7.7,70.2,5.4,71.8z M14.1,69.5c-0.1,1.1,1.8,1.3,2.4,0.6C16.6,68.9,14.7,68.8,14.1,69.5z M13.9,71.3
		c-0.4,1.1-0.1,1.5,1.1,1.2C15.4,71.3,15,70.9,13.9,71.3z M3.3,74.5"/>
</g>
<path fill="#5C3A12" d="M132.2,61.6c1.5-0.6,3.5-0.8,5-0.1C136.5,62.7,133.1,62.6,132.2,61.6z"/>
<path fill="#EBC97B" d="M19.2,65c3.9-2,8.1-0.2,11.1,2.5c-2.6-0.6-5-1.5-7.7-1.8c-2.6,0-5.1,0.9-7.5,1.6c0.7-1,1.3-2,1.9-3
	C17.7,64.5,18.5,64.8,19.2,65z"/>
<g>
	<path fill="#D0A249" d="M104.5,64.6c0.3-0.2,0.8-0.5,1.1-0.6c1,0.1,2,0.4,3.1,0.7c1,0.3,1.9,0.6,2.9,0.9c-0.2,0.4-0.7,1.1-0.9,1.5
		c2.2,0.1,4.4,0.2,6.6,0.2c-0.8,0.3-1.6,0.5-2.5,0.8c0.7,1.2,1.4,2.4,2,3.6c0-0.6,0.1-1.7,0.1-2.2c1,0.1,2,0.2,2.9,0.4
		c-0.4,2.1-2.2,2.6-4.1,2.5c1.5,1.7,3,3.4,4.6,5.1c0,0.4-0.1,1.2-0.2,1.6c-0.7,0.2-2.2,0.6-2.9,0.8c0.3,0.2,1,0.5,1.3,0.7
		c-3,0.4-6,1.1-8.9,1.8c-4,0.5-8,0.3-11.9-0.1c1.1-0.4,2.2-0.8,3.4-1.2c-3-0.2-5.9,0-8.7,1c0.8,0.9,1.7,1.9,2.5,2.9
		c-2.3-0.6-3.9-2.4-5.7-3.8c0.4-0.4,0.8-0.8,1.2-1.2c-2.3-0.5-4.5-0.9-6.8-1.4c-0.1,0.4-0.2,1.2-0.2,1.6c-1.6-0.6-3.1-1.3-4.7-1.9
		c-1.4,0.1-3.1,0.9-4.4-0.1c-0.1-0.8,0-1.6,0.5-2.3c2.5-1.1,5.4-1.3,8.1-1.8c-0.5-0.5-1-1.1-1.5-1.6c-3.4,1.3-7,2.3-10.6,3.2
		c-0.7,1-1.4,2-2,3c0-0.8,0-1.6,0-2.5c-1.4-0.7-2.8-1.4-4.2-2.2c1-0.1,2.1-0.1,3.1-0.2c-1.4-0.6-2.8-1.3-4.2-1.9
		c-1.3,1.4-2.6,2.8-3.9,4.2c0.5,0.5,0.9,1,1.4,1.5c-0.6,0-1.7,0.1-2.3,0.1c-0.5-0.5-0.9-1-1.4-1.5c-0.6,1.1-1.1,2.1-1.7,3.2
		c-0.2-1-0.3-2-0.5-3c-1.5,0.8-3,1.4-4.7,1.7c0.5-0.7,1.1-1.4,1.6-2.1c-2.4-0.3-4.8-0.6-7.2-0.9c0.3,0.9,0.6,1.9,0.9,2.8
		c0.5,0.1,1.4,0.2,1.9,0.2c-0.6,0.5-0.7,2-1.7,1.7c-1.2-1.8-2.3-3.7-3.9-5.1c0,0.5,0,1.6,0,2.1c-0.9-0.3-1.8-0.5-2.7-0.8
		c0.1,0.4,0.3,1.2,0.3,1.6c-1.8,0.5-3.7,0.9-5.5,1.3c-1.3,0-2.6,0.2-3.8,0c-0.7-0.7-0.6-1.8-0.9-2.7c0.8-0.7,1.6-1.3,2.4-2
		c-4.3-0.1-8.5,0.7-12.7,1.5c-0.8-0.9-1.6-1.8-2.4-2.7c2.9-0.6,5.8-1.4,8.7-2c2.8-0.5,6-1.1,8.1,1.3c0.7-0.7,1.4-1.3,2.2-2
		c0.2,0.7,0.4,1.5,0.6,2.2c0.5-0.2,1.4-0.6,1.9-0.8c-1.1-1.3-2.3-2.5-3.3-3.9c2.3,1.1,4.2,3.2,6.7,3.6c5.1-1.4,10.4-0.7,15.6-1.6
		c0.2,0,0.5-0.1,0.7-0.2c1-1.9,2.9-2.6,4.9-2.6c2.8-0.7,5.7-0.5,8.5-0.2c0.1-0.3,0.2-0.9,0.3-1.3c0.1-0.3,0.2-0.8,0.3-1.1
		c1.6,0.9,3.2,2.1,5,2.6c2.1,0,4.2-0.6,6.3-1c-0.6,0.7-1.1,1.4-1.6,2c3.5,0.2,7.1,0.3,10.5-0.6c5.1-1.4,10.5-0.2,15.6-1.5
		C106.4,65.6,105.5,65.1,104.5,64.6z M44.3,73.9c0.1,1.2,3.1,1.2,3.2,0C46.6,73.1,45.1,73.2,44.3,73.9z"/>
</g>
<path fill="#080403" d="M130.7,64.3c2-0.2,4-0.2,6-0.3c0,0.2-0.1,0.7-0.1,0.9C134.6,64.8,132.5,65.1,130.7,64.3z"/>
<path fill="#E8C87F" d="M34,65.5c0.4,0,1.3,0,1.7,0c0.7,0.4,1.3,0.9,2,1.4c-2.4,0.3-4.9,0.5-7.3,0.5C31.5,66.7,32.7,66.1,34,65.5z"
	/>
<path fill="#F8D88D" d="M19.8,67.2c1-0.7,1.5-0.6,1.7,0.6C20.5,68.5,20,68.3,19.8,67.2z"/>
<path fill="#F0CF82" d="M23,67.3c0.9-0.8,1.5-0.6,1.7,0.6C23.8,68.6,23.2,68.4,23,67.3z"/>
<path fill="#030100" d="M121.2,69.5c0.1-0.2,0.3-0.6,0.4-0.8c9.7,0.2,19.4-0.1,29.1,0.1l0.3,0.2c0.6,3.5,1.1,7,1.2,10.5
	c-0.7-1.3-1.3-2.7-1.8-4.1c-0.5-1.9-0.9-3.8-1.4-5.7c-8.8,0.4-17.5,1-26.2,1.6c-1.3,2.5-1.7,5.3-2.9,7.8c0.1-0.4,0.2-1.2,0.2-1.6
	C120.6,74.8,120.8,72.1,121.2,69.5z"/>
<path fill="#EAC980" d="M5.4,71.8c2.4-1.6,6.3-3.8,8.2-0.4c-1.5,0.3-2.9,0.4-4.4,0.4C7.9,72.5,6.6,72.4,5.4,71.8z"/>
<path fill="#EBC678" d="M14.1,69.5c0.6-0.7,2.5-0.6,2.4,0.6C15.9,70.8,14,70.6,14.1,69.5z"/>
<path fill="#EECC7F" d="M16.3,71.3c2.9-0.5,6-1.3,8.9-0.2c-2.9,0.6-5.8,1.4-8.7,2c-0.3,0-0.8,0.1-1.1,0.2
	C15.8,72.7,16.1,72,16.3,71.3z"/>
<g>
	<path fill="#E2B056" d="M122.9,71.3c8.7-0.6,17.5-1.2,26.2-1.6c0.4,1.9,0.9,3.8,1.4,5.7c-1-0.5-1.9-1-2.9-1.5
		c-0.6,0.7-1.1,1.3-1.7,2c-0.6-0.6-1.1-1.2-1.6-1.9c-0.2-0.3-0.6-0.8-0.9-1c-0.5,0.8-1.1,1.7-1.6,2.5c0-0.7-0.1-2.2-0.1-3
		c-0.7,1.5-1.9,3.5-0.3,4.9c1.4,0.9,2.8,1.8,4.2,2.7c-9-0.5-18.1-0.6-27.1,0.6c-0.3-0.2-1-0.5-1.3-0.7c0.7-0.2,2.2-0.6,2.9-0.8
		C121.2,76.6,121.6,73.8,122.9,71.3z M133.5,73.9c-0.2,0.9-0.4,1.8-0.5,2.7c0.8,0,1.7,0,2.5,0c0.3-0.1,0.9-0.2,1.1-0.3
		c0.8,0.3,1.5,0.6,2.3,0.9c-0.7-1.6-1.4-3.3-2-4.9C136,73,134.8,73.7,133.5,73.9z M127.3,73.2c0,0.3,0.1,0.9,0.2,1.2
		c-0.1,0.4-0.3,1.1-0.3,1.5c0.9-0.1,1.8-0.2,2.6-0.4c-0.2,1.4,2.9,1.5,2,0c-0.3-0.5-0.8-1.6-1.1-2.1l0.3-0.2
		C129.7,73.2,128.5,73.2,127.3,73.2z"/>
</g>
<path fill="#F4D080" d="M13.9,71.3c1.2-0.4,1.5,0,1.1,1.2C13.8,72.8,13.5,72.4,13.9,71.3z"/>
<g>
	<path fill="#C59741" d="M59.5,76.2c1.3-1.4,2.6-2.8,3.9-4.2c1.4,0.6,2.8,1.3,4.2,1.9c-1,0.1-2.1,0.1-3.1,0.2
		c1.4,0.7,2.8,1.4,4.2,2.2c0,0.8,0,1.6,0,2.5c0.7-1,1.3-2,2-3c3.6-0.9,7.1-1.9,10.6-3.2c0.5,0.5,1,1.1,1.5,1.6
		c-2.7,0.5-5.6,0.7-8.1,1.8c-0.4,0.7-0.6,1.5-0.5,2.3c1.3,1,2.9,0.2,4.4,0.1c1.5,0.7,3.1,1.3,4.7,1.9c0-0.4,0.2-1.2,0.2-1.6
		c2.3,0.4,4.5,0.9,6.8,1.4c-0.4,0.4-0.8,0.8-1.2,1.2c1.8,1.4,3.4,3.2,5.7,3.8c-0.8-1-1.6-1.9-2.5-2.9c2.8-1,5.8-1.2,8.7-1
		c-1.1,0.4-2.3,0.8-3.4,1.2c4,0.4,8,0.6,11.9,0.1c2.6-0.2,5.1-0.4,7.7-0.5c3.6,1.3,8.1,0.3,10.8,3.6c4.2,1.8,8.5,3.4,12.3,6.1
		c-1.5,0.2-3.1,0.5-4.6,0.7c3.1,1.6,6.4-1,9.6,0.4c1.4-0.4,2.8-1.6,4.3-0.9c2.3,0.9,4.5,2.1,6.9,2.8c-16.6,0.5-33.3,0-49.9,0.2
		c-35.5,0-70.9,0-106.4,0C0.4,90,0,85.1,0.4,80.2c0.8-1,1.6-1.9,2.4-2.9c-0.1,0.6-0.2,1.7-0.3,2.3c1-0.8,2.1-1.5,3.1-2.3
		c4.5,1.6,9-0.7,13.4-1.5c4.2-0.8,8.4-1.6,12.7-1.5c-0.8,0.7-1.6,1.3-2.4,2c0.3,0.9,0.2,2,0.9,2.7c1.2,0.2,2.5,0.1,3.8,0
		c1.8-0.4,3.7-0.8,5.5-1.3c-0.1-0.4-0.3-1.2-0.3-1.6c0.9,0.3,1.8,0.5,2.7,0.8c0-0.5,0-1.6,0-2.1c1.7,1.4,2.7,3.3,3.9,5.1
		c1,0.2,1.1-1.2,1.7-1.7c-0.5-0.1-1.4-0.2-1.9-0.2C45.3,77,45,76,44.7,75.1c2.4,0.3,4.8,0.6,7.2,0.9c-0.6,0.7-1.1,1.4-1.6,2.1
		c1.6-0.3,3.2-0.9,4.7-1.7c0.1,1,0.3,2,0.5,3c0.6-1,1.2-2.1,1.7-3.2c0.5,0.5,0.9,1,1.4,1.5c0.6,0,1.8-0.1,2.3-0.1
		C60.4,77.1,59.9,76.7,59.5,76.2z M18.6,77.8c-2.3,0.5-5,0.4-6.8,2c2,0.1,4,0,6-0.1c0,0.2,0.1,0.6,0.2,0.8c1.9-2.6,5.4-1.8,8.1-2.5
		C23.8,76.7,21.1,77.5,18.6,77.8z M4.2,80.4c-0.9-0.1-2.3,0.2-2.5,1.2C2.2,83.4,5.9,81.4,4.2,80.4z"/>
</g>
<path fill="#7E6F3A" d="M133.5,73.9c1.3-0.2,2.4-0.9,3.5-1.7c0.6,1.7,1.3,3.3,2,4.9c-0.8-0.3-1.6-0.6-2.3-0.9
	c-0.3,0.1-0.9,0.2-1.1,0.3c-0.9,0-1.7,0-2.5,0C133.2,75.7,133.3,74.8,133.5,73.9z"/>
<path fill="#080403" d="M127.3,73.2c1.2,0,2.4,0,3.6,0l-0.3,0.2c-1,0.8-2,1.6-3,2.4l-0.2-1.4C127.4,74.1,127.4,73.5,127.3,73.2z"/>
<path fill="#E8C176" d="M44.3,73.9c0.8-0.7,2.3-0.7,3.2,0C47.4,75,44.4,75.1,44.3,73.9z"/>
<path fill="#EBDB8C" d="M127.7,75.7c1-0.8,2-1.6,3-2.4c0.3,0.5,0.8,1.6,1.1,2.1c-0.5,0-1.5,0-2,0c-0.9,0.1-1.8,0.3-2.6,0.4
	c0.1-0.4,0.2-1.1,0.3-1.5L127.7,75.7z"/>
<path fill="#0B0606" d="M141.4,77.3c-1.6-1.4-0.4-3.3,0.3-4.9c0,0.8,0.1,2.3,0.1,3c0.5-0.8,1-1.7,1.6-2.5c0.2,0.3,0.6,0.8,0.9,1
	c-1.1,0.8-2.2,1.6-3.3,2.3C141.1,76.6,141.3,77.1,141.4,77.3z"/>
<path fill="#F9D789" d="M3.3,74.5"/>
<path fill="#080403" d="M129.8,75.5c0.5,0,1.5,0,2,0C132.7,76.9,129.6,76.8,129.8,75.5z"/>
<path fill="#6D400B" d="M144.3,75.4"/>
<path fill="#DFB462" d="M18.6,77.8c2.5-0.3,5.2-1.1,7.5,0.2c-2.7,0.7-6.2,0-8.1,2.5c0-0.2-0.1-0.6-0.2-0.8c-2,0.1-4,0.2-6,0.1
	C13.7,78.2,16.3,78.3,18.6,77.8z"/>
<path fill="#B28535" d="M142.8,76.9c1-0.7,1.5-0.5,1.6,0.6C143.5,78.3,143,78.1,142.8,76.9z"/>
<path fill="#E3B463" d="M4.2,80.4c1.6,0.9-2.1,2.9-2.5,1.2C2,80.6,3.3,80.3,4.2,80.4z"/>
<path fill="#0B0606" d="M118.5,80.5c9-1.1,18.1-1.1,27.1-0.6c1.7,0.1,3.4,0.2,5.2,0.3l-1.4,0.6c-1.8,0.3-3.6,0.3-5.3,0.2
	c-8.9-0.2-17.9,0.2-26.8,0.7c-2.6,0.2-5.1,0.3-7.7,0.5C112.5,81.7,115.5,81,118.5,80.5z"/>
</svg>
