<?xml version="1.0" encoding="utf-8"?>
<!-- Generator: Adobe Illustrator 18.1.1, SVG Export Plug-In . SVG Version: 6.00 Build 0)  -->
<svg version="1.1" id="图层_1" xmlns="http://www.w3.org/2000/svg" xmlns:xlink="http://www.w3.org/1999/xlink" x="0px" y="0px"
	 viewBox="0 0 276 96.8" enable-background="new 0 0 276 96.8" xml:space="preserve">
<path fill="#4DC3F0" d="M167.9,0.4c3.7-1.8,8.5,2.1,7.4,6.2c-0.3,4.9-7.6,6.6-10.2,2.5C162.8,6.2,164.7,1.7,167.9,0.4z"/>
<path fill="#F94409" d="M152.5,3.8c3.6-2.5,8.8,1.2,8.2,5.3c0,4.3-6,7-9.1,3.8C148.5,10.6,149.2,5.5,152.5,3.8z"/>
<path fill="#0892DB" d="M182.6,3.5c4.4-2.2,9.6,3.6,7,7.7c-1.7,3.9-7.8,4.1-9.8,0.4C177.7,8.8,179.5,4.8,182.6,3.5z"/>
<path fill="#FBAF3F" d="M141,11.8c3.3-1.3,7.5,1.8,7,5.4c0.4,3.1-2.6,5.8-5.6,5.5c-3.2,0.1-5.9-3.1-5.4-6.3
	C137.1,14.2,139,12.3,141,11.8z"/>
<path fill="#16A844" d="M194.9,11.9c3.2-1.1,7.6,0.7,7.6,4.5c0.7,4.1-4.1,7.6-7.8,5.6C190.3,20.4,190.5,13.3,194.9,11.9z"/>
<path fill="#B7A86D" d="M122.3,12.4c2.9-0.2,5.8-0.2,8.7-0.1c0,16.3-0.1,32.7,0,49c-2.9,0.1-5.8,0.1-8.6,0c-0.1-1.1-0.2-2.2-0.3-3.3
	c-1.7,1.3-3.5,2.5-5.3,3.6c0-2.1,0.2-4.2-0.1-6.3c-1.4-0.4-2.9-0.5-4.3-0.8c-0.5-0.1-1.4-0.3-1.8-0.4c3,0.1,6.3-0.2,8.6-2.4
	c4.6-3.9,4.6-11.6,0.5-15.8c-2.7-2.9-7.4-3.5-10.9-1.9c-2.2,1.1-3.6,3.2-5.2,4.9c-0.2-0.3-0.7-1-0.9-1.3c-0.1-0.2-0.2-0.5-0.3-0.6
	c-0.1-2.6-1.9-4.5-2.8-6.8c2.8-3.9,8.2-5.4,12.8-5.2c3.7,0,6.9,2.1,9.9,4.1C122.3,23.5,122.2,18,122.3,12.4z"/>
<path fill="#B7A96E" d="M265.4,12.3c2.9-0.1,5.8-0.1,8.8,0.1c-0.1,16.3-0.1,32.6,0,48.9c-2.9,0.2-5.9,0.2-8.8,0
	C265.4,45,265.4,28.6,265.4,12.3z"/>
<path fill="#ED222B" d="M1.4,13.4c8.8,0.1,17.7-0.1,26.5,0.1c0,2.9,0,5.9,0,8.8c-2.9,0-5.8,0-8.7,0c-0.1,13-0.1,26,0,39
	c-3.1,0.2-6.1,0.2-9.2,0c-0.1-13,0.1-26-0.1-39c-2.8,0-5.6,0-8.4,0C1.3,19.3,1.3,16.4,1.4,13.4z"/>
<path fill="#B7A96E" d="M209.2,13c3-0.1,5.9-0.1,8.9,0.1c0,4.2,0,8.4,0,12.7c1.7,0.1,3.5,0.2,5.3,0.3c0,2.6,0,5.1,0,7.6
	c-1.7,0-3.4,0-5.1,0c-0.2,9.2,0,18.4-0.1,27.6c-3,0.1-5.9,0.1-8.9,0c-0.1-9.2,0-18.4-0.1-27.5c-1.5-0.1-3-0.2-4.5-0.3
	c0-2.6,0-5.1,0.2-7.6c1.4,0,2.9,0,4.3,0.1C209.2,21.6,209.2,17.3,209.2,13z"/>
<g>
	<path fill="#EB1F28" d="M41,25.2c5.3-0.7,10.9,0.7,15,4.3c4.4,3.5,6.6,9.1,6.7,14.7c-0.4,6-3.5,11.9-8.6,15.2
		c-4.4,3-10.1,3.9-15.2,2.4C31,59.5,25,51.5,25.4,43.2C25.3,34.5,32.4,26.4,41,25.2z M40.2,34c-4.1,1.8-6.4,6.7-5.9,11.1
		c0.2,5.5,5.8,10.2,11.3,9.1c5.8-1.1,9.6-7.6,8-13.2C52.2,35.3,45.6,31.5,40.2,34z"/>
</g>
<path fill="#EC202A" d="M76.6,28.7c6.5-6.1,18.5-4.4,23.1,3.3c1,1.6,1.8,3.3,2.6,4.9c0.1,0.2,0.2,0.5,0.3,0.6
	c0.5,2.3,0.6,4.7,0.6,7.1c-2.3,4.3-2.1,9.1-2,13.8c-1.1-1-2.2-2-3.2-3.2c-1-2-2.2-4-2.7-6.3c-0.6-3-0.5-6.2-1.5-9.2
	c-1.6-4.7-6.7-7.8-11.6-6.4c-7.6,1.8-10,13-4.3,18.1c3.4,3.7,9.6,3.5,13.1,0c0.8-0.7,1.7-1.3,2.5-2c1.2,2.5,2.5,5,4.3,7.2l0.2,0.3
	c-3.3,2.8-7.3,5.4-11.9,5.3c-4.4,0.4-8.3-2.3-11.4-5.2l-0.4-0.4c-0.4,6.2,0,12.5-0.7,18.7c-2.1,0.1-4.3,0.2-6.4,0.3
	c-0.4-16.3-0.2-32.7,0-49c1.8,0,3.7-0.2,5.6,0.2c0.8,0.8,1.4,1.6,2.1,2.5C75.5,30.1,76.1,28.8,76.6,28.7z"/>
<g>
	<path fill="#B8A96E" d="M153.9,31.1c3.2-4.2,8.5-6.5,13.8-6c3.8,0.1,7.1,2.2,10.1,4.3c0-1.1,0-2.3,0-3.5c3,0,6,0,9,0
		c0,10.4,0,20.8,0,31.3c-0.1,5.3-1.5,11.4-6,14.8c-6.3,4.2-14.7,4.8-21.7,2c-4.4-1.7-7.3-5.5-9.2-9.7c3.8,0.2,8-1.1,11.4,1.1
		c4.2,2.7,10.2,2.5,14.1-0.5c2.3-1.8,2-5,2.1-7.6c-3.7,3.4-9.1,4.8-14,3.7c-6.2-0.9-11.2-5.9-12.8-11.9
		C149.1,43,149.8,36,153.9,31.1z M164.8,34c-5.9,2.3-7.8,10.6-4,15.5c2.7,3.8,8.4,4.6,12.5,2.7c4.9-2.8,6.3-9.7,3.3-14.4
		C174.3,33.7,169,32.2,164.8,34z"/>
</g>
<g>
	<path fill="#B8A96D" d="M223.5,44.8c-0.8-9,5.6-19.1,15.2-19.7c4.7-0.7,9.2,1.5,12.8,4.3c0-1.2,0-2.4,0.1-3.5
		c3-0.1,5.9-0.1,8.9,0.1c-0.1,11.7-0.1,23.4,0,35.2c-2.9,0.2-5.9,0.2-8.8,0.1c-0.1-1.1-0.2-2.3-0.3-3.4c-3.8,3-8.6,5.1-13.5,4.1
		C229.6,60.7,223.8,52.8,223.5,44.8z M238.7,33.8c-3.7,1.5-6.3,5.4-6.4,9.5c-0.3,5.4,4,10.9,9.5,10.9c5.8,0.3,10.4-5.3,10.2-10.9
		C252.4,36.7,244.9,31.1,238.7,33.8z"/>
</g>
<path fill="#CA0506" d="M66.4,26c2.9,0,5.8,0,8.7,0c0,1.2,0,2.4,0,3.6c-0.7-0.8-1.4-1.7-2.1-2.5c-1.8-0.4-3.7-0.2-5.6-0.2
	c-0.2,16.3-0.4,32.7,0,49c2.1-0.1,4.2-0.2,6.4-0.3c0.7-6.2,0.3-12.5,0.7-18.7l0.4,0.4c0.6,6.3,0.1,12.7,0.3,19.1c-2.9,0-5.9,0-8.8,0
	C66.4,59.5,66.4,42.8,66.4,26z"/>
<path fill="#B7A96C" d="M137.3,26c2.9,0,5.8,0,8.7,0c0,11.8,0.1,23.6-0.1,35.4c-2.9,0-5.8,0-8.7,0C137.1,49.6,137.2,37.7,137.3,26z"
	/>
<path fill="#B8A96D" d="M193.8,26c3-0.1,5.9-0.1,8.9,0c-0.1,11.7,0,23.5,0,35.2c-3,0.2-5.9,0.2-8.9,0.1
	C193.6,49.6,193.8,37.8,193.8,26z"/>
<path fill="#E48F94" d="M93.8,39.9c1,3,0.8,6.1,1.5,9.2c0.5,2.3,1.7,4.3,2.7,6.3c0,0.4,0,1.2,0,1.5c-1.8-2.2-3.1-4.7-4.3-7.2
	c-0.9,0.7-1.7,1.3-2.5,2c1.1-1.5,2.1-3,3.1-4.5C94.2,44.7,94.1,42.3,93.8,39.9z"/>
<path fill="#EB4435" d="M103.1,44.7c0.4,2,1.1,3.9,1.8,5.7c0.7,2.3,1.7,4.8,1.5,7.3c-0.3,1.4-1.9,1.8-3,2.5c-0.8-0.5-1.6-1-2.3-1.5
	v-0.3C101,53.8,100.8,49,103.1,44.7z"/>
<path fill="#DD7045" d="M104.9,50.5c1.7,1.4,3.5,2.8,5.6,3.6c0.5,0.1,1.4,0.3,1.8,0.4c0.4,1.9,0.7,3.8,1.1,5.8
	c-0.5,0.8-0.9,1.5-1.4,2.3c-3-0.1-6-0.7-8.6-2.2c1.1-0.7,2.7-1.1,3-2.5C106.6,55.2,105.6,52.8,104.9,50.5z"/>
<path fill="#C89361" d="M112.4,54.5c1.4,0.2,2.9,0.4,4.3,0.8c0.3,2.1,0.1,4.2,0.1,6.3c-1.6,0.3-3.1,0.6-4.7,0.9
	c0.5-0.8,0.9-1.5,1.4-2.3C113.1,58.3,112.7,56.4,112.4,54.5z"/>
<path fill="#5B5A5C" d="M0,88.2c0.3-6.5,10.7-8.6,14-3.3c-2.5-0.8-4.9-2.5-7.6-1.7c-2.6,0.4-4.9,2.3-5.1,5.1
	c0.6,2.4,2.8,4.2,5.2,4.4c2.7,0.6,5-1,7.4-1.9c-1,2.7-4.2,3.1-6.7,3C4,93.6,0.4,91.5,0,88.2z"/>
<path fill="#5B5A5C" d="M19.8,81.2c1.4,1.3,0.7,3.4,0.8,5.1c2.1-1.4,5.8-2.2,7.4,0.4c0.5,2.3,1.3,5.3-0.7,7.2
	c-0.2-2.2,0-4.4-0.4-6.6c-1.3-2.2-5.4-1.8-6.1,0.7c-0.4,2,0.3,4.3-1.1,6C19.4,89.8,19.4,85.5,19.8,81.2z"/>
<path fill="#3E393C" d="M34.1,82c1.3-0.4,1.8,0,1.4,1.3C34.1,83.8,33.7,83.3,34.1,82z"/>
<path fill="#5B5A5C" d="M141.7,81.8c1.1-0.5,1.9,1.4,0.7,1.7C141.3,84,140.5,82.1,141.7,81.8z"/>
<path fill="#555456" d="M164.1,81.9c0.8-1.3,2.8,0.2,1.9,1.3C165.1,84.4,163.2,83.1,164.1,81.9z"/>
<path fill="#5B5A5C" d="M172.3,85.1c0.3-1.3,0.2-2.7,1.3-3.6c0.1,1.2,0.1,2.3,0.2,3.5c0.8,0.1,2.3,0.4,3.1,0.6
	c-1,0.3-2.1,0.5-3.1,0.7c0,2.6,0,5.1-0.1,7.7c-2-2-0.9-5.1-1.1-7.6c-0.8-0.3-1.5-0.7-2.3-1C170.8,85.3,171.8,85.2,172.3,85.1z"/>
<path fill="#5B5A5C" d="M197,84c-0.2-1.1,0.5-1.9,1.2-2.5c0.1,4.2,0.1,8.3,0,12.5c-0.8-0.7-1.4-1.5-1.2-2.6
	C196.9,88.9,196.9,86.4,197,84z"/>
<path fill="#5B5A5C" d="M258.8,81.5c2,1.3,1,3.9,1.2,5.9c-0.3,2.2,0.6,5-1.2,6.6C258.6,89.8,258.7,85.6,258.8,81.5z"/>
<g>
	<path fill="#5B5A5C" d="M274.8,81.9c0.3,0,0.8,0,1.1,0c0,3.8,0,7.6,0.1,11.4c-0.7-0.2-1.3-0.5-1.9-0.7c-3.2,2.5-9.6,0.8-8.9-3.9
		c1.2-4.2,6.6-4.1,9.7-2.2C274.8,84.8,274.8,83.4,274.8,81.9z M268,86.6c-1.3,0.7-2,2.3-1.5,3.8c1.5,3.1,6.5,3.1,8.2,0.1
		C275.9,86.8,270.8,84.8,268,86.6z"/>
</g>
<path fill="#5D5A5A" d="M78.5,82.4c3-0.3,6-0.1,9.1-0.2l0,1.1c-1.2,0-2.4,0-3.6,0c0,3.2,0.3,6.4-0.1,9.6l-1,0.9
	c-0.2-3.4-0.1-6.9,0-10.3C81.3,83.3,79.6,83.6,78.5,82.4z"/>
<g>
	<path fill="#615F5E" d="M124.3,82.5c3-0.3,6.3-0.5,9.2,0.8c3.1,1.5,3.7,6.2,1.1,8.4c-2.8,2.5-6.9,1.6-10.3,1.8
		C124.4,89.8,124.4,86.1,124.3,82.5z M125.6,83.4c0,3,0,6,0.1,9.1c2.6-0.2,5.9,0.5,8-1.6c2-1.8,1.4-5.5-1.1-6.6
		C130.4,83.2,127.9,83.5,125.6,83.4z"/>
</g>
<path fill="#5B5A5C" d="M212.2,81.7c2.4,2.2,2.8,5.7,4.1,8.5c1.6-2.5,2.8-5.2,4.1-7.9c1.7,2.4,2.4,5.5,4.4,7.7
	c1.6-2.6,1.5-6.4,4.2-8.2c-1,4-2.8,7.7-4.1,11.6c-1.7-2.7-2.9-5.7-4.5-8.5c-1.4,2.8-2.8,5.7-4.2,8.5
	C214.6,89.6,212.9,85.7,212.2,81.7z"/>
<path fill="#5B5A5C" d="M34.3,85.1c0.3,0,0.8,0,1.1,0c0,3,0.1,5.9-0.1,8.9C33.1,91.6,34.6,88,34.3,85.1z"/>
<path fill="#5D595A" d="M41.2,84.9c0.5,0.4,1,0.9,1.5,1.4c2.1-1.5,5.5-1.9,7.1,0.6c0.5,2.4,0.4,5-0.4,7.3c-1.1-2.5,0.2-5.6-1.7-7.8
	c-1.9-0.9-4.4-0.1-5.3,1.8c-0.2,1.5-0.1,3.1-0.1,4.6c-0.3,0.3-0.9,0.8-1.1,1.1C41.2,90.8,41.2,87.8,41.2,84.9z"/>
<g>
	<path fill="#5B5A5C" d="M56.6,86.8c2-2.4,5.7-2.3,8.1-0.6c0.5-0.5,1-1,1.5-1.5c0.1,2.7,0.1,5.5,0.1,8.3c-0.6-0.2-1.2-0.3-1.8-0.5
		c-2.3,1.4-5.5,1.6-7.6-0.4C55.3,90.9,55.1,88.3,56.6,86.8z M58.6,86.5c-2,1-2.2,4-0.3,5.2c2.1,1.9,6.3,1,6.8-1.9
		C65.5,86.5,61,84.9,58.6,86.5z"/>
</g>
<g>
	<path fill="#5B5A5C" d="M94.8,85.3c3.1-1.2,7.9,0.5,7.6,4.4c-0.9,4.8-8.6,5.3-10.6,1.1C90.8,88.5,92.6,86.1,94.8,85.3z M94.5,86.6
		c-1.6,0.7-2.2,2.7-1.3,4.2c1.8,3.3,8.1,2.1,7.9-1.8C100.5,86.1,96.8,85.1,94.5,86.6z"/>
</g>
<g>
	<path fill="#5B5A5C" d="M107.8,85c1.8,2.2,4-0.5,6.2,0.1c3.1-0.2,5.8,3.6,3.9,6.3c-2.1,2.9-6.2,2.6-8.9,0.9c0,1.5-0.1,3-0.2,4.5
		c-0.8-0.6-1.1-1.3-1-2.2C107.7,91.4,107.9,88.2,107.8,85z M110.8,86.5c-1,0.6-2.4,1.9-1.8,3.3c0.9,3.9,7.2,3.8,8.5,0.1
		C117.7,86.5,113.4,85,110.8,86.5z"/>
</g>
<path fill="#656264" d="M141.7,84.5c1.8,2.6,0.7,5.9,1,8.9l-1.3,0.1C141.4,90.5,141.3,87.5,141.7,84.5z"/>
<g>
	<path fill="#5B5A5C" d="M148.8,91.6c-2.1-2.4-0.2-5.9,2.7-6.4c2.4-0.9,4.8,1.4,7.1,0c0,3.2,0.6,6.6-0.4,9.6
		c-2.7,2.5-8,2.4-10.1-0.7c2.3,0.7,4.8,2.3,7.3,1.2c1.4-0.4,2-1.9,2.7-3.1C155.1,93.1,151.2,94.3,148.8,91.6z M152.6,86
		c-1.8,0.2-3.7,1.6-3.4,3.5c0.7,3.9,7.5,4.1,8.4,0.2C158.1,87.1,154.8,85.5,152.6,86z"/>
</g>
<path fill="#5B5A5C" d="M164.8,84.5c1.9,2.6,0.5,6.4,0.8,9.5C163.2,91.5,164.7,87.6,164.8,84.5z"/>
<g>
	<path fill="#5B5A5C" d="M180.9,91.2c-1.8-2.7,1-5.9,3.8-6.1c2.2-0.6,4.7,2,6.5-0.2c0,2.9,0,5.8-0.1,8.8c-0.6-0.4-1.2-0.8-1.7-1.2
		C186.7,94.2,182.7,94.1,180.9,91.2z M185.2,86c-1.8,0.2-3.8,1.6-3.4,3.7c0.8,3.9,7.5,4,8.3,0C190.5,87.2,187.4,85.5,185.2,86z"/>
</g>
<g>
	<path fill="#5B5A5C" d="M237.2,85.2c2.9-0.8,6.8,0.5,7.4,3.7c-0.1,5.2-8.2,6.5-10.5,2.2C232.6,88.7,234.9,85.9,237.2,85.2z
		 M238.1,86c-2.2,0.4-4.4,3.1-2.6,5.1c2,2.7,7,1.9,7.8-1.4C243.6,87,240.4,85.5,238.1,86z"/>
</g>
<path fill="#5B5A5C" d="M249.6,85c0.6,0.3,1.1,0.6,1.7,0.9c1-0.4,2.1-0.7,3.2-1c-1.1,1-2.3,1.7-3.4,2.7c-0.8,2.1,0.5,4.9-1.4,6.6
	C249.4,91,249.5,88,249.6,85z"/>
</svg>
