<?xml version="1.0" encoding="utf-8"?>
<!-- Generator: Adobe Illustrator 18.1.1, SVG Export Plug-In . SVG Version: 6.00 Build 0)  -->
<svg version="1.1" id="图层_1" xmlns="http://www.w3.org/2000/svg" xmlns:xlink="http://www.w3.org/1999/xlink" x="0px" y="0px"
	 viewBox="0 0 194.1 55.5" enable-background="new 0 0 194.1 55.5" xml:space="preserve">
<path fill="#FCCB07" d="M28.3,0.2c8.9-0.3,17.8,0,26.7-0.1c-0.1,9,0.2,17.9-0.2,26.9c-6-5.1-11.1-11.1-16.8-16.6
	C34.8,7,31.2,3.9,28.3,0.2z"/>
<path fill="#010000" d="M63.7,0.6c1.9,0,3.9,0,5.8,0c0,2.8-0.2,5.7-0.1,8.5c1.7-2.7,2.9-5.6,4.3-8.4c2,0,4.1-0.1,6.1-0.1
	c-1.9,3.2-3.8,6.5-5.5,9.8c2.3,3.9,4,8.1,6.1,12.2c-2.1,0-4.2,0.2-6.2-0.1c-1.6-2.4-2.1-5.5-4.1-7.6c-0.9,2.5-0.7,5.2-0.7,7.9
	c-1.9,0-3.8,0-5.7,0C63.7,15.3,63.8,7.9,63.7,0.6z"/>
<g>
	<path d="M96.5,0.6c3.7,0.2,7.5-0.4,11.1,0.4c3.8,1.3,4.2,5.9,4.2,9.3c-0.1,3.8,0.4,8.6-3,11.2c-3.8,1.9-8.2,0.9-12.3,1.1
		C96.5,15.3,96.4,7.9,96.5,0.6z M102.3,4.1c-0.1,4.9-0.1,9.8,0,14.7c1.2-0.4,3.1-0.4,3.2-2.1c0.5-3.5,0.6-7.1,0-10.6
		C105.2,4.6,103.4,4.7,102.3,4.1z"/>
</g>
<path d="M115.3,0.6c4.4,0,8.7,0,13.1,0c0,1.5,0,3,0,4.5c-2.4,0-4.9,0-7.3,0c0,1.4,0.1,2.7,0.2,4.1c2.2,0,4.4,0,6.6,0
	c0,1.4,0,2.9,0.1,4.3c-2.3,0-4.5,0.1-6.8,0.3c0,1.5,0,2.9,0,4.4c2.5,0,5.1,0,7.6,0c0,1.5,0,3,0,4.5c-4.5,0-8.9,0-13.4,0
	C115.4,15.3,115.3,7.9,115.3,0.6z"/>
<path fill="#010101" d="M134.3,1.3c2.8-1.6,6.4-1.6,9.3-0.2c2.1,1.1,2.3,3.6,2.6,5.7c-1.7,0.1-3.3,0.1-5,0.2
	c-0.2-0.9-0.5-1.8-0.9-2.7c-0.8-0.2-1.6-0.3-2.5-0.3c-0.2,1.2-1.1,2.6,0,3.7c2.1,1.8,5.2,2.2,7.2,4.2c2.3,2.7,2.3,7.5-0.5,9.8
	c-3.2,2.1-7.8,2.2-11.1,0.1c-1.8-1.1-1.9-3.5-2.2-5.4c1.8,0,3.7,0,5.5,0c0.4,1.2,0.5,3.4,2.4,3.1c2,0,2.4-3.2,0.9-4.2
	c-2.5-1.6-5.8-2.3-7.5-5C131.2,7.4,131.5,3.2,134.3,1.3z"/>
<path d="M150.5,0.6c1.9,0,3.8,0,5.6,0c-0.1,7.3,0,14.7,0,22c-1.9,0-3.8,0-5.6,0C150.5,15.3,150.5,8,150.5,0.6z"/>
<path fill="#010101" d="M161,3.6c2-3.9,7.6-4.4,11.2-2.6c2.2,1.3,2.6,4.1,2.8,6.4c-1.7,0.1-3.5,0.1-5.2,0.2
	c-0.4-1.3-0.4-2.7-1.3-3.8c-1.3-0.2-2.6,0.5-2.6,1.9c-0.4,4-0.5,8,0.1,12c0.1,1.5,1.9,1.8,3,1.1c0.5-1.4,0.6-2.9,0.7-4.3
	c-0.6-0.1-1.7-0.3-2.2-0.4c0-1.2,0-2.4,0.1-3.6c2.5,0,4.9,0,7.4,0c0,4,0,8,0,12c-1.1,0-2.3,0-3.4,0c-0.1-0.4-0.4-1.2-0.5-1.7
	c-1.9,1.3-4.1,2.6-6.5,1.9c-3.2-0.5-4.5-4-4.6-6.8C159.7,11.9,159.2,7.5,161,3.6z"/>
<path d="M178.7,0.6c2,0,4.1,0,6.1,0c1.4,4.4,2.6,8.7,3.8,13.2c0.6-4.3,0.2-8.8,0.3-13.1c1.7,0,3.4-0.1,5.1-0.2
	c0,7.4-0.1,14.8,0,22.3c-2,0-4.1,0-6.1,0c-1.4-4.3-2.1-8.9-3.9-13.1c-0.4,4.3-0.1,8.7-0.2,13c-1.7,0-3.4,0-5.1,0
	C178.7,15.3,178.7,7.9,178.7,0.6z"/>
<path fill="#010101" d="M82.2,11.5c3.1,0.1,6.1,0.1,9.2,0c0,1.5,0,2.9,0,4.4c-3.2,0.1-6.3,0-9.5,0C82,14.4,82.1,12.9,82.2,11.5z"/>
<path fill="#FDCC09" d="M0.1,28.3c7.5,7.3,14.7,14.9,22.2,22.2c1.5,1.5,2.9,3,4.1,4.8c-8.8,0.3-17.5-0.1-26.3,0.2
	C0,46.4-0.1,37.3,0.1,28.3z"/>
<path fill="#FECB07" d="M27.4,39.5c0.1-4-0.4-8,0.5-11.9c8.9,0.3,17.7-0.1,26.6,0.3c-6.1,6.7-12.8,12.9-19.1,19.4
	c-2.5,2.5-4.9,5-7.6,7.3C27.1,49.6,27.5,44.6,27.4,39.5z"/>
<g>
	<path fill="#010101" d="M68.9,33.2c2.5-0.3,5-0.3,7.4,0c1.8,7.3,3.4,14.7,5.1,22c-1.9,0-3.8,0-5.7,0c-0.3-1.3-0.5-2.6-0.7-3.9
		c-1.6,0-3.1,0-4.7,0c-0.3,1.3-0.6,2.7-0.8,4c-1.9,0-3.8,0-5.7,0C65.5,47.9,67.3,40.6,68.9,33.2z M71,46.8c1,0,2,0,3.1,0
		c-0.4-3-0.8-6-1.3-9C72.1,40.8,71.7,43.8,71,46.8z"/>
</g>
<path fill="#010101" d="M80.8,33c1.8,0,3.6,0,5.5,0c0.6,5,1,10,1.9,15c0.7-4.9,1.5-9.8,2-14.7c1.8-0.2,3.5-0.2,5.3,0
	c0.6,4.8,1.5,9.5,1.9,14.3c0.1,0,0.4,0,0.6,0c0.3-4.8,1-9.7,1.5-14.5c1.8,0,3.6,0,5.5,0c-1.4,7.4-2.5,14.8-4,22.2c-2,0-4,0-6-0.2
	c-0.7-4.7-1.2-9.4-2.2-14.1c-0.8,4.8-1.3,9.6-2.2,14.3c-2,0-4-0.1-5.9-0.1C83.3,47.8,82.1,40.4,80.8,33z"/>
<g>
	<path fill="#010100" d="M109,33.2c2.4,0,4.8,0,7.2-0.1c1.9,7.3,3.5,14.7,5.2,22.1c-1.9,0-3.9,0-5.8,0c-0.2-1.3-0.4-2.6-0.6-3.8
		c-1.6,0-3.2,0-4.8,0c-0.3,1.3-0.5,2.6-0.8,3.9c-1.9,0-3.8-0.1-5.7-0.1C105.5,47.9,107.3,40.5,109,33.2z M112.7,37.6
		c-0.7,3-1.1,6.1-1.7,9.2c1.1,0,2.2,0,3.3,0C113.7,43.7,113.4,40.6,112.7,37.6z"/>
</g>
<g>
	<path d="M122.5,33.2c3.8,0.3,7.7-0.6,11.5,0.3c4.7,1.3,5,8.9,0.5,10.8c1.2,0.8,2.8,1.6,2.8,3.3c0.2,2.6-0.1,5.2,0.6,7.8
		c-1.9-0.1-3.9-0.2-5.8-0.3c-0.3-2.6,0.1-5.3-0.7-7.8c-0.5-1.2-2.1-0.7-3.1-1c-0.1,3,0,6-0.1,9.1c-1.9,0-3.8,0-5.6,0
		C122.6,47.9,122.5,40.5,122.5,33.2z M128.3,36.9c0,1.9,0.1,3.8,0.1,5.7c0.7-0.1,2-0.4,2.6-0.5c1.3-1.2,0.6-3,0.6-4.5
		C130.5,37.4,129.4,37.2,128.3,36.9z"/>
</g>
<g>
	<path d="M140.5,33.1c3.7,0.3,7.6-0.4,11.2,0.4c4.3,1.7,4,7.2,4,11c-0.1,3.4,0.2,8.1-3.4,9.8c-3.7,1.5-7.9,0.6-11.8,0.8
		C140.4,47.9,140.5,40.5,140.5,33.1z M146.2,37.4c-0.1,4.6,0,9.1-0.1,13.7c1-0.4,2.8,0.1,3.2-1.3c0.9-3.4,0.7-6.9,0.3-10.3
		C149.7,37.8,147.6,36.2,146.2,37.4z"/>
</g>
</svg>
