<?xml version="1.0" encoding="utf-8"?>
<!-- Generator: Adobe Illustrator 18.1.1, SVG Export Plug-In . SVG Version: 6.00 Build 0)  -->
<svg version="1.1" id="图层_1" xmlns="http://www.w3.org/2000/svg" xmlns:xlink="http://www.w3.org/1999/xlink" x="0px" y="0px"
	 viewBox="0 0 75.6 114.8" enable-background="new 0 0 75.6 114.8" xml:space="preserve">
<path fill="#CA0506" d="M0.2,74.6c0-24.9,0-49.7,0.1-74.6c25,0.1,49.9,0.1,74.9,0c-0.1,31.6,0,63.2-0.1,94.7c-9.9,0-19.7,0-29.6,0
	c-8.7-24.7-17.3-49.4-26.2-74C12.8,38.6,6.6,56.6,0.2,74.6z"/>
<path fill="#CA0506" d="M17.4,52.9c1.4-1,3.3-0.7,4.5,0.4c3.2,2.8,4.9,6.8,6.4,10.7c1.9,5.2,3.3,10.6,3.6,16.2
	c0.1,4-1.6,8.4-5.4,10.2c-4.2,1.9-9.2,1.9-13.5,0.4c-4-1.4-6.4-5.7-6.3-9.8c0-6,1.8-11.7,3.7-17.3C12.1,59.9,13.8,55.5,17.4,52.9z"
	/>
<path fill="#C0ACA8" d="M6.9,100.1c1.5,0.1,0.4,3.1-0.8,2.6C5.5,101.9,6,100.6,6.9,100.1z"/>
<g>
	<path fill="#CA0506" d="M9.2,100c2.1-0.2,3.7,0.7,5,2.3l0.5-0.2l0.5,0.1c0-0.5,0-1.5,0-1.9c1.1,0,2.2,0,3.3,0c0,0.1,0,0.4,0,0.6
		c-0.5,0.1-1.6,0.3-2.2,0.4c-1.6,1.9,1.6,1.6,2.6,2.3c-0.7,0.1-2,0.2-2.7,0.3c-1.4,2,1.8,1.8,2.9,2.4c-1.3,0-2.5,0.1-3.8,0
		c-0.1-0.4-0.4-1.1-0.6-1.5c-1.1-0.5-1.7,1.2-2.5,1.7c-1,0.1-2,0.1-2.9,0.1C9.2,104.3,9.2,102.2,9.2,100z M9.9,100.7
		c0,1.8,0,3.6,0,5.4c1.1-0.5,3.4-0.4,3.3-2.2C14,101.8,11.6,100.8,9.9,100.7z"/>
</g>
<path fill="#CA0506" d="M19.7,101.5c0.3-1.3,1.8-1.3,2.8-1.7c0,0.3,0.1,0.8,0.1,1.1c-0.7,0-1.9,0.1-2.6,0.2c1,1.1,2.2,2.1,3.2,3.3
	c0.1,0.9-0.6,1.7-0.9,2.5c-1-0.3-2-0.7-3-1c0.7-0.1,2.2-0.2,2.9-0.2C23.7,103.7,19.5,103.4,19.7,101.5z"/>
<path fill="#C07378" d="M25.5,103c1.2-1.1,2.1-2.8,3.8-3.2c1.3-0.4,2.2,0.9,3.1,1.5c-1.8,0-5.6-0.6-4.9,2.5c0.3,2.4,2.6,1.6,4.2,1.1
	c-0.6-0.4-1.9-1.2-2.6-1.5c1.3-0.2,2.6-0.3,3.9-0.4c-0.5,1.5-0.7,4.1-2.9,3.8C27.6,107.2,26.5,104.7,25.5,103z"/>
<g>
	<path fill="#D1787C" d="M65.1,100.2c1.9-0.6,3.6,0.1,4.6,1.8c-0.4,0.4-1.3,1.4-1.8,1.8c0.5,1,1,2,1.5,3c-0.9-0.4-1.7-0.9-2.6-1.4
		c-0.5,0.3-1.4,1-1.8,1.4C65.1,104.6,65.1,102.4,65.1,100.2z M66.3,101.5c-0.3,1.1,0.1,1.5,1.2,1.2
		C67.9,101.5,67.5,101.1,66.3,101.5z"/>
</g>
<g>
	<path fill="#C7757A" d="M70.2,99.9c1.6,0.3,3.7,0,4.7,1.5c1,1.1,0.9,2.8,0,3.9c-1.1,1.7-3.3,1-5,1.3C70,104.4,70.1,102.1,70.2,99.9
		z M71.2,101.4c0,1.4,0,2.7,0.1,4.1c1.6-0.1,3.4-0.4,2.9-2.4C74.3,101.2,72.4,101.6,71.2,101.4z"/>
</g>
<path fill="#C3686F" d="M0,106.5c0.8-2.2,1.8-4.3,3.2-6.2c1.6,1.8,2.2,4.3,2.9,6.5c-1.3-0.9-2.7-2-2.7-3.7c-0.1,0-0.3,0-0.4-0.1
	C3,104.6,1.8,106.8,0,106.5z"/>
<path fill="#A4484B" d="M24.4,103.9c0.2-0.9-0.4-2.8,0.7-3.2c0.6,1.6,0.3,3.3,0.3,5C24.6,107,24.2,104.4,24.4,103.9z"/>
<path fill="#CB8388" d="M34.8,106.9c-2.4-1.5-1-4.8-1-7.1c1.5,1.3,2.9,2.7,4.3,4.1c0.4-1-0.3-4.7,1.6-3.5c0.3,2.1,0.2,4.2,0.1,6.4
	c-1.8-1.1-3.3-2.4-4.8-3.9C35,104.2,34.9,105.5,34.8,106.9z"/>
<g>
	<path fill="#CA0506" d="M44.2,106.4c1.1-1.9,2-3.9,3.1-5.9c1.1,1.9,2,3.9,3,5.8C48.4,104.6,46.1,104.7,44.2,106.4z M46.7,103.2"/>
</g>
<path fill="#C37475" d="M49.8,100.1c1.3,1,2.1,2.4,2.9,3.8c0.4-1.3,0.9-2.6,1.4-3.9c0.9,1.2,1.7,2.5,2.5,3.8c0.7-1.4,1.3-3,2.5-4
	c-0.4,2.5-1.5,4.7-2.7,6.9c-0.7-1.3-1.5-2.6-2.2-3.9c-0.5,1.4-1,2.7-1.6,4.1C51.3,104.8,50.3,102.5,49.8,100.1z"/>
<path fill="#CA0506" d="M62.7,104.6c-0.5-1.8-3-2.4-1.1-4.3c1,2,1.9,4.1,3,6.1c-0.9-0.6-1.7-1.1-2.6-1.5c-1.3-0.1-2.2,1.1-3.3,1.7
	c0.5-1.1,1-2.2,1.6-3.3C60.8,103.5,62,104.2,62.7,104.6z"/>
<path fill="#FDFEFE" d="M46.7,103.2"/>
<g>
	<path fill="#3E393C" d="M9,109c1.1-1.4,2.5-0.9,3.9-0.5c-0.9,1.3-1.9,3.6,0.7,3c0,0.5,0.1,1.6,0.1,2.2c-1.7,0.1-4.3,1.4-5.2-0.9
		c0.4-1.1,0.9-2.1,1.3-3.2c0.4,0.1,1.3,0.3,1.7,0.5l0.2-1.4C11.1,108.8,9.7,109,9,109z M9.9,111.6c-0.7,1.1,1.1,2.5,1.9,1.4
		C12.4,112,10.7,110.6,9.9,111.6z"/>
</g>
<path fill="#555456" d="M18.3,109.9c0.9-2.4,3.8-2.2,5.8-1.8c-1.2,0.8-2.7,0.6-4,0.7c-0.4,1-1.8,2.2-0.8,3.3c1.1,1.7,3.2,1,4.8,1
	C22,116,16.8,113.2,18.3,109.9z"/>
<g>
	<path fill="#3E393C" d="M26.3,108.2c2.1-1.3,5.2,0.4,5.2,2.9c0,2.8-3.9,4.4-5.8,2.3C23.9,112,24.5,109.1,26.3,108.2z M26.9,108.7
		c-3.2,1.3-0.6,6.3,2.3,4.4C32.2,111.9,29.6,107.5,26.9,108.7z"/>
</g>
<g>
	<path fill="#3E393C" d="M33.1,107.8c0.9,1.5,1.7,3,2.5,4.6c0.8-1.5,1.6-3.1,2.4-4.6c0.8,1.5,0,4.3,1.8,5.1c0.8-1.5,0.5-3.1,0.5-4.7
		c1,0,2-0.1,3-0.1c0.2,0.8,0.8,1.7,0.3,2.5c-0.8,0.4-1.7,0.8-2.5,1.1c0.1,0.6,0.2,1.8,0.2,2.4c-1,0-1.9-0.1-2.9-0.2
		c-0.1-1.2-0.3-2.5-0.4-3.7c-0.8,1.1-1.6,2.3-2.5,3.5c-0.7-1.1-1.3-2.2-1.9-3.4c-0.4,1.5-0.7,3-1.6,4.3
		C32.2,112.4,32.7,110.1,33.1,107.8z M41.5,109c-0.4,1.1,0,1.5,1.2,1.2C43.1,109,42.7,108.6,41.5,109z"/>
</g>
<path fill="#3E393C" d="M44.6,107.9c2.6,0.1,5.2,0.1,7.8-0.1c-1.7,1.9-0.8,4.7-1.3,7c-0.8-2-0.6-4.2-0.7-6.3c-1.6-0.1-3.2,0-4.8,0
	c0,0.5,0.1,1.4,0.1,1.8c0.6,0,1.8,0,2.3,0l0,0.7c-0.7,0-2.1,0-2.8,0.1c-0.4,2.5,1.9,2.3,3.7,2.6c-1.4,0.4-2.9,0.5-4.3,0.6
	C44.6,112.2,44.6,110.1,44.6,107.9z"/>
<path fill="#676767" d="M53.5,107.8l1.2,0.1c0,2.3,0,4.7-0.3,7C53.5,112.6,53.7,110.1,53.5,107.8z"/>
<path fill="#3E393C" d="M55.2,107.8c1.9,0.1,3.9,0.2,5.8,0.3c-0.1,2.2-0.1,4.5-0.3,6.7c-0.9-2.1-0.5-4.3-0.5-6.5
	c-0.7,0.1-2,0.3-2.6,0.4c0,2,0,4.1-0.3,6.1C56.2,112.5,57.8,109.3,55.2,107.8z"/>
<g>
	<path fill="#3E393C" d="M63.1,108.4c2.1-1.6,5.8,0.1,5.4,2.8c0.1,3-4.3,4.2-6,1.8C61.2,111.6,61.9,109.5,63.1,108.4z M63.8,108.9
		c-1.6,0.7-1.6,3.1-0.2,4c1.4,1.3,4.1,0.2,4.1-1.8C67.8,109.2,65.3,107.7,63.8,108.9z"/>
</g>
<path fill="#3E393C" d="M69.7,107.8c1.7,1.5,3.2,3.1,4.8,4.6c0-1.5,0-3-0.1-4.5c0.2,0,0.6,0.1,0.9,0.2c-0.1,2-0.1,4.1-0.1,6.2
	c-1.6-1.6-3.2-3.1-4.8-4.7c0,1.5,0,3,0,4.5c-0.2,0-0.6,0-0.8,0.1C69.7,112.1,69.6,109.9,69.7,107.8z"/>
</svg>
