<?xml version="1.0" encoding="utf-8"?>
<!-- Generator: Adobe Illustrator 18.1.1, SVG Export Plug-In . SVG Version: 6.00 Build 0)  -->
<svg version="1.1" id="图层_1" xmlns="http://www.w3.org/2000/svg" xmlns:xlink="http://www.w3.org/1999/xlink" x="0px" y="0px"
	 viewBox="0 0 186.6 71.6" enable-background="new 0 0 186.6 71.6" xml:space="preserve">
<path fill="#A78868" d="M31.5,1.2c3.1,0.2,6.1-0.4,9-1.2c4.9,1.1,9.5,3.5,14.6,3.2c3.1-0.7,3.5,3.5,5.8,4.7c2.3,2.2,6.8,3.3,7,7
	c-1.8,2.5-4,4.8-6.4,6.8c-0.7-1.6-0.4-4.1-2.3-4.9c-2.5-1.3-6.1,0.3-6.3,3.3c-0.3,3.4,3.3,6.1,6.5,5.2c-1.4,2.2-1.1,6-4.2,6.5
	c-1.9-0.6-3.3-2.3-5.1-3.2c-5.1-1-10.5,0.3-14.2,4c-2.1-1.2-4.5-1.4-6.9-1.4c-0.4-4.2,0.7-8.7-2-12.4c-1.2-3.4-5.4-1.8-8.1-2.1
	c-0.1-2.7-0.1-5.4,0-8.1c4.4,0.3,8.4-1.8,12.4-3.5C31.4,3.8,31.5,2.5,31.5,1.2z"/>
<path fill="#AB8A68" d="M7.5,7c3.5-0.2,7.1-0.2,10.6-0.1c0.2,3.5,0.2,7.1,0,10.6c-3.6-0.1-7.1,0-10.6,0C7.5,14,7.6,10.5,7.5,7z"/>
<path fill="#3D373B" d="M4.6,18.7c2.4,0,4.9,0,7.3-0.1c0,2.3,0,4.6,0,7c-2.5,0-4.9,0-7.4,0.1C4.6,23.3,4.6,21,4.6,18.7z"/>
<path fill="#AC8B6A" d="M12.8,18.6c4,0,8-0.1,12-0.1c0,2.4,0,4.7,0,7.1c-1.6,0-3.2,0-4.8,0.1c0,1.6,0,3.1,0,4.7c-2.4,0-4.8,0-7.2,0
	C12.7,26.5,12.7,22.6,12.8,18.6z"/>
<path fill="#0B0606" d="M87.2,20.2c1.7,0.2,5-0.9,4,2.2c4.3-0.1,8.6,0.1,12.9-0.1c-1.5,1.1-2.8,2.5-4.6,2.9c-2.8,0.2-5.6-0.1-8.4,0
	v1.6c5.1,0.1,10.3-0.2,15.4-0.3c-1.4,1.3-2.8,3.3-5,3c-7.3,0.1-14.5-0.1-21.8,0c0.1,7.8,0,15.6,0,23.3c0.3,2.5-2.2,3.7-3.9,5.1
	c0.1-10.4,0-20.8,0-31.2c3.7-0.2,7.5-0.1,11.2-0.1C87.2,24.3,87.2,22.3,87.2,20.2z"/>
<path fill="#130F0B" d="M179.3,20.5c1.4,0.1,2.8,0.2,4.3,0.2c0.1,0.5,0.4,1.4,0.5,1.9c0.7-0.8,1.5-1.6,2.2-2.4
	c0.1,1.3,0.1,2.5,0.2,3.8c-1.3-0.3-2.7-0.3-4.1-0.2c0-0.8,0-2.3,0-3c-1.9,0.4-1.6,2.5-2.2,3.8C180,23.1,179.7,21.8,179.3,20.5z"/>
<g>
	<path fill="#080403" d="M126.1,22.1c1.2-1.2,4.1-2.1,4.9,0c3,0.1,6,0,8.9,0c0.1,1.5,0.1,2.9,0.2,4.4c0.6,0.1,1.8,0.3,2.4,0.4
		c-0.8,0.8-1.6,1.7-2.4,2.5c-0.1,2.1-0.1,4.2-0.1,6.3c-2.6-2.2-6.2-1-9.3-1.1c-0.7,7.7,0,15.5-0.2,23.3c-1.4-1-3.3-1.9-3.4-3.8
		c-0.3-6.5,0-13-0.1-19.5c-2.6,0-5.2-0.1-7.8,0c0-0.7,0.1-2.1,0.1-2.8c2.4,0,4.9,0.1,7.3,0c0.2-0.5,0.5-1.5,0.7-2
		c-2.7,0-5.4,0.1-8.1,0c0.1-1,0.2-1.9,0.3-2.8c2.6,0.1,5.2,0.1,7.8,0c-0.1-0.5-0.3-1.5-0.4-2c-2.6,0.1-5.2,0.2-7.7,0
		c0-0.9,0.1-1.8,0.1-2.7C121.6,22.1,123.8,22.3,126.1,22.1z M130.2,26.8c2.1,0.1,4.2,0.2,6.3,0.1c0.1-0.7,0.2-1.4,0.3-2.1
		C134.5,25.3,130.6,23.5,130.2,26.8z M130.6,29.7c0,0.7,0,1.3,0.1,2c2,0,4,0,6,0c0-0.5,0-1.5-0.1-2
		C134.6,29.6,132.6,29.7,130.6,29.7z"/>
</g>
<path fill="#060302" d="M153.2,21c1.1,0,2.3,0,3.4,0c-0.1,5.3,0,10.7-0.1,16c0.2,2-2,3-3.2,4.3C153,34.6,153.4,27.8,153.2,21z"/>
<path fill="#070403" d="M172.1,21c1.2,0,2.4,0,3.6,0c0,5.6,0,11.3,0,16.9c-1,1-2.1,2-3.2,3c-0.2-4.9-0.1-9.7-0.1-14.6
	c-2.9,0-5.7,0.1-8.6,0c-0.1,0.9-0.2,1.7-0.3,2.6c2.4-1.4,4.3,1.2,5.8,2.7c1.3,1.3,1.1,3.3,1.3,4.9c-2.3-1.6-4.4-3.5-6.6-5.3
	c-0.1,2.6-1.6,4.6-3.8,5.8c0-5.2,0.1-10.5,0-15.7c0.9,0,2.6-0.1,3.4-0.1c0,0.6-0.2,1.8-0.2,2.4c3,0,6,0,9,0
	C172.3,22.9,172.1,21.6,172.1,21z"/>
<path fill="#0C0B09" d="M145.9,24.8c0.7-0.7,1.5-1.5,2.3-2.2c3.1,1.5,4.6,4.9,3.8,8.2C149.8,28.9,147.9,26.8,145.9,24.8z"/>
<path fill="#413B3F" d="M20,25.7c1.6,0,3.2-0.1,4.8-0.1c0.8,0,2.3,0,3.1,0c0,2.6,0,5.3,0.1,7.9c-2.7-0.1-5.3-0.1-8-0.1
	c0-0.8,0-2.3,0-3C20,28.9,20,27.3,20,25.7z"/>
<g>
	<path fill="#3E393C" d="M0,26.8c4,0.1,7.9,0.1,11.9,0.1c0.1,2.1,0.2,4.2,0.2,6.3c-1.1,0-2.2,0-3.3,0c0,1,0,2.1,0,3.1
		c2.4,0,4.9,0,7.3,0c14.1,0,28.2,0,42.4,0c0,11.5,0,23.1,0,34.6c-16.9,0-33.7,0-50.6,0c0.1-10.8,0-21.5,0.1-32.3
		c-2.7,0-5.4,0-8.1-0.1C0,34.7,0,30.7,0,26.8z M15.6,45.5c0.3,1.8,0.7,3.5,1.1,5.2c0.7-1.5,0.6-3.5,1.9-4.7c1,1.1,0.4,2.9,0.7,4.2
		c0.3-0.1,0.9-0.4,1.2-0.6c1.8,0.8,3.8,0.4,5.7,0.3c0.1-1.6,0.1-3.2,1.1-4.5c-0.7-0.1-1.5-0.2-2.2-0.3c-0.1,1-0.2,2.1-0.2,3.1
		c-0.2-0.1-0.6-0.2-0.8-0.3c-0.7,0.6-1.5,1.2-2.2,1.9c0-1.2-0.1-2.5-0.1-3.7c0.9,0.2,1.9,0.3,2.8,0.5c-0.4-1.6-2.1-1.3-3.4-1.4
		c-0.1,0.6-0.4,1.8-0.6,2.4c-0.2-0.8-0.4-1.5-0.6-2.3C18.6,45.4,17.1,45.4,15.6,45.5z M28.3,45.2c-0.2,1.8-0.4,3.7-0.6,5.6
		c0.7-0.6,1.4-1.2,2.1-1.7c0.6,0.5,1.3,1.1,1.9,1.6c-0.1-0.8-0.3-1.6-0.4-2.4c0.1-0.5,0.2-1.6,0.3-2.2C31,44.9,29.4,45.5,28.3,45.2z
		 M37.4,45.4c0,1.7,0,3.4,0.2,5c0.3-1.4,0.7-2.8,1-4.2c0.2,1.2,0.4,2.5,0.6,3.7c1.4,0.6,2.8,0.3,4.2-0.3c0.2,0,0.5,0,0.7,0
		c0.4-0.4,1.1-1.3,1.4-1.7c0.5,0.9,0.9,1.8,1.4,2.7c0.7-0.6,1.5-1.3,2.2-1.9c0.6,0.5,1.2,1,1.8,1.5c-0.2-0.5-0.7-1.4-1-1.9
		c0.3-0.5,0.9-1.4,1.2-1.9c-1-0.5-2-0.9-3-1.4c-0.1,1.6-0.3,3.2-0.4,4.7c-0.9-1.4-1.8-2.8-2.6-4.1c-0.2,0.6-0.5,1.9-0.7,2.6
		c-0.7-1-1.4-1.9-2.1-2.9c-1.2,0.3-2.5,0.5-3.7,0.8C38.4,46.1,37.7,45.6,37.4,45.4z M35.9,46.4c-0.6,1-0.7,2.5,0,3.5
		C37,49.6,37.1,46.7,35.9,46.4z M22.9,53.9c1,2.2,1.6,4.6,1.9,7c0.8-0.8,1.1-2.5,2.5-2.4c0.4,0.8,0.9,1.8,1.3,2.6
		c0.6-2.5,1.6-4.9,2.7-7.2c-0.2,0-0.6,0-0.8,0c-0.5,1.7-1,3.4-2.3,4.6c-0.2-1.4-0.4-2.9-0.6-4.3c-0.9,0.9-0.9,2.1-1.2,3.3
		c-0.3,0.2-0.8,0.5-1.1,0.7c-0.4-1.4-0.6-2.8-0.9-4.2C24.1,53.9,23.3,53.9,22.9,53.9z M36.8,53.7c2.2,1.9,1,5,1.8,7.5
		c0.3-2.3,0.1-4.6,0-6.9c0.7,0.1,2.1,0.4,2.8,0.5c0.9,1.3-0.7,2.3-1.3,3.3c0.9,1.1,1.4,2.8,2.9,3.2c1.8,0.3,3.8,0,5.5-0.6
		c1.8-0.7,1.5-2.9,1.3-4.4C49,54,46.2,54,44.1,53.7c-0.1,2.4,1.4,6-1.3,7.3c-0.7-0.9-1.3-1.8-2-2.8c0.6-0.8,1.3-1.5,1.9-2.3
		C41.6,53.7,39,54.1,36.8,53.7z M19.9,53.7c-1.2,2.6-2.4,5.2-2.7,8.1c0.9-1.2,1.1-3.3,2.8-3.5c0.8,1.2,1.6,2.4,2.6,3.5
		C22.1,59,21.1,56.3,19.9,53.7z M34.2,57.8c-0.4-0.2-1.1-0.6-1.5-0.8c-0.6,1.6-1.3,3.2-1.7,4.9c1-0.6,1.2-1.7,1.5-2.7
		c0.4-0.4,1.2-1.1,1.6-1.4c0.7,1.4,1.6,2.7,2.6,3.9c-0.5-2.7-0.8-5.6-2.6-7.9C32.6,54.7,34.2,56.5,34.2,57.8z"/>
</g>
<g>
	<path fill="#060203" d="M109.1,26.9c3.1,0.1,6.2,0,9.3,0c0,7.5,0,15.1,0,22.6c-1.5-1.2-2.7-2.6-3.7-4.2c-0.5,0-1.5,0.2-1.9,0.2
		c-0.8,1.7-2.1,3.1-3.6,4.1C109.1,42.1,109.2,34.5,109.1,26.9z M112.6,29.9c0,4.2,0.1,8.4-0.1,12.5c0.6,0,1.9,0.1,2.5,0.1
		c-0.1-4.1,0.1-8.2-0.1-12.3C114.4,30.1,113.2,29.9,112.6,29.9z"/>
</g>
<path fill="#0B0706" d="M83.5,39.5c0-3,0-6.1,0-9.1c1.4-0.1,2.7-0.1,4.1-0.2c-0.1,0.5-0.3,1.4-0.3,1.8c4.5,0,9.1,0,13.6,0
	c-1.1,1-1.9,2.3-3.3,2.8c-3.4,0.3-6.8,0-10.3,0.1c0,0.4,0.2,1.3,0.2,1.7c5.4,0,10.8-0.1,16.2,0c-1.3,1.2-2.6,2.9-4.5,2.8
	C94,39.5,88.8,39.6,83.5,39.5z"/>
<path fill="#060302" d="M145.7,36.6c1.9-2.1,3.9-4.2,6.2-5.8c0.1,1.3,0.1,2.7,0,4c-1.1,1.6-2.6,2.9-4.1,4.2
	C147.1,38.1,146.4,37.4,145.7,36.6z"/>
<path fill="#B28F69" d="M8.9,33.2c1.1,0,2.2,0,3.3,0c1.3,0,2.6,0,4,0.1c0,1,0.1,2,0.1,3c-2.4,0-4.9,0-7.3,0
	C8.9,35.2,8.9,34.2,8.9,33.2z"/>
<path fill="#080605" d="M136,36.6c1,0,2.1-0.1,3.1-0.1c0.1,6.9,0.1,13.9,0.1,20.8c-1.3-1.3-3.3-2.5-3.1-4.6
	C136,47.3,136.1,42,136,36.6z"/>
<path fill="#090403" d="M119.4,36.6c0.8,0,2.4,0,3.1,0c0.1,5.9,0,11.8,0,17.7c-1,0.9-2,1.9-3.1,2.8
	C119.3,50.2,119.5,43.4,119.4,36.6z"/>
<path fill="#0A0606" d="M132,37.5c0.9,0,1.9,0,2.9,0c-0.1,4.5,0.2,8.9-0.1,13.4c-0.6,1.3-1.8,2.3-2.7,3.4
	C131.9,48.7,132.1,43.1,132,37.5z"/>
<path fill="#0C0707" d="M159.2,41.6c1.7-1.4,2.9-3.2,4.3-4.8c0.8,0.8,1.6,1.5,2.4,2.3c-0.7,0.9-1.4,1.8-2.1,2.7
	c4.4-0.1,8.8-0.1,13.1-0.1c-1.2,1.2-2.5,2.9-4.4,2.8c-3.7,0.2-7.4-0.1-11.1,0c-0.6,1-1.1,1.9-1.7,2.8c-2.6,2.6-4.6,5.6-7,8.4
	c-1.2,1.7-3.4,0.9-5.1,1.1c3.3-4.1,6.5-8.3,9.9-12.3c-4,0-8,0-12,0c0-0.7-0.1-2.1-0.1-2.9C150,41.7,154.6,41.8,159.2,41.6z"/>
<path fill="#070706" d="M123.4,37.4c0.7,0,2.2-0.1,3-0.1c0,4.9,0,9.9,0,14.8c-1-0.8-2-1.7-2.9-2.6C123.4,45.5,123.4,41.5,123.4,37.4
	z"/>
<path fill="#090505" d="M83.6,41.4c5.3-0.1,10.5-0.1,15.8,0c0,4.1,0,8.2,0,12.3c2.1-0.1,4.3-0.1,6.4-0.1c-1.1,1-2.2,2.1-3.5,2.8
	c-2.1,0.3-4.3,0.1-6.4,0.1c0-4.1,0-8.3,0-12.4c-2.9,0-5.8,0-8.7,0c-0.1,3.1,0.2,6.2-0.1,9.3c-0.5,1.5-2,2.4-3.3,3.3
	C83.5,51.6,83.8,46.5,83.6,41.4z"/>
<path fill="#72645B" d="M15.6,45.5c1.5,0,3,0,4.5,0c0.2,0.8,0.4,1.5,0.6,2.3c0.1-0.6,0.4-1.8,0.6-2.4c1.3,0.1,3-0.2,3.4,1.4
	c-1-0.2-1.9-0.3-2.8-0.5c0,1.2,0,2.4,0.1,3.7c0.7-0.7,1.4-1.3,2.2-1.9c0.2,0.1,0.6,0.2,0.8,0.3c0.1-1,0.1-2.1,0.2-3.1
	c0.7,0.1,1.4,0.2,2.2,0.3c-1,1.3-1.1,2.9-1.1,4.5c-1.9,0.1-3.9,0.5-5.7-0.3c-0.3,0.1-0.9,0.4-1.2,0.6c-0.3-1.4,0.3-3.1-0.7-4.2
	c-1.3,1.2-1.2,3.1-1.9,4.7C16.3,49,15.9,47.2,15.6,45.5z"/>
<path fill="#6C564A" d="M28.3,45.2c1.1,0.3,2.7-0.2,3.4,0.9c-0.1,0.5-0.2,1.6-0.3,2.2c0.1,0.8,0.3,1.6,0.4,2.4
	c-0.7-0.5-1.3-1.1-1.9-1.6c-0.7,0.5-1.5,1.1-2.1,1.7C27.9,48.9,28.1,47,28.3,45.2z"/>
<g>
	<path fill="#A78868" d="M37.4,45.4c0.3,0.2,1,0.7,1.4,0.9c1.2-0.3,2.4-0.5,3.7-0.8c0.7,1,1.4,1.9,2.1,2.9c0.2-0.6,0.5-1.9,0.7-2.6
		c0.9,1.4,1.8,2.7,2.6,4.1c0.1-1.6,0.2-3.2,0.4-4.7c1,0.5,2,0.9,3,1.4c-0.3,0.5-0.9,1.4-1.2,1.9c0.2,0.5,0.7,1.4,1,1.9
		c-0.6-0.5-1.2-1-1.8-1.5c-0.8,0.6-1.5,1.3-2.2,1.9c-0.5-0.9-1-1.8-1.4-2.7c-0.4,0.4-1.1,1.3-1.4,1.7c-0.2,0-0.5,0-0.7,0
		c-1.4,0.6-2.8,0.9-4.2,0.3c-0.2-1.2-0.4-2.5-0.6-3.7c-0.3,1.4-0.7,2.8-1,4.2C37.4,48.8,37.4,47.1,37.4,45.4z M39.6,49.6
		c0.7,0,2.2,0.1,2.9,0.1c-0.1-1.3-0.1-2.6-0.2-4C40,45.8,39.6,47.6,39.6,49.6z M48.9,46.3"/>
</g>
<path fill="#8C7E6E" d="M35.9,46.4c1.1,0.2,1.1,3.2,0,3.5C35.3,48.9,35.3,47.4,35.9,46.4z"/>
<path fill="#403C38" d="M39.6,49.6c0-1.9,0.4-3.7,2.7-3.8c0.1,1.3,0.2,2.6,0.2,4C41.8,49.7,40.3,49.6,39.6,49.6z"/>
<path fill="#4B3A2A" d="M48.9,46.3"/>
<path fill="#0C0706" d="M159.8,47.8c0.6-0.8,1.1-1.7,1.8-2.4c4.7,3.9,9.9,7.1,14.5,11.2c-2,0.1-4.4,1-6.1-0.5
	C166.5,53.4,163,50.8,159.8,47.8z"/>
<path fill="#B8A96E" d="M22.9,53.9c0.4,0,1.2,0,1.5,0c0.2,1.4,0.5,2.8,0.9,4.2c0.3-0.2,0.8-0.5,1.1-0.7c0.4-1.1,0.3-2.4,1.2-3.3
	c0.2,1.4,0.4,2.9,0.6,4.3c1.4-1.2,1.9-2.9,2.3-4.6c0.2,0,0.6,0,0.8,0c-1.2,2.3-2.1,4.7-2.7,7.2c-0.4-0.9-0.9-1.8-1.3-2.6
	c-1.4-0.1-1.7,1.6-2.5,2.4C24.5,58.4,23.9,56.1,22.9,53.9z"/>
<g>
	<path fill="#F3E19E" d="M36.8,53.7c2.1,0.4,4.8,0,5.9,2.2c-0.6,0.8-1.3,1.5-1.9,2.3c0.7,0.9,1.3,1.8,2,2.8c2.7-1.3,1.2-5,1.3-7.3
		c2,0.3,4.8,0.3,5.8,2.5c0.2,1.5,0.5,3.8-1.3,4.4c-1.7,0.7-3.7,1-5.5,0.6c-1.5-0.3-2-2.1-2.9-3.2c0.6-1,2.2-2,1.3-3.3
		c-0.7-0.1-2.1-0.4-2.8-0.5c0.1,2.3,0.3,4.6,0,6.9C37.9,58.7,39,55.6,36.8,53.7z M45.5,54.4c-1.1,2.1-0.3,4.6-0.5,6.9
		c1.3-0.4,2.7-0.7,4.1-1.1c0.1-1.5,0.2-2.9,0-4.4C48.2,54.8,46.8,53.9,45.5,54.4z"/>
</g>
<path fill="#A78868" d="M19.9,53.7c1.2,2.6,2.2,5.3,2.7,8.1c-1-1.1-1.8-2.3-2.6-3.5c-1.7,0.2-1.9,2.3-2.8,3.5
	C17.5,59,18.7,56.3,19.9,53.7z"/>
<path fill="#AC8B6A" d="M34.2,57.8c0-1.3-1.6-3.1-0.1-4c1.7,2.2,2.1,5.2,2.6,7.9c-1.1-1.2-1.9-2.5-2.6-3.9c-0.4,0.4-1.2,1.1-1.6,1.4
	c-0.3,1-0.5,2.1-1.5,2.7c0.5-1.7,1.1-3.3,1.7-4.9C33.1,57.2,33.8,57.6,34.2,57.8z"/>
<path fill="#38393C" d="M45.5,54.4c1.3-0.5,2.7,0.4,3.6,1.4c0.3,1.4,0.1,2.9,0,4.4c-1.4,0.4-2.7,0.7-4.1,1.1
	C45.2,59,44.5,56.5,45.5,54.4z"/>
<path fill="#040504" d="M75.8,65.2c2.1-1,4.7-1,6.8-0.1c-0.6,0.1-1.9,0.3-2.5,0.4c0,1.8,0,3.6,0,5.5c-0.4-0.1-1.1-0.2-1.5-0.2
	c0-1.8,0-3.5,0-5.3C77.9,65.4,76.5,65.3,75.8,65.2z"/>
<path fill="#040303" d="M83.5,64.6c0.4-0.1,1.1-0.2,1.4-0.3c0,2.2,0,4.4,0.1,6.7c-0.4,0-1.1-0.2-1.5-0.2
	C83.5,68.8,83.5,66.7,83.5,64.6z"/>
<path fill="#020100" d="M86.5,68.2c-0.6-3.7,5.3-5.4,6.7-1.9c-1.3-0.3-2.4-1-3.7-0.9c-2.3,0.9-1.7,5.1,1,4.7c2.5,0.5,0.2-1.5,0-2.5
	c0.9,0.1,1.8,0.2,2.6,0.3c-0.1,0.9-0.1,1.7-0.3,2.6C90.6,71.6,86.7,71.2,86.5,68.2z"/>
<path fill="#070706" d="M94.6,64.5c1.4,0,2.9,0,4.4-0.1c0,0.2,0.1,0.7,0.1,0.9c-0.7,0-2.2,0.1-3,0.2L96,66.9
	c1.1,0.1,2.1,0.4,3.1,0.8c-0.8,0.1-2.5,0.2-3.3,0.2c0.1,0.5,0.3,1.6,0.3,2.1c1,0,2,0,3,0c0,0.2-0.1,0.6-0.1,0.8
	c-1.5,0-2.9,0-4.4-0.1C94.6,68.8,94.6,66.7,94.6,64.5z"/>
<g>
	<path fill="#060203" d="M111.8,64.5c1.8,0.1,4-0.4,4.9,1.6c-1.9,1.7-0.5,3.5,0.3,5.3c-1.6-0.7-2.7-2.1-3.7-3.5
		c-0.1,1.3,0,2.8-1.4,3.4C111.8,69.1,111.8,66.8,111.8,64.5z M113.3,65.8c-0.4,1.3,0,1.8,1.4,1.3C115.1,65.7,114.6,65.3,113.3,65.8z
		"/>
</g>
<path fill="#060203" d="M118.6,65.5c2.2-2.7,7.4,0,5.7,3.4c-0.2,0.6-2.1,3.1-2.3,1.7c0.8-1.6,1.5-3.7,0.1-5.1
	c-3.3-0.9-3.6,3.3-1.8,5.1C117.6,71.5,116.7,66.9,118.6,65.5z"/>
<g>
	<path fill="#060203" d="M132.2,64.5c1.9,0,4.2-0.3,5,2c-0.4,0.4-1.2,1.2-1.7,1.6c0.7,1.1,1.4,2.1,2,3.3c-2-0.1-2.8-2-4-3.3
		c0,0.8,0,2.5,0,3.3C131,70.3,132.7,66.7,132.2,64.5z M133.7,65.7c-0.4,1.4,0.1,1.8,1.4,1.3C135.5,65.7,135,65.2,133.7,65.7z"/>
</g>
<path fill="#010101" d="M145.1,64c1.3,2.3,2.6,4.7,2.9,7.3c-0.9-0.7-1.9-1.4-2.8-2.2c0.1-0.5,0.3-1.6,0.4-2.1
	c-0.4,0.1-1.1,0.3-1.5,0.4c0.1,0.4,0.4,1.3,0.5,1.7c-1,0.7-1.9,1.4-2.9,2C142.8,68.8,143.9,66.4,145.1,64z"/>
<path fill="#060203" d="M148.3,64.2c1.9,0.3,1.8,2.8,2.6,4.2c0.5-1.2,1-2.4,1.7-3.5c0.3,0.5,0.8,1.6,1,2.1c-0.4,0.3-1.1,0.8-1.5,1
	c-0.4,1.2-1,2.4-1.5,3.6C149.6,69.2,148.5,66.7,148.3,64.2z"/>
<path fill="#060203" d="M159.3,64.1c1.5,2.2,2.4,4.7,3.2,7.3c-1.6-0.8-3.7-2.1-3.2-4.3l-0.5,0c-0.1,1.9-1.2,3.4-2.7,4.4
	C156.9,68.9,158,66.5,159.3,64.1z"/>
<path fill="#010100" d="M163.7,64.5c1.9,0,4-0.1,4.9,2c-0.4,0.4-1.2,1.2-1.6,1.5c0.6,1.1,1.3,2.3,1.8,3.5c-1.1-0.6-2.1-1.3-3.1-1.9
	c0.2-1.5,0.6-3,0.9-4.5c-2.7,0.6-1.2,4.1-1.7,6l-1.2-0.1C163.5,68.8,163.5,66.6,163.7,64.5z"/>
<g>
	<path fill="#030202" d="M169.8,64.5c1.6,0.1,3.4-0.3,4.9,0.7c1.5,1,1.8,3.4,0.5,4.7c-1.4,1.5-3.5,0.9-5.3,1.1
		C169.8,68.8,169.8,66.7,169.8,64.5z M171.4,65.2c-0.1,1.7-0.1,3.4-0.1,5.2c0.5-0.1,1.6-0.4,2.1-0.5
		C175.7,68.4,173.8,65.1,171.4,65.2z"/>
</g>
<g>
	<path fill="#060203" d="M100.6,64.5c1.8,0,4-0.3,4.9,1.8c-2.3,1.6,0,3.3,0,5.3c-1.3-1.1-2.5-2.3-3.6-3.5c0,0.7,0.1,2.1,0.1,2.9
		l-1.4-0.1C100.6,68.8,100.6,66.6,100.6,64.5z M101.9,65.8c0,0.4,0,1.1,0,1.5C104.2,69.4,104.4,63.5,101.9,65.8z"/>
</g>
<path fill="#060203" d="M125.3,69.6c0.8-1.9,1.7-3.7,2.9-5.4c1,2.2,2,4.3,3,6.5l-0.9,0.4c-0.8-0.7-1.5-1.3-2.3-1.9
	c0.1-0.6,0.3-1.8,0.4-2.4c-1,0.7-1.4,1.6-1.2,2.9L125.3,69.6z"/>
<path fill="#080403" d="M153.7,68c1.2-1.1,1.5-2.8,2.9-3.8c-0.7,2.4-1.1,5.2-2.9,7.1C152.8,70.1,152.2,68.8,153.7,68z"/>
<path fill="#0B0B0A" d="M125.5,69.9"/>
</svg>
