<?xml version="1.0" encoding="utf-8"?>
<!-- Generator: Adobe Illustrator 18.1.1, SVG Export Plug-In . SVG Version: 6.00 Build 0)  -->
<svg version="1.1" id="图层_1" xmlns="http://www.w3.org/2000/svg" xmlns:xlink="http://www.w3.org/1999/xlink" x="0px" y="0px"
	 viewBox="0 0 242.8 128" enable-background="new 0 0 242.8 128" xml:space="preserve">
<path fill="#CD9D48" d="M31.9,0c1,3.2,2.2,6.4,2.6,9.8c-0.5,3.3-0.6,6.7-0.9,10.1c-0.6-0.6-1.2-1.1-1.8-1.7
	c-1.2,2.5-2.1,5.1-2.2,7.8c-0.9,1.9-1.4,4-1.2,6.1c-3,4.6-6.5,8.8-9.3,13.4c-0.7,0.6-1.3,1.1-1.9,1.7c-4.9-7.1-9-15-10.4-23.6
	c2.7,1.9,5.7,4.4,9.3,3.2c5.5-2.1,8.9-7.3,11.5-12.3C29.7,9.8,30.8,4.9,31.9,0z"/>
<path fill="#D4AA54" d="M34.5,9.8c1.3,3.2,2.9,6.4,4,9.7c0.7,2.6,1,5.3,0.9,8c-0.4,0-1.1,0.1-1.5,0.1c-0.6,4.1-2.4,7.9-2.4,12.1
	c-0.2,0.1-0.5,0.2-0.7,0.3c-1,1-2.1,2-3.1,3.1c-0.8,2.9-2.4,5.6-5.1,7.3c0.4,0.8,0.8,1.7,1.2,2.5c-0.8,0-1.5,0-2.2,0
	c-0.4,0.7-0.7,1.4-1.1,2.1c-1.2-0.8-2.4-1.6-3.5-2.4c-1.7-1.5-2.8-3.4-4.1-5.3c0.6-0.6,1.3-1.1,1.9-1.7c2.8-4.6,6.3-8.8,9.3-13.4
	c-0.2-2.1,0.3-4.2,1.2-6.1c0.2-2.8,1-5.4,2.2-7.8c0.6,0.5,1.2,1.1,1.8,1.7C33.9,16.5,34,13.1,34.5,9.8z"/>
<path fill="#D7B562" d="M38.5,19.5c2.4,2.9,4.8,5.9,8.3,7.5c-0.2,0.3-0.5,1-0.7,1.3c0.9,0.4,1.7,0.8,2.6,1.2c-0.7,1.2-1.4,2.4-2,3.7
	c0.8,3.6-1,6.8-3.2,9.4c0.5,0.7,0.9,1.3,1.4,2c-1.2,0.5-2.4,1.1-3.6,1.7c0.3,0.3,0.8,0.8,1.1,1.1c-0.4,0.1-1.2,0.4-1.6,0.5
	c-0.4,1-0.8,2-1.2,3c-3.9,2-5.3,6.7-9.2,8.7c-0.5,0.3-1.1,0.5-1.6,0.8c-1.1-0.6-2.1-1.1-3.1-1.7c-1.9-1.7-3.1-3.9-4.3-6.1
	c1.1,0.8,2.3,1.6,3.5,2.4c0.4-0.7,0.7-1.4,1.1-2.1c0.7,0,1.5,0,2.2,0c-0.4-0.8-0.8-1.7-1.2-2.5c2.6-1.6,4.2-4.3,5.1-7.3
	c1-1,2-2,3.1-3.1c0.2-0.1,0.5-0.2,0.7-0.3c0-4.2,1.8-8,2.4-12.1c0.4,0,1.1-0.1,1.5-0.1C39.5,24.8,39.2,22.1,38.5,19.5z"/>
<path fill="#DEC271" d="M46.8,27c4,0.5,7.4-1.4,10.3-3.9c1,9.7-1.1,19.4-3.9,28.6c-0.1-0.5-0.2-1.5-0.3-2c-1.9,1.8-3.4,4-3.9,6.5
	c-0.7,0.4-1.3,0.9-2,1.3c-1.1,3.8-3.9,7.3-3.3,11.5c0.3,1.4-0.9,2.4-1.6,3.5c-1.2-0.2-2.5-0.3-3.7-0.4c-0.2,1.9-0.7,3.7-1.6,5.3
	c-1.5-0.6-2.9-1.1-4.3-1.7c-0.9-3.8-1.7-7.8-3.7-11.3c-1.1-2-2.3-3.9-3.3-5.9c1,0.6,2.1,1.2,3.1,1.7c0.5-0.3,1-0.6,1.6-0.8
	c4-2,5.3-6.7,9.2-8.7c0.4-1,0.8-2,1.2-3c0.4-0.1,1.2-0.4,1.6-0.5c-0.3-0.3-0.8-0.8-1.1-1.1c1.2-0.6,2.4-1.1,3.6-1.7
	c-0.5-0.7-1-1.3-1.4-2c2.3-2.6,4.1-5.8,3.2-9.4c0.7-1.2,1.3-2.4,2-3.7c-0.9-0.4-1.8-0.8-2.6-1.2C46.2,28,46.6,27.3,46.8,27z"/>
<path fill="#EBDB8C" d="M54.1,64.9c7.4-6.5,11.3-16.7,20.7-20.8c-1,3.3-1.1,6.8,0.7,9.9c-3.9,3-8,5.6-11.4,9.2c0,0.6,0,1.3,0,1.9
	c-0.5,0.4-1,0.8-1.5,1.2c0.8,3,0.6,6.2-0.1,9.2c-2,1.7-4.3,3.3-5.7,5.6c-1.3,2.7-1.7,5.7-2.8,8.4c-4.5,3.6-7.4,8.8-10.2,13.7
	c-0.3,0.2-0.9,0.7-1.1,0.9c-1.2,1.9-2.6,3.7-4.1,5.5c-4.8-2.3-10.2-2.8-15.2-4.2c0.4,0,1.1-0.1,1.4-0.1c2.3,0,4.9,0.6,6.6-1.3
	c2.9-2,1.6-6.5,4.8-8.2c1.8-1.2,3.7-2.3,4.1-4.6c1.6-0.6,3.3-1.1,4.7-2.1c2.7-5.4,2.2-12,5.8-17.1c1.1-1.3-0.8-2.6-1.2-3.8
	c0.5-0.1,1.5-0.4,2-0.5c-0.1-0.9-0.1-1.9-0.2-2.8C52,64.8,53.4,64.8,54.1,64.9z"/>
<path fill="#F8F3A5" d="M84.7,50.3c4.9-3.2,10.9-4,16.7-4.8c-1.7,2.8-4.5,4.6-6.3,7.3c-2.7,3.9-5.6,7.9-6.8,12.7
	c-0.7,2.6,0.3,5.7,2.7,7c2.7,1.4,5.9,1.2,8.8,1.6c-2.1,2.7-4.9,4.7-7.2,7.2c-6.5,4.8-14.6,6.4-21.6,10.2c-1.6,0.7-2.1,2.4-2.2,4
	c6.9,1.6,15.5,2.5,18.8,9.8c-2.9-1.2-6.4-3.9-9.4-1.7c-1.2,2.3,1.3,4,2.6,5.4c3.8,3.5,7,8.1,6.6,13.5c-5.5-3.1-12.1-5.3-18.4-3.7
	c-0.5,1.8-1.9,3.6-1.1,5.4c0.4,1.4,1,2.7,1.6,4c-10.3,0.5-18.4-7-24.7-14.2c1.3,0.3,2.6,0.7,3.8,1c0.4-1.7,0.9-3.4,1.4-5.1
	c1,0,1.9,0,2.9,0c0.5-2.8,1.4-5.6,3.2-7.9c0-0.3,0-1,0-1.3c3.6-4.1,6.7-8.7,10.7-12.5c0-0.4-0.1-1-0.1-1.4c0.4-0.1,1.1-0.3,1.5-0.4
	C68.1,85.6,68,85,68,84.3c3.7-5.6,7-11.7,7.9-18.5c1.9-1.4,4.1-2.8,5-5.1c1.4-3.7,4.2-6.4,6.8-9.2C86.7,51,85.7,50.6,84.7,50.3z"/>
<path fill="#D7A951" d="M4.4,48.2c5.8,2.4,10,8.4,10.1,14.8c0.2,3.8-0.6,7.9,1.3,11.4c1.3,2.3,3.9,3.4,6.3,4
	c-2.6,0.6-5.5,0.8-7.7-0.9c-2.8-1.4-3.9-4.5-4.6-7.4C6.4,75.5,5.9,82.6,9,88.3c0.9,1.7,2.1,3.2,3.4,4.6c-2.5,1.4-5,2.7-7.6,3.9
	C1.9,93.1,0.4,88.7,0,84.1c0.7-8,5.6-14.9,6.7-22.8C7.4,56.8,5.7,52.4,4.4,48.2z"/>
<path fill="#5A5A5A" d="M165.7,47.9c0.9,0.1,1.8,0.2,2.7,0.4c0,1.5,0,2.9,0,4.4c1.7,0,3.5,0,5.2,0c0,0.9,0,1.8,0,2.7
	c-1.7,0.1-3.5,0.2-5.2,0.3c0,2.1,0,4.2,0,6.3c1.7,0.1,3.4,0.2,5.2,0.3c-0.1,0.9-0.2,1.7-0.3,2.6c-1.6,0-3.3,0-4.9,0
	c0,4.8,0,9.5,0,14.3c-0.7,0-2,0-2.7,0c0.1-7.9-0.2-15.7-0.1-23.6c-2.4,0-4.8,0-7.1-0.1c0-0.9,0-1.9,0-2.8c2.4,0,4.8,0.1,7.2,0
	C165.6,51.1,165.6,49.5,165.7,47.9z"/>
<path fill="#5A5859" d="M205.8,56.2c0-2.8,0-5.6,0.1-8.4c0.7,0.1,2,0.3,2.7,0.4c0,1.7,0,3.5,0,5.2c2.1,0,4.2,0,6.3,0
	c0-1.9,0-3.7,0.1-5.6c0.7,0.1,2,0.2,2.7,0.2c0,5.5,0,11,0,16.5c-1,0-1.9-0.1-2.8-0.1c0-0.6,0-1.7,0-2.2c-3.7,0-7.3,0-11,0
	c0-0.7,0-2.1,0-2.8c3.7,0,7.4,0,11.1,0c-0.1-1.1-0.1-2.2-0.2-3.3C211.8,56.1,208.8,56.1,205.8,56.2z"/>
<g>
	<path fill="#5B5A5C" d="M128.3,48.8c3.7-0.1,7.3-0.1,11,0c3,5.1,8.3,8.3,14,9.7c0.1,1,0.3,2.1,0.4,3.1c-2.9-0.7-5.5-2-8.2-3.2
		c-0.1,0.6-0.3,1.7-0.4,2.3c-3.3,0-6.6,0-9.9,0c0,1.5,0,2.9,0,4.4c5.2,0.1,10.3,0,15.5,0.1c0,0.7,0,2,0,2.7c-5.2,0-10.3,0-15.5-0.1
		c0,2.5-0.1,4.9-0.1,7.4c2,0,4,0,6,0c0-1.5,0-3,0-4.5c1,0.1,2,0.2,2.9,0.4c0,1.4,0,2.8,0,4.1c3.1,0,6.2,0,9.2,0c0,0.7,0.1,2,0.2,2.6
		c-13,0-26,0.1-39,0c0-0.7,0-2,0.1-2.6c3,0,6,0.1,9,0c0-1.5,0-2.9,0-4.4c0.9,0.1,1.9,0.1,2.9,0.2c0,1.4-0.1,2.8-0.1,4.2
		c2.1,0,4.2,0,6.2,0c0-2.5,0-4.9-0.1-7.4c-5.2,0-10.3,0-15.5,0c0-0.7,0-2,0-2.7c5.2-0.1,10.4,0.1,15.6-0.1c0-1.5,0-3,0-4.4
		c-3.4,0-6.8,0-10.3,0c0-0.6,0.1-1.9,0.2-2.5c-2.6,1.7-5.5,2.8-8.5,3.5c0.1-0.7,0.3-2.1,0.3-2.9C119.7,57,125.3,54.1,128.3,48.8z
		 M123.1,57.9c7.1,0.3,14.3,0.3,21.4,0.1c-2.9-1.7-5-4.3-7.4-6.6c-2.5-0.1-5-0.4-7.4,0.3C127.7,53.9,125.8,56.3,123.1,57.9z"/>
</g>
<g>
	<path fill="#555456" d="M175.3,49.6c7.5-0.4,15.1-0.2,22.7-0.1c-0.1,1.4-0.4,3-2.2,2.5c-3.2,0.1-6.5,0-9.7,0.1
		c-0.4,1.3-0.7,2.5-1.1,3.8c3.3,0,6.5,0.1,9.8-0.1c0,2.2,0,4.3,0,6.5c1.3,0,2.7,0,4.1,0c0,0.6,0.1,1.9,0.1,2.5c-8,0-15.9,0-23.8,0
		c-0.1-0.8-0.2-1.6-0.3-2.5c1.7-0.1,3.5,0.1,5.2-0.4c0.4-1.2,0.8-2.4,1.1-3.7c-1.5,0-3.1,0.1-4.6,0.1c0.1-0.6,0.4-1.8,0.6-2.4
		c1.6-0.2,3.2-0.1,4.8-0.3c0.5-1.2,0.9-2.5,1.3-3.7c-2.7,0-5.3,0-8,0C175.3,51.4,175.3,50.2,175.3,49.6z M183,62.3c3,0,6,0,9.1,0
		c0-1.3,0-2.6,0-3.9c-2.6,0-5.3,0-7.9,0C183.7,59.7,183.3,61,183,62.3z"/>
</g>
<path fill="#5A5A5B" d="M220.9,52.2c2.7-0.5,5-2.2,7.5-3.3c4.2-0.2,8.3,0,12.5,0c-0.9,4.2-2.8,8.5-6.5,11c-3.9,2.7-8.8,3.3-13.4,3.3
	c0-0.6,0-1.9,0-2.5c3-0.2,6.1-0.3,9.1-1.3c0-1.6-1.8-2.3-2.7-3.4c0.7-0.6,1.1-2,2.3-1.6c1.2,1.1,2.1,2.4,3.2,3.6
	c2.1-1.7,3.7-3.9,4.8-6.4c-2.8-0.1-5.6-0.3-8.4,0c-2.7,1.2-5.2,3-8.2,3.4C220.9,54.3,220.9,52.9,220.9,52.2z"/>
<path fill="#E5CE7F" d="M49.1,56.2c0.5-2.6,2-4.7,3.9-6.5c0.1,0.5,0.2,1.5,0.3,2c-0.6,4.4-2.8,8.5-1.9,13c0.1,0.9,0.1,1.8,0.2,2.8
	c-0.5,0.1-1.5,0.4-2,0.5c0.5,1.2,2.3,2.5,1.2,3.8c-3.6,5.1-3.1,11.7-5.8,17.1c-1.4,1-3.1,1.4-4.7,2.1c-0.4,2.2-2.4,3.4-4.1,4.6
	c-3.1,1.7-1.8,6.3-4.8,8.2c-1.7,1.9-4.4,1.3-6.6,1.3c-0.4,0-1.1,0.1-1.4,0.1l-0.4,0c-2.9-0.5-5.7-1.2-8.4-2.5c4.2-1,7-4.4,9.8-7.3
	c-2.7-0.6-5.4-1.3-8.1-2.2c4.7,0.6,10.3-0.1,13.2-4.4c3.3-3.6,3.2-8.7,3-13.3c1.4,0.6,2.9,1.1,4.3,1.7c0.9-1.7,1.4-3.5,1.6-5.3
	c1.2,0.1,2.5,0.3,3.7,0.4c0.7-1.1,1.9-2,1.6-3.5c-0.6-4.2,2.2-7.7,3.3-11.5C47.7,57.1,48.4,56.7,49.1,56.2z"/>
<path fill="#F1E79A" d="M75.5,54c3.4-0.3,6.3-2,9.2-3.7c1,0.4,2,0.7,3,1.1c-2.6,2.8-5.4,5.6-6.8,9.2c-0.9,2.4-3,3.8-5,5.1
	c-1,6.8-4.2,12.9-7.9,18.5c0,0.7,0.1,1.4,0.2,2.1c-0.4,0.1-1.1,0.3-1.5,0.4c0,0.3,0.1,1,0.1,1.4c-4,3.8-7.1,8.4-10.7,12.5
	c0,0.3,0,1,0,1.3c-1.8,2.3-2.7,5-3.2,7.9c-1,0-2,0-2.9,0c-0.5,1.7-0.9,3.4-1.4,5.1c-1.3-0.4-2.6-0.7-3.8-1c-2.1-1.3-4.2-2.8-6.2-4.2
	c1.5-1.7,2.8-3.5,4.1-5.5c0.3-0.2,0.8-0.7,1.1-0.9c2.8-4.9,5.7-10.1,10.2-13.7c1.1-2.7,1.5-5.7,2.8-8.4c1.5-2.3,3.7-3.9,5.7-5.6
	c0.7-3,0.9-6.2,0.1-9.2c0.5-0.4,1-0.8,1.5-1.2c0-0.7,0-1.3,0-1.9C67.5,59.6,71.6,56.9,75.5,54z"/>
<path fill="#5C5A5A" d="M159.8,57.4c0.7,0,2,0,2.7,0c0.1,6.5,0,13,0,19.6c-0.7,0-2.1,0-2.8,0C159.7,70.5,159.7,63.9,159.8,57.4z"/>
<path fill="#5B595A" d="M221.2,64.5c0.9,0,1.9-0.1,2.9-0.1c0.1,0.6,0.3,1.8,0.3,2.4c5.7-0.1,11.5,0,17.2,0c0,0.7-0.1,2-0.1,2.6
	c-5.5,0-11.1-0.1-16.6,0.1c4.3,5.2,11.6,5.8,17.9,5.9c0,0.9,0,1.8,0,2.7c-6.7-0.3-14.6-0.8-19.1-6.5c-0.5-0.3-1.2-1.9-1.7-0.5
	c-4.4,6.2-12.9,6.8-19.9,6.9c0.1-0.7,0.2-1.9,0.2-2.6c6.1-0.5,13.5-0.6,17.5-6c-5.3-0.1-10.6,0-16-0.1c-0.1-0.7-0.2-2-0.2-2.6
	c5.7,0,11.4,0,17.2,0.1C221,66.2,221.1,65.1,221.2,64.5z"/>
<g>
	<path fill="#565657" d="M176,68.5c7.1,0,14.2,0,21.3,0c0,3.1,0,6.3,0,9.4c-7.1-0.1-14.2-0.1-21.3,0C176,74.8,176,71.7,176,68.5z
		 M178.7,71.2c0,1.4,0,2.7,0,4.1c5.3,0,10.5,0,15.8,0c0.1-1.4,0.1-2.7,0.2-4C189.4,71.1,184.1,71.3,178.7,71.2z"/>
</g>
<g>
	<path fill="#555456" d="M114.5,85.2c2.2,0.1,4.4-0.1,6.5,0.3c2,0.5,2.6,3.4,0.9,4.6c-1.7,1.2-4,0.6-5.9,0.8
		c-0.1,1.2-0.2,2.3-0.2,3.5c-0.3-0.2-0.9-0.7-1.2-0.9C114.4,90.7,114.6,87.9,114.5,85.2z M116,86.6c0,1,0,2,0.1,3.1
		c1.7-0.3,4,0.5,5.3-0.9C122,85.7,117.8,86.9,116,86.6z"/>
</g>
<path fill="#555456" d="M126.1,84.7c1.7,0.7,1.3,2.7,1.5,4.2c2.3,0,4.6,0,6.9,0c0.1-1.5-0.4-3.4,1.4-4.2c0.1,2.9,0.3,5.8,0,8.7
	c-0.3,0.2-0.8,0.7-1.1,1c-0.1-1.4-0.2-2.9-0.2-4.3c-2.3,0-4.7,0-7,0c0,1.3,0,2.5,0,3.8c-0.4,0-1.1-0.1-1.5-0.1
	C126,90.8,125.9,87.7,126.1,84.7z"/>
<g>
	<path fill="#555456" d="M142.4,85.5c3.3-1.2,8.2,0.2,8.1,4.3c-0.5,5-8.8,5.9-10.8,1.4C138.7,89,140.2,86.3,142.4,85.5z M143,86.8
		c-1.1,0.5-2.4,1.6-2.1,3c0.4,4.4,8.8,3.8,8.2-0.8C148.3,86.5,145.1,85.9,143,86.8z"/>
</g>
<path fill="#555456" d="M154.1,85.3c2.6,0.4,6.2-1.3,8.1,1.1c-2.2,0.2-4.4,0.2-6.6,0.3c0,0.5,0,1.5,0,2c2.1,0,4.2,0.1,6.3,0.2
	c-1.5,1.8-4.2,0.8-6.2,1.1c0,0.8,0,1.7,0,2.5c2.1,0,4.2,0,6.4,0l0,1.4c-2.6,0-5.2,0-7.8,0C154.1,91.1,154.1,88.2,154.1,85.3z"/>
<path fill="#5B5A5C" d="M165.1,84.9c4.1,0.8,5.6,5.3,8.9,7.5c0.6-2.4-1.2-6,1.2-7.7c0.4,3.2,0.3,6.4,0.3,9.5
	c-1.1-0.3-2.4-0.2-3.1-1.2c-2-2.1-3.8-4.3-5.9-6.3c0,2.6,0.1,5.1,0.1,7.7c-0.3-0.2-1-0.6-1.4-0.8C164.9,90.7,165,87.8,165.1,84.9z"
	/>
<path fill="#4E4D50" d="M179.2,85.3c0.4,0,1.1,0,1.5,0c0,2.8,0.1,5.7-0.1,8.5c-0.3,0.1-0.9,0.2-1.2,0.3
	C179,91.1,179.3,88.2,179.2,85.3z"/>
<path fill="#555456" d="M183.5,85.1c0.5,0,1.5,0.2,2.1,0.2c0.9,1,1.9,2,3,2.9c2.1-0.7,3.2-3.3,5.7-3.3c-1.3,1.6-2.8,3-4.3,4.5
	c1.4,1.7,3,3.2,4.5,4.8c-2.5,0.1-4-2.1-5.7-3.7c-1.5,1.5-2.9,3.6-5.3,3.6c1.4-1.5,2.9-3,4.3-4.6C186.3,88.1,184.8,86.6,183.5,85.1z"
	/>
<path fill="#5B5A5C" d="M199.4,86.5c0.4-0.9,1.1-1.3,2-1.3c2.8-0.1,5.5,0,8.3,0.2c-0.8,1.6-2.7,1.2-4.2,1.4c-0.1,2.5-0.1,5-0.1,7.6
	c-0.3-0.2-0.9-0.5-1.2-0.7c-0.3-2.3-0.1-4.6-0.1-6.9C202.5,86.7,200.9,86.6,199.4,86.5z"/>
<g>
	<path fill="#545354" d="M211.7,85.2c2.6,0.3,6.3-1,8.1,1.5c1.1,1.9-0.7,3.4-2.2,4.1c0.9,1,1.8,2,2.6,3.1c-2.9,0.3-3.9-3.8-7-3.4
		c-0.5,1.1,0.7,3.6-1.3,3.4C211.7,91.1,211.9,88.2,211.7,85.2z M213.3,86.4c0,0.8-0.1,2.5-0.1,3.3c1.8-0.4,5.1,0.9,5.7-1.5
		C218.3,85.7,215.1,86.7,213.3,86.4z"/>
</g>
<path fill="#555456" d="M223.8,85.2c2.7,0,5.3,0,8,0.2c-1.7,1.8-4.4,1.1-6.6,1.3c0,0.5,0.1,1.5,0.1,2c2,0,3.9,0.1,5.9,0.2
	c-1.3,2-4,0.8-6,1.1c0,0.6-0.1,1.9-0.1,2.5c2.2,0,4.4,0,6.6,0.1c-0.2,0.3-0.5,0.8-0.7,1.1c-2.4,0.5-4.9,0.2-7.4,0.1
	C223.8,91,223.8,88.1,223.8,85.2z"/>
<path fill="#565556" d="M234.5,85.3c2.5,0,4.9,0,7.4,0l0,1.4c-2.1,0-4.1,0-6.1,0c0,0.5,0.1,1.6,0.1,2.1c2.1,0.2,4.7-0.7,6.3,1.1
	c-2.1,0.2-4.3,0.2-6.4,0.2c0,0.9,0,1.7,0.1,2.6c2.2,0.4,5.4-1.1,6.8,1.2c-2.7,0.1-5.5,0.1-8.2,0.1C234.6,91.1,234.6,88.2,234.5,85.3
	z"/>
<path fill="#E2C16B" d="M9,88.3c2.3,1.9,4.5,4,7.3,5.1c2.6,0.9,5.3,1.6,8.1,2.2c-2.9,2.9-5.7,6.3-9.8,7.3c-3.9-0.8-7.1-3.3-9.8-6.1
	c2.6-1.2,5.2-2.5,7.6-3.9C11.1,91.4,9.9,89.9,9,88.3z"/>
</svg>
