<?xml version="1.0" encoding="utf-8"?>
<!-- Generator: Adobe Illustrator 18.1.1, SVG Export Plug-In . SVG Version: 6.00 Build 0)  -->
<svg version="1.1" id="图层_1" xmlns="http://www.w3.org/2000/svg" xmlns:xlink="http://www.w3.org/1999/xlink" x="0px" y="0px"
	 viewBox="0 0 161.8 68.4" enable-background="new 0 0 161.8 68.4" xml:space="preserve">
<path fill="#A98E3B" d="M0.3,0.1c23.5-0.1,47.1,0,70.6,0c-0.1,7.3,0,14.5,0,21.8C57.4,14.5,42.3,10.5,27.1,8.8
	c-9.1-1-19-0.7-26.9,4.5C0.2,8.9,0.2,4.5,0.3,0.1z"/>
<path fill="#A38C33" d="M85.6,2.6c2.4-2.3,6.1-2,9.2-1.6c1.1,0.8,0.6,2.3,0.7,3.4c-1.6-1.4-3.4-3.3-5.8-2.5
	c-4.4,0.9-4.2,7.7-0.7,9.6c1.2,0.8,2.8,0.6,4.2,0.7c0-1.9,0.3-4.1-1.6-5.2c1.4,0,2.8,0,4.3,0c-0.2,1.9-0.3,3.7-0.4,5.6
	c-3.2,1.1-7,1.1-9.9-1C83,9.5,83,4.9,85.6,2.6z"/>
<g>
	<path fill="#A89037" d="M102.1,1.3c4-1.9,10,0.6,9.7,5.5c0.3,4.8-5.3,8-9.5,6.2C97.1,11.4,96.9,3.1,102.1,1.3z M103.1,2.2
		c-4.1,2.5-1.9,11.5,3.5,9.9C111.5,9.9,108.8,0,103.1,2.2z"/>
</g>
<path fill="#9C8A3A" d="M113.7,1c1.5,0,3,0.1,4.5,0.1c-0.3,0.4-0.8,1.1-1.1,1.5c0,2.8-0.2,5.6,0.1,8.3c1.5,2.2,4,0.6,5.4-0.8
	c-0.4,1-0.4,2.1-1.1,2.9c-2.6,0.2-5.2,0-7.8,0.1C114.9,9.3,115.2,4.9,113.7,1z"/>
<g>
	<path fill="#A58935" d="M123.1,1.3c3.5-0.3,7.2-0.8,10.6,0.5c3.7,1.7,4,7.4,0.8,9.8c-2.9,2.4-6.9,1.3-10.3,1.6
		c0.7-3.6,0.4-7.3,0.4-11C124.2,2,123.5,1.5,123.1,1.3z M127.4,2c-0.2,3.2-0.6,6.5,0.1,9.7c0.8,1.2,2.7,0.5,3.9,0.3
		c3.3-1.1,3.6-5.9,1.4-8.2C131.4,2.2,129.2,2.3,127.4,2z"/>
</g>
<path fill="#A08636" d="M138.9,1c2.7,0.2,5.8-0.8,8.1,1.1c-1.6,0.1-3.3,0.1-4.9,0.1c0,1.4,0.1,2.7,0.2,4.1c1.3-0.1,2.5-0.1,3.8-0.2
	c0,0.5,0,1.6,0.1,2.1c-1.3-0.5-2.6-0.9-4-1.2c0,1.7,0.1,3.4,0.2,5.1c1.5-0.1,3.1-0.5,4.5-1.1c-0.1,0.5-0.4,1.5-0.5,2
	c-2.5,0-4.9,0-7.4,0.1C140.2,9.3,140.3,4.9,138.9,1z"/>
<path fill="#9E8030" d="M149.7,0.9c3.8,2,6.1,5.9,9.5,8.4c0-2.2,0-4.5,0.1-6.7c-0.5-0.3-1.4-0.9-1.8-1.2c1.2-0.1,2.5-0.2,3.7-0.3
	c-1,4.1-0.6,8.4-0.7,12.6c-3.5-2.5-6.2-5.8-9.4-8.7c0.2,2.8-0.5,5.8,1.3,8.2c-1.2,0-2.4-0.1-3.6,0C150.4,9.3,149.4,5,149.7,0.9z"/>
<path fill="#A78B39" d="M9,13.2c11-2.7,22.6-1.6,33.7,0.5c8.7,1.7,17.3,4.3,25.2,8.5c-17-5.8-35-10.3-53.1-7.9
	c-4.4,0.8-9.6,2-11.8,6.3C1.7,23.6,3.7,26,6,27.4C7,23,10.6,20,14.8,19c13.2-3.9,27.3-2,40.4,1.3c4.3,1.1,8.5,2.6,12.6,4.3
	C55.6,21.3,43,18.8,30.3,19c-5.7,0.3-11.7,0.6-16.8,3.5c-2.2,1.3-4.4,3.5-4,6.2c0.7,2.5,3.4,3.1,5.5,3.9c-0.1-2.5,0.9-5,3.2-6.2
	c6-3.7,13.4-4,20.3-4.1c10,0,20.1,1.3,29.5,4.6c-13.2-2.3-26.7-4.2-40-1.5c-3.4,0.8-7,1.8-9.2,4.7c-0.8,1.4-0.7,3.6,0.8,4.5
	c1.9,1.4,4.3,1.9,6.5,2.3c0.7-5.4,6.6-7.3,11.2-8.6c9.6-2,19.7-1.3,29.2,0.9c-9.3,0.1-19.1-1-27.8,2.9c-2.7,1.4-6,3.1-6.6,6.4
	c-1.6,9.9-2.7,19.9-4.4,29.8C18.7,67.8,10,63.9,5.1,56.5c-4-5.4-5.1-12.3-4.9-18.8C0.5,31.8-0.5,25.9,0.4,20C1.2,16,5.5,14.3,9,13.2
	z"/>
<path fill="#9E8133" d="M84.4,19.3c2.9,0.5,6.4-0.7,8.8,1.4c1.5,3-1.5,5.5-4.3,5.8c0.7-0.8,1.5-1.7,2.3-2.5c-0.2-2-1-3.7-3.2-3.9
	c0.4,3.8-1.3,8.4,1.5,11.5c-1.8-0.1-3.6-0.1-5.4-0.1c0.4-0.4,0.9-0.9,1.3-1.3C85.1,26.6,86.5,22.5,84.4,19.3z"/>
<path fill="#998330" d="M96.6,19.4c1.5,0,2.9,0,4.4,0c-0.3,0.3-0.8,0.9-1,1.2c0.2,3.6-0.8,7.4,0.9,10.7c-1.4,0.1-2.7,0.2-4.1,0.3
	C97.4,27.6,98.1,23.3,96.6,19.4z"/>
<path fill="#9F8639" d="M113.4,19.3c1.2,0,2.5,0,3.7,0c-1,4.2-0.4,8.5-0.9,12.7c-3.4-2.5-6.1-5.8-9.4-8.5c-0.1,2.7,0,5.3,0.7,7.9
	c-0.7,0.1-2,0.2-2.7,0.2c0.8-4.2,0.4-8.5,0.9-12.8c3.2,2.8,5.9,6,9.2,8.6c0-2.3,0-4.6,0-6.9C114.4,20.2,113.9,19.7,113.4,19.3z"/>
<path fill="#3E393C" d="M113.1,41.8c-1.1-3.7,3.9-5.3,6.6-3.9c0,0.8,1,2.6-0.3,2.9c-0.2-0.5-0.6-1.5-0.8-2c-1.3-0.1-2.6,0-3.9,0.4
	c0.6,3.5,6,3.7,5.7,7.6c-0.5,3.3-4.7,3.9-7.3,2.9c-0.3-1-0.5-2.1-0.6-3.1c0.8,0.8,1.6,1.7,2.6,2.4c1.5,0.3,3.5-0.3,3.3-2.2
	C116.9,44.7,114.3,44,113.1,41.8z"/>
<g>
	<path fill="#3F3E3F" d="M84.1,37.8c3.4-0.1,6.9-0.6,10.2,0.4c4.4,1.4,4.2,8.3,0.5,10.3c-3.1,2.1-7.1,0.8-10.6,1.2
		c0.5-0.7,1.4-1.3,1.3-2.2c0.1-2.9,0.2-5.8-0.1-8.7C85.1,38.6,84.4,38.1,84.1,37.8z M88,38.7c0,3.3,0,6.5,0.1,9.8
		c1.9,0.1,4.2,0.5,5.7-0.9c1.9-2.2,1.6-6.2-1-7.9C91.4,38.7,89.6,38.8,88,38.7z"/>
</g>
<path fill="#443E40" d="M100.2,37.9c2.9-0.2,5.8-0.3,8.7-0.4c0,0.6-0.1,1.9-0.1,2.5c-1.3-1.1-2.9-1.2-4.5-1.3c0,1.4,0,2.8,0.1,4.2
	c1.4-0.2,2.8-0.4,4.1-0.7c0,1,0,2,0,3c-0.4-0.3-1.1-1-1.4-1.4c-0.7,0-2,0.1-2.7,0.2c0,1.5,0.1,3,0.1,4.4c1.9,0.5,3.7-0.1,5-1.6
	c-0.2,0.9-0.3,1.9-0.5,2.8c-2.8,0.1-5.7,0-8.5,0.1c0.4-0.2,1.1-0.7,1.5-0.9c0.1-3.4,0.1-6.8,0.1-10.2
	C101.5,38.5,100.6,38.1,100.2,37.9z"/>
<path fill="#413E41" d="M124.1,37.7c1.5,0.1,3.1,0.1,4.6,0.2c-0.3,0.3-0.9,1-1.2,1.4c-0.2,3.1,0,6.2-0.1,9.2c0.4,0.3,1.2,1,1.6,1.3
	c-1.9-0.1-3.7-0.1-5.6,0c2-1.5,1.4-4.2,1.6-6.4C125,41.5,125,39.5,124.1,37.7z"/>
<path fill="#3F3B3B" d="M134.6,38.5c2.7-1.5,5.9-0.8,8.9-0.6c0,1.1,0.1,2.3,0.1,3.5c-0.6-0.7-1.2-1.5-1.7-2.2
	c-2-0.5-4.6-1.2-6.3,0.5c-2.3,2.5-1.3,7.1,1.7,8.6c1.2,0.7,2.7,0.7,4.1,0.8c-0.1-2,0.5-4.3-1.7-5.3c1.5,0,3,0,4.5,0
	c-0.3,1.8-0.3,3.7-0.6,5.5c-3.2,1.5-7.4,1-10.1-1.3C130.5,45.4,131.3,40.2,134.6,38.5z"/>
<path fill="#3C3537" d="M149.1,38.1c0.2-0.1,0.5-0.4,0.7-0.6c3,2.8,5.6,6,8.8,8.6c0-2.4,0-4.8-0.1-7.2c-0.5-0.2-1.5-0.6-2.1-0.8
	c1.6-0.1,3.3-0.2,4.9-0.2c-0.9,0.5-1.3,1.3-1.3,2.3c-0.1,3.4,0,6.7-0.2,10.1c-3.6-2.5-6.4-5.8-9.4-8.9c-0.1,2.9-0.6,6.1,1.1,8.6
	c-1.5-0.1-3-0.2-4.6-0.2c0.6-0.4,1.3-0.8,1.9-1.2C149,45.1,148.9,41.6,149.1,38.1z"/>
<path fill="#A88C3A" d="M41.8,45.2c0.6-0.7,1-2.3,2.3-1.8c8.9,1.1,17.9,1.2,26.7-0.5c0.2,8.5,0.1,17,0,25.5c-13.8,0-27.6-0.1-41.4,0
	C33.2,60.5,37.7,52.9,41.8,45.2z"/>
<g>
	<path fill="#424043" d="M83.3,67.8c3.8-3.1,4-8.6,6.9-12.4c2.2,4.2,3.3,8.9,6.2,12.7c-1.2,0-2.3-0.1-3.5-0.1
		c-0.4-1.4-0.9-2.7-1.4-4.1c-1.3,0-2.6,0.1-4,0.1c-0.3,0.8-0.6,1.5-0.9,2.3c0.1,0.4,0.4,1.3,0.6,1.7C85.9,68,84.6,67.9,83.3,67.8z
		 M89.5,59.4c-0.5,1.2-1,2.4-1.4,3.6c1.1,0,2.1,0,3.2-0.1C90.7,61.7,90.1,60.5,89.5,59.4z"/>
</g>
<path fill="#464546" d="M97.3,55.8c1.4,0.1,2.9,0.1,4.3,0.1c0.1,2.8,1,5.5,2.3,8c1-2.8,2-5.5,3.1-8.3c1.3,1.9,2.1,4.2,3,6.3
	c0.2,0.1,0.7,0.3,1,0.4c1.8-0.8,1.4-3.5,2.2-5.1c-0.4-0.4-1-1.1-1.4-1.4c1.4,0,2.7-0.1,4.1-0.2c-1.5,2.3-2.5,4.9-3.3,7.5
	c-0.6,0-1.8-0.1-2.5-0.1c0.6,0.1,1.8,0.4,2.4,0.5c-0.6,1.6-1.1,3.2-1.8,4.8c-1.6-2.6-2.6-5.6-3.9-8.4c-1.4,2.7-2.4,5.6-3.8,8.3
	C100.7,64.3,100.5,59.2,97.3,55.8z"/>
<g>
	<path fill="#413F42" d="M122.9,56.1c0.2-0.1,0.6-0.2,0.8-0.3c2.1,4.1,3.2,8.7,6.1,12.3c-1.2,0-2.4-0.1-3.7-0.1
		c-0.4-1.3-0.8-2.7-1.3-4c-1.3,0-2.6,0-4,0c-0.3,0.8-0.7,1.6-1,2.4c0.2,0.4,0.6,1.2,0.8,1.6c-1.3,0-2.7,0-4,0
		C120,64.9,120.5,59.9,122.9,56.1z M121.2,62.9c0.8,0,2.3,0.1,3.1,0.1c-0.5-1.2-1-2.5-1.4-3.7C122.3,60.5,121.8,61.7,121.2,62.9z"/>
</g>
<g>
	<path fill="#403F3F" d="M133,55.9c2.9,0.6,6.7-0.9,9,1.5c1.3,1.9-0.3,3.8-1.6,5.2c1.6,2.1,3.2,4,5.2,5.7c-1.4-0.3-3.3,0.2-4.3-1.2
		c-1.4-1.6-2.5-3.4-4.4-4.4c-0.3,1.9-0.2,3.8,0.8,5.5c-1.3,0-2.5,0-3.8,0c0.6-3.3,0.7-6.6,0.6-9.9C134.7,57.1,133.6,56.6,133,55.9z
		 M136.8,56.7c0,1.9-0.1,3.8,0,5.8c1.5-0.2,3.6-0.7,3.3-2.6C140.3,57.8,138.5,57,136.8,56.7z"/>
</g>
<g>
	<path fill="#3A3B3C" d="M148.3,55.9c3.5,0.3,7.2-0.5,10.4,0.8c3.9,1.6,4,7.7,0.7,10c-3,2.2-6.9,1.1-10.4,1.3
		c1.7-3.3,0.6-7.2,0.9-10.8C149.4,56.8,148.8,56.4,148.3,55.9z M152.3,56.8c0,3.4-0.3,6.8,0.3,10.1c2,0.3,4.6,0.4,5.9-1.4
		c1.3-2.3,1.1-5.6-1.1-7.3C155.9,57,154,57.1,152.3,56.8z"/>
</g>
</svg>
