<svg version="1.1" xmlns="http://www.w3.org/2000/svg" xmlns:xlink="http://www.w3.org/1999/xlink" x="0px" y="0px" viewBox="0 0 1400 1400" style="enable-background:new 0 0 1400 1400;" xml:space="preserve">
<style type="text/css">
    .st0{fill:transparent;stroke:#fff;stroke-width:10;stroke-linecap:round;stroke-linejoin:round;stroke-miterlimit:10;}

    svg {

        max-width: 400px;
        margin: 0 auto;
    }

    @keyframes offset {

        100% {

            stroke-dashoffset: 0;
        }
    }

    @keyframes fill {

        100% {

            fill: #fff;
            stroke: transparent;
        }
    }

    .sub_one path {

        stroke-dasharray: 4330;
        stroke-dashoffset: 4330;
        animation: offset 3s 1.5s linear forwards, fill 1.5s 4s ease forwards;
    }

    @keyframes eff_one {

        0% {

            opacity: 1;
        }

        70% {

            transform: translate(0px, -100px);
        }

        100% {

            opacity: 1;
            transform: translate(0px, 0px);
        }
    }

    .dots circle:nth-of-type(1) {

        opacity: 0;
        transform: translate(0px, 100px);
        animation: eff_one .5s 4.5s ease forwards;
    }

    @keyframes eff_two {

        0% {

            opacity: 1;
        }

        70% {

            transform: translate(0px, 100px);
        }

        100% {

            opacity: 1;
            transform: translate(0px, 0px);
        }
    }

    .dots circle:nth-of-type(2) {

        opacity: 0;
        transform: translate(0px, -100px);
        animation: eff_two .5s 4.5s ease forwards;
    }

    @keyframes eff_three {

        0% {

            opacity: 1;
        }

        70% {

            transform: translate(100px, 0px);
        }

        100% {

            opacity: 1;
            transform: translate(0px, 0px);
        }
    }

    .dots circle:nth-of-type(3) {

        opacity: 0;
        transform: translate(-100px, 0px);
        animation: eff_three .5s 4.5s ease forwards;
    }

    @keyframes eff_four {

        0% {

            opacity: 1;
        }

        70% {

            transform: translate(-100px, 0px);
        }

        100% {

            opacity: 1;
            transform: translate(0px, 0px);
        }
    }

    .dots circle:nth-of-type(4) {

        opacity: 0;
        transform: translate(100px, 0px);
        animation: eff_four .5s 4.5s ease forwards;
    }

    @keyframes eff_five {

        0% {

            opacity: 1;
        }

        70% {

            transform: translate(100px, 100px);
        }

        100% {

            opacity: 1;
            transform: translate(0px, 0px);
        }
    }

    .dots circle:nth-of-type(5) {

        opacity: 0;
        transform: translate(-100px, -100px);
        animation: eff_five .5s 4.7s ease forwards;
    }

    @keyframes eff_six {

        0% {

            opacity: 1;
        }

        70% {

            transform: translate(100px, -100px);
        }

        100% {

            opacity: 1;
            transform: translate(0px, 0px);
        }
    }

    .dots circle:nth-of-type(6) {

        opacity: 0;
        transform: translate(-100px, 100px);
        animation: eff_six .5s 4.7s ease forwards;
    }

    @keyframes eff_seven {

        0% {

            opacity: 1;
        }

        70% {

            transform: translate(-100px, -100px);
        }

        100% {

            opacity: 1;
            transform: translate(0px, 0px);
        }
    }

    .dots circle:nth-of-type(7) {

        opacity: 0;
        transform: translate(100px, 100px);
        animation: eff_seven .5s 4.7s ease forwards;
    }

    @keyframes eff_eight {

        0% {

            opacity: 1;
        }

        70% {

            transform: translate(-100px, 100px);
        }

        100% {

            opacity: 1;
            transform: translate(0px, 0px);
        }
    }

    .dots circle:nth-of-type(8) {

        opacity: 0;
        transform: translate(100px, -100px);
        animation: eff_eight .5s 4.7s ease forwards;
    }
</style>
<g class="feat">
    <g class="sub_one">
        <path class="st0" d="M681.5,231.3c0.2-12,13-21.2,24.4-18.2c9.8,2,16.5,12.1,15.5,22c-0.8,138.7-1.3,277.4-2.2,416.1
        c32.8-32.1,65.7-64.2,98.5-96.3c6.7-7.2,18.8-8.2,26.6-2.1c9.6,6.9,10.6,22.5,1.9,30.5c-32.9,32.3-65.9,64.5-98.9,96.6
        c85.6-0.1,171.2,0.1,256.8-0.1c9.4-1.1,20.3,2.1,24.3,11.5c6.6,12.7-4,29.6-18.3,28.8c-86.9,0.1-173.7,0-260.6,0
        c32.1,31.7,64.5,63,96.6,94.6c7.5,7,8,19.8,1.3,27.5c-7.2,8.9-21.8,9.4-29.6,1c-32.9-32.1-65.7-64.3-98.7-96.4
        c1,136.7,1.3,273.4,2.3,410.1c0,7.2,0.7,15.4-4.6,21.2c-7.3,9.5-23.1,9.7-30.7,0.3c-6-6.3-4.8-15.6-4.8-23.5
        c-1-136.2-1.2-272.4-2.4-408.6c-32.9,32.4-66,64.5-99,96.8c-6.1,6.4-16.3,8.1-24,3.8c-11.7-5.9-14.1-23.6-4.3-32.4
        c32.2-31.5,64.5-62.8,96.6-94.4c-86.9-0.1-173.8,0-260.6,0c-10.8,0.4-20.6-9.3-20.1-20.1c-0.4-10.8,9.4-20.5,20.2-20.1
        c87.6-0.1,175.1,0,262.7,0c-32.9-32.2-65.9-64.3-98.8-96.5c-8.3-7.7-8-22.5,0.9-29.7c7.6-7,20.5-6.3,27.5,1.2
        c33,32.3,66.1,64.5,99.1,96.8C680.2,511.6,680.3,371.4,681.5,231.3z"/>
    </g>
    <g class="dots">
        <circle fill="#fff" cx="701.5" cy="170" r="21"/>
        <circle fill="#fff" cx="701.5" cy="1225.6" r="21"/>
        <circle fill="#fff" cx="1080.5" cy="699" r="21"/>
        <circle fill="#fff" cx="320.1" cy="699" r="21"/>
        <circle fill="#fff" cx="879" cy="877" r="21"/>
        <circle fill="#fff" cx="878.7" cy="521" r="21"/>
        <circle fill="#fff" cx="518" cy="518" r="21"/>
        <circle fill="#fff" cx="520" cy="875" r="21"/>
    </g>
</g>
</svg>