<?xml version="1.0" encoding="utf-8"?>
<!-- Generator: Adobe Illustrator 23.1.0, SVG Export Plug-In . SVG Version: 6.00 Build 0)  -->
<svg version="1.1" id="图层_1" xmlns="http://www.w3.org/2000/svg" xmlns:xlink="http://www.w3.org/1999/xlink" x="0px" y="0px"
	 viewBox="0 0 595.3 595.3" style="enable-background:new 0 0 595.3 595.3;" xml:space="preserve">
<style type="text/css">
	.st0{fill:#FFFFFF;}
</style>
<g>
	<path class="st0" d="M32.1,270.7c0,11.9,0,22.7,0,33.9c1.6,0.1,2.9,0.3,4.1,0.3c28,0,55.9-0.1,83.9,0c3.2,0,6.4-0.5,7.2-3.8
		c0.6-2.4,0.3-5.8-1.1-7.7c-1.3-1.7-4.5-2.7-6.9-2.7c-23.5-0.2-47.1-0.2-70.6,0c-4.3,0-5.2-1.3-5.1-5.2c0.3-7.6,0.1-15.3,0.1-23.2
		c1.4-0.1,2.7-0.2,4-0.2c22.5,0,45,0,67.5,0c5.4,0,8.5-2.5,8.5-6.9c0-4.4-3.2-7.3-8.2-7.3c-26,0-52.1,0.1-78.1,0
		c-3.7,0-5.7,0.5-5.6,5c0.1,2.3-1.4,5.1-3.1,6.8c-8.1,8.4-16.4,16.6-25.3,25.4c0-22.1,0-43.4,0-64.9c0.9-0.2,1.7-0.5,2.6-0.5
		c38.2,0,76.3-0.2,114.5,0c19.5,0.1,33.4,14.8,32.4,33.9c-0.4,7.6-2.9,14.4-8.2,20.4c6,5,10.5,10.6,12.1,18.2
		c4.4,20.3-10.5,40.4-31.3,40.6c-39.7,0.4-79.3,0.1-119,0.2c-2.8,0-3.5-1-3.5-3.6c0.1-9.6,0-19.2,0.1-28.9c0-1.2,0.3-2.8,1.1-3.6
		C13.3,288.6,22.3,280.1,32.1,270.7z"/>
	<path class="st0" d="M257,333.3c-9.1,0-17.5-0.1-25.9,0c-2.8,0-3.1-1.4-3.1-3.6c0-8.9-0.2-17.8,0-26.6c0-3.1-0.7-5.5-2.9-8
		c-21.2-23.9-42.3-47.8-63.4-71.8c-0.7-0.8-1.4-1.8-2.8-3.5c12.9,0,24.8-0.1,36.7,0.1c1.2,0,2.6,1.3,3.5,2.3
		c14.1,16,28.1,32,42.1,48c0.4,0.4,0.8,0.8,1.7,1.5c6.3-7.2,12.6-14.2,18.8-21.3c8.5-9.6,17.1-19.3,25.7-28.8
		c0.8-0.9,2.2-1.7,3.4-1.7c11.6-0.1,23.3-0.1,36-0.1c-1.6,2-2.3,3.1-3.3,4.1c-21.5,24.2-43.1,48.3-64.5,72.6
		c-1.1,1.3-1.8,3.4-1.8,5.1c-0.2,8.7,0,17.5,0,26.2C257.3,329.5,257.1,331.1,257,333.3z"/>
	<path class="st0" d="M345.3,295.9c5.5,0,10.8,0,16.1,0c3.7,0,7.4,0.3,11.1-0.1c1.5-0.2,2.8-1.8,4.2-2.8c-1.3-0.9-2.6-2.6-4-2.6
		c-9.9-0.2-19.8-0.1-29.7,0c-1,0-2.2,0.7-2.8,1.5c-3.4,4.4-6.6,9-10.6,14.5c-0.7-2.3-1.1-3.1-1.1-3.8c0-6.7,0.1-13.3,0-20
		c-0.1-2.7,0.9-3.6,3.6-3.6c14.3,0.1,28.7-0.1,43,0.2c10.5,0.2,16.5,9.6,12.3,19.3c-0.9,2.1-0.9,3.2,0.6,5c6.3,8.2,1.3,20.6-8.8,21
		c-15.9,0.7-31.9,0.4-47.9,0.4c-0.9,0-2.2-1.9-2.5-3.1c-2.3-10,4-15.7,11.6-21.5c0,4.5,0,8.5,0,13.1c3.8,0,7,0,10.2,0
		c8,0.1,16,0.3,24,0.1c1.5,0,2.9-1.7,4.3-2.6c-1.4-1.1-2.9-3.1-4.3-3.1c-9.6-0.3-19.2-0.1-29.1-0.1
		C345.3,303.6,345.3,300.2,345.3,295.9z"/>
	<path class="st0" d="M478.1,287.8c4.7,0,9.4-0.1,14.2,0c8.2,0.1,13.5,5.4,13.4,13.5c0,3.1,0,6.2,0,9.3c0,8.5-5.4,14.1-13.9,14.2
		c-9.4,0.1-18.9,0.2-28.3,0.2c-7.2,0-12.7-5.7-12.8-12.9c-0.1-3.5,0-7.1-0.1-10.6c-0.2-7.7,5.2-13.3,13-13.5c2.5-0.1,5-0.1,7.5-0.1
		C473.4,287.8,475.8,287.8,478.1,287.8C478.1,287.8,478.1,287.8,478.1,287.8z M478.1,314c0,0,0-0.1,0-0.1c4.3,0,8.6-0.1,12.9,0
		c2.7,0.1,4.1-1.4,3.7-3.8c-0.5-3.8,2.2-8.2-1.8-11.5c-0.3-0.2-0.9-0.2-1.3-0.2c-8.9,0-17.8-0.1-26.6,0.3c-1.2,0-3.5,2.4-3.3,3.4
		c0.6,3.9-2.4,8.7,2.3,11.7c0.8,0.5,2,0.2,3.1,0.2C470.8,314,474.5,314,478.1,314z"/>
	<path class="st0" d="M390.9,278.9c8-0.5,15.3-2,20.5,6c3.3,5.1,8,9.4,12.5,14.6c4.2-4.7,8.9-8.7,12.1-13.7
		c5.2-8.2,12.7-7.5,21.4-6.8c-1.5,1.9-2.4,3.2-3.5,4.5c-6.5,7.4-12.9,15-19.8,22.1c-3.4,3.5-4.7,7.1-4.2,11.8c0.2,2.2,0,6.2-0.9,6.5
		c-2.9,1-6.3,0.7-9.5,0.6c-0.5,0-1.6-1.9-1.4-2.7c1.7-8.9-2.8-15-8.5-21c-5.6-5.9-10.6-12.3-15.9-18.4
		C392.8,281.4,392.1,280.4,390.9,278.9z"/>
	<path class="st0" d="M594.4,314.6c0,3.3,0,6.5,0,9.6c-9.2,1.9-15.1-0.7-19.5-8.4c-0.4-0.7-0.6-1.7-0.6-2.5c0-11.4,0-22.7,0-34.7
		c3.2,0,6.9-1,9,0.3c1.7,1.1,1.4,5.1,2.1,8.1c2.7,0.5,6.5,0.2,8.6,1.9c1.4,1.1,0.3,5.2,0.3,8.2c-3.2,0.5-7.8-0.1-9,1.6
		c-1.6,2.3-0.7,6.5-0.6,9.9C585,314.9,589.9,314.3,594.4,314.6z"/>
	<path class="st0" d="M551.2,324.9c-10.5,0-19.7,0.2-29-0.1c-4.7-0.1-11-7.9-11.1-12.7c0-7,0.1-13.9-0.1-20.9
		c-0.1-2.7,0.9-3.6,3.6-3.6c8.9,0.1,7.1-0.3,7.2,7c0.1,4.6,0,9.2,0,13.8c0.1,4.1,1.9,5.9,6,5.9c1.5,0,3,0.2,4.4-0.1
		C541,312.4,545.5,318.5,551.2,324.9z"/>
	<path class="st0" d="M557.7,319.4c-1.5,0.9-2.7,1.6-4.2,2.5c-2-2.2-3.9-4.3-6-6.6c0.9-1,1.6-1.9,2.5-2.7
		c6.2-5.4,10.1-11.7,8.3-20.3c-0.9-4.3,1.7-4.7,5.1-4.7c3.3,0,5.5,0.1,5.4,4.6c-0.3,9.1-0.3,18.3,0,27.4c0.2,4.2-0.9,6.1-5.3,5.4
		c-1.6-0.2-3.2,0-5,0C558.2,323.1,558,321.5,557.7,319.4z"/>
</g>
</svg>
