<?xml version="1.0" encoding="utf-8"?>
<!-- Generator: Adobe Illustrator 23.1.0, SVG Export Plug-In . SVG Version: 6.00 Build 0)  -->
<svg version="1.1" id="图层_1" xmlns="http://www.w3.org/2000/svg" xmlns:xlink="http://www.w3.org/1999/xlink" x="0px" y="0px"
	 viewBox="0 0 595.3 595.3" style="enable-background:new 0 0 595.3 595.3;" xml:space="preserve">
<style type="text/css">
	.st0{fill:#fff;}
</style>
<g>
	<path class="st0" d="M61.6,276.1c-19.5,0-38.5,0-57.7,0c0-84.2,0-168.2,0-252.5c17.6,0,35,0,52.8,0c27,41.6,54.2,83.3,82,126.2
		c27.7-42.7,54.9-84.4,82.1-126.4c1,0,2,0,3,0c19.8,0.2,39.7-0.8,59.3,0.7c45.7,3.6,80.3,26.2,101.9,66.5
		c39.3,73.1-1.8,163.1-82.6,182.1c-9.4,2.2-19.2,3.1-28.8,3.4c-17.7,0.5-35.5,0.1-53.2,0.1c-1.4,0-2.8,0-4.5,0c0-24.6,0-48.8,0-72.9
		c0-24,0-48,0-72c-0.5-0.2-0.9-0.4-1.4-0.6c-18,26.9-35.5,54.1-53.4,81.1c-14.9,0-29.8,0-45,0c-17.7-26.5-35.4-53.1-53.2-79.7
		c-0.5,0.2-0.9,0.4-1.4,0.6C61.6,180.4,61.6,228.2,61.6,276.1z"/>
	<path class="st0" d="M417.9,276.1c0-84.2,0-168.2,0-252.4c19.7,0,39.3,0,59.3,0c0,66.1,0,132,0,198.4c38.7,0,77.1,0,115.7,0
		c0,18.2,0,36,0,54C534.7,276.1,476.5,276.1,417.9,276.1z"/>
	<path class="st0" d="M8.7,441.4c1.5-2.6,2.9-5.1,4.5-8c7.7,4.4,15.1,8.7,22.7,13.1c-1.3,2.6-2.4,4.9-3.7,7.6c4.9,0,9.5,0,14.8,0
		c0.5-10.7,1-21.4,1.5-32.2c3.3,0,6.6,0,10.8,0c-0.5,10.6-0.9,21.2-1.4,32.3c8.6,0,17.6,0,26.9,0c0,3.3,0,6.3,0,9.8
		c-3,0-6.1,0-9.1,0c-6.1,0-12.2-0.1-18.2,0.1c-1.2,0-2.4,0.7-3.7,1c0.1,0.4,0.1,0.8,0.2,1.2c9.9,4.9,19.7,9.9,29.9,15
		c-1.7,3.3-3.2,6.3-4.8,9.4c-10.5-5.5-20.8-10.8-31-16.1c-10.9,8.6-20.4,12.5-40,16.2c-0.6-1.6-1.2-3.3-1.8-4.9
		c-0.6-1.7-1.1-3.3-1.8-5.2c13.3-3.4,27.2-4.6,37.8-16.2c-13.3,0-25.7,0-38.4,0c0-3.6,0-6.6,0-9.9c8.3,0,16.4,0,24.4,0
		c0.1-0.3,0.2-0.6,0.3-0.8C22.1,449.5,15.5,445.5,8.7,441.4z"/>
	<path class="st0" d="M129.8,430.3c0-8.6,0-16.5,0-24.7c3.6,0,6.8,0,10.3,0c0.1,2.1,0.3,4.1,0.4,6.5c12,0,23.9,0,36.1,0
		c0,3.6,0,6.8,0,10.4c-12,0-23.9,0-36,0c0,2.7,0,4.9,0,7.5c9.6,0,19.1,0,28.9,0c0,11.1,0,21.8,0,32.9c-21.5,0-42.9,0-64.4,0
		c0-10.9,0-21.6,0-32.6C113.2,430.3,121.1,430.3,129.8,430.3z M115.9,453c14.7,0,29,0,43.2,0c0-4.4,0-8.5,0-12.5
		c-14.6,0-28.9,0-43.2,0C115.9,444.8,115.9,448.8,115.9,453z"/>
	<path class="st0" d="M256.7,461.7c3.5,0.9,6.7,1.7,10.3,2.6c-0.5,5.4-0.7,10.6-1.4,15.6c-0.7,5-4.1,8-9.8,8.3
		c-7.7,0.4-15.5,0.4-23.3,0c-6-0.3-8.9-3.1-9.7-9.2c-0.6-4.2-0.5-8.5-0.6-12.8c-0.1-8.2,0-16.5,0-25.3c-1.9,1.2-3.4,2.2-5.1,3.3
		c-2.1-2.8-4.2-5.5-6.4-8.5c11.6-8.6,21.1-18.7,27.8-31.1c2.7,0,5.3,0,8,0c6.1,12.7,15.6,22.4,27.3,30.6c-1.9,3-3.8,5.9-5.8,9
		c-10.7-6.7-18.8-15.6-25.1-26.2c-5.2,6.3-10.4,12.6-15.7,19.1c1.7,0.2,3.6,0.4,5.7,0.7c0,4.5,0,8.9,0,14.3
		c8.4-4.7,16.1-9.1,24-13.5c1.6,3,3.2,6,5.1,9.6c-9.7,5.1-19.1,10-28.8,15.1c0,4.5,0,9.2,0,14.2c1.4,0.4,2.6,1,3.8,1.1
		c4.6,0.1,9.3,0,14,0c3.1,0,4.8-1.7,5-4.8C256.2,469.9,256.4,466,256.7,461.7z"/>
	<path class="st0" d="M469.1,485.9c0.1-1.4,0.1-2.6,0.2-4.1c12.5,0,24.9,0,37.5,0c0-4.2,0-8,0-12.2c-9.5,0-18.7,0-28.4,0
		c-0.1-1.5-0.3-2.7-0.4-4.4c9.7,0,19,0,28.7,0c0-3.7,0-7,0-10.6c-8.7,0-17.6,0-26.6,0c-0.3-0.9-0.6-2-0.8-3
		c6.3-4.8,12.4-9.5,18.5-14.2c-0.1-0.3-0.2-0.6-0.3-0.8c-6,0-12,0-18.3,0c-0.1-1.6-0.2-2.8-0.3-4.3c20.4,0,40.6,0,61.1,0
		c0.1,1.1,0.2,2.3,0.3,3.9c-11.8,0-23.2,0-34.3,0c-5.9,4.9-11.4,9.4-16.8,13.9c13.3,0,26.6,0,39.8,0c0.1-0.3,0.2-0.7,0.3-1
		c-2.9-2.6-5.8-5.3-8.9-8.1c1.1-1,2.1-1.8,3.3-2.9c6.6,5.9,13.1,11.7,19.7,17.7c-1.1,1.3-2,2.3-3,3.4c-2.1-1.9-4-3.6-5.7-5.1
		c-7.6,0-14.9,0-22.5,0c0,3.8,0,7.1,0,10.8c9.3,0,18.7,0,28.4,0c0.1,1.6,0.2,2.8,0.3,4.5c-9.7,0-19,0-28.6,0c0,4.3,0,8.1,0,12.4
		c12.4,0,24.7,0,37.4,0c0.1,1.6,0.2,2.8,0.2,4.2C522.8,485.9,496.2,485.9,469.1,485.9z"/>
	<path class="st0" d="M476.1,565.7c-0.9,2.4-1.6,4.3-2.3,6.2c-12.9-4.7-25.6-9.3-38.5-13.9c0.6-2,1.2-3.8,1.9-6.1
		c7,2.4,13.8,4.7,20.8,7c3.6-3,7.2-6,11.7-9.7c-11,0-20.9,0-32,0c1.1-4.4,2-8.2,3-12.4c-4.2,0-8.6,0-13.2,0c0-2.2,0-4,0-6.2
		c5.4,0,10.7,0,16.3,0c0.8-2.2,1.4-4.1,2.2-6.5c-5.2,0-10.1,0-15.2,0c0-2.1,0-3.9,0-6.1c5.5,0,11.1,0,17,0c0.9-2.7,1.7-5.1,2.5-7.7
		c2.1,0.3,4.1,0.5,6.5,0.8c-0.4,2.2-0.8,4.3-1.2,6.8c9,0,17.8,0,26.7,0c0,2.1,0,3.9,0,6.1c-9.6,0-19.1,0-28.7,0
		c-0.7,2.3-1.4,4.2-2.2,6.6c11.6,0,22.8,0,34.1,0c0,2.2,0,3.9,0,6c-12.1,0-24.1,0-36.2,0c-0.9,2.1-1.7,3.9-2.7,6.2
		c10.9,0,21.5,0,32.3,0c0,2.4,0,4.3,0,6.9c-4.2,3.5-8.8,7.4-13.8,11.7C468.8,562.9,472.3,564.2,476.1,565.7z"/>
	<path class="st0" d="M532,547.5c-1.1,0.5-2,0.9-2.3,1c0,4.8,0.2,9.2,0,13.5c-0.3,5.8-2.9,8.4-8.7,8.7c-3.1,0.1-6.1,0-9.4,0
		c-0.4-1.9-0.6-3.5-0.9-5.1c13.5-1.9,13.5-1.9,12.6-10.1c-8.9,4.7-18,9.4-27.5,14.4c-1.2-2.4-2-4.1-2.6-5.4
		c7.7-3.7,15.2-7.2,22.6-10.9c1.8-0.9,3.6-2.1,5.1-3.5c0.8-0.7,0.9-2.1,1.6-4c-9.3,4.4-17.5,8.4-26.1,12.5c-0.8-2.3-1.4-3.9-2-5.3
		c8.3-3.8,16.3-7.4,24.8-11.3c-1.1-1.3-1.6-2-2-2.5c-6.9,2.7-13.4,5.3-20.5,8.1c-0.8-1.9-1.4-3.5-2.1-5.3c7.7-2.9,15.2-5.8,22.8-8.6
		c-0.1-0.3-0.1-0.7-0.2-1c-4.4,0-8.8,0-13.4,0c0-1.8,0-3.2,0-4.8c12.3,0,24.7,0,37.3,0c0.1,1.4,0.1,2.7,0.2,4.3
		c-6.2,1.6-13.5-2.1-18.6,4.4c1.4,2.1,2.8,4.4,4.5,6.9c5.7-3.1,11.3-6.2,17.2-9.4c0.9,1.5,1.8,3.1,3,5.1c-3.3,1.9-6.5,3.8-9.8,5.7
		c2.9,7.3,7.3,13.1,14.2,17.4c-1.3,1.9-2.5,3.5-3.7,5.2C540.3,562.7,535.7,555.6,532,547.5z"/>
	<path class="st0" d="M28.6,362.6c-2.3,0-4.6,0-7,0c-2.8-4-5.5-7.9-8.9-12.7c0,8.6,0,16.2,0,24c-3.2,0-5.8,0-8.8,0
		c0-13.6,0-27.1,0-40.9c2.6,0,5.1,0,8.2,0c4.1,6.1,8.3,12.6,13,19.6c4.6-6.8,8.9-13.3,13.1-19.7c2.8,0,5.3,0,8.1,0
		c0,13.7,0,27.2,0,41c-2.8,0-5.4,0-8.6,0c0-7.6,0-15.3,0-22.9c-0.3-0.1-0.6-0.2-0.9-0.3C34.1,354.6,31.4,358.6,28.6,362.6z"/>
	<path class="st0" d="M170.4,542.3c0.5-3.7,0.7-6.7,1.3-9.5c2.8-11.6,11.4-18.3,22.9-17.8c11.3,0.5,19.9,8,21.2,19.8
		c0.6,5.8,0.4,11.9-1,17.6c-2.4,9.9-10.3,15.4-20.5,15.7c-10.4,0.3-18.4-4.9-21.7-14.7C171.3,549.6,171,545.5,170.4,542.3z
		 M177.9,541.4c1,3.9,1.5,7.8,3,11.3c2.2,5.1,6.4,7.9,12.2,8.1c5.9,0.1,10.3-2.4,12.9-7.6c3.8-7.8,3.7-15.7-0.1-23.5
		c-2.5-5.1-7-7.5-12.6-7.4c-5.7,0.1-10,2.7-12.2,8C179.6,533.8,178.9,537.6,177.9,541.4z"/>
	<path class="st0" d="M536.1,355.5c0-7.4,0-14.7,0-22.4c3.1,0,6,0,9,0c0,13.6,0,27.2,0,40.9c-2.6,0-5,0-7.8,0
		c-5.1-7.5-10.3-15.1-15.5-22.7c-0.3,0.1-0.6,0.1-0.9,0.2c0,7.5,0,15,0,22.6c-3.3,0-6,0-9,0c0-13.5,0-27,0-40.9c2.6,0,5.4,0,8.4,0
		c4.9,7.4,10,15,15,22.6C535.5,355.6,535.8,355.6,536.1,355.5z"/>
	<path class="st0" d="M360.3,355.7c0-7.5,0-15.1,0-22.8c3.1,0,5.8,0,8.8,0c0,13.6,0,27.2,0,41c-2.6,0-5,0-7.8,0
		c-2.5-3.7-5.2-7.7-7.9-11.6c-2.6-3.8-5.2-7.6-8.5-11.2c0,7.5,0,15,0,22.8c-3.2,0-6,0-9,0c0-13.5,0-27,0-40.8c2.6,0,5.2,0,8.4,0
		c4.9,7.4,10.1,15.2,15.2,23C359.7,355.9,360,355.8,360.3,355.7z"/>
	<path class="st0" d="M86.7,530c-6,0-12,0-18.3,0c0-2,0-3.6,0-5.6c3.9,0,7.9,0,13,0c-3.5-3.3-6.2-5.8-8.9-8.4
		c1.2-1.4,2.4-2.7,3.8-4.2c3.7,3.1,7.1,6,10.7,9c-0.7,1.1-1.4,2-2.2,3.2c2.5,0,4.6,0,7.2,0c0-4.1,0-8.1,0-12.4c2.5,0,4.5,0,6.7,0
		c0,4.2,0,8.1,0,12.4c2.4,0,4.5,0,6.9,0c-0.5-1-1-1.8-1.6-2.8c3.3-3,6.6-6,10.2-9.3c1.4,1.3,2.7,2.6,4.3,4c-2.8,2.7-5.5,5.2-8.8,8.3
		c4.7,0,8.7,0,12.8,0c0,2,0,3.6,0,5.8c-7.5,0-14.9,0-22.3,0c0,0.3-0.1,0.6-0.1,0.9c7.8,3.1,15.6,6.2,23.8,9.4
		c-0.7,2-1.4,3.6-2.1,5.6c-7.6-3.1-15-6.2-22.7-9.4c-0.1,1.6-0.3,2.9-0.4,4.4c-2,0-4,0-6.1,0c-0.2-1.8-0.4-3.6-0.5-5
		c-7.4,3.7-14.8,7.4-22.6,11.3c-1-2.7-1.7-4.4-2.3-5.9c6.8-3.2,13.5-6.4,20.2-9.6C87.1,531.1,86.9,530.5,86.7,530z"/>
	<path class="st0" d="M173.9,374.1c0-13.9,0-27.3,0-41.4c8.2,0.4,16.5-1.5,24.4,1.8c8,3.3,12,11.2,11,21.4
		c-0.9,9.4-6.2,15.6-14.9,17.5c-1.5,0.3-3.1,0.7-4.6,0.7C184.6,374.2,179.5,374.1,173.9,374.1z M183.1,341.4c0,8.4,0,16.2,0,24
		c6.2,0.3,12,0.4,15.3-5.5c2.5-4.6,2.4-9.6-0.5-14C194.3,340.6,188.7,341.2,183.1,341.4z"/>
	<path class="st0" d="M325.2,464.5c-14.5,0-28,0-41.7,0c0-1.5,0-2.8,0-4.5c14.3,0,28.6,0,43.3,0c3.1-11.1,1.9-22.2,2.8-33.4
		c1.4-0.1,2.6-0.1,4.9-0.2c-0.5,11.1-1,22-1.5,33.3c9.7,0,19.8,0,30.4,0c0.1,1.7,0.1,3,0.2,4.7c-11.1,0-21.9,0-32.8,0
		c-0.7,1.4-1.4,2.6-2.1,4.1c11.3,5.3,22.3,10.5,33.8,15.8c-0.8,1.5-1.5,2.8-2.3,4.5c-11.4-5.5-22.7-11-34.1-16.5
		c-11,10.8-25.3,13.8-39.6,17.5c-0.6-1.7-1-2.9-1.6-4.6C299.3,480.9,314.9,479,325.2,464.5z"/>
	<path class="st0" d="M71.7,418.1c-22,0-43.4,0-65,0c0-3.3,0-6.2,0-9.3c25.2,0,50.3,0,75.4,0c2,10-2.9,18.4-5.3,27.8
		c-3.3-1-6.3-1.8-10.2-3C68.2,428.7,69.8,423.8,71.7,418.1z"/>
	<path class="st0" d="M300.6,534.6c-1.4,1-2.2,1.5-3.4,2.4c-0.8-2-1.6-3.9-2.1-5.1c5.5-6.8,10.7-13.1,16.4-20.1c0.9,0,2.7,0,5,0
		c4.2,4.7,8.8,9.8,13.4,15c-1.1,1.9-2.1,3.5-3.4,5.6c-4.2-5-8.2-9.8-12.4-14.7c-3.6,4.7-6.9,9.1-10.6,13.9c7.2,0,13.9,0,20.7,0
		c0,5.9,0.1,11.4-0.1,16.9c-0.1,3.9-2.6,5.7-6.4,5.8c-2.3,0.1-4.6,0-7.1,0c-0.3-1.8-0.7-3.4-1-5.2c2.9-0.2,5.6-0.4,8.8-0.7
		c0.3-3.6,0.6-7,0.9-10.7c-4.4,0-8.3,0-12.5,0c0,8.3,0,16.5,0,25.2c4.8,1.3,9.6,1.1,14.4,0.2c0.8-0.1,1.5-2,1.7-3.1
		c0.4-2,0.3-4.1,0.4-6.4c2,0.4,3.8,0.7,6,1.1c-0.3,3.4-0.5,6.7-1,10c-0.4,2.7-2.3,4.4-5,4.5c-5.3,0.2-10.6,0.5-15.8,0.2
		c-5.2-0.3-6.9-2.6-7-7.9C300.6,552.8,300.6,544,300.6,534.6z"/>
	<path class="st0" d="M232.3,548.8c0,6.2,0,11.9,0,17.9c-2.6,0-4.8,0-7.3,0c0-16.8,0-33.6,0-50.2c7.7,0,15.4-0.8,22.9,0.2
		c8.8,1.1,13.2,7.8,12.6,16.7c-0.5,8.5-5.7,14-14.5,14.8C241.6,548.6,237.2,548.6,232.3,548.8z M232.5,541.7
		c4.8-0.4,9.4-0.4,13.8-1.3c4.4-0.9,6.3-4,6.3-8.1c0-4.2-1.9-7.2-6.2-8.1c-4.4-1-9.1-1-13.9-1.5
		C232.5,529.2,232.5,535.1,232.5,541.7z"/>
	<path class="st0" d="M483.1,333c0,9.9,0.5,19.5-0.1,29c-0.5,8-7.4,13-16.1,13c-8.9,0-15.6-5.2-16.1-13.4
		c-0.6-9.4-0.1-18.8-0.1-28.5c3,0,5.9,0,9.1,0c0,7.1,0,13.9,0,20.7c0,1.4,0,2.8,0,4.3c0.2,5.1,3,8.4,7.2,8.4c4.2,0,7.1-3.3,7.2-8.4
		c0.1-6.8,0-13.7,0-20.5c0-1.4,0-2.8,0-4.4C477.4,333,480.2,333,483.1,333z"/>
	<path class="st0" d="M368.6,570.4c-0.4-2-0.8-3.8-1.1-5.7c2.2-0.2,4.2-0.3,6.6-0.5c0-5,0-9.9,0-15.1c-3.6,0-7.4,0-11.4,0
		c0-2,0-3.7,0-5.6c3.9,0,7.6,0,11.5,0c0-2.1,0-3.8,0-6c-4,0-8.2,0-12.7,0c0-2,0-3.6,0-5.5c2.3-0.1,4.7-0.3,7.4-0.4
		c-0.7-3.1-1.3-5.8-1.9-8.7c-1.3-0.2-2.5-0.5-3.9-0.7c0-1.6,0-3.1,0-5c3.6,0,7,0,10.9,0c-0.5-2.1-0.9-3.8-1.3-5.9
		c2-0.4,3.8-0.8,6-1.2c0.8,2.3,1.6,4.4,2.4,6.9c3.2,0,6.3,0,9.7,0c0,1.9,0,3.4,0,5.1c-1,0.2-1.9,0.5-3.2,0.8
		c-0.7,2.7-1.5,5.6-2.3,8.8c2.4,0.1,4.5,0.2,6.8,0.4c0,1.8,0,3.4,0,5.4c-3.9,0-7.7,0-11.7,0c0,2.2,0,3.9,0,6c3.7,0,7.1,0,10.8,0
		c0,2,0,3.6,0,5.6c-3.6,0-7.1,0-11,0c0,4.7,0,8.9,0,13.2c0,7.5-1.1,8.5-8.5,8.4C370.8,570.6,370,570.5,368.6,570.4z M372.5,522.7
		c0.8,3.2,1.4,6.1,2.1,8.9c1.9,0,3.4,0,5.1,0c0.8-3,1.5-5.8,2.3-8.9C378.7,522.7,375.8,522.7,372.5,522.7z"/>
	<path class="st0" d="M111.4,374c-3.5,0-6.5,0-9.7,0c-1-2.8-2.1-5.5-3.1-8.4c-4.7,0-9.3,0-14.1,0c-1.1,2.8-2.1,5.6-3.1,8.4
		c-3,0-6,0-9.6,0c5-13.8,10-27.3,15-41c3.2,0,6.2,0,9.6,0C101.2,346.4,106.2,360,111.4,374z M95.5,356.3c-1.3-3.8-2.5-7.4-4-11.8
		c-1.5,4.5-2.7,8-4,11.8C90.3,356.3,92.7,356.3,95.5,356.3z"/>
	<path class="st0" d="M310.4,374c-3.6,0-6.4,0-9.6,0c-1-2.6-2-5.4-3.1-8.4c-4.7,0-9.4,0-14.3,0c-1,2.8-2.1,5.5-3.1,8.3
		c-3.1,0-6,0-9.6,0c5.1-13.8,10-27.3,15-41c3.2,0,6.2,0,9.6,0C300.3,346.4,305.2,359.9,310.4,374z M294.6,356.4
		c-1.3-3.8-2.5-7.2-3.6-10.6c-0.3,0-0.6,0.1-0.9,0.1c-1.1,3.4-2.3,6.8-3.5,10.5C289.4,356.4,291.6,356.4,294.6,356.4z"/>
	<path class="st0" d="M90.6,553.5c-8.1,0-15.4,0-22.8,0c0-2.1,0-3.7,0-5.6c7.9,0,15.7,0,23.6,0c0.3-1.4,0.5-2.7,0.8-4.2
		c1.9,0,3.9,0,6.1,0c0.2,1.2,0.4,2.4,0.7,4c8,0,16,0,24.2,0c0,2,0,3.6,0,5.6c-7.5,0-14.9,0-23.4,0c7.1,7.3,15.3,9.4,24.2,11.3
		c-0.4,2.1-0.8,4.2-1.3,6.7c-9.9-2.7-19.5-5.2-26.7-12.9c-7.6,7.9-17.7,9.7-27.7,12.7c-0.7-2.3-1.3-4.1-1.9-6.2
		C74.6,562.4,83.7,561.4,90.6,553.5z"/>
	<path class="st0" d="M394.6,517.4c7.5-1.6,14.6-3,22.4-4.7c0.5,1.6,1.1,3.4,2,5.9c-6.2,1.5-12,2.9-18,4.4c0,3.1,0,6.3,0,9.9
		c6.3,0,12.4,0,18.8,0c0,2.2,0,3.9,0,5.9c-1.9,0.1-3.8,0.2-6.2,0.4c0,10.4,0,20.8,0,31.4c-2.1,0-3.7,0-5.8,0c0-10.4,0-20.8,0-31.4
		c-2.5,0-4.5,0-6.8,0c-0.3,11.1-0.4,22.1-7,32.2c-1.9-0.9-3.8-1.8-6.1-2.9c8.4-12.3,6.5-26.1,6.8-39.6
		C394.7,525,394.6,521.1,394.6,517.4z"/>
	<path class="st0" d="M218.7,473.4c-5.7,4.7-11.1,9.2-16.7,13.9c-2.1-2.4-4.1-4.7-5.3-6.1c0.3-5.9,0.6-10.8,0.7-15.8
		c0.1-6.8,0-13.7,0-20.9c-2.9,0-5.5,0-8.3,0c0-3.6,0-6.8,0-10.1c6,0,11.9,0,18.3,0c0,11.5,0,23.2,0,35.6c3-2.3,5.2-4.1,7.8-6.1
		C216.4,467.1,217.5,470.1,218.7,473.4z"/>
	<path class="st0" d="M377,415.1c0-1.8,0-2.9,0-4.3c8.1,0,16.1,0,24.3,0c-0.8,11.8-1.5,23.3-2.3,34.9c1.7,0.2,3,0.4,3.9,0.6
		c0,7.2,0.1,14.3,0,21.3c0,3.5-0.3,7-0.6,10.4c-0.5,5.3-2.8,7.7-8.2,8c-4,0.2-8,0-12.2,0c-0.3-1.3-0.5-2.4-0.8-4
		c3.4,0,6.5,0.1,9.5,0c5.5-0.1,7-1.4,7.4-6.8c0.5-8.1,0.8-16.3,1.2-24.8c-6.4,0-12.6,0-19.6,0c0.7-10.5,1.4-20.6,2.2-31
		c1.4,0,2.6,0,4.1,0c-0.6,8.8-1.2,17.4-1.8,26.2c3.6,0,6.8,0,10.5,0c0.7-10,1.5-20.1,2.3-30.7C390.2,415.1,383.8,415.1,377,415.1z"
		/>
	<path class="st0" d="M145.3,523.3c-5.4,0-10.1,0-15.2,0c0-2.4,0-4.5,0-7c12.4,0,25,0,37.7,0c0,2.2,0,4.2,0,6.8c-4.9,0-9.7,0-15,0
		c0,14.8,0,29,0,43.6c-2.7,0-4.9,0-7.5,0C145.3,552.4,145.3,538.1,145.3,523.3z"/>
	<path class="st0" d="M50.2,535.8c-13.9,0-27.4,0-41.3,0c0-7.1,0-14.2,0-21.5c13.6,0,27.3,0,41.3,0
		C50.2,521.4,50.2,528.5,50.2,535.8z M15.1,530c9.7,0,19,0,28.6,0c0-3.5,0-6.7,0-10.2c-9.7,0-19,0-28.6,0
		C15.1,523.2,15.1,526.4,15.1,530z"/>
	<path class="st0" d="M406.5,365.7c6.6,0,12.4,0,18.5,0c0,2.8,0,5.4,0,8.2c-9,0-17.9,0-27.1,0c0-13.6,0-27.2,0-41c2.7,0,5.4,0,8.6,0
		C406.5,343.7,406.5,354.5,406.5,365.7z"/>
	<path class="st0" d="M355.2,421.6c-21.3,0-42,0-63.1,0c0,4,0,8,0,12.2c-1.9,0-3.4,0-5.2,0c0-5.4,0-10.9,0-16.8
		c11.9,0,23.8,0,36.3,0c-1.5-4-2.8-7.5-4.3-11.4c1.7-0.4,3.3-0.7,5.2-1.2c1.7,4.2,3.3,8.2,5,12.4c10.3,0,20.5,0,30.9,0
		c0,5.8,0,11.3,0,17.1c-1.5,0-3,0-4.9,0C355.2,429.9,355.2,425.9,355.2,421.6z"/>
	<path class="st0" d="M266.2,521.8c5.6-2.1,10.3-7.4,17.6-5.5c0,16.8,0,33.5,0,50.4c-2.5,0-4.8,0-7.5,0c0-13.8,0-27.4,0-41.8
		c-3.6,1.8-6.7,3.2-10.1,4.9C266.2,527.1,266.2,524.8,266.2,521.8z"/>
	<path class="st0" d="M3.1,542.6c7.8,0,15.2,0,22.8,0c0,9.4,0,18.7,0,28.4c-1.6,0.1-3.2,0.2-5,0.3c-0.3-1.2-0.6-2.2-0.9-3.5
		c-3.4,0-6.9,0-10.7,0c-0.3,0.9-0.6,2-0.9,3.2c-1.7,0-3.4,0-5.4,0C3.1,561.4,3.1,552.1,3.1,542.6z M9.1,548.5c0,4.5,0,8.6,0,12.8
		c3.8,0,7.4,0,11,0c0-4.4,0-8.6,0-12.8C16.3,548.5,12.8,548.5,9.1,548.5z"/>
	<path class="st0" d="M37.3,570.9c-2.1,0-3.6,0-5.2,0c0-9.5,0-18.7,0-28.2c7.9,0,15.7,0,23.6,0c0,9.5,0,18.7,0,28.2
		c-1.8,0-3.4,0-5.3,0c-0.3-1-0.6-2-0.9-3.2c-3.7,0-7.4,0-11.3,0C37.9,568.8,37.6,569.8,37.3,570.9z M49.7,561.4c0-4.5,0-8.6,0-12.8
		c-4,0-7.6,0-11.6,0c0,4.4,0,8.5,0,12.8C42.1,561.4,45.8,561.4,49.7,561.4z"/>
	<path class="st0" d="M477.5,421.2c0,3.2,0,6,0,9.1c-1.6,0-3,0-4.6,0c0-4.4,0-8.7,0-13.4c12,0,23.9,0,36.4,0
		c-1.5-3.9-2.8-7.3-4.2-11.1c1.6-0.4,3-0.7,4.9-1.2c1.7,4,3.3,8,5.1,12.3c10.4,0,20.7,0,31.2,0c0,4.5,0,8.7,0,13.3
		c-1.4,0-2.8,0-4.7,0c0-3,0-5.9,0-9C520.2,421.2,499.1,421.2,477.5,421.2z"/>
	<path class="st0" d="M501.4,522.7c0,2.5,0,4.5,0,6.9c-2.1,0-3.9,0-6,0c0-4.1,0-8.2,0-12.5c8,0,15.9,0,24.1,0
		c-0.7-2.2-1.2-4-1.9-6.2c2.3-0.4,4.4-0.7,6.8-1.1c1,2.4,2,4.7,3.1,7.3c7.3,0,14.5,0,21.9,0c0,4.2,0,8.2,0,12.7
		c-1.7,0.1-3.6,0.2-5.7,0.3c-0.1-2.6-0.3-4.8-0.4-7.3C529.4,522.7,515.6,522.7,501.4,522.7z"/>
	<path class="st0" d="M344.8,511.2c2.4,0,4,0,6,0c0.1,1.4,0.2,2.7,0.2,3.9c0,15,0,30,0,45c0,1.8,0.2,3.9-0.6,5.3
		c-1,1.8-2.7,4-4.5,4.5c-3.6,0.9-7.4,0.6-11.5,0.9c-0.5-2.5-0.9-4.6-1.4-7.1c3.6,0,7,0,10.9,0c0.3-2,0.8-3.7,0.8-5.4
		c0.1-14.2,0-28.4,0-42.7C344.8,514.2,344.8,512.9,344.8,511.2z"/>
	<path class="st0" d="M136.6,332.9c3.1,0,5.8,0,8.8,0c0,13.7,0,27.3,0,41.1c-3,0-5.8,0-8.8,0C136.6,360.2,136.6,346.7,136.6,332.9z"
		/>
	<path class="st0" d="M245.3,333.1c0,13.5,0,27,0,40.8c-2.8,0-5.6,0-8.7,0c0-13.5,0-27,0-40.8C239.4,333.1,242.2,333.1,245.3,333.1z
		"/>
	<path class="st0" d="M402.9,436.9c11-8.6,19.3-19,25.3-31.3c0.8-0.1,1.4-0.1,2.1-0.2c0.6,0,1.3,0.1,2.1,0.1
		c5.8,12.5,14.3,22.9,25.4,31.4c-0.7,1.4-1.3,2.6-2.2,4.2c-10.8-7.9-18.8-18-25.2-30c-6.5,11.7-14.3,21.7-24.8,30
		C404.8,439.8,404,438.6,402.9,436.9z"/>
	<path class="st0" d="M446.2,446.2c1.3,0.5,2.4,0.9,3.9,1.4c-3.4,10.8-6.7,21.4-10.2,32.6c5.3,0,10.2,0,15.2,0
		c0.1,1.5,0.1,2.7,0.2,4.1c-16.4,0-32.5,0-48.8,0c0-1.3,0-2.5,0-4.1c9.6,0,19,0,28.9,0C439,468.9,442.5,457.8,446.2,446.2z"/>
	<path class="st0" d="M593.4,484.5c-0.5,3.2-0.8,6.5-1.7,9.7c-1.4,4.7-4.7,6.9-9.5,7c-5,0.1-8.4-2.2-9.9-7c-2-6.3-2-12.7-0.1-19
		c1.5-4.9,4.8-7.1,9.8-7c5.2,0,8.3,2.1,9.8,7.1C592.6,478.1,592.9,481.2,593.4,484.5z M589.3,484c-0.4-2.7-0.6-5.1-1.2-7.5
		c-0.8-3.3-3.1-4.5-6.4-4.4c-3.4,0-5.8,1.7-6,4.8c-0.4,5-0.5,10-0.1,15c0.3,3.3,2.5,5.2,6.1,5.2c3.5,0,5.8-1.5,6.4-4.9
		C588.8,489.5,589,486.6,589.3,484z"/>
	<path class="st0" d="M580.3,431.6c1.5-3.3,3-6.6,4.7-10.2c-1.6-0.1-3-0.1-4.3-0.3c-4.8-0.6-8.8-4.3-9.6-8.8
		c-0.8-4.3,1.3-8.7,5.4-11.1c4.4-2.5,10.4-1.9,14.1,1.4c3.5,3.1,4.7,7.8,2.7,11.9c-2.7,5.6-5.6,11-8.6,16.4c-0.5,0.9-2,1.3-3,1.9
		C581.2,432.5,580.7,432.1,580.3,431.6z M582.6,403.8c-4.3-0.1-7.5,2.7-7.7,6.5c-0.2,4,3.1,7.1,7.5,7.1c4.2,0,7.9-3.2,7.8-7
		C590.2,406.7,586.9,403.8,582.6,403.8z"/>
	<path class="st0" d="M591.7,557.3c1.1,1.1,2.1,2.2,3.6,3.8c-2.1,0.8-3.1,1.2-4.3,1.6c0,1.9,0,3.9,0,6.2c-1.2,0.1-2.2,0.3-3.6,0.4
		c-0.2-2.5-0.3-4.5-0.5-6.7c-5.2-1.4-10.8,0.7-17.1-1.7c6.4-8.5,12.2-16.2,18.2-23.9c0.3-0.5,1.6-0.2,2.8-0.3c0,7.2,0,14,0,20.7
		C591.1,557.3,591.4,557.3,591.7,557.3z M577,557.9c3.8,0,6.7,0,9.8,0c0-4.2,0-8.1,0-13.1C583.3,549.6,580.3,553.5,577,557.9z"/>
	<path class="st0" d="M106.4,464.7c2.8,1.2,5.5,2.3,8.9,3.7c-3.6,7.6-7,15-10.7,22.7c-3.3-1.9-6.2-3.5-8.9-5.1
		C99.2,478.9,102.7,472,106.4,464.7z"/>
	<path class="st0" d="M42.8,431c-1.7,3.1-3.1,5.7-4.7,8.7c-7.3-4.3-14.4-8.5-21.8-12.9c1.5-2.6,3-5.1,4.6-8
		C28.3,423,35.4,427,42.8,431z"/>
	<path class="st0" d="M158.8,468.9c3.1-1.5,5.8-2.7,8.8-4.2c3.8,6.9,7.5,13.6,11.4,20.6c-2.9,1.7-5.6,3.3-8.6,5.1
		C166.6,483.3,162.8,476.3,158.8,468.9z"/>
	<path class="st0" d="M338.1,554.9c-1.9,0-3.5,0-5.4,0c0-12.6,0-25.2,0-38.1c1.7,0,3.5,0,5.4,0C338.1,529.5,338.1,542.1,338.1,554.9
		z"/>
	<path class="st0" d="M214.7,422.1c-2.8,2.4-5.4,4.7-8.1,7.1c-4.4-5.9-8.7-11.5-13.2-17.5c2.6-2,5.1-4,8.1-6.3
		C205.9,411.1,210.2,416.5,214.7,422.1z"/>
	<path class="st0" d="M119.6,469.4c3.2-0.7,6-1.2,9.4-2c1.5,6.6,2.9,13.1,4.5,19.9c-3.6,0.7-6.7,1.3-10,2
		C122.2,482.6,120.9,476.2,119.6,469.4z"/>
	<path class="st0" d="M148.6,466.5c2.4,6.6,4.7,12.8,7.1,19.4c-3.2,0.9-6.2,1.8-9.4,2.7c-2.3-6.4-4.5-12.7-6.8-19.2
		C142.5,468.5,145.2,467.6,148.6,466.5z"/>
	<path class="st0" d="M584,364c-1,0.1-1.9,0.1-3.3,0.3c0-9.1,0-17.8,0-26.8c-2.1,0.5-3.8,0.9-5.4,1.3c-0.7-3.7,3.6-7,8.7-7
		C584,342.4,584,353,584,364z"/>
	<path class="st0" d="M447.3,436.6c0,1.5,0,2.8,0,4.2c-11.3,0-22.5,0-33.9,0c0-1.4,0-2.7,0-4.2C424.6,436.6,435.7,436.6,447.3,436.6
		z"/>
	<path class="st0" d="M409.5,447.7c1.5-0.4,2.4-0.7,3.8-1.1c2.3,8.8,4.7,17.4,7,26.4c-1.4,0.5-2.5,0.9-4,1.4
		C414.1,465.4,411.8,456.7,409.5,447.7z"/>
	<path class="st0" d="M292.9,444.2c0.7-1.3,1.2-2.3,2.1-3.8c7.2,4.1,14.3,8.1,21.5,12.2c-0.8,1.5-1.4,2.6-2.2,4
		C307.1,452.5,300.2,448.4,292.9,444.2z"/>
	<path class="st0" d="M424.3,446.7c1.2-0.4,2.3-0.8,4-1.4c2.1,8.3,4.2,16.3,6.3,24.6c-1.5,0.5-2.6,0.9-4,1.4
		C428.4,463.1,426.4,455,424.3,446.7z"/>
	<path class="st0" d="M322.5,438.4c-0.8,1.5-1.3,2.7-2.1,4.1c-6.6-4-13-7.9-19.7-12c0.6-1.3,1.2-2.4,2.1-4.1
		C309.3,430.5,315.7,434.4,322.5,438.4z"/>
	<path class="st0" d="M395.5,461.1c0.1,1.6,0.2,2.8,0.4,4.3c-6.5,1.2-12.8,2.3-19.4,3.4c-0.2-1.5-0.4-2.7-0.7-4.3
		C382.4,463.3,388.8,462.2,395.5,461.1z"/>
	<path class="st0" d="M367.2,550.6c1.6,0.7,3,1.3,5,2.1c-2.3,4.7-4.4,9.2-6.8,14.1c-1.9-1.2-3.2-2-4.6-2.8
		C363,559.4,365,555.2,367.2,550.6z"/>
	<path class="st0" d="M381.3,553.6c1.6-1.1,2.8-2,4.2-3c2.1,3,4.1,5.8,6.3,8.9c-1.5,1.1-2.8,2.1-4.4,3.3
		C385.4,559.5,383.4,556.6,381.3,553.6z"/>
</g>
</svg>
